# OBJ generated by ONSHAPE BY PTC INC, 1.217 Units = meters
mtllib transmission_right_link_base.mtl
g transmission_right_link_base
usemtl 0.301961_0.301961_0.301961_0.000000_0.000000
o mesh833
v -0.0001634 -0.000570091 4.73873e-05 
v -0.000198442 -0.000570091 4.73873e-05 
v -0.000198442 0.000989909 4.73873e-05 
v -0.0001634 0.000989909 4.73873e-05 
vn 0 0 -1 
vn 0 0 -1 
vn 0 0 -1 
vn 0 0 -1 
f 1//1 2//2 3//3 
f 3//3 4//4 1//1 
o mesh834
v -0.0001634 -0.000570091 4.73873e-05 
v -0.0001634 0.000989909 4.73873e-05 
v -0.0001634 0.000989905 6.03873e-05 
v -0.0001634 -0.000570091 6.03873e-05 
vn 1 0 0 
vn 1 0 0 
vn 1 0 0 
vn 1 0 0 
f 5//5 6//6 7//7 
f 7//7 8//8 5//5 
o mesh835
v -0.000128421 0.000989905 6.03873e-05 
v -0.000128421 -0.000570095 6.03873e-05 
v -0.0001634 -0.000570091 6.03873e-05 
v -0.0001634 0.000989905 6.03873e-05 
vn 0 0 -1 
vn 0 0 -1 
vn 0 0 -1 
vn 0 0 -1 
f 9//9 10//10 11//11 
f 11//11 12//12 9//9 
o mesh836
v -0.000128421 0.000989905 6.03873e-05 
v -0.000128415 0.000989905 0.000230387 
v -0.000128415 -0.000570095 0.000230387 
v -0.000128421 -0.000570095 6.03873e-05 
vn 1 0 0 
vn 1 0 0 
vn 1 0 0 
vn 1 0 0 
f 13//13 14//14 15//15 
f 15//15 16//16 13//13 
o mesh837
v -0.000128415 -0.000570095 0.000230387 
v -0.000128415 0.000989905 0.000230387 
v -0.000128456 0.000389905 0.000243387 
v -0.000128456 2.99051e-05 0.000243387 
v -0.00012841 0.000989905 0.000243387 
v -0.00012841 -0.000570095 0.000243387 
vn 1 0 0 
vn 1 0 0 
vn 1 0 0 
vn 1 0 0 
vn 1 0 0 
vn 1 0 0 
f 17//17 18//18 19//19 
f 19//19 20//20 17//17 
f 18//18 21//21 19//19 
f 20//20 22//22 17//17 
o mesh838
v -2.84212e-05 2.99051e-05 0.000243387 
v -2.84212e-05 -0.000570095 0.000243387 
v -0.00012841 -0.000570095 0.000243387 
v -0.000128456 2.99051e-05 0.000243387 
vn 0 0 -1 
vn 0 0 -1 
vn 0 0 -1 
vn 0 0 -1 
f 23//23 24//24 25//25 
f 25//25 26//26 23//23 
o mesh839
v -2.84212e-05 2.99051e-05 0.000268387 
v -2.84212e-05 2.99051e-05 0.000243387 
v -0.000128456 2.99051e-05 0.000243387 
v -0.000128459 2.99051e-05 0.000268387 
vn 0 1 0 
vn 0 1 0 
vn 0 1 0 
vn 0 1 0 
f 27//27 28//28 29//29 
f 29//29 30//30 27//27 
o mesh840
v -2.84212e-05 2.99051e-05 0.000243387 
v -2.84212e-05 2.99051e-05 0.000268387 
v -2.84212e-05 -0.000570095 0.000268387 
v -2.84212e-05 -0.000570095 0.000243387 
vn 1 0 0 
vn 1 0 0 
vn 1 0 0 
vn 1 0 0 
f 31//31 32//32 33//33 
f 33//33 34//34 31//31 
o mesh841
v -2.84212e-05 -0.000570095 0.000268387 
v -2.84212e-05 2.99051e-05 0.000268387 
v -0.000128459 2.99051e-05 0.000268387 
v -0.000128459 -0.000570095 0.000268387 
vn 0 0 1 
vn 0 0 1 
vn 0 0 1 
vn 0 0 1 
f 35//35 36//36 37//37 
f 37//37 38//38 35//35 
o mesh842
v -0.000128459 2.99051e-05 0.000268387 
v -0.000128456 2.99051e-05 0.000243387 
v -0.000128456 0.000389905 0.000243387 
v -0.000128459 0.000389905 0.000268387 
vn 1 0 0 
vn 1 0 0 
vn 1 0 0 
vn 1 0 0 
f 39//39 40//40 41//41 
f 41//41 42//42 39//39 
o mesh843
v -2.84212e-05 0.000389905 0.000243387 
v -0.000128456 0.000389905 0.000243387 
v -0.00012841 0.000989905 0.000243387 
v -2.84212e-05 0.000989905 0.000243387 
vn 0 0 -1 
vn 0 0 -1 
vn 0 0 -1 
vn 0 0 -1 
f 43//43 44//44 45//45 
f 45//45 46//46 43//43 
o mesh844
v -2.84212e-05 0.000389905 0.000268387 
v -0.000128459 0.000389905 0.000268387 
v -0.000128456 0.000389905 0.000243387 
v -2.84212e-05 0.000389905 0.000243387 
vn 0 -1 0 
vn 0 -1 0 
vn 0 -1 0 
vn 0 -1 0 
f 47//47 48//48 49//49 
f 49//49 50//50 47//47 
o mesh845
v -0.000128459 0.000389905 0.000268387 
v -2.84212e-05 0.000389905 0.000268387 
v -2.84212e-05 0.000989905 0.000268387 
v -0.000128459 0.000989905 0.000268387 
vn 0 0 1 
vn 0 0 1 
vn 0 0 1 
vn 0 0 1 
f 51//51 52//52 53//53 
f 53//53 54//54 51//51 
o mesh846
v -2.84212e-05 0.000389905 0.000243387 
v -2.84212e-05 0.000989905 0.000243387 
v -2.84212e-05 0.000989905 0.000268387 
v -2.84212e-05 0.000389905 0.000268387 
vn 1 0 0 
vn 1 0 0 
vn 1 0 0 
vn 1 0 0 
f 55//55 56//56 57//57 
f 57//57 58//58 55//55 
o mesh847
v -0.000128459 -0.000570087 0.000359387 
v -0.000128459 2.99051e-05 0.000268387 
v -0.000128459 0.000389905 0.000268387 
v -0.000128459 0.000989913 0.000359387 
v -0.000128459 -0.000570095 0.000268387 
v -0.000128459 0.000989905 0.000268387 
vn 1 0 0 
vn 1 0 0 
vn 1 0 0 
vn 1 0 0 
vn 1 0 0 
vn 1 0 0 
f 59//59 60//60 61//61 
f 61//61 62//62 59//59 
f 59//59 63//63 60//60 
f 61//61 64//64 62//62 
o mesh848
v -0.000198442 0.000989901 -5.06127e-05 
v -0.000198442 0.000989909 4.73873e-05 
v -0.000198442 -0.000570091 4.73873e-05 
v -0.000198442 -0.000570099 -5.06127e-05 
vn 1 0 0 
vn 1 0 0 
vn 1 0 0 
vn 1 0 0 
f 65//65 66//66 67//67 
f 67//67 68//68 65//65 
o mesh849
v -0.000198442 0.000989901 -5.06127e-05 
v -0.00156874 0.000989901 -5.06127e-05 
v -0.00156872 0.000989905 4.73873e-05 
v -0.000198442 0.000989909 4.73873e-05 
vn 0 1 0 
vn 0 1 0 
vn 0 1 0 
vn 0 1 0 
f 69//69 70//70 71//71 
f 71//71 72//72 69//69 
o mesh850
v -0.000198442 -0.000570099 -5.06127e-05 
v -0.000198442 -0.000570091 4.73873e-05 
v -0.00022747 -0.000570095 4.73873e-05 
v -0.000227492 -0.000570099 -5.06127e-05 
vn 0 -1 0 
vn 0 -1 0 
vn 0 -1 0 
vn 0 -1 0 
f 73//73 74//74 75//75 
f 75//75 76//76 73//73 
o mesh851
v -0.00156874 -0.000670143 -5.06127e-05 
v -0.00156874 0.000989901 -5.06127e-05 
v -0.000227492 -0.000570099 -5.06127e-05 
v -0.000198442 0.000989901 -5.06127e-05 
v -0.000198442 -0.000570099 -5.06127e-05 
v -0.000227492 -0.000670143 -5.06127e-05 
vn 0 0 -1 
vn 0 0 -1 
vn 0 0 -1 
vn 0 0 -1 
vn 0 0 -1 
vn 0 0 -1 
f 77//77 78//78 79//79 
f 80//80 81//81 79//79 
f 79//79 78//78 80//80 
f 79//79 82//82 77//77 
o mesh852
v -0.000227492 -0.000570099 -5.06127e-05 
v -0.00022747 -0.000570095 4.73873e-05 
v -0.00022747 -0.000670117 4.73873e-05 
v -0.000227492 -0.000670143 -5.06127e-05 
vn 1 0 0 
vn 1 0 0 
vn 1 0 0 
vn 1 0 0 
f 83//83 84//84 85//85 
f 85//85 86//86 83//83 
o mesh853
v -0.00156872 -0.000670117 4.73873e-05 
v -0.00156874 -0.000670143 -5.06127e-05 
v -0.000227492 -0.000670143 -5.06127e-05 
v -0.00022747 -0.000670117 4.73873e-05 
vn 0 -1 0 
vn 0 -1 0 
vn 0 -1 0 
vn 0 -1 0 
f 87//87 88//88 89//89 
f 89//89 90//90 87//87 
o mesh854
v -0.00022747 -0.000570095 4.73873e-05 
v -0.00022746 -0.000570093 6.03873e-05 
v -0.00022746 -0.000670093 6.03873e-05 
v -0.00022747 -0.000670117 4.73873e-05 
vn 1 0 0 
vn 1 0 0 
vn 1 0 0 
vn 1 0 0 
f 91//91 92//92 93//93 
f 93//93 94//94 91//91 
o mesh855
v -0.00022746 -0.000670093 6.03873e-05 
v -0.00022746 -0.000570093 6.03873e-05 
v -0.000227465 -0.000570095 0.000230387 
v -0.000227465 -0.000670095 0.000230387 
vn 1 0 0 
vn 1 0 0 
vn 1 0 0 
vn 1 0 0 
f 95//95 96//96 97//97 
f 97//97 98//98 95//95 
o mesh856
v -0.00022746 -0.000570093 6.03873e-05 
v -0.000128415 -0.000570095 0.000230387 
v -0.00012841 -0.000570095 0.000243387 
v -0.0001634 -0.000570091 6.03873e-05 
v -0.000128459 -0.000570087 0.000359387 
v -0.000227509 -0.000570087 0.000359387 
v -0.000227484 -0.000570091 0.000268387 
v -2.84212e-05 -0.000570095 0.000268387 
v -0.000128459 -0.000570095 0.000268387 
v -0.000128421 -0.000570095 6.03873e-05 
v -0.000198442 -0.000570091 4.73873e-05 
v -0.00022747 -0.000570095 4.73873e-05 
v -0.000227465 -0.000570095 0.000230387 
v -0.0001634 -0.000570091 4.73873e-05 
v -2.84212e-05 -0.000570095 0.000243387 
vn 0 -1 0 
vn 0 -1 0 
vn 0 -1 0 
vn 0 -1 0 
vn 0 -1 0 
vn 0 -1 0 
vn 0 -1 0 
vn 0 -1 0 
vn 0 -1 0 
vn 0 -1 0 
vn 0 -1 0 
vn 0 -1 0 
vn 0 -1 0 
vn 0 -1 0 
vn 0 -1 0 
f 99//99 100//100 101//101 
f 100//100 99//99 102//102 
f 103//103 104//104 105//105 
f 106//106 107//107 101//101 
f 102//102 108//108 100//100 
f 102//102 99//99 109//109 
f 105//105 107//107 103//103 
f 101//101 107//107 99//99 
f 99//99 110//110 109//109 
f 105//105 111//111 107//107 
f 109//109 112//112 102//102 
f 101//101 113//113 106//106 
f 111//111 99//99 107//107 
o mesh857
v -0.000227509 -0.000670087 0.000359387 
v -0.000227484 -0.000670091 0.000268387 
v -0.000227484 -0.000570091 0.000268387 
v -0.000227509 -0.000570087 0.000359387 
vn 1 0 0 
vn 1 0 0 
vn 1 0 0 
vn 1 0 0 
f 114//114 115//115 116//116 
f 116//116 117//117 114//114 
o mesh858
v -0.000227465 -0.000570095 0.000230387 
v -0.000227484 -0.000570091 0.000268387 
v -0.000227484 -0.000670091 0.000268387 
v -0.000227465 -0.000670095 0.000230387 
vn 1 0 0 
vn 1 0 0 
vn 1 0 0 
vn 1 0 0 
f 118//118 119//119 120//120 
f 120//120 121//121 118//118 
o mesh859
v -0.00156874 0.000989901 -5.06127e-05 
v -0.00156874 -0.000670143 -5.06127e-05 
v -0.00156872 -4.00907e-05 4.73873e-05 
v -0.00156872 0.000709909 4.73873e-05 
v -0.00156872 -0.000670117 4.73873e-05 
v -0.00156872 0.000989905 4.73873e-05 
vn -1 0 0 
vn -1 0 0 
vn -1 0 0 
vn -1 0 0 
vn -1 0 0 
vn -1 0 0 
f 122//122 123//123 124//124 
f 124//124 125//125 122//122 
f 123//123 126//126 124//124 
f 125//125 127//127 122//122 
o mesh860
v -0.00156871 0.000709907 6.03873e-05 
v -0.00156871 0.000989907 6.03873e-05 
v -0.00156872 0.000989905 4.73873e-05 
v -0.00156872 0.000709909 4.73873e-05 
vn -1 0 0 
vn -1 0 0 
vn -1 0 0 
vn -1 0 0 
f 128//128 129//129 130//130 
f 130//130 131//131 128//128 
o mesh861
v -0.00156871 0.000989905 0.000230387 
v -0.00156871 0.000989907 6.03873e-05 
v -0.00156871 0.000709907 6.03873e-05 
v -0.00156871 0.000709905 0.000230387 
vn -1 0 0 
vn -1 0 0 
vn -1 0 0 
vn -1 0 0 
f 132//132 133//133 134//134 
f 134//134 135//135 132//132 
o mesh862
v -0.0001634 0.000989905 6.03873e-05 
v -0.000128459 0.000989905 0.000268387 
v -0.00012841 0.000989905 0.000243387 
v -0.000128459 0.000989913 0.000359387 
v -0.00156873 0.000989909 0.000268387 
v -0.000128415 0.000989905 0.000230387 
v -2.84212e-05 0.000989905 0.000268387 
v -2.84212e-05 0.000989905 0.000243387 
v -0.00156871 0.000989905 0.000230387 
v -0.000198442 0.000989909 4.73873e-05 
v -0.00156871 0.000989907 6.03873e-05 
v -0.000128421 0.000989905 6.03873e-05 
v -0.00156872 0.000989905 4.73873e-05 
v -0.00156876 0.000989913 0.000359387 
v -0.0001634 0.000989909 4.73873e-05 
vn 0 1 0 
vn 0 1 0 
vn 0 1 0 
vn 0 1 0 
vn 0 1 0 
vn 0 1 0 
vn 0 1 0 
vn 0 1 0 
vn 0 1 0 
vn 0 1 0 
vn 0 1 0 
vn 0 1 0 
vn 0 1 0 
vn 0 1 0 
vn 0 1 0 
f 136//136 137//137 138//138 
f 139//139 137//137 140//140 
f 138//138 141//141 136//136 
f 142//142 143//143 138//138 
f 137//137 144//144 140//140 
f 144//144 137//137 145//145 
f 145//145 137//137 136//136 
f 138//138 137//137 142//142 
f 145//145 146//146 144//144 
f 141//141 147//147 136//136 
f 145//145 148//148 146//146 
f 140//140 149//149 139//139 
f 136//136 150//150 145//145 
o mesh863
v -0.00156873 0.000989909 0.000268387 
v -0.00156873 0.000709909 0.000268387 
v -0.00156876 0.000709913 0.000359387 
v -0.00156876 0.000989913 0.000359387 
vn -1 0 0 
vn -1 0 0 
vn -1 0 0 
vn -1 0 0 
f 151//151 152//152 153//153 
f 153//153 154//154 151//151 
o mesh864
v -0.00156873 0.000709909 0.000268387 
v -0.00156873 0.000989909 0.000268387 
v -0.00156871 0.000989905 0.000230387 
v -0.00156871 0.000709905 0.000230387 
vn -1 0 0 
vn -1 0 0 
vn -1 0 0 
vn -1 0 0 
f 155//155 156//156 157//157 
f 157//157 158//158 155//155 
o mesh865
v -0.00156872 -4.00907e-05 4.73873e-05 
v -0.00156872 -0.000670117 4.73873e-05 
v -0.00156871 -0.000670093 6.03873e-05 
v -0.00156871 -4.00928e-05 6.03873e-05 
vn -1 0 0 
vn -1 0 0 
vn -1 0 0 
vn -1 0 0 
f 159//159 160//160 161//161 
f 161//161 162//162 159//159 
o mesh866
v -0.00156871 -4.00949e-05 0.000230387 
v -0.00156871 -4.00928e-05 6.03873e-05 
v -0.00156871 -0.000670093 6.03873e-05 
v -0.00156871 -0.000670095 0.000230387 
vn -1 0 0 
vn -1 0 0 
vn -1 0 0 
vn -1 0 0 
f 163//163 164//164 165//165 
f 165//165 166//166 163//163 
o mesh867
v -0.000227509 -0.000670087 0.000359387 
v -0.00156876 -0.000670087 0.000359387 
v -0.00156873 -0.000670091 0.000268387 
v -0.00156871 -0.000670095 0.000230387 
v -0.000227465 -0.000670095 0.000230387 
v -0.000227484 -0.000670091 0.000268387 
v -0.00156871 -0.000670093 6.03873e-05 
v -0.00156872 -0.000670117 4.73873e-05 
v -0.00022747 -0.000670117 4.73873e-05 
v -0.00022746 -0.000670093 6.03873e-05 
vn 0 -1 0 
vn 0 -1 0 
vn 0 -1 0 
vn 0 -1 0 
vn 0 -1 0 
vn 0 -1 0 
vn 0 -1 0 
vn 0 -1 0 
vn 0 -1 0 
vn 0 -1 0 
f 167//167 168//168 169//169 
f 170//170 171//171 172//172 
f 171//171 170//170 173//173 
f 172//172 169//169 170//170 
f 173//173 174//174 175//175 
f 169//169 172//172 167//167 
f 173//173 176//176 171//171 
f 175//175 176//176 173//173 
o mesh868
v -0.00156876 -0.000670087 0.000359387 
v -0.00156876 -4.00865e-05 0.000359387 
v -0.00156873 -4.00907e-05 0.000268387 
v -0.00156873 -0.000670091 0.000268387 
vn -1 0 0 
vn -1 0 0 
vn -1 0 0 
vn -1 0 0 
f 177//177 178//178 179//179 
f 179//179 180//180 177//177 
o mesh869
v -0.00156873 -0.000670091 0.000268387 
v -0.00156873 -4.00907e-05 0.000268387 
v -0.00156871 -4.00949e-05 0.000230387 
v -0.00156871 -0.000670095 0.000230387 
vn -1 0 0 
vn -1 0 0 
vn -1 0 0 
vn -1 0 0 
f 181//181 182//182 183//183 
f 183//183 184//184 181//181 
o mesh870
v -0.000772226 -4.00907e-05 0.000268387 
v -0.000772207 -4.00949e-05 0.000230387 
v -0.00156871 -4.00949e-05 0.000230387 
v -0.000772251 -4.00865e-05 0.000359387 
v -0.00156873 -4.00907e-05 0.000268387 
v -0.00156876 -4.00865e-05 0.000359387 
v -0.00156871 -4.00928e-05 6.03873e-05 
v -0.000772203 -4.00928e-05 6.03873e-05 
v -0.000772192 -4.00907e-05 4.73873e-05 
v -0.00156872 -4.00907e-05 4.73873e-05 
vn 0 1 0 
vn 0 1 0 
vn 0 1 0 
vn 0 1 0 
vn 0 1 0 
vn 0 1 0 
vn 0 1 0 
vn 0 1 0 
vn 0 1 0 
vn 0 1 0 
f 185//185 186//186 187//187 
f 188//188 185//185 189//189 
f 189//189 190//190 188//188 
f 191//191 187//187 186//186 
f 186//186 192//192 191//191 
f 193//193 194//194 191//191 
f 191//191 192//192 193//193 
f 187//187 189//189 185//185 
o mesh871
v -0.000772251 -4.00865e-05 0.000359387 
v -0.000772251 9.91346e-06 0.000359387 
v -0.000772226 9.90926e-06 0.000268387 
v -0.000772226 -4.00907e-05 0.000268387 
vn -1 0 0 
vn -1 0 0 
vn -1 0 0 
vn -1 0 0 
f 195//195 196//196 197//197 
f 197//197 198//198 195//195 
o mesh872
v -0.000772207 9.90506e-06 0.000230387 
v -0.000772207 -4.00949e-05 0.000230387 
v -0.000772226 -4.00907e-05 0.000268387 
v -0.000772226 9.90926e-06 0.000268387 
vn -1 0 0 
vn -1 0 0 
vn -1 0 0 
vn -1 0 0 
f 199//199 200//200 201//201 
f 201//201 202//202 199//199 
o mesh873
v -0.000772207 9.90506e-06 0.000230387 
v -0.000772203 9.90716e-06 6.03873e-05 
v -0.000772203 -4.00928e-05 6.03873e-05 
v -0.000772207 -4.00949e-05 0.000230387 
vn -1 0 0 
vn -1 0 0 
vn -1 0 0 
vn -1 0 0 
f 203//203 204//204 205//205 
f 205//205 206//206 203//203 
o mesh874
v -0.000772203 9.90716e-06 6.03873e-05 
v -0.000772192 9.90926e-06 4.73873e-05 
v -0.000772192 -4.00907e-05 4.73873e-05 
v -0.000772203 -4.00928e-05 6.03873e-05 
vn -1 0 0 
vn -1 0 0 
vn -1 0 0 
vn -1 0 0 
f 207//207 208//208 209//209 
f 209//209 210//210 207//207 
o mesh875
v -0.000362251 9.91346e-06 0.000359387 
v -0.000772251 9.91346e-06 0.000359387 
v -0.000772251 -4.00865e-05 0.000359387 
v -0.00156876 -0.000670087 0.000359387 
v -0.000227509 -0.000670087 0.000359387 
v -0.000227509 -0.000570087 0.000359387 
v -0.00156876 -4.00865e-05 0.000359387 
v -0.000128459 0.000989913 0.000359387 
v -0.000362251 0.000409913 0.000359387 
v -0.000128459 -0.000570087 0.000359387 
v -0.000772251 0.000709913 0.000359387 
v -0.000772251 0.000409913 0.000359387 
v -0.00156876 0.000989913 0.000359387 
v -0.00156876 0.000709913 0.000359387 
vn 0 0 1 
vn 0 0 1 
vn 0 0 1 
vn 0 0 1 
vn 0 0 1 
vn 0 0 1 
vn 0 0 1 
vn 0 0 1 
vn 0 0 1 
vn 0 0 1 
vn 0 0 1 
vn 0 0 1 
vn 0 0 1 
vn 0 0 1 
f 211//211 212//212 213//213 
f 214//214 215//215 216//216 
f 213//213 216//216 211//211 
f 216//216 213//213 214//214 
f 213//213 217//217 214//214 
f 218//218 219//219 211//211 
f 211//211 220//220 218//218 
f 219//219 218//218 221//221 
f 221//221 222//222 219//219 
f 223//223 224//224 221//221 
f 221//221 218//218 223//223 
f 216//216 220//220 211//211 
o mesh876
v -0.000362251 9.91346e-06 0.000359387 
v -0.000362251 0.000409913 0.000359387 
v -0.000362226 0.000409909 0.000268387 
v -0.000362226 9.90926e-06 0.000268387 
vn -1 0 0 
vn -1 0 0 
vn -1 0 0 
vn -1 0 0 
f 225//225 226//226 227//227 
f 227//227 228//228 225//225 
o mesh877
v -0.000772226 0.000709909 0.000268387 
v -0.000772226 0.000409909 0.000268387 
v -0.000772251 0.000409913 0.000359387 
v -0.000772251 0.000709913 0.000359387 
vn -1 0 0 
vn -1 0 0 
vn -1 0 0 
vn -1 0 0 
f 229//229 230//230 231//231 
f 231//231 232//232 229//229 
o mesh878
v -0.000362226 9.90926e-06 0.000268387 
v -0.000362226 0.000409909 0.000268387 
v -0.000362207 0.000409905 0.000230387 
v -0.000362207 9.90506e-06 0.000230387 
vn -1 0 0 
vn -1 0 0 
vn -1 0 0 
vn -1 0 0 
f 233//233 234//234 235//235 
f 235//235 236//236 233//233 
o mesh879
v -0.000362226 9.90926e-06 0.000268387 
v -0.000362207 9.90506e-06 0.000230387 
v -0.000772207 9.90506e-06 0.000230387 
v -0.000772226 9.90926e-06 0.000268387 
v -0.000772251 9.91346e-06 0.000359387 
v -0.000362251 9.91346e-06 0.000359387 
v -0.000772203 9.90716e-06 6.03873e-05 
v -0.000362203 9.90716e-06 6.03873e-05 
v -0.000362192 9.90926e-06 4.73873e-05 
v -0.000772192 9.90926e-06 4.73873e-05 
vn 0 1 0 
vn 0 1 0 
vn 0 1 0 
vn 0 1 0 
vn 0 1 0 
vn 0 1 0 
vn 0 1 0 
vn 0 1 0 
vn 0 1 0 
vn 0 1 0 
f 237//237 238//238 239//239 
f 240//240 241//241 242//242 
f 242//242 237//237 240//240 
f 243//243 239//239 238//238 
f 244//244 245//245 246//246 
f 238//238 244//244 243//243 
f 239//239 240//240 237//237 
f 246//246 243//243 244//244 
o mesh880
v -0.000362203 9.90716e-06 6.03873e-05 
v -0.000362207 9.90506e-06 0.000230387 
v -0.000362207 0.000409905 0.000230387 
v -0.000362203 0.000409907 6.03873e-05 
vn -1 0 0 
vn -1 0 0 
vn -1 0 0 
vn -1 0 0 
f 247//247 248//248 249//249 
f 249//249 250//250 247//247 
o mesh881
v -0.000362192 9.90926e-06 4.73873e-05 
v -0.000362203 9.90716e-06 6.03873e-05 
v -0.000362203 0.000409907 6.03873e-05 
v -0.000362192 0.000409909 4.73873e-05 
vn -1 0 0 
vn -1 0 0 
vn -1 0 0 
vn -1 0 0 
f 251//251 252//252 253//253 
f 253//253 254//254 251//251 
o mesh882
v -0.000362192 0.000409909 4.73873e-05 
v -0.000772192 0.000409909 4.73873e-05 
v -0.000772192 9.90926e-06 4.73873e-05 
v -0.00156872 -4.00907e-05 4.73873e-05 
v -0.000772192 -4.00907e-05 4.73873e-05 
v -0.00156872 0.000709909 4.73873e-05 
v -0.000362192 9.90926e-06 4.73873e-05 
v -0.000772192 0.000709909 4.73873e-05 
vn 0 0 1 
vn 0 0 1 
vn 0 0 1 
vn 0 0 1 
vn 0 0 1 
vn 0 0 1 
vn 0 0 1 
vn 0 0 1 
f 255//255 256//256 257//257 
f 258//258 259//259 257//257 
f 260//260 258//258 256//256 
f 257//257 256//256 258//258 
f 257//257 261//261 255//255 
f 256//256 262//262 260//260 
o mesh883
v -0.000772226 0.000409909 0.000268387 
v -0.000362226 0.000409909 0.000268387 
v -0.000362251 0.000409913 0.000359387 
v -0.000772207 0.000409905 0.000230387 
v -0.000772203 0.000409907 6.03873e-05 
v -0.000362203 0.000409907 6.03873e-05 
v -0.000362207 0.000409905 0.000230387 
v -0.000772251 0.000409913 0.000359387 
v -0.000772192 0.000409909 4.73873e-05 
v -0.000362192 0.000409909 4.73873e-05 
vn 0 -1 0 
vn 0 -1 0 
vn 0 -1 0 
vn 0 -1 0 
vn 0 -1 0 
vn 0 -1 0 
vn 0 -1 0 
vn 0 -1 0 
vn 0 -1 0 
vn 0 -1 0 
f 263//263 264//264 265//265 
f 264//264 263//263 266//266 
f 267//267 268//268 269//269 
f 266//266 269//269 264//264 
f 265//265 270//270 263//263 
f 268//268 267//267 271//271 
f 271//271 272//272 268//268 
f 269//269 266//266 267//267 
o mesh884
v -0.00156873 0.000709909 0.000268387 
v -0.000772226 0.000709909 0.000268387 
v -0.000772251 0.000709913 0.000359387 
v -0.00156871 0.000709905 0.000230387 
v -0.000772207 0.000709905 0.000230387 
v -0.00156871 0.000709907 6.03873e-05 
v -0.000772192 0.000709909 4.73873e-05 
v -0.000772203 0.000709907 6.03873e-05 
v -0.00156876 0.000709913 0.000359387 
v -0.00156872 0.000709909 4.73873e-05 
vn 0 -1 0 
vn 0 -1 0 
vn 0 -1 0 
vn 0 -1 0 
vn 0 -1 0 
vn 0 -1 0 
vn 0 -1 0 
vn 0 -1 0 
vn 0 -1 0 
vn 0 -1 0 
f 273//273 274//274 275//275 
f 276//276 277//277 274//274 
f 277//277 276//276 278//278 
f 274//274 273//273 276//276 
f 279//279 280//280 278//278 
f 275//275 281//281 273//273 
f 278//278 280//280 277//277 
f 278//278 282//282 279//279 
o mesh885
v -0.000772207 0.000709905 0.000230387 
v -0.000772207 0.000409905 0.000230387 
v -0.000772226 0.000409909 0.000268387 
v -0.000772226 0.000709909 0.000268387 
vn -1 0 0 
vn -1 0 0 
vn -1 0 0 
vn -1 0 0 
f 283//283 284//284 285//285 
f 285//285 286//286 283//283 
o mesh886
v -0.000772207 0.000709905 0.000230387 
v -0.000772203 0.000709907 6.03873e-05 
v -0.000772203 0.000409907 6.03873e-05 
v -0.000772207 0.000409905 0.000230387 
vn -1 0 0 
vn -1 0 0 
vn -1 0 0 
vn -1 0 0 
f 287//287 288//288 289//289 
f 289//289 290//290 287//287 
o mesh887
v -0.000772192 0.000409909 4.73873e-05 
v -0.000772203 0.000409907 6.03873e-05 
v -0.000772203 0.000709907 6.03873e-05 
v -0.000772192 0.000709909 4.73873e-05 
vn -1 0 0 
vn -1 0 0 
vn -1 0 0 
vn -1 0 0 
f 291//291 292//292 293//293 
f 293//293 294//294 291//291 
