# OBJ generated by ONSHAPE BY PTC INC, 1.217 Units = meters
mtllib wing_cf.mtl
g wing_cf
usemtl 0.301961_0.301961_0.301961_0.000000_0.000000
o mesh125
v 0.00377146 0.00222589 0 
v 0.00445694 0.00209182 0 
v 0.00445694 0.00209182 8e-05 
v 0.00307789 0.0023084 0 
v 0.00377146 0.00222589 8e-05 
v 0.00307789 0.0023084 8e-05 
vn -0.155144 -0.987892 0 
vn -0.228464 -0.973552 0 
vn -0.228464 -0.973552 0 
vn -0.0809577 -0.996718 0 
vn -0.155144 -0.987892 0 
vn -0.0809577 -0.996718 0 
f 1//1 2//2 3//3 
f 4//4 1//1 5//5 
f 5//5 6//6 4//4 
f 3//3 5//5 1//1 
o mesh126
v 0.00445694 0.00209182 0 
v 0.00490811 0.0019718 0 
v 0.00490811 0.0019718 8e-05 
v 0.00445694 0.00209182 8e-05 
vn -0.227406 -0.9738 0 
vn -0.286531 -0.958071 0 
vn -0.286531 -0.958071 0 
vn -0.227406 -0.9738 0 
f 7//7 8//8 9//9 
f 9//9 10//10 7//7 
o mesh127
v 0.00531429 0.00183399 0 
v 0.00570767 0.00166302 0 
v 0.00570767 0.00166302 8e-05 
v 0.00490811 0.0019718 0 
v 0.00531429 0.00183399 8e-05 
v 0.00490811 0.0019718 8e-05 
vn -0.360261 -0.932852 0 
vn -0.436292 -0.899805 0 
vn -0.436292 -0.899805 0 
vn -0.281753 -0.959487 0 
vn -0.360261 -0.932852 0 
vn -0.281753 -0.959487 0 
f 11//11 12//12 13//13 
f 14//14 11//11 15//15 
f 15//15 16//16 14//14 
f 13//13 15//15 11//11 
o mesh128
v 0.00612116 0.00141879 0 
v 0.0063106 0.0012709 0 
v 0.0063106 0.0012709 8e-05 
v 0.00591968 0.00154982 0 
v 0.00612116 0.00141879 8e-05 
v 0.00570767 0.00166302 0 
v 0.00591968 0.00154982 8e-05 
v 0.00570767 0.00166302 8e-05 
vn -0.580817 -0.814034 0 
vn -0.648761 -0.760992 0 
vn -0.648761 -0.760992 0 
vn -0.508558 -0.861028 0 
vn -0.580817 -0.814034 0 
vn -0.43252 -0.901625 0 
vn -0.508558 -0.861028 0 
vn -0.43252 -0.901625 0 
f 17//17 18//18 19//19 
f 20//20 17//17 21//21 
f 22//22 20//20 23//23 
f 23//23 24//24 22//22 
f 21//21 23//23 20//20 
f 19//19 21//21 17//17 
o mesh129
v 0.00641882 0.00116545 0 
v 0.00651693 0.00105054 0 
v 0.00651693 0.00105054 8e-05 
v 0.0063106 0.0012709 0 
v 0.00641882 0.00116545 8e-05 
v 0.0063106 0.0012709 8e-05 
vn -0.729962 -0.683488 0 
vn -0.789405 -0.613872 0 
vn -0.789405 -0.613872 0 
vn -0.664401 -0.747376 0 
vn -0.729962 -0.683488 0 
vn -0.664401 -0.747376 0 
f 25//25 26//26 27//27 
f 28//28 25//25 29//29 
f 29//29 30//30 28//28 
f 27//27 29//29 25//25 
o mesh130
v 0.00651693 0.00105054 8e-05 
v 0.00651693 0.00105054 0 
v 0.00658094 0.000960657 0 
v 0.00658094 0.000960657 8e-05 
vn -0.814566 -0.580071 0 
vn -0.814566 -0.580071 0 
vn -0.814566 -0.580071 0 
vn -0.814566 -0.580071 0 
f 31//31 32//32 33//33 
f 33//33 34//34 31//31 
o mesh131
v 0.00676834 0.000907474 0 
v 0.00676834 0.000907474 8e-05 
v 0.00675434 0.000901386 8e-05 
v 0.00675434 0.000901386 0 
v 0.00673978 0.000896809 8e-05 
v 0.00673978 0.000896809 0 
v 0.00672482 0.000893792 8e-05 
v 0.00672482 0.000893792 0 
v 0.00670963 0.000892371 8e-05 
v 0.00670963 0.000892371 0 
v 0.00669437 0.000892559 8e-05 
v 0.00669437 0.000892559 0 
v 0.00667921 0.000894357 8e-05 
v 0.00667921 0.000894357 0 
v 0.00666433 0.000897742 8e-05 
v 0.00666433 0.000897742 0 
v 0.00664989 0.000902678 8e-05 
v 0.00664989 0.000902678 0 
v 0.00663605 0.00090911 8e-05 
v 0.00663605 0.00090911 0 
v 0.00662296 0.000916966 8e-05 
v 0.00662296 0.000916966 0 
v 0.00661078 0.000926157 8e-05 
v 0.00661078 0.000926157 0 
v 0.00659963 0.000936583 8e-05 
v 0.00659963 0.000936583 0 
v 0.00658965 0.000948126 8e-05 
v 0.00658965 0.000948126 0 
v 0.00658094 0.000960657 8e-05 
v 0.00658094 0.000960657 0 
vn 0.446747 -0.89466 0 
vn 0.446747 -0.89466 0 
vn 0.349897 -0.936788 0 
vn 0.349897 -0.936788 0 
vn 0.249143 -0.968467 0 
vn 0.249143 -0.968467 0 
vn 0.145611 -0.989342 0 
vn 0.145611 -0.989342 0 
vn 0.0404542 -0.999181 0 
vn 0.0404542 -0.999181 0 
vn -0.0651537 -0.997875 0 
vn -0.0651537 -0.997875 0 
vn -0.170035 -0.985438 0 
vn -0.170035 -0.985438 0 
vn -0.273019 -0.962009 0 
vn -0.273019 -0.962009 0 
vn -0.372958 -0.927848 0 
vn -0.372958 -0.927848 0 
vn -0.468737 -0.883338 0 
vn -0.468737 -0.883338 0 
vn -0.559287 -0.828974 0 
vn -0.559287 -0.828974 0 
vn -0.643598 -0.765363 0 
vn -0.643598 -0.765363 0 
vn -0.720731 -0.693215 0 
vn -0.720731 -0.693215 0 
vn -0.789823 -0.613334 0 
vn -0.789823 -0.613334 0 
vn -0.850106 -0.526612 0 
vn -0.850106 -0.526612 0 
f 35//35 36//36 37//37 
f 38//38 37//37 39//39 
f 40//40 39//39 41//41 
f 42//42 41//41 43//43 
f 44//44 43//43 45//45 
f 46//46 45//45 47//47 
f 48//48 47//47 49//49 
f 50//50 49//49 51//51 
f 52//52 51//51 53//53 
f 54//54 53//53 55//55 
f 56//56 55//55 57//57 
f 58//58 57//57 59//59 
f 60//60 59//59 61//61 
f 62//62 61//61 63//63 
f 63//63 64//64 62//62 
f 61//61 62//62 60//60 
f 59//59 60//60 58//58 
f 57//57 58//58 56//56 
f 55//55 56//56 54//54 
f 53//53 54//54 52//52 
f 51//51 52//52 50//50 
f 49//49 50//50 48//48 
f 47//47 48//48 46//46 
f 45//45 46//46 44//44 
f 43//43 44//44 42//42 
f 41//41 42//42 40//40 
f 39//39 40//40 38//38 
f 37//37 38//38 35//35 
o mesh132
v 0.0066284 0.00113527 0 
v 0.0066284 0.00113527 8e-05 
v 0.00668122 0.00106325 8e-05 
v 0.00668122 0.00106325 0 
v 0.00672797 0.000987146 8e-05 
v 0.00672797 0.000987146 0 
v 0.00676834 0.000907474 8e-05 
v 0.00676834 0.000907474 0 
vn 0.781511 0.623892 0 
vn 0.781511 0.623892 0 
vn 0.829926 0.557874 0 
vn 0.829926 0.557874 0 
vn 0.872778 0.488117 0 
vn 0.872778 0.488117 0 
vn 0.909781 0.415089 0 
vn 0.909781 0.415089 0 
f 65//65 66//66 67//67 
f 68//68 67//67 69//69 
f 70//70 69//69 71//71 
f 71//71 72//72 70//70 
f 69//69 70//70 68//68 
f 67//67 68//68 65//65 
o mesh133
v 0.00640348 0.00137568 0 
v 0.00640348 0.00137568 8e-05 
v 0.00652215 0.00126129 8e-05 
v 0.00652215 0.00126129 0 
v 0.0066284 0.00113527 8e-05 
v 0.0066284 0.00113527 0 
vn 0.655874 0.754871 0 
vn 0.655874 0.754871 0 
vn 0.730237 0.683194 0 
vn 0.730237 0.683194 0 
vn 0.796811 0.604229 0 
vn 0.796811 0.604229 0 
f 73//73 74//74 75//75 
f 76//76 75//75 77//77 
f 77//77 78//78 76//76 
f 75//75 76//76 73//73 
o mesh134
v 0.00576988 0.00178845 0 
v 0.00576988 0.00178845 8e-05 
v 0.0059929 0.00166959 8e-05 
v 0.0059929 0.00166959 0 
v 0.00620464 0.00153164 8e-05 
v 0.00620464 0.00153164 0 
v 0.00640348 0.00137568 8e-05 
v 0.00640348 0.00137568 0 
vn 0.431188 0.902262 0 
vn 0.431188 0.902262 0 
vn 0.50859 0.861009 0 
vn 0.50859 0.861009 0 
vn 0.582081 0.813131 0 
vn 0.582081 0.813131 0 
vn 0.651093 0.758998 0 
vn 0.651093 0.758998 0 
f 79//79 80//80 81//81 
f 82//82 81//81 83//83 
f 84//84 83//83 85//85 
f 85//85 86//86 84//84 
f 83//83 84//84 82//82 
f 81//81 82//82 79//79 
o mesh135
v 0.00494847 0.00210587 0 
v 0.00494847 0.00210587 8e-05 
v 0.00536577 0.00196421 8e-05 
v 0.00536577 0.00196421 0 
v 0.00576988 0.00178845 8e-05 
v 0.00576988 0.00178845 0 
vn 0.281923 0.959437 0 
vn 0.281923 0.959437 0 
vn 0.360456 0.932776 0 
vn 0.360456 0.932776 0 
vn 0.436511 0.899699 0 
vn 0.436511 0.899699 0 
f 87//87 88//88 89//89 
f 90//90 89//89 91//91 
f 91//91 92//92 90//90 
f 89//89 90//90 87//87 
o mesh136
v 0.00448895 0.00222813 0 
v 0.00448895 0.00222813 8e-05 
v 0.00494847 0.00210587 8e-05 
v 0.00494847 0.00210587 0 
vn 0.227638 0.973746 0 
vn 0.227638 0.973746 0 
vn 0.286349 0.958125 0 
vn 0.286349 0.958125 0 
f 93//93 94//94 95//95 
f 95//95 96//96 93//93 
o mesh137
v 0.0030886 0.002448 0 
v 0.0030886 0.002448 8e-05 
v 0.00379297 0.00236482 8e-05 
v 0.00379297 0.00236482 0 
v 0.00448895 0.00222813 8e-05 
v 0.00448895 0.00222813 0 
vn 0.0792902 0.996852 0 
vn 0.0792902 0.996852 0 
vn 0.15511 0.987897 0 
vn 0.15511 0.987897 0 
vn 0.230027 0.973184 0 
vn 0.230027 0.973184 0 
f 97//97 98//98 99//99 
f 100//100 99//99 101//101 
f 101//101 102//102 100//100 
f 99//99 100//100 97//97 
o mesh138
v 0.00179435 0.00250472 0 
v 0.00179435 0.00250472 8e-05 
v 0.0030886 0.002448 8e-05 
v 0.0030886 0.002448 0 
vn 0.0238403 0.999716 0 
vn 0.0238403 0.999716 0 
vn 0.063695 0.997969 0 
vn 0.063695 0.997969 0 
f 103//103 104//104 105//105 
f 105//105 106//106 103//103 
o mesh139
v 0.00179435 0.00250472 0 
v 0.000946009 0.00249965 0 
v 0.000946009 0.00249965 8e-05 
v 0.00179435 0.00250472 8e-05 
vn -0.00799252 0.999968 0 
vn -0.00394782 0.999992 0 
vn -0.00394782 0.999992 0 
vn -0.00799252 0.999968 0 
f 107//107 108//108 109//109 
f 109//109 110//110 107//107 
o mesh140
v 0.000946009 0.00249965 8e-05 
v 0.000946009 0.00249965 0 
v -0.0047631 0.00249965 0 
v -0.0047631 0.00249965 8e-05 
vn 4.59441e-07 1 0 
vn 4.59441e-07 1 0 
vn 4.59441e-07 1 0 
vn 4.59441e-07 1 0 
f 111//111 112//112 113//113 
f 113//113 114//114 111//111 
o mesh141
v -0.00505982 0.00241505 0 
v -0.00505982 0.00241505 8e-05 
v -0.0050146 0.00244101 8e-05 
v -0.0050146 0.00244101 0 
v -0.00496707 0.00246245 8e-05 
v -0.00496707 0.00246245 0 
v -0.00491768 0.00247917 8e-05 
v -0.00491768 0.00247917 0 
v -0.0048669 0.00249101 8e-05 
v -0.0048669 0.00249101 0 
v -0.00481521 0.00249786 8e-05 
v -0.00481521 0.00249786 0 
v -0.0047631 0.00249965 8e-05 
v -0.0047631 0.00249965 0 
vn -0.539462 0.84201 0 
vn -0.539462 0.84201 0 
vn -0.455066 0.890458 0 
vn -0.455066 0.890458 0 
vn -0.366361 0.930473 0 
vn -0.366361 0.930473 0 
vn -0.274187 0.961677 0 
vn -0.274187 0.961677 0 
vn -0.179416 0.983773 0 
vn -0.179416 0.983773 0 
vn -0.0829456 0.996554 0 
vn -0.0829456 0.996554 0 
vn 0.0143098 0.999898 0 
vn 0.0143098 0.999898 0 
f 115//115 116//116 117//117 
f 118//118 117//117 119//119 
f 120//120 119//119 121//121 
f 122//122 121//121 123//123 
f 124//124 123//123 125//125 
f 126//126 125//125 127//127 
f 127//127 128//128 126//126 
f 125//125 126//126 124//124 
f 123//123 124//124 122//122 
f 121//121 122//122 120//120 
f 119//119 120//120 118//118 
f 117//117 118//118 115//115 
o mesh142
v -0.00517394 0.002311 0 
v -0.00517394 0.002311 8e-05 
v -0.00513906 0.00234906 8e-05 
v -0.00513906 0.00234906 0 
v -0.00510092 0.00238383 8e-05 
v -0.00510092 0.00238383 0 
v -0.00505982 0.00241505 8e-05 
v -0.00505982 0.00241505 0 
vn -0.766728 0.641972 0 
vn -0.766728 0.641972 0 
vn -0.706191 0.708022 0 
vn -0.706191 0.708022 0 
vn -0.639984 0.768388 0 
vn -0.639984 0.768388 0 
vn -0.56864 0.822586 0 
vn -0.56864 0.822586 0 
f 129//129 130//130 131//131 
f 132//132 131//131 133//133 
f 134//134 133//133 135//135 
f 135//135 136//136 134//134 
f 133//133 134//134 132//132 
f 131//131 132//132 129//129 
o mesh143
v -0.00524303 0.00215697 0 
v -0.00524303 0.00215697 8e-05 
v -0.00523174 0.00219792 8e-05 
v -0.00523174 0.00219792 0 
v -0.00521635 0.00223752 8e-05 
v -0.00521635 0.00223752 0 
v -0.00519701 0.00227534 8e-05 
v -0.00519701 0.00227534 0 
v -0.00517394 0.002311 8e-05 
v -0.00517394 0.002311 0 
vn -0.976283 0.216498 0 
vn -0.976283 0.216498 0 
vn -0.949252 0.314517 0 
vn -0.949252 0.314517 0 
vn -0.912407 0.409284 0 
vn -0.912407 0.409284 0 
vn -0.86613 0.499819 0 
vn -0.86613 0.499819 0 
vn -0.810898 0.585187 0 
vn -0.810898 0.585187 0 
f 137//137 138//138 139//139 
f 140//140 139//139 141//141 
f 142//142 141//141 143//143 
f 144//144 143//143 145//145 
f 145//145 146//146 144//144 
f 143//143 144//144 142//142 
f 141//141 142//142 140//140 
f 139//139 140//140 137//137 
o mesh144
v -0.00528684 0.00206485 0 
v -0.00530267 0.0020447 0 
v -0.00530267 0.0020447 8e-05 
v -0.00527286 0.00208633 0 
v -0.00528684 0.00206485 8e-05 
v -0.00526084 0.00210897 0 
v -0.00527286 0.00208633 8e-05 
v -0.00525087 0.00213258 0 
v -0.00526084 0.00210897 8e-05 
v -0.00524303 0.00215697 0 
v -0.00525087 0.00213258 8e-05 
v -0.00524303 0.00215697 8e-05 
vn -0.813127 0.582086 0 
vn -0.758377 0.651816 0 
vn -0.758377 0.651816 0 
vn -0.861486 0.507781 0 
vn -0.813127 0.582086 0 
vn -0.903074 0.429484 0 
vn -0.861486 0.507781 0 
vn -0.937564 0.347812 0 
vn -0.903074 0.429484 0 
vn -0.964685 0.263406 0 
vn -0.937564 0.347812 0 
vn -0.964685 0.263406 0 
f 147//147 148//148 149//149 
f 150//150 147//147 151//151 
f 152//152 150//150 153//153 
f 154//154 152//152 155//155 
f 156//156 154//154 157//157 
f 157//157 158//158 156//156 
f 155//155 157//157 154//154 
f 153//153 155//155 152//152 
f 151//151 153//153 150//150 
f 149//149 151//151 147//147 
o mesh145
v -0.00535218 0.00194086 0 
v -0.00535218 0.00194086 8e-05 
v -0.0053482 0.00195988 8e-05 
v -0.0053482 0.00195988 0 
v -0.00534243 0.00197843 8e-05 
v -0.00534243 0.00197843 0 
v -0.00533491 0.00199635 8e-05 
v -0.00533491 0.00199635 0 
v -0.00532572 0.00201347 8e-05 
v -0.00532572 0.00201347 0 
v -0.00531494 0.00202963 8e-05 
v -0.00531494 0.00202963 0 
v -0.00530267 0.0020447 8e-05 
v -0.00530267 0.0020447 0 
vn -0.987483 0.157724 0 
vn -0.987483 0.157724 0 
vn -0.967941 0.251176 0 
vn -0.967941 0.251176 0 
vn -0.939577 0.342339 0 
vn -0.939577 0.342339 0 
vn -0.902647 0.430381 0 
vn -0.902647 0.430381 0 
vn -0.85749 0.5145 0 
vn -0.85749 0.5145 0 
vn -0.804517 0.593929 0 
vn -0.804517 0.593929 0 
vn -0.744211 0.667945 0 
vn -0.744211 0.667945 0 
f 159//159 160//160 161//161 
f 162//162 161//161 163//163 
f 164//164 163//163 165//165 
f 166//166 165//165 167//167 
f 168//168 167//167 169//169 
f 170//170 169//169 171//171 
f 171//171 172//172 170//170 
f 169//169 170//170 168//168 
f 167//167 168//168 166//166 
f 165//165 166//166 164//164 
f 163//163 164//164 162//162 
f 161//161 162//162 159//159 
o mesh146
v -0.00535218 0.00194086 8e-05 
v -0.00535218 0.00194086 0 
v -0.00538295 0.00173313 0 
v -0.00538295 0.00173313 8e-05 
vn -0.989203 0.146549 0 
vn -0.989203 0.146549 0 
vn -0.989203 0.146549 0 
vn -0.989203 0.146549 0 
f 173//173 174//174 175//175 
f 175//175 176//176 173//173 
o mesh147
v -0.00538295 0.00173313 8e-05 
v -0.00538295 0.00173313 0 
v -0.00563025 0.00176977 0 
v -0.00563025 0.00176977 8e-05 
vn 0.146549 0.989203 0 
vn 0.146549 0.989203 0 
vn 0.146549 0.989203 0 
vn 0.146549 0.989203 0 
f 177//177 178//178 179//179 
f 179//179 180//180 177//177 
o mesh148
v -0.00563025 0.00176977 8e-05 
v -0.00563025 0.00176977 0 
v -0.00566689 0.00152247 0 
v -0.00566689 0.00152247 8e-05 
vn -0.989203 0.146549 0 
vn -0.989203 0.146549 0 
vn -0.989203 0.146549 0 
vn -0.989203 0.146549 0 
f 181//181 182//182 183//183 
f 183//183 184//184 181//181 
o mesh149
v -0.00566689 0.00152247 8e-05 
v -0.00566689 0.00152247 0 
v -0.00591419 0.0015591 0 
v -0.00591419 0.0015591 8e-05 
vn 0.146549 0.989203 0 
vn 0.146549 0.989203 0 
vn 0.146549 0.989203 0 
vn 0.146549 0.989203 0 
f 185//185 186//186 187//187 
f 187//187 188//188 185//185 
o mesh150
v -0.00591419 0.0015591 8e-05 
v -0.00591419 0.0015591 0 
v -0.00584678 0.00201414 0 
v -0.00584678 0.00201414 8e-05 
vn 0.989203 -0.146549 0 
vn 0.989203 -0.146549 0 
vn 0.989203 -0.146549 0 
vn 0.989203 -0.146549 0 
f 189//189 190//190 191//191 
f 191//191 192//192 189//189 
o mesh151
v -0.00584678 0.00201414 8e-05 
v -0.00584678 0.00201414 0 
v -0.00609408 0.00205078 0 
v -0.00609408 0.00205078 8e-05 
vn 0.146549 0.989203 0 
vn 0.146549 0.989203 0 
vn 0.146549 0.989203 0 
vn 0.146549 0.989203 0 
f 193//193 194//194 195//195 
f 195//195 196//196 193//193 
o mesh152
v -0.00609408 0.00205078 8e-05 
v -0.00609408 0.00205078 0 
v -0.00616149 0.00159574 0 
v -0.00616149 0.00159574 8e-05 
vn -0.989203 0.146549 0 
vn -0.989203 0.146549 0 
vn -0.989203 0.146549 0 
vn -0.989203 0.146549 0 
f 197//197 198//198 199//199 
f 199//199 200//200 197//197 
o mesh153
v -0.00616149 0.00159574 8e-05 
v -0.00616149 0.00159574 0 
v -0.00640879 0.00163238 0 
v -0.00640879 0.00163238 8e-05 
vn 0.146549 0.989203 0 
vn 0.146549 0.989203 0 
vn 0.146549 0.989203 0 
vn 0.146549 0.989203 0 
f 201//201 202//202 203//203 
f 203//203 204//204 201//201 
o mesh154
v -0.00640879 0.00163238 8e-05 
v -0.00640879 0.00163238 0 
v -0.00637215 0.00187968 0 
v -0.00637215 0.00187968 8e-05 
vn 0.989203 -0.146549 0 
vn 0.989203 -0.146549 0 
vn 0.989203 -0.146549 0 
vn 0.989203 -0.146549 0 
f 205//205 206//206 207//207 
f 207//207 208//208 205//205 
o mesh155
v -0.00637215 0.00187968 8e-05 
v -0.00637215 0.00187968 0 
v -0.00661946 0.00191632 0 
v -0.00661946 0.00191632 8e-05 
vn 0.146549 0.989203 0 
vn 0.146549 0.989203 0 
vn 0.146549 0.989203 0 
vn 0.146549 0.989203 0 
f 209//209 210//210 211//211 
f 211//211 212//212 209//209 
o mesh156
v -0.00661946 0.00191632 8e-05 
v -0.00661946 0.00191632 0 
v -0.00665609 0.00166902 0 
v -0.00665609 0.00166902 8e-05 
vn -0.989203 0.146549 0 
vn -0.989203 0.146549 0 
vn -0.989203 0.146549 0 
vn -0.989203 0.146549 0 
f 213//213 214//214 215//215 
f 215//215 216//216 213//213 
o mesh157
v -0.00665609 0.00166902 8e-05 
v -0.00665609 0.00166902 0 
v -0.00627348 0.00137974 0 
v -0.00627348 0.00137974 8e-05 
vn -0.603082 -0.797679 0 
vn -0.603082 -0.797679 0 
vn -0.603082 -0.797679 0 
vn -0.603082 -0.797679 0 
f 217//217 218//218 219//219 
f 219//219 220//220 217//217 
o mesh158
v -0.00610392 0.0011955 0 
v -0.00603498 0.00109077 0 
v -0.00603498 0.00109077 8e-05 
v -0.00618373 0.00129219 0 
v -0.00610392 0.0011955 8e-05 
v -0.00627348 0.00137974 0 
v -0.00618373 0.00129219 8e-05 
v -0.00627348 0.00137974 8e-05 
vn -0.804428 -0.59405 0 
vn -0.863684 -0.504034 0 
vn -0.863684 -0.504034 0 
vn -0.735829 -0.677168 0 
vn -0.804428 -0.59405 0 
vn -0.658684 -0.75242 0 
vn -0.735829 -0.677168 0 
vn -0.658684 -0.75242 0 
f 221//221 222//222 223//223 
f 224//224 221//221 225//225 
f 226//226 224//224 227//227 
f 227//227 228//228 226//226 
f 225//225 227//227 224//224 
f 223//223 225//225 221//221 
o mesh159
v -0.00592183 0.000820013 0 
v -0.00583497 0.000539714 0 
v -0.00583497 0.000539714 8e-05 
v -0.00603498 0.00109077 0 
v -0.00592183 0.000820013 8e-05 
v -0.00603498 0.00109077 8e-05 
vn -0.939995 -0.34119 0 
vn -0.968197 -0.250188 0 
vn -0.968197 -0.250188 0 
vn -0.90326 -0.429094 0 
vn -0.939995 -0.34119 0 
vn -0.90326 -0.429094 0 
f 229//229 230//230 231//231 
f 232//232 229//229 233//233 
f 233//233 234//234 232//232 
f 231//231 233//233 229//229 
o mesh160
v -0.0057784 0.000335921 0 
v -0.0057784 0.000335921 8e-05 
v -0.00583497 0.000539714 8e-05 
v -0.00583497 0.000539714 0 
vn -0.961798 -0.27376 0 
vn -0.961798 -0.27376 0 
vn -0.96531 -0.261105 0 
vn -0.96531 -0.261105 0 
f 235//235 236//236 237//237 
f 237//237 238//238 235//235 
o mesh161
v -0.00549428 -0.000384104 0 
v -0.00549428 -0.000384104 8e-05 
v -0.00565497 -3.14405e-05 8e-05 
v -0.00565497 -3.14405e-05 0 
v -0.0057784 0.000335921 8e-05 
v -0.0057784 0.000335921 0 
vn -0.887354 -0.461088 0 
vn -0.887354 -0.461088 0 
vn -0.930197 -0.36706 0 
vn -0.930197 -0.36706 0 
vn -0.963109 -0.269113 0 
vn -0.963109 -0.269113 0 
f 239//239 240//240 241//241 
f 242//242 241//241 243//243 
f 243//243 244//244 242//242 
f 241//241 242//242 239//239 
o mesh162
v -0.00479523 -0.00132089 0 
v -0.00479523 -0.00132089 8e-05 
v -0.00506044 -0.00103353 8e-05 
v -0.00506044 -0.00103353 0 
v -0.0052943 -0.000720134 8e-05 
v -0.0052943 -0.000720134 0 
v -0.00549428 -0.000384104 8e-05 
v -0.00549428 -0.000384104 0 
vn -0.698535 -0.715576 0 
vn -0.698535 -0.715576 0 
vn -0.769205 -0.639002 0 
vn -0.769205 -0.639002 0 
vn -0.831524 -0.555489 0 
vn -0.831524 -0.555489 0 
vn -0.884813 -0.465946 0 
vn -0.884813 -0.465946 0 
f 245//245 246//246 247//247 
f 248//248 247//247 249//249 
f 250//250 249//249 251//251 
f 251//251 252//252 250//250 
f 249//249 250//250 248//248 
f 247//247 248//248 245//245 
o mesh163
v -0.004684 -0.00142139 0 
v -0.004684 -0.00142139 8e-05 
v -0.00474118 -0.00137287 8e-05 
v -0.00474118 -0.00137287 0 
v -0.00479523 -0.00132089 8e-05 
v -0.00479523 -0.00132089 0 
vn -0.622893 -0.782307 0 
vn -0.622893 -0.782307 0 
vn -0.670397 -0.742002 0 
vn -0.670397 -0.742002 0 
vn -0.7153 -0.698818 0 
vn -0.7153 -0.698818 0 
f 253//253 254//254 255//255 
f 256//256 255//255 257//257 
f 257//257 258//258 256//256 
f 255//255 256//256 253//253 
o mesh164
v -0.004684 -0.00142139 8e-05 
v -0.004684 -0.00142139 0 
v -0.00467714 -0.00142681 0 
v -0.00467714 -0.00142681 8e-05 
vn -0.620051 -0.784561 0 
vn -0.620051 -0.784561 0 
vn -0.620051 -0.784561 0 
vn -0.620051 -0.784561 0 
f 259//259 260//260 261//261 
f 261//261 262//262 259//259 
o mesh165
v -0.00468851 -0.00121332 0 
v -0.00468851 -0.00121332 8e-05 
v -0.00467709 -0.00122325 8e-05 
v -0.00467709 -0.00122325 0 
v -0.0046668 -0.00123435 8e-05 
v -0.0046668 -0.00123435 0 
v -0.00465775 -0.00124647 8e-05 
v -0.00465775 -0.00124647 0 
v -0.00465004 -0.0012595 8e-05 
v -0.00465004 -0.0012595 0 
v -0.00464377 -0.00127327 8e-05 
v -0.00464377 -0.00127327 0 
v -0.004639 -0.00128764 8e-05 
v -0.004639 -0.00128764 0 
v -0.0046358 -0.00130243 8e-05 
v -0.0046358 -0.00130243 0 
v -0.00463418 -0.00131747 8e-05 
v -0.00463418 -0.00131747 0 
v -0.00463419 -0.00133261 8e-05 
v -0.00463419 -0.00133261 0 
v -0.00463581 -0.00134765 8e-05 
v -0.00463581 -0.00134765 0 
v -0.00463902 -0.00136244 8e-05 
v -0.00463902 -0.00136244 0 
v -0.0046438 -0.0013768 8e-05 
v -0.0046438 -0.0013768 0 
v -0.00465007 -0.00139057 8e-05 
v -0.00465007 -0.00139057 0 
v -0.00465779 -0.00140359 8e-05 
v -0.00465779 -0.00140359 0 
v -0.00466685 -0.00141572 8e-05 
v -0.00466685 -0.00141572 0 
v -0.00467714 -0.00142681 8e-05 
v -0.00467714 -0.00142681 0 
vn 0.615008 0.788521 0 
vn 0.615008 0.788521 0 
vn 0.69563 0.718401 0 
vn 0.69563 0.718401 0 
vn 0.768309 0.640079 0 
vn 0.768309 0.640079 0 
vn 0.832217 0.55445 0 
vn 0.832217 0.55445 0 
vn 0.886624 0.462491 0 
vn 0.886624 0.462491 0 
vn 0.930909 0.365251 0 
vn 0.930909 0.365251 0 
vn 0.964566 0.263842 0 
vn 0.964566 0.263842 0 
vn 0.987211 0.159421 0 
vn 0.987211 0.159421 0 
vn 0.998585 0.0531792 0 
vn 0.998585 0.0531792 0 
vn 0.998559 -0.0536693 0 
vn 0.998559 -0.0536693 0 
vn 0.987132 -0.159905 0 
vn 0.987132 -0.159905 0 
vn 0.964436 -0.264315 0 
vn 0.964436 -0.264315 0 
vn 0.93073 -0.365708 0 
vn 0.93073 -0.365708 0 
vn 0.886397 -0.462926 0 
vn 0.886397 -0.462926 0 
vn 0.831945 -0.554858 0 
vn 0.831945 -0.554858 0 
vn 0.767995 -0.640456 0 
vn 0.767995 -0.640456 0 
vn 0.695277 -0.718742 0 
vn 0.695277 -0.718742 0 
f 263//263 264//264 265//265 
f 266//266 265//265 267//267 
f 268//268 267//267 269//269 
f 270//270 269//269 271//271 
f 272//272 271//271 273//273 
f 274//274 273//273 275//275 
f 276//276 275//275 277//277 
f 278//278 277//277 279//279 
f 280//280 279//279 281//281 
f 282//282 281//281 283//283 
f 284//284 283//283 285//285 
f 286//286 285//285 287//287 
f 288//288 287//287 289//289 
f 290//290 289//289 291//291 
f 292//292 291//291 293//293 
f 294//294 293//293 295//295 
f 295//295 296//296 294//294 
f 293//293 294//294 292//292 
f 291//291 292//292 290//290 
f 289//289 290//290 288//288 
f 287//287 288//288 286//286 
f 285//285 286//286 284//284 
f 283//283 284//284 282//282 
f 281//281 282//282 280//280 
f 279//279 280//280 278//278 
f 277//277 278//278 276//276 
f 275//275 276//276 274//274 
f 273//273 274//274 272//272 
f 271//271 272//272 270//270 
f 269//269 270//270 268//268 
f 267//267 268//268 266//266 
f 265//265 266//266 263//263 
o mesh166
v -0.00516546 -0.00063411 0 
v -0.00535662 -0.000310725 0 
v -0.00535662 -0.000310725 8e-05 
v -0.00494197 -0.000936049 0 
v -0.00516546 -0.00063411 8e-05 
v -0.00468851 -0.00121332 0 
v -0.00494197 -0.000936049 8e-05 
v -0.00468851 -0.00121332 8e-05 
vn 0.83342 0.55264 0 
vn 0.885985 0.463713 0 
vn 0.885985 0.463713 0 
vn 0.771961 0.63567 0 
vn 0.83342 0.55264 0 
vn 0.702264 0.711916 0 
vn 0.771961 0.63567 0 
vn 0.702264 0.711916 0 
f 297//297 298//298 299//299 
f 300//300 297//297 301//301 
f 302//302 300//300 303//303 
f 303//303 304//304 302//302 
f 301//301 303//303 300//300 
f 299//299 301//301 297//297 
o mesh167
v -0.00550928 2.70391e-05 0 
v -0.00562542 0.000379034 0 
v -0.00562542 0.000379034 8e-05 
v -0.00535662 -0.000310725 0 
v -0.00550928 2.70391e-05 8e-05 
v -0.00535662 -0.000310725 8e-05 
vn 0.931747 0.363108 0 
vn 0.964878 0.262697 0 
vn 0.964878 0.262697 0 
vn 0.888199 0.459459 0 
vn 0.931747 0.363108 0 
vn 0.888199 0.459459 0 
f 305//305 306//306 307//307 
f 308//308 305//305 309//309 
f 309//309 310//310 308//308 
f 307//307 309//309 305//305 
o mesh168
v -0.00562542 0.000379034 8e-05 
v -0.00562542 0.000379034 0 
v -0.00566204 0.000515049 0 
v -0.00566204 0.000515049 8e-05 
vn 0.965615 0.259976 0 
vn 0.965615 0.259976 0 
vn 0.965615 0.259976 0 
vn 0.965615 0.259976 0 
f 311//311 312//312 313//313 
f 313//313 314//314 311//311 
o mesh169
v -0.00567217 0.000752878 0 
v -0.00566108 0.000811665 0 
v -0.00566108 0.000811665 8e-05 
v -0.00567783 0.000693323 0 
v -0.00567217 0.000752878 8e-05 
v -0.00567803 0.000633498 0 
v -0.00567783 0.000693323 8e-05 
v -0.00567275 0.000573907 0 
v -0.00567803 0.000633498 8e-05 
v -0.00566204 0.000515049 0 
v -0.00567275 0.000573907 8e-05 
v -0.00566204 0.000515049 8e-05 
vn 0.990121 -0.140214 0 
vn 0.973142 -0.230206 0 
vn 0.973142 -0.230206 0 
vn 0.998797 -0.0490461 0 
vn 0.990121 -0.140214 0 
vn 0.999095 0.0425332 0 
vn 0.998797 -0.0490461 0 
vn 0.991014 0.133756 0 
vn 0.999095 0.0425332 0 
vn 0.974622 0.223856 0 
vn 0.991014 0.133756 0 
vn 0.974622 0.223856 0 
f 315//315 316//316 317//317 
f 318//318 315//315 319//319 
f 320//320 318//318 321//321 
f 322//322 320//320 323//323 
f 324//324 322//322 325//325 
f 325//325 326//326 324//324 
f 323//323 325//325 322//322 
f 321//321 323//323 320//320 
f 319//319 321//321 318//318 
f 317//317 319//319 315//315 
o mesh170
v -0.00549382 0.0011004 0 
v -0.00544441 0.00114624 0 
v -0.00544441 0.00114624 8e-05 
v -0.00553844 0.00104989 0 
v -0.00549382 0.0011004 8e-05 
v -0.00557783 0.000995201 0 
v -0.00553844 0.00104989 8e-05 
v -0.00561162 0.000936881 0 
v -0.00557783 0.000995201 8e-05 
v -0.00563946 0.000875502 0 
v -0.00561162 0.000936881 8e-05 
v -0.00566108 0.000811665 0 
v -0.00563946 0.000875502 8e-05 
v -0.00566108 0.000811665 8e-05 
vn 0.715686 -0.698422 0 
vn 0.642955 -0.765904 0 
vn 0.642955 -0.765904 0 
vn 0.781372 -0.624066 0 
vn 0.715686 -0.698422 0 
vn 0.839366 -0.543567 0 
vn 0.781372 -0.624066 0 
vn 0.889098 -0.457717 0 
vn 0.839366 -0.543567 0 
vn 0.930078 -0.367361 0 
vn 0.889098 -0.457717 0 
vn 0.961903 -0.27339 0 
vn 0.930078 -0.367361 0 
vn 0.961903 -0.27339 0 
f 327//327 328//328 329//329 
f 330//330 327//327 331//331 
f 332//332 330//330 333//333 
f 334//334 332//332 335//335 
f 336//336 334//334 337//337 
f 338//338 336//336 339//339 
f 339//339 340//340 338//338 
f 337//337 339//339 336//336 
f 335//335 337//337 334//334 
f 333//333 335//335 332//332 
f 331//331 333//333 330//330 
f 329//329 331//331 327//327 
o mesh171
v -0.00530947 0.00124313 0 
v -0.00516633 0.00132743 0 
v -0.00516633 0.00132743 8e-05 
v -0.00544441 0.00114624 0 
v -0.00530947 0.00124313 8e-05 
v -0.00544441 0.00114624 8e-05 
vn 0.545907 -0.837846 0 
vn 0.467915 -0.883773 0 
vn 0.467915 -0.883773 0 
vn 0.619426 -0.785055 0 
vn 0.545907 -0.837846 0 
vn 0.619426 -0.785055 0 
f 341//341 342//342 343//343 
f 344//344 341//341 345//345 
f 345//345 346//346 344//344 
f 343//343 345//345 341//341 
o mesh172
v -0.00496469 0.0015873 0 
v -0.00496469 0.0015873 8e-05 
v -0.00498163 0.00154246 8e-05 
v -0.00498163 0.00154246 0 
v -0.00500294 0.00149952 8e-05 
v -0.00500294 0.00149952 0 
v -0.00502841 0.00145891 8e-05 
v -0.00502841 0.00145891 0 
v -0.00505779 0.00142104 8e-05 
v -0.00505779 0.00142104 0 
v -0.0050908 0.00138628 8e-05 
v -0.0050908 0.00138628 0 
v -0.00512709 0.00135497 8e-05 
v -0.00512709 0.00135497 0 
v -0.00516633 0.00132743 8e-05 
v -0.00516633 0.00132743 0 
vn 0.951948 -0.30626 0 
vn 0.951948 -0.30626 0 
vn 0.916777 -0.399399 0 
vn 0.916777 -0.399399 0 
vn 0.87252 -0.488579 0 
vn 0.87252 -0.488579 0 
vn 0.819614 -0.572916 0 
vn 0.819614 -0.572916 0 
vn 0.758584 -0.651575 0 
vn 0.758584 -0.651575 0 
vn 0.690036 -0.723775 0 
vn 0.690036 -0.723775 0 
vn 0.614648 -0.788802 0 
vn 0.614648 -0.788802 0 
vn 0.533167 -0.84601 0 
vn 0.533167 -0.84601 0 
f 347//347 348//348 349//349 
f 350//350 349//349 351//351 
f 352//352 351//351 353//353 
f 354//354 353//353 355//355 
f 356//356 355//355 357//357 
f 358//358 357//357 359//359 
f 360//360 359//359 361//361 
f 361//361 362//362 360//360 
f 359//359 360//360 358//358 
f 357//357 358//358 356//356 
f 355//355 356//356 354//354 
f 353//353 354//354 352//352 
f 351//351 352//352 350//350 
f 349//349 350//350 347//347 
o mesh173
v -0.00496469 0.0015873 0 
v -0.00484381 0.0019884 0 
v -0.00484381 0.0019884 8e-05 
v -0.00496469 0.0015873 8e-05 
vn 0.962657 -0.270724 0 
vn 0.951938 -0.306291 0 
vn 0.951938 -0.306291 0 
vn 0.962657 -0.270724 0 
f 363//363 364//364 365//365 
f 365//365 366//366 363//363 
o mesh174
v -0.00473755 0.00208282 0 
v -0.00472168 0.00208662 0 
v -0.00472168 0.00208662 8e-05 
v -0.00475297 0.00207748 0 
v -0.00473755 0.00208282 8e-05 
v -0.00476779 0.00207066 0 
v -0.00475297 0.00207748 8e-05 
v -0.00478187 0.00206241 0 
v -0.00476779 0.00207066 8e-05 
v -0.00479507 0.00205283 0 
v -0.00478187 0.00206241 8e-05 
v -0.00480726 0.00204199 0 
v -0.00479507 0.00205283 8e-05 
v -0.00481834 0.00203001 0 
v -0.00480726 0.00204199 8e-05 
v -0.00482818 0.002017 0 
v -0.00481834 0.00203001 8e-05 
v -0.0048367 0.00200308 0 
v -0.00482818 0.002017 8e-05 
v -0.00484381 0.0019884 0 
v -0.0048367 0.00200308 8e-05 
v -0.00484381 0.0019884 8e-05 
vn 0.280203 -0.959941 0 
vn 0.184616 -0.982811 0 
vn 0.184616 -0.982811 0 
vn 0.373084 -0.927798 0 
vn 0.280203 -0.959941 0 
vn 0.46236 -0.886692 0 
vn 0.373084 -0.927798 0 
vn 0.54717 -0.837021 0 
vn 0.46236 -0.886692 0 
vn 0.626694 -0.779265 0 
vn 0.54717 -0.837021 0 
vn 0.700165 -0.713981 0 
vn 0.626694 -0.779265 0 
vn 0.766872 -0.6418 0 
vn 0.700165 -0.713981 0 
vn 0.826171 -0.563419 0 
vn 0.766872 -0.6418 0 
vn 0.877489 -0.479596 0 
vn 0.826171 -0.563419 0 
vn 0.920331 -0.39114 0 
vn 0.877489 -0.479596 0 
vn 0.920331 -0.39114 0 
f 367//367 368//368 369//369 
f 370//370 367//367 371//371 
f 372//372 370//370 373//373 
f 374//374 372//372 375//375 
f 376//376 374//374 377//377 
f 378//378 376//376 379//379 
f 380//380 378//378 381//381 
f 382//382 380//380 383//383 
f 384//384 382//382 385//385 
f 386//386 384//384 387//387 
f 387//387 388//388 386//386 
f 385//385 387//387 384//384 
f 383//383 385//385 382//382 
f 381//381 383//383 380//380 
f 379//379 381//381 378//378 
f 377//377 379//379 376//376 
f 375//375 377//377 374//374 
f 373//373 375//375 372//372 
f 371//371 373//373 370//370 
f 369//369 371//371 367//367 
o mesh175
v -0.00458231 0.00205495 0 
v -0.0045656 0.00204245 0 
v -0.0045656 0.00204245 8e-05 
v -0.00460024 0.00206564 0 
v -0.00458231 0.00205495 8e-05 
v -0.00461919 0.0020744 0 
v -0.00460024 0.00206564 8e-05 
v -0.00463895 0.00208113 0 
v -0.00461919 0.0020744 8e-05 
v -0.0046593 0.00208575 0 
v -0.00463895 0.00208113 8e-05 
v -0.00468003 0.00208822 0 
v -0.0046593 0.00208575 8e-05 
v -0.0047009 0.00208851 0 
v -0.00468003 0.00208822 8e-05 
v -0.00472168 0.00208662 0 
v -0.0047009 0.00208851 8e-05 
v -0.00472168 0.00208662 8e-05 
vn -0.556393 -0.830919 0 
vn -0.640227 -0.768185 0 
vn -0.640227 -0.768185 0 
vn -0.466458 -0.884543 0 
vn -0.556393 -0.830919 0 
vn -0.371409 -0.928469 0 
vn -0.466458 -0.884543 0 
vn -0.272288 -0.962216 0 
vn -0.371409 -0.928469 0 
vn -0.170181 -0.985413 0 
vn -0.272288 -0.962216 0 
vn -0.0662088 -0.997806 0 
vn -0.170181 -0.985413 0 
vn 0.0384894 -0.999259 0 
vn -0.0662088 -0.997806 0 
vn 0.142766 -0.989757 0 
vn 0.0384894 -0.999259 0 
vn 0.142766 -0.989757 0 
f 389//389 390//390 391//391 
f 392//392 389//389 393//393 
f 394//394 392//392 395//395 
f 396//396 394//394 397//397 
f 398//398 396//396 399//399 
f 400//400 398//398 401//401 
f 402//402 400//400 403//403 
f 404//404 402//402 405//405 
f 405//405 406//406 404//404 
f 403//403 405//405 402//402 
f 401//401 403//403 400//400 
f 399//399 401//401 398//398 
f 397//397 399//399 396//396 
f 395//395 397//397 394//394 
f 393//393 395//395 392//392 
f 391//391 393//393 389//389 
o mesh176
v -0.0045656 0.00204245 8e-05 
v -0.0045656 0.00204245 0 
v 0.000176629 -0.00278972 0 
v 0.000176629 -0.00278972 8e-05 
vn -0.713718 -0.700433 0 
vn -0.713718 -0.700433 0 
vn -0.713718 -0.700433 0 
vn -0.713718 -0.700433 0 
f 407//407 408//408 409//409 
f 409//409 410//410 407//407 
o mesh177
v 0.000176629 -0.00278972 8e-05 
v 0.000176629 -0.00278972 0 
v 0.000330139 -0.00277089 0 
v 0.000330139 -0.00277089 8e-05 
vn 0.121768 -0.992559 0 
vn 0.121768 -0.992559 0 
vn 0.121768 -0.992559 0 
vn 0.121768 -0.992559 0 
f 411//411 412//412 413//413 
f 413//413 414//414 411//411 
o mesh178
v 0.000330139 -0.00277089 8e-05 
v 0.000330139 -0.00277089 0 
v -0.00461687 0.00225519 0 
v -0.00461687 0.00225519 8e-05 
vn 0.712691 0.701478 0 
vn 0.712691 0.701478 0 
vn 0.712691 0.701478 0 
vn 0.712691 0.701478 0 
f 415//415 416//416 417//417 
f 417//417 418//418 415//415 
o mesh179
v -0.00461687 0.00225519 8e-05 
v -0.00461687 0.00225519 0 
v -0.00461891 0.00225729 0 
v -0.00461891 0.00225729 8e-05 
vn 0.715828 0.698277 0 
vn 0.715828 0.698277 0 
vn 0.715828 0.698277 0 
vn 0.715828 0.698277 0 
f 419//419 420//420 421//421 
f 421//421 422//422 419//419 
o mesh180
v -0.00462865 0.00226785 0 
v -0.00463773 0.00227898 0 
v -0.00463773 0.00227898 8e-05 
v -0.00461891 0.00225729 0 
v -0.00462865 0.00226785 8e-05 
v -0.00461891 0.00225729 8e-05 
vn 0.755408 0.655254 0 
vn 0.793314 0.608812 0 
vn 0.793314 0.608812 0 
vn 0.714788 0.699342 0 
vn 0.755408 0.655254 0 
vn 0.714788 0.699342 0 
f 423//423 424//424 425//425 
f 426//426 423//423 427//427 
f 427//427 428//428 426//426 
f 425//425 427//427 423//423 
o mesh181
v -0.00464368 0.00228749 0 
v -0.00464891 0.00229646 0 
v -0.00464891 0.00229646 8e-05 
v -0.00463773 0.00227898 0 
v -0.00464368 0.00228749 8e-05 
v -0.00463773 0.00227898 8e-05 
vn 0.842434 0.538799 0 
vn 0.88449 0.46656 0 
vn 0.88449 0.46656 0 
vn 0.794493 0.607274 0 
vn 0.842434 0.538799 0 
vn 0.794493 0.607274 0 
f 429//429 430//430 431//431 
f 432//432 429//429 433//433 
f 433//433 434//434 432//432 
f 431//431 433//433 429//429 
o mesh182
v -0.00465398 0.0023099 0 
v -0.00465487 0.00231462 0 
v -0.00465487 0.00231462 8e-05 
v -0.00465268 0.00230528 0 
v -0.00465398 0.0023099 8e-05 
v -0.00465098 0.00230079 0 
v -0.00465268 0.00230528 8e-05 
v -0.00464891 0.00229646 0 
v -0.00465098 0.00230079 8e-05 
v -0.00464891 0.00229646 8e-05 
vn 0.973563 0.22842 0 
vn 0.989722 0.143008 0 
vn 0.989722 0.143008 0 
vn 0.950047 0.312106 0 
vn 0.973563 0.22842 0 
vn 0.919353 0.393434 0 
vn 0.950047 0.312106 0 
vn 0.881712 0.471789 0 
vn 0.919353 0.393434 0 
vn 0.881712 0.471789 0 
f 435//435 436//436 437//437 
f 438//438 435//435 439//439 
f 440//440 438//438 441//441 
f 442//442 440//440 443//443 
f 443//443 444//444 442//442 
f 441//441 443//443 440//440 
f 439//439 441//441 438//438 
f 437//437 439//439 435//435 
o mesh183
v -0.00464574 0.00233916 0 
v -0.0046436 0.00234085 0 
v -0.0046436 0.00234085 8e-05 
v -0.0046477 0.00233727 0 
v -0.00464574 0.00233916 8e-05 
v -0.00464947 0.00233519 0 
v -0.0046477 0.00233727 8e-05 
v -0.00465102 0.00233294 0 
v -0.00464947 0.00233519 8e-05 
v -0.00465234 0.00233056 0 
v -0.00465102 0.00233294 8e-05 
v -0.00465342 0.00232805 0 
v -0.00465234 0.00233056 8e-05 
v -0.00465425 0.00232545 0 
v -0.00465342 0.00232805 8e-05 
v -0.00465481 0.00232278 0 
v -0.00465425 0.00232545 8e-05 
v -0.0046551 0.00232007 0 
v -0.00465481 0.00232278 8e-05 
v -0.00465512 0.00231734 0 
v -0.0046551 0.00232007 8e-05 
v -0.00465487 0.00231462 0 
v -0.00465512 0.00231734 8e-05 
v -0.00465487 0.00231462 8e-05 
vn 0.657226 -0.753694 0 
vn 0.579117 -0.815245 0 
vn 0.579117 -0.815245 0 
vn 0.728835 -0.68469 0 
vn 0.657226 -0.753694 0 
vn 0.793236 -0.608914 0 
vn 0.728835 -0.68469 0 
vn 0.849793 -0.527117 0 
vn 0.793236 -0.608914 0 
vn 0.897945 -0.440107 0 
vn 0.849793 -0.527117 0 
vn 0.937218 -0.348745 0 
vn 0.897945 -0.440107 0 
vn 0.967222 -0.253934 0 
vn 0.937218 -0.348745 0 
vn 0.98766 -0.156611 0 
vn 0.967222 -0.253934 0 
vn 0.998332 -0.0577395 0 
vn 0.98766 -0.156611 0 
vn 0.99913 0.0417029 0 
vn 0.998332 -0.0577395 0 
vn 0.990048 0.140733 0 
vn 0.99913 0.0417029 0 
vn 0.990048 0.140733 0 
f 445//445 446//446 447//447 
f 448//448 445//445 449//449 
f 450//450 448//448 451//451 
f 452//452 450//450 453//453 
f 454//454 452//452 455//455 
f 456//456 454//454 457//457 
f 458//458 456//456 459//459 
f 460//460 458//458 461//461 
f 462//462 460//460 463//463 
f 464//464 462//462 465//465 
f 466//466 464//464 467//467 
f 467//467 468//468 466//466 
f 465//465 467//467 464//464 
f 463//463 465//465 462//462 
f 461//461 463//463 460//460 
f 459//459 461//461 458//458 
f 457//457 459//459 456//456 
f 455//455 457//457 454//454 
f 453//453 455//455 452//452 
f 451//451 453//453 450//450 
f 449//449 451//451 448//448 
f 447//447 449//449 445//445 
o mesh184
v -0.00462943 0.00234877 0 
v -0.00462432 0.00235059 0 
v -0.00462432 0.00235059 8e-05 
v -0.00463437 0.00234653 0 
v -0.00462943 0.00234877 8e-05 
v -0.0046391 0.00234389 0 
v -0.00463437 0.00234653 8e-05 
v -0.0046436 0.00234085 0 
v -0.0046391 0.00234389 8e-05 
v -0.0046436 0.00234085 8e-05 
vn 0.373828 -0.927498 0 
vn 0.294195 -0.955745 0 
vn 0.294195 -0.955745 0 
vn 0.450792 -0.892629 0 
vn 0.373828 -0.927498 0 
vn 0.524538 -0.851387 0 
vn 0.450792 -0.892629 0 
vn 0.594539 -0.804067 0 
vn 0.524538 -0.851387 0 
vn 0.594539 -0.804067 0 
f 469//469 470//470 471//471 
f 472//472 469//469 473//473 
f 474//474 472//472 475//475 
f 476//476 474//474 477//477 
f 477//477 478//478 476//476 
f 475//475 477//477 474//474 
f 473//473 475//475 472//472 
f 471//471 473//473 469//469 
o mesh185
v -0.00461326 0.00235367 0 
v -0.00460199 0.00235588 0 
v -0.00460199 0.00235588 8e-05 
v -0.00462432 0.00235059 0 
v -0.00461326 0.00235367 8e-05 
v -0.00462432 0.00235059 8e-05 
vn 0.230983 -0.972958 0 
vn 0.154591 -0.987979 0 
vn 0.154591 -0.987979 0 
vn 0.305975 -0.95204 0 
vn 0.230983 -0.972958 0 
vn 0.305975 -0.95204 0 
f 479//479 480//480 481//481 
f 482//482 479//479 483//483 
f 483//483 484//484 482//482 
f 481//481 483//483 479//479 
o mesh186
v -0.00457751 0.00235864 0 
v -0.0045529 0.00235961 0 
v -0.0045529 0.00235961 8e-05 
v -0.00460199 0.00235588 0 
v -0.00457751 0.00235864 8e-05 
v -0.00460199 0.00235588 8e-05 
vn 0.0755968 -0.997138 0 
vn 0.00328494 -0.999995 0 
vn 0.00328494 -0.999995 0 
vn 0.147513 -0.98906 0 
vn 0.0755968 -0.997138 0 
vn 0.147513 -0.98906 0 
f 485//485 486//486 487//487 
f 488//488 485//485 489//489 
f 489//489 490//490 488//488 
f 487//487 489//489 485//485 
o mesh187
v -0.0045529 0.00235961 8e-05 
v -0.0045529 0.00235961 0 
v -0.00454947 0.00235964 0 
v -0.00454947 0.00235964 8e-05 
vn 0.00918732 -0.999958 0 
vn 0.00918732 -0.999958 0 
vn 0.00918732 -0.999958 0 
vn 0.00918732 -0.999958 0 
f 491//491 492//492 493//493 
f 493//493 494//494 491//491 
o mesh188
v -0.00454947 0.00235964 8e-05 
v -0.00454947 0.00235964 0 
v 0.000769601 0.00235964 0 
v 0.000769601 0.00235964 8e-05 
vn -5.54509e-07 -1 0 
vn -5.54509e-07 -1 0 
vn -5.54509e-07 -1 0 
vn -5.54509e-07 -1 0 
f 495//495 496//496 497//497 
f 497//497 498//498 495//495 
o mesh189
v 0.000769601 0.00235964 8e-05 
v 0.000769601 0.00235964 0 
v 0.000854201 0.00235961 0 
v 0.000854201 0.00235961 8e-05 
vn -0.00030233 -1 0 
vn -0.00030233 -1 0 
vn -0.00030233 -1 0 
vn -0.00030233 -1 0 
f 499//499 500//500 501//501 
f 501//501 502//502 499//499 
o mesh190
v 0.00089892 0.00235856 0 
v 0.000943433 0.00235414 0 
v 0.000943433 0.00235414 8e-05 
v 0.000854201 0.00235961 0 
v 0.00089892 0.00235856 8e-05 
v 0.000854201 0.00235961 8e-05 
vn -0.0611646 -0.998128 0 
vn -0.136123 -0.990692 0 
vn -0.136123 -0.990692 0 
vn 0.0141413 -0.9999 0 
vn -0.0611646 -0.998128 0 
vn 0.0141413 -0.9999 0 
f 503//503 504//504 505//505 
f 506//506 503//503 507//507 
f 507//507 508//508 506//506 
f 505//505 507//507 503//503 
o mesh191
v 0.000986347 0.0023443 0 
v 0.00100708 0.00233685 0 
v 0.00100708 0.00233685 8e-05 
v 0.000965087 0.00235008 0 
v 0.000986347 0.0023443 8e-05 
v 0.000943433 0.00235414 0 
v 0.000965087 0.00235008 8e-05 
v 0.000943433 0.00235414 8e-05 
vn -0.300514 -0.953777 0 
vn -0.375641 -0.926765 0 
vn -0.375641 -0.926765 0 
vn -0.223472 -0.97471 0 
vn -0.300514 -0.953777 0 
vn -0.145005 -0.989431 0 
vn -0.223472 -0.97471 0 
vn -0.145005 -0.989431 0 
f 509//509 510//510 511//511 
f 512//512 509//509 513//513 
f 514//514 512//512 515//515 
f 515//515 516//516 514//514 
f 513//513 515//515 512//512 
f 511//511 513//513 509//509 
o mesh192
v 0.00106877 0.00229939 0 
v 0.0010865 0.002283 0 
v 0.0010865 0.002283 8e-05 
v 0.0010495 0.00231393 0 
v 0.00106877 0.00229939 8e-05 
v 0.00102886 0.00232645 0 
v 0.0010495 0.00231393 8e-05 
v 0.00100708 0.00233685 0 
v 0.00102886 0.00232645 8e-05 
v 0.00100708 0.00233685 8e-05 
vn -0.641299 -0.767291 0 
vn -0.714956 -0.699169 0 
vn -0.714956 -0.699169 0 
vn -0.561187 -0.827689 0 
vn -0.641299 -0.767291 0 
vn -0.475426 -0.879756 0 
vn -0.561187 -0.827689 0 
vn -0.38488 -0.922967 0 
vn -0.475426 -0.879756 0 
vn -0.38488 -0.922967 0 
f 517//517 518//518 519//519 
f 520//520 517//517 521//521 
f 522//522 520//520 523//523 
f 524//524 522//522 525//525 
f 525//525 526//526 524//524 
f 523//523 525//525 522//522 
f 521//521 523//523 520//520 
f 519//519 521//521 517//517 
o mesh193
v 0.0010865 0.002283 0 
v 0.00112719 0.00224118 0 
v 0.00112719 0.00224118 8e-05 
v 0.0010865 0.002283 8e-05 
vn -0.716276 -0.697817 0 
vn -0.717153 -0.696916 0 
vn -0.717153 -0.696916 0 
vn -0.716276 -0.697817 0 
f 527//527 528//528 529//529 
f 529//529 530//530 527//527 
o mesh194
v 0.00112719 0.00224118 8e-05 
v 0.00112719 0.00224118 0 
v 0.00478538 -0.00152086 0 
v 0.00478538 -0.00152086 8e-05 
vn -0.716933 -0.697142 0 
vn -0.716933 -0.697142 0 
vn -0.716933 -0.697142 0 
vn -0.716933 -0.697142 0 
f 531//531 532//532 533//533 
f 533//533 534//534 531//531 
o mesh195
v 0.00478538 -0.00152086 8e-05 
v 0.00478538 -0.00152086 0 
v 0.0049129 -0.001458 0 
v 0.0049129 -0.001458 8e-05 
vn 0.442139 -0.896946 0 
vn 0.442139 -0.896946 0 
vn 0.442139 -0.896946 0 
vn 0.442139 -0.896946 0 
f 535//535 536//536 537//537 
f 537//537 538//538 535//535 
o mesh196
v 0.0049129 -0.001458 8e-05 
v 0.0049129 -0.001458 0 
v 0.00124275 0.00225992 0 
v 0.00124275 0.00225992 8e-05 
vn 0.711664 0.70252 0 
vn 0.711664 0.70252 0 
vn 0.711664 0.70252 0 
vn 0.711664 0.70252 0 
f 539//539 540//540 541//541 
f 541//541 542//542 539//539 
o mesh197
v 0.00124275 0.00225992 0 
v 0.00123663 0.00226646 0 
v 0.00123663 0.00226646 8e-05 
v 0.00124275 0.00225992 8e-05 
vn 0.710669 0.703527 0 
vn 0.748814 0.662781 0 
vn 0.748814 0.662781 0 
vn 0.710669 0.703527 0 
f 543//543 544//544 545//545 
f 545//545 546//546 543//543 
o mesh198
v 0.0012311 0.00227315 0 
v 0.00122617 0.0022803 0 
v 0.00122617 0.0022803 8e-05 
v 0.00123663 0.00226646 0 
v 0.0012311 0.00227315 8e-05 
v 0.00123663 0.00226646 8e-05 
vn 0.797763 0.602971 0 
vn 0.846486 0.532411 0 
vn 0.846486 0.532411 0 
vn 0.743175 0.669097 0 
vn 0.797763 0.602971 0 
vn 0.743175 0.669097 0 
f 547//547 548//548 549//549 
f 550//550 547//547 551//551 
f 551//551 552//552 550//550 
f 549//549 551//551 547//547 
o mesh199
v 0.00122168 0.00228935 0 
v 0.0012202 0.00229418 0 
v 0.0012202 0.00229418 8e-05 
v 0.00122368 0.0022847 0 
v 0.00122168 0.00228935 8e-05 
v 0.00122617 0.0022803 0 
v 0.00122368 0.0022847 8e-05 
v 0.00122617 0.0022803 8e-05 
vn 0.93871 0.344709 0 
vn 0.970501 0.241098 0 
vn 0.970501 0.241098 0 
vn 0.895893 0.44427 0 
vn 0.93871 0.344709 0 
vn 0.842553 0.538614 0 
vn 0.895893 0.44427 0 
vn 0.842553 0.538614 0 
f 553//553 554//554 555//555 
f 556//556 553//553 557//557 
f 558//558 556//556 559//559 
f 559//559 560//560 558//558 
f 557//557 559//559 556//556 
f 555//555 557//557 553//553 
o mesh200
v 0.0012202 0.00229418 8e-05 
v 0.0012202 0.00229418 0 
v 0.00121996 0.00229535 0 
v 0.00121996 0.00229535 8e-05 
vn 0.980406 0.19699 0 
vn 0.980406 0.19699 0 
vn 0.980406 0.19699 0 
vn 0.980406 0.19699 0 
f 561//561 562//562 563//563 
f 563//563 564//564 561//561 
o mesh201
v 0.0012201 0.00230489 0 
v 0.00122077 0.00230719 0 
v 0.00122077 0.00230719 8e-05 
v 0.00121968 0.00230252 0 
v 0.0012201 0.00230489 8e-05 
v 0.00121952 0.00230013 0 
v 0.00121968 0.00230252 8e-05 
v 0.00121961 0.00229773 0 
v 0.00121952 0.00230013 8e-05 
v 0.00121996 0.00229535 0 
v 0.00121961 0.00229773 8e-05 
v 0.00121996 0.00229535 8e-05 
vn 0.97387 -0.227106 0 
vn 0.943852 -0.330369 0 
vn 0.943852 -0.330369 0 
vn 0.992626 -0.121218 0 
vn 0.97387 -0.227106 0 
vn 0.999903 -0.0139278 0 
vn 0.992626 -0.121218 0 
vn 0.995617 0.0935236 0 
vn 0.999903 -0.0139278 0 
vn 0.979818 0.199893 0 
vn 0.995617 0.0935236 0 
vn 0.979818 0.199893 0 
f 565//565 566//566 567//567 
f 568//568 565//565 569//569 
f 570//570 568//568 571//571 
f 572//572 570//570 573//573 
f 574//574 572//572 575//575 
f 575//575 576//576 574//574 
f 573//573 575//575 572//572 
f 571//571 573//573 570//570 
f 569//569 571//571 568//568 
f 567//567 569//569 565//565 
o mesh202
v 0.00125108 0.00234266 0 
v 0.00125808 0.00234635 0 
v 0.00125808 0.00234635 8e-05 
v 0.00124452 0.00233824 0 
v 0.00125108 0.00234266 8e-05 
v 0.00123848 0.00233313 0 
v 0.00124452 0.00233824 8e-05 
v 0.00123302 0.00232741 0 
v 0.00123848 0.00233313 8e-05 
v 0.00122821 0.00232113 0 
v 0.00123302 0.00232741 8e-05 
v 0.00122411 0.00231436 0 
v 0.00122821 0.00232113 8e-05 
v 0.00122077 0.00230719 0 
v 0.00122411 0.00231436 8e-05 
v 0.00122077 0.00230719 8e-05 
vn 0.51318 -0.858281 0 
vn 0.417473 -0.90869 0 
vn 0.417473 -0.90869 0 
vn 0.602883 -0.79783 0 
vn 0.51318 -0.858281 0 
vn 0.685532 -0.728043 0 
vn 0.602883 -0.79783 0 
vn 0.760159 -0.649737 0 
vn 0.685532 -0.728043 0 
vn 0.825891 -0.563829 0 
vn 0.760159 -0.649737 0 
vn 0.88196 -0.471324 0 
vn 0.825891 -0.563829 0 
vn 0.927709 -0.373303 0 
vn 0.88196 -0.471324 0 
vn 0.927709 -0.373303 0 
f 577//577 578//578 579//579 
f 580//580 577//577 581//581 
f 582//582 580//580 583//583 
f 584//584 582//582 585//585 
f 586//586 584//584 587//587 
f 588//588 586//586 589//589 
f 590//590 588//588 591//591 
f 591//591 592//592 590//590 
f 589//589 591//591 588//588 
f 587//587 589//589 586//586 
f 585//585 587//587 584//584 
f 583//583 585//585 582//582 
f 581//581 583//583 580//580 
f 579//579 581//581 577//577 
o mesh203
v 0.00127992 0.00235387 0 
v 0.00129127 0.00235612 0 
v 0.00129127 0.00235612 8e-05 
v 0.00126883 0.0023506 0 
v 0.00127992 0.00235387 8e-05 
v 0.00125808 0.00234635 0 
v 0.00126883 0.0023506 8e-05 
v 0.00125808 0.00234635 8e-05 
vn 0.239011 -0.971017 0 
vn 0.150458 -0.988616 0 
vn 0.150458 -0.988616 0 
vn 0.325617 -0.945502 0 
vn 0.239011 -0.971017 0 
vn 0.409568 -0.91228 0 
vn 0.325617 -0.945502 0 
vn 0.409568 -0.91228 0 
f 593//593 594//594 595//595 
f 596//596 593//593 597//597 
f 598//598 596//596 599//599 
f 599//599 600//600 598//598 
f 597//597 599//599 596//596 
f 595//595 597//597 593//593 
o mesh204
v 0.00129127 0.00235612 0 
v 0.00131689 0.00235939 0 
v 0.00131689 0.00235939 8e-05 
v 0.00129127 0.00235612 8e-05 
vn 0.168311 -0.985734 0 
vn 0.0843791 -0.996434 0 
vn 0.0843791 -0.996434 0 
vn 0.168311 -0.985734 0 
f 601//601 602//602 603//603 
f 603//603 604//604 601//601 
o mesh205
v 0.00131689 0.00235939 0 
v 0.00135441 0.00236127 0 
v 0.00135441 0.00236127 8e-05 
v 0.00131689 0.00235939 8e-05 
vn 0.084552 -0.996419 0 
vn 0.0154471 -0.999881 0 
vn 0.0154471 -0.999881 0 
vn 0.084552 -0.996419 0 
f 605//605 606//606 607//607 
f 607//607 608//608 605//605 
o mesh206
v 0.000946009 0.00249965 8e-05 
v -0.0047631 0.00249965 8e-05 
v -0.00454947 0.00235964 8e-05 
v -0.00468003 0.00208822 8e-05 
v -0.0046593 0.00208575 8e-05 
v -0.00461687 0.00225519 8e-05 
v 0.000769601 0.00235964 8e-05 
v 0.00135441 0.00236127 8e-05 
v 0.00139668 0.00236184 8e-05 
v -0.00461891 0.00225729 8e-05 
v -0.0045529 0.00235961 8e-05 
v 0.00179435 0.00250472 8e-05 
v -0.00462865 0.00226785 8e-05 
v 0.000854201 0.00235961 8e-05 
v 0.00448895 0.00222813 8e-05 
v 0.00445694 0.00209182 8e-05 
v 0.00490811 0.0019718 8e-05 
v 0.00379297 0.00236482 8e-05 
v 0.00377146 0.00222589 8e-05 
v 0.0030886 0.002448 8e-05 
v 0.00179321 0.00236471 8e-05 
v 0.00131689 0.00235939 8e-05 
v -0.00464368 0.00228749 8e-05 
v -0.00464891 0.00229646 8e-05 
v -0.00463773 0.00227898 8e-05 
v 0.000943433 0.00235414 8e-05 
v 0.00122077 0.00230719 8e-05 
v -0.00457751 0.00235864 8e-05 
v -0.0047009 0.00208851 8e-05 
v -0.0046551 0.00232007 8e-05 
v 0.00494847 0.00210587 8e-05 
v 0.00531429 0.00183399 8e-05 
v 0.00307789 0.0023084 8e-05 
v 0.00089892 0.00235856 8e-05 
v -0.00460199 0.00235588 8e-05 
v -0.00462943 0.00234877 8e-05 
v -0.00462432 0.00235059 8e-05 
v -0.00465102 0.00233294 8e-05 
v -0.00464947 0.00233519 8e-05 
v -0.00465268 0.00230528 8e-05 
v -0.00465398 0.0023099 8e-05 
v -0.00465098 0.00230079 8e-05 
v -0.00461326 0.00235367 8e-05 
v -0.0046391 0.00234389 8e-05 
v -0.00463437 0.00234653 8e-05 
v -0.00464574 0.00233916 8e-05 
v -0.0046436 0.00234085 8e-05 
v -0.0046477 0.00233727 8e-05 
v -0.00465342 0.00232805 8e-05 
v -0.00465234 0.00233056 8e-05 
v -0.00465481 0.00232278 8e-05 
v 0.00576988 0.00178845 8e-05 
v 0.00570767 0.00166302 8e-05 
v 0.00591968 0.00154982 8e-05 
v 0.00536577 0.00196421 8e-05 
v 0.00127992 0.00235387 8e-05 
v 0.00129127 0.00235612 8e-05 
v -0.00465425 0.00232545 8e-05 
v 0.00672797 0.000987146 8e-05 
v 0.00673978 0.000896809 8e-05 
v 0.00675434 0.000901386 8e-05 
v 0.00669437 0.000892559 8e-05 
v 0.00670963 0.000892371 8e-05 
v 0.00666433 0.000897742 8e-05 
v 0.00667921 0.000894357 8e-05 
v -0.00465487 0.00231462 8e-05 
v 0.00672482 0.000893792 8e-05 
v 0.00663605 0.00090911 8e-05 
v 0.00664989 0.000902678 8e-05 
v 0.0059929 0.00166959 8e-05 
v 0.00612116 0.00141879 8e-05 
v -0.00465512 0.00231734 8e-05 
v 0.00662296 0.000916966 8e-05 
v 0.00620464 0.00153164 8e-05 
v 0.0063106 0.0012709 8e-05 
v 0.00122411 0.00231436 8e-05 
v -0.00481521 0.00249786 8e-05 
v -0.00472168 0.00208662 8e-05 
v 0.00668122 0.00106325 8e-05 
v 0.00659963 0.000936583 8e-05 
v 0.00661078 0.000926157 8e-05 
v 0.00658094 0.000960657 8e-05 
v 0.00658965 0.000948126 8e-05 
v -0.00463895 0.00208113 8e-05 
v -0.00461919 0.0020744 8e-05 
v 0.00126883 0.0023506 8e-05 
v 0.00123302 0.00232741 8e-05 
v 0.00123848 0.00233313 8e-05 
v -0.00460024 0.00206564 8e-05 
v -0.00473755 0.00208282 8e-05 
v -0.00475297 0.00207748 8e-05 
v -0.0048669 0.00249101 8e-05 
v -0.00476779 0.00207066 8e-05 
v -0.00491768 0.00247917 8e-05 
v -0.0050146 0.00244101 8e-05 
v -0.00478187 0.00206241 8e-05 
v -0.00510092 0.00238383 8e-05 
v -0.00480726 0.00204199 8e-05 
v -0.00479507 0.00205283 8e-05 
v -0.00592183 0.000820013 8e-05 
v -0.00567783 0.000693323 8e-05 
v -0.00567217 0.000752878 8e-05 
v -0.00583497 0.000539714 8e-05 
v -0.00567803 0.000633498 8e-05 
v -0.0057784 0.000335921 8e-05 
v -0.00562542 0.000379034 8e-05 
v -0.00566204 0.000515049 8e-05 
v -0.00565497 -3.14405e-05 8e-05 
v -0.00550928 2.70391e-05 8e-05 
v -0.00474118 -0.00137287 8e-05 
v -0.00463581 -0.00134765 8e-05 
v -0.00463419 -0.00133261 8e-05 
v -0.004684 -0.00142139 8e-05 
v -0.00463902 -0.00136244 8e-05 
v -0.00479523 -0.00132089 8e-05 
v -0.00465004 -0.0012595 8e-05 
v -0.00465775 -0.00124647 8e-05 
v 0.00676834 0.000907474 8e-05 
v 0.00651693 0.00105054 8e-05 
v 0.00125808 0.00234635 8e-05 
v 0.00122821 0.00232113 8e-05 
v -0.00496707 0.00246245 8e-05 
v -0.00505982 0.00241505 8e-05 
v -0.00513906 0.00234906 8e-05 
v -0.00517394 0.002311 8e-05 
v -0.00481834 0.00203001 8e-05 
v -0.00519701 0.00227534 8e-05 
v -0.00521635 0.00223752 8e-05 
v -0.00523174 0.00219792 8e-05 
v -0.0048367 0.00200308 8e-05 
v 0.0012201 0.00230489 8e-05 
v 0.000965087 0.00235008 8e-05 
v 0.00478538 -0.00152086 8e-05 
v 0.0049129 -0.001458 8e-05 
v 0.00124275 0.00225992 8e-05 
v -0.0046668 -0.00123435 8e-05 
v -0.00464377 -0.00127327 8e-05 
v 0.0066284 0.00113527 8e-05 
v 0.00652215 0.00126129 8e-05 
v 0.00641882 0.00116545 8e-05 
v 0.00125108 0.00234266 8e-05 
v -0.00458231 0.00205495 8e-05 
v -0.00482818 0.002017 8e-05 
v 0.00100708 0.00233685 8e-05 
v 0.00102886 0.00232645 8e-05 
v 0.000986347 0.0023443 8e-05 
v 0.00121968 0.00230252 8e-05 
v 0.0010495 0.00231393 8e-05 
v 0.00106877 0.00229939 8e-05 
v 0.0010865 0.002283 8e-05 
v 0.0012202 0.00229418 8e-05 
v 0.00121996 0.00229535 8e-05 
v 0.00112719 0.00224118 8e-05 
v -0.00538295 0.00173313 8e-05 
v -0.00505779 0.00142104 8e-05 
v -0.00502841 0.00145891 8e-05 
v -0.00496469 0.0015873 8e-05 
v -0.00531494 0.00202963 8e-05 
v -0.00532572 0.00201347 8e-05 
v -0.00567275 0.000573907 8e-05 
v -0.00549428 -0.000384104 8e-05 
v -0.0052943 -0.000720134 8e-05 
v -0.00516546 -0.00063411 8e-05 
v -0.00506044 -0.00103353 8e-05 
v -0.00494197 -0.000936049 8e-05 
v -0.00465779 -0.00140359 8e-05 
v -0.00465007 -0.00139057 8e-05 
v -0.00467714 -0.00142681 8e-05 
v -0.00466685 -0.00141572 8e-05 
v -0.0046358 -0.00130243 8e-05 
v -0.004639 -0.00128764 8e-05 
v -0.00463418 -0.00131747 8e-05 
v 0.00640348 0.00137568 8e-05 
v 0.00124452 0.00233824 8e-05 
v -0.0045656 0.00204245 8e-05 
v 0.00121952 0.00230013 8e-05 
v 0.00122168 0.00228935 8e-05 
v 0.00123663 0.00226646 8e-05 
v -0.00500294 0.00149952 8e-05 
v -0.00512709 0.00135497 8e-05 
v -0.0050908 0.00138628 8e-05 
v -0.00533491 0.00199635 8e-05 
v -0.00534243 0.00197843 8e-05 
v -0.00530267 0.0020447 8e-05 
v -0.00566689 0.00152247 8e-05 
v -0.00603498 0.00109077 8e-05 
v -0.00553844 0.00104989 8e-05 
v -0.00563946 0.000875502 8e-05 
v -0.00535662 -0.000310725 8e-05 
v -0.00468851 -0.00121332 8e-05 
v -0.00467709 -0.00122325 8e-05 
v -0.00524303 0.00215697 8e-05 
v 0.00121961 0.00229773 8e-05 
v 0.0012311 0.00227315 8e-05 
v -0.00498163 0.00154246 8e-05 
v -0.00484381 0.0019884 8e-05 
v -0.00527286 0.00208633 8e-05 
v -0.00528684 0.00206485 8e-05 
v -0.00549382 0.0011004 8e-05 
v -0.00566108 0.000811665 8e-05 
v -0.0046438 -0.0013768 8e-05 
v 0.00122617 0.0022803 8e-05 
v -0.0053482 0.00195988 8e-05 
v -0.00526084 0.00210897 8e-05 
v -0.00557783 0.000995201 8e-05 
v -0.00561162 0.000936881 8e-05 
v 0.000330139 -0.00277089 8e-05 
v 0.00122368 0.0022847 8e-05 
v -0.00535218 0.00194086 8e-05 
v -0.00525087 0.00213258 8e-05 
v -0.00627348 0.00137974 8e-05 
v -0.00616149 0.00159574 8e-05 
v -0.00640879 0.00163238 8e-05 
v -0.00591419 0.0015591 8e-05 
v -0.00584678 0.00201414 8e-05 
v -0.00610392 0.0011955 8e-05 
v -0.00530947 0.00124313 8e-05 
v -0.00516633 0.00132743 8e-05 
v -0.00665609 0.00166902 8e-05 
v -0.00609408 0.00205078 8e-05 
v -0.00618373 0.00129219 8e-05 
v -0.00563025 0.00176977 8e-05 
v -0.00544441 0.00114624 8e-05 
v 0.000176629 -0.00278972 8e-05 
v -0.00637215 0.00187968 8e-05 
v -0.00661946 0.00191632 8e-05 
vn 0 0 1 
vn 0 0 1 
vn 0 0 1 
vn 0 0 1 
vn 0 0 1 
vn 0 0 1 
vn 0 0 1 
vn 0 0 1 
vn 0 0 1 
vn 0 0 1 
vn 0 0 1 
vn 0 0 1 
vn 0 0 1 
vn 0 0 1 
vn 0 0 1 
vn 0 0 1 
vn 0 0 1 
vn 0 0 1 
vn 0 0 1 
vn 0 0 1 
vn 0 0 1 
vn 0 0 1 
vn 0 0 1 
vn 0 0 1 
vn 0 0 1 
vn 0 0 1 
vn 0 0 1 
vn 0 0 1 
vn 0 0 1 
vn 0 0 1 
vn 0 0 1 
vn 0 0 1 
vn 0 0 1 
vn 0 0 1 
vn 0 0 1 
vn 0 0 1 
vn 0 0 1 
vn 0 0 1 
vn 0 0 1 
vn 0 0 1 
vn 0 0 1 
vn 0 0 1 
vn 0 0 1 
vn 0 0 1 
vn 0 0 1 
vn 0 0 1 
vn 0 0 1 
vn 0 0 1 
vn 0 0 1 
vn 0 0 1 
vn 0 0 1 
vn 0 0 1 
vn 0 0 1 
vn 0 0 1 
vn 0 0 1 
vn 0 0 1 
vn 0 0 1 
vn 0 0 1 
vn 0 0 1 
vn 0 0 1 
vn 0 0 1 
vn 0 0 1 
vn 0 0 1 
vn 0 0 1 
vn 0 0 1 
vn 0 0 1 
vn 0 0 1 
vn 0 0 1 
vn 0 0 1 
vn 0 0 1 
vn 0 0 1 
vn 0 0 1 
vn 0 0 1 
vn 0 0 1 
vn 0 0 1 
vn 0 0 1 
vn 0 0 1 
vn 0 0 1 
vn 0 0 1 
vn 0 0 1 
vn 0 0 1 
vn 0 0 1 
vn 0 0 1 
vn 0 0 1 
vn 0 0 1 
vn 0 0 1 
vn 0 0 1 
vn 0 0 1 
vn 0 0 1 
vn 0 0 1 
vn 0 0 1 
vn 0 0 1 
vn 0 0 1 
vn 0 0 1 
vn 0 0 1 
vn 0 0 1 
vn 0 0 1 
vn 0 0 1 
vn 0 0 1 
vn 0 0 1 
vn 0 0 1 
vn 0 0 1 
vn 0 0 1 
vn 0 0 1 
vn 0 0 1 
vn 0 0 1 
vn 0 0 1 
vn 0 0 1 
vn 0 0 1 
vn 0 0 1 
vn 0 0 1 
vn 0 0 1 
vn 0 0 1 
vn 0 0 1 
vn 0 0 1 
vn 0 0 1 
vn 0 0 1 
vn 0 0 1 
vn 0 0 1 
vn 0 0 1 
vn 0 0 1 
vn 0 0 1 
vn 0 0 1 
vn 0 0 1 
vn 0 0 1 
vn 0 0 1 
vn 0 0 1 
vn 0 0 1 
vn 0 0 1 
vn 0 0 1 
vn 0 0 1 
vn 0 0 1 
vn 0 0 1 
vn 0 0 1 
vn 0 0 1 
vn 0 0 1 
vn 0 0 1 
vn 0 0 1 
vn 0 0 1 
vn 0 0 1 
vn 0 0 1 
vn 0 0 1 
vn 0 0 1 
vn 0 0 1 
vn 0 0 1 
vn 0 0 1 
vn 0 0 1 
vn 0 0 1 
vn 0 0 1 
vn 0 0 1 
vn 0 0 1 
vn 0 0 1 
vn 0 0 1 
vn 0 0 1 
vn 0 0 1 
vn 0 0 1 
vn 0 0 1 
vn 0 0 1 
vn 0 0 1 
vn 0 0 1 
vn 0 0 1 
vn 0 0 1 
vn 0 0 1 
vn 0 0 1 
vn 0 0 1 
vn 0 0 1 
vn 0 0 1 
vn 0 0 1 
vn 0 0 1 
vn 0 0 1 
vn 0 0 1 
vn 0 0 1 
vn 0 0 1 
vn 0 0 1 
vn 0 0 1 
vn 0 0 1 
vn 0 0 1 
vn 0 0 1 
vn 0 0 1 
vn 0 0 1 
vn 0 0 1 
vn 0 0 1 
vn 0 0 1 
vn 0 0 1 
vn 0 0 1 
vn 0 0 1 
vn 0 0 1 
vn 0 0 1 
vn 0 0 1 
vn 0 0 1 
vn 0 0 1 
vn 0 0 1 
vn 0 0 1 
vn 0 0 1 
vn 0 0 1 
vn 0 0 1 
vn 0 0 1 
vn 0 0 1 
vn 0 0 1 
vn 0 0 1 
vn 0 0 1 
vn 0 0 1 
vn 0 0 1 
vn 0 0 1 
vn 0 0 1 
vn 0 0 1 
vn 0 0 1 
vn 0 0 1 
vn 0 0 1 
vn 0 0 1 
vn 0 0 1 
vn 0 0 1 
vn 0 0 1 
vn 0 0 1 
vn 0 0 1 
vn 0 0 1 
vn 0 0 1 
vn 0 0 1 
vn 0 0 1 
vn 0 0 1 
vn 0 0 1 
vn 0 0 1 
vn 0 0 1 
vn 0 0 1 
vn 0 0 1 
vn 0 0 1 
f 609//609 610//610 611//611 
f 612//612 613//613 614//614 
f 611//611 615//615 609//609 
f 609//609 616//616 617//617 
f 614//614 618//618 612//612 
f 610//610 619//619 611//611 
f 617//617 620//620 609//609 
f 618//618 621//621 612//612 
f 615//615 622//622 609//609 
f 623//623 624//624 625//625 
f 623//623 626//626 627//627 
f 628//628 620//620 629//629 
f 609//609 630//630 616//616 
f 612//612 631//631 632//632 
f 621//621 633//633 612//612 
f 609//609 634//634 635//635 
f 610//610 636//636 619//619 
f 637//637 612//612 638//638 
f 639//639 625//625 640//640 
f 627//627 624//624 623//623 
f 626//626 628//628 641//641 
f 617//617 629//629 620//620 
f 633//633 631//631 612//612 
f 609//609 642//642 634//634 
f 610//610 643//643 636//636 
f 610//610 644//644 645//645 
f 610//610 646//646 647//647 
f 638//638 610//610 637//637 
f 625//625 639//639 623//623 
f 629//629 641//641 628//628 
f 612//612 648//648 649//649 
f 632//632 650//650 612//612 
f 622//622 642//642 609//609 
f 645//645 651//651 610//610 
f 610//610 652//652 653//653 
f 610//610 654//654 655//655 
f 647//647 656//656 610//610 
f 610//610 657//657 658//658 
f 638//638 659//659 610//610 
f 660//660 661//661 662//662 
f 663//663 640//640 661//661 
f 641//641 627//627 626//626 
f 609//609 664//664 665//665 
f 650//650 648//648 612//612 
f 651//651 643//643 610//610 
f 655//655 652//652 610//610 
f 658//658 646//646 610//610 
f 659//659 666//666 610//610 
f 667//667 668//668 669//669 
f 667//667 670//670 671//671 
f 667//667 672//672 673//673 
f 661//661 660//660 663//663 
f 665//665 630//630 609//609 
f 649//649 674//674 612//612 
f 653//653 644//644 610//610 
f 666//666 657//657 610//610 
f 667//667 675//675 668//668 
f 673//673 670//670 667//667 
f 667//667 676//676 677//677 
f 678//678 662//662 679//679 
f 640//640 663//663 639//639 
f 674//674 680//680 612//612 
f 656//656 654//654 610//610 
f 671//671 675//675 667//667 
f 667//667 681//681 676//676 
f 682//682 679//679 683//683 
f 662//662 678//678 660//660 
f 635//635 684//684 609//609 
f 610//610 685//685 686//686 
f 687//687 688//688 689//689 
f 687//687 690//690 691//691 
f 677//677 672//672 667//667 
f 679//679 682//682 678//678 
f 614//614 692//692 693//693 
f 686//686 637//637 610//610 
f 691//691 688//688 687//687 
f 667//667 689//689 681//681 
f 609//609 694//694 664//664 
f 609//609 695//695 696//696 
f 693//693 697//697 614//614 
f 680//680 638//638 612//612 
f 698//698 686//686 685//685 
f 699//699 698//698 700//700 
f 701//701 699//699 702//702 
f 703//703 704//704 701//701 
f 705//705 706//706 707//707 
f 708//708 709//709 710//710 
f 708//708 711//711 712//712 
f 713//713 714//714 715//715 
f 713//713 716//716 717//717 
f 718//718 719//719 720//720 
f 718//718 721//721 722//722 
f 723//723 724//724 725//725 
f 669//669 726//726 667//667 
f 727//727 690//690 687//687 
f 609//609 728//728 694//694 
f 609//609 729//729 695//695 
f 613//613 692//692 614//614 
f 700//700 702//702 699//699 
f 701//701 730//730 703//703 
f 731//731 707//707 704//704 
f 707//707 731//731 705//705 
f 732//732 733//733 734//734 
f 734//734 733//733 735//735 
f 736//736 737//737 738//738 
f 739//739 634//634 740//740 
f 741//741 742//742 743//743 
f 712//712 709//709 708//708 
f 717//717 714//714 713//713 
f 722//722 719//719 718//718 
f 725//725 744//744 723//723 
f 723//723 718//718 745//745 
f 687//687 746//746 727//727 
f 747//747 748//748 727//727 
f 609//609 749//749 728//728 
f 609//609 684//684 729//729 
f 697//697 750//750 614//614 
f 702//702 730//730 701//701 
f 705//705 732//732 706//706 
f 735//735 751//751 734//734 
f 751//751 735//735 736//736 
f 739//739 752//752 753//753 
f 740//740 754//754 739//739 
f 755//755 756//756 757//757 
f 758//758 759//759 760//760 
f 759//759 758//758 761//761 
f 743//743 761//761 741//741 
f 762//762 763//763 764//764 
f 765//765 766//766 767//767 
f 711//711 768//768 712//712 
f 715//715 711//711 713//713 
f 769//769 770//770 771//771 
f 770//770 772//772 773//773 
f 721//721 774//774 775//775 
f 721//721 776//776 777//777 
f 718//718 778//778 779//779 
f 720//720 780//780 718//718 
f 745//745 724//724 723//723 
f 727//727 746//746 747//747 
f 781//781 683//683 748//748 
f 609//609 782//782 749//749 
f 750//750 783//783 614//614 
f 704//704 703//703 731//731 
f 738//738 751//751 736//736 
f 754//754 752//752 739//739 
f 755//755 753//753 756//756 
f 784//784 757//757 758//758 
f 761//761 785//785 759//759 
f 743//743 786//786 761//761 
f 764//764 787//787 762//762 
f 762//762 788//788 789//789 
f 765//765 790//790 791//791 
f 765//765 792//792 766//766 
f 793//793 794//794 795//795 
f 796//796 794//794 708//708 
f 715//715 768//768 711//711 
f 716//716 769//769 797//797 
f 773//773 771//771 770//770 
f 723//723 798//798 773//773 
f 777//777 774//774 721//721 
f 780//780 778//778 718//718 
f 744//744 799//799 723//723 
f 748//748 747//747 781//781 
f 696//696 782//782 609//609 
f 734//734 706//706 732//732 
f 738//738 737//737 800//800 
f 757//757 784//784 755//755 
f 760//760 801//801 758//758 
f 786//786 802//802 761//761 
f 762//762 803//803 765//765 
f 789//789 763//763 762//762 
f 767//767 790//790 765//765 
f 804//804 805//805 806//806 
f 795//795 807//807 793//793 
f 708//708 808//808 796//796 
f 797//797 717//717 716//716 
f 773//773 772//772 723//723 
f 775//775 809//809 721//721 
f 799//799 798//798 723//723 
f 683//683 781//781 682//682 
f 800//800 804//804 738//738 
f 758//758 801//801 784//784 
f 802//802 810//810 761//761 
f 787//787 803//803 762//762 
f 791//791 811//811 765//765 
f 804//804 812//812 805//805 
f 794//794 813//813 795//795 
f 796//796 814//814 794//794 
f 771//771 797//797 769//769 
f 779//779 745//745 718//718 
f 815//815 614//614 783//783 
f 685//685 700//700 698//698 
f 753//753 755//755 739//739 
f 810//810 816//816 761//761 
f 811//811 817//817 765//765 
f 804//804 818//818 812//812 
f 819//819 820//820 821//821 
f 820//820 822//822 823//823 
f 814//814 813//813 794//794 
f 809//809 722//722 721//721 
f 824//824 793//793 822//822 
f 825//825 826//826 762//762 
f 689//689 667//667 687//687 
f 816//816 785//785 761//761 
f 765//765 806//806 792//792 
f 804//804 800//800 818//818 
f 821//821 827//827 819//819 
f 823//823 828//828 820//820 
f 710//710 808//808 708//708 
f 822//822 829//829 824//824 
f 762//762 830//830 825//825 
f 825//825 830//830 793//793 
f 739//739 635//635 634//634 
f 806//806 765//765 804//804 
f 820//820 829//829 822//822 
f 824//824 794//794 793//793 
f 793//793 831//831 825//825 
f 765//765 817//817 762//762 
f 807//807 831//831 793//793 
f 783//783 832//832 815//815 
f 833//833 834//834 827//827 
f 826//826 788//788 762//762 
f 819//819 829//829 820//820 
f 827//827 821//821 833//833 
o mesh207
v 0.000946009 0.00249965 0 
v 0.000769601 0.00235964 0 
v -0.00454947 0.00235964 0 
v 0.000854201 0.00235961 0 
v -0.0047631 0.00249965 0 
v 0.00089892 0.00235856 0 
v -0.0045529 0.00235961 0 
v 0.00122411 0.00231436 0 
v 0.00122077 0.00230719 0 
v -0.00461326 0.00235367 0 
v -0.00462432 0.00235059 0 
v -0.00457751 0.00235864 0 
v 0.000943433 0.00235414 0 
v 0.00179435 0.00250472 0 
v 0.00139668 0.00236184 0 
v -0.0046391 0.00234389 0 
v -0.0046436 0.00234085 0 
v -0.00462943 0.00234877 0 
v -0.00463437 0.00234653 0 
v -0.00460199 0.00235588 0 
v 0.00179321 0.00236471 0 
v 0.00135441 0.00236127 0 
v 0.0030886 0.002448 0 
v 0.00307789 0.0023084 0 
v 0.00448895 0.00222813 0 
v 0.00445694 0.00209182 0 
v 0.00377146 0.00222589 0 
v 0.00494847 0.00210587 0 
v 0.00490811 0.0019718 0 
v -0.0047009 0.00208851 0 
v -0.0046551 0.00232007 0 
v 0.00379297 0.00236482 0 
v 0.00536577 0.00196421 0 
v 0.00531429 0.00183399 0 
v -0.00465481 0.00232278 0 
v -0.0046477 0.00233727 0 
v -0.00464947 0.00233519 0 
v -0.00464574 0.00233916 0 
v -0.00465425 0.00232545 0 
v -0.00465102 0.00233294 0 
v -0.00465234 0.00233056 0 
v 0.00131689 0.00235939 0 
v 0.00129127 0.00235612 0 
v 0.00576988 0.00178845 0 
v 0.00570767 0.00166302 0 
v 0.0059929 0.00166959 0 
v 0.00591968 0.00154982 0 
v 0.00672797 0.000987146 0 
v 0.00669437 0.000892559 0 
v 0.00667921 0.000894357 0 
v 0.00672482 0.000893792 0 
v 0.00670963 0.000892371 0 
v -0.00465342 0.00232805 0 
v -0.00463895 0.00208113 0 
v -0.00465512 0.00231734 0 
v -0.00465487 0.00231462 0 
v 0.00666433 0.000897742 0 
v 0.00664989 0.000902678 0 
v 0.00675434 0.000901386 0 
v 0.00673978 0.000896809 0 
v -0.00461919 0.0020744 0 
v -0.00460024 0.00206564 0 
v -0.00465398 0.0023099 0 
v -0.00465268 0.00230528 0 
v 0.00620464 0.00153164 0 
v 0.00612116 0.00141879 0 
v 0.00663605 0.00090911 0 
v -0.0046593 0.00208575 0 
v -0.00468003 0.00208822 0 
v -0.0045656 0.00204245 0 
v -0.00458231 0.00205495 0 
v 0.00640348 0.00137568 0 
v 0.0063106 0.0012709 0 
v 0.00662296 0.000916966 0 
v 0.00668122 0.00106325 0 
v 0.00659963 0.000936583 0 
v 0.00658965 0.000948126 0 
v 0.00661078 0.000926157 0 
v -0.00510092 0.00238383 0 
v -0.00505982 0.00241505 0 
v -0.00479507 0.00205283 0 
v -0.0050146 0.00244101 0 
v -0.00496707 0.00246245 0 
v -0.00476779 0.00207066 0 
v -0.00491768 0.00247917 0 
v -0.00475297 0.00207748 0 
v -0.0048669 0.00249101 0 
v -0.00473755 0.00208282 0 
v -0.00481521 0.00249786 0 
v -0.00472168 0.00208662 0 
v 0.00127992 0.00235387 0 
v 0.00676834 0.000907474 0 
v -0.0057784 0.000335921 0 
v -0.00562542 0.000379034 0 
v -0.00550928 2.70391e-05 0 
v -0.00583497 0.000539714 0 
v -0.00566204 0.000515049 0 
v -0.00592183 0.000820013 0 
v -0.00567783 0.000693323 0 
v -0.00567803 0.000633498 0 
v 0.00478538 -0.00152086 0 
v 0.00112719 0.00224118 0 
v 0.00124275 0.00225992 0 
v 0.0012201 0.00230489 0 
v 0.000986347 0.0023443 0 
v 0.000965087 0.00235008 0 
v -0.00521635 0.00223752 0 
v -0.00482818 0.002017 0 
v -0.0048367 0.00200308 0 
v -0.00481834 0.00203001 0 
v -0.00519701 0.00227534 0 
v -0.00513906 0.00234906 0 
v -0.00480726 0.00204199 0 
v -0.00478187 0.00206241 0 
v 0.00124452 0.00233824 0 
v 0.00123848 0.00233313 0 
v 0.00126883 0.0023506 0 
v 0.00651693 0.00105054 0 
v 0.0066284 0.00113527 0 
v 0.00658094 0.000960657 0 
v 0.000330139 -0.00277089 0 
v 0.000176629 -0.00278972 0 
v -0.00474118 -0.00137287 0 
v -0.00463581 -0.00134765 0 
v -0.00463902 -0.00136244 0 
v -0.00463418 -0.00131747 0 
v -0.00463419 -0.00133261 0 
v -0.00567217 0.000752878 0 
v -0.00496469 0.0015873 0 
v -0.00532572 0.00201347 0 
v -0.00531494 0.00202963 0 
v -0.00538295 0.00173313 0 
v -0.00535218 0.00194086 0 
v 0.00123663 0.00226646 0 
v 0.0012202 0.00229418 0 
v 0.00122168 0.00228935 0 
v 0.0010865 0.002283 0 
v 0.00121961 0.00229773 0 
v 0.00121996 0.00229535 0 
v 0.00121968 0.00230252 0 
v 0.00121952 0.00230013 0 
v 0.00106877 0.00229939 0 
v 0.00100708 0.00233685 0 
v 0.00102886 0.00232645 0 
v -0.00523174 0.00219792 0 
v -0.00517394 0.002311 0 
v 0.00122821 0.00232113 0 
v 0.00123302 0.00232741 0 
v 0.00125808 0.00234635 0 
v 0.00652215 0.00126129 0 
v -0.00461891 0.00225729 0 
v -0.00461687 0.00225519 0 
v -0.00479523 -0.00132089 0 
v -0.0046668 -0.00123435 0 
v -0.00465775 -0.00124647 0 
v -0.00468851 -0.00121332 0 
v -0.00467709 -0.00122325 0 
v -0.00567275 0.000573907 0 
v -0.00533491 0.00199635 0 
v -0.0053482 0.00195988 0 
v -0.00534243 0.00197843 0 
v -0.00500294 0.00149952 0 
v -0.00502841 0.00145891 0 
v -0.00498163 0.00154246 0 
v 0.0012311 0.00227315 0 
v 0.0010495 0.00231393 0 
v 0.00125108 0.00234266 0 
v 0.00641882 0.00116545 0 
v -0.00462865 0.00226785 0 
v -0.00465004 -0.0012595 0 
v -0.00464377 -0.00127327 0 
v -0.0046358 -0.00130243 0 
v -0.004639 -0.00128764 0 
v -0.004684 -0.00142139 0 
v -0.00465779 -0.00140359 0 
v -0.00466685 -0.00141572 0 
v -0.0046438 -0.0013768 0 
v -0.00465007 -0.00139057 0 
v -0.00506044 -0.00103353 0 
v -0.00494197 -0.000936049 0 
v -0.0052943 -0.000720134 0 
v -0.00516546 -0.00063411 0 
v -0.00566689 0.00152247 0 
v -0.00549382 0.0011004 0 
v -0.00553844 0.00104989 0 
v -0.00505779 0.00142104 0 
v -0.0050908 0.00138628 0 
v 0.00122617 0.0022803 0 
v -0.00484381 0.0019884 0 
v -0.00524303 0.00215697 0 
v -0.00463773 0.00227898 0 
v -0.00465098 0.00230079 0 
v -0.00464891 0.00229646 0 
v -0.00549428 -0.000384104 0 
v -0.00535662 -0.000310725 0 
v -0.00565497 -3.14405e-05 0 
v -0.00566108 0.000811665 0 
v -0.00544441 0.00114624 0 
v -0.00528684 0.00206485 0 
v 0.00122368 0.0022847 0 
v -0.00464368 0.00228749 0 
v -0.00603498 0.00109077 0 
v -0.00557783 0.000995201 0 
v -0.00561162 0.000936881 0 
v -0.00526084 0.00210897 0 
v -0.00525087 0.00213258 0 
v -0.00527286 0.00208633 0 
v -0.00512709 0.00135497 0 
v -0.00467714 -0.00142681 0 
v -0.00563946 0.000875502 0 
v -0.00530267 0.0020447 0 
v -0.00530947 0.00124313 0 
v -0.00563025 0.00176977 0 
v -0.00610392 0.0011955 0 
v -0.00618373 0.00129219 0 
v -0.00591419 0.0015591 0 
v -0.00616149 0.00159574 0 
v -0.00609408 0.00205078 0 
v -0.00584678 0.00201414 0 
v -0.00627348 0.00137974 0 
v -0.00665609 0.00166902 0 
v -0.00640879 0.00163238 0 
v -0.00516633 0.00132743 0 
v 0.0049129 -0.001458 0 
v -0.00637215 0.00187968 0 
v -0.00661946 0.00191632 0 
vn 0 0 -1 
vn 0 0 -1 
vn 0 0 -1 
vn 0 0 -1 
vn 0 0 -1 
vn 0 0 -1 
vn 0 0 -1 
vn 0 0 -1 
vn 0 0 -1 
vn 0 0 -1 
vn 0 0 -1 
vn 0 0 -1 
vn 0 0 -1 
vn 0 0 -1 
vn 0 0 -1 
vn 0 0 -1 
vn 0 0 -1 
vn 0 0 -1 
vn 0 0 -1 
vn 0 0 -1 
vn 0 0 -1 
vn 0 0 -1 
vn 0 0 -1 
vn 0 0 -1 
vn 0 0 -1 
vn 0 0 -1 
vn 0 0 -1 
vn 0 0 -1 
vn 0 0 -1 
vn 0 0 -1 
vn 0 0 -1 
vn 0 0 -1 
vn 0 0 -1 
vn 0 0 -1 
vn 0 0 -1 
vn 0 0 -1 
vn 0 0 -1 
vn 0 0 -1 
vn 0 0 -1 
vn 0 0 -1 
vn 0 0 -1 
vn 0 0 -1 
vn 0 0 -1 
vn 0 0 -1 
vn 0 0 -1 
vn 0 0 -1 
vn 0 0 -1 
vn 0 0 -1 
vn 0 0 -1 
vn 0 0 -1 
vn 0 0 -1 
vn 0 0 -1 
vn 0 0 -1 
vn 0 0 -1 
vn 0 0 -1 
vn 0 0 -1 
vn 0 0 -1 
vn 0 0 -1 
vn 0 0 -1 
vn 0 0 -1 
vn 0 0 -1 
vn 0 0 -1 
vn 0 0 -1 
vn 0 0 -1 
vn 0 0 -1 
vn 0 0 -1 
vn 0 0 -1 
vn 0 0 -1 
vn 0 0 -1 
vn 0 0 -1 
vn 0 0 -1 
vn 0 0 -1 
vn 0 0 -1 
vn 0 0 -1 
vn 0 0 -1 
vn 0 0 -1 
vn 0 0 -1 
vn 0 0 -1 
vn 0 0 -1 
vn 0 0 -1 
vn 0 0 -1 
vn 0 0 -1 
vn 0 0 -1 
vn 0 0 -1 
vn 0 0 -1 
vn 0 0 -1 
vn 0 0 -1 
vn 0 0 -1 
vn 0 0 -1 
vn 0 0 -1 
vn 0 0 -1 
vn 0 0 -1 
vn 0 0 -1 
vn 0 0 -1 
vn 0 0 -1 
vn 0 0 -1 
vn 0 0 -1 
vn 0 0 -1 
vn 0 0 -1 
vn 0 0 -1 
vn 0 0 -1 
vn 0 0 -1 
vn 0 0 -1 
vn 0 0 -1 
vn 0 0 -1 
vn 0 0 -1 
vn 0 0 -1 
vn 0 0 -1 
vn 0 0 -1 
vn 0 0 -1 
vn 0 0 -1 
vn 0 0 -1 
vn 0 0 -1 
vn 0 0 -1 
vn 0 0 -1 
vn 0 0 -1 
vn 0 0 -1 
vn 0 0 -1 
vn 0 0 -1 
vn 0 0 -1 
vn 0 0 -1 
vn 0 0 -1 
vn 0 0 -1 
vn 0 0 -1 
vn 0 0 -1 
vn 0 0 -1 
vn 0 0 -1 
vn 0 0 -1 
vn 0 0 -1 
vn 0 0 -1 
vn 0 0 -1 
vn 0 0 -1 
vn 0 0 -1 
vn 0 0 -1 
vn 0 0 -1 
vn 0 0 -1 
vn 0 0 -1 
vn 0 0 -1 
vn 0 0 -1 
vn 0 0 -1 
vn 0 0 -1 
vn 0 0 -1 
vn 0 0 -1 
vn 0 0 -1 
vn 0 0 -1 
vn 0 0 -1 
vn 0 0 -1 
vn 0 0 -1 
vn 0 0 -1 
vn 0 0 -1 
vn 0 0 -1 
vn 0 0 -1 
vn 0 0 -1 
vn 0 0 -1 
vn 0 0 -1 
vn 0 0 -1 
vn 0 0 -1 
vn 0 0 -1 
vn 0 0 -1 
vn 0 0 -1 
vn 0 0 -1 
vn 0 0 -1 
vn 0 0 -1 
vn 0 0 -1 
vn 0 0 -1 
vn 0 0 -1 
vn 0 0 -1 
vn 0 0 -1 
vn 0 0 -1 
vn 0 0 -1 
vn 0 0 -1 
vn 0 0 -1 
vn 0 0 -1 
vn 0 0 -1 
vn 0 0 -1 
vn 0 0 -1 
vn 0 0 -1 
vn 0 0 -1 
vn 0 0 -1 
vn 0 0 -1 
vn 0 0 -1 
vn 0 0 -1 
vn 0 0 -1 
vn 0 0 -1 
vn 0 0 -1 
vn 0 0 -1 
vn 0 0 -1 
vn 0 0 -1 
vn 0 0 -1 
vn 0 0 -1 
vn 0 0 -1 
vn 0 0 -1 
vn 0 0 -1 
vn 0 0 -1 
vn 0 0 -1 
vn 0 0 -1 
vn 0 0 -1 
vn 0 0 -1 
vn 0 0 -1 
vn 0 0 -1 
vn 0 0 -1 
vn 0 0 -1 
vn 0 0 -1 
vn 0 0 -1 
vn 0 0 -1 
vn 0 0 -1 
vn 0 0 -1 
vn 0 0 -1 
vn 0 0 -1 
vn 0 0 -1 
vn 0 0 -1 
vn 0 0 -1 
vn 0 0 -1 
vn 0 0 -1 
vn 0 0 -1 
vn 0 0 -1 
vn 0 0 -1 
vn 0 0 -1 
vn 0 0 -1 
vn 0 0 -1 
vn 0 0 -1 
vn 0 0 -1 
vn 0 0 -1 
vn 0 0 -1 
vn 0 0 -1 
vn 0 0 -1 
f 835//835 836//836 837//837 
f 835//835 838//838 836//836 
f 837//837 839//839 835//835 
f 835//835 840//840 838//838 
f 837//837 841//841 839//839 
f 835//835 842//842 843//843 
f 839//839 844//844 845//845 
f 841//841 846//846 839//839 
f 843//843 847//847 835//835 
f 835//835 848//848 849//849 
f 839//839 850//850 851//851 
f 839//839 852//852 853//853 
f 839//839 854//854 844//844 
f 847//847 840//840 835//835 
f 848//848 855//855 849//849 
f 853//853 850//850 839//839 
f 846//846 854//854 839//839 
f 849//849 856//856 835//835 
f 857//857 858//858 855//855 
f 859//859 860//860 861//861 
f 859//859 862//862 863//863 
f 864//864 839//839 865//865 
f 845//845 852//852 839//839 
f 855//855 848//848 857//857 
f 866//866 861//861 858//858 
f 863//863 860//860 859//859 
f 862//862 867//867 868//868 
f 839//839 869//869 865//865 
f 839//839 870//870 871//871 
f 851//851 872//872 839//839 
f 858//858 857//857 866//866 
f 868//868 863//863 862//862 
f 839//839 873//873 869//869 
f 839//839 874//874 875//875 
f 872//872 870//870 839//839 
f 835//835 876//876 877//877 
f 861//861 866//866 859//859 
f 867//867 878//878 879//879 
f 878//878 880//880 881//881 
f 882//882 883//883 884//884 
f 882//882 885//885 886//886 
f 839//839 887//887 873//873 
f 871//871 874//874 839//839 
f 888//888 889//889 890//890 
f 856//856 876//876 835//835 
f 881//881 879//879 878//878 
f 882//882 891//891 892//892 
f 886//886 883//883 882//882 
f 882//882 893//893 894//894 
f 875//875 887//887 839//839 
f 890//890 895//895 888//888 
f 896//896 897//897 898//898 
f 879//879 868//868 867//867 
f 880//880 899//899 900//900 
f 892//892 901//901 882//882 
f 894//894 885//885 882//882 
f 865//865 902//902 903//903 
f 902//902 865//865 889//889 
f 897//897 896//896 895//895 
f 898//898 904//904 905//905 
f 900//900 881//881 880//880 
f 899//899 906//906 907//907 
f 884//884 891//891 882//882 
f 889//889 888//888 902//902 
f 898//898 905//905 896//896 
f 907//907 900//900 899//899 
f 901//901 908//908 882//882 
f 909//909 910//910 911//911 
f 909//909 882//882 912//912 
f 913//913 914//914 915//915 
f 916//916 917//917 918//918 
f 918//918 917//917 919//919 
f 920//920 919//919 921//921 
f 922//922 921//921 923//923 
f 839//839 864//864 924//924 
f 890//890 897//897 895//895 
f 877//877 925//925 835//835 
f 882//882 926//926 893//893 
f 912//912 910//910 909//909 
f 927//927 928//928 929//929 
f 927//927 930//930 931//931 
f 932//932 933//933 934//934 
f 935//935 936//936 937//937 
f 938//938 939//939 940//940 
f 941//941 942//942 943//943 
f 944//944 942//942 945//945 
f 946//946 947//947 944//944 
f 947//947 946//946 913//913 
f 914//914 916//916 948//948 
f 919//919 920//920 918//918 
f 923//923 924//924 922//922 
f 865//865 903//903 864//864 
f 835//835 949//949 950//950 
f 925//925 951//951 835//835 
f 952//952 953//953 909//909 
f 911//911 954//954 909//909 
f 955//955 956//956 904//904 
f 957//957 958//958 959//959 
f 957//957 960//960 961//961 
f 931//931 928//928 927//927 
f 932//932 962//962 933//933 
f 963//963 964//964 965//965 
f 966//966 967//967 963//963 
f 936//936 968//968 937//937 
f 969//969 970//970 936//936 
f 971//971 972//972 973//973 
f 974//974 975//975 976//976 
f 938//938 977//977 939//939 
f 938//938 974//974 978//978 
f 943//943 979//979 941//941 
f 944//944 980//980 946//946 
f 948//948 915//915 914//914 
f 921//921 922//922 920//920 
f 835//835 981//981 842//842 
f 950//950 982//982 835//835 
f 951//951 983//983 835//835 
f 984//984 953//953 952//952 
f 908//908 912//912 882//882 
f 904//904 985//985 986//986 
f 987//987 988//988 989//989 
f 987//987 990//990 991//991 
f 961//961 958//958 957//957 
f 930//930 992//992 931//931 
f 934//934 930//930 932//932 
f 963//963 993//993 964//964 
f 963//963 994//994 995//995 
f 966//966 996//996 997//997 
f 963//963 998//998 966//966 
f 936//936 999//999 968//968 
f 973//973 969//969 971//971 
f 975//975 972//972 971//971 
f 976//976 1000//1000 974//974 
f 978//978 977//977 938//938 
f 945//945 980//980 944//944 
f 918//918 948//948 916//916 
f 982//982 981//981 835//835 
f 983//983 1001//1001 835//835 
f 906//906 984//984 1002//1002 
f 909//909 954//954 952//952 
f 904//904 1003//1003 985//985 
f 987//987 1004//1004 1005//1005 
f 991//991 988//988 987//987 
f 957//957 1006//1006 960//960 
f 957//957 1005//1005 1007//1007 
f 1008//1008 1009//1009 1010//1010 
f 1008//1008 1011//1011 1012//1012 
f 987//987 1013//1013 1014//1014 
f 1015//1015 1016//1016 1014//1014 
f 934//934 992//992 930//930 
f 1017//1017 1018//1018 1019//1019 
f 995//995 993//993 963//963 
f 966//966 1020//1020 1021//1021 
f 998//998 996//996 966//966 
f 936//936 1022//1022 999//999 
f 971//971 976//976 975//975 
f 940//940 847//847 938//938 
f 943//943 1023//1023 1024//1024 
f 915//915 947//947 913//913 
f 1001//1001 949//949 835//835 
f 952//952 1002//1002 984//984 
f 904//904 1025//1025 1003//1003 
f 904//904 1026//1026 1027//1027 
f 989//989 1004//1004 987//987 
f 1007//1007 1006//1006 957//957 
f 1012//1012 1009//1009 1008//1008 
f 1014//1014 1013//1013 1015//1015 
f 1028//1028 1029//1029 1016//1016 
f 1030//1030 929//929 1029//1029 
f 932//932 1031//1031 962//962 
f 1017//1017 1032//1032 1018//1018 
f 1023//1023 963//963 1033//1033 
f 963//963 967//967 994//994 
f 997//997 1020//1020 966//966 
f 936//936 1034//1034 1022//1022 
f 1000//1000 978//978 974//974 
f 941//941 945//945 942//942 
f 1002//1002 907//907 906//906 
f 904//904 1035//1035 1025//1025 
f 904//904 898//898 1026//1026 
f 959//959 1008//1008 957//957 
f 1008//1008 959//959 1011//1011 
f 1016//1016 1015//1015 1028//1028 
f 929//929 1030//1030 927//927 
f 1036//1036 1037//1037 1038//1038 
f 1019//1019 1036//1036 1017//1017 
f 1023//1023 1039//1039 1040//1040 
f 1033//1033 1041//1041 1023//1023 
f 1021//1021 1042//1042 966//966 
f 936//936 970//970 1034//1034 
f 847//847 843//843 938//938 
f 924//924 923//923 839//839 
f 1027//1027 1035//1035 904//904 
f 1010//1010 1043//1043 1008//1008 
f 1029//1029 1028//1028 1030//1030 
f 1044//1044 1031//1031 932//932 
f 1019//1019 1037//1037 1036//1036 
f 1041//1041 1039//1039 1023//1023 
f 965//965 1045//1045 963//963 
f 936//936 971//971 969//969 
f 904//904 986//986 955//955 
f 1046//1046 1047//1047 966//966 
f 1048//1048 1049//1049 1050//1050 
f 1014//1014 990//990 987//987 
f 1038//1038 1044//1044 1036//1036 
f 1051//1051 1052//1052 1053//1053 
f 1054//1054 1055//1055 1056//1056 
f 1045//1045 1033//1033 963//963 
f 1024//1024 979//979 943//943 
f 1046//1046 1032//1032 1017//1017 
f 966//966 1042//1042 1057//1057 
f 1017//1017 1036//1036 1048//1048 
f 932//932 1036//1036 1044//1044 
f 1050//1050 1049//1049 1051//1051 
f 1051//1051 1049//1049 1054//1054 
f 937//937 1058//1058 935//935 
f 966//966 1057//1057 1046//1046 
f 1005//1005 957//957 987//987 
f 1056//1056 1051//1051 1054//1054 
f 1017//1017 1047//1047 1046//1046 
f 1053//1053 1050//1050 1051//1051 
f 1050//1050 1017//1017 1048//1048 
f 1059//1059 1056//1056 1055//1055 
f 1055//1055 1060//1060 1059//1059 
f 1040//1040 1024//1024 1023//1023 
o mesh208
v 0.00135441 0.00236127 8e-05 
v 0.00135441 0.00236127 0 
v 0.00139668 0.00236184 0 
v 0.00139668 0.00236184 8e-05 
vn 0.0134396 -0.99991 0 
vn 0.0134396 -0.99991 0 
vn 0.0134396 -0.99991 0 
vn 0.0134396 -0.99991 0 
f 1061//1061 1062//1062 1063//1063 
f 1063//1063 1064//1064 1061//1061 
o mesh209
v 0.00139668 0.00236184 0 
v 0.00179321 0.00236471 0 
v 0.00179321 0.00236471 8e-05 
v 0.00139668 0.00236184 8e-05 
vn 0.0173423 -0.99985 0 
vn -0.00289281 -0.999996 0 
vn -0.00289281 -0.999996 0 
vn 0.0173423 -0.99985 0 
f 1065//1065 1066//1066 1067//1067 
f 1067//1067 1068//1068 1065//1065 
o mesh210
v 0.00179321 0.00236471 0 
v 0.00307789 0.0023084 0 
v 0.00307789 0.0023084 8e-05 
v 0.00179321 0.00236471 8e-05 
vn -0.0234846 -0.999724 0 
vn -0.0640729 -0.997945 0 
vn -0.0640729 -0.997945 0 
vn -0.0234846 -0.999724 0 
f 1069//1069 1070//1070 1071//1071 
f 1071//1071 1072//1072 1069//1069 
