# OBJ generated by ONSHAPE BY PTC INC, 1.217 Units = meters
mtllib Central_CF.mtl
g Central_CF
usemtl 0.301961_0.301961_0.301961_0.000000_0.000000
o mesh1173
v 0.000875 -3e-05 3.25261e-19 
v 0.000875 3e-05 3.25261e-19 
v 0.00025 3e-05 0.009 
v 0.00025 -3e-05 0.009 
vn 0.997597 0 0.0692776 
vn 0.997597 0 0.0692776 
vn 0.997597 0 0.0692776 
vn 0.997597 0 0.0692776 
f 1//1 2//2 3//3 
f 3//3 4//4 1//1 
o mesh1174
v 0.00025 -3e-05 0.009 
v 0.00025 3e-05 0.009 
v 0.00025 3e-05 0.012 
v 0.00025 -3e-05 0.012 
vn 1 0 1.2649e-16 
vn 1 0 1.2649e-16 
vn 1 0 1.2649e-16 
vn 1 0 1.2649e-16 
f 5//5 6//6 7//7 
f 7//7 8//8 5//5 
o mesh1175
v 0.00025 -3e-05 0.012 
v 0.00025 3e-05 0.012 
v -0.00025 3e-05 0.012 
v -0.00025 -3e-05 0.012 
vn 0 0 1 
vn 0 0 1 
vn 0 0 1 
vn 0 0 1 
f 9//9 10//10 11//11 
f 11//11 12//12 9//9 
o mesh1176
v -0.00025 -3e-05 0.012 
v -0.00025 3e-05 0.012 
v -0.00025 3e-05 0.009 
v -0.00025 -3e-05 0.009 
vn -1 0 1.2649e-16 
vn -1 0 1.2649e-16 
vn -1 0 1.2649e-16 
vn -1 0 1.2649e-16 
f 13//13 14//14 15//15 
f 15//15 16//16 13//13 
o mesh1177
v -0.00025 -3e-05 0.009 
v -0.00025 3e-05 0.009 
v -0.000875 3e-05 3.25261e-19 
v -0.000875 -3e-05 3.25261e-19 
vn -0.997597 0 0.0692776 
vn -0.997597 0 0.0692776 
vn -0.997597 0 0.0692776 
vn -0.997597 0 0.0692776 
f 17//17 18//18 19//19 
f 19//19 20//20 17//17 
o mesh1178
v -0.000875 -3e-05 3.25261e-19 
v -0.000875 3e-05 3.25261e-19 
v -0.000875 3e-05 -0.0005 
v -0.000875 -3e-05 -0.0005 
vn -1 0 1.2649e-16 
vn -1 0 1.2649e-16 
vn -1 0 1.2649e-16 
vn -1 0 1.2649e-16 
f 21//21 22//22 23//23 
f 23//23 24//24 21//21 
o mesh1179
v -0.000875 -3e-05 -0.0005 
v -0.000875 3e-05 -0.0005 
v -0.0005 3e-05 -0.0005 
v -0.0005 -3e-05 -0.0005 
vn 0 0 -1 
vn 0 0 -1 
vn 0 0 -1 
vn 0 0 -1 
f 25//25 26//26 27//27 
f 27//27 28//28 25//25 
o mesh1180
v -0.0005 -3e-05 -0.0005 
v -0.0005 3e-05 -0.0005 
v -0.0005 3e-05 -0.0015 
v -0.0005 -3e-05 -0.0015 
vn -1 0 2.1684e-16 
vn -1 0 2.1684e-16 
vn -1 0 2.1684e-16 
vn -1 0 2.1684e-16 
f 29//29 30//30 31//31 
f 31//31 32//32 29//29 
o mesh1181
v -0.0005 -3e-05 -0.0015 
v -0.0005 3e-05 -0.0015 
v 0.0005 3e-05 -0.0015 
v 0.0005 -3e-05 -0.0015 
vn 0 0 -1 
vn 0 0 -1 
vn 0 0 -1 
vn 0 0 -1 
f 33//33 34//34 35//35 
f 35//35 36//36 33//33 
o mesh1182
v -0.000875 -3e-05 3.25261e-19 
v -0.000875 -3e-05 -0.0005 
v -0.0005 -3e-05 -0.0005 
v 0.000875 -3e-05 3.25261e-19 
v 0.00025 -3e-05 0.009 
v 0.0005 -3e-05 -0.0005 
v 0.0005 -3e-05 -0.0015 
v -0.00025 -3e-05 0.012 
v -0.00025 -3e-05 0.009 
v -0.0005 -3e-05 -0.0015 
v 0.00025 -3e-05 0.012 
v 0.000875 -3e-05 -0.0005 
vn 0 -1 0 
vn 0 -1 0 
vn 0 -1 0 
vn 0 -1 0 
vn 0 -1 0 
vn 0 -1 0 
vn 0 -1 0 
vn 0 -1 0 
vn 0 -1 0 
vn 0 -1 0 
vn 0 -1 0 
vn 0 -1 0 
f 37//37 38//38 39//39 
f 37//37 40//40 41//41 
f 40//40 39//39 42//42 
f 43//43 42//42 39//39 
f 44//44 45//45 41//41 
f 41//41 45//45 37//37 
f 39//39 46//46 43//43 
f 39//39 40//40 37//37 
f 41//41 47//47 44//44 
f 42//42 48//48 40//40 
o mesh1183
v 0.000875 3e-05 3.25261e-19 
v 0.000875 3e-05 -0.0005 
v 0.0005 3e-05 -0.0005 
v -0.000875 3e-05 3.25261e-19 
v -0.00025 3e-05 0.009 
v -0.0005 3e-05 -0.0005 
v -0.0005 3e-05 -0.0015 
v 0.00025 3e-05 0.012 
v 0.00025 3e-05 0.009 
v 0.0005 3e-05 -0.0015 
v -0.00025 3e-05 0.012 
v -0.000875 3e-05 -0.0005 
vn 0 1 0 
vn 0 1 0 
vn 0 1 0 
vn 0 1 0 
vn 0 1 0 
vn 0 1 0 
vn 0 1 0 
vn 0 1 0 
vn 0 1 0 
vn 0 1 0 
vn 0 1 0 
vn 0 1 0 
f 49//49 50//50 51//51 
f 49//49 52//52 53//53 
f 52//52 51//51 54//54 
f 55//55 54//54 51//51 
f 56//56 57//57 53//53 
f 53//53 57//57 49//49 
f 51//51 58//58 55//55 
f 51//51 52//52 49//49 
f 53//53 59//59 56//56 
f 54//54 60//60 52//52 
o mesh1184
v 0.0005 -3e-05 -0.0015 
v 0.0005 3e-05 -0.0015 
v 0.0005 3e-05 -0.0005 
v 0.0005 -3e-05 -0.0005 
vn 1 0 3.09772e-16 
vn 1 0 3.09772e-16 
vn 1 0 3.09772e-16 
vn 1 0 3.09772e-16 
f 61//61 62//62 63//63 
f 63//63 64//64 61//61 
o mesh1185
v 0.0005 -3e-05 -0.0005 
v 0.0005 3e-05 -0.0005 
v 0.000875 3e-05 -0.0005 
v 0.000875 -3e-05 -0.0005 
vn 0 0 -1 
vn 0 0 -1 
vn 0 0 -1 
vn 0 0 -1 
f 65//65 66//66 67//67 
f 67//67 68//68 65//65 
o mesh1186
v 0.000875 -3e-05 -0.0005 
v 0.000875 3e-05 -0.0005 
v 0.000875 3e-05 3.25261e-19 
v 0.000875 -3e-05 3.25261e-19 
vn 1 0 3.09772e-16 
vn 1 0 3.09772e-16 
vn 1 0 3.09772e-16 
vn 1 0 3.09772e-16 
f 69//69 70//70 71//71 
f 71//71 72//72 69//69 
