# OBJ generated by ONSHAPE BY PTC INC, 1.217 Units = meters
mtllib Part_12.mtl
g Part 12
usemtl 0.980392_0.713725_0.003922_0.000000_0.000000
o mesh1145
v -0.00025 0.000292 0.009 
v -0.00025 0.000277 0.009 
v -0.00025 0.000277 0.012 
v -0.00025 0.000292 0.012 
vn -1 0 1.2649e-16 
vn -1 0 1.2649e-16 
vn -1 0 1.2649e-16 
vn -1 0 1.2649e-16 
f 1//1 2//2 3//3 
f 3//3 4//4 1//1 
o mesh1146
v -0.00025 0.000292 0.012 
v -0.00025 0.000277 0.012 
v 0.00025 0.000277 0.012 
v 0.00025 0.000292 0.012 
vn 0 0 1 
vn 0 0 1 
vn 0 0 1 
vn 0 0 1 
f 5//5 6//6 7//7 
f 7//7 8//8 5//5 
o mesh1147
v 0.00025 0.000292 0.012 
v 0.00025 0.000277 0.012 
v 0.00025 0.000277 0.009 
v 0.00025 0.000292 0.009 
vn 1 0 1.2649e-16 
vn 1 0 1.2649e-16 
vn 1 0 1.2649e-16 
vn 1 0 1.2649e-16 
f 9//9 10//10 11//11 
f 11//11 12//12 9//9 
o mesh1148
v 0.00025 0.000292 0.009 
v 0.00025 0.000277 0.009 
v -0.00025 0.000277 0.009 
v -0.00025 0.000292 0.009 
vn 0 0 -1 
vn 0 0 -1 
vn 0 0 -1 
vn 0 0 -1 
f 13//13 14//14 15//15 
f 15//15 16//16 13//13 
o mesh1149
v 0.00025 0.000292 0.009 
v -0.00025 0.000292 0.009 
v -0.00025 0.000292 0.012 
v 0.00025 0.000292 0.012 
vn 0 1 0 
vn 0 1 0 
vn 0 1 0 
vn 0 1 0 
f 17//17 18//18 19//19 
f 19//19 20//20 17//17 
o mesh1150
v 0.00025 0.000277 0.012 
v -0.00025 0.000277 0.012 
v -0.00025 0.000277 0.009 
v 0.00025 0.000277 0.009 
vn 0 -1 0 
vn 0 -1 0 
vn 0 -1 0 
vn 0 -1 0 
f 21//21 22//22 23//23 
f 23//23 24//24 21//21 
