# OBJ generated by ONSHAPE BY PTC INC, 1.217 Units = meters
mtllib Part_9.mtl
g Part 9
usemtl 0.980392_0.713725_0.003922_0.000000_0.000000
o mesh1139
v 0.0005 -0.000292 -0.0015 
v 0.0005 -0.000277 -0.0015 
v 0.0005 -0.000277 -0.00085 
v 0.0005 -0.000292 -0.00085 
vn 1 0 1.668e-16 
vn 1 0 1.668e-16 
vn 1 0 1.668e-16 
vn 1 0 1.668e-16 
f 1//1 2//2 3//3 
f 3//3 4//4 1//1 
o mesh1140
v 0.0005 -0.000292 -0.00085 
v 0.0005 -0.000277 -0.00085 
v 0.00012 -0.000277 -0.00085 
v 0.00012 -0.000292 -0.00085 
vn 0 0 1 
vn 0 0 1 
vn 0 0 1 
vn 0 0 1 
f 5//5 6//6 7//7 
f 7//7 8//8 5//5 
o mesh1141
v 0.00012 -0.000292 -0.00085 
v 0.00012 -0.000277 -0.00085 
v 0.00012 -0.000277 -0.0015 
v 0.00012 -0.000292 -0.0015 
vn -1 0 0 
vn -1 0 0 
vn -1 0 0 
vn -1 0 0 
f 9//9 10//10 11//11 
f 11//11 12//12 9//9 
o mesh1142
v 0.00012 -0.000292 -0.0015 
v 0.00012 -0.000277 -0.0015 
v 0.0005 -0.000277 -0.0015 
v 0.0005 -0.000292 -0.0015 
vn 0 0 -1 
vn 0 0 -1 
vn 0 0 -1 
vn 0 0 -1 
f 13//13 14//14 15//15 
f 15//15 16//16 13//13 
o mesh1143
v 0.00012 -0.000292 -0.0015 
v 0.0005 -0.000292 -0.0015 
v 0.0005 -0.000292 -0.00085 
v 0.00012 -0.000292 -0.00085 
vn 0 -1 0 
vn 0 -1 0 
vn 0 -1 0 
vn 0 -1 0 
f 17//17 18//18 19//19 
f 19//19 20//20 17//17 
o mesh1144
v 0.00012 -0.000277 -0.00085 
v 0.0005 -0.000277 -0.00085 
v 0.0005 -0.000277 -0.0015 
v 0.00012 -0.000277 -0.0015 
vn 0 1 0 
vn 0 1 0 
vn 0 1 0 
vn 0 1 0 
f 21//21 22//22 23//23 
f 23//23 24//24 21//21 
