# OBJ generated by ONSHAPE BY PTC INC, 1.217 Units = meters
mtllib transmission_right_link_1.mtl
g transmission_right_link_1
usemtl 0.301961_0.301961_0.301961_0.000000_0.000000
o mesh888
v -0.000912206 7.49051e-05 0.000555387 
v -0.000912206 -0.000570095 0.000555387 
v -0.000912206 -0.000570095 0.000782387 
v -0.000912206 7.49051e-05 0.000782387 
vn -1 0 0 
vn -1 0 0 
vn -1 0 0 
vn -1 0 0 
f 1//1 2//2 3//3 
f 3//3 4//4 1//1 
o mesh889
v -0.000912206 7.49051e-05 0.000782387 
v -0.000857206 7.49051e-05 0.000782387 
v -0.000857206 7.49051e-05 0.000555387 
v -0.000912206 7.49051e-05 0.000555387 
vn 0 1 0 
vn 0 1 0 
vn 0 1 0 
vn 0 1 0 
f 5//5 6//6 7//7 
f 7//7 8//8 5//5 
o mesh890
v -0.000857206 0.000344905 0.000782387 
v -0.000857206 0.000344905 0.000555387 
v -0.000857206 7.49051e-05 0.000555387 
v -0.000857206 7.49051e-05 0.000782387 
vn -1 0 0 
vn -1 0 0 
vn -1 0 0 
vn -1 0 0 
f 9//9 10//10 11//11 
f 11//11 12//12 9//9 
o mesh891
v -0.000912206 0.000344905 0.000782387 
v -0.000912206 0.000344905 0.000555387 
v -0.000857206 0.000344905 0.000555387 
v -0.000857206 0.000344905 0.000782387 
vn 0 -1 0 
vn 0 -1 0 
vn 0 -1 0 
vn 0 -1 0 
f 13//13 14//14 15//15 
f 15//15 16//16 13//13 
o mesh892
v -0.000912206 0.000344905 0.000782387 
v -0.000912206 0.000989905 0.000782387 
v -0.000912206 0.000989905 0.000555387 
v -0.000912206 0.000344905 0.000555387 
vn -1 0 0 
vn -1 0 0 
vn -1 0 0 
vn -1 0 0 
f 17//17 18//18 19//19 
f 19//19 20//20 17//17 
o mesh893
v -0.000292459 0.000989905 0.000646387 
v -0.000362509 0.000989905 0.000646387 
v -0.000362509 0.000989905 0.000671387 
v -0.000912206 0.000989905 0.000782387 
v -0.000362509 0.000989905 0.000782387 
v -0.000912206 0.000989905 0.000555387 
v -0.000292459 0.000989905 0.000671387 
v -0.000362509 0.000989905 0.000555387 
vn 0 1 0 
vn 0 1 0 
vn 0 1 0 
vn 0 1 0 
vn 0 1 0 
vn 0 1 0 
vn 0 1 0 
vn 0 1 0 
f 21//21 22//22 23//23 
f 24//24 25//25 23//23 
f 26//26 24//24 22//22 
f 23//23 22//22 24//24 
f 23//23 27//27 21//21 
f 22//22 28//28 26//26 
o mesh894
v -0.000362509 0.000389905 0.000671387 
v -0.000292459 0.000389905 0.000671387 
v -0.000292459 0.000989905 0.000671387 
v -0.000362509 0.000989905 0.000671387 
vn 0 0 1 
vn 0 0 1 
vn 0 0 1 
vn 0 0 1 
f 29//29 30//30 31//31 
f 31//31 32//32 29//29 
o mesh895
v -0.000292459 0.000989905 0.000646387 
v -0.000292459 0.000389905 0.000646387 
v -0.000362509 0.000389905 0.000646387 
v -0.000362509 0.000989905 0.000646387 
vn 0 0 -1 
vn 0 0 -1 
vn 0 0 -1 
vn 0 0 -1 
f 33//33 34//34 35//35 
f 35//35 36//36 33//33 
o mesh896
v -0.000292459 0.000389905 0.000671387 
v -0.000362509 0.000389905 0.000671387 
v -0.000362509 0.000389905 0.000646387 
v -0.000292459 0.000389905 0.000646387 
vn 0 -1 0 
vn 0 -1 0 
vn 0 -1 0 
vn 0 -1 0 
f 37//37 38//38 39//39 
f 39//39 40//40 37//37 
o mesh897
v -0.000292459 0.000989905 0.000671387 
v -0.000292459 0.000389905 0.000671387 
v -0.000292459 0.000389905 0.000646387 
v -0.000292459 0.000989905 0.000646387 
vn 1 0 0 
vn 1 0 0 
vn 1 0 0 
vn 1 0 0 
f 41//41 42//42 43//43 
f 43//43 44//44 41//41 
o mesh898
v -0.000362509 2.99051e-05 0.000646387 
v -0.000362509 0.000389905 0.000646387 
v -0.000362509 0.000389905 0.000671387 
v -0.000362509 0.000989905 0.000555387 
v -0.000362509 0.000989905 0.000646387 
v -0.000362509 -0.000570095 0.000782387 
v -0.000362509 -0.000570095 0.000671387 
v -0.000362509 2.99051e-05 0.000671387 
v -0.000362509 -0.000570095 0.000555387 
v -0.000362509 0.000989905 0.000782387 
v -0.000362509 -0.000570095 0.000646387 
v -0.000362509 0.000989905 0.000671387 
vn 1 0 0 
vn 1 0 0 
vn 1 0 0 
vn 1 0 0 
vn 1 0 0 
vn 1 0 0 
vn 1 0 0 
vn 1 0 0 
vn 1 0 0 
vn 1 0 0 
vn 1 0 0 
vn 1 0 0 
f 45//45 46//46 47//47 
f 48//48 49//49 46//46 
f 46//46 45//45 48//48 
f 50//50 51//51 52//52 
f 53//53 48//48 45//45 
f 52//52 47//47 50//50 
f 54//54 50//50 47//47 
f 47//47 52//52 45//45 
f 45//45 55//55 53//53 
f 47//47 56//56 54//54 
o mesh899
v -0.000912206 -0.000570095 0.000782387 
v -0.000362509 -0.000570095 0.000646387 
v -0.000362509 -0.000570095 0.000671387 
v -0.000292459 -0.000570095 0.000646387 
v -0.000292459 -0.000570095 0.000671387 
v -0.000912206 -0.000570095 0.000555387 
v -0.000362509 -0.000570095 0.000555387 
v -0.000362509 -0.000570095 0.000782387 
vn 0 -1 0 
vn 0 -1 0 
vn 0 -1 0 
vn 0 -1 0 
vn 0 -1 0 
vn 0 -1 0 
vn 0 -1 0 
vn 0 -1 0 
f 57//57 58//58 59//59 
f 60//60 61//61 59//59 
f 59//59 58//58 60//60 
f 62//62 63//63 58//58 
f 58//58 57//57 62//62 
f 59//59 64//64 57//57 
o mesh900
v -0.000292459 2.99051e-05 0.000646387 
v -0.000292459 -0.000570095 0.000646387 
v -0.000362509 -0.000570095 0.000646387 
v -0.000362509 2.99051e-05 0.000646387 
vn 0 0 -1 
vn 0 0 -1 
vn 0 0 -1 
vn 0 0 -1 
f 65//65 66//66 67//67 
f 67//67 68//68 65//65 
o mesh901
v -0.000292459 2.99051e-05 0.000671387 
v -0.000362509 2.99051e-05 0.000671387 
v -0.000362509 -0.000570095 0.000671387 
v -0.000292459 -0.000570095 0.000671387 
vn 0 0 1 
vn 0 0 1 
vn 0 0 1 
vn 0 0 1 
f 69//69 70//70 71//71 
f 71//71 72//72 69//69 
o mesh902
v -0.000292459 2.99051e-05 0.000671387 
v -0.000292459 2.99051e-05 0.000646387 
v -0.000362509 2.99051e-05 0.000646387 
v -0.000362509 2.99051e-05 0.000671387 
vn 0 1 0 
vn 0 1 0 
vn 0 1 0 
vn 0 1 0 
f 73//73 74//74 75//75 
f 75//75 76//76 73//73 
o mesh903
v -0.000292459 2.99051e-05 0.000671387 
v -0.000292459 -0.000570095 0.000671387 
v -0.000292459 -0.000570095 0.000646387 
v -0.000292459 2.99051e-05 0.000646387 
vn 1 0 0 
vn 1 0 0 
vn 1 0 0 
vn 1 0 0 
f 77//77 78//78 79//79 
f 79//79 80//80 77//77 
o mesh904
v -0.000857206 7.49051e-05 0.000782387 
v -0.000741006 7.49051e-05 0.000782387 
v -0.000741006 0.000344905 0.000782387 
v -0.000362509 -0.000570095 0.000782387 
v -0.000601006 7.49051e-05 0.000782387 
v -0.000912206 -0.000570095 0.000782387 
v -0.000857206 0.000344905 0.000782387 
v -0.000912206 0.000989905 0.000782387 
v -0.000912206 0.000344905 0.000782387 
v -0.000601006 0.000344905 0.000782387 
v -0.000912206 7.49051e-05 0.000782387 
v -0.000362509 0.000989905 0.000782387 
vn 0 0 1 
vn 0 0 1 
vn 0 0 1 
vn 0 0 1 
vn 0 0 1 
vn 0 0 1 
vn 0 0 1 
vn 0 0 1 
vn 0 0 1 
vn 0 0 1 
vn 0 0 1 
vn 0 0 1 
f 81//81 82//82 83//83 
f 84//84 85//85 82//82 
f 86//86 84//84 81//81 
f 82//82 81//81 84//84 
f 83//83 87//87 81//81 
f 88//88 89//89 87//87 
f 88//88 83//83 90//90 
f 87//87 83//83 88//88 
f 81//81 91//91 86//86 
f 92//92 90//90 85//85 
f 85//85 84//84 92//92 
f 90//90 92//92 88//88 
o mesh905
v -0.000362509 -0.000570095 0.000555387 
v -0.000857206 7.49051e-05 0.000555387 
v -0.000741006 7.49051e-05 0.000555387 
v -0.000857206 0.000344905 0.000555387 
v -0.000741006 0.000344905 0.000555387 
v -0.000912206 0.000989905 0.000555387 
v -0.000362509 0.000989905 0.000555387 
v -0.000601006 0.000344905 0.000555387 
v -0.000601006 7.49051e-05 0.000555387 
v -0.000912206 -0.000570095 0.000555387 
v -0.000912206 7.49051e-05 0.000555387 
v -0.000912206 0.000344905 0.000555387 
vn 0 0 -1 
vn 0 0 -1 
vn 0 0 -1 
vn 0 0 -1 
vn 0 0 -1 
vn 0 0 -1 
vn 0 0 -1 
vn 0 0 -1 
vn 0 0 -1 
vn 0 0 -1 
vn 0 0 -1 
vn 0 0 -1 
f 93//93 94//94 95//95 
f 94//94 96//96 97//97 
f 98//98 97//97 96//96 
f 97//97 95//95 94//94 
f 98//98 99//99 100//100 
f 99//99 93//93 101//101 
f 95//95 101//101 93//93 
f 102//102 103//103 94//94 
f 101//101 100//100 99//99 
f 94//94 93//93 102//102 
f 96//96 104//104 98//98 
f 100//100 97//97 98//98 
o mesh906
v -0.000741006 0.000344905 0.000782387 
v -0.000741006 7.49051e-05 0.000782387 
v -0.000741006 7.49051e-05 0.000555387 
v -0.000741006 0.000344905 0.000555387 
vn 1 0 0 
vn 1 0 0 
vn 1 0 0 
vn 1 0 0 
f 105//105 106//106 107//107 
f 107//107 108//108 105//105 
o mesh907
v -0.000741006 7.49051e-05 0.000782387 
v -0.000601006 7.49051e-05 0.000782387 
v -0.000601006 7.49051e-05 0.000555387 
v -0.000741006 7.49051e-05 0.000555387 
vn 0 1 0 
vn 0 1 0 
vn 0 1 0 
vn 0 1 0 
f 109//109 110//110 111//111 
f 111//111 112//112 109//109 
o mesh908
v -0.000601006 0.000344905 0.000782387 
v -0.000601006 0.000344905 0.000555387 
v -0.000601006 7.49051e-05 0.000555387 
v -0.000601006 7.49051e-05 0.000782387 
vn -1 0 0 
vn -1 0 0 
vn -1 0 0 
vn -1 0 0 
f 113//113 114//114 115//115 
f 115//115 116//116 113//113 
o mesh909
v -0.000741006 0.000344905 0.000782387 
v -0.000741006 0.000344905 0.000555387 
v -0.000601006 0.000344905 0.000555387 
v -0.000601006 0.000344905 0.000782387 
vn 0 -1 0 
vn 0 -1 0 
vn 0 -1 0 
vn 0 -1 0 
f 117//117 118//118 119//119 
f 119//119 120//120 117//117 
