# OBJ generated by ONSHAPE BY PTC INC, 1.215 Units = meters
mtllib Part_1_1.mtl
g Part 1
usemtl 0.768627_0.886275_0.952941_0.000000_0.901961
o mesh86
v -0.00658713 0.0018872 1.5e-06 
v -0.00658713 0.0018872 0 
v -0.00655049 0.0021345 0 
v -0.00655049 0.0021345 1.5e-06 
vn 0.989203 -0.146549 0 
vn 0.989203 -0.146549 0 
vn 0.989203 -0.146549 0 
vn 0.989203 -0.146549 0 
f 1//1 2//2 3//3 
f 3//3 4//4 1//1 
o mesh87
v -0.00655049 0.0021345 1.5e-06 
v -0.00655049 0.0021345 0 
v -0.00679779 0.00217114 0 
v -0.00679779 0.00217114 1.5e-06 
vn 0.146549 0.989203 0 
vn 0.146549 0.989203 0 
vn 0.146549 0.989203 0 
vn 0.146549 0.989203 0 
f 5//5 6//6 7//7 
f 7//7 8//8 5//5 
o mesh88
v -0.00679779 0.00217114 1.5e-06 
v -0.00679779 0.00217114 0 
v -0.00683443 0.00192384 0 
v -0.00683443 0.00192384 1.5e-06 
vn -0.989203 0.146549 0 
vn -0.989203 0.146549 0 
vn -0.989203 0.146549 0 
vn -0.989203 0.146549 0 
f 9//9 10//10 11//11 
f 11//11 12//12 9//9 
o mesh89
v -0.00683443 0.00192384 1.5e-06 
v -0.00683443 0.00192384 0 
v -0.00645181 0.00163457 0 
v -0.00645181 0.00163457 1.5e-06 
vn -0.603082 -0.797679 0 
vn -0.603082 -0.797679 0 
vn -0.603082 -0.797679 0 
vn -0.603082 -0.797679 0 
f 13//13 14//14 15//15 
f 15//15 16//16 13//13 
o mesh90
v -0.00623784 0.00138573 0 
v -0.00621332 0.0013456 0 
v -0.00621332 0.0013456 1.5e-06 
v -0.00626397 0.00142485 0 
v -0.00623784 0.00138573 1.5e-06 
v -0.00629166 0.00146287 0 
v -0.00626397 0.00142485 1.5e-06 
v -0.00632086 0.00149975 0 
v -0.00629166 0.00146287 1.5e-06 
v -0.00635152 0.00153541 0 
v -0.00632086 0.00149975 1.5e-06 
v -0.00638361 0.0015698 0 
v -0.00635152 0.00153541 1.5e-06 
v -0.00641706 0.00160287 0 
v -0.00638361 0.0015698 1.5e-06 
v -0.00645181 0.00163457 0 
v -0.00641706 0.00160287 1.5e-06 
v -0.00645181 0.00163457 1.5e-06 
vn -0.842604 -0.538534 0 
vn -0.863684 -0.504034 0 
vn -0.863684 -0.504034 0 
vn -0.820147 -0.572154 0 
vn -0.842604 -0.538534 0 
vn -0.796348 -0.604838 0 
vn -0.820147 -0.572154 0 
vn -0.771249 -0.636534 0 
vn -0.796348 -0.604838 0 
vn -0.744888 -0.667189 0 
vn -0.771249 -0.636534 0 
vn -0.71731 -0.696754 0 
vn -0.744888 -0.667189 0 
vn -0.68856 -0.72518 0 
vn -0.71731 -0.696754 0 
vn -0.658684 -0.75242 0 
vn -0.68856 -0.72518 0 
vn -0.658684 -0.75242 0 
f 17//17 18//18 19//19 
f 20//20 17//17 21//21 
f 22//22 20//20 23//23 
f 24//24 22//22 25//25 
f 26//26 24//24 27//27 
f 28//28 26//26 29//29 
f 30//30 28//28 31//31 
f 32//32 30//30 33//33 
f 33//33 34//34 32//32 
f 31//31 33//33 30//30 
f 29//29 31//31 28//28 
f 27//27 29//29 26//26 
f 25//25 27//27 24//24 
f 23//23 25//25 22//22 
f 21//21 23//23 20//20 
f 19//19 21//21 17//17 
o mesh91
v -0.00604484 0.000907641 0 
v -0.0060133 0.000794538 0 
v -0.0060133 0.000794538 1.5e-06 
v -0.00608067 0.00101946 0 
v -0.00604484 0.000907641 1.5e-06 
v -0.00612073 0.00112983 0 
v -0.00608067 0.00101946 1.5e-06 
v -0.00616497 0.0012386 0 
v -0.00612073 0.00112983 1.5e-06 
v -0.00621332 0.0013456 0 
v -0.00616497 0.0012386 1.5e-06 
v -0.00621332 0.0013456 1.5e-06 
vn -0.957958 -0.286908 0 
vn -0.968197 -0.250188 0 
vn -0.968197 -0.250188 0 
vn -0.946327 -0.323211 0 
vn -0.957958 -0.286908 0 
vn -0.933321 -0.359044 0 
vn -0.946327 -0.323211 0 
vn -0.918958 -0.394356 0 
vn -0.933321 -0.359044 0 
vn -0.90326 -0.429094 0 
vn -0.918958 -0.394356 0 
vn -0.90326 -0.429094 0 
f 35//35 36//36 37//37 
f 38//38 35//35 39//39 
f 40//40 38//38 41//41 
f 42//42 40//40 43//43 
f 44//44 42//42 45//45 
f 45//45 46//46 44//44 
f 43//43 45//45 42//42 
f 41//41 43//43 40//40 
f 39//39 41//41 38//38 
f 37//37 39//39 35//35 
o mesh92
v -0.00595674 0.000590746 0 
v -0.00595674 0.000590746 1.5e-06 
v -0.0060133 0.000794538 1.5e-06 
v -0.0060133 0.000794538 0 
vn -0.961798 -0.27376 0 
vn -0.961798 -0.27376 0 
vn -0.96531 -0.261105 0 
vn -0.96531 -0.261105 0 
f 47//47 48//48 49//49 
f 49//49 50//50 47//47 
o mesh93
v -0.00567261 -0.000129279 0 
v -0.00567261 -0.000129279 1.5e-06 
v -0.00574126 9.77711e-06 1.5e-06 
v -0.00574126 9.77711e-06 0 
v -0.00580409 0.000151552 1.5e-06 
v -0.00580409 0.000151552 0 
v -0.00586102 0.000295804 1.5e-06 
v -0.00586102 0.000295804 0 
v -0.00591193 0.000442285 1.5e-06 
v -0.00591193 0.000442285 0 
v -0.00595674 0.000590746 1.5e-06 
v -0.00595674 0.000590746 0 
vn -0.887354 -0.461088 0 
vn -0.887354 -0.461088 0 
vn -0.905656 -0.424013 0 
vn -0.905656 -0.424013 0 
vn -0.92241 -0.386212 0 
vn -0.92241 -0.386212 0 
vn -0.937587 -0.347751 0 
vn -0.937587 -0.347751 0 
vn -0.951161 -0.308696 0 
vn -0.951161 -0.308696 0 
vn -0.963109 -0.269113 0 
vn -0.963109 -0.269113 0 
f 51//51 52//52 53//53 
f 54//54 53//53 55//55 
f 56//56 55//55 57//57 
f 58//58 57//57 59//59 
f 60//60 59//59 61//61 
f 61//61 62//62 60//60 
f 59//59 60//60 58//58 
f 57//57 58//58 56//56 
f 55//55 56//56 54//54 
f 53//53 54//54 51//51 
o mesh94
v -0.00497357 -0.00106607 0 
v -0.00497357 -0.00106607 1.5e-06 
v -0.00507652 -0.000961562 1.5e-06 
v -0.00507652 -0.000961562 0 
v -0.0051753 -0.000853114 1.5e-06 
v -0.0051753 -0.000853114 0 
v -0.00526977 -0.000740888 1.5e-06 
v -0.00526977 -0.000740888 0 
v -0.00535979 -0.000625056 1.5e-06 
v -0.00535979 -0.000625056 0 
v -0.00544521 -0.000505795 1.5e-06 
v -0.00544521 -0.000505795 0 
v -0.0055259 -0.000383286 1.5e-06 
v -0.0055259 -0.000383286 0 
v -0.00560174 -0.000257717 1.5e-06 
v -0.00560174 -0.000257717 0 
v -0.00567261 -0.000129279 1.5e-06 
v -0.00567261 -0.000129279 0 
vn -0.698535 -0.715576 0 
vn -0.698535 -0.715576 0 
vn -0.725968 -0.687728 0 
vn -0.725968 -0.687728 0 
vn -0.752292 -0.65883 0 
vn -0.752292 -0.65883 0 
vn -0.777467 -0.628924 0 
vn -0.777467 -0.628924 0 
vn -0.801453 -0.598058 0 
vn -0.801453 -0.598058 0 
vn -0.824215 -0.566278 0 
vn -0.824215 -0.566278 0 
vn -0.845717 -0.533632 0 
vn -0.845717 -0.533632 0 
vn -0.865927 -0.500171 0 
vn -0.865927 -0.500171 0 
vn -0.884813 -0.465946 0 
vn -0.884813 -0.465946 0 
f 63//63 64//64 65//65 
f 66//66 65//65 67//67 
f 68//68 67//67 69//69 
f 70//70 69//69 71//71 
f 72//72 71//71 73//73 
f 74//74 73//73 75//75 
f 76//76 75//75 77//77 
f 78//78 77//77 79//79 
f 79//79 80//80 78//78 
f 77//77 78//78 76//76 
f 75//75 76//76 74//74 
f 73//73 74//74 72//72 
f 71//71 72//72 70//70 
f 69//69 70//70 68//68 
f 67//67 68//68 66//66 
f 65//65 66//66 63//63 
o mesh95
v -0.00485548 -0.00117198 0 
v -0.00485548 -0.00117198 1.5e-06 
v -0.0048863 -0.00114698 1.5e-06 
v -0.0048863 -0.00114698 0 
v -0.00491627 -0.00112097 1.5e-06 
v -0.00491627 -0.00112097 0 
v -0.00494537 -0.00109399 1.5e-06 
v -0.00494537 -0.00109399 0 
v -0.00497357 -0.00106607 1.5e-06 
v -0.00497357 -0.00106607 0 
vn -0.617201 -0.786805 0 
vn -0.617201 -0.786805 0 
vn -0.642801 -0.766034 0 
vn -0.642801 -0.766034 0 
vn -0.667701 -0.744429 0 
vn -0.667701 -0.744429 0 
vn -0.691877 -0.722016 0 
vn -0.691877 -0.722016 0 
vn -0.7153 -0.698818 0 
vn -0.7153 -0.698818 0 
f 81//81 82//82 83//83 
f 84//84 83//83 85//85 
f 86//86 85//85 87//87 
f 88//88 87//87 89//89 
f 89//89 90//90 88//88 
f 87//87 88//88 86//86 
f 85//85 86//86 84//84 
f 83//83 84//84 81//81 
o mesh96
v -0.00329716 -0.00210678 0 
v -0.00329716 -0.00210678 1.5e-06 
v -0.00348572 -0.00203158 1.5e-06 
v -0.00348572 -0.00203158 0 
v -0.00367111 -0.00194887 1.5e-06 
v -0.00367111 -0.00194887 0 
v -0.00385302 -0.00185876 1.5e-06 
v -0.00385302 -0.00185876 0 
v -0.00403116 -0.00176142 1.5e-06 
v -0.00403116 -0.00176142 0 
v -0.00420525 -0.00165699 1.5e-06 
v -0.00420525 -0.00165699 0 
v -0.00437499 -0.00154565 1.5e-06 
v -0.00437499 -0.00154565 0 
v -0.00454012 -0.00142757 1.5e-06 
v -0.00454012 -0.00142757 0 
v -0.00470037 -0.00130295 1.5e-06 
v -0.00470037 -0.00130295 0 
v -0.00485548 -0.00117198 1.5e-06 
v -0.00485548 -0.00117198 0 
vn -0.351666 -0.936126 0 
vn -0.351666 -0.936126 0 
vn -0.389019 -0.92123 0 
vn -0.389019 -0.92123 0 
vn -0.425744 -0.904844 0 
vn -0.425744 -0.904844 0 
vn -0.46178 -0.886994 0 
vn -0.46178 -0.886994 0 
vn -0.49707 -0.867711 0 
vn -0.49707 -0.867711 0 
vn -0.531555 -0.847024 0 
vn -0.531555 -0.847024 0 
vn -0.565181 -0.824967 0 
vn -0.565181 -0.824967 0 
vn -0.597893 -0.801576 0 
vn -0.597893 -0.801576 0 
vn -0.629638 -0.776889 0 
vn -0.629638 -0.776889 0 
vn -0.660365 -0.750945 0 
vn -0.660365 -0.750945 0 
f 91//91 92//92 93//93 
f 94//94 93//93 95//95 
f 96//96 95//95 97//97 
f 98//98 97//97 99//99 
f 100//100 99//99 101//101 
f 102//102 101//101 103//103 
f 104//104 103//103 105//105 
f 106//106 105//105 107//107 
f 108//108 107//107 109//109 
f 109//109 110//110 108//108 
f 107//107 108//108 106//106 
f 105//105 106//106 104//104 
f 103//103 104//104 102//102 
f 101//101 102//102 100//100 
f 99//99 100//100 98//98 
f 97//97 98//98 96//96 
f 95//95 96//96 94//94 
f 93//93 94//94 91//91 
o mesh97
v -0.00157642 -0.00250876 0 
v -0.00157642 -0.00250876 1.5e-06 
v -0.0018696 -0.00247325 1.5e-06 
v -0.0018696 -0.00247325 0 
v -0.00216096 -0.002425 1.5e-06 
v -0.00216096 -0.002425 0 
v -0.00244995 -0.0023641 1.5e-06 
v -0.00244995 -0.0023641 0 
v -0.002736 -0.00229067 1.5e-06 
v -0.002736 -0.00229067 0 
v -0.00301858 -0.00220484 1.5e-06 
v -0.00301858 -0.00220484 0 
v -0.00329716 -0.00210678 1.5e-06 
v -0.00329716 -0.00210678 0 
vn -0.0985784 -0.995129 0 
vn -0.0985784 -0.995129 0 
vn -0.141844 -0.989889 0 
vn -0.141844 -0.989889 0 
vn -0.184841 -0.982768 0 
vn -0.184841 -0.982768 0 
vn -0.227486 -0.973781 0 
vn -0.227486 -0.973781 0 
vn -0.2697 -0.962944 0 
vn -0.2697 -0.962944 0 
vn -0.311401 -0.950279 0 
vn -0.311401 -0.950279 0 
vn -0.35251 -0.935808 0 
vn -0.35251 -0.935808 0 
f 111//111 112//112 113//113 
f 114//114 113//113 115//115 
f 116//116 115//115 117//117 
f 118//118 117//117 119//119 
f 120//120 119//119 121//121 
f 122//122 121//121 123//123 
f 123//123 124//124 122//122 
f 121//121 122//122 120//120 
f 119//119 120//120 118//118 
f 117//117 118//118 116//116 
f 115//115 116//116 114//114 
f 113//113 114//114 111//111 
o mesh98
v -1.36694e-05 -0.00252271 0 
v -1.36694e-05 -0.00252271 1.5e-06 
v -0.000325997 -0.00254306 1.5e-06 
v -0.000325997 -0.00254306 0 
v -0.000638864 -0.00255185 1.5e-06 
v -0.000638864 -0.00255185 0 
v -0.000951841 -0.00254906 1.5e-06 
v -0.000951841 -0.00254906 0 
v -0.0012645 -0.00253469 1.5e-06 
v -0.0012645 -0.00253469 0 
v -0.00157642 -0.00250876 1.5e-06 
v -0.00157642 -0.00250876 0 
vn 0.0834814 -0.996509 0 
vn 0.0834814 -0.996509 0 
vn 0.0465611 -0.998915 0 
vn 0.0465611 -0.998915 0 
vn 0.00957698 -0.999954 0 
vn 0.00957698 -0.999954 0 
vn -0.0274202 -0.999624 0 
vn -0.0274202 -0.999624 0 
vn -0.0643799 -0.997925 0 
vn -0.0643799 -0.997925 0 
vn -0.101251 -0.994861 0 
vn -0.101251 -0.994861 0 
f 125//125 126//126 127//127 
f 128//128 127//127 129//129 
f 130//130 129//129 131//131 
f 132//132 131//131 133//133 
f 134//134 133//133 135//135 
f 135//135 136//136 134//134 
f 133//133 134//134 132//132 
f 131//131 132//132 130//130 
f 129//129 130//130 128//128 
f 127//127 128//128 125//125 
o mesh99
v -1.36694e-05 -0.00252271 0 
v 0.00013983 -0.0025039 0 
v 0.00013983 -0.0025039 1.5e-06 
v -1.36694e-05 -0.00252271 1.5e-06 
vn 0.121615 -0.992577 0 
vn 0.121615 -0.992577 0 
vn 0.121615 -0.992577 0 
vn 0.121615 -0.992577 0 
f 137//137 138//138 139//139 
f 139//139 140//140 137//137 
o mesh100
v 0.00215324 -0.00211399 0 
v 0.00215324 -0.00211399 1.5e-06 
v 0.00165561 -0.00223922 1.5e-06 
v 0.00165561 -0.00223922 0 
v 0.00115372 -0.00234604 1.5e-06 
v 0.00115372 -0.00234604 0 
v 0.000648227 -0.00243431 1.5e-06 
v 0.000648227 -0.00243431 0 
v 0.00013983 -0.0025039 1.5e-06 
v 0.00013983 -0.0025039 0 
vn 0.261867 -0.965104 0 
vn 0.261867 -0.965104 0 
vn 0.22615 -0.974093 0 
vn 0.22615 -0.974093 0 
vn 0.190126 -0.98176 0 
vn 0.190126 -0.98176 0 
vn 0.153845 -0.988095 0 
vn 0.153845 -0.988095 0 
vn 0.117355 -0.99309 0 
vn 0.117355 -0.99309 0 
f 141//141 142//142 143//143 
f 144//144 143//143 145//145 
f 146//146 145//145 147//147 
f 148//148 147//147 149//149 
f 149//149 150//150 148//148 
f 147//147 148//148 146//146 
f 145//145 146//146 144//144 
f 143//143 144//144 141//141 
o mesh101
v 0.00383874 -0.00158141 0 
v 0.00383874 -0.00158141 1.5e-06 
v 0.00328336 -0.00177894 1.5e-06 
v 0.00328336 -0.00177894 0 
v 0.00272129 -0.00195655 1.5e-06 
v 0.00272129 -0.00195655 0 
v 0.00215324 -0.00211399 1.5e-06 
v 0.00215324 -0.00211399 0 
vn 0.351861 -0.936052 0 
vn 0.351861 -0.936052 0 
vn 0.318252 -0.948006 0 
vn 0.318252 -0.948006 0 
vn 0.284238 -0.958754 0 
vn 0.284238 -0.958754 0 
vn 0.249863 -0.968281 0 
vn 0.249863 -0.968281 0 
f 151//151 152//152 153//153 
f 154//154 153//153 155//155 
f 156//156 155//155 157//157 
f 157//157 158//158 156//156 
f 155//155 156//156 154//154 
f 153//153 154//154 151//151 
o mesh102
v 0.0045966 -0.00125529 0 
v 0.0045966 -0.00125529 1.5e-06 
v 0.00422089 -0.00142582 1.5e-06 
v 0.00422089 -0.00142582 0 
v 0.00383874 -0.00158141 1.5e-06 
v 0.00383874 -0.00158141 0 
vn 0.431175 -0.902268 0 
vn 0.431175 -0.902268 0 
vn 0.395274 -0.918563 0 
vn 0.395274 -0.918563 0 
vn 0.358758 -0.933431 0 
vn 0.358758 -0.933431 0 
f 159//159 160//160 161//161 
f 162//162 161//161 163//163 
f 163//163 164//164 162//162 
f 161//161 162//162 159//159 
o mesh103
v 0.0045966 -0.00125529 1.5e-06 
v 0.0045966 -0.00125529 0 
v 0.00472455 -0.00119303 0 
v 0.00472455 -0.00119303 1.5e-06 
vn 0.437555 -0.899192 0 
vn 0.437555 -0.899192 0 
vn 0.437555 -0.899192 0 
vn 0.437555 -0.899192 0 
f 165//165 166//166 167//167 
f 167//167 168//168 165//165 
o mesh104
v 0.00587454 -0.00044296 0 
v 0.00587454 -0.00044296 1.5e-06 
v 0.00572356 -0.000569119 1.5e-06 
v 0.00572356 -0.000569119 0 
v 0.00556774 -0.000689237 1.5e-06 
v 0.00556774 -0.000689237 0 
v 0.0054073 -0.000803127 1.5e-06 
v 0.0054073 -0.000803127 0 
v 0.0052425 -0.000910613 1.5e-06 
v 0.0052425 -0.000910613 0 
v 0.0050736 -0.00101153 1.5e-06 
v 0.0050736 -0.00101153 0 
v 0.00490086 -0.00110571 1.5e-06 
v 0.00490086 -0.00110571 0 
v 0.00472455 -0.00119303 1.5e-06 
v 0.00472455 -0.00119303 0 
vn 0.656197 -0.754589 0 
vn 0.656197 -0.754589 0 
vn 0.625982 -0.779837 0 
vn 0.625982 -0.779837 0 
vn 0.594797 -0.803876 0 
vn 0.594797 -0.803876 0 
vn 0.562689 -0.826669 0 
vn 0.562689 -0.826669 0 
vn 0.529709 -0.84818 0 
vn 0.529709 -0.84818 0 
vn 0.495907 -0.868376 0 
vn 0.495907 -0.868376 0 
vn 0.461337 -0.887225 0 
vn 0.461337 -0.887225 0 
vn 0.426051 -0.904699 0 
vn 0.426051 -0.904699 0 
f 169//169 170//170 171//171 
f 172//172 171//171 173//173 
f 174//174 173//173 175//175 
f 176//176 175//175 177//177 
f 178//178 177//177 179//179 
f 180//180 179//179 181//181 
f 182//182 181//181 183//183 
f 183//183 184//184 182//182 
f 181//181 182//182 180//180 
f 179//179 180//180 178//178 
f 177//177 178//178 176//176 
f 175//175 176//176 174//174 
f 173//173 174//174 172//172 
f 171//171 172//172 169//169 
o mesh105
v 0.00663482 0.000878648 0 
v 0.00663482 0.000878648 1.5e-06 
v 0.00661856 0.000788396 1.5e-06 
v 0.00661856 0.000788396 0 
v 0.00659844 0.000698925 1.5e-06 
v 0.00659844 0.000698925 0 
v 0.00657449 0.000610401 1.5e-06 
v 0.00657449 0.000610401 0 
v 0.00654676 0.000522988 1.5e-06 
v 0.00654676 0.000522988 0 
v 0.0065153 0.000436846 1.5e-06 
v 0.0065153 0.000436846 0 
v 0.00648017 0.000352136 1.5e-06 
v 0.00648017 0.000352136 0 
v 0.00644143 0.000269012 1.5e-06 
v 0.00644143 0.000269012 0 
v 0.00639916 0.00018763 1.5e-06 
v 0.00639916 0.00018763 0 
v 0.00635343 0.000108138 1.5e-06 
v 0.00635343 0.000108138 0 
v 0.00630433 3.06848e-05 1.5e-06 
v 0.00630433 3.06848e-05 0 
v 0.00625195 -4.45881e-05 1.5e-06 
v 0.00625195 -4.45881e-05 0 
v 0.00619638 -0.000117541 1.5e-06 
v 0.00619638 -0.000117541 0 
v 0.00613773 -0.00018804 1.5e-06 
v 0.00613773 -0.00018804 0 
v 0.0060761 -0.000255954 1.5e-06 
v 0.0060761 -0.000255954 0 
v 0.00601162 -0.000321158 1.5e-06 
v 0.00601162 -0.000321158 0 
v 0.00594439 -0.000383532 1.5e-06 
v 0.00594439 -0.000383532 0 
v 0.00587454 -0.00044296 1.5e-06 
v 0.00587454 -0.00044296 0 
vn 0.987735 -0.156142 0 
vn 0.987735 -0.156142 0 
vn 0.980115 -0.198429 0 
vn 0.980115 -0.198429 0 
vn 0.970687 -0.240349 0 
vn 0.970687 -0.240349 0 
vn 0.959466 -0.281825 0 
vn 0.959466 -0.281825 0 
vn 0.946474 -0.322781 0 
vn 0.946474 -0.322781 0 
vn 0.931734 -0.363142 0 
vn 0.931734 -0.363142 0 
vn 0.915274 -0.402831 0 
vn 0.915274 -0.402831 0 
vn 0.897125 -0.441777 0 
vn 0.897125 -0.441777 0 
vn 0.877319 -0.479908 0 
vn 0.877319 -0.479908 0 
vn 0.855893 -0.517152 0 
vn 0.855893 -0.517152 0 
vn 0.832888 -0.553442 0 
vn 0.832888 -0.553442 0 
vn 0.808344 -0.58871 0 
vn 0.808344 -0.58871 0 
vn 0.782309 -0.622891 0 
vn 0.782309 -0.622891 0 
vn 0.754828 -0.655922 0 
vn 0.754828 -0.655922 0 
vn 0.725955 -0.687742 0 
vn 0.725955 -0.687742 0 
vn 0.695741 -0.718293 0 
vn 0.695741 -0.718293 0 
vn 0.664243 -0.747517 0 
vn 0.664243 -0.747517 0 
vn 0.631518 -0.775361 0 
vn 0.631518 -0.775361 0 
f 185//185 186//186 187//187 
f 188//188 187//187 189//189 
f 190//190 189//189 191//191 
f 192//192 191//191 193//193 
f 194//194 193//193 195//195 
f 196//196 195//195 197//197 
f 198//198 197//197 199//199 
f 200//200 199//199 201//201 
f 202//202 201//201 203//203 
f 204//204 203//203 205//205 
f 206//206 205//205 207//207 
f 208//208 207//207 209//209 
f 210//210 209//209 211//211 
f 212//212 211//211 213//213 
f 214//214 213//213 215//215 
f 216//216 215//215 217//217 
f 218//218 217//217 219//219 
f 219//219 220//220 218//218 
f 217//217 218//218 216//216 
f 215//215 216//216 214//214 
f 213//213 214//214 212//212 
f 211//211 212//212 210//210 
f 209//209 210//210 208//208 
f 207//207 208//208 206//206 
f 205//205 206//206 204//204 
f 203//203 204//204 202//202 
f 201//201 202//202 200//200 
f 199//199 200//200 198//198 
f 197//197 198//198 196//196 
f 195//195 196//196 194//194 
f 193//193 194//194 192//192 
f 191//191 192//192 190//190 
f 189//189 190//190 188//188 
f 187//187 188//188 185//185 
o mesh106
v 0.00659 0.0011623 0 
v 0.00659 0.0011623 1.5e-06 
v 0.00659992 0.00113512 1.5e-06 
v 0.00659992 0.00113512 0 
v 0.00660867 0.00110753 1.5e-06 
v 0.00660867 0.00110753 0 
v 0.00661622 0.0010796 1.5e-06 
v 0.00661622 0.0010796 0 
v 0.00662257 0.00105137 1.5e-06 
v 0.00662257 0.00105137 0 
v 0.00662769 0.00102289 1.5e-06 
v 0.00662769 0.00102289 0 
v 0.0066316 0.000994216 1.5e-06 
v 0.0066316 0.000994216 0 
v 0.00663426 0.000965403 1.5e-06 
v 0.00663426 0.000965403 0 
v 0.00663569 0.000936502 1.5e-06 
v 0.00663569 0.000936502 0 
v 0.00663588 0.000907566 1.5e-06 
v 0.00663588 0.000907566 0 
v 0.00663482 0.000878648 1.5e-06 
v 0.00663482 0.000878648 0 
vn 0.931814 0.362936 0 
vn 0.931814 0.362936 0 
vn 0.946534 0.322603 0 
vn 0.946534 0.322603 0 
vn 0.95951 0.281674 0 
vn 0.95951 0.281674 0 
vn 0.970717 0.240226 0 
vn 0.970717 0.240226 0 
vn 0.980134 0.198336 0 
vn 0.980134 0.198336 0 
vn 0.987744 0.15608 0 
vn 0.987744 0.15608 0 
vn 0.993534 0.113536 0 
vn 0.993534 0.113536 0 
vn 0.997492 0.0707824 0 
vn 0.997492 0.0707824 0 
vn 0.999611 0.0278986 0 
vn 0.999611 0.0278986 0 
vn 0.999887 -0.0150366 0 
vn 0.999887 -0.0150366 0 
vn 0.99832 -0.0579441 0 
vn 0.99832 -0.0579441 0 
f 221//221 222//222 223//223 
f 224//224 223//223 225//225 
f 226//226 225//225 227//227 
f 228//228 227//227 229//229 
f 230//230 229//229 231//231 
f 232//232 231//231 233//233 
f 234//234 233//233 235//235 
f 236//236 235//235 237//237 
f 238//238 237//237 239//239 
f 240//240 239//239 241//241 
f 241//241 242//242 240//240 
f 239//239 240//240 238//238 
f 237//237 238//238 236//236 
f 235//235 236//236 234//234 
f 233//233 234//234 232//232 
f 231//231 232//232 230//230 
f 229//229 230//230 228//228 
f 227//227 228//228 226//226 
f 225//225 226//226 224//224 
f 223//223 224//224 221//221 
o mesh107
v 0.00645006 0.0013901 0 
v 0.00645006 0.0013901 1.5e-06 
v 0.00647721 0.00135463 1.5e-06 
v 0.00647721 0.00135463 0 
v 0.00650288 0.00131807 1.5e-06 
v 0.00650288 0.00131807 0 
v 0.00652703 0.0012805 1.5e-06 
v 0.00652703 0.0012805 0 
v 0.00654963 0.00124197 1.5e-06 
v 0.00654963 0.00124197 0 
v 0.00657063 0.00120255 1.5e-06 
v 0.00657063 0.00120255 0 
v 0.00659 0.0011623 1.5e-06 
v 0.00659 0.0011623 0 
vn 0.781511 0.623892 0 
vn 0.781511 0.623892 0 
vn 0.806394 0.591378 0 
vn 0.806394 0.591378 0 
vn 0.829926 0.557874 0 
vn 0.829926 0.557874 0 
vn 0.852066 0.523434 0 
vn 0.852066 0.523434 0 
vn 0.872778 0.488117 0 
vn 0.872778 0.488117 0 
vn 0.892027 0.451982 0 
vn 0.892027 0.451982 0 
vn 0.909781 0.415089 0 
vn 0.909781 0.415089 0 
f 243//243 244//244 245//245 
f 246//246 245//245 247//247 
f 248//248 247//247 249//249 
f 250//250 249//249 251//251 
f 252//252 251//251 253//253 
f 254//254 253//253 255//255 
f 255//255 256//256 254//254 
f 253//253 254//254 252//252 
f 251//251 252//252 250//250 
f 249//249 250//250 248//248 
f 247//247 248//248 246//246 
f 245//245 246//246 243//243 
o mesh108
v 0.00622515 0.0016305 0 
v 0.00622515 0.0016305 1.5e-06 
v 0.00627403 0.00158622 1.5e-06 
v 0.00627403 0.00158622 0 
v 0.00632104 0.00153996 1.5e-06 
v 0.00632104 0.00153996 0 
v 0.0063661 0.0014918 1.5e-06 
v 0.0063661 0.0014918 0 
v 0.00640913 0.00144182 1.5e-06 
v 0.00640913 0.00144182 0 
v 0.00645006 0.0013901 1.5e-06 
v 0.00645006 0.0013901 0 
vn 0.655874 0.754871 0 
vn 0.655874 0.754871 0 
vn 0.686505 0.727125 0 
vn 0.686505 0.727125 0 
vn 0.715963 0.698138 0 
vn 0.715963 0.698138 0 
vn 0.744199 0.667958 0 
vn 0.744199 0.667958 0 
vn 0.771163 0.636637 0 
vn 0.771163 0.636637 0 
vn 0.796811 0.604229 0 
vn 0.796811 0.604229 0 
f 257//257 258//258 259//259 
f 260//260 259//259 261//261 
f 262//262 261//261 263//263 
f 264//264 263//263 265//265 
f 266//266 265//265 267//267 
f 267//267 268//268 266//266 
f 265//265 266//266 264//264 
f 263//263 264//264 262//262 
f 261//261 262//262 260//260 
f 259//259 260//260 257//257 
o mesh109
v 0.00559155 0.00204328 0 
v 0.00559155 0.00204328 1.5e-06 
v 0.0056884 0.00199473 1.5e-06 
v 0.0056884 0.00199473 0 
v 0.00578336 0.00194259 1.5e-06 
v 0.00578336 0.00194259 0 
v 0.00587628 0.00188691 1.5e-06 
v 0.00587628 0.00188691 0 
v 0.00596705 0.00182777 1.5e-06 
v 0.00596705 0.00182777 0 
v 0.00605554 0.00176526 1.5e-06 
v 0.00605554 0.00176526 0 
v 0.00614161 0.00169948 1.5e-06 
v 0.00614161 0.00169948 0 
v 0.00622515 0.0016305 1.5e-06 
v 0.00622515 0.0016305 0 
vn 0.431188 0.902262 0 
vn 0.431188 0.902262 0 
vn 0.464802 0.885415 0 
vn 0.464802 0.885415 0 
vn 0.497759 0.867315 0 
vn 0.497759 0.867315 0 
vn 0.530012 0.84799 0 
vn 0.530012 0.84799 0 
vn 0.561516 0.827466 0 
vn 0.561516 0.827466 0 
vn 0.592226 0.805772 0 
vn 0.592226 0.805772 0 
vn 0.622099 0.782938 0 
vn 0.622099 0.782938 0 
vn 0.651093 0.758998 0 
vn 0.651093 0.758998 0 
f 269//269 270//270 271//271 
f 272//272 271//271 273//273 
f 274//274 273//273 275//275 
f 276//276 275//275 277//277 
f 278//278 277//277 279//279 
f 280//280 279//279 281//281 
f 282//282 281//281 283//283 
f 283//283 284//284 282//282 
f 281//281 282//282 280//280 
f 279//279 280//280 278//278 
f 277//277 278//278 276//276 
f 275//275 276//276 274//274 
f 273//273 274//274 272//272 
f 271//271 272//272 269//269 
o mesh110
v 0.00477014 0.0023607 0 
v 0.00477014 0.0023607 1.5e-06 
v 0.00498025 0.00229419 1.5e-06 
v 0.00498025 0.00229419 0 
v 0.00518743 0.00221903 1.5e-06 
v 0.00518743 0.00221903 0 
v 0.00539131 0.00213535 1.5e-06 
v 0.00539131 0.00213535 0 
v 0.00559155 0.00204328 1.5e-06 
v 0.00559155 0.00204328 0 
vn 0.281923 0.959437 0 
vn 0.281923 0.959437 0 
vn 0.321466 0.946921 0 
vn 0.321466 0.946921 0 
vn 0.360456 0.932776 0 
vn 0.360456 0.932776 0 
vn 0.398827 0.917026 0 
vn 0.398827 0.917026 0 
vn 0.436511 0.899699 0 
vn 0.436511 0.899699 0 
f 285//285 286//286 287//287 
f 288//288 287//287 289//289 
f 290//290 289//289 291//291 
f 292//292 291//291 293//293 
f 293//293 294//294 292//292 
f 291//291 292//292 290//290 
f 289//289 290//290 288//288 
f 287//287 288//288 285//285 
o mesh111
v 0.00431061 0.00248296 0 
v 0.00431061 0.00248296 1.5e-06 
v 0.0045413 0.00242532 1.5e-06 
v 0.0045413 0.00242532 0 
v 0.00477014 0.0023607 1.5e-06 
v 0.00477014 0.0023607 0 
vn 0.227638 0.973746 0 
vn 0.227638 0.973746 0 
vn 0.257112 0.966382 0 
vn 0.257112 0.966382 0 
vn 0.286349 0.958125 0 
vn 0.286349 0.958125 0 
f 295//295 296//296 297//297 
f 298//298 297//297 299//299 
f 299//299 300//300 298//298 
f 297//297 298//298 295//295 
o mesh112
v 0.00291026 0.00270283 0 
v 0.00291026 0.00270283 1.5e-06 
v 0.00326324 0.00266796 1.5e-06 
v 0.00326324 0.00266796 0 
v 0.00361464 0.00261964 1.5e-06 
v 0.00361464 0.00261964 0 
v 0.00396393 0.00255794 1.5e-06 
v 0.00396393 0.00255794 0 
v 0.00431061 0.00248296 1.5e-06 
v 0.00431061 0.00248296 0 
vn 0.0792902 0.996852 0 
vn 0.0792902 0.996852 0 
vn 0.117286 0.993098 0 
vn 0.117286 0.993098 0 
vn 0.15511 0.987897 0 
vn 0.15511 0.987897 0 
vn 0.192709 0.981256 0 
vn 0.192709 0.981256 0 
vn 0.230027 0.973184 0 
vn 0.230027 0.973184 0 
f 301//301 302//302 303//303 
f 304//304 303//303 305//305 
f 306//306 305//305 307//307 
f 308//308 307//307 309//309 
f 309//309 310//310 308//308 
f 307//307 308//308 306//306 
f 305//305 306//306 304//304 
f 303//303 304//304 301//301 
o mesh113
v 0.00161601 0.00275954 0 
v 0.00161601 0.00275954 1.5e-06 
v 0.00291026 0.00270283 1.5e-06 
v 0.00291026 0.00270283 0 
vn 0.0238403 0.999716 0 
vn 0.0238403 0.999716 0 
vn 0.063695 0.997969 0 
vn 0.063695 0.997969 0 
f 311//311 312//312 313//313 
f 313//313 314//314 311//311 
o mesh114
v 0.00161601 0.00275954 0 
v 0.000767674 0.00275447 0 
v 0.000767674 0.00275447 1.5e-06 
v 0.00161601 0.00275954 1.5e-06 
vn -0.00799252 0.999968 0 
vn -0.00394782 0.999992 0 
vn -0.00394782 0.999992 0 
vn -0.00799252 0.999968 0 
f 315//315 316//316 317//317 
f 317//317 318//318 315//315 
o mesh115
v 0.000767674 0.00275447 1.5e-06 
v 0.000767674 0.00275447 0 
v -0.00494144 0.00275448 0 
v -0.00494144 0.00275448 1.5e-06 
vn 4.59441e-07 1 0 
vn 4.59441e-07 1 0 
vn 4.59441e-07 1 0 
vn 4.59441e-07 1 0 
f 319//319 320//320 321//321 
f 321//321 322//322 319//319 
o mesh116
v -0.00523816 0.00266988 0 
v -0.00523816 0.00266988 1.5e-06 
v -0.00521909 0.00268154 1.5e-06 
v -0.00521909 0.00268154 0 
v -0.00519955 0.0026924 1.5e-06 
v -0.00519955 0.0026924 0 
v -0.00517957 0.00270243 1.5e-06 
v -0.00517957 0.00270243 0 
v -0.0051592 0.00271163 1.5e-06 
v -0.0051592 0.00271163 0 
v -0.00513845 0.00271996 1.5e-06 
v -0.00513845 0.00271996 0 
v -0.00511738 0.00272742 1.5e-06 
v -0.00511738 0.00272742 0 
v -0.00509602 0.002734 1.5e-06 
v -0.00509602 0.002734 0 
v -0.0050744 0.00273968 1.5e-06 
v -0.0050744 0.00273968 0 
v -0.00505256 0.00274445 1.5e-06 
v -0.00505256 0.00274445 0 
v -0.00503054 0.00274831 1.5e-06 
v -0.00503054 0.00274831 0 
v -0.00500838 0.00275124 1.5e-06 
v -0.00500838 0.00275124 0 
v -0.00498612 0.00275325 1.5e-06 
v -0.00498612 0.00275325 0 
v -0.00496379 0.00275433 1.5e-06 
v -0.00496379 0.00275433 0 
v -0.00494144 0.00275448 1.5e-06 
v -0.00494144 0.00275448 0 
vn -0.539462 0.84201 0 
vn -0.539462 0.84201 0 
vn -0.503872 0.863778 0 
vn -0.503872 0.863778 0 
vn -0.467406 0.884043 0 
vn -0.467406 0.884043 0 
vn -0.430126 0.902769 0 
vn -0.430126 0.902769 0 
vn -0.392097 0.919924 0 
vn -0.392097 0.919924 0 
vn -0.353386 0.935478 0 
vn -0.353386 0.935478 0 
vn -0.314059 0.949403 0 
vn -0.314059 0.949403 0 
vn -0.274187 0.961677 0 
vn -0.274187 0.961677 0 
vn -0.233837 0.972276 0 
vn -0.233837 0.972276 0 
vn -0.19308 0.981183 0 
vn -0.19308 0.981183 0 
vn -0.151986 0.988383 0 
vn -0.151986 0.988383 0 
vn -0.110629 0.993862 0 
vn -0.110629 0.993862 0 
vn -0.0690787 0.997611 0 
vn -0.0690787 0.997611 0 
vn -0.0274083 0.999624 0 
vn -0.0274083 0.999624 0 
vn 0.0143098 0.999898 0 
vn 0.0143098 0.999898 0 
f 323//323 324//324 325//325 
f 326//326 325//325 327//327 
f 328//328 327//327 329//329 
f 330//330 329//329 331//331 
f 332//332 331//331 333//333 
f 334//334 333//333 335//335 
f 336//336 335//335 337//337 
f 338//338 337//337 339//339 
f 340//340 339//339 341//341 
f 342//342 341//341 343//343 
f 344//344 343//343 345//345 
f 346//346 345//345 347//347 
f 348//348 347//347 349//349 
f 350//350 349//349 351//351 
f 351//351 352//352 350//350 
f 349//349 350//350 348//348 
f 347//347 348//348 346//346 
f 345//345 346//346 344//344 
f 343//343 344//344 342//342 
f 341//341 342//342 340//340 
f 339//339 340//340 338//338 
f 337//337 338//338 336//336 
f 335//335 336//336 334//334 
f 333//333 334//334 332//332 
f 331//331 332//332 330//330 
f 329//329 330//330 328//328 
f 327//327 328//328 326//326 
f 325//325 326//326 323//323 
o mesh117
v -0.00535227 0.00256583 0 
v -0.00535227 0.00256583 1.5e-06 
v -0.00533774 0.00258252 1.5e-06 
v -0.00533774 0.00258252 0 
v -0.00532259 0.00259864 1.5e-06 
v -0.00532259 0.00259864 0 
v -0.00530682 0.00261416 1.5e-06 
v -0.00530682 0.00261416 0 
v -0.00529047 0.00262907 1.5e-06 
v -0.00529047 0.00262907 0 
v -0.00527356 0.00264334 1.5e-06 
v -0.00527356 0.00264334 0 
v -0.00525611 0.00265695 1.5e-06 
v -0.00525611 0.00265695 0 
v -0.00523816 0.00266988 1.5e-06 
v -0.00523816 0.00266988 0 
vn -0.766728 0.641972 0 
vn -0.766728 0.641972 0 
vn -0.74151 0.670942 0 
vn -0.74151 0.670942 0 
vn -0.715198 0.698922 0 
vn -0.715198 0.698922 0 
vn -0.687831 0.725871 0 
vn -0.687831 0.725871 0 
vn -0.659449 0.75175 0 
vn -0.659449 0.75175 0 
vn -0.630094 0.776519 0 
vn -0.630094 0.776519 0 
vn -0.599809 0.800143 0 
vn -0.599809 0.800143 0 
vn -0.56864 0.822586 0 
vn -0.56864 0.822586 0 
f 353//353 354//354 355//355 
f 356//356 355//355 357//357 
f 358//358 357//357 359//359 
f 360//360 359//359 361//361 
f 362//362 361//361 363//363 
f 364//364 363//363 365//365 
f 366//366 365//365 367//367 
f 367//367 368//368 366//366 
f 365//365 366//366 364//364 
f 363//363 364//364 362//362 
f 361//361 362//362 360//360 
f 359//359 360//360 358//358 
f 357//357 358//358 356//356 
f 355//355 356//356 353//353 
o mesh118
v -0.00542137 0.0024118 0 
v -0.00542137 0.0024118 1.5e-06 
v -0.00541735 0.00242831 1.5e-06 
v -0.00541735 0.00242831 0 
v -0.00541266 0.00244465 1.5e-06 
v -0.00541266 0.00244465 0 
v -0.00540732 0.00246079 1.5e-06 
v -0.00540732 0.00246079 0 
v -0.00540132 0.00247669 1.5e-06 
v -0.00540132 0.00247669 0 
v -0.00539468 0.00249234 1.5e-06 
v -0.00539468 0.00249234 0 
v -0.00538741 0.0025077 1.5e-06 
v -0.00538741 0.0025077 0 
v -0.00537952 0.00252276 1.5e-06 
v -0.00537952 0.00252276 0 
v -0.00537102 0.00253748 1.5e-06 
v -0.00537102 0.00253748 0 
v -0.00536194 0.00255185 1.5e-06 
v -0.00536194 0.00255185 0 
v -0.00535227 0.00256583 1.5e-06 
v -0.00535227 0.00256583 0 
vn -0.976283 0.216498 0 
vn -0.976283 0.216498 0 
vn -0.966668 0.256032 0 
vn -0.966668 0.256032 0 
vn -0.955454 0.295141 0 
vn -0.955454 0.295141 0 
vn -0.942657 0.333762 0 
vn -0.942657 0.333762 0 
vn -0.928301 0.371831 0 
vn -0.928301 0.371831 0 
vn -0.912407 0.409284 0 
vn -0.912407 0.409284 0 
vn -0.895004 0.446059 0 
vn -0.895004 0.446059 0 
vn -0.876118 0.482096 0 
vn -0.876118 0.482096 0 
vn -0.855783 0.517335 0 
vn -0.855783 0.517335 0 
vn -0.834031 0.551718 0 
vn -0.834031 0.551718 0 
vn -0.810898 0.585187 0 
vn -0.810898 0.585187 0 
f 369//369 370//370 371//371 
f 372//372 371//371 373//373 
f 374//374 373//373 375//375 
f 376//376 375//375 377//377 
f 378//378 377//377 379//379 
f 380//380 379//379 381//381 
f 382//382 381//381 383//383 
f 384//384 383//383 385//385 
f 386//386 385//385 387//387 
f 388//388 387//387 389//389 
f 389//389 390//390 388//388 
f 387//387 388//388 386//386 
f 385//385 386//386 384//384 
f 383//383 384//384 382//382 
f 381//381 382//382 380//380 
f 379//379 380//380 378//378 
f 377//377 378//378 376//376 
f 375//375 376//376 374//374 
f 373//373 374//374 372//372 
f 371//371 372//372 369//369 
o mesh119
v -0.00547359 0.00230851 0 
v -0.005481 0.00229952 0 
v -0.005481 0.00229952 1.5e-06 
v -0.00546654 0.00231779 0 
v -0.00547359 0.00230851 1.5e-06 
v -0.00545987 0.00232735 0 
v -0.00546654 0.00231779 1.5e-06 
v -0.0054536 0.00233716 0 
v -0.00545987 0.00232735 1.5e-06 
v -0.00544772 0.00234722 0 
v -0.0054536 0.00233716 1.5e-06 
v -0.00544226 0.00235751 0 
v -0.00544772 0.00234722 1.5e-06 
v -0.00543721 0.00236802 0 
v -0.00544226 0.00235751 1.5e-06 
v -0.00543259 0.00237871 0 
v -0.00543721 0.00236802 1.5e-06 
v -0.0054284 0.00238959 0 
v -0.00543259 0.00237871 1.5e-06 
v -0.00542466 0.00240062 0 
v -0.0054284 0.00238959 1.5e-06 
v -0.00542137 0.0024118 0 
v -0.00542466 0.00240062 1.5e-06 
v -0.00542137 0.0024118 1.5e-06 
vn -0.784029 0.620724 0 
vn -0.758377 0.651816 0 
vn -0.758377 0.651816 0 
vn -0.808408 0.588623 0 
vn -0.784029 0.620724 0 
vn -0.831473 0.555565 0 
vn -0.808408 0.588623 0 
vn -0.853187 0.521605 0 
vn -0.831473 0.555565 0 
vn -0.873515 0.486798 0 
vn -0.853187 0.521605 0 
vn -0.892423 0.451199 0 
vn -0.873515 0.486798 0 
vn -0.909882 0.414867 0 
vn -0.892423 0.451199 0 
vn -0.925862 0.377862 0 
vn -0.909882 0.414867 0 
vn -0.940338 0.340242 0 
vn -0.925862 0.377862 0 
vn -0.953286 0.302069 0 
vn -0.940338 0.340242 0 
vn -0.964685 0.263406 0 
vn -0.953286 0.302069 0 
vn -0.964685 0.263406 0 
f 391//391 392//392 393//393 
f 394//394 391//391 395//395 
f 396//396 394//394 397//397 
f 398//398 396//396 399//399 
f 400//400 398//398 401//401 
f 402//402 400//400 403//403 
f 404//404 402//402 405//405 
f 406//406 404//404 407//407 
f 408//408 406//406 409//409 
f 410//410 408//408 411//411 
f 412//412 410//410 413//413 
f 413//413 414//414 412//412 
f 411//411 413//413 410//410 
f 409//409 411//411 408//408 
f 407//407 409//409 406//406 
f 405//405 407//407 404//404 
f 403//403 405//405 402//402 
f 401//401 403//403 400//400 
f 399//399 401//401 398//398 
f 397//397 399//399 396//396 
f 395//395 397//397 394//394 
f 393//393 395//395 391//391 
o mesh120
v -0.00553051 0.00219569 0 
v -0.00553051 0.00219569 1.5e-06 
v -0.00552903 0.00220388 1.5e-06 
v -0.00552903 0.00220388 0 
v -0.00552721 0.00221201 1.5e-06 
v -0.00552721 0.00221201 0 
v -0.00552507 0.00222006 1.5e-06 
v -0.00552507 0.00222006 0 
v -0.00552259 0.00222802 1.5e-06 
v -0.00552259 0.00222802 0 
v -0.00551979 0.00223586 1.5e-06 
v -0.00551979 0.00223586 0 
v -0.00551668 0.00224359 1.5e-06 
v -0.00551668 0.00224359 0 
v -0.00551325 0.00225118 1.5e-06 
v -0.00551325 0.00225118 0 
v -0.00550951 0.00225862 1.5e-06 
v -0.00550951 0.00225862 0 
v -0.00550547 0.0022659 1.5e-06 
v -0.00550547 0.0022659 0 
v -0.00550113 0.00227302 1.5e-06 
v -0.00550113 0.00227302 0 
v -0.00549651 0.00227995 1.5e-06 
v -0.00549651 0.00227995 0 
v -0.00549161 0.00228668 1.5e-06 
v -0.00549161 0.00228668 0 
v -0.00548644 0.00229321 1.5e-06 
v -0.00548644 0.00229321 0 
v -0.005481 0.00229952 1.5e-06 
v -0.005481 0.00229952 0 
vn -0.987483 0.157724 0 
vn -0.987483 0.157724 0 
vn -0.980202 0.198001 0 
vn -0.980202 0.198001 0 
vn -0.971278 0.237946 0 
vn -0.971278 0.237946 0 
vn -0.960728 0.277493 0 
vn -0.960728 0.277493 0 
vn -0.948568 0.316575 0 
vn -0.948568 0.316575 0 
vn -0.934818 0.355126 0 
vn -0.934818 0.355126 0 
vn -0.919503 0.393083 0 
vn -0.919503 0.393083 0 
vn -0.902647 0.430381 0 
vn -0.902647 0.430381 0 
vn -0.88428 0.466958 0 
vn -0.88428 0.466958 0 
vn -0.86443 0.502752 0 
vn -0.86443 0.502752 0 
vn -0.843133 0.537705 0 
vn -0.843133 0.537705 0 
vn -0.820423 0.571757 0 
vn -0.820423 0.571757 0 
vn -0.796339 0.604851 0 
vn -0.796339 0.604851 0 
vn -0.770921 0.636931 0 
vn -0.770921 0.636931 0 
vn -0.744211 0.667945 0 
vn -0.744211 0.667945 0 
f 415//415 416//416 417//417 
f 418//418 417//417 419//419 
f 420//420 419//419 421//421 
f 422//422 421//421 423//423 
f 424//424 423//423 425//425 
f 426//426 425//425 427//427 
f 428//428 427//427 429//429 
f 430//430 429//429 431//431 
f 432//432 431//431 433//433 
f 434//434 433//433 435//435 
f 436//436 435//435 437//437 
f 438//438 437//437 439//439 
f 440//440 439//439 441//441 
f 442//442 441//441 443//443 
f 443//443 444//444 442//442 
f 441//441 442//442 440//440 
f 439//439 440//440 438//438 
f 437//437 438//438 436//436 
f 435//435 436//436 434//434 
f 433//433 434//434 432//432 
f 431//431 432//432 430//430 
f 429//429 430//430 428//428 
f 427//427 428//428 426//426 
f 425//425 426//426 424//424 
f 423//423 424//424 422//422 
f 421//421 422//422 420//420 
f 419//419 420//420 418//418 
f 417//417 418//418 415//415 
o mesh121
v -0.00553051 0.00219569 1.5e-06 
v -0.00553051 0.00219569 0 
v -0.00556129 0.00198795 0 
v -0.00556129 0.00198795 1.5e-06 
vn -0.989203 0.146549 0 
vn -0.989203 0.146549 0 
vn -0.989203 0.146549 0 
vn -0.989203 0.146549 0 
f 445//445 446//446 447//447 
f 447//447 448//448 445//445 
o mesh122
v -0.00556129 0.00198795 1.5e-06 
v -0.00556129 0.00198795 0 
v -0.00580859 0.00202459 0 
v -0.00580859 0.00202459 1.5e-06 
vn 0.146549 0.989203 0 
vn 0.146549 0.989203 0 
vn 0.146549 0.989203 0 
vn 0.146549 0.989203 0 
f 449//449 450//450 451//451 
f 451//451 452//452 449//449 
o mesh123
v -0.00580859 0.00202459 1.5e-06 
v -0.00580859 0.00202459 0 
v -0.00584522 0.00177729 0 
v -0.00584522 0.00177729 1.5e-06 
vn -0.989203 0.146549 0 
vn -0.989203 0.146549 0 
vn -0.989203 0.146549 0 
vn -0.989203 0.146549 0 
f 453//453 454//454 455//455 
f 455//455 456//456 453//453 
o mesh124
v -0.00584522 0.00177729 1.5e-06 
v -0.00584522 0.00177729 0 
v -0.00609253 0.00181393 0 
v -0.00609253 0.00181393 1.5e-06 
vn 0.146549 0.989203 0 
vn 0.146549 0.989203 0 
vn 0.146549 0.989203 0 
vn 0.146549 0.989203 0 
f 457//457 458//458 459//459 
f 459//459 460//460 457//457 
o mesh125
v -0.00609253 0.00181393 1.5e-06 
v -0.00609253 0.00181393 0 
v -0.00602511 0.00226896 0 
v -0.00602511 0.00226896 1.5e-06 
vn 0.989203 -0.146549 0 
vn 0.989203 -0.146549 0 
vn 0.989203 -0.146549 0 
vn 0.989203 -0.146549 0 
f 461//461 462//462 463//463 
f 463//463 464//464 461//461 
o mesh126
v 0.00639916 0.00018763 1.5e-06 
v 0.00644143 0.000269012 1.5e-06 
v 0.00648017 0.000352136 1.5e-06 
v 0.0065153 0.000436846 1.5e-06 
v 0.00635343 0.000108138 1.5e-06 
v 0.00625195 -4.45881e-05 1.5e-06 
v 0.00630433 3.06848e-05 1.5e-06 
v 0.0060761 -0.000255954 1.5e-06 
v 0.00613773 -0.00018804 1.5e-06 
v 0.00587454 -0.00044296 1.5e-06 
v 0.00654676 0.000522988 1.5e-06 
v 0.00619638 -0.000117541 1.5e-06 
v 0.00594439 -0.000383532 1.5e-06 
v -0.00494144 0.00275448 1.5e-06 
v -0.00540132 0.00247669 1.5e-06 
v -0.00540732 0.00246079 1.5e-06 
v -0.00538741 0.0025077 1.5e-06 
v -0.00539468 0.00249234 1.5e-06 
v 0.00640913 0.00144182 1.5e-06 
v 0.0063661 0.0014918 1.5e-06 
v 0.00657449 0.000610401 1.5e-06 
v 0.00601162 -0.000321158 1.5e-06 
v -0.00595674 0.000590746 1.5e-06 
v -0.00544521 -0.000505795 1.5e-06 
v -0.00535979 -0.000625056 1.5e-06 
v 0.00645006 0.0013901 1.5e-06 
v 0.00659844 0.000698925 1.5e-06 
v -0.00526977 -0.000740888 1.5e-06 
v -0.00591193 0.000442285 1.5e-06 
v -0.00586102 0.000295804 1.5e-06 
v -0.00580409 0.000151552 1.5e-06 
v -0.00541266 0.00244465 1.5e-06 
v -0.00537102 0.00253748 1.5e-06 
v -0.00537952 0.00252276 1.5e-06 
v -0.00533774 0.00258252 1.5e-06 
v -0.00535227 0.00256583 1.5e-06 
v 0.00627403 0.00158622 1.5e-06 
v 0.00622515 0.0016305 1.5e-06 
v 0.00632104 0.00153996 1.5e-06 
v 0.00661856 0.000788396 1.5e-06 
v 0.00663482 0.000878648 1.5e-06 
v -0.0051753 -0.000853114 1.5e-06 
v -0.00560174 -0.000257717 1.5e-06 
v -0.0055259 -0.000383286 1.5e-06 
v -0.00574126 9.77711e-06 1.5e-06 
v -0.00567261 -0.000129279 1.5e-06 
v -0.00536194 0.00255185 1.5e-06 
v -0.00509602 0.002734 1.5e-06 
v -0.00511738 0.00272742 1.5e-06 
v -0.00513845 0.00271996 1.5e-06 
v 0.00587628 0.00188691 1.5e-06 
v 0.00578336 0.00194259 1.5e-06 
v 0.00605554 0.00176526 1.5e-06 
v 0.00596705 0.00182777 1.5e-06 
v 0.00663426 0.000965403 1.5e-06 
v 0.0066316 0.000994216 1.5e-06 
v -0.00604484 0.000907641 1.5e-06 
v -0.00454012 -0.00142757 1.5e-06 
v -0.00437499 -0.00154565 1.5e-06 
v 0.00013983 -0.0025039 1.5e-06 
v -0.00549651 0.00227995 1.5e-06 
v -0.00550113 0.00227302 1.5e-06 
v -0.0050744 0.00273968 1.5e-06 
v -0.0051592 0.00271163 1.5e-06 
v -0.00517957 0.00270243 1.5e-06 
v 0.00518743 0.00221903 1.5e-06 
v 0.00498025 0.00229419 1.5e-06 
v 0.00614161 0.00169948 1.5e-06 
v 0.00663569 0.000936502 1.5e-06 
v 0.00663588 0.000907566 1.5e-06 
v -0.00420525 -0.00165699 1.5e-06 
v -0.00633983 0.00185057 1.5e-06 
v -0.00635152 0.00153541 1.5e-06 
v -0.00632086 0.00149975 1.5e-06 
v -0.00553051 0.00219569 1.5e-06 
v -0.00216096 -0.002425 1.5e-06 
v -0.0018696 -0.00247325 1.5e-06 
v -0.00556129 0.00198795 1.5e-06 
v -0.00244995 -0.0023641 1.5e-06 
v -0.00550547 0.0022659 1.5e-06 
v -0.00550951 0.00225862 1.5e-06 
v -0.00549161 0.00228668 1.5e-06 
v -0.00544226 0.00235751 1.5e-06 
v -0.00544772 0.00234722 1.5e-06 
v 0.00215324 -0.00211399 1.5e-06 
v -0.00541735 0.00242831 1.5e-06 
v -0.00503054 0.00274831 1.5e-06 
v -0.00521909 0.00268154 1.5e-06 
v -0.00523816 0.00266988 1.5e-06 
v -0.00519955 0.0026924 1.5e-06 
v -0.00505256 0.00274445 1.5e-06 
v -0.00525611 0.00265695 1.5e-06 
v -0.00496379 0.00275433 1.5e-06 
v -0.00498612 0.00275325 1.5e-06 
v 0.00539131 0.00213535 1.5e-06 
v 0.00662769 0.00102289 1.5e-06 
v 0.00662257 0.00105137 1.5e-06 
v -0.00470037 -0.00130295 1.5e-06 
v -0.0060133 0.000794538 1.5e-06 
v -0.00491627 -0.00112097 1.5e-06 
v -0.0048863 -0.00114698 1.5e-06 
v -0.00497357 -0.00106607 1.5e-06 
v -0.00494537 -0.00109399 1.5e-06 
v -0.00507652 -0.000961562 1.5e-06 
v -0.00629166 0.00146287 1.5e-06 
v -0.00641706 0.00160287 1.5e-06 
v -0.00638361 0.0015698 1.5e-06 
v -0.00552721 0.00221201 1.5e-06 
v -0.00552903 0.00220388 1.5e-06 
v -0.00551325 0.00225118 1.5e-06 
v -0.00551668 0.00224359 1.5e-06 
v -0.0054536 0.00233716 1.5e-06 
v -0.00545987 0.00232735 1.5e-06 
v 0.00165561 -0.00223922 1.5e-06 
v 0.00272129 -0.00195655 1.5e-06 
v -0.00543259 0.00237871 1.5e-06 
v -0.00543721 0.00236802 1.5e-06 
v 0.00328336 -0.00177894 1.5e-06 
v -0.00532259 0.00259864 1.5e-06 
v -0.00500838 0.00275124 1.5e-06 
v 0.00431061 0.00248296 1.5e-06 
v 0.00396393 0.00255794 1.5e-06 
v 0.00559155 0.00204328 1.5e-06 
v 0.0056884 0.00199473 1.5e-06 
v 0.00657063 0.00120255 1.5e-06 
v 0.00654963 0.00124197 1.5e-06 
v 0.00661622 0.0010796 1.5e-06 
v 0.00660867 0.00110753 1.5e-06 
v -0.00403116 -0.00176142 1.5e-06 
v -0.00385302 -0.00185876 1.5e-06 
v -0.00485548 -0.00117198 1.5e-06 
v -0.000325997 -0.00254306 1.5e-06 
v -1.36694e-05 -0.00252271 1.5e-06 
v -0.0012645 -0.00253469 1.5e-06 
v -0.000951841 -0.00254906 1.5e-06 
v -0.00157642 -0.00250876 1.5e-06 
v -0.00552507 0.00222006 1.5e-06 
v -0.00551979 0.00223586 1.5e-06 
v -0.00552259 0.00222802 1.5e-06 
v -0.005481 0.00229952 1.5e-06 
v -0.00548644 0.00229321 1.5e-06 
v 0.00383874 -0.00158141 1.5e-06 
v -0.0054284 0.00238959 1.5e-06 
v 0.00422089 -0.00142582 1.5e-06 
v -0.00542466 0.00240062 1.5e-06 
v 0.00472455 -0.00119303 1.5e-06 
v 0.00490086 -0.00110571 1.5e-06 
v -0.00542137 0.0024118 1.5e-06 
v 0.0052425 -0.000910613 1.5e-06 
v -0.00530682 0.00261416 1.5e-06 
v 0.00361464 0.00261964 1.5e-06 
v 0.00650288 0.00131807 1.5e-06 
v 0.00647721 0.00135463 1.5e-06 
v 0.00652703 0.0012805 1.5e-06 
v 0.00659992 0.00113512 1.5e-06 
v 0.00659 0.0011623 1.5e-06 
v -0.00348572 -0.00203158 1.5e-06 
v -0.00612073 0.00112983 1.5e-06 
v -0.00608067 0.00101946 1.5e-06 
v -0.00645181 0.00163457 1.5e-06 
v -0.000638864 -0.00255185 1.5e-06 
v -0.00546654 0.00231779 1.5e-06 
v -0.00547359 0.00230851 1.5e-06 
v 0.000648227 -0.00243431 1.5e-06 
v 0.00115372 -0.00234604 1.5e-06 
v 0.0045966 -0.00125529 1.5e-06 
v 0.0050736 -0.00101153 1.5e-06 
v 0.0054073 -0.000803127 1.5e-06 
v -0.00529047 0.00262907 1.5e-06 
v 0.0045413 0.00242532 1.5e-06 
v 0.00477014 0.0023607 1.5e-06 
v 0.00572356 -0.000569119 1.5e-06 
v 0.00326324 0.00266796 1.5e-06 
v -0.00367111 -0.00194887 1.5e-06 
v -0.00616497 0.0012386 1.5e-06 
v -0.00621332 0.0013456 1.5e-06 
v -0.00626397 0.00142485 1.5e-06 
v 0.00556774 -0.000689237 1.5e-06 
v -0.00527356 0.00264334 1.5e-06 
v 0.00291026 0.00270283 1.5e-06 
v -0.00623784 0.00138573 1.5e-06 
v -0.00658713 0.0018872 1.5e-06 
v -0.00584522 0.00177729 1.5e-06 
v -0.00329716 -0.00210678 1.5e-06 
v -0.00301858 -0.00220484 1.5e-06 
v -0.00609253 0.00181393 1.5e-06 
v 0.000767674 0.00275447 1.5e-06 
v 0.00161601 0.00275954 1.5e-06 
v -0.00683443 0.00192384 1.5e-06 
v -0.00655049 0.0021345 1.5e-06 
v -0.00679779 0.00217114 1.5e-06 
v -0.00602511 0.00226896 1.5e-06 
v -0.002736 -0.00229067 1.5e-06 
v -0.00580859 0.00202459 1.5e-06 
v -0.00627241 0.0023056 1.5e-06 
vn 0 0 1 
vn 0 0 1 
vn 0 0 1 
vn 0 0 1 
vn 0 0 1 
vn 0 0 1 
vn 0 0 1 
vn 0 0 1 
vn 0 0 1 
vn 0 0 1 
vn 0 0 1 
vn 0 0 1 
vn 0 0 1 
vn 0 0 1 
vn 0 0 1 
vn 0 0 1 
vn 0 0 1 
vn 0 0 1 
vn 0 0 1 
vn 0 0 1 
vn 0 0 1 
vn 0 0 1 
vn 0 0 1 
vn 0 0 1 
vn 0 0 1 
vn 0 0 1 
vn 0 0 1 
vn 0 0 1 
vn 0 0 1 
vn 0 0 1 
vn 0 0 1 
vn 0 0 1 
vn 0 0 1 
vn 0 0 1 
vn 0 0 1 
vn 0 0 1 
vn 0 0 1 
vn 0 0 1 
vn 0 0 1 
vn 0 0 1 
vn 0 0 1 
vn 0 0 1 
vn 0 0 1 
vn 0 0 1 
vn 0 0 1 
vn 0 0 1 
vn 0 0 1 
vn 0 0 1 
vn 0 0 1 
vn 0 0 1 
vn 0 0 1 
vn 0 0 1 
vn 0 0 1 
vn 0 0 1 
vn 0 0 1 
vn 0 0 1 
vn 0 0 1 
vn 0 0 1 
vn 0 0 1 
vn 0 0 1 
vn 0 0 1 
vn 0 0 1 
vn 0 0 1 
vn 0 0 1 
vn 0 0 1 
vn 0 0 1 
vn 0 0 1 
vn 0 0 1 
vn 0 0 1 
vn 0 0 1 
vn 0 0 1 
vn 0 0 1 
vn 0 0 1 
vn 0 0 1 
vn 0 0 1 
vn 0 0 1 
vn 0 0 1 
vn 0 0 1 
vn 0 0 1 
vn 0 0 1 
vn 0 0 1 
vn 0 0 1 
vn 0 0 1 
vn 0 0 1 
vn 0 0 1 
vn 0 0 1 
vn 0 0 1 
vn 0 0 1 
vn 0 0 1 
vn 0 0 1 
vn 0 0 1 
vn 0 0 1 
vn 0 0 1 
vn 0 0 1 
vn 0 0 1 
vn 0 0 1 
vn 0 0 1 
vn 0 0 1 
vn 0 0 1 
vn 0 0 1 
vn 0 0 1 
vn 0 0 1 
vn 0 0 1 
vn 0 0 1 
vn 0 0 1 
vn 0 0 1 
vn 0 0 1 
vn 0 0 1 
vn 0 0 1 
vn 0 0 1 
vn 0 0 1 
vn 0 0 1 
vn 0 0 1 
vn 0 0 1 
vn 0 0 1 
vn 0 0 1 
vn 0 0 1 
vn 0 0 1 
vn 0 0 1 
vn 0 0 1 
vn 0 0 1 
vn 0 0 1 
vn 0 0 1 
vn 0 0 1 
vn 0 0 1 
vn 0 0 1 
vn 0 0 1 
vn 0 0 1 
vn 0 0 1 
vn 0 0 1 
vn 0 0 1 
vn 0 0 1 
vn 0 0 1 
vn 0 0 1 
vn 0 0 1 
vn 0 0 1 
vn 0 0 1 
vn 0 0 1 
vn 0 0 1 
vn 0 0 1 
vn 0 0 1 
vn 0 0 1 
vn 0 0 1 
vn 0 0 1 
vn 0 0 1 
vn 0 0 1 
vn 0 0 1 
vn 0 0 1 
vn 0 0 1 
vn 0 0 1 
vn 0 0 1 
vn 0 0 1 
vn 0 0 1 
vn 0 0 1 
vn 0 0 1 
vn 0 0 1 
vn 0 0 1 
vn 0 0 1 
vn 0 0 1 
vn 0 0 1 
vn 0 0 1 
vn 0 0 1 
vn 0 0 1 
vn 0 0 1 
vn 0 0 1 
vn 0 0 1 
vn 0 0 1 
vn 0 0 1 
vn 0 0 1 
vn 0 0 1 
vn 0 0 1 
vn 0 0 1 
vn 0 0 1 
vn 0 0 1 
vn 0 0 1 
vn 0 0 1 
vn 0 0 1 
vn 0 0 1 
vn 0 0 1 
vn 0 0 1 
vn 0 0 1 
vn 0 0 1 
vn 0 0 1 
vn 0 0 1 
vn 0 0 1 
vn 0 0 1 
vn 0 0 1 
vn 0 0 1 
vn 0 0 1 
vn 0 0 1 
vn 0 0 1 
vn 0 0 1 
vn 0 0 1 
vn 0 0 1 
vn 0 0 1 
f 465//465 466//466 467//467 
f 468//468 469//469 465//465 
f 468//468 470//470 471//471 
f 468//468 472//472 473//473 
f 474//474 468//468 475//475 
f 471//471 469//469 468//468 
f 473//473 476//476 468//468 
f 468//468 474//474 477//477 
f 478//478 479//479 480//480 
f 478//478 481//481 482//482 
f 474//474 483//483 484//484 
f 475//475 485//485 474//474 
f 476//476 470//470 468//468 
f 477//477 486//486 468//468 
f 487//487 488//488 489//489 
f 482//482 479//479 478//478 
f 474//474 490//490 483//483 
f 485//485 491//491 474//474 
f 486//486 472//472 468//468 
f 489//489 492//492 487//487 
f 493//493 494//494 495//495 
f 480//480 496//496 478//478 
f 478//478 497//497 498//498 
f 478//478 499//499 500//500 
f 474//474 501//501 502//502 
f 484//484 503//503 474//474 
f 474//474 504//504 505//505 
f 467//467 468//468 465//465 
f 492//492 506//506 487//487 
f 487//487 507//507 508//508 
f 487//487 509//509 510//510 
f 509//509 487//487 493//493 
f 498//498 481//481 478//478 
f 500//500 511//511 478//478 
f 512//512 513//513 514//514 
f 474//474 515//515 516//516 
f 474//474 517//517 518//518 
f 503//503 501//501 474//474 
f 474//474 519//519 520//520 
f 491//491 504//504 474//474 
f 521//521 522//522 523//523 
f 508//508 488//488 487//487 
f 495//495 509//509 493//493 
f 524//524 525//525 526//526 
f 511//511 497//497 478//478 
f 527//527 528//528 529//529 
f 528//528 527//527 512//512 
f 474//474 530//530 531//531 
f 518//518 515//515 474//474 
f 502//502 532//532 474//474 
f 474//474 533//533 519//519 
f 505//505 534//534 474//474 
f 523//523 535//535 521//521 
f 510//510 507//507 487//487 
f 536//536 537//537 538//538 
f 539//539 540//540 541//541 
f 539//539 542//542 543//543 
f 524//524 544//544 545//545 
f 524//524 546//546 525//525 
f 547//547 548//548 549//549 
f 496//496 550//550 478//478 
f 551//551 552//552 553//553 
f 514//514 528//528 512//512 
f 554//554 551//551 555//555 
f 556//556 557//557 558//558 
f 474//474 559//559 530//530 
f 532//532 517//517 474//474 
f 474//474 560//560 561//561 
f 534//534 533//533 474//474 
f 521//521 562//562 522//522 
f 563//563 564//564 565//565 
f 563//563 566//566 567//567 
f 506//506 568//568 487//487 
f 538//538 569//569 536//536 
f 536//536 570//570 571//571 
f 543//543 540//540 539//539 
f 524//524 572//572 573//573 
f 524//524 574//574 575//575 
f 526//526 544//544 524//524 
f 576//576 577//577 578//578 
f 549//549 579//579 547//547 
f 580//580 581//581 582//582 
f 478//478 583//583 499//499 
f 551//551 554//554 552//552 
f 555//555 527//527 554//554 
f 558//558 584//584 556//556 
f 474//474 585//585 586//586 
f 474//474 587//587 559//559 
f 516//516 588//588 474//474 
f 474//474 589//589 590//590 
f 474//474 591//591 592//592 
f 520//520 560//560 474//474 
f 521//521 593//593 594//594 
f 521//521 595//595 562//562 
f 567//567 564//564 563//563 
f 566//566 563//563 487//487 
f 571//571 537//537 536//536 
f 539//539 596//596 597//597 
f 539//539 598//598 599//599 
f 541//541 600//600 539//539 
f 524//524 601//601 572//572 
f 524//524 602//602 603//603 
f 545//545 574//574 524//524 
f 524//524 604//604 605//605 
f 548//548 576//576 549//549 
f 581//581 547//547 579//579 
f 582//582 606//606 580//580 
f 607//607 580//580 608//608 
f 609//609 610//610 611//611 
f 612//612 609//609 613//613 
f 478//478 614//614 583//583 
f 529//529 554//554 527//527 
f 556//556 478//478 557//557 
f 586//586 615//615 474//474 
f 588//588 587//587 474//474 
f 474//474 616//616 617//617 
f 590//590 618//618 474//474 
f 474//474 619//619 620//620 
f 561//561 591//591 474//474 
f 535//535 593//593 521//521 
f 568//568 566//566 487//487 
f 621//621 622//622 623//623 
f 536//536 624//624 570//570 
f 539//539 625//625 596//596 
f 600//600 598//598 539//539 
f 603//603 601//601 524//524 
f 605//605 546//546 524//524 
f 626//626 627//627 628//628 
f 577//577 626//626 629//629 
f 579//579 582//582 581//581 
f 608//608 630//630 607//607 
f 611//611 631//631 609//609 
f 609//609 607//607 630//630 
f 613//613 632//632 612//612 
f 478//478 633//633 614//614 
f 584//584 551//551 556//556 
f 474//474 634//634 585//585 
f 531//531 635//635 474//474 
f 618//618 616//616 474//474 
f 592//592 619//619 474//474 
f 636//636 474//474 637//637 
f 594//594 638//638 521//521 
f 595//595 521//521 563//563 
f 621//621 639//639 622//622 
f 621//621 536//536 640//640 
f 569//569 641//641 536//536 
f 599//599 625//625 539//539 
f 575//575 602//602 524//524 
f 629//629 578//578 577//577 
f 606//606 608//608 580//580 
f 630//630 610//610 609//609 
f 632//632 642//642 612//612 
f 478//478 643//643 633//633 
f 553//553 556//556 551//551 
f 635//635 634//634 474//474 
f 620//620 589//589 474//474 
f 637//637 644//644 636//636 
f 565//565 595//595 563//563 
f 640//640 639//639 621//621 
f 641//641 645//645 536//536 
f 624//624 536//536 646//646 
f 647//647 648//648 649//649 
f 647//647 650//650 621//621 
f 573//573 539//539 524//524 
f 627//627 604//604 524//524 
f 578//578 549//549 576//576 
f 642//642 636//636 612//612 
f 556//556 643//643 478//478 
f 612//612 636//636 651//651 
f 617//617 490//490 474//474 
f 644//644 652//652 636//636 
f 623//623 521//521 621//621 
f 646//646 653//653 624//624 
f 621//621 648//648 647//647 
f 524//524 628//628 627//627 
f 631//631 613//613 609//609 
f 651//651 478//478 612//612 
f 652//652 651//651 636//636 
f 654//654 655//655 653//653 
f 645//645 640//640 536//536 
f 536//536 650//650 656//656 
f 649//649 657//657 647//647 
f 542//542 658//658 647//647 
f 628//628 629//629 626//626 
f 615//615 637//637 474//474 
f 638//638 621//621 521//521 
f 650//650 536//536 621//621 
f 647//647 657//657 542//542 
f 550//550 612//612 478//478 
f 656//656 659//659 536//536 
f 597//597 524//524 539//539 
f 657//657 543//543 542//542 
f 653//653 646//646 654//654 
o mesh127
v 0.00639916 0.00018763 0 
v 0.0065153 0.000436846 0 
v 0.00648017 0.000352136 0 
v 0.00619638 -0.000117541 0 
v 0.00613773 -0.00018804 0 
v 0.00635343 0.000108138 0 
v 0.00630433 3.06848e-05 0 
v 0.00644143 0.000269012 0 
v 0.00625195 -4.45881e-05 0 
v 0.00594439 -0.000383532 0 
v 0.00657449 0.000610401 0 
v 0.00654676 0.000522988 0 
v 0.00663588 0.000907566 0 
v 0.00663482 0.000878648 0 
v 0.0060761 -0.000255954 0 
v 0.00601162 -0.000321158 0 
v 0.00659844 0.000698925 0 
v 0.00661856 0.000788396 0 
v 0.00587454 -0.00044296 0 
v 0.00614161 0.00169948 0 
v 0.00622515 0.0016305 0 
v -0.00591193 0.000442285 0 
v -0.00574126 9.77711e-06 0 
v -0.00580409 0.000151552 0 
v -0.00560174 -0.000257717 0 
v -0.00567261 -0.000129279 0 
v 0.00632104 0.00153996 0 
v 0.0063661 0.0014918 0 
v 0.00627403 0.00158622 0 
v 0.00013983 -0.0025039 0 
v -0.00550547 0.0022659 0 
v -0.00550113 0.00227302 0 
v -0.00595674 0.000590746 0 
v -0.00526977 -0.000740888 0 
v -0.00535979 -0.000625056 0 
v 0.00662769 0.00102289 0 
v 0.0066316 0.000994216 0 
v 0.00587628 0.00188691 0 
v 0.00596705 0.00182777 0 
v 0.0056884 0.00199473 0 
v 0.00578336 0.00194259 0 
v -0.00494144 0.00275448 0 
v -0.00540132 0.00247669 0 
v -0.00539468 0.00249234 0 
v -0.00541266 0.00244465 0 
v -0.00540732 0.00246079 0 
v -0.00549651 0.00227995 0 
v -0.00551325 0.00225118 0 
v -0.00550951 0.00225862 0 
v -0.00553051 0.00219569 0 
v -0.00216096 -0.002425 0 
v -0.00244995 -0.0023641 0 
v -0.00586102 0.000295804 0 
v -0.00544521 -0.000505795 0 
v -0.0055259 -0.000383286 0 
v -0.0051753 -0.000853114 0 
v 0.00663569 0.000936502 0 
v 0.00663426 0.000965403 0 
v 0.00640913 0.00144182 0 
v 0.00518743 0.00221903 0 
v 0.00539131 0.00213535 0 
v -0.00509602 0.002734 0 
v -0.0051592 0.00271163 0 
v -0.00513845 0.00271996 0 
v -0.00542137 0.0024118 0 
v -0.00541735 0.00242831 0 
v -0.00551979 0.00223586 0 
v -0.00551668 0.00224359 0 
v -0.00552903 0.00220388 0 
v -0.0018696 -0.00247325 0 
v -1.36694e-05 -0.00252271 0 
v -0.00507652 -0.000961562 0 
v -0.00604484 0.000907641 0 
v -0.00420525 -0.00165699 0 
v -0.00437499 -0.00154565 0 
v 0.00661622 0.0010796 0 
v 0.00662257 0.00105137 0 
v 0.00605554 0.00176526 0 
v 0.00559155 0.00204328 0 
v 0.00498025 0.00229419 0 
v -0.00511738 0.00272742 0 
v -0.0050744 0.00273968 0 
v -0.00519955 0.0026924 0 
v -0.00517957 0.00270243 0 
v -0.00533774 0.00258252 0 
v -0.00532259 0.00259864 0 
v -0.00538741 0.0025077 0 
v -0.00537952 0.00252276 0 
v -0.00549161 0.00228668 0 
v -0.00548644 0.00229321 0 
v -0.00552507 0.00222006 0 
v -0.00552259 0.00222802 0 
v -0.00552721 0.00221201 0 
v -0.00157642 -0.00250876 0 
v -0.000638864 -0.00255185 0 
v -0.000951841 -0.00254906 0 
v -0.000325997 -0.00254306 0 
v -0.0060133 0.000794538 0 
v -0.00491627 -0.00112097 0 
v -0.00494537 -0.00109399 0 
v -0.00454012 -0.00142757 0 
v 0.00659992 0.00113512 0 
v 0.00660867 0.00110753 0 
v 0.00652703 0.0012805 0 
v 0.00654963 0.00124197 0 
v 0.00477014 0.0023607 0 
v 0.00361464 0.00261964 0 
v 0.00396393 0.00255794 0 
v -0.00525611 0.00265695 0 
v -0.00498612 0.00275325 0 
v -0.00496379 0.00275433 0 
v -0.00505256 0.00274445 0 
v -0.00503054 0.00274831 0 
v -0.00523816 0.00266988 0 
v -0.00530682 0.00261416 0 
v -0.00544772 0.00234722 0 
v 0.00272129 -0.00195655 0 
v 0.00215324 -0.00211399 0 
v -0.0012645 -0.00253469 0 
v -0.00633983 0.00185057 0 
v -0.00629166 0.00146287 0 
v -0.00632086 0.00149975 0 
v -0.00497357 -0.00106607 0 
v -0.0048863 -0.00114698 0 
v -0.00403116 -0.00176142 0 
v -0.00367111 -0.00194887 0 
v -0.00385302 -0.00185876 0 
v 0.00657063 0.00120255 0 
v 0.00659 0.0011623 0 
v 0.00650288 0.00131807 0 
v 0.00645006 0.0013901 0 
v 0.00647721 0.00135463 0 
v 0.00326324 0.00266796 0 
v -0.00500838 0.00275124 0 
v -0.00521909 0.00268154 0 
v -0.00529047 0.00262907 0 
v -0.00536194 0.00255185 0 
v -0.00535227 0.00256583 0 
v -0.00537102 0.00253748 0 
v -0.00543259 0.00237871 0 
v 0.00383874 -0.00158141 0 
v 0.00328336 -0.00177894 0 
v -0.0054536 0.00233716 0 
v 0.00165561 -0.00223922 0 
v -0.00635152 0.00153541 0 
v -0.00638361 0.0015698 0 
v -0.00626397 0.00142485 0 
v -0.00485548 -0.00117198 0 
v 0.00572356 -0.000569119 0 
v 0.00291026 0.00270283 0 
v 0.0045413 0.00242532 0 
v 0.00431061 0.00248296 0 
v -0.00527356 0.00264334 0 
v 0.0054073 -0.000803127 0 
v 0.0052425 -0.000910613 0 
v -0.00542466 0.00240062 0 
v 0.0050736 -0.00101153 0 
v 0.00490086 -0.00110571 0 
v -0.0054284 0.00238959 0 
v 0.0045966 -0.00125529 0 
v 0.00422089 -0.00142582 0 
v -0.00543721 0.00236802 0 
v -0.00545987 0.00232735 0 
v 0.00115372 -0.00234604 0 
v -0.00546654 0.00231779 0 
v 0.000648227 -0.00243431 0 
v -0.00547359 0.00230851 0 
v -0.00556129 0.00198795 0 
v -0.00348572 -0.00203158 0 
v -0.00616497 0.0012386 0 
v -0.00621332 0.0013456 0 
v 0.00161601 0.00275954 0 
v 0.00556774 -0.000689237 0 
v 0.00472455 -0.00119303 0 
v -0.00544226 0.00235751 0 
v -0.005481 0.00229952 0 
v -0.00584522 0.00177729 0 
v -0.00329716 -0.00210678 0 
v -0.002736 -0.00229067 0 
v -0.00301858 -0.00220484 0 
v -0.00641706 0.00160287 0 
v -0.00623784 0.00138573 0 
v -0.00612073 0.00112983 0 
v -0.00608067 0.00101946 0 
v -0.00470037 -0.00130295 0 
v 0.000767674 0.00275447 0 
v -0.00645181 0.00163457 0 
v -0.00683443 0.00192384 0 
v -0.00658713 0.0018872 0 
v -0.00609253 0.00181393 0 
v -0.00627241 0.0023056 0 
v -0.00602511 0.00226896 0 
v -0.00655049 0.0021345 0 
v -0.00580859 0.00202459 0 
v -0.00679779 0.00217114 0 
vn 0 0 -1 
vn 0 0 -1 
vn 0 0 -1 
vn 0 0 -1 
vn 0 0 -1 
vn 0 0 -1 
vn 0 0 -1 
vn 0 0 -1 
vn 0 0 -1 
vn 0 0 -1 
vn 0 0 -1 
vn 0 0 -1 
vn 0 0 -1 
vn 0 0 -1 
vn 0 0 -1 
vn 0 0 -1 
vn 0 0 -1 
vn 0 0 -1 
vn 0 0 -1 
vn 0 0 -1 
vn 0 0 -1 
vn 0 0 -1 
vn 0 0 -1 
vn 0 0 -1 
vn 0 0 -1 
vn 0 0 -1 
vn 0 0 -1 
vn 0 0 -1 
vn 0 0 -1 
vn 0 0 -1 
vn 0 0 -1 
vn 0 0 -1 
vn 0 0 -1 
vn 0 0 -1 
vn 0 0 -1 
vn 0 0 -1 
vn 0 0 -1 
vn 0 0 -1 
vn 0 0 -1 
vn 0 0 -1 
vn 0 0 -1 
vn 0 0 -1 
vn 0 0 -1 
vn 0 0 -1 
vn 0 0 -1 
vn 0 0 -1 
vn 0 0 -1 
vn 0 0 -1 
vn 0 0 -1 
vn 0 0 -1 
vn 0 0 -1 
vn 0 0 -1 
vn 0 0 -1 
vn 0 0 -1 
vn 0 0 -1 
vn 0 0 -1 
vn 0 0 -1 
vn 0 0 -1 
vn 0 0 -1 
vn 0 0 -1 
vn 0 0 -1 
vn 0 0 -1 
vn 0 0 -1 
vn 0 0 -1 
vn 0 0 -1 
vn 0 0 -1 
vn 0 0 -1 
vn 0 0 -1 
vn 0 0 -1 
vn 0 0 -1 
vn 0 0 -1 
vn 0 0 -1 
vn 0 0 -1 
vn 0 0 -1 
vn 0 0 -1 
vn 0 0 -1 
vn 0 0 -1 
vn 0 0 -1 
vn 0 0 -1 
vn 0 0 -1 
vn 0 0 -1 
vn 0 0 -1 
vn 0 0 -1 
vn 0 0 -1 
vn 0 0 -1 
vn 0 0 -1 
vn 0 0 -1 
vn 0 0 -1 
vn 0 0 -1 
vn 0 0 -1 
vn 0 0 -1 
vn 0 0 -1 
vn 0 0 -1 
vn 0 0 -1 
vn 0 0 -1 
vn 0 0 -1 
vn 0 0 -1 
vn 0 0 -1 
vn 0 0 -1 
vn 0 0 -1 
vn 0 0 -1 
vn 0 0 -1 
vn 0 0 -1 
vn 0 0 -1 
vn 0 0 -1 
vn 0 0 -1 
vn 0 0 -1 
vn 0 0 -1 
vn 0 0 -1 
vn 0 0 -1 
vn 0 0 -1 
vn 0 0 -1 
vn 0 0 -1 
vn 0 0 -1 
vn 0 0 -1 
vn 0 0 -1 
vn 0 0 -1 
vn 0 0 -1 
vn 0 0 -1 
vn 0 0 -1 
vn 0 0 -1 
vn 0 0 -1 
vn 0 0 -1 
vn 0 0 -1 
vn 0 0 -1 
vn 0 0 -1 
vn 0 0 -1 
vn 0 0 -1 
vn 0 0 -1 
vn 0 0 -1 
vn 0 0 -1 
vn 0 0 -1 
vn 0 0 -1 
vn 0 0 -1 
vn 0 0 -1 
vn 0 0 -1 
vn 0 0 -1 
vn 0 0 -1 
vn 0 0 -1 
vn 0 0 -1 
vn 0 0 -1 
vn 0 0 -1 
vn 0 0 -1 
vn 0 0 -1 
vn 0 0 -1 
vn 0 0 -1 
vn 0 0 -1 
vn 0 0 -1 
vn 0 0 -1 
vn 0 0 -1 
vn 0 0 -1 
vn 0 0 -1 
vn 0 0 -1 
vn 0 0 -1 
vn 0 0 -1 
vn 0 0 -1 
vn 0 0 -1 
vn 0 0 -1 
vn 0 0 -1 
vn 0 0 -1 
vn 0 0 -1 
vn 0 0 -1 
vn 0 0 -1 
vn 0 0 -1 
vn 0 0 -1 
vn 0 0 -1 
vn 0 0 -1 
vn 0 0 -1 
vn 0 0 -1 
vn 0 0 -1 
vn 0 0 -1 
vn 0 0 -1 
vn 0 0 -1 
vn 0 0 -1 
vn 0 0 -1 
vn 0 0 -1 
vn 0 0 -1 
vn 0 0 -1 
vn 0 0 -1 
vn 0 0 -1 
vn 0 0 -1 
vn 0 0 -1 
vn 0 0 -1 
vn 0 0 -1 
vn 0 0 -1 
vn 0 0 -1 
vn 0 0 -1 
vn 0 0 -1 
vn 0 0 -1 
vn 0 0 -1 
vn 0 0 -1 
vn 0 0 -1 
vn 0 0 -1 
vn 0 0 -1 
vn 0 0 -1 
f 660//660 661//661 662//662 
f 661//661 663//663 664//664 
f 661//661 665//665 666//666 
f 662//662 667//667 660//660 
f 661//661 668//668 663//663 
f 660//660 665//665 661//661 
f 669//669 670//670 671//671 
f 669//669 672//672 673//673 
f 661//661 674//674 675//675 
f 666//666 668//668 661//661 
f 669//669 676//676 670//670 
f 673//673 677//677 669//669 
f 664//664 674//674 661//661 
f 677//677 676//676 669//669 
f 678//678 679//679 680//680 
f 681//681 682//682 683//683 
f 681//681 684//684 685//685 
f 671//671 661//661 669//669 
f 678//678 686//686 687//687 
f 680//680 688//688 678//678 
f 689//689 690//690 691//691 
f 685//685 682//682 681//681 
f 692//692 693//693 694//694 
f 675//675 669//669 661//661 
f 678//678 695//695 696//696 
f 688//688 686//686 678//678 
f 678//678 697//697 698//698 
f 678//678 699//699 700//700 
f 701//701 702//702 703//703 
f 701//701 704//704 705//705 
f 691//691 706//706 689//689 
f 689//689 707//707 708//708 
f 709//709 710//710 711//711 
f 683//683 712//712 681//681 
f 692//692 713//713 714//714 
f 692//692 715//715 693//693 
f 678//678 716//716 672//672 
f 696//696 717//717 678//678 
f 687//687 718//718 678//678 
f 700//700 697//697 678//678 
f 678//678 719//719 720//720 
f 721//721 722//722 723//723 
f 705//705 702//702 701//701 
f 701//701 724//724 725//725 
f 708//708 690//690 689//689 
f 689//689 726//726 727//727 
f 689//689 709//709 728//728 
f 709//709 729//729 710//710 
f 709//709 689//689 730//730 
f 714//714 684//684 692//692 
f 692//692 731//731 715//715 
f 732//732 733//733 734//734 
f 717//717 716//716 678//678 
f 678//678 735//735 736//736 
f 678//678 737//737 679//679 
f 678//678 738//738 699//699 
f 678//678 739//739 719//719 
f 723//723 740//740 721//721 
f 741//741 742//742 743//743 
f 701//701 744//744 745//745 
f 701//701 746//746 747//747 
f 725//725 704//704 701//701 
f 689//689 748//748 749//749 
f 727//727 707//707 689//689 
f 689//689 750//750 751//751 
f 728//728 752//752 689//689 
f 709//709 753//753 729//729 
f 709//709 754//754 755//755 
f 730//730 756//756 709//709 
f 694//694 713//713 692//692 
f 757//757 758//758 759//759 
f 734//734 760//760 732//732 
f 736//736 695//695 678//678 
f 678//678 761//761 762//762 
f 678//678 763//763 764//764 
f 698//698 737//737 678//678 
f 678//678 765//765 739//739 
f 678//678 766//766 767//767 
f 768//768 769//769 770//770 
f 742//742 741//741 771//771 
f 743//743 722//722 741//741 
f 772//772 768//768 773//773 
f 745//745 774//774 701//701 
f 703//703 746//746 701//701 
f 775//775 776//776 777//777 
f 706//706 748//748 689//689 
f 752//752 750//750 689//689 
f 709//709 778//778 753//753 
f 756//756 754//754 709//709 
f 779//779 780//780 781//781 
f 692//692 782//782 731//731 
f 757//757 783//783 758//758 
f 732//732 784//784 733//733 
f 732//732 785//785 786//786 
f 762//762 735//735 678//678 
f 678//678 787//787 788//788 
f 678//678 789//789 763//763 
f 678//678 790//790 791//791 
f 720//720 738//738 678//678 
f 678//678 792//792 766//766 
f 768//768 793//793 769//769 
f 721//721 741//741 722//722 
f 773//773 794//794 772//772 
f 774//774 795//795 701//701 
f 701//701 796//796 797//797 
f 747//747 798//798 701//701 
f 799//799 800//800 801//801 
f 777//777 802//802 775//775 
f 802//802 777//777 803//803 
f 751//751 726//726 689//689 
f 755//755 778//778 709//709 
f 779//779 804//804 805//805 
f 779//779 806//806 780//780 
f 681//681 692//692 684//684 
f 757//757 807//807 783//783 
f 786//786 784//784 732//732 
f 808//808 809//809 792//792 
f 788//788 761//761 678//678 
f 791//791 789//789 678//678 
f 678//678 810//810 765//765 
f 767//767 811//811 678//678 
f 768//768 772//772 793//793 
f 794//794 742//742 772//772 
f 795//795 812//812 701//701 
f 798//798 796//796 701//701 
f 724//724 813//813 814//814 
f 815//815 816//816 817//817 
f 818//818 819//819 820//820 
f 799//799 820//820 800//800 
f 821//821 801//801 776//776 
f 803//803 822//822 802//802 
f 822//822 803//803 823//823 
f 824//824 823//823 825//825 
f 826//826 825//825 689//689 
f 711//711 827//827 709//709 
f 781//781 804//804 779//779 
f 828//828 829//829 830//830 
f 759//759 782//782 757//757 
f 732//732 828//828 785//785 
f 808//808 831//831 809//809 
f 764//764 787//787 678//678 
f 811//811 810//810 678//678 
f 771//771 772//772 742//742 
f 797//797 744//744 701//701 
f 724//724 832//832 813//813 
f 815//815 833//833 819//819 
f 815//815 814//814 816//816 
f 801//801 821//821 799//799 
f 775//775 834//834 776//776 
f 825//825 826//826 824//824 
f 749//749 835//835 689//689 
f 836//836 837//837 828//828 
f 836//836 838//838 839//839 
f 805//805 840//840 779//779 
f 779//779 830//830 841//841 
f 828//828 842//842 829//829 
f 828//828 732//732 843//843 
f 692//692 757//757 782//782 
f 760//760 844//844 732//732 
f 808//808 845//845 831//831 
f 718//718 790//790 678//678 
f 724//724 701//701 845//845 
f 812//812 768//768 701//701 
f 724//724 808//808 832//832 
f 817//817 833//833 815//815 
f 776//776 834//834 821//821 
f 689//689 835//835 826//826 
f 839//839 837//837 836//836 
f 846//846 847//847 848//848 
f 841//841 806//806 779//779 
f 843//843 842//842 828//828 
f 844//844 807//807 732//732 
f 669//669 678//678 672//672 
f 770//770 701//701 768//768 
f 819//819 818//818 815//815 
f 823//823 824//824 822//822 
f 828//828 779//779 849//849 
f 779//779 850//850 851//851 
f 840//840 846//846 779//779 
f 757//757 732//732 807//807 
f 845//845 808//808 724//724 
f 820//820 799//799 818//818 
f 827//827 838//838 836//836 
f 851//851 849//849 779//779 
f 830//830 779//779 828//828 
f 814//814 815//815 724//724 
f 827//827 711//711 838//838 
f 848//848 779//779 846//846 
f 852//852 848//848 847//847 
f 836//836 853//853 827//827 
f 847//847 854//854 852//852 
f 828//828 849//849 836//836 
f 792//792 678//678 808//808 
o mesh128
v -0.00602511 0.00226896 1.5e-06 
v -0.00602511 0.00226896 0 
v -0.00627241 0.0023056 0 
v -0.00627241 0.0023056 1.5e-06 
vn 0.146549 0.989203 0 
vn 0.146549 0.989203 0 
vn 0.146549 0.989203 0 
vn 0.146549 0.989203 0 
f 855//855 856//856 857//857 
f 857//857 858//858 855//855 
o mesh129
v -0.00627241 0.0023056 1.5e-06 
v -0.00627241 0.0023056 0 
v -0.00633983 0.00185057 0 
v -0.00633983 0.00185057 1.5e-06 
vn -0.989203 0.146549 0 
vn -0.989203 0.146549 0 
vn -0.989203 0.146549 0 
vn -0.989203 0.146549 0 
f 859//859 860//860 861//861 
f 861//861 862//862 859//859 
o mesh130
v -0.00633983 0.00185057 1.5e-06 
v -0.00633983 0.00185057 0 
v -0.00658713 0.0018872 0 
v -0.00658713 0.0018872 1.5e-06 
vn 0.146549 0.989203 0 
vn 0.146549 0.989203 0 
vn 0.146549 0.989203 0 
vn 0.146549 0.989203 0 
f 863//863 864//864 865//865 
f 865//865 866//866 863//863 
