# OBJ generated by ONSHAPE BY PTC INC, 1.216 Units = meters
mtllib hinge_right_wing.mtl
g hinge_right_wing
usemtl 0.301961_0.301961_0.301961_0.000000_0.000000
o mesh415
v 0.000568673 -0.000319629 4.69679e-05 
v 0.000577235 -0.000191545 3.92783e-05 
v 0.000578687 -0.000320506 4.69679e-05 
v 0.00057368 -0.000445436 4.69679e-05 
vn 0 0 -1 
vn 0 0 -1 
vn 0 0 -1 
vn 0 0 -1 
f 1//1 2//2 3//3 
f 3//3 4//4 1//1 
o mesh416
v 0.000568673 -0.000445366 6.19679e-05 
v 0.000577235 -0.000191545 3.92783e-05 
v 0.000568673 -0.000319629 4.69679e-05 
v 0.00057368 -0.000445436 4.69679e-05 
vn -1 0 0 
vn -1 0 0 
vn -1 0 0 
vn -1 0 0 
f 5//5 6//6 7//7 
f 7//7 8//8 5//5 
o mesh417
v 0.00057368 -0.000445436 4.69679e-05 
v 0.00082368 -0.000445429 4.69679e-05 
v 0.000818658 -0.000445352 6.19679e-05 
v 0.000568673 -0.000445366 6.19679e-05 
vn 0 -1 0 
vn 0 -1 0 
vn 0 -1 0 
vn 0 -1 0 
f 9//9 10//10 11//11 
f 11//11 12//12 9//9 
o mesh418
v 0.000578687 -0.000445436 2.19679e-05 
v 0.00057368 -0.000445436 4.69679e-05 
v 0.000578687 -0.000320506 4.69679e-05 
v 0.000577235 -0.000191545 3.92783e-05 
vn -1 0 0 
vn -1 0 0 
vn -1 0 0 
vn -1 0 0 
f 13//13 14//14 15//15 
f 15//15 16//16 13//13 
o mesh419
v 0.000568673 -0.000445366 6.19679e-05 
v 0.000818658 -0.000445352 6.19679e-05 
v 0.000578673 -0.000435323 6.19679e-05 
v 0.000818688 -0.000435499 6.19679e-05 
v 0.000577235 -0.000191545 3.92783e-05 
vn 0 0 1 
vn 0 0 1 
vn 0 0 1 
vn 0 0 1 
vn 0 0 1 
f 17//17 18//18 19//19 
f 18//18 20//20 19//19 
f 19//19 21//21 17//17 
o mesh420
v 0.000578673 -0.000185506 0.000151968 
v 0.000577235 -0.000191545 3.92783e-05 
v 0.000578673 -0.000435323 6.19679e-05 
v 0.000578673 -0.000435323 0.000151968 
vn -1 0 0 
vn -1 0 0 
vn -1 0 0 
vn -1 0 0 
f 22//22 23//23 24//24 
f 24//24 25//25 22//22 
o mesh421
v 0.000578673 -0.000435323 0.000151968 
v 0.000578673 -0.000435323 6.19679e-05 
v 0.000818688 -0.000435499 6.19679e-05 
v 0.000828702 -0.000435506 0.000151968 
v 0.000828702 -0.000435506 6.19679e-05 
vn -0.000730893 -1 0 
vn -0.000730893 -1 0 
vn -0.000730893 -1 0 
vn -0.000730893 -1 0 
vn -0.000730893 -1 0 
f 26//26 27//27 28//28 
f 28//28 29//29 26//26 
f 28//28 30//30 29//29 
o mesh422
v 0.000828702 6.44869e-05 6.19679e-05 
v 0.000828702 -0.000435506 6.19679e-05 
v 0.000818688 -0.000435499 6.19679e-05 
v 0.000818688 6.44869e-05 6.19679e-05 
vn 0 0 -1 
vn 0 0 -1 
vn 0 0 -1 
vn 0 0 -1 
f 31//31 32//32 33//33 
f 33//33 34//34 31//31 
o mesh423
v 0.000818688 6.44869e-05 4.69679e-05 
v 0.000818688 6.44869e-05 6.19679e-05 
v 0.000818688 -0.000435499 6.19679e-05 
v 0.00082368 -0.000445429 4.69679e-05 
v 0.000818658 -0.000445352 6.19679e-05 
vn 1 0 0 
vn 1 0 0 
vn 1 0 0 
vn 1 0 0 
vn 1 0 0 
f 35//35 36//36 37//37 
f 37//37 38//38 35//35 
f 37//37 39//39 38//38 
o mesh424
v 0.000828702 6.44869e-05 4.69679e-05 
v 0.000818688 6.44869e-05 4.69679e-05 
v 0.00082368 -0.000445429 4.69679e-05 
vn 0 0 1 
vn 0 0 1 
vn 0 0 1 
f 40//40 41//41 42//42 
o mesh425
v 0.000828702 6.44869e-05 2.19679e-05 
v 0.000828702 6.44869e-05 4.69679e-05 
v 0.00082368 -0.000445429 4.69679e-05 
v 0.000828702 -0.000445506 2.19679e-05 
vn 1 0 0 
vn 1 0 0 
vn 1 0 0 
vn 1 0 0 
f 43//43 44//44 45//45 
f 45//45 46//46 43//43 
o mesh426
v 0.00057368 -0.000445436 4.69679e-05 
v 0.000578687 -0.000445436 2.19679e-05 
v 0.000818666 -0.000445436 2.19679e-05 
v 0.00082368 -0.000445429 4.69679e-05 
v 0.000828702 -0.000445506 2.19679e-05 
vn 0 -1 0 
vn 0 -1 0 
vn 0 -1 0 
vn 0 -1 0 
vn 0 -1 0 
f 47//47 48//48 49//49 
f 49//49 50//50 47//47 
f 49//49 51//51 50//50 
o mesh427
v 0.000828702 6.44869e-05 2.19679e-05 
v 0.000828702 -0.000445506 2.19679e-05 
v 0.000818666 -0.000445436 2.19679e-05 
v 0.000818688 6.44869e-05 2.19679e-05 
vn 0 0 -1 
vn 0 0 -1 
vn 0 0 -1 
vn 0 0 -1 
f 52//52 53//53 54//54 
f 54//54 55//55 52//52 
o mesh428
v 0.000818688 6.44869e-05 2.19679e-05 
v 0.000818666 -0.000445436 2.19679e-05 
v 0.000818658 -0.000445359 6.96789e-06 
v 0.000818688 6.44869e-05 6.96789e-06 
vn 1 0 0 
vn 1 0 0 
vn 1 0 0 
vn 1 0 0 
f 56//56 57//57 58//58 
f 58//58 59//59 56//56 
o mesh429
v 0.000818658 -0.000445359 6.96789e-06 
v 0.000818666 -0.000445436 2.19679e-05 
v 0.000578687 -0.000445436 2.19679e-05 
v 0.000568673 -0.000445366 6.96789e-06 
v 0.000568673 -0.000445366 2.19679e-05 
vn 0 -1 0 
vn 0 -1 0 
vn 0 -1 0 
vn 0 -1 0 
vn 0 -1 0 
f 60//60 61//61 62//62 
f 62//62 63//63 60//60 
f 62//62 64//64 63//63 
o mesh430
v 0.000578687 -0.000445436 2.19679e-05 
v 0.000577235 -0.000191545 3.92783e-05 
v 0.000568673 -0.000445366 2.19679e-05 
vn 0 0 1 
vn 0 0 1 
vn 0 0 1 
f 65//65 66//66 67//67 
o mesh431
v 0.000568673 -0.000445366 6.96789e-06 
v 0.000568673 -0.000445366 2.19679e-05 
v 0.000577235 -0.000191545 3.92783e-05 
vn -1 0 0 
vn -1 0 0 
vn -1 0 0 
f 68//68 69//69 70//70 
o mesh432
v 0.000828702 -0.000435506 0.000151968 
v 0.000828702 -0.000435506 6.19679e-05 
v 0.000828702 6.44869e-05 6.19679e-05 
v 0.000828702 7.44869e-05 0.000151968 
v 0.000828702 7.44869e-05 6.19679e-05 
vn 1 0 0 
vn 1 0 0 
vn 1 0 0 
vn 1 0 0 
vn 1 0 0 
f 71//71 72//72 73//73 
f 73//73 74//74 71//71 
f 73//73 75//75 74//74 
o mesh433
v 0.000828702 7.44869e-05 0.000151968 
v 0.000828702 7.44869e-05 6.19679e-05 
v 0.00107869 7.44869e-05 6.19679e-05 
v 0.00107869 7.44869e-05 0.000151968 
vn 0 -1 0 
vn 0 -1 0 
vn 0 -1 0 
vn 0 -1 0 
f 76//76 77//77 78//78 
f 78//78 79//79 76//76 
o mesh434
v 0.00107869 7.44869e-05 0.000151968 
v 0.00107869 7.44869e-05 6.19679e-05 
v 0.00107869 -0.000435689 6.19679e-05 
v 0.00107869 -0.000435689 0.000151968 
vn -1 0 0 
vn -1 0 0 
vn -1 0 0 
vn -1 0 0 
f 80//80 81//81 82//82 
f 82//82 83//83 80//80 
o mesh435
v 0.00107869 -0.000435689 0.000151968 
v 0.00107869 -0.000435689 6.19679e-05 
v 0.00131867 -0.000435864 6.19679e-05 
v 0.00132869 -0.000435871 0.000151968 
v 0.00132869 -0.000435871 6.19679e-05 
vn -0.000730893 -1 0 
vn -0.000730893 -1 0 
vn -0.000730893 -1 0 
vn -0.000730893 -1 0 
vn -0.000730893 -1 0 
f 84//84 85//85 86//86 
f 86//86 87//87 84//84 
f 86//86 88//88 87//87 
o mesh436
v 0.00132869 -0.000435871 0.000151968 
v 0.00132869 -0.000435871 6.19679e-05 
v 0.00132869 -0.000195323 6.19679e-05 
v 0.00132869 -0.000185506 0.000151968 
v 0.00132869 -0.000185506 6.19679e-05 
vn 1 0 0 
vn 1 0 0 
vn 1 0 0 
vn 1 0 0 
vn 1 0 0 
f 89//89 90//90 91//91 
f 91//91 92//92 89//89 
f 91//91 93//93 92//92 
o mesh437
v 0.00132869 -0.000185506 0.000151968 
v 0.00132869 -0.000185506 6.19679e-05 
v 0.00156872 -0.000185506 6.19679e-05 
v 0.00157872 -0.000185506 0.000151968 
v 0.00157872 -0.000185506 6.19679e-05 
vn 0 -1 0 
vn 0 -1 0 
vn 0 -1 0 
vn 0 -1 0 
vn 0 -1 0 
f 94//94 95//95 96//96 
f 96//96 97//97 94//94 
f 96//96 98//98 97//97 
o mesh438
v 0.00157872 -0.000185506 0.000151968 
v 0.00157872 -0.000185506 6.19679e-05 
v 0.00157873 0.000107934 6.19679e-05 
v 0.00157873 0.000107934 0.000151968 
vn 1 0 0 
vn 1 0 0 
vn 1 0 0 
vn 1 0 0 
f 99//99 100//100 101//101 
f 101//101 102//102 99//99 
o mesh439
v 0.00157873 0.000107934 0.000151968 
v 0.00157873 0.000107934 6.19679e-05 
v 0.00149305 0.000169432 6.19679e-05 
v 0.00149304 0.000169434 0.000151968 
vn 0.583103 0.812398 0 
vn 0.583103 0.812398 0 
vn 0.583103 0.812398 0 
vn 0.583103 0.812398 0 
f 103//103 104//104 105//105 
f 105//105 106//106 103//103 
o mesh440
v 0.00157873 0.000107934 6.19679e-05 
v 0.00156873 9.79336e-05 6.19679e-05 
v 0.00149304 0.000159433 6.19679e-05 
v 0.00157872 -0.000185506 6.19679e-05 
v 0.00156872 -0.000185506 6.19679e-05 
v 0.00149305 0.000169432 6.19679e-05 
vn 0 0 -1 
vn 0 0 -1 
vn 0 0 -1 
vn 0 0 -1 
vn 0 0 -1 
vn 0 0 -1 
f 107//107 108//108 109//109 
f 110//110 111//111 108//108 
f 108//108 107//107 110//110 
f 109//109 112//112 107//107 
o mesh441
v 0.00156872 -0.000195323 6.19679e-05 
v 0.00156872 -0.000185506 6.19679e-05 
v 0.00132869 -0.000185506 6.19679e-05 
v 0.00132869 -0.000195323 6.19679e-05 
vn 0 0 1 
vn 0 0 1 
vn 0 0 1 
vn 0 0 1 
f 113//113 114//114 115//115 
f 115//115 116//116 113//113 
o mesh442
v 0.00157373 9.79336e-05 4.69679e-05 
v 0.00156873 9.79336e-05 6.19679e-05 
v 0.00156872 -0.000185506 6.19679e-05 
v 0.00157373 -0.000195414 4.69679e-05 
v 0.00156872 -0.000195323 6.19679e-05 
vn 1 0 0 
vn 1 0 0 
vn 1 0 0 
vn 1 0 0 
vn 1 0 0 
f 117//117 118//118 119//119 
f 119//119 120//120 117//117 
f 119//119 121//121 120//120 
o mesh443
v 0.00132869 -0.000435871 6.19679e-05 
v 0.00131867 -0.000435864 6.19679e-05 
v 0.00131868 -0.000195388 6.19679e-05 
v 0.00132869 -0.000195323 6.19679e-05 
vn 0 0 -1 
vn 0 0 -1 
vn 0 0 -1 
vn 0 0 -1 
f 122//122 123//123 124//124 
f 124//124 125//125 122//122 
o mesh444
v 0.00132369 -0.000195457 4.69679e-05 
v 0.00157373 -0.000195414 4.69679e-05 
v 0.00156872 -0.000195323 6.19679e-05 
v 0.00132869 -0.000195323 6.19679e-05 
v 0.00131868 -0.000195388 6.19679e-05 
vn 0 -1 0 
vn 0 -1 0 
vn 0 -1 0 
vn 0 -1 0 
vn 0 -1 0 
f 126//126 127//127 128//128 
f 128//128 129//129 126//126 
f 129//129 130//130 126//126 
o mesh445
v 0.00149305 0.00015943 4.69679e-05 
v 0.00149304 0.000159433 6.19679e-05 
v 0.00156873 9.79336e-05 6.19679e-05 
v 0.00157373 9.79336e-05 4.69679e-05 
vn 0.630634 0.776081 0 
vn 0.630634 0.776081 0 
vn 0.630634 0.776081 0 
vn 0.630634 0.776081 0 
f 131//131 132//132 133//133 
f 133//133 134//134 131//131 
o mesh446
v 0.00149305 0.00015943 2.19679e-05 
v 0.00149305 0.00015943 4.69679e-05 
v 0.00157373 9.79336e-05 4.69679e-05 
v 0.00157873 9.79336e-05 2.19679e-05 
vn 0.583103 0.812398 0 
vn 0.583103 0.812398 0 
vn 0.583103 0.812398 0 
vn 0.583103 0.812398 0 
f 135//135 136//136 137//137 
f 137//137 138//138 135//135 
o mesh447
v 0.00157873 9.79336e-05 2.19679e-05 
v 0.00157373 9.79336e-05 4.69679e-05 
v 0.00157373 -0.000195414 4.69679e-05 
v 0.00157872 -0.000195506 2.19679e-05 
vn 1 0 0 
vn 1 0 0 
vn 1 0 0 
vn 1 0 0 
f 139//139 140//140 141//141 
f 141//141 142//142 139//139 
o mesh448
v 0.00157373 -0.000195414 4.69679e-05 
v 0.00132369 -0.000195457 4.69679e-05 
v 0.00132869 -0.000195506 2.19679e-05 
v 0.00157872 -0.000195506 2.19679e-05 
vn 0 -1 0 
vn 0 -1 0 
vn 0 -1 0 
vn 0 -1 0 
f 143//143 144//144 145//145 
f 145//145 146//146 143//143 
o mesh449
v 0.00107869 -0.000435689 6.19679e-05 
v 0.00107869 7.44869e-05 6.19679e-05 
v 0.00106869 6.44869e-05 6.19679e-05 
v 0.00131867 -0.000445366 6.19679e-05 
v 0.00131867 -0.000435864 6.19679e-05 
v 0.00106869 -0.000445366 6.19679e-05 
v 0.000828702 7.44869e-05 6.19679e-05 
v 0.000828702 6.44869e-05 6.19679e-05 
vn 0 0 1 
vn 0 0 1 
vn 0 0 1 
vn 0 0 1 
vn 0 0 1 
vn 0 0 1 
vn 0 0 1 
vn 0 0 1 
f 147//147 148//148 149//149 
f 150//150 151//151 147//147 
f 147//147 152//152 150//150 
f 153//153 154//154 149//149 
f 149//149 148//148 153//153 
f 149//149 152//152 147//147 
o mesh450
v 0.00131868 -0.000195388 6.19679e-05 
v 0.00131867 -0.000435864 6.19679e-05 
v 0.00131867 -0.00032044 4.69679e-05 
v 0.00132217 -0.000445424 4.69679e-05 
v 0.00132369 -0.000195457 4.69679e-05 
v 0.00131867 -0.000445366 6.19679e-05 
vn 1 0 0 
vn 1 0 0 
vn 1 0 0 
vn 1 0 0 
vn 1 0 0 
vn 1 0 0 
f 155//155 156//156 157//157 
f 156//156 158//158 157//157 
f 157//157 159//159 155//155 
f 156//156 160//160 158//158 
o mesh451
v 0.00132869 -0.000320506 4.69679e-05 
v 0.00132369 -0.000195457 4.69679e-05 
v 0.00131867 -0.00032044 4.69679e-05 
v 0.00132217 -0.000445424 4.69679e-05 
vn 0 0 1 
vn 0 0 1 
vn 0 0 1 
vn 0 0 1 
f 161//161 162//162 163//163 
f 163//163 164//164 161//161 
o mesh452
v 0.00131867 -0.000445366 6.19679e-05 
v 0.00106869 -0.000445366 6.19679e-05 
v 0.00107369 -0.000445436 4.69679e-05 
v 0.00132217 -0.000445424 4.69679e-05 
vn 0 -1 0 
vn 0 -1 0 
vn 0 -1 0 
vn 0 -1 0 
f 165//165 166//166 167//167 
f 167//167 168//168 165//165 
o mesh453
v 0.00132869 -0.000445506 2.19679e-05 
v 0.00132869 -0.000195506 2.19679e-05 
v 0.00132869 -0.000320506 4.69679e-05 
v 0.00132369 -0.000195457 4.69679e-05 
v 0.00132217 -0.000445424 4.69679e-05 
vn 1 0 0 
vn 1 0 0 
vn 1 0 0 
vn 1 0 0 
vn 1 0 0 
f 169//169 170//170 171//171 
f 170//170 172//172 171//171 
f 171//171 173//173 169//169 
o mesh454
v 0.00106869 6.44869e-05 4.69679e-05 
v 0.00107369 -0.000445436 4.69679e-05 
v 0.00106869 -0.000445366 6.19679e-05 
v 0.00106869 6.44869e-05 6.19679e-05 
vn -1 0 0 
vn -1 0 0 
vn -1 0 0 
vn -1 0 0 
f 174//174 175//175 176//176 
f 176//176 177//177 174//174 
o mesh455
v 0.0010787 6.44869e-05 4.69679e-05 
v 0.00107369 -0.000445436 4.69679e-05 
v 0.00106869 6.44869e-05 4.69679e-05 
vn 0 0 -1 
vn 0 0 -1 
vn 0 0 -1 
f 178//178 179//179 180//180 
o mesh456
v 0.00132217 -0.000445424 4.69679e-05 
v 0.00107369 -0.000445436 4.69679e-05 
v 0.0010787 -0.000445436 2.19679e-05 
v 0.00131867 -0.000445436 2.19679e-05 
v 0.00132869 -0.000445506 2.19679e-05 
vn 0 -1 0 
vn 0 -1 0 
vn 0 -1 0 
vn 0 -1 0 
vn 0 -1 0 
f 181//181 182//182 183//183 
f 183//183 184//184 181//181 
f 184//184 185//185 181//181 
o mesh457
v 0.0010787 -0.000445436 2.19679e-05 
v 0.00107369 -0.000445436 4.69679e-05 
v 0.0010787 6.44869e-05 4.69679e-05 
v 0.0010787 6.44869e-05 2.19679e-05 
vn -1 0 0 
vn -1 0 0 
vn -1 0 0 
vn -1 0 0 
f 186//186 187//187 188//188 
f 188//188 189//189 186//186 
o mesh458
v 0.000828702 6.44869e-05 4.69679e-05 
v 0.00106869 6.44869e-05 2.19679e-05 
v 0.00106869 6.44869e-05 4.69679e-05 
v 0.0010787 6.44869e-05 2.19679e-05 
v 0.0010787 6.44869e-05 4.69679e-05 
v 0.000828702 6.44869e-05 2.19679e-05 
v 0.00106869 6.44869e-05 6.96789e-06 
v 0.000818688 6.44869e-05 6.96789e-06 
v 0.000818688 6.44869e-05 6.19679e-05 
v 0.000818688 6.44869e-05 4.69679e-05 
v 0.00106869 6.44869e-05 6.19679e-05 
v 0.000828702 6.44869e-05 6.19679e-05 
v 0.000818688 6.44869e-05 2.19679e-05 
vn 0 -1 0 
vn 0 -1 0 
vn 0 -1 0 
vn 0 -1 0 
vn 0 -1 0 
vn 0 -1 0 
vn 0 -1 0 
vn 0 -1 0 
vn 0 -1 0 
vn 0 -1 0 
vn 0 -1 0 
vn 0 -1 0 
vn 0 -1 0 
f 190//190 191//191 192//192 
f 193//193 194//194 192//192 
f 192//192 191//191 193//193 
f 195//195 196//196 191//191 
f 197//197 196//196 195//195 
f 191//191 190//190 195//195 
f 198//198 199//199 190//190 
f 192//192 200//200 190//190 
f 190//190 200//200 201//201 
f 190//190 201//201 198//198 
f 195//195 202//202 197//197 
o mesh459
v 0.0010787 6.44869e-05 2.19679e-05 
v 0.00106869 6.44869e-05 2.19679e-05 
v 0.00106869 -0.000445366 2.19679e-05 
v 0.0010787 -0.000445436 2.19679e-05 
vn 0 0 1 
vn 0 0 1 
vn 0 0 1 
vn 0 0 1 
f 203//203 204//204 205//205 
f 205//205 206//206 203//203 
o mesh460
v 0.00106869 -0.000445366 6.96789e-06 
v 0.00106869 -0.000445366 2.19679e-05 
v 0.00106869 6.44869e-05 2.19679e-05 
v 0.00106869 6.44869e-05 6.96789e-06 
vn -1 0 0 
vn -1 0 0 
vn -1 0 0 
vn -1 0 0 
f 207//207 208//208 209//209 
f 209//209 210//210 207//207 
o mesh461
v 0.00131867 -0.000445366 6.96789e-06 
v 0.00131867 -0.000445436 2.19679e-05 
v 0.0010787 -0.000445436 2.19679e-05 
v 0.00106869 -0.000445366 6.96789e-06 
v 0.00106869 -0.000445366 2.19679e-05 
vn 0 -1 0 
vn 0 -1 0 
vn 0 -1 0 
vn 0 -1 0 
vn 0 -1 0 
f 211//211 212//212 213//213 
f 213//213 214//214 211//211 
f 213//213 215//215 214//214 
o mesh462
v 0.00131868 -0.000195388 2.19679e-05 
v 0.00131867 -0.000445436 2.19679e-05 
v 0.00131867 -0.000445366 6.96789e-06 
v 0.00131868 -0.000195409 6.96789e-06 
vn 1 0 0 
vn 1 0 0 
vn 1 0 0 
vn 1 0 0 
f 216//216 217//217 218//218 
f 218//218 219//219 216//216 
o mesh463
v 0.00131868 -0.000195409 6.96789e-06 
v 0.00157372 -0.000195323 6.96789e-06 
v 0.00156872 -0.000195323 2.19679e-05 
v 0.00131868 -0.000195388 2.19679e-05 
vn 0 -1 0 
vn 0 -1 0 
vn 0 -1 0 
vn 0 -1 0 
f 220//220 221//221 222//222 
f 222//222 223//223 220//220 
o mesh464
v 0.00157873 9.79336e-05 2.19679e-05 
v 0.00157872 -0.000195506 2.19679e-05 
v 0.00156872 -0.000195323 2.19679e-05 
v 0.00156872 9.79367e-05 2.19679e-05 
v 0.00132869 -0.000195506 2.19679e-05 
v 0.00131867 -0.000445436 2.19679e-05 
v 0.00131868 -0.000195388 2.19679e-05 
v 0.00149305 0.00015943 2.19679e-05 
v 0.00132869 -0.000445506 2.19679e-05 
vn 0 0 -1 
vn 0 0 -1 
vn 0 0 -1 
vn 0 0 -1 
vn 0 0 -1 
vn 0 0 -1 
vn 0 0 -1 
vn 0 0 -1 
vn 0 0 -1 
f 224//224 225//225 226//226 
f 226//226 227//227 224//224 
f 226//226 225//225 228//228 
f 229//229 230//230 228//228 
f 228//228 230//230 226//226 
f 227//227 231//231 224//224 
f 228//228 232//232 229//229 
o mesh465
v 0.00156872 9.79367e-05 2.19679e-05 
v 0.00157372 9.79414e-05 6.96789e-06 
v 0.00153089 0.000128683 6.96789e-06 
v 0.00149305 0.00015943 2.19679e-05 
v 0.00149304 0.000159434 6.96789e-06 
vn 0.630634 0.776081 0 
vn 0.630634 0.776081 0 
vn 0.630634 0.776081 0 
vn 0.630634 0.776081 0 
vn 0.630634 0.776081 0 
f 233//233 234//234 235//235 
f 235//235 236//236 233//233 
f 235//235 237//237 236//236 
o mesh466
v 0.00157372 -0.000195323 6.96789e-06 
v 0.00157372 9.79414e-05 6.96789e-06 
v 0.00156872 9.79367e-05 2.19679e-05 
v 0.00156872 -0.000195323 2.19679e-05 
vn 1 0 0 
vn 1 0 0 
vn 1 0 0 
vn 1 0 0 
f 238//238 239//239 240//240 
f 240//240 241//241 238//238 
o mesh467
v 0.00153089 0.000128683 6.96789e-06 
v 0.00157372 9.79414e-05 6.96789e-06 
v 0.00153588 0.000128691 6.96789e-06 
v 0.00149304 0.000159434 6.96789e-06 
vn 0 0 1 
vn 0 0 1 
vn 0 0 1 
vn 0 0 1 
f 242//242 243//243 244//244 
f 244//244 245//245 242//242 
o mesh468
v 0.00149304 0.000159434 -8.30321e-05 
v 0.00149304 0.000159434 6.96789e-06 
v 0.00153588 0.000128691 6.96789e-06 
v 0.00157871 9.79493e-05 -8.30321e-05 
v 0.00157372 9.79414e-05 6.96789e-06 
vn 0.583103 0.812398 0 
vn 0.583103 0.812398 0 
vn 0.583103 0.812398 0 
vn 0.583103 0.812398 0 
vn 0.583103 0.812398 0 
f 246//246 247//247 248//248 
f 248//248 249//249 246//246 
f 248//248 250//250 249//249 
o mesh469
v 0.00157871 -0.000682564 -8.30321e-05 
v 0.00157871 9.79493e-05 -8.30321e-05 
v 0.00157372 -0.000195323 6.96789e-06 
v 0.00157372 9.79414e-05 6.96789e-06 
v 0.00157871 -0.000682564 6.96789e-06 
vn 1 0 0 
vn 1 0 0 
vn 1 0 0 
vn 1 0 0 
vn 1 0 0 
f 251//251 252//252 253//253 
f 252//252 254//254 253//253 
f 253//253 255//255 251//251 
o mesh470
v 0.000760275 -0.000682564 6.96789e-06 
v 0.000760275 -0.000682564 -8.30321e-05 
v 0.00157871 -0.000682564 -8.30321e-05 
v 0.00157871 -0.000682564 6.96789e-06 
vn 0 -1 0 
vn 0 -1 0 
vn 0 -1 0 
vn 0 -1 0 
f 256//256 257//257 258//258 
f 258//258 259//259 256//256 
o mesh471
v 0.000328687 -0.000445506 6.96789e-06 
v 0.000328687 -0.000445506 -8.30321e-05 
v 0.000760275 -0.000682564 -8.30321e-05 
v 0.000760275 -0.000682564 6.96789e-06 
vn -0.481428 -0.876486 0 
vn -0.481428 -0.876486 0 
vn -0.481428 -0.876486 0 
vn -0.481428 -0.876486 0 
f 260//260 261//261 262//262 
f 262//262 263//263 260//260 
o mesh472
v 0.000328687 -0.000445506 6.96789e-06 
v -0.00120695 7.43583e-06 6.96789e-06 
v -0.00120695 7.43583e-06 -8.30321e-05 
v 0.000328687 -0.000445506 -8.30321e-05 
vn -0.282905 -0.959148 0 
vn -0.282905 -0.959148 0 
vn -0.282905 -0.959148 0 
vn -0.282905 -0.959148 0 
f 264//264 265//265 266//266 
f 266//266 267//267 264//264 
o mesh473
v 0.000760275 -0.000682564 -8.30321e-05 
v 0.00149304 0.000159434 -8.30321e-05 
v 0.00157871 9.79493e-05 -8.30321e-05 
v 0.00149305 0.000264436 -8.30321e-05 
v 0.000328687 -0.000445506 -8.30321e-05 
v 0.00157871 -0.000682564 -8.30321e-05 
v -0.00120695 0.000264436 -8.30321e-05 
v -0.00120695 7.43583e-06 -8.30321e-05 
vn 0 0 -1 
vn 0 0 -1 
vn 0 0 -1 
vn 0 0 -1 
vn 0 0 -1 
vn 0 0 -1 
vn 0 0 -1 
vn 0 0 -1 
f 268//268 269//269 270//270 
f 271//271 269//269 272//272 
f 270//270 273//273 268//268 
f 272//272 274//274 271//271 
f 272//272 275//275 274//274 
f 268//268 272//272 269//269 
o mesh474
v -0.00120695 0.000264436 -8.30321e-05 
v -0.00120695 7.43583e-06 -8.30321e-05 
v -0.00120695 7.43583e-06 6.96789e-06 
v -0.00120695 0.000264436 6.96789e-06 
vn -1 0 0 
vn -1 0 0 
vn -1 0 0 
vn -1 0 0 
f 276//276 277//277 278//278 
f 278//278 279//279 276//276 
o mesh475
v 0.00149305 0.000264436 6.96789e-06 
v 0.00149305 0.000264436 -8.30321e-05 
v -0.00120695 0.000264436 -8.30321e-05 
v -0.00120695 0.000264436 6.96789e-06 
vn 0 1 0 
vn 0 1 0 
vn 0 1 0 
vn 0 1 0 
f 280//280 281//281 282//282 
f 282//282 283//283 280//280 
o mesh476
v 0.000578673 -0.000185506 0.000151968 
v 0.000328687 -0.000185506 0.000151968 
v 0.000437427 -0.000185506 2.19679e-05 
v 0.000322893 -0.00019178 3.14009e-05 
v 0.000577235 -0.000191545 3.92783e-05 
vn 0 -1 0 
vn 0 -1 0 
vn 0 -1 0 
vn 0 -1 0 
vn 0 -1 0 
f 284//284 285//285 286//286 
f 285//285 287//287 286//286 
f 286//286 288//288 284//284 
o mesh477
v 0.000437427 -0.000185506 2.19679e-05 
v 0.000322893 -0.00019178 3.14009e-05 
v 0.000459304 -0.000195323 2.19679e-05 
v 0.000577235 -0.000191545 3.92783e-05 
vn 0 0 1 
vn 0 0 1 
vn 0 0 1 
vn 0 0 1 
f 289//289 290//290 291//291 
f 291//291 292//292 289//289 
o mesh478
v 0.000459304 -0.000195323 6.96789e-06 
v 0.000577235 -0.000191545 3.92783e-05 
v 0.000459304 -0.000195323 2.19679e-05 
v 0.000322893 -0.00019178 3.14009e-05 
vn 0 -1 0 
vn 0 -1 0 
vn 0 -1 0 
vn 0 -1 0 
f 293//293 294//294 295//295 
f 295//295 296//296 293//293 
o mesh479
v 0.000760275 -0.000682564 6.96789e-06 
v 0.000818658 -0.000445359 6.96789e-06 
v 0.000568673 -0.000445366 6.96789e-06 
v 0.000577235 -0.000191545 3.92783e-05 
v 0.000459304 -0.000195323 6.96789e-06 
v 0.00106869 -0.000445366 6.96789e-06 
v 0.00106869 6.44869e-05 6.96789e-06 
v 0.000818688 6.44869e-05 6.96789e-06 
v 0.00157871 -0.000682564 6.96789e-06 
v 0.00131867 -0.000445366 6.96789e-06 
v 0.00157372 -0.000195323 6.96789e-06 
v 0.00131868 -0.000195409 6.96789e-06 
v -0.00120695 7.43583e-06 6.96789e-06 
v 0.000328687 -0.000445506 6.96789e-06 
v 0.000322893 -0.00019178 3.14009e-05 
v 0.000318687 7.43583e-06 6.96789e-06 
vn 0 0 1 
vn 0 0 1 
vn 0 0 1 
vn 0 0 1 
vn 0 0 1 
vn 0 0 1 
vn 0 0 1 
vn 0 0 1 
vn 0 0 1 
vn 0 0 1 
vn 0 0 1 
vn 0 0 1 
vn 0 0 1 
vn 0 0 1 
vn 0 0 1 
vn 0 0 1 
f 297//297 298//298 299//299 
f 299//299 300//300 301//301 
f 297//297 302//302 298//298 
f 302//302 303//303 304//304 
f 305//305 306//306 302//302 
f 307//307 308//308 306//306 
f 309//309 310//310 311//311 
f 301//301 310//310 299//299 
f 304//304 298//298 302//302 
f 306//306 305//305 307//307 
f 301//301 311//311 310//310 
f 302//302 297//297 305//305 
f 299//299 310//310 297//297 
f 311//311 312//312 309//309 
o mesh480
v 0.000322893 -0.00019178 3.14009e-05 
v 0.000318687 7.43583e-06 2.19679e-05 
v 0.000318687 7.43583e-06 6.96789e-06 
vn -1 0 0 
vn -1 0 0 
vn -1 0 0 
f 313//313 314//314 315//315 
o mesh481
v 0.000318687 7.43583e-06 2.19679e-05 
v 0.000322893 -0.00019178 3.14009e-05 
v 0.000328687 7.43583e-06 2.19679e-05 
vn 0 0 1 
vn 0 0 1 
vn 0 0 1 
f 316//316 317//317 318//318 
o mesh482
v 0.000322893 -0.00019178 3.14009e-05 
v 0.000323687 7.43583e-06 4.69679e-05 
v 0.000328687 7.43583e-06 2.19679e-05 
vn -1 0 0 
vn -1 0 0 
vn -1 0 0 
f 319//319 320//320 321//321 
o mesh483
v 0.000322893 -0.00019178 3.14009e-05 
v 0.000318687 7.43583e-06 6.19679e-05 
v 0.000323687 7.43583e-06 4.69679e-05 
vn -1 0 0 
vn -1 0 0 
vn -1 0 0 
f 322//322 323//323 324//324 
o mesh484
v 0.000328687 -0.000185506 0.000151968 
v 0.000328687 1.74358e-05 0.000151968 
v 0.000328687 1.74358e-05 6.19679e-05 
v 0.000322893 -0.00019178 3.14009e-05 
vn -1 0 0 
vn -1 0 0 
vn -1 0 0 
vn -1 0 0 
f 325//325 326//326 327//327 
f 327//327 328//328 325//325 
o mesh485
v -0.00120695 1.74358e-05 0.000151968 
v -0.00120695 1.74358e-05 6.19679e-05 
v 0.000328687 1.74358e-05 6.19679e-05 
v 0.000328687 1.74358e-05 0.000151968 
vn 0 -1 0 
vn 0 -1 0 
vn 0 -1 0 
vn 0 -1 0 
f 329//329 330//330 331//331 
f 331//331 332//332 329//329 
o mesh486
v 0.00132869 -0.000185506 0.000151968 
v 0.00157872 -0.000185506 0.000151968 
v 0.00157873 0.000107934 0.000151968 
v 0.00149304 0.000169434 0.000151968 
v 0.00107869 7.44869e-05 0.000151968 
v 0.00107869 -0.000435689 0.000151968 
v 0.00132869 -0.000435871 0.000151968 
v 0.00149305 0.000274436 0.000151968 
v 0.000328687 1.74358e-05 0.000151968 
v 0.000828702 7.44869e-05 0.000151968 
v 0.000328687 -0.000185506 0.000151968 
v 0.000578673 -0.000185506 0.000151968 
v 0.000828702 -0.000435506 0.000151968 
v -0.00120695 0.000274436 0.000151968 
v -0.00120695 1.74358e-05 0.000151968 
v 0.000578673 -0.000435323 0.000151968 
vn 0 0 1 
vn 0 0 1 
vn 0 0 1 
vn 0 0 1 
vn 0 0 1 
vn 0 0 1 
vn 0 0 1 
vn 0 0 1 
vn 0 0 1 
vn 0 0 1 
vn 0 0 1 
vn 0 0 1 
vn 0 0 1 
vn 0 0 1 
vn 0 0 1 
vn 0 0 1 
f 333//333 334//334 335//335 
f 336//336 337//337 333//333 
f 335//335 336//336 333//333 
f 338//338 339//339 333//333 
f 340//340 341//341 342//342 
f 341//341 343//343 344//344 
f 333//333 337//337 338//338 
f 344//344 342//342 341//341 
f 345//345 342//342 344//344 
f 342//342 337//337 340//340 
f 336//336 340//340 337//337 
f 346//346 347//347 341//341 
f 341//341 340//340 346//346 
f 344//344 348//348 345//345 
o mesh487
v -0.00120695 0.000274436 0.000151968 
v -0.00120695 0.000274436 6.19679e-05 
v -0.00120695 1.74358e-05 6.19679e-05 
v -0.00120695 1.74358e-05 0.000151968 
vn -1 0 0 
vn -1 0 0 
vn -1 0 0 
vn -1 0 0 
f 349//349 350//350 351//351 
f 351//351 352//352 349//349 
o mesh488
v 0.000328687 1.74358e-05 6.19679e-05 
v -0.00120695 1.74358e-05 6.19679e-05 
v 0.000318687 7.43583e-06 6.19679e-05 
v -0.00122695 0.000274436 6.19679e-05 
v -0.00122695 7.43583e-06 6.19679e-05 
v 0.000322893 -0.00019178 3.14009e-05 
v -0.00120695 0.000274436 6.19679e-05 
vn 0 0 1 
vn 0 0 1 
vn 0 0 1 
vn 0 0 1 
vn 0 0 1 
vn 0 0 1 
vn 0 0 1 
f 353//353 354//354 355//355 
f 356//356 357//357 354//354 
f 354//354 357//357 355//355 
f 355//355 358//358 353//353 
f 354//354 359//359 356//356 
o mesh489
v 0.00149305 0.000274436 0.000151968 
v 0.00149305 0.000274436 4.69679e-05 
v -0.00120695 0.000274436 6.19679e-05 
v -0.00122695 0.000274436 4.69679e-05 
v -0.00122695 0.000274436 6.19679e-05 
v -0.00120695 0.000274436 0.000151968 
vn 0 1 0 
vn 0 1 0 
vn 0 1 0 
vn 0 1 0 
vn 0 1 0 
vn 0 1 0 
f 360//360 361//361 362//362 
f 363//363 364//364 362//362 
f 362//362 361//361 363//363 
f 362//362 365//365 360//360 
o mesh490
v -0.00122695 7.43583e-06 6.19679e-05 
v -0.00122695 0.000274436 6.19679e-05 
v -0.00122695 0.000190984 4.69679e-05 
v -0.00122695 0.000274436 4.69679e-05 
v -0.00122695 7.43583e-06 4.69679e-05 
vn -1 0 0 
vn -1 0 0 
vn -1 0 0 
vn -1 0 0 
vn -1 0 0 
f 366//366 367//367 368//368 
f 367//367 369//369 368//368 
f 368//368 370//370 366//366 
o mesh491
v -0.00122695 7.43583e-06 6.96789e-06 
v -0.00122695 0.000274436 6.96789e-06 
v -0.00120695 0.000264436 6.96789e-06 
v 0.00149305 0.000274436 6.96789e-06 
v 0.00149305 0.000264436 6.96789e-06 
v -0.00120695 7.43583e-06 6.96789e-06 
vn 0 0 -1 
vn 0 0 -1 
vn 0 0 -1 
vn 0 0 -1 
vn 0 0 -1 
vn 0 0 -1 
f 371//371 372//372 373//373 
f 374//374 375//375 373//373 
f 373//373 372//372 374//374 
f 373//373 376//376 371//371 
o mesh492
v -0.00122695 0.000274436 6.96789e-06 
v -0.00122695 0.000274436 2.19679e-05 
v 0.00149305 0.000274436 2.19679e-05 
v 0.00149305 0.000274436 6.96789e-06 
vn 0 1 0 
vn 0 1 0 
vn 0 1 0 
vn 0 1 0 
f 377//377 378//378 379//379 
f 379//379 380//380 377//377 
o mesh493
v 0.00149305 0.00015943 2.19679e-05 
v 0.00149305 0.000189436 2.19679e-05 
v 0.00149305 0.000189436 4.69679e-05 
v 0.00149305 0.00015943 4.69679e-05 
v 0.00149305 0.000169432 6.19679e-05 
v 0.00149304 0.000159434 -8.30321e-05 
v 0.00149305 0.000264436 -8.30321e-05 
v 0.00149305 0.000264436 6.96789e-06 
v 0.00149304 0.000159433 6.19679e-05 
v 0.00149305 0.000274436 0.000151968 
v 0.00149304 0.000169434 0.000151968 
v 0.00149305 0.000274436 2.19679e-05 
v 0.00149304 0.000159434 6.96789e-06 
v 0.00149305 0.000274436 6.96789e-06 
v 0.00149305 0.000274436 4.69679e-05 
vn 1 0 0 
vn 1 0 0 
vn 1 0 0 
vn 1 0 0 
vn 1 0 0 
vn 1 0 0 
vn 1 0 0 
vn 1 0 0 
vn 1 0 0 
vn 1 0 0 
vn 1 0 0 
vn 1 0 0 
vn 1 0 0 
vn 1 0 0 
vn 1 0 0 
f 381//381 382//382 383//383 
f 383//383 384//384 381//381 
f 384//384 383//383 385//385 
f 386//386 387//387 388//388 
f 385//385 389//389 384//384 
f 388//388 382//382 386//386 
f 390//390 391//391 385//385 
f 392//392 382//382 388//388 
f 382//382 393//393 386//386 
f 385//385 383//383 390//390 
f 381//381 393//393 382//382 
f 388//388 394//394 392//392 
f 383//383 395//395 390//390 
o mesh494
v -0.00122695 7.43583e-06 6.96789e-06 
v -0.00122695 7.43583e-06 2.19679e-05 
v -0.00122695 0.000190984 2.19679e-05 
v -0.00122695 0.000274436 6.96789e-06 
v -0.00122695 0.000274436 2.19679e-05 
vn -1 0 0 
vn -1 0 0 
vn -1 0 0 
vn -1 0 0 
vn -1 0 0 
f 396//396 397//397 398//398 
f 398//398 399//399 396//396 
f 398//398 400//400 399//399 
o mesh495
v -0.00122695 7.43583e-06 2.19679e-05 
v -0.00122695 7.43583e-06 6.96789e-06 
v -0.00120695 7.43583e-06 6.96789e-06 
v -0.00120695 7.43583e-06 2.19679e-05 
v 0.000318687 7.43583e-06 6.96789e-06 
v 0.000318687 7.43583e-06 2.19679e-05 
v 0.000328687 7.43583e-06 2.19679e-05 
v 0.000323687 7.43583e-06 4.69679e-05 
v -0.00120695 7.43583e-06 4.69679e-05 
v -0.00122695 7.43583e-06 6.19679e-05 
v -0.00122695 7.43583e-06 4.69679e-05 
v 0.000318687 7.43583e-06 6.19679e-05 
vn 0 -1 0 
vn 0 -1 0 
vn 0 -1 0 
vn 0 -1 0 
vn 0 -1 0 
vn 0 -1 0 
vn 0 -1 0 
vn 0 -1 0 
vn 0 -1 0 
vn 0 -1 0 
vn 0 -1 0 
vn 0 -1 0 
f 401//401 402//402 403//403 
f 403//403 404//404 401//401 
f 404//404 405//405 406//406 
f 406//406 407//407 408//408 
f 406//406 409//409 404//404 
f 410//410 411//411 409//409 
f 412//412 410//410 406//406 
f 409//409 406//406 410//410 
f 403//403 405//405 404//404 
f 408//408 412//412 406//406 
o mesh496
v -0.00122695 7.43583e-06 4.69679e-05 
v -0.00122695 0.000190984 4.69679e-05 
v -0.00122381 0.000190535 4.69679e-05 
v -0.00120695 7.43583e-06 4.69679e-05 
v -0.00121258 0.000189558 4.69679e-05 
v -0.00121821 0.000189925 4.69679e-05 
v -0.00120695 0.000189436 4.69679e-05 
vn 0 0 -1 
vn 0 0 -1 
vn 0 0 -1 
vn 0 0 -1 
vn 0 0 -1 
vn 0 0 -1 
vn 0 0 -1 
f 413//413 414//414 415//415 
f 416//416 413//413 417//417 
f 415//415 418//418 413//413 
f 418//418 417//417 413//413 
f 417//417 419//419 416//416 
o mesh497
v -0.00120695 0.000189436 4.69679e-05 
v -0.00120695 0.000189436 2.19679e-05 
v -0.00120695 7.43583e-06 2.19679e-05 
v -0.00120695 7.43583e-06 4.69679e-05 
vn -1 0 0 
vn -1 0 0 
vn -1 0 0 
vn -1 0 0 
f 420//420 421//421 422//422 
f 422//422 423//423 420//420 
o mesh498
v -0.00122695 7.43583e-06 2.19679e-05 
v -0.00121821 0.000189925 2.19679e-05 
v -0.00122381 0.000190535 2.19679e-05 
v -0.00121258 0.000189558 2.19679e-05 
v -0.00120695 7.43583e-06 2.19679e-05 
v -0.00120695 0.000189436 2.19679e-05 
v -0.00122695 0.000190984 2.19679e-05 
vn 0 0 1 
vn 0 0 1 
vn 0 0 1 
vn 0 0 1 
vn 0 0 1 
vn 0 0 1 
vn 0 0 1 
f 424//424 425//425 426//426 
f 424//424 427//427 425//425 
f 428//428 429//429 427//427 
f 427//427 424//424 428//428 
f 426//426 430//430 424//424 
o mesh499
v -0.00120695 0.000189436 2.19679e-05 
v -0.00120695 0.000189436 4.69679e-05 
v -0.00121258 0.000189558 4.69679e-05 
v -0.00121258 0.000189558 2.19679e-05 
v -0.00121821 0.000189925 4.69679e-05 
v -0.00121821 0.000189925 2.19679e-05 
v -0.00122381 0.000190535 4.69679e-05 
v -0.00122938 0.000191387 4.69679e-05 
v -0.00122938 0.000191387 2.19679e-05 
v -0.00122695 0.000190984 2.19679e-05 
v -0.00122381 0.000190535 2.19679e-05 
v -0.00122695 0.000190984 4.69679e-05 
v -0.00123491 0.000192481 4.69679e-05 
v -0.00123491 0.000192481 2.19679e-05 
v -0.00124039 0.000193812 4.69679e-05 
v -0.00124039 0.000193812 2.19679e-05 
v -0.0012458 0.00019538 4.69679e-05 
v -0.0012458 0.00019538 2.19679e-05 
v -0.00125114 0.000197182 4.69679e-05 
v -0.00125114 0.000197182 2.19679e-05 
v -0.0012564 0.000199213 4.69679e-05 
v -0.0012564 0.000199213 2.19679e-05 
v -0.00126157 0.00020147 4.69679e-05 
v -0.00126157 0.00020147 2.19679e-05 
v -0.00126663 0.000203949 4.69679e-05 
v -0.00126663 0.000203949 2.19679e-05 
v -0.00127158 0.000206645 4.69679e-05 
v -0.00127158 0.000206645 2.19679e-05 
v -0.00127641 0.000209552 4.69679e-05 
v -0.00127641 0.000209552 2.19679e-05 
v -0.0012811 0.000212667 4.69679e-05 
v -0.0012811 0.000212667 2.19679e-05 
v -0.00128566 0.000215982 4.69679e-05 
v -0.00128566 0.000215982 2.19679e-05 
v -0.00129007 0.000219492 4.69679e-05 
v -0.00129007 0.000219492 2.19679e-05 
v -0.00129433 0.00022319 4.69679e-05 
v -0.00129433 0.00022319 2.19679e-05 
v -0.00129842 0.000227068 4.69679e-05 
v -0.00129842 0.000227068 2.19679e-05 
v -0.00130234 0.000231121 4.69679e-05 
v -0.00130234 0.000231121 2.19679e-05 
v -0.00130607 0.000235339 4.69679e-05 
v -0.00130607 0.000235339 2.19679e-05 
v -0.00130963 0.000239715 4.69679e-05 
v -0.00130963 0.000239715 2.19679e-05 
v -0.00131299 0.000244241 4.69679e-05 
v -0.00131299 0.000244241 2.19679e-05 
v -0.00131615 0.000248909 4.69679e-05 
v -0.00131615 0.000248909 2.19679e-05 
v -0.0013191 0.000253709 4.69679e-05 
v -0.0013191 0.000253709 2.19679e-05 
v -0.00132184 0.000258633 4.69679e-05 
v -0.00132184 0.000258633 2.19679e-05 
v -0.00132437 0.000263671 4.69679e-05 
v -0.00132437 0.000263671 2.19679e-05 
v -0.00132668 0.000268814 4.69679e-05 
v -0.00132668 0.000268814 2.19679e-05 
v -0.00132876 0.000274052 4.69679e-05 
v -0.00132876 0.000274052 2.19679e-05 
v -0.00133061 0.000279375 4.69679e-05 
v -0.00133061 0.000279375 2.19679e-05 
v -0.00133223 0.000284774 4.69679e-05 
v -0.00133223 0.000284774 2.19679e-05 
v -0.00133362 0.000290238 4.69679e-05 
v -0.00133362 0.000290238 2.19679e-05 
v -0.00133477 0.000295756 4.69679e-05 
v -0.00133477 0.000295756 2.19679e-05 
v -0.00133567 0.00030132 4.69679e-05 
v -0.00133567 0.00030132 2.19679e-05 
v -0.00133634 0.000306917 4.69679e-05 
v -0.00133634 0.000306917 2.19679e-05 
v -0.00133676 0.000312538 4.69679e-05 
v -0.00133676 0.000312538 2.19679e-05 
v -0.00133693 0.000318172 4.69679e-05 
v -0.00133693 0.000318172 2.19679e-05 
v -0.00133687 0.000323808 4.69679e-05 
v -0.00133687 0.000323808 2.19679e-05 
v -0.00133655 0.000329436 4.69679e-05 
v -0.00133655 0.000329436 2.19679e-05 
vn -4.85013e-05 -1 0 
vn -4.85013e-05 -1 0 
vn -0.0433966 -0.999058 0 
vn -0.0433966 -0.999058 0 
vn -0.0866632 -0.996238 0 
vn -0.0866632 -0.996238 0 
vn -0.129767 -0.991545 0 
vn -0.172626 -0.984987 0 
vn -0.172626 -0.984987 0 
vn -0.153895 -0.988087 0 
vn -0.129767 -0.991545 0 
vn -0.153895 -0.988087 0 
vn -0.215162 -0.976578 0 
vn -0.215162 -0.976578 0 
vn -0.257292 -0.966334 0 
vn -0.257292 -0.966334 0 
vn -0.298939 -0.954272 0 
vn -0.298939 -0.954272 0 
vn -0.340024 -0.940417 0 
vn -0.340024 -0.940417 0 
vn -0.38047 -0.924793 0 
vn -0.38047 -0.924793 0 
vn -0.4202 -0.907431 0 
vn -0.4202 -0.907431 0 
vn -0.459141 -0.888363 0 
vn -0.459141 -0.888363 0 
vn -0.497218 -0.867626 0 
vn -0.497218 -0.867626 0 
vn -0.534361 -0.845256 0 
vn -0.534361 -0.845256 0 
vn -0.570499 -0.821298 0 
vn -0.570499 -0.821298 0 
vn -0.605564 -0.795796 0 
vn -0.605564 -0.795796 0 
vn -0.639492 -0.768798 0 
vn -0.639492 -0.768798 0 
vn -0.672216 -0.740355 0 
vn -0.672216 -0.740355 0 
vn -0.703678 -0.710519 0 
vn -0.703678 -0.710519 0 
vn -0.733816 -0.679348 0 
vn -0.733816 -0.679348 0 
vn -0.762575 -0.6469 0 
vn -0.762575 -0.6469 0 
vn -0.7899 -0.613236 0 
vn -0.7899 -0.613236 0 
vn -0.81574 -0.578419 0 
vn -0.81574 -0.578419 0 
vn -0.840047 -0.542514 0 
vn -0.840047 -0.542514 0 
vn -0.862774 -0.50559 0 
vn -0.862774 -0.50559 0 
vn -0.883879 -0.467715 0 
vn -0.883879 -0.467715 0 
vn -0.903323 -0.428961 0 
vn -0.903323 -0.428961 0 
vn -0.921069 -0.3894 0 
vn -0.921069 -0.3894 0 
vn -0.937083 -0.349107 0 
vn -0.937083 -0.349107 0 
vn -0.951335 -0.308158 0 
vn -0.951335 -0.308158 0 
vn -0.963799 -0.26663 0 
vn -0.963799 -0.26663 0 
vn -0.974451 -0.224601 0 
vn -0.974451 -0.224601 0 
vn -0.983271 -0.182149 0 
vn -0.983271 -0.182149 0 
vn -0.990243 -0.139355 0 
vn -0.990243 -0.139355 0 
vn -0.995353 -0.0962985 0 
vn -0.995353 -0.0962985 0 
vn -0.998591 -0.0530612 0 
vn -0.998591 -0.0530612 0 
vn -0.999953 -0.00972423 0 
vn -0.999953 -0.00972423 0 
vn -0.999434 0.033631 0 
vn -0.999434 0.033631 0 
vn -0.997037 0.0769231 0 
vn -0.997037 0.0769231 0 
f 431//431 432//432 433//433 
f 434//434 433//433 435//435 
f 436//436 435//435 437//437 
f 438//438 439//439 440//440 
f 441//441 437//437 442//442 
f 442//442 440//440 441//441 
f 439//439 438//438 443//443 
f 444//444 443//443 445//445 
f 446//446 445//445 447//447 
f 448//448 447//447 449//449 
f 450//450 449//449 451//451 
f 452//452 451//451 453//453 
f 454//454 453//453 455//455 
f 456//456 455//455 457//457 
f 458//458 457//457 459//459 
f 460//460 459//459 461//461 
f 462//462 461//461 463//463 
f 464//464 463//463 465//465 
f 466//466 465//465 467//467 
f 468//468 467//467 469//469 
f 470//470 469//469 471//471 
f 472//472 471//471 473//473 
f 474//474 473//473 475//475 
f 476//476 475//475 477//477 
f 478//478 477//477 479//479 
f 480//480 479//479 481//481 
f 482//482 481//481 483//483 
f 484//484 483//483 485//485 
f 486//486 485//485 487//487 
f 488//488 487//487 489//489 
f 490//490 489//489 491//491 
f 492//492 491//491 493//493 
f 494//494 493//493 495//495 
f 496//496 495//495 497//497 
f 498//498 497//497 499//499 
f 500//500 499//499 501//501 
f 502//502 501//501 503//503 
f 504//504 503//503 505//505 
f 506//506 505//505 507//507 
f 508//508 507//507 509//509 
f 509//509 510//510 508//508 
f 507//507 508//508 506//506 
f 505//505 506//506 504//504 
f 503//503 504//504 502//502 
f 501//501 502//502 500//500 
f 499//499 500//500 498//498 
f 497//497 498//498 496//496 
f 495//495 496//496 494//494 
f 493//493 494//494 492//492 
f 491//491 492//492 490//490 
f 489//489 490//490 488//488 
f 487//487 488//488 486//486 
f 485//485 486//486 484//484 
f 483//483 484//484 482//482 
f 481//481 482//482 480//480 
f 479//479 480//480 478//478 
f 477//477 478//478 476//476 
f 475//475 476//476 474//474 
f 473//473 474//474 472//472 
f 471//471 472//472 470//470 
f 469//469 470//470 468//468 
f 467//467 468//468 466//466 
f 465//465 466//466 464//464 
f 463//463 464//464 462//462 
f 461//461 462//462 460//460 
f 459//459 460//460 458//458 
f 457//457 458//458 456//456 
f 455//455 456//456 454//454 
f 453//453 454//454 452//452 
f 451//451 452//452 450//450 
f 449//449 450//450 448//448 
f 447//447 448//448 446//446 
f 445//445 446//446 444//444 
f 443//443 444//444 439//439 
f 440//440 442//442 438//438 
f 437//437 441//441 436//436 
f 435//435 436//436 434//434 
f 433//433 434//434 431//431 
o mesh500
v -0.00133655 0.000329436 4.69679e-05 
v 0.00161305 0.000329436 4.69679e-05 
v 0.00161305 0.000329436 2.19679e-05 
v -0.00133655 0.000329436 2.19679e-05 
vn 0 1 0 
vn 0 1 0 
vn 0 1 0 
vn 0 1 0 
f 511//511 512//512 513//513 
f 513//513 514//514 511//511 
o mesh501
v 0.00161305 0.000324436 2.19679e-05 
v 0.00159236 0.000235549 2.19679e-05 
v 0.00158865 0.000231341 2.19679e-05 
v 0.00161835 0.000284804 2.19679e-05 
v 0.00161674 0.000279428 2.19679e-05 
v 0.00151615 0.000191504 2.19679e-05 
v 0.0015106 0.000190627 2.19679e-05 
v 0.00158476 0.000227297 2.19679e-05 
v 0.00159922 0.000244426 2.19679e-05 
v 0.00159589 0.000239914 2.19679e-05 
v 0.00160802 0.000258768 2.19679e-05 
v 0.0016053 0.000253862 2.19679e-05 
v 0.0016149 0.000274127 2.19679e-05 
v 0.00161283 0.00026891 2.19679e-05 
v 0.00161973 0.000290244 2.19679e-05 
v 0.00162177 0.000301277 2.19679e-05 
v 0.00162087 0.000295739 2.19679e-05 
v -0.00122695 0.000274436 2.19679e-05 
v -0.00126157 0.00020147 2.19679e-05 
v -0.00126663 0.000203949 2.19679e-05 
v 0.00150503 0.000189989 2.19679e-05 
v 0.00149943 0.000189593 2.19679e-05 
v 0.00152165 0.000192621 2.19679e-05 
v 0.00153248 0.000195559 2.19679e-05 
v 0.00152709 0.000193973 2.19679e-05 
v 0.00154301 0.000199421 2.19679e-05 
v 0.00153779 0.000197376 2.19679e-05 
v 0.00156756 0.000212909 2.19679e-05 
v 0.00156289 0.000209792 2.19679e-05 
v 0.00157647 0.000219731 2.19679e-05 
v 0.00157209 0.000216224 2.19679e-05 
v 0.00160236 0.000249079 2.19679e-05 
v 0.00161053 0.000263787 2.19679e-05 
v 0.00162286 0.000312446 2.19679e-05 
v 0.00162244 0.00030685 2.19679e-05 
v -0.0012564 0.000199213 2.19679e-05 
v -0.0012458 0.00019538 2.19679e-05 
v -0.00125114 0.000197182 2.19679e-05 
v 0.00155318 0.000204177 2.19679e-05 
v 0.00154815 0.000201689 2.19679e-05 
v 0.00155809 0.00020688 2.19679e-05 
v 0.00158069 0.000223425 2.19679e-05 
v 0.00162304 0.000318056 2.19679e-05 
v -0.00133223 0.000284774 2.19679e-05 
v -0.00133362 0.000290238 2.19679e-05 
v -0.00132437 0.000263671 2.19679e-05 
v -0.00132668 0.000268814 2.19679e-05 
v -0.00130607 0.000235339 2.19679e-05 
v -0.00130963 0.000239715 2.19679e-05 
v -0.00127158 0.000206645 2.19679e-05 
v -0.00127641 0.000209552 2.19679e-05 
v -0.00123491 0.000192481 2.19679e-05 
v -0.00124039 0.000193812 2.19679e-05 
v -0.00133676 0.000312538 2.19679e-05 
v -0.00133693 0.000318172 2.19679e-05 
v -0.00133567 0.00030132 2.19679e-05 
v -0.00133634 0.000306917 2.19679e-05 
v -0.00133061 0.000279375 2.19679e-05 
v -0.00132184 0.000258633 2.19679e-05 
v -0.00131299 0.000244241 2.19679e-05 
v -0.00128566 0.000215982 2.19679e-05 
v -0.00129007 0.000219492 2.19679e-05 
v -0.00122938 0.000191387 2.19679e-05 
v -0.00133477 0.000295756 2.19679e-05 
v -0.00132876 0.000274052 2.19679e-05 
v -0.00131615 0.000248909 2.19679e-05 
v -0.0013191 0.000253709 2.19679e-05 
v -0.00130234 0.000231121 2.19679e-05 
v -0.00129433 0.00022319 2.19679e-05 
v -0.00129842 0.000227068 2.19679e-05 
v -0.0012811 0.000212667 2.19679e-05 
v 0.001623 0.000323667 2.19679e-05 
v 0.00149382 0.000189455 2.19679e-05 
v 0.001623 0.000324434 2.19679e-05 
v 0.00149305 0.000274436 2.19679e-05 
v 0.00161305 0.000329436 2.19679e-05 
v -0.00133687 0.000323808 2.19679e-05 
v -0.00133655 0.000329436 2.19679e-05 
v 0.00149305 0.000189436 2.19679e-05 
v -0.00122695 0.000190984 2.19679e-05 
vn 0 0 -1 
vn 0 0 -1 
vn 0 0 -1 
vn 0 0 -1 
vn 0 0 -1 
vn 0 0 -1 
vn 0 0 -1 
vn 0 0 -1 
vn 0 0 -1 
vn 0 0 -1 
vn 0 0 -1 
vn 0 0 -1 
vn 0 0 -1 
vn 0 0 -1 
vn 0 0 -1 
vn 0 0 -1 
vn 0 0 -1 
vn 0 0 -1 
vn 0 0 -1 
vn 0 0 -1 
vn 0 0 -1 
vn 0 0 -1 
vn 0 0 -1 
vn 0 0 -1 
vn 0 0 -1 
vn 0 0 -1 
vn 0 0 -1 
vn 0 0 -1 
vn 0 0 -1 
vn 0 0 -1 
vn 0 0 -1 
vn 0 0 -1 
vn 0 0 -1 
vn 0 0 -1 
vn 0 0 -1 
vn 0 0 -1 
vn 0 0 -1 
vn 0 0 -1 
vn 0 0 -1 
vn 0 0 -1 
vn 0 0 -1 
vn 0 0 -1 
vn 0 0 -1 
vn 0 0 -1 
vn 0 0 -1 
vn 0 0 -1 
vn 0 0 -1 
vn 0 0 -1 
vn 0 0 -1 
vn 0 0 -1 
vn 0 0 -1 
vn 0 0 -1 
vn 0 0 -1 
vn 0 0 -1 
vn 0 0 -1 
vn 0 0 -1 
vn 0 0 -1 
vn 0 0 -1 
vn 0 0 -1 
vn 0 0 -1 
vn 0 0 -1 
vn 0 0 -1 
vn 0 0 -1 
vn 0 0 -1 
vn 0 0 -1 
vn 0 0 -1 
vn 0 0 -1 
vn 0 0 -1 
vn 0 0 -1 
vn 0 0 -1 
vn 0 0 -1 
vn 0 0 -1 
vn 0 0 -1 
vn 0 0 -1 
vn 0 0 -1 
vn 0 0 -1 
vn 0 0 -1 
vn 0 0 -1 
vn 0 0 -1 
vn 0 0 -1 
f 515//515 516//516 517//517 
f 515//515 518//518 519//519 
f 515//515 520//520 521//521 
f 517//517 522//522 515//515 
f 515//515 523//523 524//524 
f 515//515 525//525 526//526 
f 515//515 527//527 528//528 
f 515//515 529//529 518//518 
f 515//515 530//530 531//531 
f 532//532 533//533 534//534 
f 515//515 535//535 536//536 
f 515//515 537//537 520//520 
f 515//515 538//538 539//539 
f 515//515 540//540 541//541 
f 515//515 542//542 543//543 
f 515//515 544//544 545//545 
f 524//524 516//516 515//515 
f 526//526 546//546 515//515 
f 528//528 547//547 515//515 
f 531//531 529//529 515//515 
f 515//515 548//548 549//549 
f 532//532 550//550 533//533 
f 532//532 551//551 552//552 
f 521//521 535//535 515//515 
f 541//541 538//538 515//515 
f 515//515 553//553 554//554 
f 543//543 555//555 515//515 
f 515//515 556//556 544//544 
f 546//546 523//523 515//515 
f 519//519 527//527 515//515 
f 515//515 557//557 548//548 
f 532//532 558//558 559//559 
f 532//532 560//560 561//561 
f 532//532 562//562 563//563 
f 532//532 564//564 565//565 
f 552//552 550//550 532//532 
f 532//532 566//566 567//567 
f 539//539 537//537 515//515 
f 555//555 553//553 515//515 
f 522//522 556//556 515//515 
f 549//549 530//530 515//515 
f 532//532 568//568 569//569 
f 532//532 570//570 571//571 
f 532//532 572//572 558//558 
f 532//532 573//573 560//560 
f 563//563 574//574 532//532 
f 532//532 575//575 576//576 
f 534//534 564//564 532//532 
f 532//532 577//577 566//566 
f 554//554 540//540 515//515 
f 547//547 525//525 515//515 
f 571//571 568//568 532//532 
f 559//559 578//578 532//532 
f 561//561 579//579 532//532 
f 532//532 580//580 581//581 
f 532//532 582//582 562//562 
f 532//532 583//583 584//584 
f 532//532 585//585 575//575 
f 567//567 551//551 532//532 
f 545//545 542//542 515//515 
f 578//578 570//570 532//532 
f 581//581 573//573 532//532 
f 584//584 582//582 532//532 
f 565//565 585//585 532//532 
f 515//515 586//586 557//557 
f 579//579 572//572 532//532 
f 576//576 583//583 532//532 
f 536//536 587//587 515//515 
f 574//574 580//580 532//532 
f 515//515 588//588 586//586 
f 589//589 590//590 515//515 
f 569//569 591//591 532//532 
f 592//592 590//590 589//589 
f 515//515 593//593 589//589 
f 532//532 594//594 577//577 
f 587//587 593//593 515//515 
f 589//589 532//532 592//592 
f 591//591 592//592 532//532 
o mesh502
v 0.00161305 0.000324436 4.69679e-05 
v 0.00158474 0.000227311 4.69679e-05 
v 0.0015885 0.000231181 4.69679e-05 
v 0.00158068 0.000223437 4.69679e-05 
v 0.0015845 0.000227063 4.69679e-05 
v 0.00158865 0.000231343 4.69679e-05 
v 0.00159183 0.00023489 4.69679e-05 
v 0.00159924 0.000244417 4.69679e-05 
v 0.00160128 0.000247357 4.69679e-05 
v 0.0015959 0.000239904 4.69679e-05 
v 0.00159831 0.000243086 4.69679e-05 
v 0.00159237 0.000235545 4.69679e-05 
v 0.00159517 0.000238934 4.69679e-05 
v 0.00162249 0.000306845 4.69679e-05 
v 0.0016225 0.000306988 4.69679e-05 
v 0.0016053 0.000253864 4.69679e-05 
v 0.00160672 0.000256318 4.69679e-05 
v 0.00160237 0.000249074 4.69679e-05 
v 0.00160408 0.000251762 4.69679e-05 
v 0.00149381 0.000189499 4.69679e-05 
v 0.00151614 0.000191526 4.69679e-05 
v -0.00122695 0.000274436 4.69679e-05 
v -0.00127158 0.000206645 4.69679e-05 
v -0.00126663 0.000203949 4.69679e-05 
v 0.00162289 0.000312226 4.69679e-05 
v 0.00162182 0.00030127 4.69679e-05 
v 0.00162191 0.000301807 4.69679e-05 
v 0.00161279 0.000268926 4.69679e-05 
v 0.0016137 0.000271079 4.69679e-05 
v 0.00161051 0.000263801 4.69679e-05 
v 0.00161153 0.000265955 4.69679e-05 
v 0.00155318 0.000204172 4.69679e-05 
v 0.00155468 0.000204936 4.69679e-05 
v 0.00154814 0.000201699 4.69679e-05 
v 0.00155001 0.000202557 4.69679e-05 
v 0.00151948 0.000192151 4.69679e-05 
v -0.0012564 0.000199213 4.69679e-05 
v -0.00125114 0.000197182 4.69679e-05 
v -0.00126157 0.00020147 4.69679e-05 
v 0.00162091 0.00029573 4.69679e-05 
v 0.0016211 0.000296666 4.69679e-05 
v 0.00161486 0.00027414 4.69679e-05 
v 0.00161573 0.000276442 4.69679e-05 
v 0.00160801 0.000258777 4.69679e-05 
v 0.0016092 0.000261042 4.69679e-05 
v 0.001543 0.000199455 4.69679e-05 
v 0.00154548 0.000200479 4.69679e-05 
v 0.00153777 0.000197419 4.69679e-05 
v 0.00154025 0.000198323 4.69679e-05 
v 0.00153246 0.000195601 4.69679e-05 
v 0.00153504 0.000196423 4.69679e-05 
v 0.00152164 0.000192649 4.69679e-05 
v 0.00152467 0.000193347 4.69679e-05 
v 0.00149305 0.000189436 4.69679e-05 
v -0.0012458 0.00019538 4.69679e-05 
v -0.00124039 0.000193812 4.69679e-05 
v -0.0012811 0.000212667 4.69679e-05 
v -0.00127641 0.000209552 4.69679e-05 
v -0.00131299 0.000244241 4.69679e-05 
v -0.00130963 0.000239715 4.69679e-05 
v -0.00132876 0.000274052 4.69679e-05 
v -0.00132668 0.000268814 4.69679e-05 
v -0.00133477 0.000295756 4.69679e-05 
v -0.00133362 0.000290238 4.69679e-05 
v 0.00161976 0.000290237 4.69679e-05 
v 0.00162008 0.000291545 4.69679e-05 
v 0.00152708 0.000194009 4.69679e-05 
v 0.00152985 0.000194769 4.69679e-05 
v -0.00123491 0.000192481 4.69679e-05 
v -0.00129433 0.00022319 4.69679e-05 
v -0.00129007 0.000219492 4.69679e-05 
v -0.00131615 0.000248909 4.69679e-05 
v -0.00132437 0.000263671 4.69679e-05 
v -0.00133223 0.000284774 4.69679e-05 
v -0.00133676 0.000312538 4.69679e-05 
v -0.00133634 0.000306917 4.69679e-05 
v -0.00133687 0.000323808 4.69679e-05 
v -0.00133693 0.000318172 4.69679e-05 
v 0.00161836 0.000284801 4.69679e-05 
v 0.00161883 0.000286429 4.69679e-05 
v 0.00161673 0.000279431 4.69679e-05 
v 0.00161734 0.000281283 4.69679e-05 
v 0.00156757 0.000212891 4.69679e-05 
v 0.00156796 0.000213157 4.69679e-05 
v 0.0015629 0.000209772 4.69679e-05 
v 0.00156364 0.000210228 4.69679e-05 
v 0.00150499 0.000190414 4.69679e-05 
v 0.00151058 0.000190872 4.69679e-05 
v 0.0014994 0.000189956 4.69679e-05 
v -0.00128566 0.000215982 4.69679e-05 
v -0.00130234 0.000231121 4.69679e-05 
v -0.00129842 0.000227068 4.69679e-05 
v -0.00130607 0.000235339 4.69679e-05 
v -0.00132184 0.000258633 4.69679e-05 
v -0.0013191 0.000253709 4.69679e-05 
v -0.00133061 0.000279375 4.69679e-05 
v -0.00133567 0.00030132 4.69679e-05 
v 0.00162305 0.000318056 4.69679e-05 
v 0.00162301 0.000323667 4.69679e-05 
v 0.00162289 0.000312445 4.69679e-05 
v 0.00162306 0.00031754 4.69679e-05 
v 0.0015581 0.000206863 4.69679e-05 
v 0.00155922 0.000207491 4.69679e-05 
v 0.0015721 0.000216213 4.69679e-05 
v 0.0015722 0.000216288 4.69679e-05 
v 0.00157647 0.000219733 4.69679e-05 
v 0.00158046 0.000223223 4.69679e-05 
v 0.00157636 0.000219638 4.69679e-05 
v 0.00151425 0.000191172 4.69679e-05 
v -0.00133655 0.000329436 4.69679e-05 
v 0.00149305 0.000274436 4.69679e-05 
v -0.00122938 0.000191387 4.69679e-05 
v 0.001623 0.000324434 4.69679e-05 
v -0.00122695 0.000190984 4.69679e-05 
v 0.00161305 0.000329436 4.69679e-05 
vn 0 0 1 
vn 0 0 1 
vn 0 0 1 
vn 0 0 1 
vn 0 0 1 
vn 0 0 1 
vn 0 0 1 
vn 0 0 1 
vn 0 0 1 
vn 0 0 1 
vn 0 0 1 
vn 0 0 1 
vn 0 0 1 
vn 0 0 1 
vn 0 0 1 
vn 0 0 1 
vn 0 0 1 
vn 0 0 1 
vn 0 0 1 
vn 0 0 1 
vn 0 0 1 
vn 0 0 1 
vn 0 0 1 
vn 0 0 1 
vn 0 0 1 
vn 0 0 1 
vn 0 0 1 
vn 0 0 1 
vn 0 0 1 
vn 0 0 1 
vn 0 0 1 
vn 0 0 1 
vn 0 0 1 
vn 0 0 1 
vn 0 0 1 
vn 0 0 1 
vn 0 0 1 
vn 0 0 1 
vn 0 0 1 
vn 0 0 1 
vn 0 0 1 
vn 0 0 1 
vn 0 0 1 
vn 0 0 1 
vn 0 0 1 
vn 0 0 1 
vn 0 0 1 
vn 0 0 1 
vn 0 0 1 
vn 0 0 1 
vn 0 0 1 
vn 0 0 1 
vn 0 0 1 
vn 0 0 1 
vn 0 0 1 
vn 0 0 1 
vn 0 0 1 
vn 0 0 1 
vn 0 0 1 
vn 0 0 1 
vn 0 0 1 
vn 0 0 1 
vn 0 0 1 
vn 0 0 1 
vn 0 0 1 
vn 0 0 1 
vn 0 0 1 
vn 0 0 1 
vn 0 0 1 
vn 0 0 1 
vn 0 0 1 
vn 0 0 1 
vn 0 0 1 
vn 0 0 1 
vn 0 0 1 
vn 0 0 1 
vn 0 0 1 
vn 0 0 1 
vn 0 0 1 
vn 0 0 1 
vn 0 0 1 
vn 0 0 1 
vn 0 0 1 
vn 0 0 1 
vn 0 0 1 
vn 0 0 1 
vn 0 0 1 
vn 0 0 1 
vn 0 0 1 
vn 0 0 1 
vn 0 0 1 
vn 0 0 1 
vn 0 0 1 
vn 0 0 1 
vn 0 0 1 
vn 0 0 1 
vn 0 0 1 
vn 0 0 1 
vn 0 0 1 
vn 0 0 1 
vn 0 0 1 
vn 0 0 1 
vn 0 0 1 
vn 0 0 1 
vn 0 0 1 
vn 0 0 1 
vn 0 0 1 
vn 0 0 1 
vn 0 0 1 
vn 0 0 1 
vn 0 0 1 
vn 0 0 1 
vn 0 0 1 
vn 0 0 1 
vn 0 0 1 
f 595//595 596//596 597//597 
f 595//595 598//598 599//599 
f 595//595 600//600 601//601 
f 599//599 596//596 595//595 
f 595//595 602//602 603//603 
f 595//595 604//604 605//605 
f 595//595 606//606 607//607 
f 597//597 600//600 595//595 
f 595//595 608//608 609//609 
f 595//595 610//610 611//611 
f 595//595 612//612 613//613 
f 605//605 602//602 595//595 
f 601//601 606//606 595//595 
f 595//595 614//614 615//615 
f 616//616 617//617 618//618 
f 609//609 619//619 595//595 
f 595//595 620//620 621//621 
f 595//595 622//622 623//623 
f 595//595 624//624 625//625 
f 613//613 610//610 595//595 
f 607//607 604//604 595//595 
f 595//595 626//626 627//627 
f 595//595 628//628 629//629 
f 615//615 630//630 595//595 
f 616//616 631//631 632//632 
f 618//618 633//633 616//616 
f 621//621 608//608 595//595 
f 595//595 634//634 635//635 
f 595//595 636//636 637//637 
f 625//625 622//622 595//595 
f 595//595 638//638 639//639 
f 603//603 612//612 595//595 
f 629//629 626//626 595//595 
f 595//595 640//640 641//641 
f 595//595 642//642 643//643 
f 595//595 644//644 645//645 
f 595//595 646//646 647//647 
f 595//595 648//648 614//614 
f 616//616 649//649 650//650 
f 633//633 631//631 616//616 
f 616//616 651//651 652//652 
f 616//616 653//653 654//654 
f 616//616 655//655 656//656 
f 616//616 657//657 658//658 
f 635//635 620//620 595//595 
f 595//595 659//659 660//660 
f 623//623 636//636 595//595 
f 611//611 638//638 595//595 
f 641//641 628//628 595//595 
f 645//645 642//642 595//595 
f 595//595 661//661 662//662 
f 630//630 646//646 595//595 
f 650//650 663//663 616//616 
f 652//652 617//617 616//616 
f 616//616 664//664 665//665 
f 616//616 666//666 653//653 
f 656//656 667//667 616//616 
f 658//658 668//668 616//616 
f 616//616 669//669 670//670 
f 616//616 671//671 672//672 
f 660//660 634//634 595//595 
f 595//595 673//673 674//674 
f 595//595 675//675 676//676 
f 639//639 624//624 595//595 
f 595//595 677//677 678//678 
f 595//595 679//679 680//680 
f 615//615 681//681 682//682 
f 615//615 614//614 683//683 
f 643//643 640//640 595//595 
f 647//647 661//661 595//595 
f 632//632 649//649 616//616 
f 665//665 684//684 616//616 
f 616//616 685//685 686//686 
f 654//654 687//687 616//616 
f 616//616 688//688 689//689 
f 616//616 690//690 655//655 
f 616//616 691//691 657//657 
f 672//672 669//669 616//616 
f 595//595 692//692 693//693 
f 595//595 694//694 695//695 
f 674//674 659//659 595//595 
f 637//637 675//675 595//595 
f 680//680 677//677 595//595 
f 595//595 696//696 697//697 
f 683//683 681//681 615//615 
f 662//662 644//644 595//595 
f 684//684 651//651 616//616 
f 687//687 685//685 616//616 
f 667//667 688//688 616//616 
f 670//670 691//691 616//616 
f 695//695 692//692 595//595 
f 676//676 673//673 595//595 
f 595//595 698//698 699//699 
f 697//697 679//679 595//595 
f 627//627 696//696 595//595 
f 686//686 664//664 616//616 
f 668//668 690//690 616//616 
f 619//619 694//694 595//595 
f 595//595 700//700 701//701 
f 699//699 702//702 595//595 
f 682//682 703//703 615//615 
f 689//689 666//666 616//616 
f 701//701 598//598 595//595 
f 678//678 698//698 595//595 
f 616//616 704//704 671//671 
f 705//705 648//648 595//595 
f 702//702 700//700 595//595 
f 704//704 616//616 705//705 
f 663//663 706//706 616//616 
f 693//693 707//707 595//595 
f 706//706 708//708 616//616 
f 705//705 709//709 704//704 
f 595//595 709//709 705//705 
o mesh503
v 0.001623 0.000323667 2.19679e-05 
v 0.00162301 0.000323667 4.69679e-05 
v 0.00162305 0.000318056 4.69679e-05 
v 0.00162286 0.000312446 2.19679e-05 
v 0.00162304 0.000318056 2.19679e-05 
v 0.00162306 0.00031754 4.69679e-05 
v 0.00162244 0.00030685 2.19679e-05 
v 0.00162289 0.000312226 4.69679e-05 
v 0.0016225 0.000306988 4.69679e-05 
v 0.00162289 0.000312445 4.69679e-05 
v 0.00162249 0.000306845 4.69679e-05 
v 0.00162191 0.000301807 4.69679e-05 
v 0.00162177 0.000301277 2.19679e-05 
v 0.00162182 0.00030127 4.69679e-05 
v 0.0016211 0.000296666 4.69679e-05 
v 0.00162087 0.000295739 2.19679e-05 
v 0.00162091 0.00029573 4.69679e-05 
v 0.00162008 0.000291545 4.69679e-05 
v 0.00161973 0.000290244 2.19679e-05 
v 0.00161976 0.000290237 4.69679e-05 
v 0.00161883 0.000286429 4.69679e-05 
v 0.00161835 0.000284804 2.19679e-05 
v 0.00161836 0.000284801 4.69679e-05 
v 0.00161734 0.000281283 4.69679e-05 
v 0.00161674 0.000279428 2.19679e-05 
v 0.00161673 0.000279431 4.69679e-05 
v 0.00161573 0.000276442 4.69679e-05 
v 0.0016149 0.000274127 2.19679e-05 
v 0.00161486 0.00027414 4.69679e-05 
v 0.0016137 0.000271079 4.69679e-05 
v 0.00161283 0.00026891 2.19679e-05 
v 0.00161279 0.000268926 4.69679e-05 
v 0.00161153 0.000265955 4.69679e-05 
v 0.00161053 0.000263787 2.19679e-05 
v 0.00161051 0.000263801 4.69679e-05 
v 0.0016092 0.000261042 4.69679e-05 
v 0.00160802 0.000258768 2.19679e-05 
v 0.0016053 0.000253862 2.19679e-05 
v 0.00160672 0.000256318 4.69679e-05 
v 0.00160801 0.000258777 4.69679e-05 
v 0.00160236 0.000249079 2.19679e-05 
v 0.00160408 0.000251762 4.69679e-05 
v 0.0016053 0.000253864 4.69679e-05 
v 0.00159922 0.000244426 2.19679e-05 
v 0.00160128 0.000247357 4.69679e-05 
v 0.00160237 0.000249074 4.69679e-05 
v 0.00159589 0.000239914 2.19679e-05 
v 0.00159831 0.000243086 4.69679e-05 
v 0.00159924 0.000244417 4.69679e-05 
v 0.00159236 0.000235549 2.19679e-05 
v 0.00159517 0.000238934 4.69679e-05 
v 0.0015959 0.000239904 4.69679e-05 
v 0.00158865 0.000231341 2.19679e-05 
v 0.00159183 0.00023489 4.69679e-05 
v 0.00159237 0.000235545 4.69679e-05 
v 0.00158476 0.000227297 2.19679e-05 
v 0.0015885 0.000231181 4.69679e-05 
v 0.00158865 0.000231343 4.69679e-05 
v 0.00158069 0.000223425 2.19679e-05 
v 0.0015845 0.000227063 4.69679e-05 
v 0.00158474 0.000227311 4.69679e-05 
v 0.00157647 0.000219731 2.19679e-05 
v 0.00158046 0.000223223 4.69679e-05 
v 0.00158068 0.000223437 4.69679e-05 
v 0.00157209 0.000216224 2.19679e-05 
v 0.00157636 0.000219638 4.69679e-05 
v 0.0015722 0.000216288 4.69679e-05 
v 0.00157647 0.000219733 4.69679e-05 
v 0.0015721 0.000216213 4.69679e-05 
v 0.00156796 0.000213157 4.69679e-05 
v 0.00156756 0.000212909 2.19679e-05 
v 0.00156757 0.000212891 4.69679e-05 
v 0.00156364 0.000210228 4.69679e-05 
v 0.00156289 0.000209792 2.19679e-05 
v 0.0015629 0.000209772 4.69679e-05 
v 0.00155922 0.000207491 4.69679e-05 
v 0.00155809 0.00020688 2.19679e-05 
v 0.0015581 0.000206863 4.69679e-05 
v 0.00155468 0.000204936 4.69679e-05 
v 0.00155318 0.000204177 2.19679e-05 
v 0.00155318 0.000204172 4.69679e-05 
v 0.00155001 0.000202557 4.69679e-05 
v 0.00154815 0.000201689 2.19679e-05 
v 0.00154814 0.000201699 4.69679e-05 
v 0.00154548 0.000200479 4.69679e-05 
v 0.00154301 0.000199421 2.19679e-05 
v 0.001543 0.000199455 4.69679e-05 
v 0.00154025 0.000198323 4.69679e-05 
v 0.00153779 0.000197376 2.19679e-05 
v 0.00153777 0.000197419 4.69679e-05 
v 0.00153504 0.000196423 4.69679e-05 
v 0.00153248 0.000195559 2.19679e-05 
v 0.00152709 0.000193973 2.19679e-05 
v 0.00152985 0.000194769 4.69679e-05 
v 0.00153246 0.000195601 4.69679e-05 
v 0.00152165 0.000192621 2.19679e-05 
v 0.00152467 0.000193347 4.69679e-05 
v 0.00152708 0.000194009 4.69679e-05 
v 0.00151615 0.000191504 2.19679e-05 
v 0.00151948 0.000192151 4.69679e-05 
v 0.00152164 0.000192649 4.69679e-05 
v 0.0015106 0.000190627 2.19679e-05 
v 0.00151425 0.000191172 4.69679e-05 
v 0.00151614 0.000191526 4.69679e-05 
v 0.00151058 0.000190872 4.69679e-05 
v 0.00150499 0.000190414 4.69679e-05 
v 0.00150503 0.000189989 2.19679e-05 
v 0.0014994 0.000189956 4.69679e-05 
v 0.00149943 0.000189593 2.19679e-05 
v 0.00149381 0.000189499 4.69679e-05 
v 0.001623 0.000324434 2.19679e-05 
v 0.001623 0.000324434 4.69679e-05 
v 0.00149305 0.000189436 4.69679e-05 
v 0.00149305 0.000189436 2.19679e-05 
v 0.00149382 0.000189455 2.19679e-05 
vn 0.99947 0.0325444 0 
vn 0.99947 0.0325445 0 
vn 0.999944 -0.0106162 0 
vn 0.998554 -0.0537656 0 
vn 0.999944 -0.0106179 0 
vn 0.999894 -0.0145803 0 
vn 0.995303 -0.096813 0 
vn 0.998462 -0.0554421 0 
vn 0.995409 -0.0957131 0 
vn 0.998554 -0.0537599 0 
vn 0.995302 -0.0968196 0 
vn 0.990772 -0.135542 0 
vn 0.990197 -0.13968 0 
vn 0.990196 -0.139686 0 
vn 0.984555 -0.175074 0 
vn 0.983245 -0.182287 0 
vn 0.983245 -0.182291 0 
vn 0.976734 -0.214454 0 
vn 0.974462 -0.224554 0 
vn 0.974461 -0.224557 0 
vn 0.967251 -0.253822 0 
vn 0.963862 -0.266402 0 
vn 0.963862 -0.266403 0 
vn 0.955977 -0.29344 0 
vn 0.951466 -0.307754 0 
vn 0.951466 -0.307754 0 
vn 0.943726 -0.330728 0 
vn 0.937297 -0.348533 0 
vn 0.937297 -0.348531 0 
vn 0.928228 -0.372012 0 
vn 0.921381 -0.388662 0 
vn 0.921381 -0.388661 0 
vn 0.911444 -0.411424 0 
vn 0.903747 -0.428066 0 
vn 0.903747 -0.428066 0 
vn 0.893443 -0.449177 0 
vn 0.88443 -0.466673 0 
vn 0.863464 -0.50441 0 
vn 0.874259 -0.48546 0 
vn 0.88443 -0.466673 0 
vn 0.840889 -0.541207 0 
vn 0.853894 -0.520447 0 
vn 0.863464 -0.50441 0 
vn 0.816747 -0.576996 0 
vn 0.832323 -0.554291 0 
vn 0.840889 -0.541207 0 
vn 0.791083 -0.611709 0 
vn 0.809493 -0.58713 0 
vn 0.816748 -0.576995 0 
vn 0.763944 -0.645282 0 
vn 0.785323 -0.619086 0 
vn 0.791084 -0.611708 0 
vn 0.735382 -0.677653 0 
vn 0.759717 -0.650254 0 
vn 0.763945 -0.645282 0 
vn 0.705449 -0.70876 0 
vn 0.73425 -0.678879 0 
vn 0.735382 -0.677653 0 
vn 0.674202 -0.738547 0 
vn 0.703564 -0.710632 0 
vn 0.705448 -0.708762 0 
vn 0.641698 -0.766957 0 
vn 0.672431 -0.74016 0 
vn 0.6742 -0.738549 0 
vn 0.607998 -0.793938 0 
vn 0.64085 -0.767666 0 
vn 0.608776 -0.793342 0 
vn 0.641698 -0.766958 0 
vn 0.607997 -0.79394 0 
vn 0.576144 -0.817348 0 
vn 0.573165 -0.81944 0 
vn 0.573163 -0.819441 0 
vn 0.54287 -0.839817 0 
vn 0.537264 -0.843414 0 
vn 0.537262 -0.843415 0 
vn 0.508852 -0.860854 0 
vn 0.500362 -0.865816 0 
vn 0.50036 -0.865817 0 
vn 0.473968 -0.880542 0 
vn 0.462527 -0.886605 0 
vn 0.462527 -0.886605 0 
vn 0.438091 -0.89893 0 
vn 0.42383 -0.905742 0 
vn 0.423831 -0.905741 0 
vn 0.403358 -0.915042 0 
vn 0.384343 -0.92319 0 
vn 0.384344 -0.92319 0 
vn 0.363121 -0.931742 0 
vn 0.34414 -0.938918 0 
vn 0.344141 -0.938918 0 
vn 0.323053 -0.946381 0 
vn 0.303296 -0.952896 0 
vn 0.261886 -0.965099 0 
vn 0.283139 -0.959079 0 
vn 0.303296 -0.952896 0 
vn 0.219989 -0.975502 0 
vn 0.243263 -0.96996 0 
vn 0.261886 -0.965099 0 
vn 0.177681 -0.984088 0 
vn 0.203298 -0.979117 0 
vn 0.219988 -0.975503 0 
vn 0.135042 -0.99084 0 
vn 0.163113 -0.986607 0 
vn 0.17768 -0.984088 0 
vn 0.135143 -0.990826 0 
vn 0.0921863 -0.995742 0 
vn 0.0921517 -0.995745 0 
vn 0.0489979 -0.998799 0 
vn 0.0490894 -0.998794 0 
vn 0.0059004 -0.999983 0 
vn 0.999261 0.0384329 0 
vn 0.999261 0.0384325 0 
vn 2.2046e-06 -1 0 
vn 4.85013e-05 -1 0 
vn 0.00593338 -0.999982 0 
f 710//710 711//711 712//712 
f 713//713 714//714 715//715 
f 714//714 712//712 715//715 
f 716//716 713//713 717//717 
f 717//717 718//718 716//716 
f 713//713 719//719 717//717 
f 716//716 720//720 721//721 
f 721//721 722//722 716//716 
f 722//722 723//723 724//724 
f 724//724 725//725 722//722 
f 725//725 726//726 727//727 
f 727//727 728//728 725//725 
f 728//728 729//729 730//730 
f 730//730 731//731 728//728 
f 731//731 732//732 733//733 
f 733//733 734//734 731//731 
f 734//734 735//735 736//736 
f 736//736 737//737 734//734 
f 737//737 738//738 739//739 
f 739//739 740//740 737//737 
f 740//740 741//741 742//742 
f 742//742 743//743 740//740 
f 743//743 744//744 745//745 
f 745//745 746//746 743//743 
f 747//747 746//746 748//748 
f 746//746 749//749 748//748 
f 750//750 747//747 751//751 
f 747//747 752//752 751//751 
f 753//753 750//750 754//754 
f 750//750 755//755 754//754 
f 756//756 753//753 757//757 
f 753//753 758//758 757//757 
f 759//759 756//756 760//760 
f 756//756 761//761 760//760 
f 762//762 759//759 763//763 
f 759//759 764//764 763//763 
f 765//765 762//762 766//766 
f 762//762 767//767 766//766 
f 768//768 765//765 769//769 
f 765//765 770//770 769//769 
f 771//771 768//768 772//772 
f 768//768 773//773 772//772 
f 774//774 771//771 775//775 
f 775//775 776//776 774//774 
f 771//771 777//777 775//775 
f 774//774 778//778 779//779 
f 779//779 780//780 774//774 
f 780//780 781//781 782//782 
f 782//782 783//783 780//780 
f 783//783 784//784 785//785 
f 785//785 786//786 783//783 
f 786//786 787//787 788//788 
f 788//788 789//789 786//786 
f 789//789 790//790 791//791 
f 791//791 792//792 789//789 
f 792//792 793//793 794//794 
f 794//794 795//795 792//792 
f 795//795 796//796 797//797 
f 797//797 798//798 795//795 
f 798//798 799//799 800//800 
f 800//800 801//801 798//798 
f 802//802 801//801 803//803 
f 801//801 804//804 803//803 
f 805//805 802//802 806//806 
f 802//802 807//807 806//806 
f 808//808 805//805 809//809 
f 805//805 810//810 809//809 
f 811//811 808//808 812//812 
f 808//808 813//813 812//812 
f 811//811 814//814 815//815 
f 816//816 815//815 817//817 
f 818//818 817//817 819//819 
f 710//710 820//820 821//821 
f 819//819 822//822 823//823 
f 823//823 824//824 819//819 
f 821//821 711//711 710//710 
f 819//819 824//824 818//818 
f 817//817 818//818 816//816 
f 815//815 816//816 811//811 
f 812//812 814//814 811//811 
f 809//809 813//813 808//808 
f 806//806 810//810 805//805 
f 803//803 807//807 802//802 
f 800//800 804//804 801//801 
f 797//797 799//799 798//798 
f 794//794 796//796 795//795 
f 791//791 793//793 792//792 
f 788//788 790//790 789//789 
f 785//785 787//787 786//786 
f 782//782 784//784 783//783 
f 779//779 781//781 780//780 
f 776//776 778//778 774//774 
f 772//772 777//777 771//771 
f 769//769 773//773 768//768 
f 766//766 770//770 765//765 
f 763//763 767//767 762//762 
f 760//760 764//764 759//759 
f 757//757 761//761 756//756 
f 754//754 758//758 753//753 
f 751//751 755//755 750//750 
f 748//748 752//752 747//747 
f 745//745 749//749 746//746 
f 742//742 744//744 743//743 
f 739//739 741//741 740//740 
f 736//736 738//738 737//737 
f 733//733 735//735 734//734 
f 730//730 732//732 731//731 
f 727//727 729//729 728//728 
f 724//724 726//726 725//725 
f 721//721 723//723 722//722 
f 718//718 720//720 716//716 
f 715//715 719//719 713//713 
f 712//712 714//714 710//710 
o mesh504
v 0.00161305 0.000324436 2.19679e-05 
v 0.00161305 0.000329436 2.19679e-05 
v 0.00161305 0.000329436 4.69679e-05 
v 0.00161305 0.000324436 4.69679e-05 
vn 1 0 0 
vn 1 0 0 
vn 1 0 0 
vn 1 0 0 
f 825//825 826//826 827//827 
f 827//827 828//828 825//825 
o mesh505
v 0.00161305 0.000324436 4.69679e-05 
v 0.001623 0.000324434 4.69679e-05 
v 0.001623 0.000324434 2.19679e-05 
v 0.00161305 0.000324436 2.19679e-05 
vn 0 1 0 
vn 0 1 0 
vn 0 1 0 
vn 0 1 0 
f 829//829 830//830 831//831 
f 831//831 832//832 829//829 
