# OBJ generated by ONSHAPE BY PTC INC, 1.216 Units = meters
mtllib hinge_right_base.mtl
g hinge_right_base
usemtl 0.301961_0.301961_0.301961_0.000000_0.000000
o mesh506
v 0.000143054 0.000384436 6.19679e-05 
v -0.00120695 0.000374686 6.19679e-05 
v 0.000143054 0.000374436 6.19679e-05 
v 0.00149305 0.000374438 6.19679e-05 
vn 0 0 1 
vn 0 0 1 
vn 0 0 1 
vn 0 0 1 
f 1//1 2//2 3//3 
f 3//3 4//4 1//1 
o mesh507
v 0.00149305 0.000384436 0.000151968 
v -0.00120695 0.000384436 0.000151968 
v 0.000143054 0.000384436 6.19679e-05 
v -0.00120695 0.000374686 6.19679e-05 
v 0.00149305 0.000374438 6.19679e-05 
vn 0 -1 0 
vn 0 -1 0 
vn 0 -1 0 
vn 0 -1 0 
vn 0 -1 0 
f 5//5 6//6 7//7 
f 6//6 8//8 7//7 
f 7//7 9//9 5//5 
o mesh508
v -0.00120695 0.000374436 4.69679e-05 
v 0.00149305 0.000374436 4.69679e-05 
v 0.000143054 0.000374436 6.19679e-05 
v 0.00149305 0.000374438 6.19679e-05 
v -0.00120695 0.000374686 6.19679e-05 
vn 0 -1 0 
vn 0 -1 0 
vn 0 -1 0 
vn 0 -1 0 
vn 0 -1 0 
f 10//10 11//11 12//12 
f 11//11 13//13 12//12 
f 12//12 14//14 10//10 
o mesh509
v -0.00120695 0.000484436 6.19679e-05 
v -0.00120695 0.000374686 6.19679e-05 
v -0.00120695 0.000384436 0.000151968 
v -0.00120695 0.000449436 4.69679e-05 
v -0.00120695 0.000374436 4.69679e-05 
v -0.00120695 0.000474436 2.19679e-05 
v -0.00120695 0.000449436 2.19679e-05 
v -0.00120695 0.000484436 0.000151968 
vn -1 0 0 
vn -1 0 0 
vn -1 0 0 
vn -1 0 0 
vn -1 0 0 
vn -1 0 0 
vn -1 0 0 
vn -1 0 0 
f 15//15 16//16 17//17 
f 16//16 15//15 18//18 
f 18//18 19//19 16//16 
f 20//20 21//21 18//18 
f 18//18 15//15 20//20 
f 17//17 22//22 15//15 
o mesh510
v -0.00122695 0.000474436 2.19679e-05 
v -0.00121803 0.000448962 2.19679e-05 
v -0.00121249 0.000449317 2.19679e-05 
v -0.00120695 0.000474436 2.19679e-05 
v -0.00122695 0.000447887 2.19679e-05 
v -0.00122355 0.000448371 2.19679e-05 
v -0.00120695 0.000449436 2.19679e-05 
vn 0 0 1 
vn 0 0 1 
vn 0 0 1 
vn 0 0 1 
vn 0 0 1 
vn 0 0 1 
vn 0 0 1 
f 23//23 24//24 25//25 
f 25//25 26//26 23//23 
f 23//23 27//27 28//28 
f 28//28 24//24 23//23 
f 25//25 29//29 26//26 
o mesh511
v -0.00133655 0.000329436 2.19679e-05 
v -0.00133655 0.000329436 4.69679e-05 
v -0.00133601 0.000334957 4.69679e-05 
v -0.00133601 0.000334957 2.19679e-05 
v -0.00133523 0.00034045 4.69679e-05 
v -0.00133523 0.00034045 2.19679e-05 
v -0.00133422 0.000345904 4.69679e-05 
v -0.00133422 0.000345904 2.19679e-05 
v -0.00133297 0.00035131 4.69679e-05 
v -0.00133297 0.00035131 2.19679e-05 
v -0.0013315 0.000356658 4.69679e-05 
v -0.0013315 0.000356658 2.19679e-05 
v -0.0013298 0.000361939 4.69679e-05 
v -0.0013298 0.000361939 2.19679e-05 
v -0.00132787 0.000367142 4.69679e-05 
v -0.00132787 0.000367142 2.19679e-05 
v -0.00132572 0.000372258 4.69679e-05 
v -0.00132572 0.000372258 2.19679e-05 
v -0.00132336 0.000377278 4.69679e-05 
v -0.00132336 0.000377278 2.19679e-05 
v -0.00132079 0.000382192 4.69679e-05 
v -0.00132079 0.000382192 2.19679e-05 
v -0.00131801 0.000386993 4.69679e-05 
v -0.00131801 0.000386993 2.19679e-05 
v -0.00131502 0.00039167 4.69679e-05 
v -0.00131502 0.00039167 2.19679e-05 
v -0.00131184 0.000396216 4.69679e-05 
v -0.00131184 0.000396216 2.19679e-05 
v -0.00130847 0.000400622 4.69679e-05 
v -0.00130847 0.000400622 2.19679e-05 
v -0.00130492 0.00040488 4.69679e-05 
v -0.00130492 0.00040488 2.19679e-05 
v -0.00130118 0.000408982 4.69679e-05 
v -0.00130118 0.000408982 2.19679e-05 
v -0.00129728 0.000412921 4.69679e-05 
v -0.00129728 0.000412921 2.19679e-05 
v -0.0012932 0.00041669 4.69679e-05 
v -0.0012932 0.00041669 2.19679e-05 
v -0.00128898 0.000420282 4.69679e-05 
v -0.00128898 0.000420282 2.19679e-05 
v -0.0012846 0.000423691 4.69679e-05 
v -0.0012846 0.000423691 2.19679e-05 
v -0.00128008 0.000426909 4.69679e-05 
v -0.00128008 0.000426909 2.19679e-05 
v -0.00127543 0.000429932 4.69679e-05 
v -0.00127543 0.000429932 2.19679e-05 
v -0.00127065 0.000432753 4.69679e-05 
v -0.00127065 0.000432753 2.19679e-05 
v -0.00126576 0.000435368 4.69679e-05 
v -0.00126576 0.000435368 2.19679e-05 
v -0.00126076 0.000437772 4.69679e-05 
v -0.00126076 0.000437772 2.19679e-05 
v -0.00125566 0.000439961 4.69679e-05 
v -0.00125566 0.000439961 2.19679e-05 
v -0.00125047 0.00044193 4.69679e-05 
v -0.00125047 0.00044193 2.19679e-05 
v -0.00124521 0.000443676 4.69679e-05 
v -0.00124521 0.000443676 2.19679e-05 
v -0.00123987 0.000445195 4.69679e-05 
v -0.00123987 0.000445195 2.19679e-05 
v -0.00123448 0.000446486 4.69679e-05 
v -0.00123448 0.000446486 2.19679e-05 
v -0.00122903 0.000447545 4.69679e-05 
v -0.00122355 0.000448371 4.69679e-05 
v -0.00122355 0.000448371 2.19679e-05 
v -0.00122695 0.000447887 2.19679e-05 
v -0.00121803 0.000448962 4.69679e-05 
v -0.00121803 0.000448962 2.19679e-05 
v -0.00121249 0.000449317 4.69679e-05 
v -0.00121249 0.000449317 2.19679e-05 
v -0.00120695 0.000449436 4.69679e-05 
v -0.00120695 0.000449436 2.19679e-05 
v -0.00122903 0.000447545 2.19679e-05 
vn -0.997037 0.0769231 0 
vn -0.997037 0.0769231 0 
vn -0.992847 0.119392 0 
vn -0.992847 0.119392 0 
vn -0.986849 0.161644 0 
vn -0.986849 0.161644 0 
vn -0.979054 0.203601 0 
vn -0.979054 0.203601 0 
vn -0.969476 0.245188 0 
vn -0.969476 0.245188 0 
vn -0.958132 0.286328 0 
vn -0.958132 0.286328 0 
vn -0.945043 0.326946 0 
vn -0.945043 0.326946 0 
vn -0.930233 0.366969 0 
vn -0.930233 0.366969 0 
vn -0.913729 0.406324 0 
vn -0.913729 0.406324 0 
vn -0.895561 0.444939 0 
vn -0.895561 0.444939 0 
vn -0.875762 0.482743 0 
vn -0.875762 0.482743 0 
vn -0.854368 0.519669 0 
vn -0.854368 0.519669 0 
vn -0.831418 0.555647 0 
vn -0.831418 0.555647 0 
vn -0.806954 0.590614 0 
vn -0.806954 0.590614 0 
vn -0.78102 0.624506 0 
vn -0.78102 0.624506 0 
vn -0.753664 0.65726 0 
vn -0.753664 0.65726 0 
vn -0.724935 0.688817 0 
vn -0.724935 0.688817 0 
vn -0.694887 0.719119 0 
vn -0.694887 0.719119 0 
vn -0.663572 0.748112 0 
vn -0.663572 0.748112 0 
vn -0.631049 0.775743 0 
vn -0.631049 0.775743 0 
vn -0.597377 0.80196 0 
vn -0.597377 0.80196 0 
vn -0.562617 0.826718 0 
vn -0.562617 0.826718 0 
vn -0.526832 0.849969 0 
vn -0.526832 0.849969 0 
vn -0.490088 0.871673 0 
vn -0.490088 0.871673 0 
vn -0.452451 0.891789 0 
vn -0.452451 0.891789 0 
vn -0.413991 0.910281 0 
vn -0.413991 0.910281 0 
vn -0.374776 0.927115 0 
vn -0.374776 0.927115 0 
vn -0.334879 0.942261 0 
vn -0.334879 0.942261 0 
vn -0.294372 0.955691 0 
vn -0.294372 0.955691 0 
vn -0.253329 0.96738 0 
vn -0.253329 0.96738 0 
vn -0.211824 0.977308 0 
vn -0.211824 0.977308 0 
vn -0.169934 0.985455 0 
vn -0.127734 0.991808 0 
vn -0.127734 0.991808 0 
vn -0.153895 0.988087 0 
vn -0.0853018 0.996355 0 
vn -0.0853018 0.996355 0 
vn -0.042714 0.999087 0 
vn -0.042714 0.999087 0 
vn -4.85013e-05 1 0 
vn -7.05473e-05 1 0 
vn -0.169934 0.985455 0 
f 30//30 31//31 32//32 
f 33//33 32//32 34//34 
f 35//35 34//34 36//36 
f 37//37 36//36 38//38 
f 39//39 38//38 40//40 
f 41//41 40//40 42//42 
f 43//43 42//42 44//44 
f 45//45 44//44 46//46 
f 47//47 46//46 48//48 
f 49//49 48//48 50//50 
f 51//51 50//50 52//52 
f 53//53 52//52 54//54 
f 55//55 54//54 56//56 
f 57//57 56//56 58//58 
f 59//59 58//58 60//60 
f 61//61 60//60 62//62 
f 63//63 62//62 64//64 
f 65//65 64//64 66//66 
f 67//67 66//66 68//68 
f 69//69 68//68 70//70 
f 71//71 70//70 72//72 
f 73//73 72//72 74//74 
f 75//75 74//74 76//76 
f 77//77 76//76 78//78 
f 79//79 78//78 80//80 
f 81//81 80//80 82//82 
f 83//83 82//82 84//84 
f 85//85 84//84 86//86 
f 87//87 86//86 88//88 
f 89//89 88//88 90//90 
f 91//91 90//90 92//92 
f 93//93 94//94 95//95 
f 95//95 92//92 93//93 
f 94//94 93//93 96//96 
f 97//97 96//96 98//98 
f 99//99 98//98 100//100 
f 100//100 101//101 99//99 
f 98//98 99//99 97//97 
f 96//96 97//97 94//94 
f 95//95 102//102 92//92 
f 92//92 102//102 91//91 
f 90//90 91//91 89//89 
f 88//88 89//89 87//87 
f 86//86 87//87 85//85 
f 84//84 85//85 83//83 
f 82//82 83//83 81//81 
f 80//80 81//81 79//79 
f 78//78 79//79 77//77 
f 76//76 77//77 75//75 
f 74//74 75//75 73//73 
f 72//72 73//73 71//71 
f 70//70 71//71 69//69 
f 68//68 69//69 67//67 
f 66//66 67//67 65//65 
f 64//64 65//65 63//63 
f 62//62 63//63 61//61 
f 60//60 61//61 59//59 
f 58//58 59//59 57//57 
f 56//56 57//57 55//55 
f 54//54 55//55 53//53 
f 52//52 53//53 51//51 
f 50//50 51//51 49//49 
f 48//48 49//49 47//47 
f 46//46 47//47 45//45 
f 44//44 45//45 43//43 
f 42//42 43//43 41//41 
f 40//40 41//41 39//39 
f 38//38 39//39 37//37 
f 36//36 37//37 35//35 
f 34//34 35//35 33//33 
f 32//32 33//33 30//30 
o mesh512
v -0.00133655 0.000329436 4.69679e-05 
v -0.00133655 0.000329436 2.19679e-05 
v 0.00161305 0.000329436 2.19679e-05 
v 0.00161305 0.000329436 4.69679e-05 
vn 0 -1 0 
vn 0 -1 0 
vn 0 -1 0 
vn 0 -1 0 
f 103//103 104//104 105//105 
f 105//105 106//106 103//103 
o mesh513
v 0.00161305 0.000329436 4.69679e-05 
v 0.00161305 0.000329436 2.19679e-05 
v 0.00161305 0.000334436 2.19679e-05 
v 0.00161305 0.000334436 4.69679e-05 
vn 1 0 0 
vn 1 0 0 
vn 1 0 0 
vn 1 0 0 
f 107//107 108//108 109//109 
f 109//109 110//110 107//107 
o mesh514
v 0.00150047 0.000449229 4.69679e-05 
v 0.00160619 0.00038394 4.69679e-05 
v 0.001606 0.000384275 4.69679e-05 
v -0.00120695 0.000374436 4.69679e-05 
v -0.00122903 0.000447545 4.69679e-05 
v -0.00123448 0.000446486 4.69679e-05 
v -0.00121803 0.000448962 4.69679e-05 
v -0.00122355 0.000448371 4.69679e-05 
v 0.00154406 0.000438968 4.69679e-05 
v 0.00154211 0.000439814 4.69679e-05 
v 0.00153885 0.000441078 4.69679e-05 
v 0.00160011 0.000393435 4.69679e-05 
v 0.00159737 0.000397198 4.69679e-05 
v 0.00160326 0.000388764 4.69679e-05 
v 0.00160047 0.000392939 4.69679e-05 
v 0.00160334 0.000388635 4.69679e-05 
v 0.00160889 0.000378992 4.69679e-05 
v 0.00160846 0.000379845 4.69679e-05 
v -0.0013315 0.000356658 4.69679e-05 
v -0.00133297 0.00035131 4.69679e-05 
v -0.0012932 0.00041669 4.69679e-05 
v -0.00129728 0.000412921 4.69679e-05 
v -0.00123987 0.000445195 4.69679e-05 
v -0.00124521 0.000443676 4.69679e-05 
v -0.00120695 0.000449436 4.69679e-05 
v -0.00121249 0.000449317 4.69679e-05 
v 0.00152817 0.000444622 4.69679e-05 
v 0.00153355 0.000442968 4.69679e-05 
v 0.00154918 0.000436648 4.69679e-05 
v 0.00154732 0.00043755 4.69679e-05 
v 0.00155421 0.000434117 4.69679e-05 
v 0.00155229 0.000435144 4.69679e-05 
v -0.00133422 0.000345904 4.69679e-05 
v -0.00128898 0.000420282 4.69679e-05 
v -0.00127543 0.000429932 4.69679e-05 
v -0.00128008 0.000426909 4.69679e-05 
v -0.00125566 0.000439961 4.69679e-05 
v -0.00126076 0.000437772 4.69679e-05 
v -0.00125047 0.00044193 4.69679e-05 
v 0.00157307 0.000421895 4.69679e-05 
v 0.00150608 0.000448803 4.69679e-05 
v 0.00150602 0.00044881 4.69679e-05 
v 0.00152272 0.000446034 4.69679e-05 
v 0.00152156 0.00044632 4.69679e-05 
v 0.00152662 0.000445072 4.69679e-05 
v 0.00153679 0.000441874 4.69679e-05 
v 0.00155912 0.000431375 4.69679e-05 
v 0.00155705 0.000432596 4.69679e-05 
v 0.00156391 0.000428422 4.69679e-05 
v 0.00156161 0.000429904 4.69679e-05 
v 0.00158161 0.000414578 4.69679e-05 
v 0.00157845 0.000417468 4.69679e-05 
v 0.00158564 0.000410649 4.69679e-05 
v 0.00158223 0.000414017 4.69679e-05 
v 0.00159676 0.000397962 4.69679e-05 
v 0.00159402 0.000401425 4.69679e-05 
v -0.0013298 0.000361939 4.69679e-05 
v -0.00131801 0.000386993 4.69679e-05 
v -0.00132079 0.000382192 4.69679e-05 
v -0.00131184 0.000396216 4.69679e-05 
v -0.00131502 0.00039167 4.69679e-05 
v -0.0012846 0.000423691 4.69679e-05 
v -0.00127065 0.000432753 4.69679e-05 
v -0.00126576 0.000435368 4.69679e-05 
v 0.00150067 0.000449222 4.69679e-05 
v 0.00151166 0.000448125 4.69679e-05 
v 0.00151128 0.000448188 4.69679e-05 
v 0.00151722 0.000447202 4.69679e-05 
v 0.00151645 0.000447358 4.69679e-05 
v 0.00156856 0.00042526 4.69679e-05 
v 0.00156601 0.000427062 4.69679e-05 
v 0.00157025 0.000424064 4.69679e-05 
v 0.00157742 0.00041833 4.69679e-05 
v 0.00157436 0.000420901 4.69679e-05 
v 0.00159323 0.000402342 4.69679e-05 
v 0.0015904 0.00040563 4.69679e-05 
v 0.00161305 0.000334436 4.69679e-05 
v 0.00162012 0.000347215 4.69679e-05 
v 0.00161933 0.000350873 4.69679e-05 
v -0.00133523 0.00034045 4.69679e-05 
v -0.00132572 0.000372258 4.69679e-05 
v -0.00132787 0.000367142 4.69679e-05 
v -0.00130118 0.000408982 4.69679e-05 
v -0.00130492 0.00040488 4.69679e-05 
v 0.00158952 0.000406571 4.69679e-05 
v 0.00158648 0.000409825 4.69679e-05 
v 0.00161135 0.000373925 4.69679e-05 
v 0.00161072 0.000375331 4.69679e-05 
v 0.00161359 0.000368751 4.69679e-05 
v 0.0016128 0.000370716 4.69679e-05 
v 0.00161559 0.00036348 4.69679e-05 
v 0.0016147 0.000365983 4.69679e-05 
v 0.00161734 0.000358126 4.69679e-05 
v 0.00161642 0.000361113 4.69679e-05 
v 0.00161885 0.0003527 4.69679e-05 
v 0.00161797 0.000356084 4.69679e-05 
v 0.00162116 0.000341682 4.69679e-05 
v 0.00162051 0.00034545 4.69679e-05 
v -0.00132336 0.000377278 4.69679e-05 
v -0.00130847 0.000400622 4.69679e-05 
v 0.00149305 0.000374436 4.69679e-05 
v 0.00161305 0.000329436 4.69679e-05 
v 0.00153166 0.000443606 4.69679e-05 
v 0.00162149 0.000339793 4.69679e-05 
v -0.00133601 0.000334957 4.69679e-05 
v 0.00149519 0.000449419 4.69679e-05 
v 0.00162257 0.000334384 4.69679e-05 
v 0.00162221 0.000336162 4.69679e-05 
v -0.00133655 0.000329436 4.69679e-05 
v 0.00149484 0.000449422 4.69679e-05 
v 0.00149305 0.000449436 4.69679e-05 
vn 0 0 1 
vn 0 0 1 
vn 0 0 1 
vn 0 0 1 
vn 0 0 1 
vn 0 0 1 
vn 0 0 1 
vn 0 0 1 
vn 0 0 1 
vn 0 0 1 
vn 0 0 1 
vn 0 0 1 
vn 0 0 1 
vn 0 0 1 
vn 0 0 1 
vn 0 0 1 
vn 0 0 1 
vn 0 0 1 
vn 0 0 1 
vn 0 0 1 
vn 0 0 1 
vn 0 0 1 
vn 0 0 1 
vn 0 0 1 
vn 0 0 1 
vn 0 0 1 
vn 0 0 1 
vn 0 0 1 
vn 0 0 1 
vn 0 0 1 
vn 0 0 1 
vn 0 0 1 
vn 0 0 1 
vn 0 0 1 
vn 0 0 1 
vn 0 0 1 
vn 0 0 1 
vn 0 0 1 
vn 0 0 1 
vn 0 0 1 
vn 0 0 1 
vn 0 0 1 
vn 0 0 1 
vn 0 0 1 
vn 0 0 1 
vn 0 0 1 
vn 0 0 1 
vn 0 0 1 
vn 0 0 1 
vn 0 0 1 
vn 0 0 1 
vn 0 0 1 
vn 0 0 1 
vn 0 0 1 
vn 0 0 1 
vn 0 0 1 
vn 0 0 1 
vn 0 0 1 
vn 0 0 1 
vn 0 0 1 
vn 0 0 1 
vn 0 0 1 
vn 0 0 1 
vn 0 0 1 
vn 0 0 1 
vn 0 0 1 
vn 0 0 1 
vn 0 0 1 
vn 0 0 1 
vn 0 0 1 
vn 0 0 1 
vn 0 0 1 
vn 0 0 1 
vn 0 0 1 
vn 0 0 1 
vn 0 0 1 
vn 0 0 1 
vn 0 0 1 
vn 0 0 1 
vn 0 0 1 
vn 0 0 1 
vn 0 0 1 
vn 0 0 1 
vn 0 0 1 
vn 0 0 1 
vn 0 0 1 
vn 0 0 1 
vn 0 0 1 
vn 0 0 1 
vn 0 0 1 
vn 0 0 1 
vn 0 0 1 
vn 0 0 1 
vn 0 0 1 
vn 0 0 1 
vn 0 0 1 
vn 0 0 1 
vn 0 0 1 
vn 0 0 1 
vn 0 0 1 
vn 0 0 1 
vn 0 0 1 
vn 0 0 1 
vn 0 0 1 
vn 0 0 1 
vn 0 0 1 
vn 0 0 1 
vn 0 0 1 
vn 0 0 1 
vn 0 0 1 
vn 0 0 1 
f 111//111 112//112 113//113 
f 114//114 115//115 116//116 
f 114//114 117//117 118//118 
f 119//119 120//120 121//121 
f 111//111 122//122 123//123 
f 111//111 124//124 125//125 
f 113//113 126//126 111//111 
f 111//111 127//127 128//128 
f 114//114 129//129 130//130 
f 114//114 131//131 132//132 
f 114//114 133//133 134//134 
f 118//118 115//115 114//114 
f 114//114 135//135 136//136 
f 137//137 119//119 138//138 
f 121//121 138//138 119//119 
f 137//137 139//139 140//140 
f 137//137 141//141 142//142 
f 125//125 122//122 111//111 
f 128//128 112//112 111//111 
f 130//130 143//143 114//114 
f 114//114 144//144 131//131 
f 114//114 145//145 146//146 
f 114//114 147//147 148//148 
f 134//134 149//149 114//114 
f 136//136 117//117 114//114 
f 150//150 151//151 152//152 
f 150//150 153//153 154//154 
f 150//150 137//137 155//155 
f 121//121 156//156 138//138 
f 142//142 139//139 137//137 
f 137//137 157//157 158//158 
f 137//137 159//159 160//160 
f 111//111 161//161 162//162 
f 111//111 163//163 164//164 
f 111//111 165//165 166//166 
f 126//126 124//124 111//111 
f 114//114 167//167 129//129 
f 114//114 168//168 169//169 
f 114//114 170//170 171//171 
f 114//114 172//172 144//144 
f 114//114 173//173 145//145 
f 148//148 174//174 114//114 
f 116//116 133//133 114//114 
f 152//152 175//175 150//150 
f 150//150 176//176 177//177 
f 150//150 178//178 179//179 
f 155//155 153//153 150//150 
f 140//140 119//119 137//137 
f 160//160 157//157 137//137 
f 137//137 180//180 181//181 
f 137//137 150//150 182//182 
f 111//111 183//183 184//184 
f 164//164 161//161 111//111 
f 111//111 185//185 186//186 
f 123//123 165//165 111//111 
f 187//187 188//188 189//189 
f 143//143 190//190 114//114 
f 114//114 191//191 192//192 
f 171//171 168//168 114//114 
f 114//114 193//193 194//194 
f 146//146 172//172 114//114 
f 149//149 147//147 114//114 
f 177//177 151//151 150//150 
f 154//154 178//178 150//150 
f 158//158 141//141 137//137 
f 182//182 180//180 137//137 
f 162//162 183//183 111//111 
f 111//111 195//195 196//196 
f 166//166 185//185 111//111 
f 111//111 197//197 198//198 
f 111//111 199//199 200//200 
f 111//111 201//201 202//202 
f 111//111 203//203 204//204 
f 111//111 205//205 206//206 
f 189//189 111//111 187//187 
f 187//187 207//207 208//208 
f 192//192 167//167 114//114 
f 169//169 209//209 114//114 
f 194//194 210//210 114//114 
f 174//174 173//173 114//114 
f 179//179 176//176 150//150 
f 181//181 159//159 137//137 
f 196//196 163//163 111//111 
f 198//198 127//127 111//111 
f 202//202 199//199 111//111 
f 206//206 203//203 111//111 
f 208//208 188//188 187//187 
f 209//209 191//191 114//114 
f 132//132 193//193 114//114 
f 211//211 212//212 187//187 
f 138//138 213//213 137//137 
f 186//186 195//195 111//111 
f 204//204 201//201 111//111 
f 187//187 214//214 207//207 
f 210//210 170//170 114//114 
f 187//187 111//111 211//211 
f 184//184 150//150 111//111 
f 189//189 205//205 111//111 
f 190//190 215//215 114//114 
f 212//212 211//211 114//114 
f 111//111 216//216 211//211 
f 200//200 197//197 111//111 
f 187//187 217//217 218//218 
f 114//114 219//219 212//212 
f 216//216 220//220 211//211 
f 218//218 214//214 187//187 
f 220//220 221//221 211//211 
f 215//215 219//219 114//114 
f 175//175 111//111 150//150 
o mesh515
v 0.00150047 0.000449224 2.19679e-05 
v 0.00149484 0.000449385 2.19679e-05 
v 0.00149519 0.000449419 4.69679e-05 
v 0.00149484 0.000449422 4.69679e-05 
v 0.00150608 0.000448781 2.19679e-05 
v 0.00150067 0.000449222 4.69679e-05 
v 0.00150602 0.00044881 4.69679e-05 
v 0.00150047 0.000449229 4.69679e-05 
v 0.00150608 0.000448803 4.69679e-05 
v 0.00151128 0.000448188 4.69679e-05 
v 0.00151166 0.000448097 2.19679e-05 
v 0.00151166 0.000448125 4.69679e-05 
v 0.00151645 0.000447358 4.69679e-05 
v 0.00151721 0.000447171 2.19679e-05 
v 0.00151722 0.000447202 4.69679e-05 
v 0.00152156 0.00044632 4.69679e-05 
v 0.00152271 0.000446006 2.19679e-05 
v 0.00152272 0.000446034 4.69679e-05 
v 0.00152662 0.000445072 4.69679e-05 
v 0.00152816 0.000444603 2.19679e-05 
v 0.00152817 0.000444622 4.69679e-05 
v 0.00153166 0.000443606 4.69679e-05 
v 0.00153355 0.000442967 2.19679e-05 
v 0.00153355 0.000442968 4.69679e-05 
v 0.00153679 0.000441874 4.69679e-05 
v 0.00153885 0.000441099 2.19679e-05 
v 0.00153885 0.000441078 4.69679e-05 
v 0.00154211 0.000439814 4.69679e-05 
v 0.00154407 0.000439003 2.19679e-05 
v 0.00154406 0.000438968 4.69679e-05 
v 0.00154732 0.00043755 4.69679e-05 
v 0.0015492 0.000436683 2.19679e-05 
v 0.00154918 0.000436648 4.69679e-05 
v 0.00155229 0.000435144 4.69679e-05 
v 0.00155422 0.000434143 2.19679e-05 
v 0.00155421 0.000434117 4.69679e-05 
v 0.00155705 0.000432596 4.69679e-05 
v 0.00155913 0.000431389 2.19679e-05 
v 0.00155912 0.000431375 4.69679e-05 
v 0.00156161 0.000429904 4.69679e-05 
v 0.00156391 0.000428425 2.19679e-05 
v 0.00156856 0.000425257 2.19679e-05 
v 0.00156601 0.000427062 4.69679e-05 
v 0.00156391 0.000428422 4.69679e-05 
v 0.00157307 0.00042189 2.19679e-05 
v 0.00157025 0.000424064 4.69679e-05 
v 0.00156856 0.00042526 4.69679e-05 
v 0.00157742 0.000418332 2.19679e-05 
v 0.00157436 0.000420901 4.69679e-05 
v 0.00157307 0.000421895 4.69679e-05 
v 0.00158162 0.000414589 2.19679e-05 
v 0.00157845 0.000417468 4.69679e-05 
v 0.00157742 0.00041833 4.69679e-05 
v 0.00158566 0.000410667 2.19679e-05 
v 0.00158223 0.000414017 4.69679e-05 
v 0.00158161 0.000414578 4.69679e-05 
v 0.00158952 0.000406574 2.19679e-05 
v 0.00158648 0.000409825 4.69679e-05 
v 0.00158564 0.000410649 4.69679e-05 
v 0.0015932 0.000402318 2.19679e-05 
v 0.0015904 0.00040563 4.69679e-05 
v 0.00158952 0.000406571 4.69679e-05 
v 0.00159669 0.000397907 2.19679e-05 
v 0.00159402 0.000401425 4.69679e-05 
v 0.00159323 0.000402342 4.69679e-05 
v 0.00159999 0.000393349 2.19679e-05 
v 0.00159737 0.000397198 4.69679e-05 
v 0.00159676 0.000397962 4.69679e-05 
v 0.00160309 0.000388652 2.19679e-05 
v 0.00160047 0.000392939 4.69679e-05 
v 0.00160011 0.000393435 4.69679e-05 
v 0.00160334 0.000388635 4.69679e-05 
v 0.001606 0.000384275 4.69679e-05 
v 0.00160598 0.000383826 2.19679e-05 
v 0.00160326 0.000388764 4.69679e-05 
v 0.00160619 0.00038394 4.69679e-05 
v 0.00160846 0.000379845 4.69679e-05 
v 0.00160866 0.000378879 2.19679e-05 
v 0.00160889 0.000378992 4.69679e-05 
v 0.00161072 0.000375331 4.69679e-05 
v 0.00161112 0.000373821 2.19679e-05 
v 0.00161135 0.000373925 4.69679e-05 
v 0.0016128 0.000370716 4.69679e-05 
v 0.00161337 0.000368661 2.19679e-05 
v 0.00161359 0.000368751 4.69679e-05 
v 0.0016147 0.000365983 4.69679e-05 
v 0.00161538 0.000363409 2.19679e-05 
v 0.00161717 0.000358074 2.19679e-05 
v 0.00161642 0.000361113 4.69679e-05 
v 0.00161559 0.00036348 4.69679e-05 
v 0.00161873 0.000352667 2.19679e-05 
v 0.00161797 0.000356084 4.69679e-05 
v 0.00161734 0.000358126 4.69679e-05 
v 0.00162005 0.000347198 2.19679e-05 
v 0.00161933 0.000350873 4.69679e-05 
v 0.00161885 0.0003527 4.69679e-05 
v 0.00162113 0.000341677 2.19679e-05 
v 0.00162051 0.00034545 4.69679e-05 
v 0.00162012 0.000347215 4.69679e-05 
v 0.00162222 0.000336163 2.19679e-05 
v 0.00162149 0.000339793 4.69679e-05 
v 0.00162116 0.000341682 4.69679e-05 
v 0.00162221 0.000336162 4.69679e-05 
v 0.00162257 0.000334384 4.69679e-05 
v 0.00149306 0.000449436 2.19679e-05 
v 0.00149305 0.000449436 4.69679e-05 
v 0.00162257 0.000334382 2.19679e-05 
vn 0.0570719 0.99837 0 
vn 0.0138154 0.999905 0 
vn 0.0164652 0.999864 0 
vn 0.0138199 0.999905 0 
vn 0.100217 0.994966 0 
vn 0.0586023 0.998281 0 
vn 0.0997915 0.995008 0 
vn 0.057071 0.99837 0 
vn 0.10022 0.994965 0 
vn 0.140192 0.990124 0 
vn 0.143175 0.989697 0 
vn 0.143178 0.989697 0 
vn 0.179958 0.983674 0 
vn 0.185864 0.982576 0 
vn 0.185867 0.982575 0 
vn 0.219237 0.975672 0 
vn 0.228205 0.973613 0 
vn 0.228207 0.973613 0 
vn 0.258175 0.966098 0 
vn 0.270119 0.962827 0 
vn 0.27012 0.962827 0 
vn 0.296912 0.954905 0 
vn 0.311526 0.950238 0 
vn 0.311526 0.950238 0 
vn 0.336418 0.941713 0 
vn 0.352351 0.935868 0 
vn 0.352349 0.935869 0 
vn 0.377447 0.926031 0 
vn 0.392515 0.919746 0 
vn 0.392513 0.919747 0 
vn 0.417524 0.908666 0 
vn 0.431944 0.901901 0 
vn 0.431943 0.901901 0 
vn 0.455733 0.890117 0 
vn 0.470564 0.882366 0 
vn 0.470563 0.882366 0 
vn 0.492282 0.870436 0 
vn 0.508302 0.861179 0 
vn 0.508302 0.861179 0 
vn 0.527361 0.849642 0 
vn 0.545089 0.838378 0 
vn 0.580854 0.814008 0 
vn 0.561136 0.827724 0 
vn 0.545089 0.838378 0 
vn 0.615531 0.788112 0 
vn 0.593758 0.804644 0 
vn 0.580854 0.814008 0 
vn 0.649056 0.760741 0 
vn 0.625359 0.780338 0 
vn 0.615531 0.788113 0 
vn 0.681365 0.731944 0 
vn 0.656867 0.754007 0 
vn 0.649056 0.760741 0 
vn 0.712397 0.701777 0 
vn 0.68603 0.727573 0 
vn 0.681365 0.731943 0 
vn 0.742095 0.670295 0 
vn 0.718702 0.695318 0 
vn 0.712399 0.701775 0 
vn 0.770403 0.637557 0 
vn 0.748694 0.662916 0 
vn 0.742096 0.670294 0 
vn 0.797268 0.603625 0 
vn 0.776297 0.630367 0 
vn 0.7704 0.637561 0 
vn 0.82264 0.568563 0 
vn 0.80176 0.597645 0 
vn 0.797259 0.603637 0 
vn 0.846471 0.532435 0 
vn 0.825296 0.5647 0 
vn 0.822624 0.568586 0 
vn 0.847083 0.531461 0 
vn 0.867267 0.497844 0 
vn 0.868716 0.495311 0 
vn 0.846448 0.532471 0 
vn 0.868727 0.495292 0 
vn 0.885967 0.463748 0 
vn 0.889334 0.457258 0 
vn 0.889343 0.457241 0 
vn 0.903277 0.429057 0 
vn 0.908286 0.418349 0 
vn 0.908293 0.418335 0 
vn 0.919264 0.393642 0 
vn 0.925537 0.378657 0 
vn 0.925542 0.378645 0 
vn 0.933968 0.357358 0 
vn 0.941055 0.338255 0 
vn 0.954809 0.297219 0 
vn 0.947404 0.320041 0 
vn 0.941057 0.338247 0 
vn 0.966775 0.255627 0 
vn 0.959558 0.281512 0 
vn 0.954811 0.297214 0 
vn 0.976931 0.213556 0 
vn 0.970385 0.241565 0 
vn 0.966776 0.255625 0 
vn 0.985256 0.171085 0 
vn 0.979801 0.199977 0 
vn 0.976931 0.213555 0 
vn 0.99172 0.12842 0 
vn 0.987671 0.156543 0 
vn 0.985256 0.171085 0 
vn 0.991719 0.128424 0 
vn 0.993406 0.114646 0 
vn 7.05473e-05 1 0 
vn 4.85013e-05 1 0 
vn 0.993408 0.114636 0 
f 222//222 223//223 224//224 
f 223//223 225//225 224//224 
f 226//226 222//222 227//227 
f 227//227 228//228 226//226 
f 222//222 229//229 227//227 
f 226//226 230//230 231//231 
f 231//231 232//232 226//226 
f 232//232 233//233 234//234 
f 234//234 235//235 232//232 
f 235//235 236//236 237//237 
f 237//237 238//238 235//235 
f 238//238 239//239 240//240 
f 240//240 241//241 238//238 
f 241//241 242//242 243//243 
f 243//243 244//244 241//241 
f 244//244 245//245 246//246 
f 246//246 247//247 244//244 
f 247//247 248//248 249//249 
f 249//249 250//250 247//247 
f 250//250 251//251 252//252 
f 252//252 253//253 250//250 
f 253//253 254//254 255//255 
f 255//255 256//256 253//253 
f 256//256 257//257 258//258 
f 258//258 259//259 256//256 
f 259//259 260//260 261//261 
f 261//261 262//262 259//259 
f 263//263 262//262 264//264 
f 262//262 265//265 264//264 
f 266//266 263//263 267//267 
f 263//263 268//268 267//267 
f 269//269 266//266 270//270 
f 266//266 271//271 270//270 
f 272//272 269//269 273//273 
f 269//269 274//274 273//273 
f 275//275 272//272 276//276 
f 272//272 277//277 276//276 
f 278//278 275//275 279//279 
f 275//275 280//280 279//279 
f 281//281 278//278 282//282 
f 278//278 283//283 282//282 
f 284//284 281//281 285//285 
f 281//281 286//286 285//285 
f 287//287 284//284 288//288 
f 284//284 289//289 288//288 
f 290//290 287//287 291//291 
f 287//287 292//292 291//291 
f 290//290 293//293 294//294 
f 294//294 295//295 290//290 
f 290//290 296//296 293//293 
f 295//295 297//297 298//298 
f 298//298 299//299 295//295 
f 299//299 300//300 301//301 
f 301//301 302//302 299//299 
f 302//302 303//303 304//304 
f 304//304 305//305 302//302 
f 305//305 306//306 307//307 
f 307//307 308//308 305//305 
f 309//309 308//308 310//310 
f 308//308 311//311 310//310 
f 312//312 309//309 313//313 
f 309//309 314//314 313//313 
f 315//315 312//312 316//316 
f 312//312 317//317 316//316 
f 318//318 315//315 319//319 
f 315//315 320//320 319//319 
f 321//321 318//318 322//322 
f 318//318 323//323 322//322 
f 321//321 324//324 325//325 
f 225//225 223//223 326//326 
f 326//326 327//327 225//225 
f 325//325 328//328 321//321 
f 322//322 324//324 321//321 
f 319//319 323//323 318//318 
f 316//316 320//320 315//315 
f 313//313 317//317 312//312 
f 310//310 314//314 309//309 
f 307//307 311//311 308//308 
f 304//304 306//306 305//305 
f 301//301 303//303 302//302 
f 298//298 300//300 299//299 
f 294//294 297//297 295//295 
f 291//291 296//296 290//290 
f 288//288 292//292 287//287 
f 285//285 289//289 284//284 
f 282//282 286//286 281//281 
f 279//279 283//283 278//278 
f 276//276 280//280 275//275 
f 273//273 277//277 272//272 
f 270//270 274//274 269//269 
f 267//267 271//271 266//266 
f 264//264 268//268 263//263 
f 261//261 265//265 262//262 
f 258//258 260//260 259//259 
f 255//255 257//257 256//256 
f 252//252 254//254 253//253 
f 249//249 251//251 250//250 
f 246//246 248//248 247//247 
f 243//243 245//245 244//244 
f 240//240 242//242 241//241 
f 237//237 239//239 238//238 
f 234//234 236//236 235//235 
f 231//231 233//233 232//232 
f 228//228 230//230 226//226 
f 224//224 229//229 222//222 
o mesh516
v 0.00161305 0.000334436 4.69679e-05 
v 0.00161305 0.000334436 2.19679e-05 
v 0.00162257 0.000334382 2.19679e-05 
v 0.00162257 0.000334384 4.69679e-05 
vn 0 -1 0 
vn 0 -1 0 
vn 0 -1 0 
vn 0 -1 0 
f 329//329 330//330 331//331 
f 331//331 332//332 329//329 
o mesh517
v -0.00122695 0.000364436 2.19679e-05 
v -0.00125047 0.00044193 2.19679e-05 
v -0.00124521 0.000443676 2.19679e-05 
v -0.00130118 0.000408982 2.19679e-05 
v -0.00129728 0.000412921 2.19679e-05 
v -0.00133422 0.000345904 2.19679e-05 
v -0.00133297 0.00035131 2.19679e-05 
v -0.00123987 0.000445195 2.19679e-05 
v -0.00123448 0.000446486 2.19679e-05 
v -0.00125566 0.000439961 2.19679e-05 
v -0.00126576 0.000435368 2.19679e-05 
v -0.00126076 0.000437772 2.19679e-05 
v -0.0012846 0.000423691 2.19679e-05 
v -0.00128008 0.000426909 2.19679e-05 
v -0.0012932 0.00041669 2.19679e-05 
v -0.00133523 0.00034045 2.19679e-05 
v 0.00150047 0.000449224 2.19679e-05 
v 0.00156856 0.000425257 2.19679e-05 
v 0.00157307 0.00042189 2.19679e-05 
v 0.00152271 0.000446006 2.19679e-05 
v 0.00154407 0.000439003 2.19679e-05 
v 0.0015492 0.000436683 2.19679e-05 
v 0.00153885 0.000441099 2.19679e-05 
v 0.00152816 0.000444603 2.19679e-05 
v -0.00127065 0.000432753 2.19679e-05 
v -0.00127543 0.000429932 2.19679e-05 
v -0.00128898 0.000420282 2.19679e-05 
v -0.00131801 0.000386993 2.19679e-05 
v -0.00131502 0.00039167 2.19679e-05 
v -0.00132336 0.000377278 2.19679e-05 
v -0.00132079 0.000382192 2.19679e-05 
v -0.0013315 0.000356658 2.19679e-05 
v 0.00158162 0.000414589 2.19679e-05 
v 0.00158566 0.000410667 2.19679e-05 
v 0.00157742 0.000418332 2.19679e-05 
v 0.00155422 0.000434143 2.19679e-05 
v 0.00153355 0.000442967 2.19679e-05 
v -0.00130847 0.000400622 2.19679e-05 
v -0.00130492 0.00040488 2.19679e-05 
v -0.0013298 0.000361939 2.19679e-05 
v -0.00132787 0.000367142 2.19679e-05 
v -0.00133601 0.000334957 2.19679e-05 
v 0.00158952 0.000406574 2.19679e-05 
v 0.0015932 0.000402318 2.19679e-05 
v 0.00155913 0.000431389 2.19679e-05 
v 0.00156391 0.000428425 2.19679e-05 
v 0.00151166 0.000448097 2.19679e-05 
v 0.00151721 0.000447171 2.19679e-05 
v 0.00150608 0.000448781 2.19679e-05 
v -0.00131184 0.000396216 2.19679e-05 
v -0.00132572 0.000372258 2.19679e-05 
v 0.00161538 0.000363409 2.19679e-05 
v 0.00161717 0.000358074 2.19679e-05 
v 0.00161112 0.000373821 2.19679e-05 
v 0.00161337 0.000368661 2.19679e-05 
v 0.00160309 0.000388652 2.19679e-05 
v 0.00160598 0.000383826 2.19679e-05 
v 0.00159669 0.000397907 2.19679e-05 
v 0.00159999 0.000393349 2.19679e-05 
v 0.00149305 0.000364436 2.19679e-05 
v 0.00161305 0.000334436 2.19679e-05 
v 0.00160866 0.000378879 2.19679e-05 
v 0.00149484 0.000449385 2.19679e-05 
v 0.00161873 0.000352667 2.19679e-05 
v 0.00149306 0.000449436 2.19679e-05 
v -0.00133655 0.000329436 2.19679e-05 
v 0.00162005 0.000347198 2.19679e-05 
v 0.00161305 0.000329436 2.19679e-05 
v -0.00122903 0.000447545 2.19679e-05 
v 0.00162113 0.000341677 2.19679e-05 
v 0.00162222 0.000336163 2.19679e-05 
v -0.00122695 0.000447887 2.19679e-05 
v 0.00162257 0.000334382 2.19679e-05 
vn 0 0 -1 
vn 0 0 -1 
vn 0 0 -1 
vn 0 0 -1 
vn 0 0 -1 
vn 0 0 -1 
vn 0 0 -1 
vn 0 0 -1 
vn 0 0 -1 
vn 0 0 -1 
vn 0 0 -1 
vn 0 0 -1 
vn 0 0 -1 
vn 0 0 -1 
vn 0 0 -1 
vn 0 0 -1 
vn 0 0 -1 
vn 0 0 -1 
vn 0 0 -1 
vn 0 0 -1 
vn 0 0 -1 
vn 0 0 -1 
vn 0 0 -1 
vn 0 0 -1 
vn 0 0 -1 
vn 0 0 -1 
vn 0 0 -1 
vn 0 0 -1 
vn 0 0 -1 
vn 0 0 -1 
vn 0 0 -1 
vn 0 0 -1 
vn 0 0 -1 
vn 0 0 -1 
vn 0 0 -1 
vn 0 0 -1 
vn 0 0 -1 
vn 0 0 -1 
vn 0 0 -1 
vn 0 0 -1 
vn 0 0 -1 
vn 0 0 -1 
vn 0 0 -1 
vn 0 0 -1 
vn 0 0 -1 
vn 0 0 -1 
vn 0 0 -1 
vn 0 0 -1 
vn 0 0 -1 
vn 0 0 -1 
vn 0 0 -1 
vn 0 0 -1 
vn 0 0 -1 
vn 0 0 -1 
vn 0 0 -1 
vn 0 0 -1 
vn 0 0 -1 
vn 0 0 -1 
vn 0 0 -1 
vn 0 0 -1 
vn 0 0 -1 
vn 0 0 -1 
vn 0 0 -1 
vn 0 0 -1 
vn 0 0 -1 
vn 0 0 -1 
vn 0 0 -1 
vn 0 0 -1 
vn 0 0 -1 
vn 0 0 -1 
vn 0 0 -1 
vn 0 0 -1 
vn 0 0 -1 
f 333//333 334//334 335//335 
f 333//333 336//336 337//337 
f 333//333 338//338 339//339 
f 333//333 340//340 341//341 
f 333//333 342//342 334//334 
f 333//333 343//343 344//344 
f 333//333 345//345 346//346 
f 337//337 347//347 333//333 
f 333//333 348//348 338//338 
f 349//349 350//350 351//351 
f 352//352 353//353 354//354 
f 355//355 352//352 356//356 
f 335//335 340//340 333//333 
f 333//333 357//357 343//343 
f 346//346 358//358 333//333 
f 347//347 359//359 333//333 
f 333//333 360//360 361//361 
f 333//333 362//362 363//363 
f 339//339 364//364 333//333 
f 349//349 365//365 366//366 
f 351//351 367//367 349//349 
f 354//354 368//368 352//352 
f 356//356 369//369 355//355 
f 344//344 342//342 333//333 
f 359//359 345//345 333//333 
f 333//333 370//370 371//371 
f 363//363 360//360 333//333 
f 333//333 372//372 373//373 
f 333//333 374//374 348//348 
f 349//349 375//375 376//376 
f 367//367 365//365 349//349 
f 352//352 377//377 378//378 
f 355//355 353//353 352//352 
f 350//350 379//379 380//380 
f 350//350 349//349 381//381 
f 358//358 357//357 333//333 
f 333//333 382//382 370//370 
f 333//333 383//383 362//362 
f 364//364 372//372 333//333 
f 349//349 384//384 385//385 
f 349//349 386//386 387//387 
f 349//349 388//388 389//389 
f 349//349 390//390 391//391 
f 366//366 375//375 349//349 
f 368//368 377//377 352//352 
f 381//381 379//379 350//350 
f 392//392 349//349 393//393 
f 371//371 336//336 333//333 
f 373//373 383//383 333//333 
f 387//387 384//384 349//349 
f 389//389 394//394 349//349 
f 376//376 390//390 349//349 
f 380//380 352//352 350//350 
f 392//392 395//395 349//349 
f 361//361 382//382 333//333 
f 393//393 349//349 396//396 
f 394//394 386//386 349//349 
f 378//378 350//350 352//352 
f 392//392 397//397 395//395 
f 398//398 333//333 392//392 
f 333//333 398//398 374//374 
f 396//396 399//399 393//393 
f 391//391 388//388 349//349 
f 392//392 400//400 398//398 
f 341//341 401//401 333//333 
f 393//393 402//402 403//403 
f 385//385 396//396 349//349 
f 401//401 404//404 333//333 
f 399//399 402//402 393//393 
f 403//403 405//405 393//393 
f 393//393 400//400 392//392 
o mesh518
v -0.00122695 0.000364436 6.96789e-06 
v -0.00122695 0.000364436 2.19679e-05 
v -0.00122695 0.000447887 2.19679e-05 
v -0.00122695 0.000474436 6.96789e-06 
v -0.00122695 0.000474436 2.19679e-05 
vn -1 0 0 
vn -1 0 0 
vn -1 0 0 
vn -1 0 0 
vn -1 0 0 
f 406//406 407//407 408//408 
f 408//408 409//409 406//406 
f 408//408 410//410 409//409 
o mesh519
v -0.00122695 0.000364436 2.19679e-05 
v -0.00122695 0.000364436 6.96789e-06 
v 0.00149305 0.000364436 6.96789e-06 
v 0.00149305 0.000364436 2.19679e-05 
vn 0 -1 0 
vn 0 -1 0 
vn 0 -1 0 
vn 0 -1 0 
f 411//411 412//412 413//413 
f 413//413 414//414 411//411 
o mesh520
v 0.00149305 0.000364436 6.96789e-06 
v -0.00122695 0.000364436 6.96789e-06 
v -0.00120695 0.000374436 6.96789e-06 
v -0.00122695 0.000474436 6.96789e-06 
v -0.00120695 0.000474436 6.96789e-06 
v 0.00149305 0.000374436 6.96789e-06 
vn 0 0 -1 
vn 0 0 -1 
vn 0 0 -1 
vn 0 0 -1 
vn 0 0 -1 
vn 0 0 -1 
f 415//415 416//416 417//417 
f 418//418 419//419 417//417 
f 417//417 416//416 418//418 
f 417//417 420//420 415//415 
o mesh521
v -0.00120695 0.000374436 6.96789e-06 
v -0.00120695 0.000374436 -8.30321e-05 
v 0.00149305 0.000374436 -8.30321e-05 
v 0.00149305 0.000374436 6.96789e-06 
vn 0 -1 0 
vn 0 -1 0 
vn 0 -1 0 
vn 0 -1 0 
f 421//421 422//422 423//423 
f 423//423 424//424 421//421 
o mesh522
v -0.00120695 0.000374436 -8.30321e-05 
v -0.00120695 0.000374436 6.96789e-06 
v -0.00120695 0.000474436 6.96789e-06 
v -0.00120695 0.000474436 -8.30321e-05 
vn -1 0 0 
vn -1 0 0 
vn -1 0 0 
vn -1 0 0 
f 425//425 426//426 427//427 
f 427//427 428//428 425//425 
o mesh523
v 0.00149305 0.000629436 6.19679e-05 
v 0.00149305 0.000449436 4.69679e-05 
v 0.00149306 0.000449436 2.19679e-05 
v 0.00149305 0.000374436 -8.30321e-05 
v 0.00149305 0.000624436 -8.30321e-05 
v 0.00149305 0.000634436 0.000151968 
v 0.00149305 0.000364436 2.19679e-05 
v 0.00149305 0.000364436 6.96789e-06 
v 0.00149305 0.000374436 6.96789e-06 
v 0.00149305 0.000384436 0.000151968 
v 0.00149305 0.000374438 6.19679e-05 
v 0.00149305 0.000374436 4.69679e-05 
vn 1 0 0 
vn 1 0 0 
vn 1 0 0 
vn 1 0 0 
vn 1 0 0 
vn 1 0 0 
vn 1 0 0 
vn 1 0 0 
vn 1 0 0 
vn 1 0 0 
vn 1 0 0 
vn 1 0 0 
f 429//429 430//430 431//431 
f 432//432 433//433 431//431 
f 431//431 433//433 429//429 
f 429//429 434//434 430//430 
f 435//435 436//436 437//437 
f 438//438 439//439 430//430 
f 437//437 431//431 435//435 
f 430//430 434//434 438//438 
f 439//439 440//440 430//430 
f 431//431 437//437 432//432 
o mesh524
v -0.00140695 0.000624436 -8.30321e-05 
v 0.00149305 0.000624436 -8.30321e-05 
v -0.00120695 0.000474436 -8.30321e-05 
v 0.00149305 0.000374436 -8.30321e-05 
v -0.00120695 0.000374436 -8.30321e-05 
v -0.00140695 0.000474436 -8.30321e-05 
vn 0 0 -1 
vn 0 0 -1 
vn 0 0 -1 
vn 0 0 -1 
vn 0 0 -1 
vn 0 0 -1 
f 441//441 442//442 443//443 
f 444//444 445//445 443//443 
f 443//443 442//442 444//444 
f 443//443 446//446 441//441 
o mesh525
v 0.000568054 0.000629436 6.19679e-05 
v 0.000568054 0.000634436 0.000151968 
v 0.00149305 0.000634436 0.000151968 
v 0.00149305 0.000629436 6.19679e-05 
vn 0 1 0 
vn 0 1 0 
vn 0 1 0 
vn 0 1 0 
f 447//447 448//448 449//449 
f 449//449 450//450 447//447 
o mesh526
v -0.00141195 0.000474436 6.96789e-06 
v -0.00141195 0.000624436 6.96789e-06 
v -0.00140695 0.000624436 -8.30321e-05 
v -0.00140695 0.000474436 -8.30321e-05 
vn -1 0 0 
vn -1 0 0 
vn -1 0 0 
vn -1 0 0 
f 451//451 452//452 453//453 
f 453//453 454//454 451//451 
o mesh527
v -0.00141695 0.000624436 2.19679e-05 
v -0.00141195 0.000624436 6.96789e-06 
v -0.00141195 0.000474436 6.96789e-06 
v -0.00141695 0.000474436 2.19679e-05 
vn -1 0 0 
vn -1 0 0 
vn -1 0 0 
vn -1 0 0 
f 455//455 456//456 457//457 
f 457//457 458//458 455//455 
o mesh528
v -0.00140695 0.000624436 2.19679e-05 
v -0.00141695 0.000624436 2.19679e-05 
v -0.00141695 0.000474436 2.19679e-05 
v -0.00140695 0.000474436 2.19679e-05 
vn 0 0 1 
vn 0 0 1 
vn 0 0 1 
vn 0 0 1 
f 459//459 460//460 461//461 
f 461//461 462//462 459//459 
o mesh529
v -0.00122695 0.000474436 2.19679e-05 
v -0.00120695 0.000484436 6.19679e-05 
v -0.00130695 0.000474436 6.19679e-05 
v -0.00141195 0.000474436 6.96789e-06 
v -0.00140695 0.000474436 -8.30321e-05 
v -0.00122695 0.000474436 6.96789e-06 
v -0.00140695 0.000474436 2.19679e-05 
v -0.00141695 0.000474436 2.19679e-05 
v -0.00120695 0.000474436 -8.30321e-05 
v -0.00120695 0.000474436 6.96789e-06 
v -0.00120695 0.000474436 2.19679e-05 
v -0.00140695 0.000474438 6.19679e-05 
vn 0 -1 0 
vn 0 -1 0 
vn 0 -1 0 
vn 0 -1 0 
vn 0 -1 0 
vn 0 -1 0 
vn 0 -1 0 
vn 0 -1 0 
vn 0 -1 0 
vn 0 -1 0 
vn 0 -1 0 
vn 0 -1 0 
f 463//463 464//464 465//465 
f 466//466 467//467 468//468 
f 466//466 463//463 469//469 
f 465//465 469//469 463//463 
f 469//469 470//470 466//466 
f 471//471 472//472 468//468 
f 463//463 473//473 464//464 
f 468//468 467//467 471//471 
f 468//468 463//463 466//466 
f 465//465 474//474 469//469 
o mesh530
v -0.00140695 0.000484436 0.000151968 
v -0.00140695 0.000474438 6.19679e-05 
v -0.00130695 0.000484436 6.19679e-05 
v -0.00120695 0.000484436 0.000151968 
v -0.00120695 0.000484436 6.19679e-05 
vn 0 -1 0 
vn 0 -1 0 
vn 0 -1 0 
vn 0 -1 0 
vn 0 -1 0 
f 475//475 476//476 477//477 
f 477//477 478//478 475//475 
f 477//477 479//479 478//478 
o mesh531
v -0.00130695 0.000474436 6.19679e-05 
v -0.00120695 0.000484436 6.19679e-05 
v -0.00130695 0.000484436 6.19679e-05 
v -0.00140695 0.000474438 6.19679e-05 
vn 0 0 1 
vn 0 0 1 
vn 0 0 1 
vn 0 0 1 
f 480//480 481//481 482//482 
f 482//482 483//483 480//480 
o mesh532
v 0.000568054 0.000634436 0.000151968 
v -0.000581946 0.00113444 0.000151968 
v -0.00120695 0.000484436 0.000151968 
v 0.00149305 0.000384436 0.000151968 
v 0.00149305 0.000634436 0.000151968 
v -0.00120695 0.000384436 0.000151968 
v -0.00140695 0.00113444 0.000151968 
v -0.00140695 0.000484436 0.000151968 
vn 0 0 1 
vn 0 0 1 
vn 0 0 1 
vn 0 0 1 
vn 0 0 1 
vn 0 0 1 
vn 0 0 1 
vn 0 0 1 
f 484//484 485//485 486//486 
f 487//487 488//488 484//484 
f 484//484 489//489 487//487 
f 490//490 491//491 486//486 
f 486//486 485//485 490//490 
f 486//486 489//489 484//484 
o mesh533
v -0.00140695 0.00113444 0.000151968 
v -0.000581946 0.00113444 0.000151968 
v -0.000581946 0.00112944 6.19679e-05 
v -0.00140695 0.00112944 6.19679e-05 
vn 0 1 0 
vn 0 1 0 
vn 0 1 0 
vn 0 1 0 
f 492//492 493//493 494//494 
f 494//494 495//495 492//492 
o mesh534
v -0.00140695 0.00112944 6.19679e-05 
v -0.00140695 0.00112444 2.19679e-05 
v -0.00140695 0.000624436 2.19679e-05 
v -0.00140695 0.000474436 2.19679e-05 
v -0.00140695 0.000474438 6.19679e-05 
v -0.00140695 0.000484436 0.000151968 
v -0.00140695 0.00113444 0.000151968 
vn -1 0 0 
vn -1 0 0 
vn -1 0 0 
vn -1 0 0 
vn -1 0 0 
vn -1 0 0 
vn -1 0 0 
f 496//496 497//497 498//498 
f 498//498 499//499 500//500 
f 501//501 502//502 496//496 
f 498//498 501//501 496//496 
f 500//500 501//501 498//498 
o mesh535
v -0.00141195 0.000624436 6.96789e-06 
v -0.00141695 0.000624436 2.19679e-05 
v -0.00140695 0.000624436 2.19679e-05 
v -0.00140695 0.000624436 -8.30321e-05 
v 0.000568054 0.000624436 2.19679e-05 
v 0.00149305 0.000629436 6.19679e-05 
v 0.00149305 0.000624436 -8.30321e-05 
v 0.000568054 0.000629436 6.19679e-05 
vn 0 1 0 
vn 0 1 0 
vn 0 1 0 
vn 0 1 0 
vn 0 1 0 
vn 0 1 0 
vn 0 1 0 
vn 0 1 0 
f 503//503 504//504 505//505 
f 506//506 503//503 507//507 
f 508//508 509//509 507//507 
f 507//507 509//509 506//506 
f 505//505 507//507 503//503 
f 507//507 510//510 508//508 
o mesh536
v -0.000581946 0.00112944 6.19679e-05 
v -0.000581946 0.00113444 0.000151968 
v 0.000568054 0.000634436 0.000151968 
v 0.000568054 0.000629436 6.19679e-05 
vn 0.398726 0.91707 0 
vn 0.398726 0.91707 0 
vn 0.398726 0.91707 0 
vn 0.398726 0.91707 0 
f 511//511 512//512 513//513 
f 513//513 514//514 511//511 
o mesh537
v -0.00140695 0.00112444 2.19679e-05 
v -0.00140695 0.00112944 6.19679e-05 
v -0.000581946 0.00112944 6.19679e-05 
v -0.000581946 0.00112444 2.19679e-05 
vn 0 1 0 
vn 0 1 0 
vn 0 1 0 
vn 0 1 0 
f 515//515 516//516 517//517 
f 517//517 518//518 515//515 
o mesh538
v 0.000568054 0.000629436 6.19679e-05 
v 0.000568054 0.000624436 2.19679e-05 
v -0.000581946 0.00112444 2.19679e-05 
v -0.000581946 0.00112944 6.19679e-05 
vn 0.398726 0.91707 0 
vn 0.398726 0.91707 0 
vn 0.398726 0.91707 0 
vn 0.398726 0.91707 0 
f 519//519 520//520 521//521 
f 521//521 522//522 519//519 
o mesh539
v -0.00140695 0.000624436 2.19679e-05 
v -0.00140695 0.00112444 2.19679e-05 
v -0.000581946 0.00112444 2.19679e-05 
v 0.000568054 0.000624436 2.19679e-05 
vn 0 0 -1 
vn 0 0 -1 
vn 0 0 -1 
vn 0 0 -1 
f 523//523 524//524 525//525 
f 525//525 526//526 523//523 
