# OBJ generated by ONSHAPE BY PTC INC, 1.215 Units = meters
mtllib hinge_base_Mirrored.mtl
g hinge_base-Mirrored
usemtl 0.301961_0.301961_0.301961_0.000000_0.000000
o mesh84
v 0.00104454 0.000739896 1.5e-05 
v 0.00103695 0.000564993 1.5e-05 
v 0.00103822 0.000564987 1.5e-05 
v 0.00104384 0.00056481 1.5e-05 
v 0.00104697 0.000564605 1.5e-05 
vn 0 0 1 
vn 0 0 1 
vn 0 0 1 
vn 0 0 1 
vn 0 0 1 
f 1//1 2//2 3//3 
f 3//3 4//4 1//1 
f 4//4 5//5 1//1 
o mesh85
v 0.00116679 0.000441173 4e-05 
v 0.00116679 0.000441173 1.5e-05 
v 0.0011664 0.00044678 1.5e-05 
v 0.0011664 0.00044678 4e-05 
v 0.00116577 0.000452365 1.5e-05 
v 0.00116577 0.000452365 4e-05 
v 0.0011649 0.000457918 1.5e-05 
v 0.0011649 0.000457918 4e-05 
v 0.00116379 0.000463428 1.5e-05 
v 0.00116379 0.000463428 4e-05 
v 0.00116244 0.000468884 1.5e-05 
v 0.00116244 0.000468884 4e-05 
v 0.00116086 0.000474278 1.5e-05 
v 0.00116086 0.000474278 4e-05 
v 0.00115905 0.000479597 1.5e-05 
v 0.00115905 0.000479597 4e-05 
v 0.001157 0.000484834 1.5e-05 
v 0.001157 0.000484834 4e-05 
v 0.00115474 0.000489977 1.5e-05 
v 0.00115474 0.000489977 4e-05 
v 0.00115225 0.000495018 1.5e-05 
v 0.00115225 0.000495018 4e-05 
v 0.00114955 0.000499946 1.5e-05 
v 0.00114955 0.000499946 4e-05 
v 0.00114664 0.000504753 1.5e-05 
v 0.00114664 0.000504753 4e-05 
v 0.00114352 0.00050943 1.5e-05 
v 0.00114352 0.00050943 4e-05 
v 0.0011402 0.000513967 1.5e-05 
v 0.0011402 0.000513967 4e-05 
v 0.00113669 0.000518357 1.5e-05 
v 0.00113669 0.000518357 4e-05 
v 0.00113299 0.000522591 1.5e-05 
v 0.00113299 0.000522591 4e-05 
v 0.00112912 0.000526661 1.5e-05 
v 0.00112912 0.000526661 4e-05 
v 0.00112507 0.00053056 1.5e-05 
v 0.00112507 0.00053056 4e-05 
v 0.00112085 0.00053428 1.5e-05 
v 0.00112085 0.00053428 4e-05 
v 0.00111648 0.000537815 1.5e-05 
v 0.00111648 0.000537815 4e-05 
v 0.00111197 0.000541157 1.5e-05 
v 0.00111197 0.000541157 4e-05 
v 0.00110731 0.000544301 1.5e-05 
v 0.00110731 0.000544301 4e-05 
v 0.00110252 0.00054724 1.5e-05 
v 0.00110252 0.00054724 4e-05 
v 0.0010976 0.00054997 1.5e-05 
v 0.0010976 0.00054997 4e-05 
v 0.00109258 0.000552485 1.5e-05 
v 0.00109258 0.000552485 4e-05 
v 0.00108745 0.00055478 1.5e-05 
v 0.00108745 0.00055478 4e-05 
v 0.00108222 0.000556851 1.5e-05 
v 0.00108222 0.000556851 4e-05 
v 0.00107691 0.000558695 1.5e-05 
v 0.00107691 0.000558695 4e-05 
v 0.00107153 0.000560307 1.5e-05 
v 0.00107153 0.000560307 4e-05 
v 0.00106608 0.000561685 1.5e-05 
v 0.00106608 0.000561685 4e-05 
v 0.00106057 0.000562826 1.5e-05 
v 0.00106057 0.000562826 4e-05 
v 0.00105503 0.000563729 1.5e-05 
v 0.00105503 0.000563729 4e-05 
v 0.00104944 0.00056439 1.5e-05 
v 0.00104384 0.00056481 4e-05 
v 0.00104944 0.00056439 4e-05 
v 0.00104697 0.000564605 1.5e-05 
v 0.00104384 0.00056481 1.5e-05 
v 0.00103822 0.000564987 1.5e-05 
v 0.00116689 0.000439896 4e-05 
v 0.00116689 0.000439896 1.5e-05 
v 0.00103822 0.000564987 4e-05 
v 0.00103695 0.000564993 1.5e-05 
v 0.00103695 0.000564993 4e-05 
vn 0.99887 0.0475353 0 
vn 0.99887 0.0475353 0 
vn 0.995881 0.0906676 0 
vn 0.995881 0.0906676 0 
vn 0.991031 0.13363 0 
vn 0.991031 0.13363 0 
vn 0.984329 0.176343 0 
vn 0.984329 0.176343 0 
vn 0.975786 0.218727 0 
vn 0.975786 0.218727 0 
vn 0.96542 0.260701 0 
vn 0.96542 0.260701 0 
vn 0.953248 0.302188 0 
vn 0.953248 0.302188 0 
vn 0.939295 0.343111 0 
vn 0.939295 0.343111 0 
vn 0.923586 0.383392 0 
vn 0.923586 0.383392 0 
vn 0.90615 0.422956 0 
vn 0.90615 0.422956 0 
vn 0.887021 0.461729 0 
vn 0.887021 0.461729 0 
vn 0.866233 0.49964 0 
vn 0.866233 0.49964 0 
vn 0.843826 0.536616 0 
vn 0.843826 0.536616 0 
vn 0.819842 0.57259 0 
vn 0.819842 0.57259 0 
vn 0.794325 0.607493 0 
vn 0.794325 0.607493 0 
vn 0.767324 0.64126 0 
vn 0.767324 0.64126 0 
vn 0.738888 0.673829 0 
vn 0.738888 0.673829 0 
vn 0.70907 0.705138 0 
vn 0.70907 0.705138 0 
vn 0.677928 0.735129 0 
vn 0.677928 0.735129 0 
vn 0.645518 0.763745 0 
vn 0.645518 0.763745 0 
vn 0.611901 0.790934 0 
vn 0.611901 0.790934 0 
vn 0.57714 0.816645 0 
vn 0.57714 0.816645 0 
vn 0.541301 0.840829 0 
vn 0.541301 0.840829 0 
vn 0.50445 0.863441 0 
vn 0.50445 0.863441 0 
vn 0.466655 0.884439 0 
vn 0.466655 0.884439 0 
vn 0.427989 0.903784 0 
vn 0.427989 0.903784 0 
vn 0.388522 0.921439 0 
vn 0.388522 0.921439 0 
vn 0.348329 0.937372 0 
vn 0.348329 0.937372 0 
vn 0.307485 0.951553 0 
vn 0.307485 0.951553 0 
vn 0.266066 0.963955 0 
vn 0.266066 0.963955 0 
vn 0.22415 0.974555 0 
vn 0.22415 0.974555 0 
vn 0.181815 0.983333 0 
vn 0.181815 0.983333 0 
vn 0.13914 0.990273 0 
vn 0.13914 0.990273 0 
vn 0.0962047 0.995362 0 
vn 0.0530897 0.99859 0 
vn 0.0962047 0.995362 0 
vn 0.0771921 0.997016 0 
vn 0.0530897 0.99859 0 
vn 0.0098754 0.999951 0 
vn 0.999289 0.0377038 0 
vn 0.999289 0.0377038 0 
vn 0.0098754 0.999951 0 
vn 7.05473e-05 1 0 
vn 7.05473e-05 1 0 
f 6//6 7//7 8//8 
f 9//9 8//8 10//10 
f 11//11 10//10 12//12 
f 13//13 12//12 14//14 
f 15//15 14//14 16//16 
f 17//17 16//16 18//18 
f 19//19 18//18 20//20 
f 21//21 20//20 22//22 
f 23//23 22//22 24//24 
f 25//25 24//24 26//26 
f 27//27 26//26 28//28 
f 29//29 28//28 30//30 
f 31//31 30//30 32//32 
f 33//33 32//32 34//34 
f 35//35 34//34 36//36 
f 37//37 36//36 38//38 
f 39//39 38//38 40//40 
f 41//41 40//40 42//42 
f 43//43 42//42 44//44 
f 45//45 44//44 46//46 
f 47//47 46//46 48//48 
f 49//49 48//48 50//50 
f 51//51 50//50 52//52 
f 53//53 52//52 54//54 
f 55//55 54//54 56//56 
f 57//57 56//56 58//58 
f 59//59 58//58 60//60 
f 61//61 60//60 62//62 
f 63//63 62//62 64//64 
f 65//65 64//64 66//66 
f 67//67 66//66 68//68 
f 69//69 68//68 70//70 
f 71//71 70//70 72//72 
f 73//73 74//74 75//75 
f 74//74 72//72 75//75 
f 73//73 76//76 77//77 
f 78//78 79//79 7//7 
f 80//80 77//77 81//81 
f 81//81 82//82 80//80 
f 7//7 6//6 78//78 
f 77//77 80//80 73//73 
f 75//75 76//76 73//73 
f 72//72 74//74 71//71 
f 70//70 71//71 69//69 
f 68//68 69//69 67//67 
f 66//66 67//67 65//65 
f 64//64 65//65 63//63 
f 62//62 63//63 61//61 
f 60//60 61//61 59//59 
f 58//58 59//59 57//57 
f 56//56 57//57 55//55 
f 54//54 55//55 53//53 
f 52//52 53//53 51//51 
f 50//50 51//51 49//49 
f 48//48 49//49 47//47 
f 46//46 47//47 45//45 
f 44//44 45//45 43//43 
f 42//42 43//43 41//41 
f 40//40 41//41 39//39 
f 38//38 39//39 37//37 
f 36//36 37//37 35//35 
f 34//34 35//35 33//33 
f 32//32 33//33 31//31 
f 30//30 31//31 29//29 
f 28//28 29//29 27//27 
f 26//26 27//27 25//25 
f 24//24 25//25 23//23 
f 22//22 23//23 21//21 
f 20//20 21//21 19//19 
f 18//18 19//19 17//17 
f 16//16 17//17 15//15 
f 14//14 15//15 13//13 
f 12//12 13//13 11//11 
f 10//10 11//11 9//9 
f 8//8 9//9 6//6 
o mesh86
v 0.00115694 0.000439896 1.5e-05 
v 0.00116689 0.000439896 1.5e-05 
v 0.00116689 0.000439896 4e-05 
v 0.00115694 0.000439896 4e-05 
vn 0 -1 0 
vn 0 -1 0 
vn 0 -1 0 
vn 0 -1 0 
f 83//83 84//84 85//85 
f 85//85 86//86 83//83 
o mesh87
v 0.00115694 0.000439896 1.5e-05 
v 0.00115694 0.000439896 4e-05 
v 0.00115694 0.000434896 4e-05 
v 0.00115694 0.000434896 1.5e-05 
vn 1 0 0 
vn 1 0 0 
vn 1 0 0 
vn 1 0 0 
f 87//87 88//88 89//89 
f 89//89 90//90 87//87 
o mesh88
v 0.00115694 0.000434896 1.5e-05 
v 0.00115694 0.000434896 4e-05 
v -0.00179305 0.000434896 4e-05 
v -0.00179305 0.000434896 1.5e-05 
vn 0 -1 0 
vn 0 -1 0 
vn 0 -1 0 
vn 0 -1 0 
f 91//91 92//92 93//93 
f 93//93 94//94 91//91 
o mesh89
v -0.00175258 0.000529246 4e-05 
v -0.00175258 0.000529246 1.5e-05 
v -0.00175653 0.000525336 1.5e-05 
v -0.00175653 0.000525336 4e-05 
v -0.0017603 0.00052126 1.5e-05 
v -0.0017603 0.00052126 4e-05 
v -0.0017639 0.000517028 1.5e-05 
v -0.0017639 0.000517028 4e-05 
v -0.00176731 0.000512645 1.5e-05 
v -0.00176731 0.000512645 4e-05 
v -0.00177053 0.000508121 1.5e-05 
v -0.00177053 0.000508121 4e-05 
v -0.00177356 0.000503463 1.5e-05 
v -0.00177356 0.000503463 4e-05 
v -0.00177638 0.000498681 1.5e-05 
v -0.00177638 0.000498681 4e-05 
v -0.001779 0.000493782 1.5e-05 
v -0.001779 0.000493782 4e-05 
v -0.0017814 0.000488775 1.5e-05 
v -0.0017814 0.000488775 4e-05 
v -0.00178359 0.000483671 1.5e-05 
v -0.00178359 0.000483671 4e-05 
v -0.00178556 0.000478478 1.5e-05 
v -0.00178556 0.000478478 4e-05 
v -0.00178731 0.000473205 1.5e-05 
v -0.00178731 0.000473205 4e-05 
v -0.00178883 0.000467863 1.5e-05 
v -0.00178883 0.000467863 4e-05 
v -0.00179011 0.00046246 1.5e-05 
v -0.00179011 0.00046246 4e-05 
v -0.00179117 0.000457008 1.5e-05 
v -0.00179117 0.000457008 4e-05 
v -0.001792 0.000451515 1.5e-05 
v -0.001792 0.000451515 4e-05 
v -0.00179258 0.000445992 1.5e-05 
v -0.00179258 0.000445992 4e-05 
v -0.00179294 0.000440449 1.5e-05 
v -0.00179294 0.000440449 4e-05 
v -0.00179305 0.000434896 1.5e-05 
v -0.00174808 0.000532149 3.81604e-05 
v -0.00174802 0.00053219 1.45013e-05 
v -0.00174355 0.000535068 3.63102e-05 
v -0.00174342 0.000535152 1.39994e-05 
v -0.00173901 0.000537998 3.44527e-05 
v -0.00173881 0.000538126 1.34954e-05 
v -0.00173445 0.000540936 3.25909e-05 
v -0.00173418 0.000541109 1.299e-05 
v -0.00172989 0.000543875 3.07279e-05 
v -0.00172956 0.000544093 1.24844e-05 
v -0.00172534 0.000546811 2.88668e-05 
v -0.00172493 0.000547074 1.19793e-05 
v -0.0017208 0.000549739 2.70108e-05 
v -0.00172032 0.000550046 1.14757e-05 
v -0.00171628 0.000552655 2.51629e-05 
v -0.00171573 0.000553004 1.09745e-05 
v -0.00171178 0.000555553 2.33263e-05 
v -0.00171118 0.000555942 1.04766e-05 
v -0.00170732 0.000558428 2.1504e-05 
v -0.00170666 0.000558855 9.98302e-06 
v -0.0017029 0.000561275 1.9699e-05 
v -0.00170219 0.000561738 9.49455e-06 
v -0.00169854 0.000564091 1.79143e-05 
v -0.00169777 0.000564586 9.0121e-06 
v -0.00169423 0.00056687 1.6153e-05 
v -0.00169342 0.000567392 8.53657e-06 
v -0.00168998 0.000569607 1.4418e-05 
v -0.00168914 0.000570153 8.06882e-06 
v -0.00168581 0.000572299 1.2712e-05 
v -0.00168493 0.000572862 7.6097e-06 
v -0.00168171 0.00057494 1.10381e-05 
v -0.00166908 0.00058308 5.87835e-06 
v -0.00168082 0.000575516 7.16005e-06 
v -0.00179305 0.000434896 4e-05 
vn -0.688724 0.725024 0 
vn -0.688724 0.725024 0 
vn -0.719064 0.694944 0 
vn -0.719064 0.694944 0 
vn -0.748092 0.663595 0 
vn -0.748092 0.663595 0 
vn -0.775754 0.631036 0 
vn -0.775754 0.631036 0 
vn -0.802 0.597324 0 
vn -0.802 0.597324 0 
vn -0.826782 0.562523 0 
vn -0.826782 0.562523 0 
vn -0.850055 0.526694 0 
vn -0.850055 0.526694 0 
vn -0.871776 0.489904 0 
vn -0.871776 0.489904 0 
vn -0.891907 0.45222 0 
vn -0.891907 0.45222 0 
vn -0.910409 0.41371 0 
vn -0.910409 0.41371 0 
vn -0.927249 0.374445 0 
vn -0.927249 0.374445 0 
vn -0.942397 0.334497 0 
vn -0.942397 0.334497 0 
vn -0.955824 0.293938 0 
vn -0.955824 0.293938 0 
vn -0.967507 0.252843 0 
vn -0.967507 0.252843 0 
vn -0.977424 0.211286 0 
vn -0.977424 0.211286 0 
vn -0.985557 0.169344 0 
vn -0.985557 0.169344 0 
vn -0.991891 0.127092 0 
vn -0.991891 0.127092 0 
vn -0.996414 0.0846084 0 
vn -0.996414 0.0846084 0 
vn -0.999119 0.0419703 0 
vn -0.999119 0.0419703 0 
vn -1 -0.000744347 0 
vn -0.658597 0.752495 0 
vn -0.65816 0.752878 0 
vn -0.626806 0.779175 0 
vn -0.625871 0.779927 0 
vn -0.593505 0.80483 0 
vn -0.592021 0.805923 0 
vn -0.55889 0.829242 0 
vn -0.556817 0.830635 0 
vn -0.523187 0.852218 0 
vn -0.520501 0.853861 0 
vn -0.486648 0.873598 0 
vn -0.483343 0.875431 0 
vn -0.449544 0.893258 0 
vn -0.445629 0.895218 0 
vn -0.412153 0.911115 0 
vn -0.407655 0.913136 0 
vn -0.374752 0.927125 0 
vn -0.369715 0.929145 0 
vn -0.337606 0.941287 0 
vn -0.332088 0.943248 0 
vn -0.300966 0.953635 0 
vn -0.295036 0.955486 0 
vn -0.265055 0.964233 0 
vn -0.258791 0.965933 0 
vn -0.230069 0.973174 0 
vn -0.223555 0.974691 0 
vn -0.196174 0.980569 0 
vn -0.189499 0.981881 0 
vn -0.163505 0.986542 0 
vn -0.156756 0.987637 0 
vn -0.132166 0.991228 0 
vn -0.0407086 0.999171 0 
vn -0.125431 0.992102 0 
vn -1 -0.000744347 0 
f 95//95 96//96 97//97 
f 98//98 97//97 99//99 
f 100//100 99//99 101//101 
f 102//102 101//101 103//103 
f 104//104 103//103 105//105 
f 106//106 105//105 107//107 
f 108//108 107//107 109//109 
f 110//110 109//109 111//111 
f 112//112 111//111 113//113 
f 114//114 113//113 115//115 
f 116//116 115//115 117//117 
f 118//118 117//117 119//119 
f 120//120 119//119 121//121 
f 122//122 121//121 123//123 
f 124//124 123//123 125//125 
f 126//126 125//125 127//127 
f 128//128 127//127 129//129 
f 130//130 129//129 131//131 
f 132//132 131//131 133//133 
f 96//96 95//95 134//134 
f 135//135 134//134 136//136 
f 137//137 136//136 138//138 
f 139//139 138//138 140//140 
f 141//141 140//140 142//142 
f 143//143 142//142 144//144 
f 145//145 144//144 146//146 
f 147//147 146//146 148//148 
f 149//149 148//148 150//150 
f 151//151 150//150 152//152 
f 153//153 152//152 154//154 
f 155//155 154//154 156//156 
f 157//157 156//156 158//158 
f 159//159 158//158 160//160 
f 161//161 160//160 162//162 
f 163//163 162//162 164//164 
f 165//165 166//166 164//164 
f 164//164 166//166 163//163 
f 162//162 163//163 161//161 
f 160//160 161//161 159//159 
f 158//158 159//159 157//157 
f 156//156 157//157 155//155 
f 154//154 155//155 153//153 
f 152//152 153//153 151//151 
f 150//150 151//151 149//149 
f 148//148 149//149 147//147 
f 146//146 147//147 145//145 
f 144//144 145//145 143//143 
f 142//142 143//143 141//141 
f 140//140 141//141 139//139 
f 138//138 139//139 137//137 
f 136//136 137//137 135//135 
f 134//134 135//135 96//96 
f 133//133 167//167 132//132 
f 131//131 132//132 130//130 
f 129//129 130//130 128//128 
f 127//127 128//128 126//126 
f 125//125 126//126 124//124 
f 123//123 124//124 122//122 
f 121//121 122//122 120//120 
f 119//119 120//120 118//118 
f 117//117 118//118 116//116 
f 115//115 116//116 114//114 
f 113//113 114//114 112//112 
f 111//111 112//112 110//110 
f 109//109 110//110 108//108 
f 107//107 108//108 106//106 
f 105//105 106//106 104//104 
f 103//103 104//104 102//102 
f 101//101 102//102 100//100 
f 99//99 100//100 98//98 
f 97//97 98//98 95//95 
o mesh90
v -0.00166306 0.000489993 4e-05 
v -0.00174808 0.000532149 3.81604e-05 
v -0.00175258 0.000529246 4e-05 
v -0.00174355 0.000535068 3.63102e-05 
v -0.00179305 0.000434896 4e-05 
v -0.00173445 0.000540936 3.25909e-05 
v -0.00173901 0.000537998 3.44527e-05 
v -0.00172989 0.000543875 3.07279e-05 
v -0.00172534 0.000546811 2.88668e-05 
v -0.00171628 0.000552655 2.51629e-05 
v -0.0017208 0.000549739 2.70108e-05 
v -0.00171178 0.000555553 2.33263e-05 
v -0.00170732 0.000558428 2.1504e-05 
v -0.00169854 0.000564091 1.79143e-05 
v -0.0017029 0.000561275 1.9699e-05 
v -0.00169423 0.00056687 1.6153e-05 
v -0.00168998 0.000569607 1.4418e-05 
v -0.00168581 0.000572299 1.2712e-05 
v -0.00168171 0.00057494 1.10381e-05 
v -0.00166908 0.00058308 5.87835e-06 
v -0.001779 0.000493782 4e-05 
v -0.00178731 0.000473205 4e-05 
v -0.00176731 0.000512645 4e-05 
v -0.001792 0.000451515 4e-05 
v -0.00179011 0.00046246 4e-05 
v -0.00178359 0.000483671 4e-05 
v -0.00177356 0.000503463 4e-05 
v -0.0017603 0.00052126 4e-05 
v -0.00179294 0.000440449 4e-05 
v -0.00179258 0.000445992 4e-05 
v 0.00108745 0.00055478 4e-05 
v 0.00107153 0.000560307 4e-05 
v 0.00106608 0.000561685 4e-05 
v 0.00108222 0.000556851 4e-05 
v 0.00107691 0.000558695 4e-05 
v 0.00103822 0.000564987 4e-05 
v 0.00115225 0.000495018 4e-05 
v 0.00114955 0.000499946 4e-05 
v -0.00179117 0.000457008 4e-05 
v 0.00106057 0.000562826 4e-05 
v 0.0010976 0.00054997 4e-05 
v 0.00109258 0.000552485 4e-05 
v 0.00114664 0.000504753 4e-05 
v -0.00178883 0.000467863 4e-05 
v 0.00105503 0.000563729 4e-05 
v 0.00111197 0.000541157 4e-05 
v 0.00110731 0.000544301 4e-05 
v 0.00114352 0.00050943 4e-05 
v 0.001157 0.000484834 4e-05 
v 0.00115474 0.000489977 4e-05 
v 0.00115694 0.000439896 4e-05 
v 0.00116577 0.000452365 4e-05 
v 0.0011649 0.000457918 4e-05 
v -0.00178556 0.000478478 4e-05 
v 0.00104944 0.00056439 4e-05 
v 0.00104384 0.00056481 4e-05 
v 0.00110252 0.00054724 4e-05 
v 0.00112085 0.00053428 4e-05 
v 0.00111648 0.000537815 4e-05 
v 0.00112912 0.000526661 4e-05 
v 0.00112507 0.00053056 4e-05 
v 0.0011402 0.000513967 4e-05 
v 0.00113669 0.000518357 4e-05 
v 0.00116086 0.000474278 4e-05 
v 0.00115905 0.000479597 4e-05 
v -0.0017814 0.000488775 4e-05 
v 0.00113299 0.000522591 4e-05 
v 0.00116244 0.000468884 4e-05 
v 0.0011664 0.00044678 4e-05 
v -0.00177638 0.000498681 4e-05 
v 0.00116379 0.000463428 4e-05 
v 0.00116679 0.000441173 4e-05 
v -0.00177053 0.000508121 4e-05 
v -0.0017639 0.000517028 4e-05 
v 0.00115694 0.000434896 4e-05 
v 0.00103694 0.000489993 4e-05 
v 0.00116689 0.000439896 4e-05 
v 0.00103695 0.000564993 4e-05 
v -0.00175653 0.000525336 4e-05 
vn 0 0 1 
vn 0 0 1 
vn 0 0 1 
vn 0 0 1 
vn 0 0 1 
vn 0 0 1 
vn 0 0 1 
vn 0 0 1 
vn 0 0 1 
vn 0 0 1 
vn 0 0 1 
vn 0 0 1 
vn 0 0 1 
vn 0 0 1 
vn 0 0 1 
vn 0 0 1 
vn 0 0 1 
vn 0 0 1 
vn 0 0 1 
vn 0 0 1 
vn 0 0 1 
vn 0 0 1 
vn 0 0 1 
vn 0 0 1 
vn 0 0 1 
vn 0 0 1 
vn 0 0 1 
vn 0 0 1 
vn 0 0 1 
vn 0 0 1 
vn 0 0 1 
vn 0 0 1 
vn 0 0 1 
vn 0 0 1 
vn 0 0 1 
vn 0 0 1 
vn 0 0 1 
vn 0 0 1 
vn 0 0 1 
vn 0 0 1 
vn 0 0 1 
vn 0 0 1 
vn 0 0 1 
vn 0 0 1 
vn 0 0 1 
vn 0 0 1 
vn 0 0 1 
vn 0 0 1 
vn 0 0 1 
vn 0 0 1 
vn 0 0 1 
vn 0 0 1 
vn 0 0 1 
vn 0 0 1 
vn 0 0 1 
vn 0 0 1 
vn 0 0 1 
vn 0 0 1 
vn 0 0 1 
vn 0 0 1 
vn 0 0 1 
vn 0 0 1 
vn 0 0 1 
vn 0 0 1 
vn 0 0 1 
vn 0 0 1 
vn 0 0 1 
vn 0 0 1 
vn 0 0 1 
vn 0 0 1 
vn 0 0 1 
vn 0 0 1 
vn 0 0 1 
vn 0 0 1 
vn 0 0 1 
vn 0 0 1 
vn 0 0 1 
vn 0 0 1 
vn 0 0 1 
f 168//168 169//169 170//170 
f 168//168 171//171 169//169 
f 170//170 172//172 168//168 
f 168//168 173//173 174//174 
f 168//168 174//174 171//171 
f 168//168 175//175 173//173 
f 168//168 176//176 175//175 
f 168//168 177//177 178//178 
f 168//168 178//178 176//176 
f 168//168 179//179 177//177 
f 168//168 180//180 179//179 
f 168//168 181//181 182//182 
f 168//168 182//182 180//180 
f 168//168 183//183 181//181 
f 168//168 184//184 183//183 
f 168//168 185//185 184//184 
f 168//168 186//186 185//185 
f 168//168 187//187 186//186 
f 170//170 188//188 172//172 
f 188//188 189//189 172//172 
f 170//170 190//190 188//188 
f 189//189 191//191 172//172 
f 189//189 192//192 191//191 
f 188//188 193//193 189//189 
f 190//190 194//194 188//188 
f 170//170 195//195 190//190 
f 191//191 196//196 172//172 
f 191//191 197//197 196//196 
f 198//198 199//199 200//200 
f 198//198 201//201 202//202 
f 203//203 204//204 205//205 
f 192//192 206//206 191//191 
f 202//202 199//199 198//198 
f 207//207 208//208 209//209 
f 205//205 210//210 203//203 
f 189//189 211//211 192//192 
f 208//208 207//207 212//212 
f 209//209 198//198 207//207 
f 203//203 213//213 214//214 
f 210//210 215//215 203//203 
f 203//203 216//216 217//217 
f 218//218 219//219 220//220 
f 193//193 221//221 189//189 
f 208//208 222//222 223//223 
f 200//200 207//207 198//198 
f 214//214 224//224 203//203 
f 203//203 225//225 226//226 
f 203//203 227//227 228//228 
f 203//203 229//229 230//230 
f 217//217 204//204 203//203 
f 203//203 231//231 232//232 
f 220//220 203//203 218//218 
f 188//188 233//233 193//193 
f 212//212 222//222 208//208 
f 226//226 213//213 203//203 
f 203//203 234//234 227//227 
f 215//215 229//229 203//203 
f 203//203 235//235 231//231 
f 218//218 236//236 219//219 
f 194//194 237//237 188//188 
f 224//224 208//208 203//203 
f 230//230 234//234 203//203 
f 203//203 238//238 235//235 
f 218//218 239//239 236//236 
f 190//190 240//240 194//194 
f 228//228 225//225 203//203 
f 220//220 238//238 203//203 
f 195//195 241//241 190//190 
f 232//232 216//216 203//203 
f 172//172 242//242 168//168 
f 223//223 203//203 208//208 
f 242//242 243//243 168//168 
f 243//243 242//242 218//218 
f 218//218 244//244 239//239 
f 218//218 245//245 243//243 
f 170//170 246//246 195//195 
f 203//203 245//245 218//218 
o mesh91
v -0.00166306 0.000489993 0.000145 
v -0.00166306 0.000489993 4e-05 
v 0.00103694 0.000489993 4e-05 
v 0.00103694 0.000489993 0.000145 
vn 0 -1 0 
vn 0 -1 0 
vn 0 -1 0 
vn 0 -1 0 
f 247//247 248//248 249//249 
f 249//249 250//250 247//247 
o mesh92
v 0.00104454 0.000739896 1.5e-05 
v 0.00103694 0.000739993 0.000145 
v 0.00103695 0.000564993 4e-05 
v 0.00103694 0.000489993 0.000145 
v 0.00103694 0.000489993 4e-05 
v 0.00103695 0.000564993 1.5e-05 
vn 1 0 0 
vn 1 0 0 
vn 1 0 0 
vn 1 0 0 
vn 1 0 0 
vn 1 0 0 
f 251//251 252//252 253//253 
f 254//254 255//255 253//253 
f 253//253 252//252 254//254 
f 253//253 256//256 251//251 
o mesh93
v -0.00166306 0.000589993 0.000145 
v -0.00166908 0.00058308 5.87835e-06 
v -0.00166306 0.000489993 4e-05 
v -0.00166306 0.000489993 0.000145 
vn -1 0 0 
vn -1 0 0 
vn -1 0 0 
vn -1 0 0 
f 257//257 258//258 259//259 
f 259//259 260//260 257//257 
o mesh94
v 0.00104944 0.00056439 1.5e-05 
v 0.00114664 0.000504753 1.5e-05 
v 0.00114955 0.000499946 1.5e-05 
v -0.0017639 0.000517028 1.5e-05 
v -0.00177356 0.000503463 1.5e-05 
v -0.00177053 0.000508121 1.5e-05 
v -0.0017603 0.00052126 1.5e-05 
v -0.001779 0.000493782 1.5e-05 
v -0.00177638 0.000498681 1.5e-05 
v -0.00178359 0.000483671 1.5e-05 
v -0.0017814 0.000488775 1.5e-05 
v 0.00114352 0.00050943 1.5e-05 
v 0.00107153 0.000560307 1.5e-05 
v 0.00108745 0.00055478 1.5e-05 
v 0.00109258 0.000552485 1.5e-05 
v 0.00107691 0.000558695 1.5e-05 
v -0.00176731 0.000512645 1.5e-05 
v -0.00179294 0.000440449 1.5e-05 
v -0.00178731 0.000473205 1.5e-05 
v 0.00115694 0.000439896 1.5e-05 
v 0.0011649 0.000457918 1.5e-05 
v 0.00115225 0.000495018 1.5e-05 
v 0.00115474 0.000489977 1.5e-05 
v 0.0011402 0.000513967 1.5e-05 
v 0.00110252 0.00054724 1.5e-05 
v 0.00110731 0.000544301 1.5e-05 
v 0.00108222 0.000556851 1.5e-05 
v 0.0010976 0.00054997 1.5e-05 
v 0.00106057 0.000562826 1.5e-05 
v 0.00106608 0.000561685 1.5e-05 
v -0.00175258 0.000529246 1.5e-05 
v -0.00178556 0.000478478 1.5e-05 
v -0.001792 0.000451515 1.5e-05 
v -0.00179117 0.000457008 1.5e-05 
v 0.00116379 0.000463428 1.5e-05 
v 0.001157 0.000484834 1.5e-05 
v 0.00115905 0.000479597 1.5e-05 
v 0.00113299 0.000522591 1.5e-05 
v 0.00113669 0.000518357 1.5e-05 
v 0.00112085 0.00053428 1.5e-05 
v 0.00112507 0.00053056 1.5e-05 
v 0.00111197 0.000541157 1.5e-05 
v 0.00111648 0.000537815 1.5e-05 
v 0.00105503 0.000563729 1.5e-05 
v -0.00175653 0.000525336 1.5e-05 
v -0.00179011 0.00046246 1.5e-05 
v -0.00179258 0.000445992 1.5e-05 
v 0.00116577 0.000452365 1.5e-05 
v 0.00116086 0.000474278 1.5e-05 
v 0.00112912 0.000526661 1.5e-05 
v -0.00167303 0.000479896 1.5e-05 
v -0.00171118 0.000555942 1.04766e-05 
v -0.00170666 0.000558855 9.98302e-06 
v 0.0011664 0.00044678 1.5e-05 
v 0.00116244 0.000468884 1.5e-05 
v -0.00169342 0.000567392 8.53657e-06 
v -0.00168914 0.000570153 8.06882e-06 
v -0.00171573 0.000553004 1.09745e-05 
v -0.00179305 0.000434896 1.5e-05 
v -0.00174342 0.000535152 1.39994e-05 
v -0.00178883 0.000467863 1.5e-05 
v -0.00169777 0.000564586 9.0121e-06 
v -0.00170219 0.000561738 9.49455e-06 
v -0.00173881 0.000538126 1.34954e-05 
v -0.00174802 0.00053219 1.45013e-05 
v -0.00172493 0.000547074 1.19793e-05 
v -0.00172032 0.000550046 1.14757e-05 
v -0.00173418 0.000541109 1.299e-05 
v -0.00172956 0.000544093 1.24844e-05 
v 0.00104697 0.000479896 1.5e-05 
v 0.00104697 0.000564605 1.5e-05 
v 0.00115694 0.000434896 1.5e-05 
v 0.00116679 0.000441173 1.5e-05 
v -0.00168493 0.000572862 7.6097e-06 
v -0.00168082 0.000575516 7.16005e-06 
v 0.00116689 0.000439896 1.5e-05 
v -0.00166908 0.00058308 5.87835e-06 
vn 0 0 -1 
vn 0 0 -1 
vn 0 0 -1 
vn 0 0 -1 
vn 0 0 -1 
vn 0 0 -1 
vn 0 0 -1 
vn 0 0 -1 
vn 0 0 -1 
vn 0 0 -1 
vn 0 0 -1 
vn 0 0 -1 
vn 0 0 -1 
vn 0 0 -1 
vn 0 0 -1 
vn 0 0 -1 
vn 0 0 -1 
vn 0 0 -1 
vn 0 0 -1 
vn 0 0 -1 
vn 0 0 -1 
vn 0 0 -1 
vn 0 0 -1 
vn 0 0 -1 
vn 0 0 -1 
vn 0 0 -1 
vn 0 0 -1 
vn 0 0 -1 
vn 0 0 -1 
vn 0 0 -1 
vn 0 0 -1 
vn 0 0 -1 
vn 0 0 -1 
vn 0 0 -1 
vn 0 0 -1 
vn 0 0 -1 
vn 0 0 -1 
vn 0 0 -1 
vn 0 0 -1 
vn 0 0 -1 
vn 0 0 -1 
vn 0 0 -1 
vn 0 0 -1 
vn 0 0 -1 
vn 0 0 -1 
vn 0 0 -1 
vn 0 0 -1 
vn 0 0 -1 
vn 0 0 -1 
vn 0 0 -1 
vn 0 0 -1 
vn 0 0 -1 
vn 0 0 -1 
vn 0 0 -1 
vn 0 0 -1 
vn 0 0 -1 
vn 0 0 -1 
vn 0 0 -1 
vn 0 0 -1 
vn 0 0 -1 
vn 0 0 -1 
vn 0 0 -1 
vn 0 0 -1 
vn 0 0 -1 
vn 0 0 -1 
vn 0 0 -1 
vn 0 0 -1 
vn 0 0 -1 
vn 0 0 -1 
vn 0 0 -1 
vn 0 0 -1 
vn 0 0 -1 
vn 0 0 -1 
vn 0 0 -1 
vn 0 0 -1 
vn 0 0 -1 
vn 0 0 -1 
f 261//261 262//262 263//263 
f 264//264 265//265 266//266 
f 267//267 268//268 269//269 
f 267//267 270//270 271//271 
f 261//261 272//272 262//262 
f 273//273 274//274 275//275 
f 274//274 273//273 276//276 
f 266//266 277//277 264//264 
f 271//271 268//268 267//267 
f 267//267 278//278 279//279 
f 280//280 261//261 281//281 
f 261//261 282//282 283//283 
f 261//261 284//284 272//272 
f 261//261 285//285 286//286 
f 276//276 287//287 274//274 
f 288//288 289//289 290//290 
f 278//278 267//267 291//291 
f 269//269 265//265 267//267 
f 279//279 292//292 267//267 
f 279//279 293//293 294//294 
f 261//261 295//295 281//281 
f 261//261 296//296 297//297 
f 263//263 282//282 261//261 
f 261//261 298//298 299//299 
f 261//261 300//300 301//301 
f 261//261 302//302 303//303 
f 261//261 288//288 285//285 
f 290//290 273//273 288//288 
f 288//288 261//261 304//304 
f 267//267 305//305 291//291 
f 292//292 270//270 267//267 
f 294//294 306//306 279//279 
f 279//279 278//278 307//307 
f 281//281 308//308 280//280 
f 297//297 309//309 261//261 
f 299//299 284//284 261//261 
f 301//301 310//310 261//261 
f 286//286 302//302 261//261 
f 304//304 289//289 288//288 
f 311//311 312//312 313//313 
f 264//264 267//267 265//265 
f 307//307 293//293 279//279 
f 308//308 314//314 280//280 
f 309//309 315//315 261//261 
f 310//310 298//298 261//261 
f 275//275 288//288 273//273 
f 311//311 316//316 317//317 
f 311//311 318//318 312//312 
f 311//311 319//319 320//320 
f 320//320 319//319 278//278 
f 306//306 321//321 279//279 
f 315//315 295//295 261//261 
f 303//303 300//300 261//261 
f 311//311 322//322 316//316 
f 313//313 323//323 311//311 
f 320//320 324//324 311//311 
f 291//291 325//325 278//278 
f 283//283 296//296 261//261 
f 323//323 322//322 311//311 
f 311//311 326//326 327//327 
f 311//311 328//328 329//329 
f 278//278 325//325 320//320 
f 330//330 331//331 280//280 
f 332//332 319//319 311//311 
f 280//280 331//331 261//261 
f 327//327 318//318 311//311 
f 324//324 328//328 311//311 
f 311//311 330//330 332//332 
f 314//314 333//333 280//280 
f 311//311 334//334 335//335 
f 329//329 326//326 311//311 
f 333//333 336//336 280//280 
f 317//317 334//334 311//311 
f 335//335 337//337 311//311 
f 280//280 332//332 330//330 
o mesh95
v 0.00104697 0.000479896 0 
v 0.00104697 0.000479896 1.5e-05 
v -0.00167303 0.000479896 1.5e-05 
v -0.00167303 0.000479896 0 
vn 0 -1 0 
vn 0 -1 0 
vn 0 -1 0 
vn 0 -1 0 
f 338//338 339//339 340//340 
f 340//340 341//341 338//338 
o mesh96
v -0.00166908 0.00058308 5.87835e-06 
v -0.00167303 0.000479896 0 
v -0.00167303 0.000479896 1.5e-05 
vn -1 0 0 
vn -1 0 0 
vn -1 0 0 
f 342//342 343//343 344//344 
o mesh97
v 0.00104697 0.000739896 0 
v 0.00104454 0.000739896 1.5e-05 
v 0.00104697 0.000564605 1.5e-05 
v 0.00104697 0.000479896 0 
v 0.00104697 0.000479896 1.5e-05 
vn 1 0 0 
vn 1 0 0 
vn 1 0 0 
vn 1 0 0 
vn 1 0 0 
f 345//345 346//346 347//347 
f 347//347 348//348 345//345 
f 347//347 349//349 348//348 
o mesh98
v 0.000111944 0.000739945 1.5e-05 
v 0.000111944 0.000739993 0.000145 
v 0.00103694 0.000739993 0.000145 
v 0.00104454 0.000739896 1.5e-05 
vn 0 1 0 
vn 0 1 0 
vn 0 1 0 
vn 0 1 0 
f 350//350 351//351 352//352 
f 352//352 353//353 350//350 
o mesh99
v 0.000111944 0.000739993 0.000145 
v -0.00103806 0.00123999 0.000145 
v -0.00166306 0.000589993 0.000145 
v 0.00103694 0.000489993 0.000145 
v 0.00103694 0.000739993 0.000145 
v -0.00166306 0.000489993 0.000145 
v -0.00186306 0.00123999 0.000145 
v -0.00186306 0.000589993 0.000145 
vn 0 0 1 
vn 0 0 1 
vn 0 0 1 
vn 0 0 1 
vn 0 0 1 
vn 0 0 1 
vn 0 0 1 
vn 0 0 1 
f 354//354 355//355 356//356 
f 357//357 358//358 354//354 
f 354//354 359//359 357//357 
f 360//360 361//361 356//356 
f 356//356 355//355 360//360 
f 356//356 359//359 354//354 
o mesh100
v -0.00166306 0.000589993 0.000145 
v -0.00186306 0.000589993 0.000145 
v -0.00186304 0.000589945 1.5e-05 
v -0.00166908 0.00058308 5.87835e-06 
vn 0 -1 0 
vn 0 -1 0 
vn 0 -1 0 
vn 0 -1 0 
f 362//362 363//363 364//364 
f 364//364 365//365 362//362 
o mesh101
v -0.00186306 0.00123999 1.5e-05 
v -0.00186306 0.00123999 0.000145 
v -0.00103806 0.00123999 0.000145 
v -0.00103806 0.00123999 1.5e-05 
vn 0 1 0 
vn 0 1 0 
vn 0 1 0 
vn 0 1 0 
f 366//366 367//367 368//368 
f 368//368 369//369 366//366 
o mesh102
v -0.00186306 0.000739896 1.5e-05 
v -0.00186306 0.00123999 1.5e-05 
v -0.00103806 0.00123999 1.5e-05 
v 0.000111944 0.000739945 1.5e-05 
vn 0 0 -1 
vn 0 0 -1 
vn 0 0 -1 
vn 0 0 -1 
f 370//370 371//371 372//372 
f 372//372 373//373 370//370 
o mesh103
v -0.00103806 0.00123999 1.5e-05 
v -0.00103806 0.00123999 0.000145 
v 0.000111944 0.000739993 0.000145 
v 0.000111944 0.000739945 1.5e-05 
vn 0.398726 0.91707 0 
vn 0.398726 0.91707 0 
vn 0.398726 0.91707 0 
vn 0.398726 0.91707 0 
f 374//374 375//375 376//376 
f 376//376 377//377 374//374 
o mesh104
v -0.00186306 0.00123999 0.000145 
v -0.00186306 0.00123999 1.5e-05 
v -0.00186306 0.000739896 1.5e-05 
v -0.00186306 0.000589993 0.000145 
v -0.00186304 0.000589945 1.5e-05 
vn -1 0 0 
vn -1 0 0 
vn -1 0 0 
vn -1 0 0 
vn -1 0 0 
f 378//378 379//379 380//380 
f 380//380 381//381 378//378 
f 380//380 382//382 381//381 
o mesh105
v -0.00186303 0.000739896 -9e-05 
v -0.00186303 0.000589896 -9e-05 
v -0.00186304 0.000589945 1.5e-05 
v -0.00186306 0.000739896 1.5e-05 
vn -1 0 0 
vn -1 0 0 
vn -1 0 0 
vn -1 0 0 
f 383//383 384//384 385//385 
f 385//385 386//386 383//383 
o mesh106
v -0.00186303 0.000739896 -9e-05 
v -0.00186306 0.000739896 1.5e-05 
v 0.000111944 0.000739945 1.5e-05 
v 0.00103697 0.000739896 -9e-05 
v 0.00104454 0.000739896 1.5e-05 
v 0.00104697 0.000739896 0 
v 0.00103697 0.000739896 0 
vn 0 1 0 
vn 0 1 0 
vn 0 1 0 
vn 0 1 0 
vn 0 1 0 
vn 0 1 0 
vn 0 1 0 
f 387//387 388//388 389//389 
f 389//389 390//390 387//387 
f 391//391 392//392 393//393 
f 393//393 389//389 391//391 
f 389//389 393//393 390//390 
o mesh107
v 0.00103697 0.000739896 -9e-05 
v 0.00103697 0.000739896 0 
v 0.00103697 0.000489896 0 
v 0.00103697 0.000489896 -9e-05 
vn 1 0 0 
vn 1 0 0 
vn 1 0 0 
vn 1 0 0 
f 394//394 395//395 396//396 
f 396//396 397//397 394//394 
o mesh108
v -0.00167303 0.000479896 0 
v -0.00166303 0.000489896 0 
v 0.00103697 0.000489896 0 
v 0.00104697 0.000739896 0 
v 0.00104697 0.000479896 0 
v -0.00166908 0.00058308 5.87835e-06 
v 0.00103697 0.000739896 0 
vn 0 0 -1 
vn 0 0 -1 
vn 0 0 -1 
vn 0 0 -1 
vn 0 0 -1 
vn 0 0 -1 
vn 0 0 -1 
f 398//398 399//399 400//400 
f 401//401 402//402 400//400 
f 398//398 403//403 399//399 
f 400//400 402//402 398//398 
f 400//400 404//404 401//401 
o mesh109
v -0.00186303 0.000739896 -9e-05 
v 0.00103697 0.000739896 -9e-05 
v -0.00166303 0.000589896 -9e-05 
v 0.00103697 0.000489896 -9e-05 
v -0.00166303 0.000489896 -9e-05 
v -0.00186303 0.000589896 -9e-05 
vn 0 0 -1 
vn 0 0 -1 
vn 0 0 -1 
vn 0 0 -1 
vn 0 0 -1 
vn 0 0 -1 
f 405//405 406//406 407//407 
f 408//408 409//409 407//407 
f 407//407 406//406 408//408 
f 407//407 410//410 405//405 
o mesh110
v 0.00103697 0.000489896 -9e-05 
v 0.00103697 0.000489896 0 
v -0.00166303 0.000489896 0 
v -0.00166303 0.000489896 -9e-05 
vn 0 -1 0 
vn 0 -1 0 
vn 0 -1 0 
vn 0 -1 0 
f 411//411 412//412 413//413 
f 413//413 414//414 411//411 
o mesh111
v -0.00166303 0.000489896 -9e-05 
v -0.00166303 0.000489896 0 
v -0.00166908 0.00058308 5.87835e-06 
v -0.00166303 0.000589896 -9e-05 
vn -1 0 0 
vn -1 0 0 
vn -1 0 0 
vn -1 0 0 
f 415//415 416//416 417//417 
f 417//417 418//418 415//415 
o mesh112
v -0.00186303 0.000589896 -9e-05 
v -0.00166303 0.000589896 -9e-05 
v -0.00166908 0.00058308 5.87835e-06 
v -0.00186304 0.000589945 1.5e-05 
vn 0 -1 0 
vn 0 -1 0 
vn 0 -1 0 
vn 0 -1 0 
f 419//419 420//420 421//421 
f 421//421 422//422 419//419 
