# OBJ generated by ONSHAPE BY PTC INC, 1.218 Units = meters
mtllib hinge_left_wing.mtl
g hinge_left_wing
usemtl 0.301961_0.301961_0.301961_0.000000_0.000000
o mesh0
v 0.000568673 -0.000319629 4.69679e-05 
v 0.000577235 -0.000191545 3.92783e-05 
v 0.000578687 -0.000320506 4.69679e-05 
v 0.00057368 -0.000445436 4.69679e-05 
vn 0 0 -1 
vn 0 0 -1 
vn 0 0 -1 
vn 0 0 -1 
f 1//1 2//2 3//3 
f 3//3 4//4 1//1 
o mesh1
v 0.000568673 -0.000445366 6.19679e-05 
v 0.000577235 -0.000191545 3.92783e-05 
v 0.000568673 -0.000319629 4.69679e-05 
v 0.00057368 -0.000445436 4.69679e-05 
vn -1 0 0 
vn -1 0 0 
vn -1 0 0 
vn -1 0 0 
f 5//5 6//6 7//7 
f 7//7 8//8 5//5 
o mesh2
v 0.00057368 -0.000445436 4.69679e-05 
v 0.00082368 -0.000445429 4.69679e-05 
v 0.000818658 -0.000445352 6.19679e-05 
v 0.000568673 -0.000445366 6.19679e-05 
vn 0 -1 0 
vn 0 -1 0 
vn 0 -1 0 
vn 0 -1 0 
f 9//9 10//10 11//11 
f 11//11 12//12 9//9 
o mesh3
v 0.000578687 -0.000445436 2.19679e-05 
v 0.00057368 -0.000445436 4.69679e-05 
v 0.000578687 -0.000320506 4.69679e-05 
v 0.000577235 -0.000191545 3.92783e-05 
vn -1 0 0 
vn -1 0 0 
vn -1 0 0 
vn -1 0 0 
f 13//13 14//14 15//15 
f 15//15 16//16 13//13 
o mesh4
v 0.000818658 -0.000445352 6.19679e-05 
v 0.000818688 -0.000435499 6.19679e-05 
v 0.000578673 -0.000435323 6.19679e-05 
v 0.000568673 -0.000445366 6.19679e-05 
v 0.000577235 -0.000191545 3.92783e-05 
vn 0 0 1 
vn 0 0 1 
vn 0 0 1 
vn 0 0 1 
vn 0 0 1 
f 17//17 18//18 19//19 
f 19//19 20//20 17//17 
f 19//19 21//21 20//20 
o mesh5
v 0.000578673 -0.000185506 0.000151968 
v 0.000577235 -0.000191545 3.92783e-05 
v 0.000578673 -0.000435323 6.19679e-05 
v 0.000578673 -0.000435323 0.000151968 
vn -1 0 0 
vn -1 0 0 
vn -1 0 0 
vn -1 0 0 
f 22//22 23//23 24//24 
f 24//24 25//25 22//22 
o mesh6
v 0.000578673 -0.000435323 0.000151968 
v 0.000578673 -0.000435323 6.19679e-05 
v 0.000818688 -0.000435499 6.19679e-05 
v 0.000828702 -0.000435506 0.000151968 
v 0.000828702 -0.000435506 6.19679e-05 
vn -0.000730893 -1 0 
vn -0.000730893 -1 0 
vn -0.000730893 -1 0 
vn -0.000730893 -1 0 
vn -0.000730893 -1 0 
f 26//26 27//27 28//28 
f 28//28 29//29 26//26 
f 28//28 30//30 29//29 
o mesh7
v 0.000828702 6.44869e-05 6.19679e-05 
v 0.000828702 -0.000435506 6.19679e-05 
v 0.000818688 -0.000435499 6.19679e-05 
v 0.000818688 6.44869e-05 6.19679e-05 
vn 0 0 -1 
vn 0 0 -1 
vn 0 0 -1 
vn 0 0 -1 
f 31//31 32//32 33//33 
f 33//33 34//34 31//31 
o mesh8
v 0.000818688 6.44869e-05 4.69679e-05 
v 0.000818688 6.44869e-05 6.19679e-05 
v 0.000818688 -0.000435499 6.19679e-05 
v 0.00082368 -0.000445429 4.69679e-05 
v 0.000818658 -0.000445352 6.19679e-05 
vn 1 0 0 
vn 1 0 0 
vn 1 0 0 
vn 1 0 0 
vn 1 0 0 
f 35//35 36//36 37//37 
f 37//37 38//38 35//35 
f 37//37 39//39 38//38 
o mesh9
v 0.000828702 6.44869e-05 4.69679e-05 
v 0.000818688 6.44869e-05 4.69679e-05 
v 0.00082368 -0.000445429 4.69679e-05 
vn 0 0 1 
vn 0 0 1 
vn 0 0 1 
f 40//40 41//41 42//42 
o mesh10
v 0.000828702 6.44869e-05 2.19679e-05 
v 0.000828702 6.44869e-05 4.69679e-05 
v 0.00082368 -0.000445429 4.69679e-05 
v 0.000828702 -0.000445506 2.19679e-05 
vn 1 0 0 
vn 1 0 0 
vn 1 0 0 
vn 1 0 0 
f 43//43 44//44 45//45 
f 45//45 46//46 43//43 
o mesh11
v 0.00057368 -0.000445436 4.69679e-05 
v 0.000578687 -0.000445436 2.19679e-05 
v 0.000818666 -0.000445436 2.19679e-05 
v 0.00082368 -0.000445429 4.69679e-05 
v 0.000828702 -0.000445506 2.19679e-05 
vn 0 -1 0 
vn 0 -1 0 
vn 0 -1 0 
vn 0 -1 0 
vn 0 -1 0 
f 47//47 48//48 49//49 
f 49//49 50//50 47//47 
f 49//49 51//51 50//50 
o mesh12
v 0.000828702 6.44869e-05 2.19679e-05 
v 0.000828702 -0.000445506 2.19679e-05 
v 0.000818666 -0.000445436 2.19679e-05 
v 0.000818688 6.44869e-05 2.19679e-05 
vn 0 0 -1 
vn 0 0 -1 
vn 0 0 -1 
vn 0 0 -1 
f 52//52 53//53 54//54 
f 54//54 55//55 52//52 
o mesh13
v 0.000818688 6.44869e-05 2.19679e-05 
v 0.000818666 -0.000445436 2.19679e-05 
v 0.000818658 -0.000445359 6.96789e-06 
v 0.000818688 6.44869e-05 6.96789e-06 
vn 1 0 0 
vn 1 0 0 
vn 1 0 0 
vn 1 0 0 
f 56//56 57//57 58//58 
f 58//58 59//59 56//56 
o mesh14
v 0.000818658 -0.000445359 6.96789e-06 
v 0.000818666 -0.000445436 2.19679e-05 
v 0.000578687 -0.000445436 2.19679e-05 
v 0.000568673 -0.000445366 6.96789e-06 
v 0.000568673 -0.000445366 2.19679e-05 
vn 0 -1 0 
vn 0 -1 0 
vn 0 -1 0 
vn 0 -1 0 
vn 0 -1 0 
f 60//60 61//61 62//62 
f 62//62 63//63 60//60 
f 62//62 64//64 63//63 
o mesh15
v 0.000578687 -0.000445436 2.19679e-05 
v 0.000577235 -0.000191545 3.92783e-05 
v 0.000568673 -0.000445366 2.19679e-05 
vn 0 0 1 
vn 0 0 1 
vn 0 0 1 
f 65//65 66//66 67//67 
o mesh16
v 0.000568673 -0.000445366 6.96789e-06 
v 0.000568673 -0.000445366 2.19679e-05 
v 0.000577235 -0.000191545 3.92783e-05 
vn -1 0 0 
vn -1 0 0 
vn -1 0 0 
f 68//68 69//69 70//70 
o mesh17
v 0.000828702 -0.000435506 0.000151968 
v 0.000828702 -0.000435506 6.19679e-05 
v 0.000828702 6.44869e-05 6.19679e-05 
v 0.000828702 7.44869e-05 0.000151968 
v 0.000828702 7.44869e-05 6.19679e-05 
vn 1 0 0 
vn 1 0 0 
vn 1 0 0 
vn 1 0 0 
vn 1 0 0 
f 71//71 72//72 73//73 
f 73//73 74//74 71//71 
f 73//73 75//75 74//74 
o mesh18
v 0.000828702 7.44869e-05 0.000151968 
v 0.000828702 7.44869e-05 6.19679e-05 
v 0.00107869 7.44869e-05 6.19679e-05 
v 0.00107869 7.44869e-05 0.000151968 
vn 0 -1 0 
vn 0 -1 0 
vn 0 -1 0 
vn 0 -1 0 
f 76//76 77//77 78//78 
f 78//78 79//79 76//76 
o mesh19
v 0.00107869 7.44869e-05 0.000151968 
v 0.00107869 7.44869e-05 6.19679e-05 
v 0.00107869 -0.000435689 6.19679e-05 
v 0.00107869 -0.000435689 0.000151968 
vn -1 0 0 
vn -1 0 0 
vn -1 0 0 
vn -1 0 0 
f 80//80 81//81 82//82 
f 82//82 83//83 80//80 
o mesh20
v 0.00107869 -0.000435689 0.000151968 
v 0.00107869 -0.000435689 6.19679e-05 
v 0.00131867 -0.000435864 6.19679e-05 
v 0.00132869 -0.000435871 0.000151968 
v 0.00132869 -0.000435871 6.19679e-05 
vn -0.000730893 -1 0 
vn -0.000730893 -1 0 
vn -0.000730893 -1 0 
vn -0.000730893 -1 0 
vn -0.000730893 -1 0 
f 84//84 85//85 86//86 
f 86//86 87//87 84//84 
f 86//86 88//88 87//87 
o mesh21
v 0.00132869 -0.000435871 0.000151968 
v 0.00132869 -0.000435871 6.19679e-05 
v 0.00132869 -0.000195323 6.19679e-05 
v 0.00132869 -0.000185506 0.000151968 
v 0.00132869 -0.000185506 6.19679e-05 
vn 1 0 0 
vn 1 0 0 
vn 1 0 0 
vn 1 0 0 
vn 1 0 0 
f 89//89 90//90 91//91 
f 91//91 92//92 89//89 
f 91//91 93//93 92//92 
o mesh22
v 0.00132869 -0.000185506 0.000151968 
v 0.00132869 -0.000185506 6.19679e-05 
v 0.00156872 -0.000185506 6.19679e-05 
v 0.00157872 -0.000185506 0.000151968 
v 0.00157872 -0.000185506 6.19679e-05 
vn 0 -1 0 
vn 0 -1 0 
vn 0 -1 0 
vn 0 -1 0 
vn 0 -1 0 
f 94//94 95//95 96//96 
f 96//96 97//97 94//94 
f 96//96 98//98 97//97 
o mesh23
v 0.00157872 -0.000185506 0.000151968 
v 0.00157872 -0.000185506 6.19679e-05 
v 0.00157873 0.000107934 6.19679e-05 
v 0.00157873 0.000107934 0.000151968 
vn 1 0 0 
vn 1 0 0 
vn 1 0 0 
vn 1 0 0 
f 99//99 100//100 101//101 
f 101//101 102//102 99//99 
o mesh24
v 0.00157873 0.000107934 0.000151968 
v 0.00157873 0.000107934 6.19679e-05 
v 0.00149305 0.000169432 6.19679e-05 
v 0.00149304 0.000169434 0.000151968 
vn 0.583103 0.812398 0 
vn 0.583103 0.812398 0 
vn 0.583103 0.812398 0 
vn 0.583103 0.812398 0 
f 103//103 104//104 105//105 
f 105//105 106//106 103//103 
o mesh25
v 0.00157873 0.000107934 6.19679e-05 
v 0.00156873 9.79336e-05 6.19679e-05 
v 0.00149304 0.000159433 6.19679e-05 
v 0.00157872 -0.000185506 6.19679e-05 
v 0.00156872 -0.000185506 6.19679e-05 
v 0.00149305 0.000169432 6.19679e-05 
vn 0 0 -1 
vn 0 0 -1 
vn 0 0 -1 
vn 0 0 -1 
vn 0 0 -1 
vn 0 0 -1 
f 107//107 108//108 109//109 
f 110//110 111//111 108//108 
f 108//108 107//107 110//110 
f 109//109 112//112 107//107 
o mesh26
v 0.00156872 -0.000195323 6.19679e-05 
v 0.00156872 -0.000185506 6.19679e-05 
v 0.00132869 -0.000185506 6.19679e-05 
v 0.00132869 -0.000195323 6.19679e-05 
vn 0 0 1 
vn 0 0 1 
vn 0 0 1 
vn 0 0 1 
f 113//113 114//114 115//115 
f 115//115 116//116 113//113 
o mesh27
v 0.00157373 9.79336e-05 4.69679e-05 
v 0.00156873 9.79336e-05 6.19679e-05 
v 0.00156872 -0.000185506 6.19679e-05 
v 0.00157373 -0.000195414 4.69679e-05 
v 0.00156872 -0.000195323 6.19679e-05 
vn 1 0 0 
vn 1 0 0 
vn 1 0 0 
vn 1 0 0 
vn 1 0 0 
f 117//117 118//118 119//119 
f 119//119 120//120 117//117 
f 119//119 121//121 120//120 
o mesh28
v 0.00132869 -0.000435871 6.19679e-05 
v 0.00131867 -0.000435864 6.19679e-05 
v 0.00131868 -0.000195388 6.19679e-05 
v 0.00132869 -0.000195323 6.19679e-05 
vn 0 0 -1 
vn 0 0 -1 
vn 0 0 -1 
vn 0 0 -1 
f 122//122 123//123 124//124 
f 124//124 125//125 122//122 
o mesh29
v 0.00132369 -0.000195457 4.69679e-05 
v 0.00157373 -0.000195414 4.69679e-05 
v 0.00156872 -0.000195323 6.19679e-05 
v 0.00132869 -0.000195323 6.19679e-05 
v 0.00131868 -0.000195388 6.19679e-05 
vn 0 -1 0 
vn 0 -1 0 
vn 0 -1 0 
vn 0 -1 0 
vn 0 -1 0 
f 126//126 127//127 128//128 
f 128//128 129//129 126//126 
f 129//129 130//130 126//126 
o mesh30
v 0.00149305 0.00015943 4.69679e-05 
v 0.00149304 0.000159433 6.19679e-05 
v 0.00156873 9.79336e-05 6.19679e-05 
v 0.00157373 9.79336e-05 4.69679e-05 
vn 0.630634 0.776081 0 
vn 0.630634 0.776081 0 
vn 0.630634 0.776081 0 
vn 0.630634 0.776081 0 
f 131//131 132//132 133//133 
f 133//133 134//134 131//131 
o mesh31
v 0.00149305 0.00015943 2.19679e-05 
v 0.00149305 0.00015943 4.69679e-05 
v 0.00157373 9.79336e-05 4.69679e-05 
v 0.00157873 9.79336e-05 2.19679e-05 
vn 0.583103 0.812398 0 
vn 0.583103 0.812398 0 
vn 0.583103 0.812398 0 
vn 0.583103 0.812398 0 
f 135//135 136//136 137//137 
f 137//137 138//138 135//135 
o mesh32
v 0.00157873 9.79336e-05 2.19679e-05 
v 0.00157373 9.79336e-05 4.69679e-05 
v 0.00157373 -0.000195414 4.69679e-05 
v 0.00157872 -0.000195506 2.19679e-05 
vn 1 0 0 
vn 1 0 0 
vn 1 0 0 
vn 1 0 0 
f 139//139 140//140 141//141 
f 141//141 142//142 139//139 
o mesh33
v 0.00157373 -0.000195414 4.69679e-05 
v 0.00132369 -0.000195457 4.69679e-05 
v 0.00132869 -0.000195506 2.19679e-05 
v 0.00157872 -0.000195506 2.19679e-05 
vn 0 -1 0 
vn 0 -1 0 
vn 0 -1 0 
vn 0 -1 0 
f 143//143 144//144 145//145 
f 145//145 146//146 143//143 
o mesh34
v 0.00107869 -0.000435689 6.19679e-05 
v 0.00107869 7.44869e-05 6.19679e-05 
v 0.00106869 6.44869e-05 6.19679e-05 
v 0.00131867 -0.000445366 6.19679e-05 
v 0.00131867 -0.000435864 6.19679e-05 
v 0.00106869 -0.000445366 6.19679e-05 
v 0.000828702 7.44869e-05 6.19679e-05 
v 0.000828702 6.44869e-05 6.19679e-05 
vn 0 0 1 
vn 0 0 1 
vn 0 0 1 
vn 0 0 1 
vn 0 0 1 
vn 0 0 1 
vn 0 0 1 
vn 0 0 1 
f 147//147 148//148 149//149 
f 150//150 151//151 147//147 
f 147//147 152//152 150//150 
f 153//153 154//154 149//149 
f 149//149 148//148 153//153 
f 149//149 152//152 147//147 
o mesh35
v 0.00131868 -0.000195388 6.19679e-05 
v 0.00131867 -0.000435864 6.19679e-05 
v 0.00131867 -0.00032044 4.69679e-05 
v 0.00132217 -0.000445424 4.69679e-05 
v 0.00132369 -0.000195457 4.69679e-05 
v 0.00131867 -0.000445366 6.19679e-05 
vn 1 0 0 
vn 1 0 0 
vn 1 0 0 
vn 1 0 0 
vn 1 0 0 
vn 1 0 0 
f 155//155 156//156 157//157 
f 156//156 158//158 157//157 
f 157//157 159//159 155//155 
f 156//156 160//160 158//158 
o mesh36
v 0.00132869 -0.000320506 4.69679e-05 
v 0.00132369 -0.000195457 4.69679e-05 
v 0.00131867 -0.00032044 4.69679e-05 
v 0.00132217 -0.000445424 4.69679e-05 
vn 0 0 1 
vn 0 0 1 
vn 0 0 1 
vn 0 0 1 
f 161//161 162//162 163//163 
f 163//163 164//164 161//161 
o mesh37
v 0.00131867 -0.000445366 6.19679e-05 
v 0.00106869 -0.000445366 6.19679e-05 
v 0.00107369 -0.000445436 4.69679e-05 
v 0.00132217 -0.000445424 4.69679e-05 
vn 0 -1 0 
vn 0 -1 0 
vn 0 -1 0 
vn 0 -1 0 
f 165//165 166//166 167//167 
f 167//167 168//168 165//165 
o mesh38
v 0.00132869 -0.000445506 2.19679e-05 
v 0.00132869 -0.000195506 2.19679e-05 
v 0.00132869 -0.000320506 4.69679e-05 
v 0.00132369 -0.000195457 4.69679e-05 
v 0.00132217 -0.000445424 4.69679e-05 
vn 1 0 0 
vn 1 0 0 
vn 1 0 0 
vn 1 0 0 
vn 1 0 0 
f 169//169 170//170 171//171 
f 170//170 172//172 171//171 
f 171//171 173//173 169//169 
o mesh39
v 0.00106869 6.44869e-05 4.69679e-05 
v 0.00107369 -0.000445436 4.69679e-05 
v 0.00106869 -0.000445366 6.19679e-05 
v 0.00106869 6.44869e-05 6.19679e-05 
vn -1 0 0 
vn -1 0 0 
vn -1 0 0 
vn -1 0 0 
f 174//174 175//175 176//176 
f 176//176 177//177 174//174 
o mesh40
v 0.0010787 6.44869e-05 4.69679e-05 
v 0.00107369 -0.000445436 4.69679e-05 
v 0.00106869 6.44869e-05 4.69679e-05 
vn 0 0 -1 
vn 0 0 -1 
vn 0 0 -1 
f 178//178 179//179 180//180 
o mesh41
v 0.00132217 -0.000445424 4.69679e-05 
v 0.00107369 -0.000445436 4.69679e-05 
v 0.0010787 -0.000445436 2.19679e-05 
v 0.00131867 -0.000445436 2.19679e-05 
v 0.00132869 -0.000445506 2.19679e-05 
vn 0 -1 0 
vn 0 -1 0 
vn 0 -1 0 
vn 0 -1 0 
vn 0 -1 0 
f 181//181 182//182 183//183 
f 183//183 184//184 181//181 
f 184//184 185//185 181//181 
o mesh42
v 0.0010787 6.44869e-05 2.19679e-05 
v 0.0010787 -0.000445436 2.19679e-05 
v 0.00107369 -0.000445436 4.69679e-05 
v 0.0010787 6.44869e-05 4.69679e-05 
vn -1 0 0 
vn -1 0 0 
vn -1 0 0 
vn -1 0 0 
f 186//186 187//187 188//188 
f 188//188 189//189 186//186 
o mesh43
v 0.000828702 6.44869e-05 4.69679e-05 
v 0.00106869 6.44869e-05 2.19679e-05 
v 0.00106869 6.44869e-05 4.69679e-05 
v 0.0010787 6.44869e-05 2.19679e-05 
v 0.0010787 6.44869e-05 4.69679e-05 
v 0.000828702 6.44869e-05 2.19679e-05 
v 0.00106869 6.44869e-05 6.96789e-06 
v 0.000818688 6.44869e-05 6.96789e-06 
v 0.000818688 6.44869e-05 6.19679e-05 
v 0.000818688 6.44869e-05 4.69679e-05 
v 0.00106869 6.44869e-05 6.19679e-05 
v 0.000828702 6.44869e-05 6.19679e-05 
v 0.000818688 6.44869e-05 2.19679e-05 
vn 0 -1 0 
vn 0 -1 0 
vn 0 -1 0 
vn 0 -1 0 
vn 0 -1 0 
vn 0 -1 0 
vn 0 -1 0 
vn 0 -1 0 
vn 0 -1 0 
vn 0 -1 0 
vn 0 -1 0 
vn 0 -1 0 
vn 0 -1 0 
f 190//190 191//191 192//192 
f 193//193 194//194 192//192 
f 192//192 191//191 193//193 
f 195//195 196//196 191//191 
f 197//197 196//196 195//195 
f 191//191 190//190 195//195 
f 198//198 199//199 190//190 
f 192//192 200//200 190//190 
f 190//190 200//200 201//201 
f 190//190 201//201 198//198 
f 195//195 202//202 197//197 
o mesh44
v 0.0010787 6.44869e-05 2.19679e-05 
v 0.00106869 6.44869e-05 2.19679e-05 
v 0.00106869 -0.000445366 2.19679e-05 
v 0.0010787 -0.000445436 2.19679e-05 
vn 0 0 1 
vn 0 0 1 
vn 0 0 1 
vn 0 0 1 
f 203//203 204//204 205//205 
f 205//205 206//206 203//203 
o mesh45
v 0.00106869 -0.000445366 6.96789e-06 
v 0.00106869 -0.000445366 2.19679e-05 
v 0.00106869 6.44869e-05 2.19679e-05 
v 0.00106869 6.44869e-05 6.96789e-06 
vn -1 0 0 
vn -1 0 0 
vn -1 0 0 
vn -1 0 0 
f 207//207 208//208 209//209 
f 209//209 210//210 207//207 
o mesh46
v 0.00131867 -0.000445366 6.96789e-06 
v 0.00131867 -0.000445436 2.19679e-05 
v 0.0010787 -0.000445436 2.19679e-05 
v 0.00106869 -0.000445366 6.96789e-06 
v 0.00106869 -0.000445366 2.19679e-05 
vn 0 -1 0 
vn 0 -1 0 
vn 0 -1 0 
vn 0 -1 0 
vn 0 -1 0 
f 211//211 212//212 213//213 
f 213//213 214//214 211//211 
f 213//213 215//215 214//214 
o mesh47
v 0.00131868 -0.000195388 2.19679e-05 
v 0.00131867 -0.000445436 2.19679e-05 
v 0.00131867 -0.000445366 6.96789e-06 
v 0.00131868 -0.000195409 6.96789e-06 
vn 1 0 0 
vn 1 0 0 
vn 1 0 0 
vn 1 0 0 
f 216//216 217//217 218//218 
f 218//218 219//219 216//216 
o mesh48
v 0.00131868 -0.000195409 6.96789e-06 
v 0.00157372 -0.000195323 6.96789e-06 
v 0.00156872 -0.000195323 2.19679e-05 
v 0.00131868 -0.000195388 2.19679e-05 
vn 0 -1 0 
vn 0 -1 0 
vn 0 -1 0 
vn 0 -1 0 
f 220//220 221//221 222//222 
f 222//222 223//223 220//220 
o mesh49
v 0.00157873 9.79336e-05 2.19679e-05 
v 0.00157872 -0.000195506 2.19679e-05 
v 0.00156872 -0.000195323 2.19679e-05 
v 0.00156872 9.79367e-05 2.19679e-05 
v 0.00132869 -0.000195506 2.19679e-05 
v 0.00131867 -0.000445436 2.19679e-05 
v 0.00131868 -0.000195388 2.19679e-05 
v 0.00149305 0.00015943 2.19679e-05 
v 0.00132869 -0.000445506 2.19679e-05 
vn 0 0 -1 
vn 0 0 -1 
vn 0 0 -1 
vn 0 0 -1 
vn 0 0 -1 
vn 0 0 -1 
vn 0 0 -1 
vn 0 0 -1 
vn 0 0 -1 
f 224//224 225//225 226//226 
f 226//226 227//227 224//224 
f 226//226 225//225 228//228 
f 229//229 230//230 228//228 
f 228//228 230//230 226//226 
f 227//227 231//231 224//224 
f 228//228 232//232 229//229 
o mesh50
v 0.00156872 9.79367e-05 2.19679e-05 
v 0.00157372 9.79414e-05 6.96789e-06 
v 0.00153089 0.000128683 6.96789e-06 
v 0.00149305 0.00015943 2.19679e-05 
v 0.00149304 0.000159434 6.96789e-06 
vn 0.630634 0.776081 0 
vn 0.630634 0.776081 0 
vn 0.630634 0.776081 0 
vn 0.630634 0.776081 0 
vn 0.630634 0.776081 0 
f 233//233 234//234 235//235 
f 235//235 236//236 233//233 
f 235//235 237//237 236//236 
o mesh51
v 0.00157372 -0.000195323 6.96789e-06 
v 0.00157372 9.79414e-05 6.96789e-06 
v 0.00156872 9.79367e-05 2.19679e-05 
v 0.00156872 -0.000195323 2.19679e-05 
vn 1 0 0 
vn 1 0 0 
vn 1 0 0 
vn 1 0 0 
f 238//238 239//239 240//240 
f 240//240 241//241 238//238 
o mesh52
v 0.00153089 0.000128683 6.96789e-06 
v 0.00157372 9.79414e-05 6.96789e-06 
v 0.00153588 0.000128691 6.96789e-06 
v 0.00149304 0.000159434 6.96789e-06 
vn 0 0 1 
vn 0 0 1 
vn 0 0 1 
vn 0 0 1 
f 242//242 243//243 244//244 
f 244//244 245//245 242//242 
o mesh53
v 0.00149304 0.000159434 -8.30321e-05 
v 0.00149304 0.000159434 6.96789e-06 
v 0.00153588 0.000128691 6.96789e-06 
v 0.00157871 9.79493e-05 -8.30321e-05 
v 0.00157372 9.79414e-05 6.96789e-06 
vn 0.583103 0.812398 0 
vn 0.583103 0.812398 0 
vn 0.583103 0.812398 0 
vn 0.583103 0.812398 0 
vn 0.583103 0.812398 0 
f 246//246 247//247 248//248 
f 248//248 249//249 246//246 
f 248//248 250//250 249//249 
o mesh54
v 0.00157871 -0.000682564 -8.30321e-05 
v 0.00157871 9.79493e-05 -8.30321e-05 
v 0.00157372 -0.000195323 6.96789e-06 
v 0.00157372 9.79414e-05 6.96789e-06 
v 0.00157871 -0.000682564 6.96789e-06 
vn 1 0 0 
vn 1 0 0 
vn 1 0 0 
vn 1 0 0 
vn 1 0 0 
f 251//251 252//252 253//253 
f 252//252 254//254 253//253 
f 253//253 255//255 251//251 
o mesh55
v 0.000760275 -0.000682564 6.96789e-06 
v 0.000760275 -0.000682564 -8.30321e-05 
v 0.00157871 -0.000682564 -8.30321e-05 
v 0.00157871 -0.000682564 6.96789e-06 
vn 0 -1 0 
vn 0 -1 0 
vn 0 -1 0 
vn 0 -1 0 
f 256//256 257//257 258//258 
f 258//258 259//259 256//256 
o mesh56
v 0.000328687 -0.000445506 6.96789e-06 
v 0.000328687 -0.000445506 -8.30321e-05 
v 0.000760275 -0.000682564 -8.30321e-05 
v 0.000760275 -0.000682564 6.96789e-06 
vn -0.481428 -0.876486 0 
vn -0.481428 -0.876486 0 
vn -0.481428 -0.876486 0 
vn -0.481428 -0.876486 0 
f 260//260 261//261 262//262 
f 262//262 263//263 260//260 
o mesh57
v 0.000328687 -0.000445506 6.96789e-06 
v -0.00120695 7.43583e-06 6.96789e-06 
v -0.00120695 7.43583e-06 -8.30321e-05 
v 0.000328687 -0.000445506 -8.30321e-05 
vn -0.282905 -0.959148 0 
vn -0.282905 -0.959148 0 
vn -0.282905 -0.959148 0 
vn -0.282905 -0.959148 0 
f 264//264 265//265 266//266 
f 266//266 267//267 264//264 
o mesh58
v 0.000760275 -0.000682564 -8.30321e-05 
v 0.00149304 0.000159434 -8.30321e-05 
v 0.00157871 9.79493e-05 -8.30321e-05 
v 0.00149305 0.000264436 -8.30321e-05 
v 0.000328687 -0.000445506 -8.30321e-05 
v 0.00157871 -0.000682564 -8.30321e-05 
v -0.00120695 0.000264436 -8.30321e-05 
v -0.00120695 7.43583e-06 -8.30321e-05 
vn 0 0 -1 
vn 0 0 -1 
vn 0 0 -1 
vn 0 0 -1 
vn 0 0 -1 
vn 0 0 -1 
vn 0 0 -1 
vn 0 0 -1 
f 268//268 269//269 270//270 
f 271//271 269//269 272//272 
f 270//270 273//273 268//268 
f 272//272 274//274 271//271 
f 272//272 275//275 274//274 
f 268//268 272//272 269//269 
o mesh59
v -0.00120695 0.000264436 -8.30321e-05 
v -0.00120695 7.43583e-06 -8.30321e-05 
v -0.00120695 7.43583e-06 6.96789e-06 
v -0.00120695 0.000264436 6.96789e-06 
vn -1 0 0 
vn -1 0 0 
vn -1 0 0 
vn -1 0 0 
f 276//276 277//277 278//278 
f 278//278 279//279 276//276 
o mesh60
v 0.00149305 0.000264436 6.96789e-06 
v 0.00149305 0.000264436 -8.30321e-05 
v -0.00120695 0.000264436 -8.30321e-05 
v -0.00120695 0.000264436 6.96789e-06 
vn 0 1 0 
vn 0 1 0 
vn 0 1 0 
vn 0 1 0 
f 280//280 281//281 282//282 
f 282//282 283//283 280//280 
o mesh61
v 0.000578673 -0.000185506 0.000151968 
v 0.000328687 -0.000185506 0.000151968 
v 0.000437427 -0.000185506 2.19679e-05 
v 0.000322893 -0.00019178 3.14009e-05 
v 0.000577235 -0.000191545 3.92783e-05 
vn 0 -1 0 
vn 0 -1 0 
vn 0 -1 0 
vn 0 -1 0 
vn 0 -1 0 
f 284//284 285//285 286//286 
f 285//285 287//287 286//286 
f 286//286 288//288 284//284 
o mesh62
v 0.000437427 -0.000185506 2.19679e-05 
v 0.000322893 -0.00019178 3.14009e-05 
v 0.000459304 -0.000195323 2.19679e-05 
v 0.000577235 -0.000191545 3.92783e-05 
vn 0 0 1 
vn 0 0 1 
vn 0 0 1 
vn 0 0 1 
f 289//289 290//290 291//291 
f 291//291 292//292 289//289 
o mesh63
v 0.000459304 -0.000195323 6.96789e-06 
v 0.000577235 -0.000191545 3.92783e-05 
v 0.000459304 -0.000195323 2.19679e-05 
v 0.000322893 -0.00019178 3.14009e-05 
vn 0 -1 0 
vn 0 -1 0 
vn 0 -1 0 
vn 0 -1 0 
f 293//293 294//294 295//295 
f 295//295 296//296 293//293 
o mesh64
v 0.000760275 -0.000682564 6.96789e-06 
v 0.000818658 -0.000445359 6.96789e-06 
v 0.000568673 -0.000445366 6.96789e-06 
v 0.000577235 -0.000191545 3.92783e-05 
v 0.000459304 -0.000195323 6.96789e-06 
v 0.00106869 -0.000445366 6.96789e-06 
v 0.00106869 6.44869e-05 6.96789e-06 
v 0.000818688 6.44869e-05 6.96789e-06 
v 0.00157871 -0.000682564 6.96789e-06 
v 0.00131867 -0.000445366 6.96789e-06 
v 0.00157372 -0.000195323 6.96789e-06 
v 0.00131868 -0.000195409 6.96789e-06 
v -0.00120695 7.43583e-06 6.96789e-06 
v 0.000328687 -0.000445506 6.96789e-06 
v 0.000322893 -0.00019178 3.14009e-05 
v 0.000318687 7.43583e-06 6.96789e-06 
vn 0 0 1 
vn 0 0 1 
vn 0 0 1 
vn 0 0 1 
vn 0 0 1 
vn 0 0 1 
vn 0 0 1 
vn 0 0 1 
vn 0 0 1 
vn 0 0 1 
vn 0 0 1 
vn 0 0 1 
vn 0 0 1 
vn 0 0 1 
vn 0 0 1 
vn 0 0 1 
f 297//297 298//298 299//299 
f 299//299 300//300 301//301 
f 297//297 302//302 298//298 
f 302//302 303//303 304//304 
f 305//305 306//306 302//302 
f 307//307 308//308 306//306 
f 309//309 310//310 311//311 
f 301//301 310//310 299//299 
f 304//304 298//298 302//302 
f 306//306 305//305 307//307 
f 301//301 311//311 310//310 
f 302//302 297//297 305//305 
f 299//299 310//310 297//297 
f 311//311 312//312 309//309 
o mesh65
v 0.000322893 -0.00019178 3.14009e-05 
v 0.000318687 7.43583e-06 2.19679e-05 
v 0.000318687 7.43583e-06 6.96789e-06 
vn -1 0 0 
vn -1 0 0 
vn -1 0 0 
f 313//313 314//314 315//315 
o mesh66
v 0.000318687 7.43583e-06 2.19679e-05 
v 0.000322893 -0.00019178 3.14009e-05 
v 0.000328687 7.43583e-06 2.19679e-05 
vn 0 0 1 
vn 0 0 1 
vn 0 0 1 
f 316//316 317//317 318//318 
o mesh67
v 0.000322893 -0.00019178 3.14009e-05 
v 0.000323687 7.43583e-06 4.69679e-05 
v 0.000328687 7.43583e-06 2.19679e-05 
vn -1 0 0 
vn -1 0 0 
vn -1 0 0 
f 319//319 320//320 321//321 
o mesh68
v 0.000322893 -0.00019178 3.14009e-05 
v 0.000318687 7.43583e-06 6.19679e-05 
v 0.000323687 7.43583e-06 4.69679e-05 
vn -1 0 0 
vn -1 0 0 
vn -1 0 0 
f 322//322 323//323 324//324 
o mesh69
v 0.000328687 -0.000185506 0.000151968 
v 0.000328687 1.74358e-05 0.000151968 
v 0.000328687 1.74358e-05 6.19679e-05 
v 0.000322893 -0.00019178 3.14009e-05 
vn -1 0 0 
vn -1 0 0 
vn -1 0 0 
vn -1 0 0 
f 325//325 326//326 327//327 
f 327//327 328//328 325//325 
o mesh70
v -0.00120695 1.74358e-05 0.000151968 
v -0.00120695 1.74358e-05 6.19679e-05 
v 0.000328687 1.74358e-05 6.19679e-05 
v 0.000328687 1.74358e-05 0.000151968 
vn 0 -1 0 
vn 0 -1 0 
vn 0 -1 0 
vn 0 -1 0 
f 329//329 330//330 331//331 
f 331//331 332//332 329//329 
o mesh71
v 0.00132869 -0.000185506 0.000151968 
v 0.00157872 -0.000185506 0.000151968 
v 0.00157873 0.000107934 0.000151968 
v 0.00149304 0.000169434 0.000151968 
v 0.00107869 7.44869e-05 0.000151968 
v 0.00107869 -0.000435689 0.000151968 
v 0.00132869 -0.000435871 0.000151968 
v 0.00149305 0.000274436 0.000151968 
v 0.000328687 1.74358e-05 0.000151968 
v 0.000828702 7.44869e-05 0.000151968 
v 0.000328687 -0.000185506 0.000151968 
v 0.000578673 -0.000185506 0.000151968 
v 0.000828702 -0.000435506 0.000151968 
v -0.00120695 0.000274436 0.000151968 
v -0.00120695 1.74358e-05 0.000151968 
v 0.000578673 -0.000435323 0.000151968 
vn 0 0 1 
vn 0 0 1 
vn 0 0 1 
vn 0 0 1 
vn 0 0 1 
vn 0 0 1 
vn 0 0 1 
vn 0 0 1 
vn 0 0 1 
vn 0 0 1 
vn 0 0 1 
vn 0 0 1 
vn 0 0 1 
vn 0 0 1 
vn 0 0 1 
vn 0 0 1 
f 333//333 334//334 335//335 
f 336//336 337//337 333//333 
f 335//335 336//336 333//333 
f 338//338 339//339 333//333 
f 340//340 341//341 342//342 
f 341//341 343//343 344//344 
f 333//333 337//337 338//338 
f 344//344 342//342 341//341 
f 345//345 342//342 344//344 
f 342//342 337//337 340//340 
f 336//336 340//340 337//337 
f 346//346 347//347 341//341 
f 341//341 340//340 346//346 
f 344//344 348//348 345//345 
o mesh72
v -0.00120695 0.000274436 0.000151968 
v -0.00120695 0.000274436 6.19679e-05 
v -0.00120695 1.74358e-05 6.19679e-05 
v -0.00120695 1.74358e-05 0.000151968 
vn -1 0 0 
vn -1 0 0 
vn -1 0 0 
vn -1 0 0 
f 349//349 350//350 351//351 
f 351//351 352//352 349//349 
o mesh73
v 0.000318687 7.43583e-06 6.19679e-05 
v 0.000328687 1.74358e-05 6.19679e-05 
v -0.00120695 1.74358e-05 6.19679e-05 
v -0.00122695 0.000274436 6.19679e-05 
v -0.00122695 7.43583e-06 6.19679e-05 
v 0.000322893 -0.00019178 3.14009e-05 
v -0.00120695 0.000274436 6.19679e-05 
vn 0 0 1 
vn 0 0 1 
vn 0 0 1 
vn 0 0 1 
vn 0 0 1 
vn 0 0 1 
vn 0 0 1 
f 353//353 354//354 355//355 
f 356//356 357//357 355//355 
f 355//355 357//357 353//353 
f 353//353 358//358 354//354 
f 355//355 359//359 356//356 
o mesh74
v 0.00149305 0.000274436 0.000151968 
v 0.00149305 0.000274436 4.69679e-05 
v -0.00120695 0.000274436 6.19679e-05 
v -0.00122695 0.000274436 4.69679e-05 
v -0.00122695 0.000274436 6.19679e-05 
v -0.00120695 0.000274436 0.000151968 
vn 0 1 0 
vn 0 1 0 
vn 0 1 0 
vn 0 1 0 
vn 0 1 0 
vn 0 1 0 
f 360//360 361//361 362//362 
f 363//363 364//364 362//362 
f 362//362 361//361 363//363 
f 362//362 365//365 360//360 
o mesh75
v -0.00122695 7.43583e-06 6.19679e-05 
v -0.00122695 0.000274436 6.19679e-05 
v -0.00122695 0.000190984 4.69679e-05 
v -0.00122695 0.000274436 4.69679e-05 
v -0.00122695 7.43583e-06 4.69679e-05 
vn -1 0 0 
vn -1 0 0 
vn -1 0 0 
vn -1 0 0 
vn -1 0 0 
f 366//366 367//367 368//368 
f 367//367 369//369 368//368 
f 368//368 370//370 366//366 
o mesh76
v -0.00122695 7.43583e-06 6.96789e-06 
v -0.00122695 0.000274436 6.96789e-06 
v -0.00120695 0.000264436 6.96789e-06 
v 0.00149305 0.000274436 6.96789e-06 
v 0.00149305 0.000264436 6.96789e-06 
v -0.00120695 7.43583e-06 6.96789e-06 
vn 0 0 -1 
vn 0 0 -1 
vn 0 0 -1 
vn 0 0 -1 
vn 0 0 -1 
vn 0 0 -1 
f 371//371 372//372 373//373 
f 374//374 375//375 373//373 
f 373//373 372//372 374//374 
f 373//373 376//376 371//371 
o mesh77
v -0.00122695 0.000274436 6.96789e-06 
v -0.00122695 0.000274436 2.19679e-05 
v 0.00149305 0.000274436 2.19679e-05 
v 0.00149305 0.000274436 6.96789e-06 
vn 0 1 0 
vn 0 1 0 
vn 0 1 0 
vn 0 1 0 
f 377//377 378//378 379//379 
f 379//379 380//380 377//377 
o mesh78
v 0.00149305 0.00015943 2.19679e-05 
v 0.00149305 0.000189436 2.19679e-05 
v 0.00149305 0.000189436 4.69679e-05 
v 0.00149305 0.00015943 4.69679e-05 
v 0.00149305 0.000169432 6.19679e-05 
v 0.00149304 0.000159434 -8.30321e-05 
v 0.00149305 0.000264436 -8.30321e-05 
v 0.00149305 0.000264436 6.96789e-06 
v 0.00149304 0.000159433 6.19679e-05 
v 0.00149305 0.000274436 0.000151968 
v 0.00149304 0.000169434 0.000151968 
v 0.00149305 0.000274436 2.19679e-05 
v 0.00149304 0.000159434 6.96789e-06 
v 0.00149305 0.000274436 6.96789e-06 
v 0.00149305 0.000274436 4.69679e-05 
vn 1 0 0 
vn 1 0 0 
vn 1 0 0 
vn 1 0 0 
vn 1 0 0 
vn 1 0 0 
vn 1 0 0 
vn 1 0 0 
vn 1 0 0 
vn 1 0 0 
vn 1 0 0 
vn 1 0 0 
vn 1 0 0 
vn 1 0 0 
vn 1 0 0 
f 381//381 382//382 383//383 
f 383//383 384//384 381//381 
f 384//384 383//383 385//385 
f 386//386 387//387 388//388 
f 385//385 389//389 384//384 
f 388//388 382//382 386//386 
f 390//390 391//391 385//385 
f 392//392 382//382 388//388 
f 382//382 393//393 386//386 
f 385//385 383//383 390//390 
f 381//381 393//393 382//382 
f 388//388 394//394 392//392 
f 383//383 395//395 390//390 
o mesh79
v -0.00122695 7.43583e-06 6.96789e-06 
v -0.00122695 7.43583e-06 2.19679e-05 
v -0.00122695 0.000190984 2.19679e-05 
v -0.00122695 0.000274436 6.96789e-06 
v -0.00122695 0.000274436 2.19679e-05 
vn -1 0 0 
vn -1 0 0 
vn -1 0 0 
vn -1 0 0 
vn -1 0 0 
f 396//396 397//397 398//398 
f 398//398 399//399 396//396 
f 398//398 400//400 399//399 
o mesh80
v -0.00122695 7.43583e-06 2.19679e-05 
v -0.00122695 7.43583e-06 6.96789e-06 
v -0.00120695 7.43583e-06 6.96789e-06 
v -0.00120695 7.43583e-06 2.19679e-05 
v 0.000318687 7.43583e-06 6.96789e-06 
v 0.000318687 7.43583e-06 2.19679e-05 
v 0.000328687 7.43583e-06 2.19679e-05 
v 0.000323687 7.43583e-06 4.69679e-05 
v -0.00120695 7.43583e-06 4.69679e-05 
v -0.00122695 7.43583e-06 6.19679e-05 
v -0.00122695 7.43583e-06 4.69679e-05 
v 0.000318687 7.43583e-06 6.19679e-05 
vn 0 -1 0 
vn 0 -1 0 
vn 0 -1 0 
vn 0 -1 0 
vn 0 -1 0 
vn 0 -1 0 
vn 0 -1 0 
vn 0 -1 0 
vn 0 -1 0 
vn 0 -1 0 
vn 0 -1 0 
vn 0 -1 0 
f 401//401 402//402 403//403 
f 403//403 404//404 401//401 
f 404//404 405//405 406//406 
f 406//406 407//407 408//408 
f 406//406 409//409 404//404 
f 410//410 411//411 409//409 
f 412//412 410//410 406//406 
f 409//409 406//406 410//410 
f 403//403 405//405 404//404 
f 408//408 412//412 406//406 
o mesh81
v -0.00122695 7.43583e-06 4.69679e-05 
v -0.00122031 0.000190125 4.69679e-05 
v -0.00120695 0.000189436 4.69679e-05 
v -0.00122695 0.000190984 4.69679e-05 
v -0.00120695 7.43583e-06 4.69679e-05 
vn 0 0 -1 
vn 0 0 -1 
vn 0 0 -1 
vn 0 0 -1 
vn 0 0 -1 
f 413//413 414//414 415//415 
f 413//413 416//416 414//414 
f 415//415 417//417 413//413 
o mesh82
v -0.00120695 0.000189436 4.69679e-05 
v -0.00120695 0.000189436 2.19679e-05 
v -0.00120695 7.43583e-06 2.19679e-05 
v -0.00120695 7.43583e-06 4.69679e-05 
vn -1 0 0 
vn -1 0 0 
vn -1 0 0 
vn -1 0 0 
f 418//418 419//419 420//420 
f 420//420 421//421 418//418 
o mesh83
v -0.00122695 7.43583e-06 2.19679e-05 
v -0.00120695 7.43583e-06 2.19679e-05 
v -0.00120695 0.000189436 2.19679e-05 
v -0.00122031 0.000190125 2.19679e-05 
v -0.00122695 0.000190984 2.19679e-05 
vn 0 0 1 
vn 0 0 1 
vn 0 0 1 
vn 0 0 1 
vn 0 0 1 
f 422//422 423//423 424//424 
f 424//424 425//425 422//422 
f 425//425 426//426 422//422 
o mesh84
v -0.00120695 0.000189436 2.19679e-05 
v -0.00120695 0.000189436 4.69679e-05 
v -0.00122031 0.000190125 4.69679e-05 
v -0.00123353 0.000192185 4.69679e-05 
v -0.00123353 0.000192185 2.19679e-05 
v -0.00122695 0.000190984 2.19679e-05 
v -0.00122031 0.000190125 2.19679e-05 
v -0.00122695 0.000190984 4.69679e-05 
v -0.00124647 0.000195593 4.69679e-05 
v -0.00124647 0.000195593 2.19679e-05 
v -0.001259 0.000200313 4.69679e-05 
v -0.001259 0.000200313 2.19679e-05 
v -0.00127097 0.000206296 4.69679e-05 
v -0.00127097 0.000206296 2.19679e-05 
v -0.00128226 0.000213477 4.69679e-05 
v -0.00128226 0.000213477 2.19679e-05 
v -0.00129275 0.000221782 4.69679e-05 
v -0.00129275 0.000221782 2.19679e-05 
v -0.00130234 0.000231121 4.69679e-05 
v -0.00130234 0.000231121 2.19679e-05 
v -0.00131091 0.000241395 4.69679e-05 
v -0.00131091 0.000241395 2.19679e-05 
v -0.00131838 0.000252497 4.69679e-05 
v -0.00131838 0.000252497 2.19679e-05 
v -0.00132467 0.000264308 4.69679e-05 
v -0.00132467 0.000264308 2.19679e-05 
v -0.00132972 0.000276704 4.69679e-05 
v -0.00132972 0.000276704 2.19679e-05 
v -0.00133346 0.000289552 4.69679e-05 
v -0.00133346 0.000289552 2.19679e-05 
v -0.00133586 0.000302716 4.69679e-05 
v -0.00133586 0.000302716 2.19679e-05 
v -0.0013369 0.000316058 4.69679e-05 
v -0.0013369 0.000316058 2.19679e-05 
v -0.00133655 0.000329436 4.69679e-05 
v -0.00133655 0.000329436 2.19679e-05 
vn -4.85013e-05 -1 0 
vn -4.85013e-05 -1 0 
vn -0.10285 -0.994697 0 
vn -0.204563 -0.978853 0 
vn -0.204563 -0.978853 0 
vn -0.153895 -0.988087 0 
vn -0.10285 -0.994697 0 
vn -0.153895 -0.988087 0 
vn -0.304107 -0.952638 0 
vn -0.304107 -0.952638 0 
vn -0.400429 -0.916328 0 
vn -0.400429 -0.916328 0 
vn -0.492508 -0.870308 0 
vn -0.492508 -0.870308 0 
vn -0.579368 -0.815066 0 
vn -0.579368 -0.815066 0 
vn -0.660089 -0.751187 0 
vn -0.660089 -0.751187 0 
vn -0.733816 -0.679348 0 
vn -0.733816 -0.679348 0 
vn -0.799767 -0.600311 0 
vn -0.799767 -0.600311 0 
vn -0.857243 -0.514913 0 
vn -0.857243 -0.514913 0 
vn -0.905635 -0.424058 0 
vn -0.905635 -0.424058 0 
vn -0.944431 -0.32871 0 
vn -0.944431 -0.32871 0 
vn -0.973219 -0.229879 0 
vn -0.973219 -0.229879 0 
vn -0.991695 -0.128612 0 
vn -0.991695 -0.128612 0 
vn -0.999662 -0.0259821 0 
vn -0.999662 -0.0259821 0 
vn -0.997037 0.0769231 0 
vn -0.997037 0.0769231 0 
f 427//427 428//428 429//429 
f 430//430 431//431 432//432 
f 433//433 429//429 434//434 
f 434//434 432//432 433//433 
f 431//431 430//430 435//435 
f 436//436 435//435 437//437 
f 438//438 437//437 439//439 
f 440//440 439//439 441//441 
f 442//442 441//441 443//443 
f 444//444 443//443 445//445 
f 446//446 445//445 447//447 
f 448//448 447//447 449//449 
f 450//450 449//449 451//451 
f 452//452 451//451 453//453 
f 454//454 453//453 455//455 
f 456//456 455//455 457//457 
f 458//458 457//457 459//459 
f 460//460 459//459 461//461 
f 461//461 462//462 460//460 
f 459//459 460//460 458//458 
f 457//457 458//458 456//456 
f 455//455 456//456 454//454 
f 453//453 454//454 452//452 
f 451//451 452//452 450//450 
f 449//449 450//450 448//448 
f 447//447 448//448 446//446 
f 445//445 446//446 444//444 
f 443//443 444//444 442//442 
f 441//441 442//442 440//440 
f 439//439 440//440 438//438 
f 437//437 438//438 436//436 
f 435//435 436//436 431//431 
f 432//432 434//434 430//430 
f 429//429 433//433 427//427 
o mesh85
v -0.00133655 0.000329436 4.69679e-05 
v 0.00161305 0.000329436 4.69679e-05 
v 0.00161305 0.000329436 2.19679e-05 
v -0.00133655 0.000329436 2.19679e-05 
vn 0 1 0 
vn 0 1 0 
vn 0 1 0 
vn 0 1 0 
f 463//463 464//464 465//465 
f 465//465 466//466 463//463 
o mesh86
v 0.00153592 0.000196709 2.19679e-05 
v 0.00152293 0.000192918 2.19679e-05 
v 0.00150962 0.000190497 2.19679e-05 
v 0.00149613 0.000189472 2.19679e-05 
v 0.00156037 0.000208224 2.19679e-05 
v 0.00154844 0.00020183 2.19679e-05 
v 0.00158191 0.000224545 2.19679e-05 
v 0.00157156 0.000215824 2.19679e-05 
v 0.00159129 0.000234295 2.19679e-05 
v 0.00160677 0.000256445 2.19679e-05 
v 0.0015996 0.000244967 2.19679e-05 
v 0.00161733 0.000281317 2.19679e-05 
v 0.0016127 0.000268606 2.19679e-05 
v -0.00122695 0.000274436 2.19679e-05 
v -0.00131838 0.000252497 2.19679e-05 
v -0.00132467 0.000264308 2.19679e-05 
v -0.00130234 0.000231121 2.19679e-05 
v -0.00131091 0.000241395 2.19679e-05 
v -0.001259 0.000200313 2.19679e-05 
v -0.00127097 0.000206296 2.19679e-05 
v 0.00162253 0.000307836 2.19679e-05 
v 0.00162062 0.000294441 2.19679e-05 
v 0.00161305 0.000324436 2.19679e-05 
v 0.00162303 0.000321357 2.19679e-05 
v -0.00128226 0.000213477 2.19679e-05 
v -0.00129275 0.000221782 2.19679e-05 
v -0.00124647 0.000195593 2.19679e-05 
v -0.00133346 0.000289552 2.19679e-05 
v -0.00133586 0.000302716 2.19679e-05 
v -0.00123353 0.000192185 2.19679e-05 
v -0.00132972 0.000276704 2.19679e-05 
v 0.001623 0.000324434 2.19679e-05 
v 0.00149305 0.000274436 2.19679e-05 
v 0.00161305 0.000329436 2.19679e-05 
v -0.0013369 0.000316058 2.19679e-05 
v -0.00133655 0.000329436 2.19679e-05 
v 0.00149305 0.000189436 2.19679e-05 
v -0.00122695 0.000190984 2.19679e-05 
vn 0 0 -1 
vn 0 0 -1 
vn 0 0 -1 
vn 0 0 -1 
vn 0 0 -1 
vn 0 0 -1 
vn 0 0 -1 
vn 0 0 -1 
vn 0 0 -1 
vn 0 0 -1 
vn 0 0 -1 
vn 0 0 -1 
vn 0 0 -1 
vn 0 0 -1 
vn 0 0 -1 
vn 0 0 -1 
vn 0 0 -1 
vn 0 0 -1 
vn 0 0 -1 
vn 0 0 -1 
vn 0 0 -1 
vn 0 0 -1 
vn 0 0 -1 
vn 0 0 -1 
vn 0 0 -1 
vn 0 0 -1 
vn 0 0 -1 
vn 0 0 -1 
vn 0 0 -1 
vn 0 0 -1 
vn 0 0 -1 
vn 0 0 -1 
vn 0 0 -1 
vn 0 0 -1 
vn 0 0 -1 
vn 0 0 -1 
vn 0 0 -1 
vn 0 0 -1 
f 467//467 468//468 469//469 
f 470//470 471//471 472//472 
f 470//470 473//473 474//474 
f 472//472 467//467 470//470 
f 470//470 475//475 473//473 
f 470//470 476//476 477//477 
f 470//470 478//478 479//479 
f 480//480 481//481 482//482 
f 480//480 483//483 484//484 
f 480//480 485//485 486//486 
f 474//474 471//471 470//470 
f 479//479 476//476 470//470 
f 470//470 487//487 488//488 
f 489//489 490//490 487//487 
f 484//484 481//481 480//480 
f 480//480 491//491 492//492 
f 480//480 493//493 485//485 
f 477//477 475//475 470//470 
f 487//487 470//470 489//489 
f 480//480 494//494 495//495 
f 492//492 483//483 480//480 
f 480//480 496//496 493//493 
f 488//488 478//478 470//470 
f 480//480 497//497 494//494 
f 486//486 491//491 480//480 
f 469//469 470//470 467//467 
f 482//482 497//497 480//480 
f 489//489 498//498 490//490 
f 499//499 500//500 489//489 
f 495//495 501//501 480//480 
f 502//502 500//500 499//499 
f 489//489 503//503 499//499 
f 480//480 504//504 496//496 
f 470//470 503//503 489//489 
f 499//499 480//480 502//502 
f 501//501 502//502 480//480 
o mesh87
v 0.00161305 0.000324436 4.69679e-05 
v 0.00162242 0.000307845 4.69679e-05 
v 0.00162302 0.000315522 4.69679e-05 
v 0.00162052 0.00029446 4.69679e-05 
v 0.001622 0.000302483 4.69679e-05 
v -0.00122695 0.000274436 4.69679e-05 
v -0.00128226 0.000213477 4.69679e-05 
v -0.00127097 0.000206296 4.69679e-05 
v -0.00131838 0.000252497 4.69679e-05 
v -0.00131091 0.000241395 4.69679e-05 
v -0.00132972 0.000276704 4.69679e-05 
v -0.00132467 0.000264308 4.69679e-05 
v 0.00160664 0.000256512 4.69679e-05 
v 0.0016105 0.00026373 4.69679e-05 
v 0.00159951 0.000245031 4.69679e-05 
v 0.00160429 0.000252106 4.69679e-05 
v 0.00154838 0.00020195 4.69679e-05 
v 0.00155697 0.000206196 4.69679e-05 
v 0.00153586 0.000196862 4.69679e-05 
v 0.00154486 0.00020021 4.69679e-05 
v 0.0015229 0.000193059 4.69679e-05 
v 0.00153203 0.000195434 4.69679e-05 
v 0.00150956 0.000191107 4.69679e-05 
v 0.0015191 0.000192073 4.69679e-05 
v -0.001259 0.000200313 4.69679e-05 
v -0.00130234 0.000231121 4.69679e-05 
v -0.00129275 0.000221782 4.69679e-05 
v 0.00162301 0.000321357 4.69679e-05 
v 0.00161719 0.00028136 4.69679e-05 
v 0.00161961 0.000289512 4.69679e-05 
v 0.00161254 0.000268673 4.69679e-05 
v 0.00161573 0.000276429 4.69679e-05 
v 0.00158179 0.000224666 4.69679e-05 
v 0.00158824 0.000230904 4.69679e-05 
v 0.00157148 0.000215927 4.69679e-05 
v 0.00157837 0.00022136 4.69679e-05 
v -0.00124647 0.000195593 4.69679e-05 
v -0.0013369 0.000316058 4.69679e-05 
v -0.00133586 0.000302716 4.69679e-05 
v 0.00156031 0.000208312 4.69679e-05 
v 0.00156802 0.000213197 4.69679e-05 
v 0.00149305 0.000189436 4.69679e-05 
v 0.0014961 0.000189745 4.69679e-05 
v -0.00133346 0.000289552 4.69679e-05 
v 0.00159118 0.000234389 4.69679e-05 
v 0.00159697 0.000241264 4.69679e-05 
v -0.00133655 0.000329436 4.69679e-05 
v 0.00149305 0.000274436 4.69679e-05 
v -0.00123353 0.000192185 4.69679e-05 
v 0.001623 0.000324434 4.69679e-05 
v -0.00122695 0.000190984 4.69679e-05 
v 0.00161305 0.000329436 4.69679e-05 
vn 0 0 1 
vn 0 0 1 
vn 0 0 1 
vn 0 0 1 
vn 0 0 1 
vn 0 0 1 
vn 0 0 1 
vn 0 0 1 
vn 0 0 1 
vn 0 0 1 
vn 0 0 1 
vn 0 0 1 
vn 0 0 1 
vn 0 0 1 
vn 0 0 1 
vn 0 0 1 
vn 0 0 1 
vn 0 0 1 
vn 0 0 1 
vn 0 0 1 
vn 0 0 1 
vn 0 0 1 
vn 0 0 1 
vn 0 0 1 
vn 0 0 1 
vn 0 0 1 
vn 0 0 1 
vn 0 0 1 
vn 0 0 1 
vn 0 0 1 
vn 0 0 1 
vn 0 0 1 
vn 0 0 1 
vn 0 0 1 
vn 0 0 1 
vn 0 0 1 
vn 0 0 1 
vn 0 0 1 
vn 0 0 1 
vn 0 0 1 
vn 0 0 1 
vn 0 0 1 
vn 0 0 1 
vn 0 0 1 
vn 0 0 1 
vn 0 0 1 
vn 0 0 1 
vn 0 0 1 
vn 0 0 1 
vn 0 0 1 
vn 0 0 1 
vn 0 0 1 
f 505//505 506//506 507//507 
f 505//505 508//508 509//509 
f 510//510 511//511 512//512 
f 510//510 513//513 514//514 
f 510//510 515//515 516//516 
f 509//509 506//506 505//505 
f 505//505 517//517 518//518 
f 505//505 519//519 520//520 
f 505//505 521//521 522//522 
f 505//505 523//523 524//524 
f 505//505 525//525 526//526 
f 505//505 527//527 528//528 
f 512//512 529//529 510//510 
f 510//510 530//530 531//531 
f 516//516 513//513 510//510 
f 507//507 532//532 505//505 
f 505//505 533//533 534//534 
f 505//505 535//535 536//536 
f 520//520 517//517 505//505 
f 505//505 537//537 538//538 
f 505//505 539//539 540//540 
f 524//524 521//521 505//505 
f 528//528 525//525 505//505 
f 529//529 541//541 510//510 
f 514//514 530//530 510//510 
f 510//510 542//542 543//543 
f 534//534 508//508 505//505 
f 518//518 535//535 505//505 
f 540//540 537//537 505//505 
f 505//505 544//544 545//545 
f 526//526 523//523 505//505 
f 505//505 546//546 547//547 
f 531//531 511//511 510//510 
f 543//543 548//548 510//510 
f 536//536 533//533 505//505 
f 505//505 549//549 550//550 
f 545//545 539//539 505//505 
f 547//547 527//527 505//505 
f 548//548 515//515 510//510 
f 550//550 519//519 505//505 
f 522//522 544//544 505//505 
f 510//510 551//551 542//542 
f 552//552 546//546 505//505 
f 538//538 549//549 505//505 
f 551//551 510//510 552//552 
f 541//541 553//553 510//510 
f 532//532 554//554 505//505 
f 553//553 555//555 510//510 
f 552//552 556//556 551//551 
f 505//505 556//556 552//552 
o mesh88
v 0.00162253 0.000307836 2.19679e-05 
v 0.00162303 0.000321357 2.19679e-05 
v 0.00162302 0.000315522 4.69679e-05 
v 0.00162301 0.000321357 4.69679e-05 
v 0.00162062 0.000294441 2.19679e-05 
v 0.001622 0.000302483 4.69679e-05 
v 0.00162242 0.000307845 4.69679e-05 
v 0.00161733 0.000281317 2.19679e-05 
v 0.00161961 0.000289512 4.69679e-05 
v 0.00162052 0.00029446 4.69679e-05 
v 0.0016127 0.000268606 2.19679e-05 
v 0.00161573 0.000276429 4.69679e-05 
v 0.00161719 0.00028136 4.69679e-05 
v 0.00160677 0.000256445 2.19679e-05 
v 0.0016105 0.00026373 4.69679e-05 
v 0.00161254 0.000268673 4.69679e-05 
v 0.0015996 0.000244967 2.19679e-05 
v 0.00160429 0.000252106 4.69679e-05 
v 0.00160664 0.000256512 4.69679e-05 
v 0.00159129 0.000234295 2.19679e-05 
v 0.00159697 0.000241264 4.69679e-05 
v 0.00159951 0.000245031 4.69679e-05 
v 0.00158191 0.000224545 2.19679e-05 
v 0.00158824 0.000230904 4.69679e-05 
v 0.00159118 0.000234389 4.69679e-05 
v 0.00157156 0.000215824 2.19679e-05 
v 0.00157837 0.00022136 4.69679e-05 
v 0.00158179 0.000224666 4.69679e-05 
v 0.00156037 0.000208224 2.19679e-05 
v 0.00156802 0.000213197 4.69679e-05 
v 0.00157148 0.000215927 4.69679e-05 
v 0.00154844 0.00020183 2.19679e-05 
v 0.00155697 0.000206196 4.69679e-05 
v 0.00156031 0.000208312 4.69679e-05 
v 0.00153592 0.000196709 2.19679e-05 
v 0.00154486 0.00020021 4.69679e-05 
v 0.00154838 0.00020195 4.69679e-05 
v 0.00152293 0.000192918 2.19679e-05 
v 0.00153203 0.000195434 4.69679e-05 
v 0.00153586 0.000196862 4.69679e-05 
v 0.00150962 0.000190497 2.19679e-05 
v 0.0015191 0.000192073 4.69679e-05 
v 0.0015229 0.000193059 4.69679e-05 
v 0.00150956 0.000191107 4.69679e-05 
v 0.0014961 0.000189745 4.69679e-05 
v 0.001623 0.000324434 2.19679e-05 
v 0.001623 0.000324434 4.69679e-05 
v 0.00149305 0.000189436 2.19679e-05 
v 0.00149613 0.000189472 2.19679e-05 
v 0.00149305 0.000189436 4.69679e-05 
vn 0.996011 -0.0892272 0 
vn 0.999891 0.0147775 0 
vn 0.999547 -0.0300984 0 
vn 0.999891 0.0147802 0 
vn 0.981343 -0.192265 0 
vn 0.991469 -0.130344 0 
vn 0.99601 -0.089237 0 
vn 0.956045 -0.293221 0 
vn 0.973169 -0.230093 0 
vn 0.981341 -0.192274 0 
vn 0.92039 -0.391 0 
vn 0.943693 -0.330823 0 
vn 0.956042 -0.293231 0 
vn 0.874767 -0.484545 0 
vn 0.903532 -0.42852 0 
vn 0.920384 -0.391015 0 
vn 0.819667 -0.57284 0 
vn 0.8555 -0.517802 0 
vn 0.874759 -0.484559 0 
vn 0.755689 -0.65493 0 
vn 0.799135 -0.601152 0 
vn 0.819659 -0.572852 0 
vn 0.683525 -0.729927 0 
vn 0.732265 -0.681019 0 
vn 0.755679 -0.654942 0 
vn 0.603958 -0.797016 0 
vn 0.656347 -0.754459 0 
vn 0.68351 -0.729941 0 
vn 0.517848 -0.855473 0 
vn 0.576584 -0.817038 0 
vn 0.603942 -0.797028 0 
vn 0.426129 -0.904662 0 
vn 0.491593 -0.870825 0 
vn 0.517834 -0.855481 0 
vn 0.329794 -0.944053 0 
vn 0.398593 -0.917128 0 
vn 0.426111 -0.904671 0 
vn 0.229887 -0.973217 0 
vn 0.299886 -0.953975 0 
vn 0.32977 -0.944061 0 
vn 0.127489 -0.99184 0 
vn 0.200439 -0.979706 0 
vn 0.229862 -0.973223 0 
vn 0.127616 -0.991824 0 
vn 0.023548 -0.999723 0 
vn 0.999261 0.0384329 0 
vn 0.999261 0.0384325 0 
vn 4.85013e-05 -1 0 
vn 0.0237108 -0.999719 0 
vn 2.2046e-06 -1 0 
f 557//557 558//558 559//559 
f 558//558 560//560 559//559 
f 561//561 557//557 562//562 
f 557//557 563//563 562//562 
f 564//564 561//561 565//565 
f 561//561 566//566 565//565 
f 567//567 564//564 568//568 
f 564//564 569//569 568//568 
f 570//570 567//567 571//571 
f 567//567 572//572 571//571 
f 573//573 570//570 574//574 
f 570//570 575//575 574//574 
f 576//576 573//573 577//577 
f 573//573 578//578 577//577 
f 579//579 576//576 580//580 
f 576//576 581//581 580//580 
f 582//582 579//579 583//583 
f 579//579 584//584 583//583 
f 585//585 582//582 586//586 
f 582//582 587//587 586//586 
f 588//588 585//585 589//589 
f 585//585 590//590 589//589 
f 591//591 588//588 592//592 
f 588//588 593//593 592//592 
f 594//594 591//591 595//595 
f 591//591 596//596 595//595 
f 597//597 594//594 598//598 
f 594//594 599//599 598//598 
f 597//597 600//600 601//601 
f 602//602 603//603 560//560 
f 604//604 605//605 601//601 
f 601//601 606//606 604//604 
f 560//560 558//558 602//602 
f 601//601 605//605 597//597 
f 598//598 600//600 597//597 
f 595//595 599//599 594//594 
f 592//592 596//596 591//591 
f 589//589 593//593 588//588 
f 586//586 590//590 585//585 
f 583//583 587//587 582//582 
f 580//580 584//584 579//579 
f 577//577 581//581 576//576 
f 574//574 578//578 573//573 
f 571//571 575//575 570//570 
f 568//568 572//572 567//567 
f 565//565 569//569 564//564 
f 562//562 566//566 561//561 
f 559//559 563//563 557//557 
o mesh89
v 0.00161305 0.000324436 2.19679e-05 
v 0.00161305 0.000329436 2.19679e-05 
v 0.00161305 0.000329436 4.69679e-05 
v 0.00161305 0.000324436 4.69679e-05 
vn 1 0 0 
vn 1 0 0 
vn 1 0 0 
vn 1 0 0 
f 607//607 608//608 609//609 
f 609//609 610//610 607//607 
o mesh90
v 0.00161305 0.000324436 4.69679e-05 
v 0.001623 0.000324434 4.69679e-05 
v 0.001623 0.000324434 2.19679e-05 
v 0.00161305 0.000324436 2.19679e-05 
vn 0 1 0 
vn 0 1 0 
vn 0 1 0 
vn 0 1 0 
f 611//611 612//612 613//613 
f 613//613 614//614 611//611 
