# OBJ generated by ONSHAPE BY PTC INC, 1.215 Units = meters
mtllib hinge_wing_Mirrored.mtl
g hinge_wing-Mirrored
usemtl 0.301961_0.301961_0.301961_0.000000_0.000000
o mesh0
v 0.00104697 0.000329955 5.5e-05 
v 0.00104195 0.000384945 5.5e-05 
v 0.00103694 0.000329955 5.5e-05 
v 0.00103914 0.000274966 4.65695e-05 
vn 0 0 1 
vn 0 0 1 
vn 0 0 1 
vn 0 0 1 
f 1//1 2//2 3//3 
f 3//3 4//4 1//1 
o mesh1
v 0.00104697 0.000329955 5.5e-05 
v 0.00104383 0.000305176 4e-05 
v 0.00104697 0.000305381 4e-05 
v 0.00104697 0.000389896 4e-05 
v 0.00104195 0.000384945 5.5e-05 
v 0.00103914 0.000274966 4.65695e-05 
vn 1 0 0 
vn 1 0 0 
vn 1 0 0 
vn 1 0 0 
vn 1 0 0 
vn 1 0 0 
f 5//5 6//6 7//7 
f 7//7 8//8 5//5 
f 8//8 9//9 5//5 
f 5//5 10//10 6//6 
o mesh2
v -0.00167303 0.000389896 4e-05 
v -0.00166804 0.000384945 5.5e-05 
v 0.00104195 0.000384945 5.5e-05 
v 0.00104697 0.000389896 4e-05 
vn 0 1 0 
vn 0 1 0 
vn 0 1 0 
vn 0 1 0 
f 11//11 12//12 13//13 
f 13//13 14//14 11//11 
o mesh3
v -0.00166804 0.000384945 5.5e-05 
v -0.00167303 0.000389896 4e-05 
v -0.00167303 0.000305377 4e-05 
v -0.00166715 0.000122936 5.23148e-05 
vn -1 0 0 
vn -1 0 0 
vn -1 0 0 
vn -1 0 0 
f 15//15 16//16 17//17 
f 17//17 18//18 15//15 
o mesh4
v -0.00166804 0.000384945 5.5e-05 
v -0.00166306 0.000379993 0.000145 
v 0.00103694 0.000379993 0.000145 
v 0.00104195 0.000384945 5.5e-05 
vn 0 1 0 
vn 0 1 0 
vn 0 1 0 
vn 0 1 0 
f 19//19 20//20 21//21 
f 21//21 22//22 19//19 
o mesh5
v 0.00103694 0.000379993 0.000145 
v 0.00103693 0.000274991 0.000145 
v 0.00103694 0.000329955 5.5e-05 
v 0.00103914 0.000274966 4.65695e-05 
v 0.00104195 0.000384945 5.5e-05 
vn 1 0 0 
vn 1 0 0 
vn 1 0 0 
vn 1 0 0 
vn 1 0 0 
f 23//23 24//24 25//25 
f 24//24 26//26 25//25 
f 25//25 27//27 23//23 
o mesh6
v -0.00166715 0.000122936 5.23148e-05 
v -0.00166306 0.000122993 0.000145 
v -0.00166306 0.000379993 0.000145 
v -0.00166804 0.000384945 5.5e-05 
vn -1 0 0 
vn -1 0 0 
vn -1 0 0 
vn -1 0 0 
f 28//28 29//29 30//30 
f 30//30 31//31 28//28 
o mesh7
v -0.000127409 0.000122945 5.5e-05 
v -0.000127423 0.000122993 0.000145 
v -0.00166306 0.000122993 0.000145 
v -0.00166715 0.000122936 5.23148e-05 
vn 0 -1 0 
vn 0 -1 0 
vn 0 -1 0 
vn 0 -1 0 
f 32//32 33//33 34//34 
f 34//34 35//35 32//32 
o mesh8
v -0.000127423 -7.99485e-05 0.000145 
v -0.000127423 0.000122993 0.000145 
v -0.000127409 0.000122945 5.5e-05 
v -0.000127409 -7.99056e-05 5.5e-05 
vn -1 0 0 
vn -1 0 0 
vn -1 0 0 
vn -1 0 0 
f 36//36 37//37 38//38 
f 38//38 39//39 36//36 
o mesh9
v -0.00166715 0.000122936 5.23148e-05 
v -0.000127409 0.000122945 4e-05 
v -0.000127409 0.000122945 5.5e-05 
vn 0 -1 0 
vn 0 -1 0 
vn 0 -1 0 
f 40//40 41//41 42//42 
o mesh10
v -0.000127409 -7.99056e-05 5.5e-05 
v -0.000127409 0.000122945 5.5e-05 
v -0.000127409 0.000122945 4e-05 
v -0.000127409 -7.99056e-05 4e-05 
vn -1 0 0 
vn -1 0 0 
vn -1 0 0 
vn -1 0 0 
f 43//43 44//44 45//45 
f 45//45 46//46 43//43 
o mesh11
v -0.000127409 -7.99056e-05 5.5e-05 
v 0.000122577 -7.99056e-05 5.5e-05 
v 0.000122563 -7.99485e-05 0.000145 
v -0.000127423 -7.99485e-05 0.000145 
vn 0 -1 0 
vn 0 -1 0 
vn 0 -1 0 
vn 0 -1 0 
f 47//47 48//48 49//49 
f 49//49 50//50 47//47 
o mesh12
v -0.000127409 -7.99056e-05 1.5e-05 
v -0.000127409 -7.99056e-05 4e-05 
v -0.000127409 0.000122945 4e-05 
v -0.000127409 0.000122945 1.5e-05 
vn -1 0 0 
vn -1 0 0 
vn -1 0 0 
vn -1 0 0 
f 51//51 52//52 53//53 
f 53//53 54//54 51//51 
o mesh13
v -0.000127409 -7.99056e-05 4e-05 
v 0.000122584 -7.99056e-05 4e-05 
v 0.000122577 -7.99056e-05 5.5e-05 
v -0.000127409 -7.99056e-05 5.5e-05 
vn 0 -1 0 
vn 0 -1 0 
vn 0 -1 0 
vn 0 -1 0 
f 55//55 56//56 57//57 
f 57//57 58//58 55//55 
o mesh14
v 0.000122577 -7.99056e-05 5.5e-05 
v 0.000122577 -0.000329836 5.5e-05 
v 0.000122563 -0.000329766 0.000145 
v 0.000122563 -7.99485e-05 0.000145 
vn -1 0 0 
vn -1 0 0 
vn -1 0 0 
vn -1 0 0 
f 59//59 60//60 61//61 
f 61//61 62//62 59//59 
o mesh15
v 0.000122584 -7.99056e-05 4e-05 
v -0.000127409 -7.99056e-05 4e-05 
v -0.000127409 -7.99056e-05 1.5e-05 
v 0.000122584 -7.99056e-05 1.5e-05 
vn 0 -1 0 
vn 0 -1 0 
vn 0 -1 0 
vn 0 -1 0 
f 63//63 64//64 65//65 
f 65//65 66//66 63//63 
o mesh16
v 0.000122584 -7.99056e-05 4e-05 
v 0.000122584 -0.000329927 4e-05 
v 0.000122577 -0.000329836 5.5e-05 
v 0.000122577 -7.99056e-05 5.5e-05 
vn -1 0 0 
vn -1 0 0 
vn -1 0 0 
vn -1 0 0 
f 67//67 68//68 69//69 
f 69//69 70//70 67//67 
o mesh17
v 0.000372592 -0.000329949 0.000145 
v 0.000122563 -0.000329766 0.000145 
v 0.000122577 -0.000329836 5.5e-05 
v 0.000372585 -0.00032992 5.5e-05 
vn -0.000730893 -1 0 
vn -0.000730893 -1 0 
vn -0.000730893 -1 0 
vn -0.000730893 -1 0 
f 71//71 72//72 73//73 
f 73//73 74//74 71//71 
o mesh18
v 0.000122584 -7.99056e-05 1.5e-05 
v -0.000127409 -7.99056e-05 1.5e-05 
v -0.000127394 -7.98626e-05 0 
v 0.000122591 -7.98626e-05 0 
vn 0 -1 0 
vn 0 -1 0 
vn 0 -1 0 
vn 0 -1 0 
f 75//75 76//76 77//77 
f 77//77 78//78 75//75 
o mesh19
v 0.000122591 -0.000329906 0 
v 0.000122584 -0.000329927 1.5e-05 
v 0.000122584 -7.99056e-05 1.5e-05 
v 0.000122591 -7.98626e-05 0 
vn -1 0 0 
vn -1 0 0 
vn -1 0 0 
vn -1 0 0 
f 79//79 80//80 81//81 
f 81//81 82//82 79//79 
o mesh20
v -0.000127409 -7.99056e-05 1.5e-05 
v -0.000127409 0.000122945 1.5e-05 
v -0.000127394 0.000122896 0 
v -0.000127394 -7.98626e-05 0 
vn -1 0 0 
vn -1 0 0 
vn -1 0 0 
vn -1 0 0 
f 83//83 84//84 85//85 
f 85//85 86//86 83//83 
o mesh21
v 0.000122584 -7.99056e-05 1.5e-05 
v 0.000122584 -0.000329927 1.5e-05 
v 0.000122584 -0.000329927 4e-05 
v 0.000122584 -7.99056e-05 4e-05 
vn -1 0 0 
vn -1 0 0 
vn -1 0 0 
vn -1 0 0 
f 87//87 88//88 89//89 
f 89//89 90//90 87//87 
o mesh22
v 0.000372585 -0.00032992 1.5e-05 
v 0.000122584 -0.000329927 1.5e-05 
v 0.000122591 -0.000329906 0 
v 0.000372592 -0.000329898 0 
vn 0 -1 0 
vn 0 -1 0 
vn 0 -1 0 
vn 0 -1 0 
f 91//91 92//92 93//93 
f 93//93 94//94 91//91 
o mesh23
v 0.000122584 -0.000329927 1.5e-05 
v 0.000372585 -0.00032992 1.5e-05 
v 0.000372585 -0.00032992 4e-05 
v 0.000122584 -0.000329927 4e-05 
vn 0 -1 0 
vn 0 -1 0 
vn 0 -1 0 
vn 0 -1 0 
f 95//95 96//96 97//97 
f 97//97 98//98 95//95 
o mesh24
v 0.000372585 -0.00032992 1.5e-05 
v 0.000372592 -0.000329898 0 
v 0.000372606 0.000179947 0 
v 0.000372599 0.000179996 1.5e-05 
vn 1 0 0 
vn 1 0 0 
vn 1 0 0 
vn 1 0 0 
f 99//99 100//100 101//101 
f 101//101 102//102 99//99 
o mesh25
v -0.000127409 0.000122945 4e-05 
v -0.00166715 0.000122936 5.23148e-05 
v -0.00166306 0.000122945 1.5e-05 
v -0.000127409 0.000122945 1.5e-05 
vn 0 -1 0 
vn 0 -1 0 
vn 0 -1 0 
vn 0 -1 0 
f 103//103 104//104 105//105 
f 105//105 106//106 103//103 
o mesh26
v 0.000372585 -0.00032992 5.5e-05 
v 0.000122577 -0.000329836 5.5e-05 
v 0.000122584 -0.000329927 4e-05 
v 0.000372585 -0.00032992 4e-05 
vn 0 -1 0 
vn 0 -1 0 
vn 0 -1 0 
vn 0 -1 0 
f 107//107 108//108 109//109 
f 109//109 110//110 107//107 
o mesh27
v 0.000372599 0.000179996 4e-05 
v 0.000372585 -0.00032992 4e-05 
v 0.000372585 -0.00032992 1.5e-05 
v 0.000372599 0.000179996 1.5e-05 
vn 1 0 0 
vn 1 0 0 
vn 1 0 0 
vn 1 0 0 
f 111//111 112//112 113//113 
f 113//113 114//114 111//111 
o mesh28
v 0.000622599 0.000179996 1.5e-05 
v 0.000372599 0.000179996 1.5e-05 
v 0.000372606 0.000179947 0 
v 0.000622606 0.000179947 0 
vn 0 -1 0 
vn 0 -1 0 
vn 0 -1 0 
vn 0 -1 0 
f 115//115 116//116 117//117 
f 117//117 118//118 115//115 
o mesh29
v 0.000372599 0.000179996 5.5e-05 
v 0.000372585 -0.00032992 5.5e-05 
v 0.000372585 -0.00032992 4e-05 
v 0.000372599 0.000179996 4e-05 
vn 1 0 0 
vn 1 0 0 
vn 1 0 0 
vn 1 0 0 
f 119//119 120//120 121//121 
f 121//121 122//122 119//119 
o mesh30
v 0.000622599 0.000179996 4e-05 
v 0.000372599 0.000179996 4e-05 
v 0.000372599 0.000179996 1.5e-05 
v 0.000622599 0.000179996 1.5e-05 
vn 0 -1 0 
vn 0 -1 0 
vn 0 -1 0 
vn 0 -1 0 
f 123//123 124//124 125//125 
f 125//125 126//126 123//123 
o mesh31
v 0.000622599 -0.000329927 1.5e-05 
v 0.000622599 0.000179996 1.5e-05 
v 0.000622606 0.000179947 0 
v 0.000622606 -0.000329906 0 
vn -1 0 0 
vn -1 0 0 
vn -1 0 0 
vn -1 0 0 
f 127//127 128//128 129//129 
f 129//129 130//130 127//127 
o mesh32
v 0.000372592 -0.000329949 0.000145 
v 0.000372585 -0.00032992 5.5e-05 
v 0.000372599 0.000179996 5.5e-05 
v 0.000372592 0.000180044 0.000145 
vn 1 0 0 
vn 1 0 0 
vn 1 0 0 
vn 1 0 0 
f 131//131 132//132 133//133 
f 133//133 134//134 131//131 
o mesh33
v 0.000372599 0.000179996 4e-05 
v 0.000622599 0.000179996 4e-05 
v 0.000622592 0.000179996 5.5e-05 
v 0.000372599 0.000179996 5.5e-05 
vn 0 -1 0 
vn 0 -1 0 
vn 0 -1 0 
vn 0 -1 0 
f 135//135 136//136 137//137 
f 137//137 138//138 135//135 
o mesh34
v 0.000622599 -0.000329927 1.5e-05 
v 0.000622595 -0.000329992 5.1482e-05 
v 0.000622599 0.000179996 4e-05 
v 0.000622599 0.000179996 1.5e-05 
vn -1 0 0 
vn -1 0 0 
vn -1 0 0 
vn -1 0 0 
f 139//139 140//140 141//141 
f 141//141 142//142 139//139 
o mesh35
v 0.000872584 -0.000329927 1.5e-05 
v 0.000622599 -0.000329927 1.5e-05 
v 0.000622606 -0.000329906 0 
v 0.000872591 -0.000329906 0 
vn 0 -1 0 
vn 0 -1 0 
vn 0 -1 0 
vn 0 -1 0 
f 143//143 144//144 145//145 
f 145//145 146//146 143//143 
o mesh36
v 0.000372599 0.000179996 5.5e-05 
v 0.000622592 0.000179996 5.5e-05 
v 0.000622578 0.000180044 0.000145 
v 0.000372592 0.000180044 0.000145 
vn 0 -1 0 
vn 0 -1 0 
vn 0 -1 0 
vn 0 -1 0 
f 147//147 148//148 149//149 
f 149//149 150//150 147//147 
o mesh37
v 0.000622592 0.000179996 5.5e-05 
v 0.000622599 0.000179996 4e-05 
v 0.000622595 -0.000329992 5.1482e-05 
vn -1 0 0 
vn -1 0 0 
vn -1 0 0 
f 151//151 152//152 153//153 
o mesh38
v 0.000622578 -0.000330131 0.000145 
v 0.000622578 0.000180044 0.000145 
v 0.000622592 0.000179996 5.5e-05 
v 0.000622595 -0.000329992 5.1482e-05 
vn -1 0 0 
vn -1 0 0 
vn -1 0 0 
vn -1 0 0 
f 154//154 155//155 156//156 
f 156//156 157//157 154//154 
o mesh39
v -0.00166715 0.000122936 5.23148e-05 
v -0.00167303 0.000305377 4e-05 
v -0.00166872 0.000305117 4e-05 
v -0.00166306 0.000304993 4e-05 
vn 0 0 -1 
vn 0 0 -1 
vn 0 0 -1 
vn 0 0 -1 
f 158//158 159//159 160//160 
f 160//160 161//161 158//158 
o mesh40
v -0.00166306 0.000122945 1.5e-05 
v -0.00166715 0.000122936 5.23148e-05 
v -0.00166306 0.000304993 4e-05 
v -0.00166306 0.000304993 1.5e-05 
vn -1 0 0 
vn -1 0 0 
vn -1 0 0 
vn -1 0 0 
f 162//162 163//163 164//164 
f 164//164 165//165 162//162 
o mesh41
v -0.00167303 0.000122896 1.5e-05 
v -0.00166306 0.000122945 1.5e-05 
v -0.00166306 0.000304993 1.5e-05 
v -0.00166872 0.000305117 1.5e-05 
v -0.00167303 0.000305377 1.5e-05 
vn 0 0 1 
vn 0 0 1 
vn 0 0 1 
vn 0 0 1 
vn 0 0 1 
f 166//166 167//167 168//168 
f 168//168 169//169 166//166 
f 169//169 170//170 166//166 
o mesh42
v -0.000127409 0.000122945 1.5e-05 
v -0.00166306 0.000122945 1.5e-05 
v -0.00166303 0.000122896 0 
v -0.00167303 0.000122896 0 
v -0.00167303 0.000122896 1.5e-05 
v -0.000127394 0.000122896 0 
vn 0 -1 0 
vn 0 -1 0 
vn 0 -1 0 
vn 0 -1 0 
vn 0 -1 0 
vn 0 -1 0 
f 171//171 172//172 173//173 
f 174//174 173//173 172//172 
f 172//172 175//175 174//174 
f 173//173 176//176 171//171 
o mesh43
v -0.00179305 0.000434896 4e-05 
v -0.00179305 0.000434896 1.5e-05 
v -0.00179292 0.000429229 1.5e-05 
v -0.00179292 0.000429229 4e-05 
v -0.00179255 0.000423572 1.5e-05 
v -0.00179255 0.000423572 4e-05 
v -0.00179193 0.000417937 1.5e-05 
v -0.00179193 0.000417937 4e-05 
v -0.00179106 0.000412335 1.5e-05 
v -0.00179106 0.000412335 4e-05 
v -0.00178995 0.000406775 1.5e-05 
v -0.00178995 0.000406775 4e-05 
v -0.0017886 0.00040127 1.5e-05 
v -0.0017886 0.00040127 4e-05 
v -0.00178701 0.000395828 1.5e-05 
v -0.00178701 0.000395828 4e-05 
v -0.00178518 0.000390461 1.5e-05 
v -0.00178518 0.000390461 4e-05 
v -0.00178313 0.000385179 1.5e-05 
v -0.00178313 0.000385179 4e-05 
v -0.00178084 0.000379991 1.5e-05 
v -0.00178084 0.000379991 4e-05 
v -0.00177833 0.000374908 1.5e-05 
v -0.00177833 0.000374908 4e-05 
v -0.0017756 0.000369939 1.5e-05 
v -0.0017756 0.000369939 4e-05 
v -0.00177266 0.000365094 1.5e-05 
v -0.00177266 0.000365094 4e-05 
v -0.00176951 0.000360382 1.5e-05 
v -0.00176951 0.000360382 4e-05 
v -0.00176615 0.000355811 1.5e-05 
v -0.00176615 0.000355811 4e-05 
v -0.0017626 0.000351392 1.5e-05 
v -0.0017626 0.000351392 4e-05 
v -0.00175886 0.000347131 1.5e-05 
v -0.00175886 0.000347131 4e-05 
v -0.00175494 0.000343037 1.5e-05 
v -0.00175494 0.000343037 4e-05 
v -0.00175085 0.000339118 1.5e-05 
v -0.00175085 0.000339118 4e-05 
v -0.00174658 0.000335382 1.5e-05 
v -0.00174658 0.000335382 4e-05 
v -0.00174216 0.000331835 1.5e-05 
v -0.00174216 0.000331835 4e-05 
v -0.00173759 0.000328484 1.5e-05 
v -0.00173759 0.000328484 4e-05 
v -0.00173287 0.000325336 1.5e-05 
v -0.00173287 0.000325336 4e-05 
v -0.00172803 0.000322396 1.5e-05 
v -0.00172803 0.000322396 4e-05 
v -0.00172305 0.00031967 1.5e-05 
v -0.00172305 0.00031967 4e-05 
v -0.00171797 0.000317164 1.5e-05 
v -0.00171797 0.000317164 4e-05 
v -0.00171278 0.000314881 1.5e-05 
v -0.00171278 0.000314881 4e-05 
v -0.0017075 0.000312827 1.5e-05 
v -0.0017075 0.000312827 4e-05 
v -0.00170213 0.000311006 1.5e-05 
v -0.00170213 0.000311006 4e-05 
v -0.00169669 0.00030942 1.5e-05 
v -0.00169669 0.00030942 4e-05 
v -0.00169118 0.000308073 1.5e-05 
v -0.00169118 0.000308073 4e-05 
v -0.00168562 0.000306967 1.5e-05 
v -0.00168562 0.000306967 4e-05 
v -0.00168002 0.000306105 1.5e-05 
v -0.00168002 0.000306105 4e-05 
v -0.00167438 0.000305488 1.5e-05 
v -0.00166872 0.000305117 4e-05 
v -0.00167303 0.000305377 4e-05 
v -0.00167303 0.000305377 1.5e-05 
v -0.00167438 0.000305488 4e-05 
v -0.00166872 0.000305117 1.5e-05 
v -0.00166306 0.000304993 1.5e-05 
v -0.00166306 0.000304993 4e-05 
vn -1 -0.000744347 0 
vn -1 -0.000744347 0 
vn -0.999016 -0.044341 0 
vn -0.999016 -0.044341 0 
vn -0.996133 -0.0878534 0 
vn -0.996133 -0.0878534 0 
vn -0.991356 -0.131199 0 
vn -0.991356 -0.131199 0 
vn -0.984694 -0.174294 0 
vn -0.984694 -0.174294 0 
vn -0.976159 -0.217059 0 
vn -0.976159 -0.217059 0 
vn -0.965767 -0.25941 0 
vn -0.965767 -0.25941 0 
vn -0.953539 -0.301269 0 
vn -0.953539 -0.301269 0 
vn -0.939498 -0.342554 0 
vn -0.939498 -0.342554 0 
vn -0.92367 -0.383188 0 
vn -0.92367 -0.383188 0 
vn -0.906086 -0.423093 0 
vn -0.906086 -0.423093 0 
vn -0.886779 -0.462194 0 
vn -0.886779 -0.462194 0 
vn -0.865785 -0.500416 0 
vn -0.865785 -0.500416 0 
vn -0.843145 -0.537686 0 
vn -0.843145 -0.537686 0 
vn -0.818902 -0.573934 0 
vn -0.818902 -0.573934 0 
vn -0.793101 -0.60909 0 
vn -0.793101 -0.60909 0 
vn -0.765792 -0.643088 0 
vn -0.765792 -0.643088 0 
vn -0.737027 -0.675863 0 
vn -0.737027 -0.675863 0 
vn -0.706861 -0.707353 0 
vn -0.706861 -0.707353 0 
vn -0.67535 -0.737497 0 
vn -0.67535 -0.737497 0 
vn -0.642555 -0.76624 0 
vn -0.642555 -0.76624 0 
vn -0.608538 -0.793525 0 
vn -0.608538 -0.793525 0 
vn -0.573364 -0.819301 0 
vn -0.573364 -0.819301 0 
vn -0.537099 -0.843519 0 
vn -0.537099 -0.843519 0 
vn -0.499813 -0.866133 0 
vn -0.499813 -0.866133 0 
vn -0.461577 -0.8871 0 
vn -0.461577 -0.8871 0 
vn -0.422463 -0.90638 0 
vn -0.422463 -0.90638 0 
vn -0.382545 -0.923937 0 
vn -0.382545 -0.923937 0 
vn -0.3419 -0.939736 0 
vn -0.3419 -0.939736 0 
vn -0.300605 -0.953749 0 
vn -0.300605 -0.953749 0 
vn -0.258738 -0.965947 0 
vn -0.258738 -0.965947 0 
vn -0.216379 -0.976309 0 
vn -0.216379 -0.976309 0 
vn -0.173609 -0.984815 0 
vn -0.173609 -0.984815 0 
vn -0.130509 -0.991447 0 
vn -0.130509 -0.991447 0 
vn -0.0871602 -0.996194 0 
vn -0.0436458 -0.999047 0 
vn -0.0767511 -0.99705 0 
vn -0.0767511 -0.99705 0 
vn -0.0871602 -0.996194 0 
vn -0.0436458 -0.999047 0 
vn -4.85013e-05 -1 0 
vn -4.85013e-05 -1 0 
f 177//177 178//178 179//179 
f 180//180 179//179 181//181 
f 182//182 181//181 183//183 
f 184//184 183//183 185//185 
f 186//186 185//185 187//187 
f 188//188 187//187 189//189 
f 190//190 189//189 191//191 
f 192//192 191//191 193//193 
f 194//194 193//193 195//195 
f 196//196 195//195 197//197 
f 198//198 197//197 199//199 
f 200//200 199//199 201//201 
f 202//202 201//201 203//203 
f 204//204 203//203 205//205 
f 206//206 205//205 207//207 
f 208//208 207//207 209//209 
f 210//210 209//209 211//211 
f 212//212 211//211 213//213 
f 214//214 213//213 215//215 
f 216//216 215//215 217//217 
f 218//218 217//217 219//219 
f 220//220 219//219 221//221 
f 222//222 221//221 223//223 
f 224//224 223//223 225//225 
f 226//226 225//225 227//227 
f 228//228 227//227 229//229 
f 230//230 229//229 231//231 
f 232//232 231//231 233//233 
f 234//234 233//233 235//235 
f 236//236 235//235 237//237 
f 238//238 237//237 239//239 
f 240//240 239//239 241//241 
f 242//242 241//241 243//243 
f 244//244 243//243 245//245 
f 246//246 247//247 248//248 
f 245//245 248//248 247//247 
f 247//247 249//249 245//245 
f 246//246 250//250 251//251 
f 251//251 252//252 246//246 
f 248//248 250//250 246//246 
f 245//245 249//249 244//244 
f 243//243 244//244 242//242 
f 241//241 242//242 240//240 
f 239//239 240//240 238//238 
f 237//237 238//238 236//236 
f 235//235 236//236 234//234 
f 233//233 234//234 232//232 
f 231//231 232//232 230//230 
f 229//229 230//230 228//228 
f 227//227 228//228 226//226 
f 225//225 226//226 224//224 
f 223//223 224//224 222//222 
f 221//221 222//222 220//220 
f 219//219 220//220 218//218 
f 217//217 218//218 216//216 
f 215//215 216//216 214//214 
f 213//213 214//214 212//212 
f 211//211 212//212 210//210 
f 209//209 210//210 208//208 
f 207//207 208//208 206//206 
f 205//205 206//206 204//204 
f 203//203 204//204 202//202 
f 201//201 202//202 200//200 
f 199//199 200//200 198//198 
f 197//197 198//198 196//196 
f 195//195 196//196 194//194 
f 193//193 194//194 192//192 
f 191//191 192//192 190//190 
f 189//189 190//190 188//188 
f 187//187 188//188 186//186 
f 185//185 186//186 184//184 
f 183//183 184//184 182//182 
f 181//181 182//182 180//180 
f 179//179 180//180 177//177 
o mesh44
v -0.00167303 0.000122896 0 
v -0.00167303 0.000122896 1.5e-05 
v -0.00167303 0.000305377 1.5e-05 
v -0.00167303 0.000389896 0 
v -0.00167303 0.000389896 1.5e-05 
vn -1 0 0 
vn -1 0 0 
vn -1 0 0 
vn -1 0 0 
vn -1 0 0 
f 253//253 254//254 255//255 
f 255//255 256//256 253//253 
f 255//255 257//257 256//256 
o mesh45
v -0.00179305 0.000434896 4e-05 
v 0.00115694 0.000434896 4e-05 
v 0.00115694 0.000434896 1.5e-05 
v -0.00179305 0.000434896 1.5e-05 
vn 0 1 0 
vn 0 1 0 
vn 0 1 0 
vn 0 1 0 
f 258//258 259//259 260//260 
f 260//260 261//261 258//258 
o mesh46
v -0.00167303 0.000389896 4e-05 
v -0.00178701 0.000395828 4e-05 
v -0.00178518 0.000390461 4e-05 
v 0.00107687 0.000311279 4e-05 
v 0.0010874 0.000315186 4e-05 
v 0.00109253 0.000317477 4e-05 
v -0.00171797 0.000317164 4e-05 
v -0.00171278 0.000314881 4e-05 
v -0.00178313 0.000385179 4e-05 
v 0.00108218 0.000313119 4e-05 
v 0.00109755 0.000319987 4e-05 
v 0.00105501 0.000306255 4e-05 
v 0.00106055 0.000307156 4e-05 
v -0.00169118 0.000308073 4e-05 
v -0.00168562 0.000306967 4e-05 
v -0.0017075 0.000312827 4e-05 
v -0.00178084 0.000379991 4e-05 
v -0.00178995 0.000406775 4e-05 
v -0.0017886 0.00040127 4e-05 
v -0.00179255 0.000423572 4e-05 
v -0.00179193 0.000417937 4e-05 
v -0.00179305 0.000434896 4e-05 
v -0.00179292 0.000429229 4e-05 
v 0.00115694 0.000429896 4e-05 
v 0.00104943 0.000305595 4e-05 
v 0.00116487 0.000411895 4e-05 
v 0.00112905 0.000343255 4e-05 
v 0.00113292 0.000347318 4e-05 
v 0.00111642 0.000332121 4e-05 
v 0.00112079 0.000335649 4e-05 
v 0.00110246 0.000322712 4e-05 
v 0.00110725 0.000325646 4e-05 
v 0.00107149 0.00030967 4e-05 
v 0.00106605 0.000308295 4e-05 
v -0.00169669 0.00030942 4e-05 
v -0.00170213 0.000311006 4e-05 
v -0.00173287 0.000325336 4e-05 
v -0.00172803 0.000322396 4e-05 
v -0.00177833 0.000374908 4e-05 
v -0.0017756 0.000369939 4e-05 
v 0.00116575 0.000417441 4e-05 
v 0.00116639 0.00042302 4e-05 
v 0.00116375 0.000406392 4e-05 
v 0.00116081 0.000395556 4e-05 
v 0.0011624 0.000400943 4e-05 
v 0.001125 0.000339363 4e-05 
v 0.0011119 0.000328784 4e-05 
v -0.00172305 0.00031967 4e-05 
v -0.00174216 0.000331835 4e-05 
v -0.00173759 0.000328484 4e-05 
v -0.00179106 0.000412335 4e-05 
v 0.00115899 0.000390244 4e-05 
v -0.00168002 0.000306105 4e-05 
v -0.00175494 0.000343037 4e-05 
v -0.00175085 0.000339118 4e-05 
v -0.0017626 0.000351392 4e-05 
v -0.00175886 0.000347131 4e-05 
v -0.00177266 0.000365094 4e-05 
v -0.00176951 0.000360382 4e-05 
v 0.00115468 0.000379879 4e-05 
v 0.00115695 0.000385015 4e-05 
v 0.00114948 0.000369925 4e-05 
v 0.00115219 0.000374846 4e-05 
v 0.00114345 0.000360457 4e-05 
v 0.00114657 0.000365126 4e-05 
v -0.00174658 0.000335382 4e-05 
v -0.00176615 0.000355811 4e-05 
v 0.00113662 0.000351545 4e-05 
v 0.00114013 0.000355927 4e-05 
v 0.00104697 0.000389896 4e-05 
v 0.00104697 0.000305381 4e-05 
v 0.00115694 0.000434896 4e-05 
v -0.00167438 0.000305488 4e-05 
v -0.00167303 0.000305377 4e-05 
v 0.00116678 0.000428621 4e-05 
v 0.00116689 0.000429896 4e-05 
vn 0 0 1 
vn 0 0 1 
vn 0 0 1 
vn 0 0 1 
vn 0 0 1 
vn 0 0 1 
vn 0 0 1 
vn 0 0 1 
vn 0 0 1 
vn 0 0 1 
vn 0 0 1 
vn 0 0 1 
vn 0 0 1 
vn 0 0 1 
vn 0 0 1 
vn 0 0 1 
vn 0 0 1 
vn 0 0 1 
vn 0 0 1 
vn 0 0 1 
vn 0 0 1 
vn 0 0 1 
vn 0 0 1 
vn 0 0 1 
vn 0 0 1 
vn 0 0 1 
vn 0 0 1 
vn 0 0 1 
vn 0 0 1 
vn 0 0 1 
vn 0 0 1 
vn 0 0 1 
vn 0 0 1 
vn 0 0 1 
vn 0 0 1 
vn 0 0 1 
vn 0 0 1 
vn 0 0 1 
vn 0 0 1 
vn 0 0 1 
vn 0 0 1 
vn 0 0 1 
vn 0 0 1 
vn 0 0 1 
vn 0 0 1 
vn 0 0 1 
vn 0 0 1 
vn 0 0 1 
vn 0 0 1 
vn 0 0 1 
vn 0 0 1 
vn 0 0 1 
vn 0 0 1 
vn 0 0 1 
vn 0 0 1 
vn 0 0 1 
vn 0 0 1 
vn 0 0 1 
vn 0 0 1 
vn 0 0 1 
vn 0 0 1 
vn 0 0 1 
vn 0 0 1 
vn 0 0 1 
vn 0 0 1 
vn 0 0 1 
vn 0 0 1 
vn 0 0 1 
vn 0 0 1 
vn 0 0 1 
vn 0 0 1 
vn 0 0 1 
vn 0 0 1 
vn 0 0 1 
vn 0 0 1 
vn 0 0 1 
f 262//262 263//263 264//264 
f 265//265 266//266 267//267 
f 262//262 268//268 269//269 
f 264//264 270//270 262//262 
f 265//265 271//271 266//266 
f 272//272 273//273 274//274 
f 262//262 275//275 276//276 
f 269//269 277//277 262//262 
f 270//270 278//278 262//262 
f 262//262 279//279 280//280 
f 262//262 281//281 282//282 
f 262//262 283//283 284//284 
f 285//285 286//286 287//287 
f 273//273 288//288 289//289 
f 273//273 290//290 291//291 
f 273//273 292//292 293//293 
f 272//272 294//294 265//265 
f 274//274 295//295 272//272 
f 262//262 296//296 275//275 
f 277//277 297//297 262//262 
f 262//262 298//298 299//299 
f 262//262 300//300 301//301 
f 280//280 263//263 262//262 
f 284//284 281//281 262//262 
f 285//285 302//302 303//303 
f 286//286 304//304 287//287 
f 286//286 305//305 306//306 
f 273//273 307//307 288//288 
f 273//273 308//308 290//290 
f 273//273 272//272 292//292 
f 295//295 294//294 272//272 
f 297//297 296//296 262//262 
f 299//299 309//309 262//262 
f 262//262 310//310 311//311 
f 278//278 300//300 262//262 
f 282//282 312//312 262//262 
f 287//287 302//302 285//285 
f 286//286 313//313 305//305 
f 291//291 307//307 273//273 
f 267//267 272//272 265//265 
f 276//276 314//314 262//262 
f 311//311 298//298 262//262 
f 262//262 315//315 316//316 
f 262//262 317//317 318//318 
f 262//262 319//319 320//320 
f 312//312 279//279 262//262 
f 306//306 304//304 286//286 
f 286//286 321//321 322//322 
f 286//286 323//323 324//324 
f 286//286 325//325 326//326 
f 293//293 308//308 273//273 
f 309//309 268//268 262//262 
f 316//316 327//327 262//262 
f 262//262 328//328 317//317 
f 301//301 319//319 262//262 
f 322//322 313//313 286//286 
f 326//326 323//323 286//286 
f 286//286 329//329 330//330 
f 329//329 286//286 273//273 
f 327//327 310//310 262//262 
f 320//320 328//328 262//262 
f 324//324 321//321 286//286 
f 289//289 329//329 273//273 
f 331//331 332//332 285//285 
f 333//333 283//283 262//262 
f 318//318 315//315 262//262 
f 330//330 325//325 286//286 
f 262//262 331//331 333//333 
f 314//314 334//334 262//262 
f 285//285 332//332 286//286 
f 334//334 335//335 262//262 
f 303//303 336//336 285//285 
f 336//336 337//337 285//285 
f 285//285 333//333 331//331 
o mesh47
v 0.00115694 0.000429896 4e-05 
v 0.00116689 0.000429896 4e-05 
v 0.00116689 0.000429896 1.5e-05 
v 0.00115694 0.000429896 1.5e-05 
vn 0 1 0 
vn 0 1 0 
vn 0 1 0 
vn 0 1 0 
f 338//338 339//339 340//340 
f 340//340 341//341 338//338 
o mesh48
v 0.00115694 0.000434896 4e-05 
v 0.00115694 0.000429896 4e-05 
v 0.00115694 0.000429896 1.5e-05 
v 0.00115694 0.000434896 1.5e-05 
vn 1 0 0 
vn 1 0 0 
vn 1 0 0 
vn 1 0 0 
f 342//342 343//343 344//344 
f 344//344 345//345 342//342 
o mesh49
v -0.00167303 0.000389896 1.5e-05 
v -0.00178313 0.000385179 1.5e-05 
v -0.00178518 0.000390461 1.5e-05 
v 0.00109755 0.000319987 1.5e-05 
v 0.00106605 0.000308295 1.5e-05 
v 0.00106055 0.000307156 1.5e-05 
v 0.0010874 0.000315186 1.5e-05 
v 0.00108218 0.000313119 1.5e-05 
v 0.00107687 0.000311279 1.5e-05 
v 0.00107149 0.00030967 1.5e-05 
v 0.00109253 0.000317477 1.5e-05 
v -0.00178084 0.000379991 1.5e-05 
v -0.0017075 0.000312827 1.5e-05 
v -0.00171278 0.000314881 1.5e-05 
v 0.00105501 0.000306255 1.5e-05 
v 0.0011119 0.000328784 1.5e-05 
v 0.00110725 0.000325646 1.5e-05 
v 0.00115694 0.000429896 1.5e-05 
v 0.00116575 0.000417441 1.5e-05 
v 0.00116487 0.000411895 1.5e-05 
v -0.00179255 0.000423572 1.5e-05 
v -0.00179292 0.000429229 1.5e-05 
v -0.00179106 0.000412335 1.5e-05 
v -0.00179193 0.000417937 1.5e-05 
v -0.00178701 0.000395828 1.5e-05 
v -0.0017886 0.00040127 1.5e-05 
v -0.00177833 0.000374908 1.5e-05 
v -0.00170213 0.000311006 1.5e-05 
v -0.00168002 0.000306105 1.5e-05 
v -0.00168562 0.000306967 1.5e-05 
v 0.00110246 0.000322712 1.5e-05 
v 0.00104943 0.000305595 1.5e-05 
v 0.001125 0.000339363 1.5e-05 
v 0.00112079 0.000335649 1.5e-05 
v 0.00113662 0.000351545 1.5e-05 
v 0.00113292 0.000347318 1.5e-05 
v 0.00116375 0.000406392 1.5e-05 
v 0.0011624 0.000400943 1.5e-05 
v 0.00116678 0.000428621 1.5e-05 
v 0.00116639 0.00042302 1.5e-05 
v -0.00177266 0.000365094 1.5e-05 
v -0.0017756 0.000369939 1.5e-05 
v -0.00172305 0.00031967 1.5e-05 
v -0.00172803 0.000322396 1.5e-05 
v -0.00169669 0.00030942 1.5e-05 
v -0.00169118 0.000308073 1.5e-05 
v 0.00111642 0.000332121 1.5e-05 
v 0.00112905 0.000343255 1.5e-05 
v 0.00116081 0.000395556 1.5e-05 
v -0.00178995 0.000406775 1.5e-05 
v -0.00173287 0.000325336 1.5e-05 
v -0.00173759 0.000328484 1.5e-05 
v -0.00171797 0.000317164 1.5e-05 
v 0.00114948 0.000369925 1.5e-05 
v 0.00114657 0.000365126 1.5e-05 
v 0.00115468 0.000379879 1.5e-05 
v 0.00115219 0.000374846 1.5e-05 
v 0.00115899 0.000390244 1.5e-05 
v 0.00115695 0.000385015 1.5e-05 
v -0.00176615 0.000355811 1.5e-05 
v -0.00176951 0.000360382 1.5e-05 
v -0.00175494 0.000343037 1.5e-05 
v -0.00175886 0.000347131 1.5e-05 
v -0.00174658 0.000335382 1.5e-05 
v -0.00175085 0.000339118 1.5e-05 
v -0.00167438 0.000305488 1.5e-05 
v 0.00114345 0.000360457 1.5e-05 
v 0.00114013 0.000355927 1.5e-05 
v -0.0017626 0.000351392 1.5e-05 
v -0.00174216 0.000331835 1.5e-05 
v -0.00167303 0.000305377 1.5e-05 
v 0.00115694 0.000434896 1.5e-05 
v 0.00104697 0.000389896 1.5e-05 
v 0.00116689 0.000429896 1.5e-05 
v -0.00179305 0.000434896 1.5e-05 
v 0.00104697 0.000305381 1.5e-05 
vn 0 0 -1 
vn 0 0 -1 
vn 0 0 -1 
vn 0 0 -1 
vn 0 0 -1 
vn 0 0 -1 
vn 0 0 -1 
vn 0 0 -1 
vn 0 0 -1 
vn 0 0 -1 
vn 0 0 -1 
vn 0 0 -1 
vn 0 0 -1 
vn 0 0 -1 
vn 0 0 -1 
vn 0 0 -1 
vn 0 0 -1 
vn 0 0 -1 
vn 0 0 -1 
vn 0 0 -1 
vn 0 0 -1 
vn 0 0 -1 
vn 0 0 -1 
vn 0 0 -1 
vn 0 0 -1 
vn 0 0 -1 
vn 0 0 -1 
vn 0 0 -1 
vn 0 0 -1 
vn 0 0 -1 
vn 0 0 -1 
vn 0 0 -1 
vn 0 0 -1 
vn 0 0 -1 
vn 0 0 -1 
vn 0 0 -1 
vn 0 0 -1 
vn 0 0 -1 
vn 0 0 -1 
vn 0 0 -1 
vn 0 0 -1 
vn 0 0 -1 
vn 0 0 -1 
vn 0 0 -1 
vn 0 0 -1 
vn 0 0 -1 
vn 0 0 -1 
vn 0 0 -1 
vn 0 0 -1 
vn 0 0 -1 
vn 0 0 -1 
vn 0 0 -1 
vn 0 0 -1 
vn 0 0 -1 
vn 0 0 -1 
vn 0 0 -1 
vn 0 0 -1 
vn 0 0 -1 
vn 0 0 -1 
vn 0 0 -1 
vn 0 0 -1 
vn 0 0 -1 
vn 0 0 -1 
vn 0 0 -1 
vn 0 0 -1 
vn 0 0 -1 
vn 0 0 -1 
vn 0 0 -1 
vn 0 0 -1 
vn 0 0 -1 
vn 0 0 -1 
vn 0 0 -1 
vn 0 0 -1 
vn 0 0 -1 
vn 0 0 -1 
vn 0 0 -1 
f 346//346 347//347 348//348 
f 349//349 350//350 351//351 
f 352//352 353//353 354//354 
f 355//355 349//349 356//356 
f 346//346 357//357 347//347 
f 346//346 358//358 359//359 
f 349//349 355//355 350//350 
f 356//356 352//352 355//355 
f 360//360 361//361 362//362 
f 363//363 364//364 365//365 
f 346//346 366//366 367//367 
f 346//346 368//368 369//369 
f 346//346 370//370 371//371 
f 346//346 372//372 357//357 
f 346//346 373//373 358//358 
f 346//346 374//374 375//375 
f 354//354 355//355 352//352 
f 362//362 376//376 360//360 
f 377//377 378//378 379//379 
f 377//377 380//380 381//381 
f 377//377 382//382 383//383 
f 365//365 377//377 363//363 
f 363//363 384//384 385//385 
f 369//369 366//366 346//346 
f 348//348 370//370 346//346 
f 346//346 386//386 387//387 
f 346//346 388//388 389//389 
f 346//346 390//390 373//373 
f 375//375 391//391 346//346 
f 376//376 349//349 360//360 
f 379//379 392//392 377//377 
f 381//381 393//393 377//377 
f 383//383 394//394 377//377 
f 385//385 364//364 363//363 
f 346//346 395//395 368//368 
f 387//387 372//372 346//346 
f 346//346 396//396 397//397 
f 346//346 398//398 388//388 
f 391//391 390//390 346//346 
f 351//351 360//360 349//349 
f 393//393 378//378 377//377 
f 377//377 399//399 400//400 
f 377//377 401//401 402//402 
f 377//377 403//403 404//404 
f 365//365 382//382 377//377 
f 371//371 395//395 346//346 
f 346//346 405//405 406//406 
f 346//346 407//407 408//408 
f 346//346 409//409 410//410 
f 389//389 396//396 346//346 
f 346//346 411//411 374//374 
f 392//392 361//361 377//377 
f 377//377 412//412 413//413 
f 402//402 399//399 377//377 
f 394//394 403//403 377//377 
f 406//406 386//386 346//346 
f 408//408 414//414 346//346 
f 346//346 415//415 409//409 
f 359//359 398//398 346//346 
f 413//413 380//380 377//377 
f 404//404 401//401 377//377 
f 414//414 405//405 346//346 
f 397//397 415//415 346//346 
f 400//400 412//412 377//377 
f 410//410 407//407 346//346 
f 360//360 377//377 361//361 
f 346//346 416//416 411//411 
f 417//417 418//418 346//346 
f 363//363 419//419 384//384 
f 418//418 417//417 363//363 
f 346//346 420//420 417//417 
f 363//363 421//421 418//418 
f 377//377 421//421 363//363 
f 367//367 420//420 346//346 
o mesh50
v -0.00167303 0.000389896 0 
v -0.00167303 0.000389896 1.5e-05 
v 0.00104697 0.000389896 1.5e-05 
v 0.00104697 0.000389896 0 
vn 0 1 0 
vn 0 1 0 
vn 0 1 0 
vn 0 1 0 
f 422//422 423//423 424//424 
f 424//424 425//425 422//422 
o mesh51
v 0.00104383 0.000305176 1.5e-05 
v 0.00104697 0.000305381 1.5e-05 
v 0.00104697 0.000305381 4e-05 
v 0.00104383 0.000305176 4e-05 
v 0.00104943 0.000305595 1.5e-05 
v 0.00104943 0.000305595 4e-05 
v 0.00105501 0.000306255 1.5e-05 
v 0.00105501 0.000306255 4e-05 
v 0.00106055 0.000307156 1.5e-05 
v 0.00106055 0.000307156 4e-05 
v 0.00106605 0.000308295 1.5e-05 
v 0.00106605 0.000308295 4e-05 
v 0.00107149 0.00030967 1.5e-05 
v 0.00107149 0.00030967 4e-05 
v 0.00107687 0.000311279 1.5e-05 
v 0.00107687 0.000311279 4e-05 
v 0.00108218 0.000313119 1.5e-05 
v 0.00108218 0.000313119 4e-05 
v 0.0010874 0.000315186 1.5e-05 
v 0.0010874 0.000315186 4e-05 
v 0.00109253 0.000317477 1.5e-05 
v 0.00109253 0.000317477 4e-05 
v 0.00109755 0.000319987 1.5e-05 
v 0.00109755 0.000319987 4e-05 
v 0.00110246 0.000322712 1.5e-05 
v 0.00110246 0.000322712 4e-05 
v 0.00110725 0.000325646 1.5e-05 
v 0.00110725 0.000325646 4e-05 
v 0.0011119 0.000328784 1.5e-05 
v 0.0011119 0.000328784 4e-05 
v 0.00111642 0.000332121 1.5e-05 
v 0.00111642 0.000332121 4e-05 
v 0.00112079 0.000335649 1.5e-05 
v 0.00112079 0.000335649 4e-05 
v 0.001125 0.000339363 1.5e-05 
v 0.001125 0.000339363 4e-05 
v 0.00112905 0.000343255 1.5e-05 
v 0.00112905 0.000343255 4e-05 
v 0.00113292 0.000347318 1.5e-05 
v 0.00113292 0.000347318 4e-05 
v 0.00113662 0.000351545 1.5e-05 
v 0.00113662 0.000351545 4e-05 
v 0.00114013 0.000355927 1.5e-05 
v 0.00114013 0.000355927 4e-05 
v 0.00114345 0.000360457 1.5e-05 
v 0.00114345 0.000360457 4e-05 
v 0.00114657 0.000365126 1.5e-05 
v 0.00114657 0.000365126 4e-05 
v 0.00114948 0.000369925 1.5e-05 
v 0.00114948 0.000369925 4e-05 
v 0.00115219 0.000374846 1.5e-05 
v 0.00115219 0.000374846 4e-05 
v 0.00115468 0.000379879 1.5e-05 
v 0.00115468 0.000379879 4e-05 
v 0.00115695 0.000385015 1.5e-05 
v 0.00115695 0.000385015 4e-05 
v 0.00115899 0.000390244 1.5e-05 
v 0.00115899 0.000390244 4e-05 
v 0.00116081 0.000395556 1.5e-05 
v 0.00116081 0.000395556 4e-05 
v 0.0011624 0.000400943 1.5e-05 
v 0.0011624 0.000400943 4e-05 
v 0.00116375 0.000406392 1.5e-05 
v 0.00116375 0.000406392 4e-05 
v 0.00116487 0.000411895 1.5e-05 
v 0.00116487 0.000411895 4e-05 
v 0.00116575 0.000417441 1.5e-05 
v 0.00116575 0.000417441 4e-05 
v 0.00116639 0.00042302 1.5e-05 
v 0.00116639 0.00042302 4e-05 
v 0.00116678 0.000428621 1.5e-05 
v 0.0010376 0.000296021 2.44331e-05 
v 0.00103914 0.000274966 4.65695e-05 
v 0.00116678 0.000428621 4e-05 
v 0.00116689 0.000429896 1.5e-05 
v 0.00116689 0.000429896 4e-05 
v 0.00103694 0.000304993 1.5e-05 
v 0.00103822 0.000304999 1.5e-05 
vn 0.0530382 -0.998592 0 
vn 0.0771458 -0.99702 0 
vn 0.0771458 -0.99702 0 
vn 0.0748348 -0.997196 0 
vn 0.0961115 -0.995371 0 
vn 0.0961115 -0.995371 0 
vn 0.139006 -0.990292 0 
vn 0.139006 -0.990292 0 
vn 0.18164 -0.983365 0 
vn 0.18164 -0.983365 0 
vn 0.223936 -0.974604 0 
vn 0.223936 -0.974604 0 
vn 0.265814 -0.964024 0 
vn 0.265814 -0.964024 0 
vn 0.307196 -0.951646 0 
vn 0.307196 -0.951646 0 
vn 0.348005 -0.937493 0 
vn 0.348005 -0.937493 0 
vn 0.388165 -0.92159 0 
vn 0.388165 -0.92159 0 
vn 0.4276 -0.903968 0 
vn 0.4276 -0.903968 0 
vn 0.466238 -0.884659 0 
vn 0.466238 -0.884659 0 
vn 0.504006 -0.8637 0 
vn 0.504006 -0.8637 0 
vn 0.540833 -0.84113 0 
vn 0.540833 -0.84113 0 
vn 0.576652 -0.81699 0 
vn 0.576652 -0.81699 0 
vn 0.611395 -0.791326 0 
vn 0.611395 -0.791326 0 
vn 0.644997 -0.764185 0 
vn 0.644997 -0.764185 0 
vn 0.677395 -0.735619 0 
vn 0.677395 -0.735619 0 
vn 0.70853 -0.705681 0 
vn 0.70853 -0.705681 0 
vn 0.738343 -0.674425 0 
vn 0.738343 -0.674425 0 
vn 0.766778 -0.641912 0 
vn 0.766778 -0.641912 0 
vn 0.793783 -0.608201 0 
vn 0.793783 -0.608201 0 
vn 0.819307 -0.573355 0 
vn 0.819307 -0.573355 0 
vn 0.843302 -0.53744 0 
vn 0.843302 -0.53744 0 
vn 0.865724 -0.500521 0 
vn 0.865724 -0.500521 0 
vn 0.886531 -0.462669 0 
vn 0.886531 -0.462669 0 
vn 0.905684 -0.423954 0 
vn 0.905684 -0.423954 0 
vn 0.923147 -0.384448 0 
vn 0.923147 -0.384448 0 
vn 0.938887 -0.344225 0 
vn 0.938887 -0.344225 0 
vn 0.952876 -0.303359 0 
vn 0.952876 -0.303359 0 
vn 0.965088 -0.261927 0 
vn 0.965088 -0.261927 0 
vn 0.975498 -0.220007 0 
vn 0.975498 -0.220007 0 
vn 0.984089 -0.177676 0 
vn 0.984089 -0.177676 0 
vn 0.990844 -0.135014 0 
vn 0.990844 -0.135014 0 
vn 0.99575 -0.0920998 0 
vn 0.99575 -0.0920998 0 
vn 0.998798 -0.0490138 0 
vn 0.00475871 -0.999989 0 
vn 0.0137369 -0.999906 0 
vn 0.998798 -0.0490138 0 
vn 0.999232 -0.0391908 0 
vn 0.999232 -0.0391908 0 
vn 4.85013e-05 -1 0 
vn 0.00986585 -0.999951 0 
f 426//426 427//427 428//428 
f 428//428 429//429 426//426 
f 430//430 431//431 428//428 
f 431//431 430//430 432//432 
f 433//433 432//432 434//434 
f 435//435 434//434 436//436 
f 437//437 436//436 438//438 
f 439//439 438//438 440//440 
f 441//441 440//440 442//442 
f 443//443 442//442 444//444 
f 445//445 444//444 446//446 
f 447//447 446//446 448//448 
f 449//449 448//448 450//450 
f 451//451 450//450 452//452 
f 453//453 452//452 454//454 
f 455//455 454//454 456//456 
f 457//457 456//456 458//458 
f 459//459 458//458 460//460 
f 461//461 460//460 462//462 
f 463//463 462//462 464//464 
f 465//465 464//464 466//466 
f 467//467 466//466 468//468 
f 469//469 468//468 470//470 
f 471//471 470//470 472//472 
f 473//473 472//472 474//474 
f 475//475 474//474 476//476 
f 477//477 476//476 478//478 
f 479//479 478//478 480//480 
f 481//481 480//480 482//482 
f 483//483 482//482 484//484 
f 485//485 484//484 486//486 
f 487//487 486//486 488//488 
f 489//489 488//488 490//490 
f 491//491 490//490 492//492 
f 493//493 492//492 494//494 
f 495//495 494//494 496//496 
f 426//426 429//429 497//497 
f 429//429 498//498 497//497 
f 499//499 496//496 500//500 
f 500//500 501//501 499//499 
f 502//502 503//503 497//497 
f 497//497 503//503 426//426 
f 496//496 499//499 495//495 
f 494//494 495//495 493//493 
f 492//492 493//493 491//491 
f 490//490 491//491 489//489 
f 488//488 489//489 487//487 
f 486//486 487//487 485//485 
f 484//484 485//485 483//483 
f 482//482 483//483 481//481 
f 480//480 481//481 479//479 
f 478//478 479//479 477//477 
f 476//476 477//477 475//475 
f 474//474 475//475 473//473 
f 472//472 473//473 471//471 
f 470//470 471//471 469//469 
f 468//468 469//469 467//467 
f 466//466 467//467 465//465 
f 464//464 465//465 463//463 
f 462//462 463//463 461//461 
f 460//460 461//461 459//459 
f 458//458 459//459 457//457 
f 456//456 457//457 455//455 
f 454//454 455//455 453//453 
f 452//452 453//453 451//451 
f 450//450 451//451 449//449 
f 448//448 449//449 447//447 
f 446//446 447//447 445//445 
f 444//444 445//445 443//443 
f 442//442 443//443 441//441 
f 440//440 441//441 439//439 
f 438//438 439//439 437//437 
f 436//436 437//437 435//435 
f 434//434 435//435 433//433 
f 432//432 433//433 431//431 
f 427//427 430//430 428//428 
o mesh52
v 0.00103694 0.000274984 1.5e-05 
v 0.00103694 0.000304993 1.5e-05 
v 0.0010376 0.000296021 2.44331e-05 
v 0.00103914 0.000274966 4.65695e-05 
vn 1 0 0 
vn 1 0 0 
vn 1 0 0 
vn 1 0 0 
f 504//504 505//505 506//506 
f 506//506 507//507 504//504 
o mesh53
v 0.00103694 0.000274984 1.5e-05 
v 0.00112264 0.000213428 3.04281e-05 
v 0.00104696 0.000274894 1.5e-05 
v 0.00103694 0.000304993 1.5e-05 
v 0.00103822 0.000304999 1.5e-05 
v 0.00104383 0.000305176 1.5e-05 
v 0.00104697 0.000305381 1.5e-05 
vn 0 0 1 
vn 0 0 1 
vn 0 0 1 
vn 0 0 1 
vn 0 0 1 
vn 0 0 1 
vn 0 0 1 
f 508//508 509//509 510//510 
f 510//510 511//511 508//508 
f 510//510 512//512 511//511 
f 510//510 513//513 512//512 
f 510//510 514//514 513//513 
o mesh54
v 0.00104697 0.000389896 0 
v 0.00104697 0.000389896 1.5e-05 
v 0.00104697 0.000305381 1.5e-05 
v 0.00104696 0.000274894 0 
v 0.00104696 0.000274894 1.5e-05 
vn 1 0 0 
vn 1 0 0 
vn 1 0 0 
vn 1 0 0 
vn 1 0 0 
f 515//515 516//516 517//517 
f 517//517 518//518 515//515 
f 517//517 519//519 518//518 
o mesh55
v 0.00112264 0.000213428 3.04281e-05 
v 0.00104696 0.000274894 0 
v 0.00104696 0.000274894 1.5e-05 
vn 0.630634 0.776081 0 
vn 0.630634 0.776081 0 
vn 0.630634 0.776081 0 
f 520//520 521//521 522//522 
o mesh56
v 0.00112262 0.000213491 0.000145 
v 0.00112264 0.000213428 3.04281e-05 
v 0.00103914 0.000274966 4.65695e-05 
v 0.00103694 0.000274984 1.5e-05 
v 0.00103693 0.000274991 0.000145 
vn 0.583103 0.812398 0 
vn 0.583103 0.812398 0 
vn 0.583103 0.812398 0 
vn 0.583103 0.812398 0 
vn 0.583103 0.812398 0 
f 523//523 524//524 525//525 
f 524//524 526//526 525//525 
f 525//525 527//527 523//523 
o mesh57
v 0.000872577 -7.99485e-05 0.000145 
v 0.00112261 -7.99485e-05 0.000145 
v 0.00112262 0.000213491 0.000145 
v 0.00103693 0.000274991 0.000145 
v 0.000622578 0.000180044 0.000145 
v 0.000622578 -0.000330131 0.000145 
v 0.000872577 -0.000330314 0.000145 
v 0.00103694 0.000379993 0.000145 
v -0.000127423 0.000122993 0.000145 
v 0.000372592 0.000180044 0.000145 
v -0.000127423 -7.99485e-05 0.000145 
v 0.000122563 -7.99485e-05 0.000145 
v 0.000372592 -0.000329949 0.000145 
v -0.00166306 0.000379993 0.000145 
v -0.00166306 0.000122993 0.000145 
v 0.000122563 -0.000329766 0.000145 
vn 0 0 1 
vn 0 0 1 
vn 0 0 1 
vn 0 0 1 
vn 0 0 1 
vn 0 0 1 
vn 0 0 1 
vn 0 0 1 
vn 0 0 1 
vn 0 0 1 
vn 0 0 1 
vn 0 0 1 
vn 0 0 1 
vn 0 0 1 
vn 0 0 1 
vn 0 0 1 
f 528//528 529//529 530//530 
f 531//531 532//532 528//528 
f 530//530 531//531 528//528 
f 533//533 534//534 528//528 
f 535//535 536//536 537//537 
f 536//536 538//538 539//539 
f 528//528 532//532 533//533 
f 539//539 537//537 536//536 
f 540//540 537//537 539//539 
f 537//537 532//532 535//535 
f 531//531 535//535 532//532 
f 541//541 542//542 536//536 
f 536//536 535//535 541//541 
f 539//539 543//543 540//540 
o mesh58
v 0.00112262 0.000213491 0.000145 
v 0.00112261 -7.99485e-05 0.000145 
v 0.00112263 -7.99056e-05 5.5e-05 
v 0.00112264 0.000213428 3.04281e-05 
vn 1 0 0 
vn 1 0 0 
vn 1 0 0 
vn 1 0 0 
f 544//544 545//545 546//546 
f 546//546 547//547 544//544 
o mesh59
v 0.000872591 -7.99486e-05 5.5e-05 
v 0.00112263 -7.99056e-05 5.5e-05 
v 0.00112261 -7.99485e-05 0.000145 
v 0.000872577 -7.99485e-05 0.000145 
vn 0 -1 0 
vn 0 -1 0 
vn 0 -1 0 
vn 0 -1 0 
f 548//548 549//549 550//550 
f 550//550 551//551 548//548 
o mesh60
v 0.000872577 -7.99485e-05 0.000145 
v 0.000872577 -0.000330314 0.000145 
v 0.000872584 -0.00033011 5.5e-05 
v 0.000872591 -7.99486e-05 5.5e-05 
vn 1 0 0 
vn 1 0 0 
vn 1 0 0 
vn 1 0 0 
f 552//552 553//553 554//554 
f 554//554 555//555 552//552 
o mesh61
v 0.000872591 -7.99486e-05 4e-05 
v 0.00112263 -7.99056e-05 4e-05 
v 0.00112263 -7.99056e-05 5.5e-05 
v 0.000872591 -7.99486e-05 5.5e-05 
vn 0 -1 0 
vn 0 -1 0 
vn 0 -1 0 
vn 0 -1 0 
f 556//556 557//557 558//558 
f 558//558 559//559 556//556 
o mesh62
v 0.000622578 -0.000330131 0.000145 
v 0.000622595 -0.000329992 5.1482e-05 
v 0.000872584 -0.00033011 5.5e-05 
v 0.000872577 -0.000330314 0.000145 
vn -0.000730893 -1 0 
vn -0.000730893 -1 0 
vn -0.000730893 -1 0 
vn -0.000730893 -1 0 
f 560//560 561//561 562//562 
f 562//562 563//563 560//560 
o mesh63
v 0.000622595 -0.000329992 5.1482e-05 
v 0.000872584 -0.000329927 4e-05 
v 0.000872584 -0.00033011 5.5e-05 
vn 0 -1 0 
vn 0 -1 0 
vn 0 -1 0 
f 564//564 565//565 566//566 
o mesh64
v 0.000622599 -0.000329927 1.5e-05 
v 0.000872584 -0.000329927 1.5e-05 
v 0.000872584 -0.000329927 4e-05 
v 0.000622595 -0.000329992 5.1482e-05 
vn 0 -1 0 
vn 0 -1 0 
vn 0 -1 0 
vn 0 -1 0 
f 567//567 568//568 569//569 
f 569//569 570//570 567//567 
o mesh65
v 0.000872584 -0.000329927 1.5e-05 
v 0.000872591 -7.99056e-05 1.5e-05 
v 0.000872591 -7.99486e-05 4e-05 
v 0.000872584 -0.000329927 4e-05 
vn 1 0 0 
vn 1 0 0 
vn 1 0 0 
vn 1 0 0 
f 571//571 572//572 573//573 
f 573//573 574//574 571//571 
o mesh66
v 0.000872591 -7.99486e-05 5.5e-05 
v 0.000872584 -0.00033011 5.5e-05 
v 0.000872584 -0.000329927 4e-05 
v 0.000872591 -7.99486e-05 4e-05 
vn 1 0 0 
vn 1 0 0 
vn 1 0 0 
vn 1 0 0 
f 575//575 576//576 577//577 
f 577//577 578//578 575//575 
o mesh67
v 0.000872591 -0.000329906 0 
v 0.000872592 -7.98673e-05 0 
v 0.000872591 -7.99056e-05 1.5e-05 
v 0.000872584 -0.000329927 1.5e-05 
vn 1 0 0 
vn 1 0 0 
vn 1 0 0 
vn 1 0 0 
f 579//579 580//580 581//581 
f 581//581 582//582 579//579 
o mesh68
v 0.000872592 -7.98673e-05 0 
v 0.00112263 -7.98626e-05 0 
v 0.00112263 -7.99056e-05 1.5e-05 
v 0.000872591 -7.99056e-05 1.5e-05 
vn 0 -1 0 
vn 0 -1 0 
vn 0 -1 0 
vn 0 -1 0 
f 583//583 584//584 585//585 
f 585//585 586//586 583//583 
o mesh69
v 0.00112263 -7.99056e-05 1.5e-05 
v 0.00112263 -7.99056e-05 4e-05 
v 0.000872591 -7.99486e-05 4e-05 
v 0.000872591 -7.99056e-05 1.5e-05 
vn 0 -1 0 
vn 0 -1 0 
vn 0 -1 0 
vn 0 -1 0 
f 587//587 588//588 589//589 
f 589//589 590//590 587//587 
o mesh70
v 0.00112263 -7.99056e-05 4e-05 
v 0.00112263 -7.99056e-05 1.5e-05 
v 0.00112264 0.000213428 3.04281e-05 
vn 1 0 0 
vn 1 0 0 
vn 1 0 0 
f 591//591 592//592 593//593 
o mesh71
v 0.00112263 -7.99056e-05 5.5e-05 
v 0.00112263 -7.99056e-05 4e-05 
v 0.00112264 0.000213428 3.04281e-05 
vn 1 0 0 
vn 1 0 0 
vn 1 0 0 
f 594//594 595//595 596//596 
o mesh72
v 0.00112263 -7.99056e-05 1.5e-05 
v 0.00112263 -7.98626e-05 0 
v 0.00112264 0.000213428 3.04281e-05 
vn 1 0 0 
vn 1 0 0 
vn 1 0 0 
f 597//597 598//598 599//599 
o mesh73
v 0.000304194 -0.000567104 0 
v 0.000372592 -0.000329898 0 
v 0.000122591 -0.000329906 0 
v 0.000622606 -0.000329906 0 
v 0.000622606 0.000179947 0 
v 0.000372606 0.000179947 0 
v 0.00112263 -0.000567104 0 
v 0.000872591 -0.000329906 0 
v 0.00112263 -7.98626e-05 0 
v 0.000872592 -7.98673e-05 0 
v -0.00166303 0.000122896 0 
v -0.000127394 -0.000330045 0 
v -0.000127394 -7.98626e-05 0 
v 0.000122591 -7.98626e-05 0 
v -0.000127394 0.000122896 0 
vn 0 0 1 
vn 0 0 1 
vn 0 0 1 
vn 0 0 1 
vn 0 0 1 
vn 0 0 1 
vn 0 0 1 
vn 0 0 1 
vn 0 0 1 
vn 0 0 1 
vn 0 0 1 
vn 0 0 1 
vn 0 0 1 
vn 0 0 1 
vn 0 0 1 
f 600//600 601//601 602//602 
f 600//600 603//603 601//601 
f 603//603 604//604 605//605 
f 606//606 607//607 603//603 
f 608//608 609//609 607//607 
f 610//610 611//611 612//612 
f 612//612 611//611 602//602 
f 605//605 601//601 603//603 
f 607//607 606//606 608//608 
f 602//602 613//613 612//612 
f 603//603 600//600 606//606 
f 602//602 611//611 600//600 
f 612//612 614//614 610//610 
o mesh74
v 0.00112263 -0.000567104 -9e-05 
v 0.00112263 -0.000567104 0 
v 0.000304194 -0.000567104 0 
v 0.000304194 -0.000567104 -9e-05 
vn 0 -1 0 
vn 0 -1 0 
vn 0 -1 0 
vn 0 -1 0 
f 615//615 616//616 617//617 
f 617//617 618//618 615//615 
o mesh75
v 0.000304194 -0.000567104 -9e-05 
v 0.000304194 -0.000567104 0 
v -0.000127394 -0.000330045 0 
v -0.000127394 -0.000330045 -9e-05 
vn -0.481428 -0.876486 0 
vn -0.481428 -0.876486 0 
vn -0.481428 -0.876486 0 
vn -0.481428 -0.876486 0 
f 619//619 620//620 621//621 
f 621//621 622//622 619//619 
o mesh76
v 0.00112263 -0.000567104 -9e-05 
v 0.00112263 0.00021341 -9e-05 
v 0.00112263 -7.98626e-05 0 
v 0.00112264 0.000213428 3.04281e-05 
v 0.00112263 -0.000567104 0 
vn 1 0 0 
vn 1 0 0 
vn 1 0 0 
vn 1 0 0 
vn 1 0 0 
f 623//623 624//624 625//625 
f 624//624 626//626 625//625 
f 625//625 627//627 623//623 
o mesh77
v -0.000127394 -0.000330045 -9e-05 
v -0.000127394 -0.000330045 0 
v -0.00166303 0.000122896 0 
v -0.00166303 0.000122896 -9e-05 
vn -0.282905 -0.959148 0 
vn -0.282905 -0.959148 0 
vn -0.282905 -0.959148 0 
vn -0.282905 -0.959148 0 
f 628//628 629//629 630//630 
f 630//630 631//631 628//628 
o mesh78
v -0.00166303 0.000122896 -9e-05 
v -0.00166303 0.000122896 0 
v -0.00166303 0.000379896 0 
v -0.00166303 0.000379896 -9e-05 
vn -1 0 0 
vn -1 0 0 
vn -1 0 0 
vn -1 0 0 
f 632//632 633//633 634//634 
f 634//634 635//635 632//632 
o mesh79
v -0.00167303 0.000122896 0 
v -0.00167303 0.000389896 0 
v -0.00166303 0.000379896 0 
v 0.00104697 0.000389896 0 
v 0.00103697 0.000379896 0 
v 0.00103696 0.000274894 0 
v 0.00104696 0.000274894 0 
v 0.00112264 0.000213428 3.04281e-05 
v -0.00166303 0.000122896 0 
vn 0 0 -1 
vn 0 0 -1 
vn 0 0 -1 
vn 0 0 -1 
vn 0 0 -1 
vn 0 0 -1 
vn 0 0 -1 
vn 0 0 -1 
vn 0 0 -1 
f 636//636 637//637 638//638 
f 639//639 640//640 638//638 
f 641//641 640//640 642//642 
f 638//638 637//637 639//639 
f 640//640 639//639 642//642 
f 642//642 643//643 641//641 
f 638//638 644//644 636//636 
o mesh80
v 0.000304194 -0.000567104 -9e-05 
v 0.00103696 0.000274894 -9e-05 
v 0.00112263 0.00021341 -9e-05 
v 0.00103697 0.000379896 -9e-05 
v -0.000127394 -0.000330045 -9e-05 
v 0.00112263 -0.000567104 -9e-05 
v -0.00166303 0.000379896 -9e-05 
v -0.00166303 0.000122896 -9e-05 
vn 0 0 -1 
vn 0 0 -1 
vn 0 0 -1 
vn 0 0 -1 
vn 0 0 -1 
vn 0 0 -1 
vn 0 0 -1 
vn 0 0 -1 
f 645//645 646//646 647//647 
f 648//648 646//646 649//649 
f 647//647 650//650 645//645 
f 649//649 651//651 648//648 
f 649//649 652//652 651//651 
f 645//645 649//649 646//646 
o mesh81
v -0.00166303 0.000379896 -9e-05 
v -0.00166303 0.000379896 0 
v 0.00103697 0.000379896 0 
v 0.00103697 0.000379896 -9e-05 
vn 0 1 0 
vn 0 1 0 
vn 0 1 0 
vn 0 1 0 
f 653//653 654//654 655//655 
f 655//655 656//656 653//653 
o mesh82
v 0.00103697 0.000379896 0 
v 0.00103696 0.000274894 0 
v 0.00103696 0.000274894 -9e-05 
v 0.00103697 0.000379896 -9e-05 
vn 1 0 0 
vn 1 0 0 
vn 1 0 0 
vn 1 0 0 
f 657//657 658//658 659//659 
f 659//659 660//660 657//657 
o mesh83
v 0.00112263 0.00021341 -9e-05 
v 0.00103696 0.000274894 -9e-05 
v 0.00103696 0.000274894 0 
v 0.00112264 0.000213428 3.04281e-05 
vn 0.583103 0.812398 0 
vn 0.583103 0.812398 0 
vn 0.583103 0.812398 0 
vn 0.583103 0.812398 0 
f 661//661 662//662 663//663 
f 663//663 664//664 661//661 
