# OBJ generated by ONSHAPE BY PTC INC, 1.215 Units = meters
mtllib hinge_base.mtl
g hinge_base
usemtl 0.301961_0.301961_0.301961_0.000000_0.000000
o mesh386
v 0.00104454 0.000739896 -1.5e-05 
v 0.00104384 0.00056481 -1.5e-05 
v 0.00103822 0.000564987 -1.5e-05 
v 0.00104697 0.000564605 -1.5e-05 
v 0.00103695 0.000564993 -1.5e-05 
vn 0 0 -1 
vn 0 0 -1 
vn 0 0 -1 
vn 0 0 -1 
vn 0 0 -1 
f 1//1 2//2 3//3 
f 1//1 4//4 2//2 
f 3//3 5//5 1//1 
o mesh387
v 0.00103822 0.000564987 -4e-05 
v 0.00103822 0.000564987 -1.5e-05 
v 0.00104384 0.00056481 -1.5e-05 
v 0.00104384 0.00056481 -4e-05 
v 0.00104697 0.000564605 -1.5e-05 
v 0.00104944 0.00056439 -4e-05 
v 0.00104944 0.00056439 -1.5e-05 
v 0.00105503 0.000563729 -1.5e-05 
v 0.00105503 0.000563729 -4e-05 
v 0.00106057 0.000562826 -1.5e-05 
v 0.00106057 0.000562826 -4e-05 
v 0.00106608 0.000561685 -1.5e-05 
v 0.00106608 0.000561685 -4e-05 
v 0.00107153 0.000560307 -1.5e-05 
v 0.00107153 0.000560307 -4e-05 
v 0.00107691 0.000558695 -1.5e-05 
v 0.00107691 0.000558695 -4e-05 
v 0.00108222 0.000556851 -1.5e-05 
v 0.00108222 0.000556851 -4e-05 
v 0.00108745 0.00055478 -1.5e-05 
v 0.00108745 0.00055478 -4e-05 
v 0.00109258 0.000552485 -1.5e-05 
v 0.00109258 0.000552485 -4e-05 
v 0.0010976 0.00054997 -1.5e-05 
v 0.0010976 0.00054997 -4e-05 
v 0.00110252 0.00054724 -1.5e-05 
v 0.00110252 0.00054724 -4e-05 
v 0.00110731 0.000544301 -1.5e-05 
v 0.00110731 0.000544301 -4e-05 
v 0.00111197 0.000541157 -1.5e-05 
v 0.00111197 0.000541157 -4e-05 
v 0.00111648 0.000537815 -1.5e-05 
v 0.00111648 0.000537815 -4e-05 
v 0.00112085 0.00053428 -1.5e-05 
v 0.00112085 0.00053428 -4e-05 
v 0.00112507 0.00053056 -1.5e-05 
v 0.00112507 0.00053056 -4e-05 
v 0.00112912 0.000526661 -1.5e-05 
v 0.00112912 0.000526661 -4e-05 
v 0.00113299 0.000522591 -1.5e-05 
v 0.00113299 0.000522591 -4e-05 
v 0.00113669 0.000518357 -1.5e-05 
v 0.00113669 0.000518357 -4e-05 
v 0.0011402 0.000513967 -1.5e-05 
v 0.0011402 0.000513967 -4e-05 
v 0.00114352 0.00050943 -1.5e-05 
v 0.00114352 0.00050943 -4e-05 
v 0.00114664 0.000504753 -1.5e-05 
v 0.00114664 0.000504753 -4e-05 
v 0.00114955 0.000499946 -1.5e-05 
v 0.00114955 0.000499946 -4e-05 
v 0.00115225 0.000495018 -1.5e-05 
v 0.00115225 0.000495018 -4e-05 
v 0.00115474 0.000489977 -1.5e-05 
v 0.00115474 0.000489977 -4e-05 
v 0.001157 0.000484834 -1.5e-05 
v 0.001157 0.000484834 -4e-05 
v 0.00115905 0.000479597 -1.5e-05 
v 0.00115905 0.000479597 -4e-05 
v 0.00116086 0.000474278 -1.5e-05 
v 0.00116086 0.000474278 -4e-05 
v 0.00116244 0.000468884 -1.5e-05 
v 0.00116244 0.000468884 -4e-05 
v 0.00116379 0.000463428 -1.5e-05 
v 0.00116379 0.000463428 -4e-05 
v 0.0011649 0.000457918 -1.5e-05 
v 0.0011649 0.000457918 -4e-05 
v 0.00116577 0.000452365 -1.5e-05 
v 0.00116577 0.000452365 -4e-05 
v 0.0011664 0.00044678 -1.5e-05 
v 0.0011664 0.00044678 -4e-05 
v 0.00116679 0.000441173 -1.5e-05 
v 0.00116679 0.000441173 -4e-05 
v 0.00116689 0.000439896 -1.5e-05 
v 0.00103695 0.000564993 -4e-05 
v 0.00103695 0.000564993 -1.5e-05 
v 0.00116689 0.000439896 -4e-05 
vn 0.0098754 0.999951 0 
vn 0.0098754 0.999951 0 
vn 0.0530897 0.99859 0 
vn 0.0530897 0.99859 0 
vn 0.0771921 0.997016 0 
vn 0.0962047 0.995362 0 
vn 0.0962047 0.995362 0 
vn 0.13914 0.990273 0 
vn 0.13914 0.990273 0 
vn 0.181815 0.983333 0 
vn 0.181815 0.983333 0 
vn 0.22415 0.974555 0 
vn 0.22415 0.974555 0 
vn 0.266066 0.963955 0 
vn 0.266066 0.963955 0 
vn 0.307485 0.951553 0 
vn 0.307485 0.951553 0 
vn 0.348329 0.937372 0 
vn 0.348329 0.937372 0 
vn 0.388522 0.921439 0 
vn 0.388522 0.921439 0 
vn 0.427989 0.903784 0 
vn 0.427989 0.903784 0 
vn 0.466655 0.884439 0 
vn 0.466655 0.884439 0 
vn 0.50445 0.863441 0 
vn 0.50445 0.863441 0 
vn 0.541301 0.840829 0 
vn 0.541301 0.840829 0 
vn 0.57714 0.816645 0 
vn 0.57714 0.816645 0 
vn 0.611901 0.790934 0 
vn 0.611901 0.790934 0 
vn 0.645518 0.763745 0 
vn 0.645518 0.763745 0 
vn 0.677928 0.735129 0 
vn 0.677928 0.735129 0 
vn 0.70907 0.705138 0 
vn 0.70907 0.705138 0 
vn 0.738888 0.673829 0 
vn 0.738888 0.673829 0 
vn 0.767324 0.64126 0 
vn 0.767324 0.64126 0 
vn 0.794325 0.607493 0 
vn 0.794325 0.607493 0 
vn 0.819842 0.57259 0 
vn 0.819842 0.57259 0 
vn 0.843826 0.536616 0 
vn 0.843826 0.536616 0 
vn 0.866233 0.49964 0 
vn 0.866233 0.49964 0 
vn 0.887021 0.461729 0 
vn 0.887021 0.461729 0 
vn 0.90615 0.422956 0 
vn 0.90615 0.422956 0 
vn 0.923586 0.383392 0 
vn 0.923586 0.383392 0 
vn 0.939295 0.343111 0 
vn 0.939295 0.343111 0 
vn 0.953248 0.302188 0 
vn 0.953248 0.302188 0 
vn 0.96542 0.260701 0 
vn 0.96542 0.260701 0 
vn 0.975786 0.218727 0 
vn 0.975786 0.218727 0 
vn 0.984329 0.176343 0 
vn 0.984329 0.176343 0 
vn 0.991031 0.13363 0 
vn 0.991031 0.13363 0 
vn 0.995881 0.0906676 0 
vn 0.995881 0.0906676 0 
vn 0.99887 0.0475353 0 
vn 0.99887 0.0475353 0 
vn 0.999289 0.0377038 0 
vn 7.05473e-05 1 0 
vn 7.05473e-05 1 0 
vn 0.999289 0.0377038 0 
f 6//6 7//7 8//8 
f 9//9 8//8 10//10 
f 10//10 11//11 9//9 
f 11//11 12//12 13//13 
f 14//14 13//13 15//15 
f 16//16 15//15 17//17 
f 18//18 17//17 19//19 
f 20//20 19//19 21//21 
f 22//22 21//21 23//23 
f 24//24 23//23 25//25 
f 26//26 25//25 27//27 
f 28//28 27//27 29//29 
f 30//30 29//29 31//31 
f 32//32 31//31 33//33 
f 34//34 33//33 35//35 
f 36//36 35//35 37//37 
f 38//38 37//37 39//39 
f 40//40 39//39 41//41 
f 42//42 41//41 43//43 
f 44//44 43//43 45//45 
f 46//46 45//45 47//47 
f 48//48 47//47 49//49 
f 50//50 49//49 51//51 
f 52//52 51//51 53//53 
f 54//54 53//53 55//55 
f 56//56 55//55 57//57 
f 58//58 57//57 59//59 
f 60//60 59//59 61//61 
f 62//62 61//61 63//63 
f 64//64 63//63 65//65 
f 66//66 65//65 67//67 
f 68//68 67//67 69//69 
f 70//70 69//69 71//71 
f 72//72 71//71 73//73 
f 74//74 73//73 75//75 
f 76//76 75//75 77//77 
f 78//78 77//77 79//79 
f 80//80 81//81 7//7 
f 7//7 6//6 80//80 
f 79//79 82//82 78//78 
f 77//77 78//78 76//76 
f 75//75 76//76 74//74 
f 73//73 74//74 72//72 
f 71//71 72//72 70//70 
f 69//69 70//70 68//68 
f 67//67 68//68 66//66 
f 65//65 66//66 64//64 
f 63//63 64//64 62//62 
f 61//61 62//62 60//60 
f 59//59 60//60 58//58 
f 57//57 58//58 56//56 
f 55//55 56//56 54//54 
f 53//53 54//54 52//52 
f 51//51 52//52 50//50 
f 49//49 50//50 48//48 
f 47//47 48//48 46//46 
f 45//45 46//46 44//44 
f 43//43 44//44 42//42 
f 41//41 42//42 40//40 
f 39//39 40//40 38//38 
f 37//37 38//38 36//36 
f 35//35 36//36 34//34 
f 33//33 34//34 32//32 
f 31//31 32//32 30//30 
f 29//29 30//30 28//28 
f 27//27 28//28 26//26 
f 25//25 26//26 24//24 
f 23//23 24//24 22//22 
f 21//21 22//22 20//20 
f 19//19 20//20 18//18 
f 17//17 18//18 16//16 
f 15//15 16//16 14//14 
f 13//13 14//14 11//11 
f 10//10 12//12 11//11 
f 8//8 9//9 6//6 
o mesh388
v 0.00115694 0.000439896 -4e-05 
v 0.00116689 0.000439896 -4e-05 
v 0.00116689 0.000439896 -1.5e-05 
v 0.00115694 0.000439896 -1.5e-05 
vn 0 -1 0 
vn 0 -1 0 
vn 0 -1 0 
vn 0 -1 0 
f 83//83 84//84 85//85 
f 85//85 86//86 83//83 
o mesh389
v 0.00115694 0.000434896 -1.5e-05 
v 0.00115694 0.000434896 -4e-05 
v 0.00115694 0.000439896 -4e-05 
v 0.00115694 0.000439896 -1.5e-05 
vn 1 0 0 
vn 1 0 0 
vn 1 0 0 
vn 1 0 0 
f 87//87 88//88 89//89 
f 89//89 90//90 87//87 
o mesh390
v -0.00179305 0.000434896 -1.5e-05 
v -0.00179305 0.000434896 -4e-05 
v 0.00115694 0.000434896 -4e-05 
v 0.00115694 0.000434896 -1.5e-05 
vn 0 -1 0 
vn 0 -1 0 
vn 0 -1 0 
vn 0 -1 0 
f 91//91 92//92 93//93 
f 93//93 94//94 91//91 
o mesh391
v -0.00179305 0.000434896 -4e-05 
v -0.00179305 0.000434896 -1.5e-05 
v -0.00179294 0.000440449 -1.5e-05 
v -0.00179294 0.000440449 -4e-05 
v -0.00179258 0.000445992 -1.5e-05 
v -0.00179258 0.000445992 -4e-05 
v -0.001792 0.000451515 -1.5e-05 
v -0.001792 0.000451515 -4e-05 
v -0.00179117 0.000457008 -1.5e-05 
v -0.00179117 0.000457008 -4e-05 
v -0.00179011 0.00046246 -1.5e-05 
v -0.00179011 0.00046246 -4e-05 
v -0.00178883 0.000467863 -1.5e-05 
v -0.00178883 0.000467863 -4e-05 
v -0.00178731 0.000473205 -1.5e-05 
v -0.00178731 0.000473205 -4e-05 
v -0.00178556 0.000478478 -1.5e-05 
v -0.00178556 0.000478478 -4e-05 
v -0.00178359 0.000483671 -1.5e-05 
v -0.00178359 0.000483671 -4e-05 
v -0.0017814 0.000488775 -1.5e-05 
v -0.0017814 0.000488775 -4e-05 
v -0.001779 0.000493782 -1.5e-05 
v -0.001779 0.000493782 -4e-05 
v -0.00177638 0.000498681 -1.5e-05 
v -0.00177638 0.000498681 -4e-05 
v -0.00177356 0.000503463 -1.5e-05 
v -0.00177356 0.000503463 -4e-05 
v -0.00177053 0.000508121 -1.5e-05 
v -0.00177053 0.000508121 -4e-05 
v -0.00176731 0.000512645 -1.5e-05 
v -0.00176731 0.000512645 -4e-05 
v -0.0017639 0.000517028 -1.5e-05 
v -0.0017639 0.000517028 -4e-05 
v -0.0017603 0.00052126 -1.5e-05 
v -0.0017603 0.00052126 -4e-05 
v -0.00175653 0.000525336 -1.5e-05 
v -0.00175653 0.000525336 -4e-05 
v -0.00175258 0.000529246 -1.5e-05 
v -0.00168493 0.000572862 -7.6097e-06 
v -0.00168082 0.000575516 -7.16005e-06 
v -0.00168171 0.00057494 -1.10381e-05 
v -0.00168914 0.000570153 -8.06882e-06 
v -0.00168581 0.000572299 -1.2712e-05 
v -0.00169342 0.000567392 -8.53657e-06 
v -0.00168998 0.000569607 -1.4418e-05 
v -0.00169777 0.000564586 -9.0121e-06 
v -0.00169423 0.00056687 -1.6153e-05 
v -0.00170219 0.000561738 -9.49455e-06 
v -0.00169854 0.000564091 -1.79143e-05 
v -0.00170666 0.000558855 -9.98302e-06 
v -0.0017029 0.000561275 -1.9699e-05 
v -0.00171118 0.000555942 -1.04766e-05 
v -0.00170732 0.000558428 -2.1504e-05 
v -0.00171573 0.000553004 -1.09745e-05 
v -0.00171178 0.000555553 -2.33263e-05 
v -0.00172032 0.000550046 -1.14757e-05 
v -0.00171628 0.000552655 -2.51629e-05 
v -0.00172493 0.000547074 -1.19793e-05 
v -0.0017208 0.000549739 -2.70108e-05 
v -0.00172956 0.000544093 -1.24844e-05 
v -0.00172534 0.000546811 -2.88668e-05 
v -0.00173418 0.000541109 -1.299e-05 
v -0.00172989 0.000543875 -3.07279e-05 
v -0.00173881 0.000538126 -1.34954e-05 
v -0.00173445 0.000540936 -3.25909e-05 
v -0.00174342 0.000535152 -1.39994e-05 
v -0.00173901 0.000537998 -3.44527e-05 
v -0.00174802 0.00053219 -1.45013e-05 
v -0.00174355 0.000535068 -3.63102e-05 
v -0.00174808 0.000532149 -3.81604e-05 
v -0.00175258 0.000529246 -4e-05 
v -0.00166908 0.00058308 -5.87835e-06 
vn -1 -0.000744347 0 
vn -1 -0.000744347 0 
vn -0.999119 0.0419703 0 
vn -0.999119 0.0419703 0 
vn -0.996414 0.0846084 0 
vn -0.996414 0.0846084 0 
vn -0.991891 0.127092 0 
vn -0.991891 0.127092 0 
vn -0.985557 0.169344 0 
vn -0.985557 0.169344 0 
vn -0.977424 0.211286 0 
vn -0.977424 0.211286 0 
vn -0.967507 0.252843 0 
vn -0.967507 0.252843 0 
vn -0.955824 0.293938 0 
vn -0.955824 0.293938 0 
vn -0.942397 0.334497 0 
vn -0.942397 0.334497 0 
vn -0.927249 0.374445 0 
vn -0.927249 0.374445 0 
vn -0.910409 0.41371 0 
vn -0.910409 0.41371 0 
vn -0.891907 0.45222 0 
vn -0.891907 0.45222 0 
vn -0.871776 0.489904 0 
vn -0.871776 0.489904 0 
vn -0.850055 0.526694 0 
vn -0.850055 0.526694 0 
vn -0.826782 0.562523 0 
vn -0.826782 0.562523 0 
vn -0.802 0.597324 0 
vn -0.802 0.597324 0 
vn -0.775754 0.631036 0 
vn -0.775754 0.631036 0 
vn -0.748092 0.663595 0 
vn -0.748092 0.663595 0 
vn -0.719064 0.694944 0 
vn -0.719064 0.694944 0 
vn -0.688724 0.725024 0 
vn -0.156756 0.987637 0 
vn -0.125431 0.992102 0 
vn -0.132166 0.991228 0 
vn -0.189499 0.981881 0 
vn -0.163505 0.986542 0 
vn -0.223555 0.974691 0 
vn -0.196174 0.980569 0 
vn -0.258791 0.965933 0 
vn -0.230069 0.973174 0 
vn -0.295036 0.955486 0 
vn -0.265055 0.964233 0 
vn -0.332088 0.943248 0 
vn -0.300966 0.953635 0 
vn -0.369715 0.929145 0 
vn -0.337606 0.941287 0 
vn -0.407655 0.913136 0 
vn -0.374752 0.927125 0 
vn -0.445629 0.895218 0 
vn -0.412153 0.911115 0 
vn -0.483343 0.875431 0 
vn -0.449544 0.893258 0 
vn -0.520501 0.853861 0 
vn -0.486648 0.873598 0 
vn -0.556817 0.830635 0 
vn -0.523187 0.852218 0 
vn -0.592021 0.805923 0 
vn -0.55889 0.829242 0 
vn -0.625871 0.779927 0 
vn -0.593505 0.80483 0 
vn -0.65816 0.752878 0 
vn -0.626806 0.779175 0 
vn -0.658597 0.752495 0 
vn -0.688724 0.725024 0 
vn -0.0407086 0.999171 0 
f 95//95 96//96 97//97 
f 98//98 97//97 99//99 
f 100//100 99//99 101//101 
f 102//102 101//101 103//103 
f 104//104 103//103 105//105 
f 106//106 105//105 107//107 
f 108//108 107//107 109//109 
f 110//110 109//109 111//111 
f 112//112 111//111 113//113 
f 114//114 113//113 115//115 
f 116//116 115//115 117//117 
f 118//118 117//117 119//119 
f 120//120 119//119 121//121 
f 122//122 121//121 123//123 
f 124//124 123//123 125//125 
f 126//126 125//125 127//127 
f 128//128 127//127 129//129 
f 130//130 129//129 131//131 
f 132//132 131//131 133//133 
f 134//134 135//135 136//136 
f 137//137 134//134 138//138 
f 139//139 137//137 140//140 
f 141//141 139//139 142//142 
f 143//143 141//141 144//144 
f 145//145 143//143 146//146 
f 147//147 145//145 148//148 
f 149//149 147//147 150//150 
f 151//151 149//149 152//152 
f 153//153 151//151 154//154 
f 155//155 153//153 156//156 
f 157//157 155//155 158//158 
f 159//159 157//157 160//160 
f 161//161 159//159 162//162 
f 163//163 161//161 164//164 
f 133//133 163//163 165//165 
f 165//165 166//166 133//133 
f 164//164 165//165 163//163 
f 162//162 164//164 161//161 
f 160//160 162//162 159//159 
f 158//158 160//160 157//157 
f 156//156 158//158 155//155 
f 154//154 156//156 153//153 
f 152//152 154//154 151//151 
f 150//150 152//152 149//149 
f 148//148 150//150 147//147 
f 146//146 148//148 145//145 
f 144//144 146//146 143//143 
f 142//142 144//144 141//141 
f 140//140 142//142 139//139 
f 138//138 140//140 137//137 
f 136//136 138//138 134//134 
f 136//136 135//135 167//167 
f 133//133 166//166 132//132 
f 131//131 132//132 130//130 
f 129//129 130//130 128//128 
f 127//127 128//128 126//126 
f 125//125 126//126 124//124 
f 123//123 124//124 122//122 
f 121//121 122//122 120//120 
f 119//119 120//120 118//118 
f 117//117 118//118 116//116 
f 115//115 116//116 114//114 
f 113//113 114//114 112//112 
f 111//111 112//112 110//110 
f 109//109 110//110 108//108 
f 107//107 108//108 106//106 
f 105//105 106//106 104//104 
f 103//103 104//104 102//102 
f 101//101 102//102 100//100 
f 99//99 100//100 98//98 
f 97//97 98//98 95//95 
o mesh392
v -0.00166306 0.000489993 -4e-05 
v -0.00179305 0.000434896 -4e-05 
v -0.00175258 0.000529246 -4e-05 
v -0.00174808 0.000532149 -3.81604e-05 
v -0.00174355 0.000535068 -3.63102e-05 
v -0.00173901 0.000537998 -3.44527e-05 
v -0.00173445 0.000540936 -3.25909e-05 
v -0.00172989 0.000543875 -3.07279e-05 
v -0.00172534 0.000546811 -2.88668e-05 
v -0.0017208 0.000549739 -2.70108e-05 
v -0.00171628 0.000552655 -2.51629e-05 
v -0.00171178 0.000555553 -2.33263e-05 
v -0.00170732 0.000558428 -2.1504e-05 
v -0.0017029 0.000561275 -1.9699e-05 
v -0.00169854 0.000564091 -1.79143e-05 
v -0.00169423 0.00056687 -1.6153e-05 
v -0.00168998 0.000569607 -1.4418e-05 
v -0.00168581 0.000572299 -1.2712e-05 
v -0.00168171 0.00057494 -1.10381e-05 
v -0.00166908 0.00058308 -5.87835e-06 
v -0.00178556 0.000478478 -4e-05 
v -0.00177638 0.000498681 -4e-05 
v -0.00179117 0.000457008 -4e-05 
v -0.0017639 0.000517028 -4e-05 
v -0.00177053 0.000508121 -4e-05 
v -0.0017814 0.000488775 -4e-05 
v -0.00178883 0.000467863 -4e-05 
v -0.00179258 0.000445992 -4e-05 
v -0.00175653 0.000525336 -4e-05 
v -0.0017603 0.00052126 -4e-05 
v 0.00115694 0.000439896 -4e-05 
v 0.00116086 0.000474278 -4e-05 
v 0.00116244 0.000468884 -4e-05 
v 0.00113669 0.000518357 -4e-05 
v 0.0011402 0.000513967 -4e-05 
v -0.00176731 0.000512645 -4e-05 
v 0.00116379 0.000463428 -4e-05 
v 0.00114352 0.00050943 -4e-05 
v -0.00177356 0.000503463 -4e-05 
v 0.0011649 0.000457918 -4e-05 
v 0.00115474 0.000489977 -4e-05 
v 0.001157 0.000484834 -4e-05 
v 0.00114955 0.000499946 -4e-05 
v 0.00115225 0.000495018 -4e-05 
v 0.00114664 0.000504753 -4e-05 
v 0.00106608 0.000561685 -4e-05 
v 0.00107153 0.000560307 -4e-05 
v -0.001779 0.000493782 -4e-05 
v 0.00116577 0.000452365 -4e-05 
v 0.00115905 0.000479597 -4e-05 
v 0.00108222 0.000556851 -4e-05 
v 0.00108745 0.00055478 -4e-05 
v 0.00106057 0.000562826 -4e-05 
v 0.00104384 0.00056481 -4e-05 
v 0.00104944 0.00056439 -4e-05 
v -0.00178359 0.000483671 -4e-05 
v 0.0011664 0.00044678 -4e-05 
v 0.00112912 0.000526661 -4e-05 
v 0.00113299 0.000522591 -4e-05 
v 0.00109258 0.000552485 -4e-05 
v 0.00105503 0.000563729 -4e-05 
v 0.00103822 0.000564987 -4e-05 
v -0.00178731 0.000473205 -4e-05 
v 0.00112507 0.00053056 -4e-05 
v 0.00110731 0.000544301 -4e-05 
v 0.00111197 0.000541157 -4e-05 
v 0.0010976 0.00054997 -4e-05 
v 0.00110252 0.00054724 -4e-05 
v 0.00107691 0.000558695 -4e-05 
v -0.00179011 0.00046246 -4e-05 
v 0.00111648 0.000537815 -4e-05 
v 0.00112085 0.00053428 -4e-05 
v -0.001792 0.000451515 -4e-05 
v -0.00179294 0.000440449 -4e-05 
v 0.00103694 0.000489993 -4e-05 
v 0.00103695 0.000564993 -4e-05 
v 0.00115694 0.000434896 -4e-05 
v 0.00116679 0.000441173 -4e-05 
v 0.00116689 0.000439896 -4e-05 
vn 0 0 -1 
vn 0 0 -1 
vn 0 0 -1 
vn 0 0 -1 
vn 0 0 -1 
vn 0 0 -1 
vn 0 0 -1 
vn 0 0 -1 
vn 0 0 -1 
vn 0 0 -1 
vn 0 0 -1 
vn 0 0 -1 
vn 0 0 -1 
vn 0 0 -1 
vn 0 0 -1 
vn 0 0 -1 
vn 0 0 -1 
vn 0 0 -1 
vn 0 0 -1 
vn 0 0 -1 
vn 0 0 -1 
vn 0 0 -1 
vn 0 0 -1 
vn 0 0 -1 
vn 0 0 -1 
vn 0 0 -1 
vn 0 0 -1 
vn 0 0 -1 
vn 0 0 -1 
vn 0 0 -1 
vn 0 0 -1 
vn 0 0 -1 
vn 0 0 -1 
vn 0 0 -1 
vn 0 0 -1 
vn 0 0 -1 
vn 0 0 -1 
vn 0 0 -1 
vn 0 0 -1 
vn 0 0 -1 
vn 0 0 -1 
vn 0 0 -1 
vn 0 0 -1 
vn 0 0 -1 
vn 0 0 -1 
vn 0 0 -1 
vn 0 0 -1 
vn 0 0 -1 
vn 0 0 -1 
vn 0 0 -1 
vn 0 0 -1 
vn 0 0 -1 
vn 0 0 -1 
vn 0 0 -1 
vn 0 0 -1 
vn 0 0 -1 
vn 0 0 -1 
vn 0 0 -1 
vn 0 0 -1 
vn 0 0 -1 
vn 0 0 -1 
vn 0 0 -1 
vn 0 0 -1 
vn 0 0 -1 
vn 0 0 -1 
vn 0 0 -1 
vn 0 0 -1 
vn 0 0 -1 
vn 0 0 -1 
vn 0 0 -1 
vn 0 0 -1 
vn 0 0 -1 
vn 0 0 -1 
vn 0 0 -1 
vn 0 0 -1 
vn 0 0 -1 
vn 0 0 -1 
vn 0 0 -1 
vn 0 0 -1 
f 168//168 169//169 170//170 
f 170//170 171//171 168//168 
f 171//171 172//172 168//168 
f 172//172 173//173 168//168 
f 173//173 174//174 168//168 
f 174//174 175//175 168//168 
f 175//175 176//176 168//168 
f 176//176 177//177 168//168 
f 177//177 178//178 168//168 
f 178//178 179//179 168//168 
f 179//179 180//180 168//168 
f 180//180 181//181 168//168 
f 181//181 182//182 168//168 
f 182//182 183//183 168//168 
f 183//183 184//184 168//168 
f 184//184 185//185 168//168 
f 185//185 186//186 168//168 
f 186//186 187//187 168//168 
f 169//169 188//188 170//170 
f 188//188 189//189 170//170 
f 169//169 190//190 188//188 
f 189//189 191//191 170//170 
f 189//189 192//192 191//191 
f 188//188 193//193 189//189 
f 190//190 194//194 188//188 
f 169//169 195//195 190//190 
f 191//191 196//196 170//170 
f 191//191 197//197 196//196 
f 198//198 199//199 200//200 
f 198//198 201//201 202//202 
f 192//192 203//203 191//191 
f 200//200 204//204 198//198 
f 202//202 205//205 198//198 
f 189//189 206//206 192//192 
f 204//204 207//207 198//198 
f 198//198 208//208 209//209 
f 198//198 210//210 211//211 
f 205//205 212//212 198//198 
f 198//198 213//213 214//214 
f 193//193 215//215 189//189 
f 207//207 216//216 198//198 
f 209//209 217//217 198//198 
f 212//212 210//210 198//198 
f 198//198 218//218 219//219 
f 198//198 220//220 213//213 
f 198//198 221//221 222//222 
f 188//188 223//223 193//193 
f 216//216 224//224 198//198 
f 211//211 208//208 198//198 
f 198//198 225//225 226//226 
f 219//219 227//227 198//198 
f 198//198 228//228 220//220 
f 198//198 229//229 221//221 
f 194//194 230//230 188//188 
f 217//217 199//199 198//198 
f 198//198 231//231 225//225 
f 198//198 232//232 233//233 
f 198//198 234//234 235//235 
f 198//198 236//236 218//218 
f 222//222 228//228 198//198 
f 190//190 237//237 194//194 
f 226//226 201//201 198//198 
f 198//198 238//238 239//239 
f 235//235 232//232 198//198 
f 214//214 236//236 198//198 
f 195//195 240//240 190//190 
f 239//239 231//231 198//198 
f 227//227 234//234 198//198 
f 169//169 241//241 195//195 
f 233//233 238//238 198//198 
f 242//242 243//243 198//198 
f 168//168 244//244 169//169 
f 198//198 243//243 229//229 
f 168//168 242//242 244//244 
f 224//224 245//245 198//198 
f 245//245 246//246 198//198 
f 198//198 244//244 242//242 
o mesh393
v -0.00166306 0.000489993 -0.000145 
v 0.00103694 0.000489993 -0.000145 
v 0.00103694 0.000489993 -4e-05 
v -0.00166306 0.000489993 -4e-05 
vn 0 -1 0 
vn 0 -1 0 
vn 0 -1 0 
vn 0 -1 0 
f 247//247 248//248 249//249 
f 249//249 250//250 247//247 
o mesh394
v 0.00103694 0.000489993 -0.000145 
v 0.00103694 0.000739993 -0.000145 
v 0.00103695 0.000564993 -4e-05 
v 0.00104454 0.000739896 -1.5e-05 
v 0.00103695 0.000564993 -1.5e-05 
v 0.00103694 0.000489993 -4e-05 
vn 1 0 0 
vn 1 0 0 
vn 1 0 0 
vn 1 0 0 
vn 1 0 0 
vn 1 0 0 
f 251//251 252//252 253//253 
f 254//254 255//255 253//253 
f 253//253 252//252 254//254 
f 253//253 256//256 251//251 
o mesh395
v -0.00166306 0.000589993 -0.000145 
v -0.00166306 0.000489993 -0.000145 
v -0.00166306 0.000489993 -4e-05 
v -0.00166908 0.00058308 -5.87835e-06 
vn -1 0 0 
vn -1 0 0 
vn -1 0 0 
vn -1 0 0 
f 257//257 258//258 259//259 
f 259//259 260//260 257//257 
o mesh396
v 0.00115694 0.000439896 -1.5e-05 
v 0.00114352 0.00050943 -1.5e-05 
v 0.0011402 0.000513967 -1.5e-05 
v 0.00116379 0.000463428 -1.5e-05 
v 0.00116244 0.000468884 -1.5e-05 
v 0.00114664 0.000504753 -1.5e-05 
v 0.0011649 0.000457918 -1.5e-05 
v 0.00114955 0.000499946 -1.5e-05 
v 0.00115474 0.000489977 -1.5e-05 
v 0.00115225 0.000495018 -1.5e-05 
v 0.00115905 0.000479597 -1.5e-05 
v 0.001157 0.000484834 -1.5e-05 
v 0.00116577 0.000452365 -1.5e-05 
v 0.00107691 0.000558695 -1.5e-05 
v 0.00107153 0.000560307 -1.5e-05 
v 0.00109258 0.000552485 -1.5e-05 
v 0.00108745 0.00055478 -1.5e-05 
v 0.00116086 0.000474278 -1.5e-05 
v 0.0011664 0.00044678 -1.5e-05 
v -0.00173881 0.000538126 -1.34954e-05 
v -0.00174342 0.000535152 -1.39994e-05 
v -0.00178731 0.000473205 -1.5e-05 
v -0.00167303 0.000479896 -1.5e-05 
v -0.00173418 0.000541109 -1.299e-05 
v 0.00106057 0.000562826 -1.5e-05 
v 0.00105503 0.000563729 -1.5e-05 
v 0.00106608 0.000561685 -1.5e-05 
v 0.0010976 0.00054997 -1.5e-05 
v 0.00113669 0.000518357 -1.5e-05 
v 0.00113299 0.000522591 -1.5e-05 
v 0.00116679 0.000441173 -1.5e-05 
v -0.00179011 0.00046246 -1.5e-05 
v -0.00179117 0.000457008 -1.5e-05 
v -0.00178883 0.000467863 -1.5e-05 
v -0.00179294 0.000440449 -1.5e-05 
v -0.00172493 0.000547074 -1.19793e-05 
v -0.00172956 0.000544093 -1.24844e-05 
v -0.00171118 0.000555942 -1.04766e-05 
v -0.00171573 0.000553004 -1.09745e-05 
v 0.00108222 0.000556851 -1.5e-05 
v 0.00110731 0.000544301 -1.5e-05 
v 0.00110252 0.00054724 -1.5e-05 
v 0.00111648 0.000537815 -1.5e-05 
v 0.00111197 0.000541157 -1.5e-05 
v 0.00112912 0.000526661 -1.5e-05 
v -0.00178359 0.000483671 -1.5e-05 
v -0.00174802 0.00053219 -1.45013e-05 
v -0.00175258 0.000529246 -1.5e-05 
v -0.00175653 0.000525336 -1.5e-05 
v -0.001779 0.000493782 -1.5e-05 
v -0.0017814 0.000488775 -1.5e-05 
v -0.00177356 0.000503463 -1.5e-05 
v -0.00177638 0.000498681 -1.5e-05 
v -0.001792 0.000451515 -1.5e-05 
v -0.00179258 0.000445992 -1.5e-05 
v -0.00172032 0.000550046 -1.14757e-05 
v -0.00170219 0.000561738 -9.49455e-06 
v -0.00170666 0.000558855 -9.98302e-06 
v 0.00112507 0.00053056 -1.5e-05 
v 0.00112085 0.00053428 -1.5e-05 
v -0.00176731 0.000512645 -1.5e-05 
v -0.00177053 0.000508121 -1.5e-05 
v -0.00178556 0.000478478 -1.5e-05 
v -0.00169777 0.000564586 -9.0121e-06 
v -0.00168914 0.000570153 -8.06882e-06 
v -0.00169342 0.000567392 -8.53657e-06 
v -0.0017639 0.000517028 -1.5e-05 
v -0.00168493 0.000572862 -7.6097e-06 
v -0.00166908 0.00058308 -5.87835e-06 
v -0.00168082 0.000575516 -7.16005e-06 
v -0.00179305 0.000434896 -1.5e-05 
v 0.00104944 0.00056439 -1.5e-05 
v 0.00115694 0.000434896 -1.5e-05 
v 0.00104697 0.000479896 -1.5e-05 
v 0.00116689 0.000439896 -1.5e-05 
v 0.00104697 0.000564605 -1.5e-05 
v -0.0017603 0.00052126 -1.5e-05 
vn 0 0 1 
vn 0 0 1 
vn 0 0 1 
vn 0 0 1 
vn 0 0 1 
vn 0 0 1 
vn 0 0 1 
vn 0 0 1 
vn 0 0 1 
vn 0 0 1 
vn 0 0 1 
vn 0 0 1 
vn 0 0 1 
vn 0 0 1 
vn 0 0 1 
vn 0 0 1 
vn 0 0 1 
vn 0 0 1 
vn 0 0 1 
vn 0 0 1 
vn 0 0 1 
vn 0 0 1 
vn 0 0 1 
vn 0 0 1 
vn 0 0 1 
vn 0 0 1 
vn 0 0 1 
vn 0 0 1 
vn 0 0 1 
vn 0 0 1 
vn 0 0 1 
vn 0 0 1 
vn 0 0 1 
vn 0 0 1 
vn 0 0 1 
vn 0 0 1 
vn 0 0 1 
vn 0 0 1 
vn 0 0 1 
vn 0 0 1 
vn 0 0 1 
vn 0 0 1 
vn 0 0 1 
vn 0 0 1 
vn 0 0 1 
vn 0 0 1 
vn 0 0 1 
vn 0 0 1 
vn 0 0 1 
vn 0 0 1 
vn 0 0 1 
vn 0 0 1 
vn 0 0 1 
vn 0 0 1 
vn 0 0 1 
vn 0 0 1 
vn 0 0 1 
vn 0 0 1 
vn 0 0 1 
vn 0 0 1 
vn 0 0 1 
vn 0 0 1 
vn 0 0 1 
vn 0 0 1 
vn 0 0 1 
vn 0 0 1 
vn 0 0 1 
vn 0 0 1 
vn 0 0 1 
vn 0 0 1 
vn 0 0 1 
vn 0 0 1 
vn 0 0 1 
vn 0 0 1 
vn 0 0 1 
vn 0 0 1 
vn 0 0 1 
f 261//261 262//262 263//263 
f 261//261 264//264 265//265 
f 261//261 266//266 262//262 
f 261//261 267//267 264//264 
f 261//261 268//268 266//266 
f 261//261 269//269 270//270 
f 261//261 271//271 272//272 
f 261//261 273//273 267//267 
f 261//261 274//274 275//275 
f 261//261 276//276 277//277 
f 270//270 268//268 261//261 
f 261//261 278//278 271//271 
f 261//261 279//279 273//273 
f 280//280 281//281 282//282 
f 283//283 284//284 280//280 
f 261//261 285//285 286//286 
f 275//275 287//287 261//261 
f 261//261 288//288 276//276 
f 261//261 289//289 290//290 
f 272//272 269//269 261//261 
f 261//261 291//291 279//279 
f 280//280 292//292 293//293 
f 282//282 294//294 280//280 
f 280//280 295//295 283//283 
f 283//283 296//296 297//297 
f 283//283 298//298 299//299 
f 287//287 285//285 261//261 
f 277//277 300//300 261//261 
f 261//261 301//301 302//302 
f 261//261 303//303 304//304 
f 290//290 305//305 261//261 
f 265//265 278//278 261//261 
f 306//306 307//307 308//308 
f 309//309 310//310 311//311 
f 309//309 312//312 313//313 
f 280//280 314//314 315//315 
f 294//294 292//292 280//280 
f 297//297 284//284 283//283 
f 299//299 316//316 283//283 
f 283//283 317//317 318//318 
f 300//300 274//274 261//261 
f 304//304 301//301 261//261 
f 261//261 319//319 320//320 
f 263//263 289//289 261//261 
f 308//308 309//309 306//306 
f 313//313 310//310 309//309 
f 309//309 321//321 322//322 
f 281//281 307//307 323//323 
f 293//293 314//314 280//280 
f 316//316 296//296 283//283 
f 283//283 324//324 317//317 
f 283//283 325//325 326//326 
f 302//302 288//288 261//261 
f 305//305 319//319 261//261 
f 311//311 306//306 309//309 
f 309//309 327//327 321//321 
f 315//315 295//295 280//280 
f 318//318 298//298 283//283 
f 283//283 328//328 325//325 
f 283//283 329//329 330//330 
f 320//320 303//303 261//261 
f 322//322 312//312 309//309 
f 295//295 331//331 283//283 
f 330//330 328//328 283//283 
f 286//286 332//332 261//261 
f 333//333 334//334 283//283 
f 334//334 333//333 261//261 
f 306//306 323//323 307//307 
f 326//326 324//324 283//283 
f 261//261 335//335 291//291 
f 261//261 336//336 334//334 
f 323//323 282//282 281//281 
f 283//283 331//331 333//333 
f 332//332 336//336 261//261 
f 309//309 337//337 327//327 
o mesh397
v -0.00167303 0.000479896 0 
v -0.00167303 0.000479896 -1.5e-05 
v 0.00104697 0.000479896 -1.5e-05 
v 0.00104697 0.000479896 0 
vn 0 -1 0 
vn 0 -1 0 
vn 0 -1 0 
vn 0 -1 0 
f 338//338 339//339 340//340 
f 340//340 341//341 338//338 
o mesh398
v -0.00167303 0.000479896 -1.5e-05 
v -0.00167303 0.000479896 0 
v -0.00166908 0.00058308 -5.87835e-06 
vn -1 0 0 
vn -1 0 0 
vn -1 0 0 
f 342//342 343//343 344//344 
o mesh399
v 0.00104697 0.000739896 0 
v 0.00104697 0.000479896 0 
v 0.00104697 0.000564605 -1.5e-05 
v 0.00104697 0.000479896 -1.5e-05 
v 0.00104454 0.000739896 -1.5e-05 
vn 1 0 0 
vn 1 0 0 
vn 1 0 0 
vn 1 0 0 
vn 1 0 0 
f 345//345 346//346 347//347 
f 346//346 348//348 347//347 
f 347//347 349//349 345//345 
o mesh400
v 0.000111944 0.000739945 -1.5e-05 
v 0.00104454 0.000739896 -1.5e-05 
v 0.00103694 0.000739993 -0.000145 
v 0.000111944 0.000739993 -0.000145 
vn 0 1 0 
vn 0 1 0 
vn 0 1 0 
vn 0 1 0 
f 350//350 351//351 352//352 
f 352//352 353//353 350//350 
o mesh401
v 0.00103694 0.000489993 -0.000145 
v -0.00166306 0.000489993 -0.000145 
v 0.000111944 0.000739993 -0.000145 
v -0.00166306 0.000589993 -0.000145 
v -0.00186306 0.00123999 -0.000145 
v -0.00103806 0.00123999 -0.000145 
v 0.00103694 0.000739993 -0.000145 
v -0.00186306 0.000589993 -0.000145 
vn 0 0 -1 
vn 0 0 -1 
vn 0 0 -1 
vn 0 0 -1 
vn 0 0 -1 
vn 0 0 -1 
vn 0 0 -1 
vn 0 0 -1 
f 354//354 355//355 356//356 
f 356//356 355//355 357//357 
f 358//358 359//359 357//357 
f 357//357 359//359 356//356 
f 356//356 360//360 354//354 
f 357//357 361//361 358//358 
o mesh402
v -0.00166306 0.000589993 -0.000145 
v -0.00166908 0.00058308 -5.87835e-06 
v -0.00186304 0.000589945 -1.5e-05 
v -0.00186306 0.000589993 -0.000145 
vn 0 -1 0 
vn 0 -1 0 
vn 0 -1 0 
vn 0 -1 0 
f 362//362 363//363 364//364 
f 364//364 365//365 362//362 
o mesh403
v -0.00186306 0.00123999 -1.5e-05 
v -0.00103806 0.00123999 -1.5e-05 
v -0.00103806 0.00123999 -0.000145 
v -0.00186306 0.00123999 -0.000145 
vn 0 1 0 
vn 0 1 0 
vn 0 1 0 
vn 0 1 0 
f 366//366 367//367 368//368 
f 368//368 369//369 366//366 
o mesh404
v -0.00186306 0.000739896 -1.5e-05 
v 0.000111944 0.000739945 -1.5e-05 
v -0.00103806 0.00123999 -1.5e-05 
v -0.00186306 0.00123999 -1.5e-05 
vn 0 0 1 
vn 0 0 1 
vn 0 0 1 
vn 0 0 1 
f 370//370 371//371 372//372 
f 372//372 373//373 370//370 
o mesh405
v -0.00103806 0.00123999 -1.5e-05 
v 0.000111944 0.000739945 -1.5e-05 
v 0.000111944 0.000739993 -0.000145 
v -0.00103806 0.00123999 -0.000145 
vn 0.398726 0.91707 0 
vn 0.398726 0.91707 0 
vn 0.398726 0.91707 0 
vn 0.398726 0.91707 0 
f 374//374 375//375 376//376 
f 376//376 377//377 374//374 
o mesh406
v -0.00186306 0.00123999 -0.000145 
v -0.00186306 0.000589993 -0.000145 
v -0.00186306 0.000739896 -1.5e-05 
v -0.00186304 0.000589945 -1.5e-05 
v -0.00186306 0.00123999 -1.5e-05 
vn -1 0 0 
vn -1 0 0 
vn -1 0 0 
vn -1 0 0 
vn -1 0 0 
f 378//378 379//379 380//380 
f 379//379 381//381 380//380 
f 380//380 382//382 378//378 
o mesh407
v -0.00186303 0.000739896 9e-05 
v -0.00186306 0.000739896 -1.5e-05 
v -0.00186304 0.000589945 -1.5e-05 
v -0.00186303 0.000589896 9e-05 
vn -1 0 0 
vn -1 0 0 
vn -1 0 0 
vn -1 0 0 
f 383//383 384//384 385//385 
f 385//385 386//386 383//383 
o mesh408
v -0.00186303 0.000739896 9e-05 
v 0.00103697 0.000739896 9e-05 
v 0.000111944 0.000739945 -1.5e-05 
v 0.00104454 0.000739896 -1.5e-05 
v 0.00103697 0.000739896 0 
v -0.00186306 0.000739896 -1.5e-05 
v 0.00104697 0.000739896 0 
vn 0 1 0 
vn 0 1 0 
vn 0 1 0 
vn 0 1 0 
vn 0 1 0 
vn 0 1 0 
vn 0 1 0 
f 387//387 388//388 389//389 
f 390//390 389//389 391//391 
f 388//388 391//391 389//389 
f 389//389 392//392 387//387 
f 391//391 393//393 390//390 
o mesh409
v 0.00103697 0.000489896 9e-05 
v 0.00103697 0.000489896 0 
v 0.00103697 0.000739896 0 
v 0.00103697 0.000739896 9e-05 
vn 1 0 0 
vn 1 0 0 
vn 1 0 0 
vn 1 0 0 
f 394//394 395//395 396//396 
f 396//396 397//397 394//394 
o mesh410
v -0.00167303 0.000479896 0 
v 0.00104697 0.000479896 0 
v 0.00103697 0.000489896 0 
v -0.00166303 0.000489896 0 
v 0.00104697 0.000739896 0 
v 0.00103697 0.000739896 0 
v -0.00166908 0.00058308 -5.87835e-06 
vn 0 0 1 
vn 0 0 1 
vn 0 0 1 
vn 0 0 1 
vn 0 0 1 
vn 0 0 1 
vn 0 0 1 
f 398//398 399//399 400//400 
f 400//400 401//401 398//398 
f 402//402 403//403 400//400 
f 400//400 399//399 402//402 
f 401//401 404//404 398//398 
o mesh411
v 0.00103697 0.000489896 9e-05 
v 0.00103697 0.000739896 9e-05 
v -0.00166303 0.000589896 9e-05 
v -0.00186303 0.000739896 9e-05 
v -0.00186303 0.000589896 9e-05 
v -0.00166303 0.000489896 9e-05 
vn 0 0 1 
vn 0 0 1 
vn 0 0 1 
vn 0 0 1 
vn 0 0 1 
vn 0 0 1 
f 405//405 406//406 407//407 
f 408//408 409//409 407//407 
f 407//407 406//406 408//408 
f 407//407 410//410 405//405 
o mesh412
v -0.00166303 0.000489896 9e-05 
v -0.00166303 0.000489896 0 
v 0.00103697 0.000489896 0 
v 0.00103697 0.000489896 9e-05 
vn 0 -1 0 
vn 0 -1 0 
vn 0 -1 0 
vn 0 -1 0 
f 411//411 412//412 413//413 
f 413//413 414//414 411//411 
o mesh413
v -0.00166908 0.00058308 -5.87835e-06 
v -0.00166303 0.000489896 0 
v -0.00166303 0.000489896 9e-05 
v -0.00166303 0.000589896 9e-05 
vn -1 0 0 
vn -1 0 0 
vn -1 0 0 
vn -1 0 0 
f 415//415 416//416 417//417 
f 417//417 418//418 415//415 
o mesh414
v -0.00186303 0.000589896 9e-05 
v -0.00186304 0.000589945 -1.5e-05 
v -0.00166908 0.00058308 -5.87835e-06 
v -0.00166303 0.000589896 9e-05 
vn 0 -1 0 
vn 0 -1 0 
vn 0 -1 0 
vn 0 -1 0 
f 419//419 420//420 421//421 
f 421//421 422//422 419//419 
