# OBJ generated by ONSHAPE BY PTC INC, 1.218 Units = meters
mtllib hinge_left_base.mtl
g hinge_left_base
usemtl 0.301961_0.301961_0.301961_0.000000_0.000000
o mesh91
v 0.000143054 0.000384436 6.19679e-05 
v -0.00120695 0.000374686 6.19679e-05 
v 0.000143054 0.000374436 6.19679e-05 
v 0.00149305 0.000374438 6.19679e-05 
vn 0 0 1 
vn 0 0 1 
vn 0 0 1 
vn 0 0 1 
f 1//1 2//2 3//3 
f 3//3 4//4 1//1 
o mesh92
v 0.00149305 0.000384436 0.000151968 
v -0.00120695 0.000384436 0.000151968 
v 0.000143054 0.000384436 6.19679e-05 
v -0.00120695 0.000374686 6.19679e-05 
v 0.00149305 0.000374438 6.19679e-05 
vn 0 -1 0 
vn 0 -1 0 
vn 0 -1 0 
vn 0 -1 0 
vn 0 -1 0 
f 5//5 6//6 7//7 
f 6//6 8//8 7//7 
f 7//7 9//9 5//5 
o mesh93
v -0.00120695 0.000374436 4.69679e-05 
v 0.00149305 0.000374436 4.69679e-05 
v 0.000143054 0.000374436 6.19679e-05 
v 0.00149305 0.000374438 6.19679e-05 
v -0.00120695 0.000374686 6.19679e-05 
vn 0 -1 0 
vn 0 -1 0 
vn 0 -1 0 
vn 0 -1 0 
vn 0 -1 0 
f 10//10 11//11 12//12 
f 11//11 13//13 12//12 
f 12//12 14//14 10//10 
o mesh94
v -0.00120695 0.000484436 6.19679e-05 
v -0.00120695 0.000374686 6.19679e-05 
v -0.00120695 0.000384436 0.000151968 
v -0.00120695 0.000449436 4.69679e-05 
v -0.00120695 0.000374436 4.69679e-05 
v -0.00120695 0.000474436 2.19679e-05 
v -0.00120695 0.000449436 2.19679e-05 
v -0.00120695 0.000484436 0.000151968 
vn -1 0 0 
vn -1 0 0 
vn -1 0 0 
vn -1 0 0 
vn -1 0 0 
vn -1 0 0 
vn -1 0 0 
vn -1 0 0 
f 15//15 16//16 17//17 
f 16//16 15//15 18//18 
f 18//18 19//19 16//16 
f 20//20 21//21 18//18 
f 18//18 15//15 20//20 
f 17//17 22//22 15//15 
o mesh95
v -0.00120695 0.000474436 2.19679e-05 
v -0.00122695 0.000474436 2.19679e-05 
v -0.00122079 0.000448696 2.19679e-05 
v -0.00122695 0.000447887 2.19679e-05 
v -0.00120695 0.000449436 2.19679e-05 
vn 0 0 1 
vn 0 0 1 
vn 0 0 1 
vn 0 0 1 
vn 0 0 1 
f 23//23 24//24 25//25 
f 24//24 26//26 25//25 
f 25//25 27//27 23//23 
o mesh96
v -0.00133655 0.000329436 2.19679e-05 
v -0.00133655 0.000329436 4.69679e-05 
v -0.00133475 0.000343182 4.69679e-05 
v -0.00133475 0.000343182 2.19679e-05 
v -0.0013315 0.000356658 4.69679e-05 
v -0.0013315 0.000356658 2.19679e-05 
v -0.00132682 0.000369711 4.69679e-05 
v -0.00132682 0.000369711 2.19679e-05 
v -0.00132079 0.000382192 4.69679e-05 
v -0.00132079 0.000382192 2.19679e-05 
v -0.00131346 0.00039396 4.69679e-05 
v -0.00131346 0.00039396 2.19679e-05 
v -0.00130492 0.00040488 4.69679e-05 
v -0.00130492 0.00040488 2.19679e-05 
v -0.00129526 0.000414828 4.69679e-05 
v -0.00129526 0.000414828 2.19679e-05 
v -0.0012846 0.000423691 4.69679e-05 
v -0.0012846 0.000423691 2.19679e-05 
v -0.00127305 0.000431368 4.69679e-05 
v -0.00127305 0.000431368 2.19679e-05 
v -0.00126076 0.000437772 4.69679e-05 
v -0.00126076 0.000437772 2.19679e-05 
v -0.00124785 0.000442831 4.69679e-05 
v -0.00124785 0.000442831 2.19679e-05 
v -0.00123448 0.000446486 4.69679e-05 
v -0.00122079 0.000448696 4.69679e-05 
v -0.00122695 0.000447887 2.19679e-05 
v -0.00122079 0.000448696 2.19679e-05 
v -0.00120695 0.000449436 4.69679e-05 
v -0.00120695 0.000449436 2.19679e-05 
v -0.00123448 0.000446486 2.19679e-05 
vn -0.997037 0.0769231 0 
vn -0.997037 0.0769231 0 
vn -0.983175 0.182664 0 
vn -0.983175 0.182664 0 
vn -0.958132 0.286328 0 
vn -0.958132 0.286328 0 
vn -0.922191 0.386735 0 
vn -0.922191 0.386735 0 
vn -0.875762 0.482743 0 
vn -0.875762 0.482743 0 
vn -0.819372 0.573261 0 
vn -0.819372 0.573261 0 
vn -0.753664 0.65726 0 
vn -0.753664 0.65726 0 
vn -0.679384 0.733783 0 
vn -0.679384 0.733783 0 
vn -0.597377 0.80196 0 
vn -0.597377 0.80196 0 
vn -0.508576 0.861017 0 
vn -0.508576 0.861017 0 
vn -0.413991 0.910281 0 
vn -0.413991 0.910281 0 
vn -0.314697 0.949192 0 
vn -0.314697 0.949192 0 
vn -0.211824 0.977308 0 
vn -0.106542 0.994308 0 
vn -0.153895 0.988087 0 
vn -0.106542 0.994308 0 
vn -4.85013e-05 1 0 
vn -7.05473e-05 1 0 
vn -0.211824 0.977308 0 
f 28//28 29//29 30//30 
f 31//31 30//30 32//32 
f 33//33 32//32 34//34 
f 35//35 34//34 36//36 
f 37//37 36//36 38//38 
f 39//39 38//38 40//40 
f 41//41 40//40 42//42 
f 43//43 42//42 44//44 
f 45//45 44//44 46//46 
f 47//47 46//46 48//48 
f 49//49 48//48 50//50 
f 51//51 50//50 52//52 
f 52//52 53//53 54//54 
f 53//53 55//55 54//54 
f 55//55 53//53 56//56 
f 56//56 57//57 55//55 
f 54//54 58//58 52//52 
f 52//52 58//58 51//51 
f 50//50 51//51 49//49 
f 48//48 49//49 47//47 
f 46//46 47//47 45//45 
f 44//44 45//45 43//43 
f 42//42 43//43 41//41 
f 40//40 41//41 39//39 
f 38//38 39//39 37//37 
f 36//36 37//37 35//35 
f 34//34 35//35 33//33 
f 32//32 33//33 31//31 
f 30//30 31//31 28//28 
o mesh97
v -0.00133655 0.000329436 4.69679e-05 
v -0.00133655 0.000329436 2.19679e-05 
v 0.00161305 0.000329436 2.19679e-05 
v 0.00161305 0.000329436 4.69679e-05 
vn 0 -1 0 
vn 0 -1 0 
vn 0 -1 0 
vn 0 -1 0 
f 59//59 60//60 61//61 
f 61//61 62//62 59//59 
o mesh98
v 0.00161305 0.000329436 4.69679e-05 
v 0.00161305 0.000329436 2.19679e-05 
v 0.00161305 0.000334436 2.19679e-05 
v 0.00161305 0.000334436 4.69679e-05 
vn 1 0 0 
vn 1 0 0 
vn 1 0 0 
vn 1 0 0 
f 63//63 64//64 65//65 
f 65//65 66//66 63//63 
o mesh99
v 0.0016188 0.000352299 4.69679e-05 
v 0.0016021 0.000390249 4.69679e-05 
v 0.00159898 0.000395036 4.69679e-05 
v 0.0016091 0.000378259 4.69679e-05 
v 0.00160597 0.000384336 4.69679e-05 
v 0.00161469 0.000365552 4.69679e-05 
v 0.00156291 0.000428954 4.69679e-05 
v 0.00156045 0.000430615 4.69679e-05 
v 0.00157418 0.000420881 4.69679e-05 
v 0.00157123 0.000423336 4.69679e-05 
v 0.00161649 0.000360902 4.69679e-05 
v 0.00153812 0.000441278 4.69679e-05 
v 0.00153595 0.000442174 4.69679e-05 
v 0.00155083 0.000435765 4.69679e-05 
v 0.00154872 0.000436896 4.69679e-05 
v 0.00158448 0.00041161 4.69679e-05 
v 0.00158067 0.000415473 4.69679e-05 
v 0.00159384 0.000401391 4.69679e-05 
v 0.00159063 0.000405373 4.69679e-05 
v 0.00161178 0.000373054 4.69679e-05 
v -0.00120695 0.000374436 4.69679e-05 
v -0.00132079 0.000382192 4.69679e-05 
v -0.00132682 0.000369711 4.69679e-05 
v -0.00130492 0.00040488 4.69679e-05 
v -0.00131346 0.00039396 4.69679e-05 
v -0.0012846 0.000423691 4.69679e-05 
v -0.00129526 0.000414828 4.69679e-05 
v -0.00124785 0.000442831 4.69679e-05 
v -0.00126076 0.000437772 4.69679e-05 
v -0.00120695 0.000449436 4.69679e-05 
v -0.00122079 0.000448696 4.69679e-05 
v 0.00152489 0.000445421 4.69679e-05 
v 0.00152277 0.000446043 4.69679e-05 
v -0.0013315 0.000356658 4.69679e-05 
v -0.00127305 0.000431368 4.69679e-05 
v -0.00123448 0.000446486 4.69679e-05 
v 0.00161305 0.000334436 4.69679e-05 
v 0.00162008 0.000347545 4.69679e-05 
v 0.00162175 0.000338741 4.69679e-05 
v 0.00149305 0.000374436 4.69679e-05 
v 0.00161305 0.000329436 4.69679e-05 
v 0.00151128 0.000448121 4.69679e-05 
v 0.0015099 0.000448372 4.69679e-05 
v -0.00133475 0.000343182 4.69679e-05 
v 0.00149747 0.000449326 4.69679e-05 
v -0.00133655 0.000329436 4.69679e-05 
v 0.00149666 0.000449388 4.69679e-05 
v 0.00162257 0.000334384 4.69679e-05 
v 0.00149305 0.000449436 4.69679e-05 
vn 0 0 1 
vn 0 0 1 
vn 0 0 1 
vn 0 0 1 
vn 0 0 1 
vn 0 0 1 
vn 0 0 1 
vn 0 0 1 
vn 0 0 1 
vn 0 0 1 
vn 0 0 1 
vn 0 0 1 
vn 0 0 1 
vn 0 0 1 
vn 0 0 1 
vn 0 0 1 
vn 0 0 1 
vn 0 0 1 
vn 0 0 1 
vn 0 0 1 
vn 0 0 1 
vn 0 0 1 
vn 0 0 1 
vn 0 0 1 
vn 0 0 1 
vn 0 0 1 
vn 0 0 1 
vn 0 0 1 
vn 0 0 1 
vn 0 0 1 
vn 0 0 1 
vn 0 0 1 
vn 0 0 1 
vn 0 0 1 
vn 0 0 1 
vn 0 0 1 
vn 0 0 1 
vn 0 0 1 
vn 0 0 1 
vn 0 0 1 
vn 0 0 1 
vn 0 0 1 
vn 0 0 1 
vn 0 0 1 
vn 0 0 1 
vn 0 0 1 
vn 0 0 1 
vn 0 0 1 
vn 0 0 1 
f 67//67 68//68 69//69 
f 67//67 70//70 71//71 
f 70//70 67//67 72//72 
f 67//67 73//73 74//74 
f 67//67 75//75 76//76 
f 71//71 68//68 67//67 
f 67//67 77//77 72//72 
f 67//67 78//78 79//79 
f 67//67 80//80 81//81 
f 76//76 73//73 67//67 
f 67//67 82//82 83//83 
f 67//67 84//84 85//85 
f 72//72 86//86 70//70 
f 87//87 88//88 89//89 
f 87//87 90//90 91//91 
f 87//87 92//92 93//93 
f 87//87 94//94 95//95 
f 87//87 96//96 97//97 
f 67//67 98//98 99//99 
f 81//81 78//78 67//67 
f 83//83 75//75 67//67 
f 69//69 84//84 67//67 
f 89//89 100//100 87//87 
f 93//93 90//90 87//87 
f 95//95 101//101 87//87 
f 97//97 102//102 87//87 
f 79//79 98//98 67//67 
f 85//85 82//82 67//67 
f 103//103 104//104 67//67 
f 91//91 88//88 87//87 
f 102//102 94//94 87//87 
f 74//74 80//80 67//67 
f 103//103 105//105 104//104 
f 101//101 92//92 87//87 
f 106//106 107//107 103//103 
f 103//103 108//108 109//109 
f 67//67 108//108 103//103 
f 100//100 110//110 87//87 
f 107//107 106//106 87//87 
f 103//103 111//111 106//106 
f 99//99 108//108 67//67 
f 87//87 112//112 107//107 
f 111//111 113//113 106//106 
f 103//103 114//114 105//105 
f 113//113 115//115 106//106 
f 110//110 112//112 87//87 
f 109//109 111//111 103//103 
o mesh100
v 0.00149747 0.000449361 2.19679e-05 
v 0.00149747 0.000449326 4.69679e-05 
v 0.0015099 0.000448372 4.69679e-05 
v 0.00151129 0.00044815 2.19679e-05 
v 0.00151128 0.000448121 4.69679e-05 
v 0.00152277 0.000446043 4.69679e-05 
v 0.0015249 0.000445473 2.19679e-05 
v 0.00152489 0.000445421 4.69679e-05 
v 0.00153595 0.000442174 4.69679e-05 
v 0.00153815 0.000441361 2.19679e-05 
v 0.00153812 0.000441278 4.69679e-05 
v 0.00154872 0.000436896 4.69679e-05 
v 0.00155089 0.000435861 2.19679e-05 
v 0.00155083 0.000435765 4.69679e-05 
v 0.00156045 0.000430615 4.69679e-05 
v 0.00156296 0.000429034 2.19679e-05 
v 0.00156291 0.000428954 4.69679e-05 
v 0.00157123 0.000423336 4.69679e-05 
v 0.00157424 0.00042096 2.19679e-05 
v 0.00157418 0.000420881 4.69679e-05 
v 0.00158067 0.000415473 4.69679e-05 
v 0.0015846 0.00041173 2.19679e-05 
v 0.00158448 0.00041161 4.69679e-05 
v 0.00159063 0.000405373 4.69679e-05 
v 0.00159391 0.000401448 2.19679e-05 
v 0.00159384 0.000401391 4.69679e-05 
v 0.00159898 0.000395036 4.69679e-05 
v 0.00160208 0.000390233 2.19679e-05 
v 0.0016021 0.000390249 4.69679e-05 
v 0.00160597 0.000384336 4.69679e-05 
v 0.001609 0.000378211 2.19679e-05 
v 0.00161461 0.00036552 2.19679e-05 
v 0.00161178 0.000373054 4.69679e-05 
v 0.0016091 0.000378259 4.69679e-05 
v 0.00161882 0.000352305 2.19679e-05 
v 0.00161649 0.000360902 4.69679e-05 
v 0.00161469 0.000365552 4.69679e-05 
v 0.00162161 0.000338715 2.19679e-05 
v 0.00162008 0.000347545 4.69679e-05 
v 0.0016188 0.000352299 4.69679e-05 
v 0.00162257 0.000334384 4.69679e-05 
v 0.00162257 0.000334382 2.19679e-05 
v 0.00149306 0.000449436 2.19679e-05 
v 0.00149305 0.000449436 4.69679e-05 
v 0.00149666 0.000449388 4.69679e-05 
v 0.00162175 0.000338741 4.69679e-05 
vn 0.0340123 0.999421 0 
vn 0.034001 0.999422 0 
vn 0.129579 0.991569 0 
vn 0.140318 0.990106 0 
vn 0.14031 0.990108 0 
vn 0.228528 0.973537 0 
vn 0.245026 0.969516 0 
vn 0.245011 0.96952 0 
vn 0.329936 0.944003 0 
vn 0.346944 0.937886 0 
vn 0.346919 0.937895 0 
vn 0.428317 0.903629 0 
vn 0.444911 0.895575 0 
vn 0.444888 0.895586 0 
vn 0.518415 0.855129 0 
vn 0.537811 0.843066 0 
vn 0.537795 0.843076 0 
vn 0.60127 0.799046 0 
vn 0.624587 0.780955 0 
vn 0.624574 0.780965 0 
vn 0.674003 0.738729 0 
vn 0.70425 0.709952 0 
vn 0.704239 0.709963 0 
vn 0.750453 0.660924 0 
vn 0.775893 0.630864 0 
vn 0.775892 0.630866 0 
vn 0.813961 0.58092 0 
vn 0.838701 0.544592 0 
vn 0.838701 0.544592 0 
vn 0.866997 0.498313 0 
vn 0.891958 0.452118 0 
vn 0.935058 0.354496 0 
vn 0.911374 0.411579 0 
vn 0.891956 0.452123 0 
vn 0.967509 0.252836 0 
vn 0.94795 0.318419 0 
vn 0.935056 0.354501 0 
vn 0.988943 0.148298 0 
vn 0.976383 0.216045 0 
vn 0.967509 0.252835 0 
vn 0.993406 0.114646 0 
vn 0.993408 0.114636 0 
vn 7.05473e-05 1 0 
vn 4.85013e-05 1 0 
vn 0.0277762 0.999614 0 
vn 0.988937 0.148338 0 
f 116//116 117//117 118//118 
f 118//118 119//119 116//116 
f 119//119 120//120 121//121 
f 121//121 122//122 119//119 
f 122//122 123//123 124//124 
f 124//124 125//125 122//122 
f 125//125 126//126 127//127 
f 127//127 128//128 125//125 
f 128//128 129//129 130//130 
f 130//130 131//131 128//128 
f 131//131 132//132 133//133 
f 133//133 134//134 131//131 
f 134//134 135//135 136//136 
f 136//136 137//137 134//134 
f 137//137 138//138 139//139 
f 139//139 140//140 137//137 
f 140//140 141//141 142//142 
f 142//142 143//143 140//140 
f 143//143 144//144 145//145 
f 145//145 146//146 143//143 
f 147//147 146//146 148//148 
f 146//146 149//149 148//148 
f 150//150 147//147 151//151 
f 147//147 152//152 151//151 
f 153//153 150//150 154//154 
f 150//150 155//155 154//154 
f 156//156 157//157 153//153 
f 158//158 159//159 160//160 
f 160//160 116//116 158//158 
f 160//160 117//117 116//116 
f 153//153 161//161 156//156 
f 154//154 161//161 153//153 
f 151//151 155//155 150//150 
f 148//148 152//152 147//147 
f 145//145 149//149 146//146 
f 142//142 144//144 143//143 
f 139//139 141//141 140//140 
f 136//136 138//138 137//137 
f 133//133 135//135 134//134 
f 130//130 132//132 131//131 
f 127//127 129//129 128//128 
f 124//124 126//126 125//125 
f 121//121 123//123 122//122 
f 118//118 120//120 119//119 
o mesh101
v 0.00161305 0.000334436 4.69679e-05 
v 0.00161305 0.000334436 2.19679e-05 
v 0.00162257 0.000334382 2.19679e-05 
v 0.00162257 0.000334384 4.69679e-05 
vn 0 -1 0 
vn 0 -1 0 
vn 0 -1 0 
vn 0 -1 0 
f 162//162 163//163 164//164 
f 164//164 165//165 162//162 
o mesh102
v -0.00122695 0.000364436 2.19679e-05 
v -0.00127305 0.000431368 2.19679e-05 
v -0.00126076 0.000437772 2.19679e-05 
v -0.00130492 0.00040488 2.19679e-05 
v -0.00129526 0.000414828 2.19679e-05 
v -0.00132079 0.000382192 2.19679e-05 
v -0.00131346 0.00039396 2.19679e-05 
v -0.0013315 0.000356658 2.19679e-05 
v -0.00132682 0.000369711 2.19679e-05 
v 0.00161461 0.00036552 2.19679e-05 
v 0.00155089 0.000435861 2.19679e-05 
v 0.00156296 0.000429034 2.19679e-05 
v -0.0012846 0.000423691 2.19679e-05 
v -0.00133475 0.000343182 2.19679e-05 
v 0.00157424 0.00042096 2.19679e-05 
v 0.00160208 0.000390233 2.19679e-05 
v 0.001609 0.000378211 2.19679e-05 
v 0.0015846 0.00041173 2.19679e-05 
v 0.00159391 0.000401448 2.19679e-05 
v 0.00153815 0.000441361 2.19679e-05 
v -0.00124785 0.000442831 2.19679e-05 
v 0.0015249 0.000445473 2.19679e-05 
v 0.00149305 0.000364436 2.19679e-05 
v 0.00149747 0.000449361 2.19679e-05 
v 0.00161305 0.000334436 2.19679e-05 
v 0.00161882 0.000352305 2.19679e-05 
v 0.00151129 0.00044815 2.19679e-05 
v 0.00149306 0.000449436 2.19679e-05 
v -0.00133655 0.000329436 2.19679e-05 
v 0.00161305 0.000329436 2.19679e-05 
v -0.00123448 0.000446486 2.19679e-05 
v -0.00122695 0.000447887 2.19679e-05 
v 0.00162161 0.000338715 2.19679e-05 
v 0.00162257 0.000334382 2.19679e-05 
vn 0 0 -1 
vn 0 0 -1 
vn 0 0 -1 
vn 0 0 -1 
vn 0 0 -1 
vn 0 0 -1 
vn 0 0 -1 
vn 0 0 -1 
vn 0 0 -1 
vn 0 0 -1 
vn 0 0 -1 
vn 0 0 -1 
vn 0 0 -1 
vn 0 0 -1 
vn 0 0 -1 
vn 0 0 -1 
vn 0 0 -1 
vn 0 0 -1 
vn 0 0 -1 
vn 0 0 -1 
vn 0 0 -1 
vn 0 0 -1 
vn 0 0 -1 
vn 0 0 -1 
vn 0 0 -1 
vn 0 0 -1 
vn 0 0 -1 
vn 0 0 -1 
vn 0 0 -1 
vn 0 0 -1 
vn 0 0 -1 
vn 0 0 -1 
vn 0 0 -1 
vn 0 0 -1 
f 166//166 167//167 168//168 
f 166//166 169//169 170//170 
f 166//166 171//171 172//172 
f 166//166 173//173 174//174 
f 175//175 176//176 177//177 
f 166//166 178//178 167//167 
f 172//172 169//169 166//166 
f 166//166 179//179 173//173 
f 180//180 181//181 182//182 
f 180//180 183//183 184//184 
f 175//175 185//185 176//176 
f 168//168 186//186 166//166 
f 174//174 171//171 166//166 
f 184//184 181//181 180//180 
f 175//175 187//187 185//185 
f 188//188 189//189 190//190 
f 170//170 178//178 166//166 
f 190//190 189//189 191//191 
f 177//177 180//180 175//175 
f 175//175 189//189 192//192 
f 188//188 193//193 189//189 
f 194//194 166//166 188//188 
f 166//166 194//194 179//179 
f 189//189 175//175 191//191 
f 192//192 187//187 175//175 
f 188//188 195//195 194//194 
f 186//186 196//196 166//166 
f 182//182 175//175 180//180 
f 196//196 197//197 166//166 
f 191//191 198//198 190//190 
f 198//198 199//199 190//190 
f 190//190 195//195 188//188 
o mesh103
v -0.00122695 0.000364436 6.96789e-06 
v -0.00122695 0.000364436 2.19679e-05 
v -0.00122695 0.000447887 2.19679e-05 
v -0.00122695 0.000474436 6.96789e-06 
v -0.00122695 0.000474436 2.19679e-05 
vn -1 0 0 
vn -1 0 0 
vn -1 0 0 
vn -1 0 0 
vn -1 0 0 
f 200//200 201//201 202//202 
f 202//202 203//203 200//200 
f 202//202 204//204 203//203 
o mesh104
v -0.00122695 0.000364436 2.19679e-05 
v -0.00122695 0.000364436 6.96789e-06 
v 0.00149305 0.000364436 6.96789e-06 
v 0.00149305 0.000364436 2.19679e-05 
vn 0 -1 0 
vn 0 -1 0 
vn 0 -1 0 
vn 0 -1 0 
f 205//205 206//206 207//207 
f 207//207 208//208 205//205 
o mesh105
v 0.00149305 0.000364436 6.96789e-06 
v -0.00122695 0.000364436 6.96789e-06 
v -0.00120695 0.000374436 6.96789e-06 
v -0.00122695 0.000474436 6.96789e-06 
v -0.00120695 0.000474436 6.96789e-06 
v 0.00149305 0.000374436 6.96789e-06 
vn 0 0 -1 
vn 0 0 -1 
vn 0 0 -1 
vn 0 0 -1 
vn 0 0 -1 
vn 0 0 -1 
f 209//209 210//210 211//211 
f 212//212 213//213 211//211 
f 211//211 210//210 212//212 
f 211//211 214//214 209//209 
o mesh106
v -0.00120695 0.000374436 6.96789e-06 
v -0.00120695 0.000374436 -8.30321e-05 
v 0.00149305 0.000374436 -8.30321e-05 
v 0.00149305 0.000374436 6.96789e-06 
vn 0 -1 0 
vn 0 -1 0 
vn 0 -1 0 
vn 0 -1 0 
f 215//215 216//216 217//217 
f 217//217 218//218 215//215 
o mesh107
v -0.00120695 0.000374436 -8.30321e-05 
v -0.00120695 0.000374436 6.96789e-06 
v -0.00120695 0.000474436 6.96789e-06 
v -0.00120695 0.000474436 -8.30321e-05 
vn -1 0 0 
vn -1 0 0 
vn -1 0 0 
vn -1 0 0 
f 219//219 220//220 221//221 
f 221//221 222//222 219//219 
o mesh108
v 0.00149305 0.000629436 6.19679e-05 
v 0.00149305 0.000449436 4.69679e-05 
v 0.00149306 0.000449436 2.19679e-05 
v 0.00149305 0.000374436 -8.30321e-05 
v 0.00149305 0.000624436 -8.30321e-05 
v 0.00149305 0.000634436 0.000151968 
v 0.00149305 0.000364436 2.19679e-05 
v 0.00149305 0.000364436 6.96789e-06 
v 0.00149305 0.000374436 6.96789e-06 
v 0.00149305 0.000384436 0.000151968 
v 0.00149305 0.000374438 6.19679e-05 
v 0.00149305 0.000374436 4.69679e-05 
vn 1 0 0 
vn 1 0 0 
vn 1 0 0 
vn 1 0 0 
vn 1 0 0 
vn 1 0 0 
vn 1 0 0 
vn 1 0 0 
vn 1 0 0 
vn 1 0 0 
vn 1 0 0 
vn 1 0 0 
f 223//223 224//224 225//225 
f 226//226 227//227 225//225 
f 225//225 227//227 223//223 
f 223//223 228//228 224//224 
f 229//229 230//230 231//231 
f 232//232 233//233 224//224 
f 231//231 225//225 229//229 
f 224//224 228//228 232//232 
f 233//233 234//234 224//224 
f 225//225 231//231 226//226 
o mesh109
v -0.00140695 0.000624436 -8.30321e-05 
v 0.00149305 0.000624436 -8.30321e-05 
v -0.00120695 0.000474436 -8.30321e-05 
v 0.00149305 0.000374436 -8.30321e-05 
v -0.00120695 0.000374436 -8.30321e-05 
v -0.00140695 0.000474436 -8.30321e-05 
vn 0 0 -1 
vn 0 0 -1 
vn 0 0 -1 
vn 0 0 -1 
vn 0 0 -1 
vn 0 0 -1 
f 235//235 236//236 237//237 
f 238//238 239//239 237//237 
f 237//237 236//236 238//238 
f 237//237 240//240 235//235 
o mesh110
v 0.000568054 0.000629436 6.19679e-05 
v 0.000568054 0.000634436 0.000151968 
v 0.00149305 0.000634436 0.000151968 
v 0.00149305 0.000629436 6.19679e-05 
vn 0 1 0 
vn 0 1 0 
vn 0 1 0 
vn 0 1 0 
f 241//241 242//242 243//243 
f 243//243 244//244 241//241 
o mesh111
v -0.00141195 0.000474436 6.96789e-06 
v -0.00141195 0.000624436 6.96789e-06 
v -0.00140695 0.000624436 -8.30321e-05 
v -0.00140695 0.000474436 -8.30321e-05 
vn -1 0 0 
vn -1 0 0 
vn -1 0 0 
vn -1 0 0 
f 245//245 246//246 247//247 
f 247//247 248//248 245//245 
o mesh112
v -0.00141695 0.000624436 2.19679e-05 
v -0.00141195 0.000624436 6.96789e-06 
v -0.00141195 0.000474436 6.96789e-06 
v -0.00141695 0.000474436 2.19679e-05 
vn -1 0 0 
vn -1 0 0 
vn -1 0 0 
vn -1 0 0 
f 249//249 250//250 251//251 
f 251//251 252//252 249//249 
o mesh113
v -0.00140695 0.000624436 2.19679e-05 
v -0.00141695 0.000624436 2.19679e-05 
v -0.00141695 0.000474436 2.19679e-05 
v -0.00140695 0.000474436 2.19679e-05 
vn 0 0 1 
vn 0 0 1 
vn 0 0 1 
vn 0 0 1 
f 253//253 254//254 255//255 
f 255//255 256//256 253//253 
o mesh114
v -0.00141195 0.000474436 6.96789e-06 
v -0.00120695 0.000474436 -8.30321e-05 
v -0.00140695 0.000474436 2.19679e-05 
v -0.00122695 0.000474436 6.96789e-06 
v -0.00122695 0.000474436 2.19679e-05 
v -0.00120695 0.000474436 6.96789e-06 
v -0.00120695 0.000474436 2.19679e-05 
v -0.00120695 0.000484436 6.19679e-05 
v -0.00130695 0.000474436 6.19679e-05 
v -0.00141695 0.000474436 2.19679e-05 
v -0.00140695 0.000474438 6.19679e-05 
v -0.00140695 0.000474436 -8.30321e-05 
vn 0 -1 0 
vn 0 -1 0 
vn 0 -1 0 
vn 0 -1 0 
vn 0 -1 0 
vn 0 -1 0 
vn 0 -1 0 
vn 0 -1 0 
vn 0 -1 0 
vn 0 -1 0 
vn 0 -1 0 
vn 0 -1 0 
f 257//257 258//258 259//259 
f 259//259 260//260 261//261 
f 258//258 262//262 260//260 
f 263//263 264//264 265//265 
f 259//259 266//266 257//257 
f 260//260 259//259 258//258 
f 265//265 267//267 263//263 
f 261//261 267//267 259//259 
f 257//257 268//268 258//258 
f 267//267 261//261 263//263 
o mesh115
v -0.00140695 0.000484436 0.000151968 
v -0.00140695 0.000474438 6.19679e-05 
v -0.00130695 0.000484436 6.19679e-05 
v -0.00120695 0.000484436 0.000151968 
v -0.00120695 0.000484436 6.19679e-05 
vn 0 -1 0 
vn 0 -1 0 
vn 0 -1 0 
vn 0 -1 0 
vn 0 -1 0 
f 269//269 270//270 271//271 
f 271//271 272//272 269//269 
f 271//271 273//273 272//272 
o mesh116
v -0.00130695 0.000474436 6.19679e-05 
v -0.00120695 0.000484436 6.19679e-05 
v -0.00130695 0.000484436 6.19679e-05 
v -0.00140695 0.000474438 6.19679e-05 
vn 0 0 1 
vn 0 0 1 
vn 0 0 1 
vn 0 0 1 
f 274//274 275//275 276//276 
f 276//276 277//277 274//274 
o mesh117
v 0.000568054 0.000634436 0.000151968 
v -0.000581946 0.00113444 0.000151968 
v -0.00120695 0.000484436 0.000151968 
v 0.00149305 0.000384436 0.000151968 
v 0.00149305 0.000634436 0.000151968 
v -0.00120695 0.000384436 0.000151968 
v -0.00140695 0.00113444 0.000151968 
v -0.00140695 0.000484436 0.000151968 
vn 0 0 1 
vn 0 0 1 
vn 0 0 1 
vn 0 0 1 
vn 0 0 1 
vn 0 0 1 
vn 0 0 1 
vn 0 0 1 
f 278//278 279//279 280//280 
f 281//281 282//282 278//278 
f 278//278 283//283 281//281 
f 284//284 285//285 280//280 
f 280//280 279//279 284//284 
f 280//280 283//283 278//278 
o mesh118
v -0.00140695 0.00113444 0.000151968 
v -0.000581946 0.00113444 0.000151968 
v -0.000581946 0.00112944 6.19679e-05 
v -0.00140695 0.00112944 6.19679e-05 
vn 0 1 0 
vn 0 1 0 
vn 0 1 0 
vn 0 1 0 
f 286//286 287//287 288//288 
f 288//288 289//289 286//286 
o mesh119
v -0.00140695 0.00112944 6.19679e-05 
v -0.00140695 0.00112444 2.19679e-05 
v -0.00140695 0.000624436 2.19679e-05 
v -0.00140695 0.000474436 2.19679e-05 
v -0.00140695 0.000474438 6.19679e-05 
v -0.00140695 0.000484436 0.000151968 
v -0.00140695 0.00113444 0.000151968 
vn -1 0 0 
vn -1 0 0 
vn -1 0 0 
vn -1 0 0 
vn -1 0 0 
vn -1 0 0 
vn -1 0 0 
f 290//290 291//291 292//292 
f 292//292 293//293 294//294 
f 295//295 296//296 290//290 
f 292//292 295//295 290//290 
f 294//294 295//295 292//292 
o mesh120
v -0.00141195 0.000624436 6.96789e-06 
v -0.00141695 0.000624436 2.19679e-05 
v -0.00140695 0.000624436 2.19679e-05 
v -0.00140695 0.000624436 -8.30321e-05 
v 0.000568054 0.000624436 2.19679e-05 
v 0.00149305 0.000629436 6.19679e-05 
v 0.00149305 0.000624436 -8.30321e-05 
v 0.000568054 0.000629436 6.19679e-05 
vn 0 1 0 
vn 0 1 0 
vn 0 1 0 
vn 0 1 0 
vn 0 1 0 
vn 0 1 0 
vn 0 1 0 
vn 0 1 0 
f 297//297 298//298 299//299 
f 300//300 297//297 301//301 
f 302//302 303//303 301//301 
f 301//301 303//303 300//300 
f 299//299 301//301 297//297 
f 301//301 304//304 302//302 
o mesh121
v -0.000581946 0.00112944 6.19679e-05 
v -0.000581946 0.00113444 0.000151968 
v 0.000568054 0.000634436 0.000151968 
v 0.000568054 0.000629436 6.19679e-05 
vn 0.398726 0.91707 0 
vn 0.398726 0.91707 0 
vn 0.398726 0.91707 0 
vn 0.398726 0.91707 0 
f 305//305 306//306 307//307 
f 307//307 308//308 305//305 
o mesh122
v -0.00140695 0.00112444 2.19679e-05 
v -0.00140695 0.00112944 6.19679e-05 
v -0.000581946 0.00112944 6.19679e-05 
v -0.000581946 0.00112444 2.19679e-05 
vn 0 1 0 
vn 0 1 0 
vn 0 1 0 
vn 0 1 0 
f 309//309 310//310 311//311 
f 311//311 312//312 309//309 
o mesh123
v 0.000568054 0.000629436 6.19679e-05 
v 0.000568054 0.000624436 2.19679e-05 
v -0.000581946 0.00112444 2.19679e-05 
v -0.000581946 0.00112944 6.19679e-05 
vn 0.398726 0.91707 0 
vn 0.398726 0.91707 0 
vn 0.398726 0.91707 0 
vn 0.398726 0.91707 0 
f 313//313 314//314 315//315 
f 315//315 316//316 313//313 
o mesh124
v -0.00140695 0.000624436 2.19679e-05 
v -0.00140695 0.00112444 2.19679e-05 
v -0.000581946 0.00112444 2.19679e-05 
v 0.000568054 0.000624436 2.19679e-05 
vn 0 0 -1 
vn 0 0 -1 
vn 0 0 -1 
vn 0 0 -1 
f 317//317 318//318 319//319 
f 319//319 320//320 317//317 
