# OBJ generated by ONSHAPE BY PTC INC, 1.217 Units = meters
mtllib Part_1.mtl
g Part 1
usemtl 0.301961_0.301961_0.301961_0.000000_0.000000
o mesh369
v -0.000450002 -8.5e-05 -0.0056885 
v -0.000450002 8.5e-05 -0.0056885 
v -0.000450002 8.5e-05 -0.0054735 
v -0.000450002 -8.5e-05 -0.0054735 
vn 1 0 0 
vn 1 0 0 
vn 1 0 0 
vn 1 0 0 
f 1//1 2//2 3//3 
f 3//3 4//4 1//1 
o mesh370
v -0.000450002 -8.5e-05 -0.0054735 
v -0.000450002 8.5e-05 -0.0054735 
v -0.00013625 8.5e-05 -0.0054735 
v -0.00013625 -8.5e-05 -0.0054735 
vn 0 0 -1 
vn 0 0 -1 
vn 0 0 -1 
vn 0 0 -1 
f 5//5 6//6 7//7 
f 7//7 8//8 5//5 
o mesh371
v -0.00013625 -8.5e-05 -0.0054735 
v -0.00013625 8.5e-05 -0.0054735 
v -0.00013625 8.5e-05 -0.0056885 
v -0.00013625 -8.5e-05 -0.0056885 
vn -1 0 0 
vn -1 0 0 
vn -1 0 0 
vn -1 0 0 
f 9//9 10//10 11//11 
f 11//11 12//12 9//9 
o mesh372
v -0.00013625 -8.5e-05 -0.0056885 
v -0.00013625 8.5e-05 -0.0056885 
v -0.000450002 8.5e-05 -0.0056885 
v -0.000450002 -8.5e-05 -0.0056885 
vn -5.52896e-15 0 1 
vn -5.52896e-15 0 1 
vn -5.52896e-15 0 1 
vn -5.52896e-15 0 1 
f 13//13 14//14 15//15 
f 15//15 16//16 13//13 
o mesh373
v -0.000110625 8.5e-05 -0.0005405 
v -8.5e-05 8.5e-05 0.0005825 
v 8.5e-05 8.5e-05 0.0005825 
v -0.000110625 8.5e-05 0.0025325 
v -8.5e-05 8.5e-05 0.0012825 
v 0.000110625 8.5e-05 0.0025325 
v 8.5e-05 8.5e-05 0.0012825 
v 0.000110625 8.5e-05 -0.0005405 
v -0.000110625 8.5e-05 -0.0033385 
v -8.5e-05 8.5e-05 -0.0023635 
v 8.5e-05 8.5e-05 -0.0023635 
v -8.5e-05 8.5e-05 -0.0016635 
v 8.5e-05 8.5e-05 -0.0016635 
v 0.000110625 8.5e-05 -0.0033385 
v -0.000110625 8.5e-05 -0.0052435 
v -8.5e-05 8.5e-05 -0.0050135 
v 8.5e-05 8.5e-05 -0.0050135 
v -8.5e-05 8.5e-05 -0.0043135 
v 8.5e-05 8.5e-05 -0.0043135 
v 0.000110625 8.5e-05 -0.0052435 
v 0.000110625 8.5e-05 -0.006238 
v -8.5e-05 8.5e-05 0.0037825 
v 8.5e-05 8.5e-05 0.0037825 
v -0.000110625 8.5e-05 0.0065175 
v -8.5e-05 8.5e-05 0.0044825 
v 0.000110625 8.5e-05 0.0065175 
v 8.5e-05 8.5e-05 0.0044825 
v 0.000322 8.5e-05 0.0065175 
v 0.000509262 8.5e-05 0.0048025 
v 0.00056 8.5e-05 0.0067875 
v 0.000509262 8.5e-05 0.0025325 
v 0.000509262 8.5e-05 -0.0005405 
v 0.000459262 8.5e-05 -0.0023485 
v 0.000509262 8.5e-05 -0.0022485 
v 0.000466272 8.5e-05 -0.0033385 
v 0.0012975 8.5e-05 -0.006238 
v 0.000530002 8.5e-05 -0.0061695 
v 0.00013625 8.5e-05 -0.0056885 
v 0.000450002 8.5e-05 -0.0056885 
v 0.000480002 8.5e-05 -0.0052775 
v 0.000530002 8.5e-05 -0.0053275 
v 0.000450002 8.5e-05 -0.0054735 
v 0.000479761 8.5e-05 -0.0052435 
v 0.00013625 8.5e-05 -0.0054735 
v 0.0012975 8.5e-05 -0.0059695 
v 0.001114 8.5e-05 -0.0061695 
v 0.001114 8.5e-05 -0.0059695 
v 0.000530002 8.5e-05 -0.0065875 
v 0.000330002 8.5e-05 -0.0065875 
v 0.000330002 8.5e-05 -0.0067875 
v 0.000530002 8.5e-05 -0.0067875 
v 0.0012975 8.5e-05 -0.0065875 
v -0.000110625 8.5e-05 -0.006238 
v 0.000110625 8.5e-05 -0.0065875 
v -0.000873752 8.5e-05 -0.006238 
v -0.000330002 8.5e-05 -0.0065875 
v -0.000530002 8.5e-05 -0.0065875 
v -0.000530002 8.5e-05 -0.0067875 
v -0.000330002 8.5e-05 -0.0067875 
v -0.000110625 8.5e-05 -0.0065875 
v -0.0012975 8.5e-05 -0.006238 
v -0.000873752 8.5e-05 -0.0065875 
v -0.001114 8.5e-05 -0.0061695 
v -0.0012975 8.5e-05 -0.0059695 
v -0.001114 8.5e-05 -0.0059695 
v -0.00013625 8.5e-05 -0.0054735 
v -0.000480002 8.5e-05 -0.0052775 
v -0.000450002 8.5e-05 -0.0054735 
v -0.000530002 8.5e-05 -0.0053275 
v -0.00013625 8.5e-05 -0.0056885 
v -0.000530002 8.5e-05 -0.0061695 
v -0.000450002 8.5e-05 -0.0056885 
v -0.000873752 8.5e-05 -0.0061695 
v -0.000479761 8.5e-05 -0.0052435 
v -0.000466272 8.5e-05 -0.0033385 
v -0.000459262 8.5e-05 -0.0023485 
v -0.000509262 8.5e-05 -0.0022485 
v -0.000509262 8.5e-05 0.0025325 
v -0.000509262 8.5e-05 0.0048025 
v -0.00056 8.5e-05 0.0067875 
v -0.000322 8.5e-05 0.0067875 
v -0.000322 8.5e-05 0.0065175 
v -0.000509262 8.5e-05 -0.0005405 
v -0.0012975 8.5e-05 -0.0065875 
v 0.000322 8.5e-05 0.0067875 
vn 0 1 0 
vn 0 1 0 
vn 0 1 0 
vn 0 1 0 
vn 0 1 0 
vn 0 1 0 
vn 0 1 0 
vn 0 1 0 
vn 0 1 0 
vn 0 1 0 
vn 0 1 0 
vn 0 1 0 
vn 0 1 0 
vn 0 1 0 
vn 0 1 0 
vn 0 1 0 
vn 0 1 0 
vn 0 1 0 
vn 0 1 0 
vn 0 1 0 
vn 0 1 0 
vn 0 1 0 
vn 0 1 0 
vn 0 1 0 
vn 0 1 0 
vn 0 1 0 
vn 0 1 0 
vn 0 1 0 
vn 0 1 0 
vn 0 1 0 
vn 0 1 0 
vn 0 1 0 
vn 0 1 0 
vn 0 1 0 
vn 0 1 0 
vn 0 1 0 
vn 0 1 0 
vn 0 1 0 
vn 0 1 0 
vn 0 1 0 
vn 0 1 0 
vn 0 1 0 
vn 0 1 0 
vn 0 1 0 
vn 0 1 0 
vn 0 1 0 
vn 0 1 0 
vn 0 1 0 
vn 0 1 0 
vn 0 1 0 
vn 0 1 0 
vn 0 1 0 
vn 0 1 0 
vn 0 1 0 
vn 0 1 0 
vn 0 1 0 
vn 0 1 0 
vn 0 1 0 
vn 0 1 0 
vn 0 1 0 
vn 0 1 0 
vn 0 1 0 
vn 0 1 0 
vn 0 1 0 
vn 0 1 0 
vn 0 1 0 
vn 0 1 0 
vn 0 1 0 
vn 0 1 0 
vn 0 1 0 
vn 0 1 0 
vn 0 1 0 
vn 0 1 0 
vn 0 1 0 
vn 0 1 0 
vn 0 1 0 
vn 0 1 0 
vn 0 1 0 
vn 0 1 0 
vn 0 1 0 
vn 0 1 0 
vn 0 1 0 
vn 0 1 0 
vn 0 1 0 
vn 0 1 0 
f 17//17 18//18 19//19 
f 17//17 20//20 21//21 
f 21//21 18//18 17//17 
f 20//20 22//22 23//23 
f 24//24 19//19 23//23 
f 23//23 21//21 20//20 
f 19//19 24//24 17//17 
f 25//25 26//26 27//27 
f 25//25 17//17 28//28 
f 28//28 26//26 25//25 
f 17//17 24//24 29//29 
f 30//30 27//27 29//29 
f 29//29 28//28 17//17 
f 27//27 30//30 25//25 
f 31//31 32//32 33//33 
f 31//31 25//25 34//34 
f 34//34 32//32 31//31 
f 25//25 30//30 35//35 
f 36//36 33//33 35//35 
f 35//35 34//34 25//25 
f 33//33 36//36 31//31 
f 31//31 36//36 37//37 
f 20//20 38//38 39//39 
f 20//20 40//40 41//41 
f 41//41 38//38 20//20 
f 40//40 42//42 43//43 
f 22//22 39//39 43//43 
f 43//43 41//41 40//40 
f 39//39 22//22 20//20 
f 42//42 44//44 45//45 
f 46//46 45//45 44//44 
f 45//45 22//22 42//42 
f 45//45 47//47 22//22 
f 22//22 47//47 48//48 
f 30//30 24//24 49//49 
f 24//24 48//48 50//50 
f 50//50 49//49 24//24 
f 36//36 30//30 51//51 
f 52//52 37//37 53//53 
f 37//37 54//54 55//55 
f 56//56 57//57 58//58 
f 36//36 59//59 56//56 
f 55//55 53//53 37//37 
f 36//36 60//60 54//54 
f 56//56 60//60 36//36 
f 57//57 53//53 55//55 
f 61//61 52//52 62//62 
f 54//54 37//37 36//36 
f 55//55 58//58 57//57 
f 53//53 62//62 52//52 
f 62//62 63//63 61//61 
f 37//37 64//64 65//65 
f 66//66 65//65 64//64 
f 64//64 67//67 66//66 
f 52//52 68//68 64//64 
f 64//64 37//37 52//52 
f 69//69 37//37 70//70 
f 71//71 72//72 73//73 
f 74//74 73//73 72//72 
f 72//72 75//75 74//74 
f 69//69 76//76 72//72 
f 72//72 71//71 69//69 
f 77//77 71//71 78//78 
f 71//71 77//77 79//79 
f 80//80 81//81 79//79 
f 79//79 77//77 80//80 
f 31//31 82//82 83//83 
f 83//83 82//82 84//84 
f 84//84 85//85 83//83 
f 31//31 69//69 86//86 
f 86//86 82//82 31//31 
f 69//69 87//87 88//88 
f 88//88 86//86 69//69 
f 85//85 84//84 88//88 
f 88//88 87//87 85//85 
f 71//71 89//89 87//87 
f 87//87 69//69 71//71 
f 31//31 90//90 91//91 
f 17//17 92//92 93//93 
f 25//25 91//91 92//92 
f 92//92 17//17 25//25 
f 94//94 20//20 17//17 
f 40//40 20//20 95//95 
f 20//20 94//94 95//95 
f 96//96 97//97 98//98 
f 98//98 95//95 96//96 
f 95//95 98//98 40//40 
f 17//17 99//99 94//94 
f 93//93 99//99 17//17 
f 91//91 25//25 31//31 
f 83//83 90//90 31//31 
f 79//79 89//89 71//71 
f 78//78 100//100 77//77 
f 73//73 78//78 71//71 
f 70//70 76//76 69//69 
f 65//65 70//70 37//37 
f 58//58 60//60 56//56 
f 51//51 59//59 36//36 
f 49//49 51//51 30//30 
f 48//48 24//24 22//22 
f 44//44 101//101 46//46 
f 43//43 42//42 22//22 
f 37//37 69//69 31//31 
f 35//35 30//30 36//36 
f 29//29 24//24 30//30 
f 23//23 22//22 24//24 
o mesh374
v 8.5e-05 -8.5e-05 -0.0043135 
v 8.5e-05 8.5e-05 -0.0043135 
v 8.5e-05 8.5e-05 -0.0050135 
v 8.5e-05 -8.5e-05 -0.0050135 
vn -1 0 0 
vn -1 0 0 
vn -1 0 0 
vn -1 0 0 
f 102//102 103//103 104//104 
f 104//104 105//105 102//102 
o mesh375
v 8.5e-05 -8.5e-05 -0.0050135 
v 8.5e-05 8.5e-05 -0.0050135 
v -8.5e-05 8.5e-05 -0.0050135 
v -8.5e-05 -8.5e-05 -0.0050135 
vn 0 0 1 
vn 0 0 1 
vn 0 0 1 
vn 0 0 1 
f 106//106 107//107 108//108 
f 108//108 109//109 106//106 
o mesh376
v -8.5e-05 -8.5e-05 -0.0050135 
v -8.5e-05 8.5e-05 -0.0050135 
v -8.5e-05 8.5e-05 -0.0043135 
v -8.5e-05 -8.5e-05 -0.0043135 
vn 1 0 0 
vn 1 0 0 
vn 1 0 0 
vn 1 0 0 
f 110//110 111//111 112//112 
f 112//112 113//113 110//110 
o mesh377
v 0.00013625 -8.5e-05 -0.0056885 
v 0.00013625 8.5e-05 -0.0056885 
v 0.00013625 8.5e-05 -0.0054735 
v 0.00013625 -8.5e-05 -0.0054735 
vn 1 0 0 
vn 1 0 0 
vn 1 0 0 
vn 1 0 0 
f 114//114 115//115 116//116 
f 116//116 117//117 114//114 
o mesh378
v 0.00013625 -8.5e-05 -0.0054735 
v 0.00013625 8.5e-05 -0.0054735 
v 0.000450002 8.5e-05 -0.0054735 
v 0.000450002 -8.5e-05 -0.0054735 
vn 5.25251e-14 0 -1 
vn 5.25251e-14 0 -1 
vn 5.25251e-14 0 -1 
vn 5.25251e-14 0 -1 
f 118//118 119//119 120//120 
f 120//120 121//121 118//118 
o mesh379
v 0.000450002 -8.5e-05 -0.0054735 
v 0.000450002 8.5e-05 -0.0054735 
v 0.000450002 8.5e-05 -0.0056885 
v 0.000450002 -8.5e-05 -0.0056885 
vn -1 0 -5.77401e-14 
vn -1 0 -5.77401e-14 
vn -1 0 -5.77401e-14 
vn -1 0 -5.77401e-14 
f 122//122 123//123 124//124 
f 124//124 125//125 122//122 
o mesh380
v 8.5e-05 -8.5e-05 0.0012825 
v 8.5e-05 8.5e-05 0.0012825 
v 8.5e-05 8.5e-05 0.0005825 
v 8.5e-05 -8.5e-05 0.0005825 
vn -1 0 -5.77401e-14 
vn -1 0 -5.77401e-14 
vn -1 0 -5.77401e-14 
vn -1 0 -5.77401e-14 
f 126//126 127//127 128//128 
f 128//128 129//129 126//126 
o mesh381
v 8.5e-05 -8.5e-05 0.0005825 
v 8.5e-05 8.5e-05 0.0005825 
v -8.5e-05 8.5e-05 0.0005825 
v -8.5e-05 -8.5e-05 0.0005825 
vn 0 0 1 
vn 0 0 1 
vn 0 0 1 
vn 0 0 1 
f 130//130 131//131 132//132 
f 132//132 133//133 130//130 
o mesh382
v -8.5e-05 -8.5e-05 0.0005825 
v -8.5e-05 8.5e-05 0.0005825 
v -8.5e-05 8.5e-05 0.0012825 
v -8.5e-05 -8.5e-05 0.0012825 
vn 1 0 0 
vn 1 0 0 
vn 1 0 0 
vn 1 0 0 
f 134//134 135//135 136//136 
f 136//136 137//137 134//134 
o mesh383
v 8.5e-05 -8.5e-05 -0.0016635 
v 8.5e-05 8.5e-05 -0.0016635 
v 8.5e-05 8.5e-05 -0.0023635 
v 8.5e-05 -8.5e-05 -0.0023635 
vn -1 0 0 
vn -1 0 0 
vn -1 0 0 
vn -1 0 0 
f 138//138 139//139 140//140 
f 140//140 141//141 138//138 
o mesh384
v 8.5e-05 -8.5e-05 -0.0023635 
v 8.5e-05 8.5e-05 -0.0023635 
v -8.5e-05 8.5e-05 -0.0023635 
v -8.5e-05 -8.5e-05 -0.0023635 
vn 0 0 1 
vn 0 0 1 
vn 0 0 1 
vn 0 0 1 
f 142//142 143//143 144//144 
f 144//144 145//145 142//142 
o mesh385
v -8.5e-05 -8.5e-05 -0.0023635 
v -8.5e-05 8.5e-05 -0.0023635 
v -8.5e-05 8.5e-05 -0.0016635 
v -8.5e-05 -8.5e-05 -0.0016635 
vn 1 0 0 
vn 1 0 0 
vn 1 0 0 
vn 1 0 0 
f 146//146 147//147 148//148 
f 148//148 149//149 146//146 
o mesh386
v 8.5e-05 -8.5e-05 0.0044825 
v 8.5e-05 8.5e-05 0.0044825 
v 8.5e-05 8.5e-05 0.0037825 
v 8.5e-05 -8.5e-05 0.0037825 
vn -1 0 0 
vn -1 0 0 
vn -1 0 0 
vn -1 0 0 
f 150//150 151//151 152//152 
f 152//152 153//153 150//150 
o mesh387
v 8.5e-05 -8.5e-05 0.0037825 
v 8.5e-05 8.5e-05 0.0037825 
v -8.5e-05 8.5e-05 0.0037825 
v -8.5e-05 -8.5e-05 0.0037825 
vn 0 0 1 
vn 0 0 1 
vn 0 0 1 
vn 0 0 1 
f 154//154 155//155 156//156 
f 156//156 157//157 154//154 
o mesh388
v -8.5e-05 -8.5e-05 0.0037825 
v -8.5e-05 8.5e-05 0.0037825 
v -8.5e-05 8.5e-05 0.0044825 
v -8.5e-05 -8.5e-05 0.0044825 
vn 1 0 0 
vn 1 0 0 
vn 1 0 0 
vn 1 0 0 
f 158//158 159//159 160//160 
f 160//160 161//161 158//158 
o mesh389
v -0.000322 -8.5e-05 0.0065175 
v -0.000110625 -8.5e-05 0.0065175 
v -0.000110625 8.5e-05 0.0065175 
v 0.000110625 8.5e-05 0.0065175 
v 0.000110625 -8.5e-05 0.0065175 
v 0.000322 8.5e-05 0.0065175 
v 0.000322 -8.5e-05 0.0065175 
v -0.000322 8.5e-05 0.0065175 
vn 0 0 1 
vn 0 0 1 
vn 0 0 1 
vn 0 0 1 
vn 0 0 1 
vn 0 0 1 
vn 0 0 1 
vn 0 0 1 
f 162//162 163//163 164//164 
f 165//165 164//164 163//163 
f 163//163 166//166 165//165 
f 167//167 165//165 166//166 
f 166//166 168//168 167//167 
f 164//164 169//169 162//162 
o mesh390
v -0.000322 -8.5e-05 0.0065175 
v -0.000322 8.5e-05 0.0065175 
v -0.000322 8.5e-05 0.0067875 
v -0.000322 -8.5e-05 0.0067875 
vn 1 0 0 
vn 1 0 0 
vn 1 0 0 
vn 1 0 0 
f 170//170 171//171 172//172 
f 172//172 173//173 170//170 
o mesh391
v -0.000322 -8.5e-05 0.0067875 
v -0.000322 8.5e-05 0.0067875 
v -0.00056 8.5e-05 0.0067875 
v -0.00056 -8.5e-05 0.0067875 
vn 0 0 1 
vn 0 0 1 
vn 0 0 1 
vn 0 0 1 
f 174//174 175//175 176//176 
f 176//176 177//177 174//174 
o mesh392
v -0.00056 -8.5e-05 0.0067875 
v -0.00056 8.5e-05 0.0067875 
v -0.000509262 8.5e-05 0.0048025 
v -0.000509262 -8.5e-05 0.0048025 
vn -0.999673 0 -0.0255523 
vn -0.999673 0 -0.0255523 
vn -0.999673 0 -0.0255523 
vn -0.999673 0 -0.0255523 
f 178//178 179//179 180//180 
f 180//180 181//181 178//178 
o mesh393
v -0.000509262 -8.5e-05 -0.0022485 
v -0.000509262 -8.5e-05 -0.0005405 
v -0.000509262 8.5e-05 -0.0005405 
v -0.000509262 8.5e-05 0.0025325 
v -0.000509262 -8.5e-05 0.0025325 
v -0.000509262 8.5e-05 0.0048025 
v -0.000509262 -8.5e-05 0.0048025 
v -0.000509262 8.5e-05 -0.0022485 
vn -1 0 0 
vn -1 0 0 
vn -1 0 0 
vn -1 0 0 
vn -1 0 0 
vn -1 0 0 
vn -1 0 0 
vn -1 0 0 
f 182//182 183//183 184//184 
f 185//185 184//184 183//183 
f 183//183 186//186 185//185 
f 187//187 185//185 186//186 
f 186//186 188//188 187//187 
f 184//184 189//189 182//182 
o mesh394
v -0.000509262 -8.5e-05 -0.0022485 
v -0.000509262 8.5e-05 -0.0022485 
v -0.000459262 8.5e-05 -0.0023485 
v -0.000459262 -8.5e-05 -0.0023485 
vn -0.894427 0 -0.447214 
vn -0.894427 0 -0.447214 
vn -0.894427 0 -0.447214 
vn -0.894427 0 -0.447214 
f 190//190 191//191 192//192 
f 192//192 193//193 190//190 
o mesh395
v -0.000466272 -8.5e-05 -0.0033385 
v -0.000459262 -8.5e-05 -0.0023485 
v -0.000459262 8.5e-05 -0.0023485 
v -0.000479761 -8.5e-05 -0.0052435 
v -0.000466272 8.5e-05 -0.0033385 
v -0.000479761 8.5e-05 -0.0052435 
v -0.000480002 8.5e-05 -0.0052775 
v -0.000480002 -8.5e-05 -0.0052775 
vn -0.999975 0 0.00708074 
vn -0.999975 0 0.00708074 
vn -0.999975 0 0.00708074 
vn -0.999975 0 0.00708074 
vn -0.999975 0 0.00708074 
vn -0.999975 0 0.00708074 
vn -0.999975 0 0.00708074 
vn -0.999975 0 0.00708074 
f 194//194 195//195 196//196 
f 197//197 194//194 198//198 
f 198//198 199//199 197//197 
f 197//197 199//199 200//200 
f 200//200 201//201 197//197 
f 196//196 198//198 194//194 
o mesh396
v -0.000480002 -8.5e-05 -0.0052775 
v -0.000480002 8.5e-05 -0.0052775 
v -0.000530002 8.5e-05 -0.0053275 
v -0.000530002 -8.5e-05 -0.0053275 
vn -0.707107 0 0.707107 
vn -0.707107 0 0.707107 
vn -0.707107 0 0.707107 
vn -0.707107 0 0.707107 
f 202//202 203//203 204//204 
f 204//204 205//205 202//202 
o mesh397
v -0.000530002 -8.5e-05 -0.0053275 
v -0.000530002 8.5e-05 -0.0053275 
v -0.000530002 8.5e-05 -0.0061695 
v -0.000530002 -8.5e-05 -0.0061695 
vn -1 0 0 
vn -1 0 0 
vn -1 0 0 
vn -1 0 0 
f 206//206 207//207 208//208 
f 208//208 209//209 206//206 
o mesh398
v -0.001114 -8.5e-05 -0.0061695 
v -0.000873752 -8.5e-05 -0.0061695 
v -0.000873752 8.5e-05 -0.0061695 
v -0.000530002 8.5e-05 -0.0061695 
v -0.000530002 -8.5e-05 -0.0061695 
v -0.001114 8.5e-05 -0.0061695 
vn 0 0 1 
vn 0 0 1 
vn 0 0 1 
vn 0 0 1 
vn 0 0 1 
vn 0 0 1 
f 210//210 211//211 212//212 
f 213//213 212//212 211//211 
f 211//211 214//214 213//213 
f 212//212 215//215 210//210 
o mesh399
v -0.001114 -8.5e-05 -0.0061695 
v -0.001114 8.5e-05 -0.0061695 
v -0.001114 8.5e-05 -0.0059695 
v -0.001114 -8.5e-05 -0.0059695 
vn 1 0 0 
vn 1 0 0 
vn 1 0 0 
vn 1 0 0 
f 216//216 217//217 218//218 
f 218//218 219//219 216//216 
o mesh400
v -0.001114 -8.5e-05 -0.0059695 
v -0.001114 8.5e-05 -0.0059695 
v -0.0012975 8.5e-05 -0.0059695 
v -0.0012975 -8.5e-05 -0.0059695 
vn 0 0 1 
vn 0 0 1 
vn 0 0 1 
vn 0 0 1 
f 220//220 221//221 222//222 
f 222//222 223//223 220//220 
o mesh401
v -0.000530002 -8.5e-05 -0.0065875 
v -0.000530002 8.5e-05 -0.0065875 
v -0.000530002 8.5e-05 -0.0067875 
v -0.000530002 -8.5e-05 -0.0067875 
vn -1 0 0 
vn -1 0 0 
vn -1 0 0 
vn -1 0 0 
f 224//224 225//225 226//226 
f 226//226 227//227 224//224 
o mesh402
v -0.000530002 -8.5e-05 -0.0067875 
v -0.000530002 8.5e-05 -0.0067875 
v -0.000330002 8.5e-05 -0.0067875 
v -0.000330002 -8.5e-05 -0.0067875 
vn 0 0 -1 
vn 0 0 -1 
vn 0 0 -1 
vn 0 0 -1 
f 228//228 229//229 230//230 
f 230//230 231//231 228//228 
o mesh403
v -0.000330002 -8.5e-05 -0.0067875 
v -0.000330002 8.5e-05 -0.0067875 
v -0.000330002 8.5e-05 -0.0065875 
v -0.000330002 -8.5e-05 -0.0065875 
vn 1 0 0 
vn 1 0 0 
vn 1 0 0 
vn 1 0 0 
f 232//232 233//233 234//234 
f 234//234 235//235 232//232 
o mesh404
v 0.000330002 -8.5e-05 -0.0065875 
v 0.000110625 -8.5e-05 -0.0065875 
v 0.000110625 8.5e-05 -0.0065875 
v -0.000110625 8.5e-05 -0.0065875 
v -0.000110625 -8.5e-05 -0.0065875 
v -0.000330002 8.5e-05 -0.0065875 
v -0.000330002 -8.5e-05 -0.0065875 
v 0.000330002 8.5e-05 -0.0065875 
vn 0 0 -1 
vn 0 0 -1 
vn 0 0 -1 
vn 0 0 -1 
vn 0 0 -1 
vn 0 0 -1 
vn 0 0 -1 
vn 0 0 -1 
f 236//236 237//237 238//238 
f 239//239 238//238 237//237 
f 237//237 240//240 239//239 
f 241//241 239//239 240//240 
f 240//240 242//242 241//241 
f 238//238 243//243 236//236 
o mesh405
v 0.000330002 -8.5e-05 -0.0065875 
v 0.000330002 8.5e-05 -0.0065875 
v 0.000330002 8.5e-05 -0.0067875 
v 0.000330002 -8.5e-05 -0.0067875 
vn -1 0 0 
vn -1 0 0 
vn -1 0 0 
vn -1 0 0 
f 244//244 245//245 246//246 
f 246//246 247//247 244//244 
o mesh406
v 0.000330002 -8.5e-05 -0.0067875 
v 0.000330002 8.5e-05 -0.0067875 
v 0.000530002 8.5e-05 -0.0067875 
v 0.000530002 -8.5e-05 -0.0067875 
vn 0 0 -1 
vn 0 0 -1 
vn 0 0 -1 
vn 0 0 -1 
f 248//248 249//249 250//250 
f 250//250 251//251 248//248 
o mesh407
v 0.000530002 -8.5e-05 -0.0067875 
v 0.000530002 8.5e-05 -0.0067875 
v 0.000530002 8.5e-05 -0.0065875 
v 0.000530002 -8.5e-05 -0.0065875 
vn 1 0 0 
vn 1 0 0 
vn 1 0 0 
vn 1 0 0 
f 252//252 253//253 254//254 
f 254//254 255//255 252//252 
o mesh408
v 0.0012975 -8.5e-05 -0.0059695 
v 0.0012975 8.5e-05 -0.0059695 
v 0.001114 8.5e-05 -0.0059695 
v 0.001114 -8.5e-05 -0.0059695 
vn 0 0 1 
vn 0 0 1 
vn 0 0 1 
vn 0 0 1 
f 256//256 257//257 258//258 
f 258//258 259//259 256//256 
o mesh409
v 0.001114 -8.5e-05 -0.0059695 
v 0.001114 8.5e-05 -0.0059695 
v 0.001114 8.5e-05 -0.0061695 
v 0.001114 -8.5e-05 -0.0061695 
vn -1 0 0 
vn -1 0 0 
vn -1 0 0 
vn -1 0 0 
f 260//260 261//261 262//262 
f 262//262 263//263 260//260 
o mesh410
v 0.001114 -8.5e-05 -0.0061695 
v 0.001114 8.5e-05 -0.0061695 
v 0.000530002 8.5e-05 -0.0061695 
v 0.000530002 -8.5e-05 -0.0061695 
vn 0 0 1 
vn 0 0 1 
vn 0 0 1 
vn 0 0 1 
f 264//264 265//265 266//266 
f 266//266 267//267 264//264 
o mesh411
v 0.000530002 -8.5e-05 -0.0061695 
v 0.000530002 8.5e-05 -0.0061695 
v 0.000530002 8.5e-05 -0.0053275 
v 0.000530002 -8.5e-05 -0.0053275 
vn 1 0 0 
vn 1 0 0 
vn 1 0 0 
vn 1 0 0 
f 268//268 269//269 270//270 
f 270//270 271//271 268//268 
o mesh412
v 0.000530002 -8.5e-05 -0.0053275 
v 0.000530002 8.5e-05 -0.0053275 
v 0.000480002 8.5e-05 -0.0052775 
v 0.000480002 -8.5e-05 -0.0052775 
vn 0.707107 0 0.707107 
vn 0.707107 0 0.707107 
vn 0.707107 0 0.707107 
vn 0.707107 0 0.707107 
f 272//272 273//273 274//274 
f 274//274 275//275 272//272 
o mesh413
v 0.000479761 -8.5e-05 -0.0052435 
v 0.000480002 -8.5e-05 -0.0052775 
v 0.000480002 8.5e-05 -0.0052775 
v 0.000466272 -8.5e-05 -0.0033385 
v 0.000479761 8.5e-05 -0.0052435 
v 0.000466272 8.5e-05 -0.0033385 
v 0.000459262 8.5e-05 -0.0023485 
v 0.000459262 -8.5e-05 -0.0023485 
vn 0.999975 0 0.00708074 
vn 0.999975 0 0.00708074 
vn 0.999975 0 0.00708074 
vn 0.999975 0 0.00708074 
vn 0.999975 0 0.00708074 
vn 0.999975 0 0.00708074 
vn 0.999975 0 0.00708074 
vn 0.999975 0 0.00708074 
f 276//276 277//277 278//278 
f 279//279 276//276 280//280 
f 280//280 281//281 279//279 
f 279//279 281//281 282//282 
f 282//282 283//283 279//279 
f 278//278 280//280 276//276 
o mesh414
v 0.000459262 -8.5e-05 -0.0023485 
v 0.000459262 8.5e-05 -0.0023485 
v 0.000509262 8.5e-05 -0.0022485 
v 0.000509262 -8.5e-05 -0.0022485 
vn 0.894427 0 -0.447214 
vn 0.894427 0 -0.447214 
vn 0.894427 0 -0.447214 
vn 0.894427 0 -0.447214 
f 284//284 285//285 286//286 
f 286//286 287//287 284//284 
o mesh415
v 0.000509262 -8.5e-05 0.0048025 
v 0.000509262 -8.5e-05 0.0025325 
v 0.000509262 8.5e-05 0.0025325 
v 0.000509262 8.5e-05 -0.0005405 
v 0.000509262 -8.5e-05 -0.0005405 
v 0.000509262 8.5e-05 -0.0022485 
v 0.000509262 -8.5e-05 -0.0022485 
v 0.000509262 8.5e-05 0.0048025 
vn 1 0 0 
vn 1 0 0 
vn 1 0 0 
vn 1 0 0 
vn 1 0 0 
vn 1 0 0 
vn 1 0 0 
vn 1 0 0 
f 288//288 289//289 290//290 
f 291//291 290//290 289//289 
f 289//289 292//292 291//291 
f 293//293 291//291 292//292 
f 292//292 294//294 293//293 
f 290//290 295//295 288//288 
o mesh416
v 0.000509262 -8.5e-05 0.0048025 
v 0.000509262 8.5e-05 0.0048025 
v 0.00056 8.5e-05 0.0067875 
v 0.00056 -8.5e-05 0.0067875 
vn 0.999673 0 -0.0255523 
vn 0.999673 0 -0.0255523 
vn 0.999673 0 -0.0255523 
vn 0.999673 0 -0.0255523 
f 296//296 297//297 298//298 
f 298//298 299//299 296//296 
o mesh417
v 0.00056 -8.5e-05 0.0067875 
v 0.00056 8.5e-05 0.0067875 
v 0.000322 8.5e-05 0.0067875 
v 0.000322 -8.5e-05 0.0067875 
vn 0 0 1 
vn 0 0 1 
vn 0 0 1 
vn 0 0 1 
f 300//300 301//301 302//302 
f 302//302 303//303 300//300 
o mesh418
v -8.5e-05 -8.5e-05 -0.0043135 
v -8.5e-05 8.5e-05 -0.0043135 
v 8.5e-05 8.5e-05 -0.0043135 
v 8.5e-05 -8.5e-05 -0.0043135 
vn 0 0 -1 
vn 0 0 -1 
vn 0 0 -1 
vn 0 0 -1 
f 304//304 305//305 306//306 
f 306//306 307//307 304//304 
o mesh419
v 0.000450002 -8.5e-05 -0.0056885 
v 0.000450002 8.5e-05 -0.0056885 
v 0.00013625 8.5e-05 -0.0056885 
v 0.00013625 -8.5e-05 -0.0056885 
vn 0 0 1 
vn 0 0 1 
vn 0 0 1 
vn 0 0 1 
f 308//308 309//309 310//310 
f 310//310 311//311 308//308 
o mesh420
v -8.5e-05 -8.5e-05 0.0012825 
v -8.5e-05 8.5e-05 0.0012825 
v 8.5e-05 8.5e-05 0.0012825 
v 8.5e-05 -8.5e-05 0.0012825 
vn 0 0 -1 
vn 0 0 -1 
vn 0 0 -1 
vn 0 0 -1 
f 312//312 313//313 314//314 
f 314//314 315//315 312//312 
o mesh421
v -8.5e-05 -8.5e-05 -0.0016635 
v -8.5e-05 8.5e-05 -0.0016635 
v 8.5e-05 8.5e-05 -0.0016635 
v 8.5e-05 -8.5e-05 -0.0016635 
vn 0 0 -1 
vn 0 0 -1 
vn 0 0 -1 
vn 0 0 -1 
f 316//316 317//317 318//318 
f 318//318 319//319 316//316 
o mesh422
v -8.5e-05 -8.5e-05 0.0044825 
v -8.5e-05 8.5e-05 0.0044825 
v 8.5e-05 8.5e-05 0.0044825 
v 8.5e-05 -8.5e-05 0.0044825 
vn 0 0 -1 
vn 0 0 -1 
vn 0 0 -1 
vn 0 0 -1 
f 320//320 321//321 322//322 
f 322//322 323//323 320//320 
o mesh423
v 0.000322 -8.5e-05 0.0067875 
v 0.000322 8.5e-05 0.0067875 
v 0.000322 8.5e-05 0.0065175 
v 0.000322 -8.5e-05 0.0065175 
vn -1 0 0 
vn -1 0 0 
vn -1 0 0 
vn -1 0 0 
f 324//324 325//325 326//326 
f 326//326 327//327 324//324 
o mesh424
v -0.000873752 -8.5e-05 -0.0065875 
v -0.00127441 -8.5e-05 -0.0065875 
v -0.00126624 -6.05051e-05 -0.0065875 
v -0.000530002 -8.5e-05 -0.0065875 
v -0.000873752 8.5e-05 -0.0065875 
v -0.0012975 8.5e-05 -0.0065875 
v -0.000530002 8.5e-05 -0.0065875 
v -0.0012975 -6.05051e-05 -0.0065875 
vn 0 0 -1 
vn 0 0 -1 
vn 0 0 -1 
vn 0 0 -1 
vn 0 0 -1 
vn 0 0 -1 
vn 0 0 -1 
vn 0 0 -1 
f 328//328 329//329 330//330 
f 331//331 328//328 332//332 
f 333//333 332//332 330//330 
f 332//332 334//334 331//331 
f 330//330 332//332 328//328 
f 330//330 335//335 333//333 
o mesh425
v -0.0012975 8.5e-05 -0.006238 
v -0.0012975 -4.55761e-05 -0.00656639 
v -0.0012975 -7.82359e-05 -0.00654329 
v -0.0012975 8.5e-05 -0.0065875 
v -0.0012975 8.5e-05 -0.0059695 
v -0.0012975 -8.5e-05 -0.006238 
v -0.0012975 -8.5e-05 -0.0059695 
v -0.0012975 -6.05051e-05 -0.0065875 
v -0.0012975 -8.5e-05 -0.00655286 
vn -1 0 0 
vn -1 0 0 
vn -1 0 0 
vn -1 0 0 
vn -1 0 0 
vn -1 0 0 
vn -1 0 0 
vn -1 0 0 
vn -1 0 0 
f 336//336 337//337 338//338 
f 336//336 339//339 337//337 
f 340//340 336//336 341//341 
f 341//341 342//342 340//340 
f 339//339 343//343 337//337 
f 338//338 341//341 336//336 
f 338//338 344//344 341//341 
o mesh426
v -0.00631482 -0.0050629 -0.0136619 
v -0.0012975 -4.55761e-05 -0.00656639 
v -0.0012975 -6.05051e-05 -0.0065875 
v -0.00628018 -0.00507444 -0.0136783 
v -0.00126624 -6.05051e-05 -0.0065875 
vn 2.14693e-16 0.816497 -0.57735 
vn 2.14693e-16 0.816497 -0.57735 
vn 2.14693e-16 0.816497 -0.57735 
vn 2.14693e-16 0.816497 -0.57735 
vn 2.14693e-16 0.816497 -0.57735 
f 345//345 346//346 347//347 
f 347//347 348//348 345//345 
f 347//347 349//349 348//348 
o mesh427
v -0.00628018 -0.00507444 -0.0136783 
v -0.00126624 -6.05051e-05 -0.0065875 
v -0.00127441 -8.5e-05 -0.0065875 
v -0.00628018 -0.0051071 -0.0136552 
v -0.00125808 -8.5e-05 -0.00655286 
vn 0.866025 -0.288675 -0.408248 
vn 0.866025 -0.288675 -0.408248 
vn 0.866025 -0.288675 -0.408248 
vn 0.866025 -0.288675 -0.408248 
vn 0.866025 -0.288675 -0.408248 
f 350//350 351//351 352//352 
f 352//352 353//353 350//350 
f 352//352 354//354 353//353 
o mesh428
v -0.00628018 -0.0051071 -0.0136552 
v -0.00125808 -8.5e-05 -0.00655286 
v -0.0012975 -8.5e-05 -0.00655286 
v -0.00631482 -0.00509556 -0.0136389 
v -0.0012975 -7.82359e-05 -0.00654329 
vn 9.44651e-16 -0.816497 0.57735 
vn 9.44651e-16 -0.816497 0.57735 
vn 9.44651e-16 -0.816497 0.57735 
vn 9.44651e-16 -0.816497 0.57735 
vn 9.44651e-16 -0.816497 0.57735 
f 355//355 356//356 357//357 
f 357//357 358//358 355//355 
f 357//357 359//359 358//358 
o mesh429
v -0.0012975 -4.55761e-05 -0.00656639 
v -0.00631482 -0.0050629 -0.0136619 
v -0.00631482 -0.00509556 -0.0136389 
v -0.0012975 -7.82359e-05 -0.00654329 
vn -0.866025 0.288675 0.408248 
vn -0.866025 0.288675 0.408248 
vn -0.866025 0.288675 0.408248 
vn -0.866025 0.288675 0.408248 
f 360//360 361//361 362//362 
f 362//362 363//363 360//360 
o mesh430
v -0.00631482 -0.00509556 -0.0136389 
v -0.00631482 -0.0050629 -0.0136619 
v -0.00628018 -0.00507444 -0.0136783 
v -0.00628018 -0.0051071 -0.0136552 
vn -0.5 -0.5 -0.707107 
vn -0.5 -0.5 -0.707107 
vn -0.5 -0.5 -0.707107 
vn -0.5 -0.5 -0.707107 
f 364//364 365//365 366//366 
f 366//366 367//367 364//364 
o mesh431
v -0.000110625 -8.5e-05 -0.0052435 
v -0.000110625 -8.5e-05 -0.006238 
v 0.000110625 -8.5e-05 -0.006238 
v -0.000110625 -8.5e-05 -0.0033385 
v -8.5e-05 -8.5e-05 -0.0043135 
v 8.5e-05 -8.5e-05 -0.0043135 
v -8.5e-05 -8.5e-05 -0.0050135 
v 0.000110625 -8.5e-05 -0.0052435 
v 8.5e-05 -8.5e-05 -0.0050135 
v 0.000110625 -8.5e-05 -0.0033385 
v -0.000110625 -8.5e-05 -0.0005405 
v -8.5e-05 -8.5e-05 -0.0016635 
v 8.5e-05 -8.5e-05 -0.0016635 
v -8.5e-05 -8.5e-05 -0.0023635 
v 8.5e-05 -8.5e-05 -0.0023635 
v 0.000110625 -8.5e-05 -0.0005405 
v -0.000110625 -8.5e-05 0.0025325 
v -8.5e-05 -8.5e-05 0.0012825 
v 8.5e-05 -8.5e-05 0.0012825 
v -8.5e-05 -8.5e-05 0.0005825 
v 8.5e-05 -8.5e-05 0.0005825 
v 0.000110625 -8.5e-05 0.0025325 
v 0.000530002 -8.5e-05 -0.0061695 
v 0.000450002 -8.5e-05 -0.0056885 
v 0.0012975 -8.5e-05 -0.006238 
v 0.001114 -8.5e-05 -0.0061695 
v 0.0012975 -8.5e-05 -0.0059695 
v 0.001114 -8.5e-05 -0.0059695 
v 0.000530002 -8.5e-05 -0.0053275 
v 0.000450002 -8.5e-05 -0.0054735 
v 0.00013625 -8.5e-05 -0.0054735 
v 0.000480002 -8.5e-05 -0.0052775 
v 0.000479761 -8.5e-05 -0.0052435 
v 0.00013625 -8.5e-05 -0.0056885 
v 0.000466272 -8.5e-05 -0.0033385 
v 0.000459262 -8.5e-05 -0.0023485 
v 0.000509262 -8.5e-05 -0.0022485 
v 0.000509262 -8.5e-05 -0.0005405 
v 0.000110625 -8.5e-05 0.0065175 
v 0.000509262 -8.5e-05 0.0048025 
v 0.000509262 -8.5e-05 0.0025325 
v 0.00056 -8.5e-05 0.0067875 
v 0.000322 -8.5e-05 0.0067875 
v 0.000322 -8.5e-05 0.0065175 
v -0.000110625 -8.5e-05 0.0065175 
v -8.5e-05 -8.5e-05 0.0044825 
v 8.5e-05 -8.5e-05 0.0044825 
v -8.5e-05 -8.5e-05 0.0037825 
v 8.5e-05 -8.5e-05 0.0037825 
v -0.000322 -8.5e-05 0.0065175 
v -0.000509262 -8.5e-05 0.0048025 
v -0.00056 -8.5e-05 0.0067875 
v -0.000509262 -8.5e-05 0.0025325 
v -0.000509262 -8.5e-05 -0.0005405 
v -0.000459262 -8.5e-05 -0.0023485 
v -0.000509262 -8.5e-05 -0.0022485 
v -0.000466272 -8.5e-05 -0.0033385 
v -0.00013625 -8.5e-05 -0.0054735 
v -0.00013625 -8.5e-05 -0.0056885 
v -0.000480002 -8.5e-05 -0.0052775 
v -0.000530002 -8.5e-05 -0.0053275 
v -0.000450002 -8.5e-05 -0.0054735 
v -0.000479761 -8.5e-05 -0.0052435 
v -0.000530002 -8.5e-05 -0.0061695 
v -0.000450002 -8.5e-05 -0.0056885 
v -0.000873752 -8.5e-05 -0.006238 
v -0.0012975 -8.5e-05 -0.0059695 
v -0.0012975 -8.5e-05 -0.006238 
v -0.001114 -8.5e-05 -0.0061695 
v -0.000873752 -8.5e-05 -0.0061695 
v -0.000873752 -8.5e-05 -0.0065875 
v -0.00125808 -8.5e-05 -0.00655286 
v -0.0012975 -8.5e-05 -0.00655286 
v -0.000530002 -8.5e-05 -0.0065875 
v -0.000330002 -8.5e-05 -0.0065875 
v -0.000330002 -8.5e-05 -0.0067875 
v -0.000530002 -8.5e-05 -0.0067875 
v -0.000110625 -8.5e-05 -0.0065875 
v 0.000110625 -8.5e-05 -0.0065875 
v 0.00125808 -8.5e-05 -0.00655286 
v 0.000330002 -8.5e-05 -0.0065875 
v 0.000530002 -8.5e-05 -0.0065875 
v 0.000530002 -8.5e-05 -0.0067875 
v 0.000330002 -8.5e-05 -0.0067875 
v 0.00127441 -8.5e-05 -0.0065875 
v 0.0012975 -8.5e-05 -0.00655286 
v -0.00127441 -8.5e-05 -0.0065875 
v -0.001114 -8.5e-05 -0.0059695 
v -0.000322 -8.5e-05 0.0067875 
vn 0 -1 0 
vn 0 -1 0 
vn 0 -1 0 
vn 0 -1 0 
vn 0 -1 0 
vn 0 -1 0 
vn 0 -1 0 
vn 0 -1 0 
vn 0 -1 0 
vn 0 -1 0 
vn 0 -1 0 
vn 0 -1 0 
vn 0 -1 0 
vn 0 -1 0 
vn 0 -1 0 
vn 0 -1 0 
vn 0 -1 0 
vn 0 -1 0 
vn 0 -1 0 
vn 0 -1 0 
vn 0 -1 0 
vn 0 -1 0 
vn 0 -1 0 
vn 0 -1 0 
vn 0 -1 0 
vn 0 -1 0 
vn 0 -1 0 
vn 0 -1 0 
vn 0 -1 0 
vn 0 -1 0 
vn 0 -1 0 
vn 0 -1 0 
vn 0 -1 0 
vn 0 -1 0 
vn 0 -1 0 
vn 0 -1 0 
vn 0 -1 0 
vn 0 -1 0 
vn 0 -1 0 
vn 0 -1 0 
vn 0 -1 0 
vn 0 -1 0 
vn 0 -1 0 
vn 0 -1 0 
vn 0 -1 0 
vn 0 -1 0 
vn 0 -1 0 
vn 0 -1 0 
vn 0 -1 0 
vn 0 -1 0 
vn 0 -1 0 
vn 0 -1 0 
vn 0 -1 0 
vn 0 -1 0 
vn 0 -1 0 
vn 0 -1 0 
vn 0 -1 0 
vn 0 -1 0 
vn 0 -1 0 
vn 0 -1 0 
vn 0 -1 0 
vn 0 -1 0 
vn 0 -1 0 
vn 0 -1 0 
vn 0 -1 0 
vn 0 -1 0 
vn 0 -1 0 
vn 0 -1 0 
vn 0 -1 0 
vn 0 -1 0 
vn 0 -1 0 
vn 0 -1 0 
vn 0 -1 0 
vn 0 -1 0 
vn 0 -1 0 
vn 0 -1 0 
vn 0 -1 0 
vn 0 -1 0 
vn 0 -1 0 
vn 0 -1 0 
vn 0 -1 0 
vn 0 -1 0 
vn 0 -1 0 
vn 0 -1 0 
vn 0 -1 0 
vn 0 -1 0 
vn 0 -1 0 
vn 0 -1 0 
vn 0 -1 0 
f 368//368 369//369 370//370 
f 371//371 372//372 373//373 
f 368//368 374//374 372//372 
f 372//372 371//371 368//368 
f 368//368 375//375 376//376 
f 375//375 377//377 373//373 
f 376//376 374//374 368//368 
f 373//373 377//377 371//371 
f 378//378 379//379 380//380 
f 371//371 381//381 379//379 
f 379//379 378//378 371//371 
f 371//371 377//377 382//382 
f 377//377 383//383 380//380 
f 382//382 381//381 371//371 
f 380//380 383//383 378//378 
f 384//384 385//385 386//386 
f 378//378 387//387 385//385 
f 385//385 384//384 378//378 
f 378//378 383//383 388//388 
f 383//383 389//389 386//386 
f 388//388 387//387 378//378 
f 386//386 389//389 384//384 
f 370//370 390//390 391//391 
f 392//392 393//393 390//390 
f 390//390 370//370 392//392 
f 394//394 395//395 393//393 
f 393//393 392//392 394//394 
f 396//396 397//397 391//391 
f 375//375 398//398 399//399 
f 399//399 398//398 397//397 
f 391//391 390//390 396//396 
f 397//397 396//396 399//399 
f 399//399 400//400 375//375 
f 375//375 370//370 401//401 
f 401//401 398//398 375//375 
f 375//375 400//400 402//402 
f 383//383 403//403 404//404 
f 377//377 402//402 403//403 
f 403//403 383//383 377//377 
f 389//389 383//383 405//405 
f 406//406 389//389 407//407 
f 389//389 408//408 407//407 
f 409//409 410//410 411//411 
f 411//411 407//407 409//409 
f 412//412 413//413 414//414 
f 384//384 415//415 413//413 
f 413//413 412//412 384//384 
f 384//384 389//389 416//416 
f 389//389 406//406 414//414 
f 416//416 415//415 384//384 
f 414//414 406//406 412//412 
f 412//412 417//417 418//418 
f 419//419 418//418 417//417 
f 418//418 384//384 412//412 
f 418//418 420//420 384//384 
f 420//420 421//421 378//378 
f 371//371 378//378 422//422 
f 378//378 421//421 423//423 
f 423//423 422//422 378//378 
f 368//368 371//371 424//424 
f 368//368 425//425 426//426 
f 427//427 428//428 429//429 
f 368//368 430//430 427//427 
f 426//426 369//369 368//368 
f 427//427 425//425 368//368 
f 428//428 431//431 432//432 
f 429//429 425//425 427//427 
f 431//431 369//369 432//432 
f 433//433 369//369 431//431 
f 432//432 429//429 428//428 
f 426//426 432//432 369//369 
f 434//434 435//435 436//436 
f 433//433 437//437 436//436 
f 436//436 435//435 433//433 
f 438//438 433//433 439//439 
f 435//435 440//440 439//439 
f 439//439 433//433 435//435 
f 369//369 441//441 442//442 
f 443//443 442//442 441//441 
f 441//441 444//444 443//443 
f 433//433 438//438 441//441 
f 441//441 369//369 433//433 
f 369//369 445//445 446//446 
f 447//447 448//448 449//449 
f 450//450 449//449 448//448 
f 448//448 451//451 450//450 
f 370//370 446//446 448//448 
f 392//392 370//370 447//447 
f 448//448 447//447 370//370 
f 449//449 452//452 447//447 
f 447//447 453//453 392//392 
f 446//446 370//370 369//369 
f 442//442 445//445 369//369 
f 439//439 454//454 438//438 
f 436//436 455//455 434//434 
f 431//431 437//437 433//433 
f 424//424 430//430 368//368 
f 422//422 424//424 371//371 
f 378//378 384//384 420//420 
f 417//417 456//456 419//419 
f 414//414 416//416 389//389 
f 407//407 411//411 406//406 
f 405//405 408//408 389//389 
f 404//404 405//405 383//383 
f 402//402 377//377 375//375 
f 391//391 401//401 370//370 
f 386//386 388//388 383//383 
f 380//380 382//382 377//377 
f 373//373 376//376 375//375 
f 370//370 375//375 368//368 
o mesh432
v 0.000530002 -8.5e-05 -0.0065875 
v 0.000530002 8.5e-05 -0.0065875 
v 0.00126624 -6.05051e-05 -0.0065875 
v 0.0012975 8.5e-05 -0.0065875 
v 0.0012975 -6.05051e-05 -0.0065875 
v 0.00127441 -8.5e-05 -0.0065875 
vn 2.87206e-15 0 -1 
vn 2.87206e-15 0 -1 
vn 2.87206e-15 0 -1 
vn 2.87206e-15 0 -1 
vn 2.87206e-15 0 -1 
vn 2.87206e-15 0 -1 
f 457//457 458//458 459//459 
f 460//460 461//461 459//459 
f 459//459 458//458 460//460 
f 459//459 462//462 457//457 
o mesh433
v 0.0012975 8.5e-05 -0.006238 
v 0.0012975 -8.5e-05 -0.006238 
v 0.0012975 -7.82359e-05 -0.00654329 
v 0.0012975 -8.5e-05 -0.0059695 
v 0.0012975 -4.55761e-05 -0.00656639 
v 0.0012975 8.5e-05 -0.0065875 
v 0.0012975 8.5e-05 -0.0059695 
v 0.0012975 -8.5e-05 -0.00655286 
v 0.0012975 -6.05051e-05 -0.0065875 
vn 1 0 0 
vn 1 0 0 
vn 1 0 0 
vn 1 0 0 
vn 1 0 0 
vn 1 0 0 
vn 1 0 0 
vn 1 0 0 
vn 1 0 0 
f 463//463 464//464 465//465 
f 466//466 464//464 463//463 
f 465//465 467//467 463//463 
f 467//467 468//468 463//463 
f 463//463 469//469 466//466 
f 464//464 470//470 465//465 
f 467//467 471//471 468//468 
o mesh434
v 0.00628018 -0.0051071 -0.0136552 
v 0.00125808 -8.5e-05 -0.00655286 
v 0.00127441 -8.5e-05 -0.0065875 
v 0.00628018 -0.00507444 -0.0136783 
v 0.00126624 -6.05051e-05 -0.0065875 
vn -0.866025 -0.288675 -0.408248 
vn -0.866025 -0.288675 -0.408248 
vn -0.866025 -0.288675 -0.408248 
vn -0.866025 -0.288675 -0.408248 
vn -0.866025 -0.288675 -0.408248 
f 472//472 473//473 474//474 
f 474//474 475//475 472//472 
f 474//474 476//476 475//475 
o mesh435
v 0.00631482 -0.00509556 -0.0136389 
v 0.0012975 -7.82359e-05 -0.00654329 
v 0.0012975 -8.5e-05 -0.00655286 
v 0.00628018 -0.0051071 -0.0136552 
v 0.00125808 -8.5e-05 -0.00655286 
vn -9.44651e-16 -0.816497 0.57735 
vn -9.44651e-16 -0.816497 0.57735 
vn -9.44651e-16 -0.816497 0.57735 
vn -9.44651e-16 -0.816497 0.57735 
vn -9.44651e-16 -0.816497 0.57735 
f 477//477 478//478 479//479 
f 479//479 480//480 477//477 
f 479//479 481//481 480//480 
o mesh436
v 0.00628018 -0.00507444 -0.0136783 
v 0.00126624 -6.05051e-05 -0.0065875 
v 0.0012975 -6.05051e-05 -0.0065875 
v 0.00631482 -0.0050629 -0.0136619 
v 0.0012975 -4.55761e-05 -0.00656639 
vn -2.14693e-16 0.816497 -0.57735 
vn -2.14693e-16 0.816497 -0.57735 
vn -2.14693e-16 0.816497 -0.57735 
vn -2.14693e-16 0.816497 -0.57735 
vn -2.14693e-16 0.816497 -0.57735 
f 482//482 483//483 484//484 
f 484//484 485//485 482//482 
f 484//484 486//486 485//485 
o mesh437
v 0.00631482 -0.00509556 -0.0136389 
v 0.00631482 -0.0050629 -0.0136619 
v 0.0012975 -4.55761e-05 -0.00656639 
v 0.0012975 -7.82359e-05 -0.00654329 
vn 0.866025 0.288675 0.408248 
vn 0.866025 0.288675 0.408248 
vn 0.866025 0.288675 0.408248 
vn 0.866025 0.288675 0.408248 
f 487//487 488//488 489//489 
f 489//489 490//490 487//487 
o mesh438
v 0.00631482 -0.00509556 -0.0136389 
v 0.00628018 -0.0051071 -0.0136552 
v 0.00628018 -0.00507444 -0.0136783 
v 0.00631482 -0.0050629 -0.0136619 
vn 0.5 -0.5 -0.707107 
vn 0.5 -0.5 -0.707107 
vn 0.5 -0.5 -0.707107 
vn 0.5 -0.5 -0.707107 
f 491//491 492//492 493//493 
f 493//493 494//494 491//491 
