# OBJ generated by ONSHAPE BY PTC INC, 1.217 Units = meters
mtllib Part_5.mtl
g Part 5
usemtl 0.301961_0.301961_0.301961_0.000000_0.000000
o mesh1217
v 0.000875 -0.000277 3.25261e-19 
v 0.000875 -0.000157 3.25261e-19 
v -0.000875 -0.000157 3.25261e-19 
v -0.000875 -0.000277 3.25261e-19 
vn 1.1513e-17 0 1 
vn 1.1513e-17 0 1 
vn 1.1513e-17 0 1 
vn 1.1513e-17 0 1 
f 1//1 2//2 3//3 
f 3//3 4//4 1//1 
o mesh1218
v -0.000875 -0.000277 3.25261e-19 
v -0.000875 -0.000157 3.25261e-19 
v -0.000875 -0.000157 -0.0005 
v -0.000875 -0.000277 -0.0005 
vn -1 0 0 
vn -1 0 0 
vn -1 0 0 
vn -1 0 0 
f 5//5 6//6 7//7 
f 7//7 8//8 5//5 
o mesh1219
v -0.000875 -0.000277 -0.0005 
v -0.000875 -0.000157 -0.0005 
v -0.0005 -0.000157 -0.0005 
v -0.0005 -0.000277 -0.0005 
vn 0 0 -1 
vn 0 0 -1 
vn 0 0 -1 
vn 0 0 -1 
f 9//9 10//10 11//11 
f 11//11 12//12 9//9 
o mesh1220
v -0.0005 -0.000277 -0.0005 
v -0.0005 -0.000157 -0.0005 
v -0.0005 -0.000157 -0.0015 
v -0.0005 -0.000277 -0.0015 
vn -1 0 0 
vn -1 0 0 
vn -1 0 0 
vn -1 0 0 
f 13//13 14//14 15//15 
f 15//15 16//16 13//13 
o mesh1221
v -0.0005 -0.000277 -0.0015 
v -0.0005 -0.000157 -0.0015 
v 0 -0.000157 -0.0015 
v 0 -0.000277 -0.0015 
vn 0 0 -1 
vn 0 0 -1 
vn 0 0 -1 
vn 0 0 -1 
f 17//17 18//18 19//19 
f 19//19 20//20 17//17 
o mesh1222
v 0.000875 -0.000277 3.25261e-19 
v -0.0005 -0.000277 -0.0005 
v 0 -0.000277 -0.0005 
v 0 -0.000277 -0.0015 
v -0.0005 -0.000277 -0.0015 
v -0.000875 -0.000277 3.25261e-19 
v -0.000875 -0.000277 -0.0005 
v 0.000875 -0.000277 -0.0005 
vn 0 -1 0 
vn 0 -1 0 
vn 0 -1 0 
vn 0 -1 0 
vn 0 -1 0 
vn 0 -1 0 
vn 0 -1 0 
vn 0 -1 0 
f 21//21 22//22 23//23 
f 24//24 23//23 22//22 
f 22//22 25//25 24//24 
f 26//26 27//27 22//22 
f 22//22 21//21 26//26 
f 23//23 28//28 21//21 
o mesh1223
v -0.000875 -0.000157 3.25261e-19 
v 0 -0.000157 -0.0005 
v -0.0005 -0.000157 -0.0005 
v -0.0005 -0.000157 -0.0015 
v 0 -0.000157 -0.0015 
v 0.000875 -0.000157 3.25261e-19 
v 0.000875 -0.000157 -0.0005 
v -0.000875 -0.000157 -0.0005 
vn 0 1 0 
vn 0 1 0 
vn 0 1 0 
vn 0 1 0 
vn 0 1 0 
vn 0 1 0 
vn 0 1 0 
vn 0 1 0 
f 29//29 30//30 31//31 
f 32//32 31//31 30//30 
f 30//30 33//33 32//32 
f 34//34 35//35 30//30 
f 30//30 29//29 34//34 
f 31//31 36//36 29//29 
o mesh1224
v 0 -0.000277 -0.0015 
v 0 -0.000157 -0.0015 
v 0 -0.000157 -0.0005 
v 0 -0.000277 -0.0005 
vn 1 0 0 
vn 1 0 0 
vn 1 0 0 
vn 1 0 0 
f 37//37 38//38 39//39 
f 39//39 40//40 37//37 
o mesh1225
v 0 -0.000277 -0.0005 
v 0 -0.000157 -0.0005 
v 0.000875 -0.000157 -0.0005 
v 0.000875 -0.000277 -0.0005 
vn 0 0 -1 
vn 0 0 -1 
vn 0 0 -1 
vn 0 0 -1 
f 41//41 42//42 43//43 
f 43//43 44//44 41//41 
o mesh1226
v 0.000875 -0.000277 -0.0005 
v 0.000875 -0.000157 -0.0005 
v 0.000875 -0.000157 3.25261e-19 
v 0.000875 -0.000277 3.25261e-19 
vn 1 0 0 
vn 1 0 0 
vn 1 0 0 
vn 1 0 0 
f 45//45 46//46 47//47 
f 47//47 48//48 45//45 
