# OBJ generated by ONSHAPE BY PTC INC, 1.215 Units = meters
mtllib Part_1_5.mtl
g Part 1
usemtl 0.301961_0.301961_0.301961_0.000000_0.000000
o mesh929
v 0.00076332 -0.00125901 -8.5e-05 
v 0.000796275 -0.00124522 -8.5e-05 
v 0.000796275 -0.00124522 8.5e-05 
v 0.000730967 -0.00127416 -8.5e-05 
v 0.00076332 -0.00125901 8.5e-05 
v 0.000699272 -0.00129063 -8.5e-05 
v 0.000730967 -0.00127416 8.5e-05 
v 0.000668289 -0.00130842 -8.5e-05 
v 0.000699272 -0.00129063 8.5e-05 
v 0.000638072 -0.00132747 -8.5e-05 
v 0.000668289 -0.00130842 8.5e-05 
v 0.000608674 -0.00134777 -8.5e-05 
v 0.000638072 -0.00132747 8.5e-05 
v 0.000580145 -0.00136927 -8.5e-05 
v 0.000608674 -0.00134777 8.5e-05 
v 0.000552534 -0.00139193 -8.5e-05 
v 0.000580145 -0.00136927 8.5e-05 
v 0.00052589 -0.00141573 -8.5e-05 
v 0.000552534 -0.00139193 8.5e-05 
v 0.000500258 -0.00144061 -8.5e-05 
v 0.00052589 -0.00141573 8.5e-05 
v 0.000475683 -0.00146654 -8.5e-05 
v 0.000500258 -0.00144061 8.5e-05 
v 0.000452207 -0.00149346 -8.5e-05 
v 0.000475683 -0.00146654 8.5e-05 
v 0.00042987 -0.00152134 -8.5e-05 
v 0.000452207 -0.00149346 8.5e-05 
v 0.000408712 -0.00155013 -8.5e-05 
v 0.00042987 -0.00152134 8.5e-05 
v 0.000408712 -0.00155013 8.5e-05 
vn 0.405082 -0.91428 0 
vn 0.366721 -0.930331 0 
vn 0.366721 -0.930331 0 
vn 0.442744 -0.896648 0 
vn 0.405082 -0.91428 0 
vn 0.47964 -0.877466 0 
vn 0.442744 -0.896648 0 
vn 0.515706 -0.856766 0 
vn 0.47964 -0.877466 0 
vn 0.55088 -0.834584 0 
vn 0.515706 -0.856766 0 
vn 0.585102 -0.810959 0 
vn 0.55088 -0.834584 0 
vn 0.618312 -0.785932 0 
vn 0.585102 -0.810959 0 
vn 0.650453 -0.759546 0 
vn 0.618312 -0.785932 0 
vn 0.681469 -0.731847 0 
vn 0.650453 -0.759546 0 
vn 0.711307 -0.702881 0 
vn 0.681469 -0.731847 0 
vn 0.739915 -0.672701 0 
vn 0.711307 -0.702881 0 
vn 0.767243 -0.641357 0 
vn 0.739915 -0.672701 0 
vn 0.793244 -0.608904 0 
vn 0.767243 -0.641357 0 
vn 0.817874 -0.575398 0 
vn 0.793244 -0.608904 0 
vn 0.817874 -0.575398 0 
f 1//1 2//2 3//3 
f 4//4 1//1 5//5 
f 6//6 4//4 7//7 
f 8//8 6//6 9//9 
f 10//10 8//8 11//11 
f 12//12 10//10 13//13 
f 14//14 12//12 15//15 
f 16//16 14//14 17//17 
f 18//18 16//16 19//19 
f 20//20 18//18 21//21 
f 22//22 20//20 23//23 
f 24//24 22//22 25//25 
f 26//26 24//24 27//27 
f 28//28 26//26 29//29 
f 29//29 30//30 28//28 
f 27//27 29//29 26//26 
f 25//25 27//27 24//24 
f 23//23 25//25 22//22 
f 21//21 23//23 20//20 
f 19//19 21//21 18//18 
f 17//17 19//19 16//16 
f 15//15 17//17 14//14 
f 13//13 15//15 12//12 
f 11//11 13//13 10//10 
f 9//9 11//11 8//8 
f 7//7 9//9 6//6 
f 5//5 7//7 4//4 
f 3//3 5//5 1//1 
o mesh930
v 0.00125816 -0.000665 -8.5e-05 
v 0.00125816 -0.000665 8.5e-05 
v 0.00125232 -0.000696758 8.5e-05 
v 0.00125232 -0.000696758 -8.5e-05 
v 0.00124514 -0.000728239 8.5e-05 
v 0.00124514 -0.000728239 -8.5e-05 
v 0.00123662 -0.000759384 8.5e-05 
v 0.00123662 -0.000759384 -8.5e-05 
v 0.00122677 -0.000790138 8.5e-05 
v 0.00122677 -0.000790138 -8.5e-05 
v 0.00121563 -0.000820444 8.5e-05 
v 0.00121563 -0.000820444 -8.5e-05 
v 0.0012032 -0.000850247 8.5e-05 
v 0.0012032 -0.000850247 -8.5e-05 
v 0.00118951 -0.000879493 8.5e-05 
v 0.00118951 -0.000879493 -8.5e-05 
v 0.00117459 -0.000908128 8.5e-05 
v 0.00117459 -0.000908128 -8.5e-05 
v 0.00115846 -0.000936102 8.5e-05 
v 0.00115846 -0.000936102 -8.5e-05 
v 0.00114116 -0.000963362 8.5e-05 
v 0.00114116 -0.000963362 -8.5e-05 
v 0.0011227 -0.000989859 8.5e-05 
v 0.0011227 -0.000989859 -8.5e-05 
v 0.00110314 -0.00101555 8.5e-05 
v 0.00110314 -0.00101555 -8.5e-05 
v 0.00108249 -0.00104037 8.5e-05 
v 0.00108249 -0.00104037 -8.5e-05 
v 0.00106081 -0.0010643 8.5e-05 
v 0.00106081 -0.0010643 -8.5e-05 
v 0.00103812 -0.00108728 8.5e-05 
v 0.00103812 -0.00108728 -8.5e-05 
v 0.00101448 -0.00110927 8.5e-05 
v 0.00101448 -0.00110927 -8.5e-05 
v 0.000989915 -0.00113023 8.5e-05 
v 0.000989915 -0.00113023 -8.5e-05 
v 0.000964482 -0.00115013 8.5e-05 
v 0.000964482 -0.00115013 -8.5e-05 
v 0.000938224 -0.00116892 8.5e-05 
v 0.000938224 -0.00116892 -8.5e-05 
v 0.000911189 -0.00118657 8.5e-05 
v 0.000911189 -0.00118657 -8.5e-05 
v 0.000883425 -0.00120306 8.5e-05 
v 0.000883425 -0.00120306 -8.5e-05 
v 0.000854983 -0.00121835 8.5e-05 
v 0.000854983 -0.00121835 -8.5e-05 
v 0.000825916 -0.00123241 8.5e-05 
v 0.000825916 -0.00123241 -8.5e-05 
v 0.000796275 -0.00124522 8.5e-05 
v 0.000796275 -0.00124522 -8.5e-05 
vn 0.987159 -0.159744 0 
vn 0.987159 -0.159744 0 
vn 0.979448 -0.201696 0 
vn 0.979448 -0.201696 0 
vn 0.969956 -0.243281 0 
vn 0.969956 -0.243281 0 
vn 0.958699 -0.284424 0 
vn 0.958699 -0.284424 0 
vn 0.945697 -0.325049 0 
vn 0.945697 -0.325049 0 
vn 0.930975 -0.365083 0 
vn 0.930975 -0.365083 0 
vn 0.914559 -0.404452 0 
vn 0.914559 -0.404452 0 
vn 0.896479 -0.443086 0 
vn 0.896479 -0.443086 0 
vn 0.876768 -0.480913 0 
vn 0.876768 -0.480913 0 
vn 0.855462 -0.517866 0 
vn 0.855462 -0.517866 0 
vn 0.832599 -0.553876 0 
vn 0.832599 -0.553876 0 
vn 0.808222 -0.588879 0 
vn 0.808222 -0.588879 0 
vn 0.782373 -0.62281 0 
vn 0.782373 -0.62281 0 
vn 0.755102 -0.655608 0 
vn 0.755102 -0.655608 0 
vn 0.726456 -0.687213 0 
vn 0.726456 -0.687213 0 
vn 0.696489 -0.717567 0 
vn 0.696489 -0.717567 0 
vn 0.665255 -0.746616 0 
vn 0.665255 -0.746616 0 
vn 0.63281 -0.774307 0 
vn 0.63281 -0.774307 0 
vn 0.599214 -0.800589 0 
vn 0.599214 -0.800589 0 
vn 0.564527 -0.825414 0 
vn 0.564527 -0.825414 0 
vn 0.528814 -0.848738 0 
vn 0.528814 -0.848738 0 
vn 0.492138 -0.870517 0 
vn 0.492138 -0.870517 0 
vn 0.454567 -0.890712 0 
vn 0.454567 -0.890712 0 
vn 0.416169 -0.909287 0 
vn 0.416169 -0.909287 0 
vn 0.377014 -0.926208 0 
vn 0.377014 -0.926208 0 
f 31//31 32//32 33//33 
f 34//34 33//33 35//35 
f 36//36 35//35 37//37 
f 38//38 37//37 39//39 
f 40//40 39//39 41//41 
f 42//42 41//41 43//43 
f 44//44 43//43 45//45 
f 46//46 45//45 47//47 
f 48//48 47//47 49//49 
f 50//50 49//49 51//51 
f 52//52 51//51 53//53 
f 54//54 53//53 55//55 
f 56//56 55//55 57//57 
f 58//58 57//57 59//59 
f 60//60 59//59 61//61 
f 62//62 61//61 63//63 
f 64//64 63//63 65//65 
f 66//66 65//65 67//67 
f 68//68 67//67 69//69 
f 70//70 69//69 71//71 
f 72//72 71//71 73//73 
f 74//74 73//73 75//75 
f 76//76 75//75 77//77 
f 78//78 77//77 79//79 
f 79//79 80//80 78//78 
f 77//77 78//78 76//76 
f 75//75 76//76 74//74 
f 73//73 74//74 72//72 
f 71//71 72//72 70//70 
f 69//69 70//70 68//68 
f 67//67 68//68 66//66 
f 65//65 66//66 64//64 
f 63//63 64//64 62//62 
f 61//61 62//62 60//60 
f 59//59 60//60 58//58 
f 57//57 58//58 56//56 
f 55//55 56//56 54//54 
f 53//53 54//54 52//52 
f 51//51 52//52 50//50 
f 49//49 50//50 48//48 
f 47//47 48//48 46//46 
f 45//45 46//46 44//44 
f 43//43 44//44 42//42 
f 41//41 42//42 40//40 
f 39//39 40//40 38//38 
f 37//37 38//38 36//36 
f 35//35 36//36 34//34 
f 33//33 34//34 31//31 
o mesh931
v 0.000754626 0.00141165 -8.5e-05 
v 0.000754626 0.00141165 8.5e-05 
v 0.000827725 0.00128667 8.5e-05 
v 0.000827725 0.00128667 -8.5e-05 
v 0.00089556 0.00115876 8.5e-05 
v 0.000958014 0.00102814 -8.5e-05 
v 0.0009123 0.00112375 -8.5e-05 
v 0.0009123 0.00112375 8.5e-05 
v 0.00089556 0.00115876 -8.5e-05 
v 0.00101498 0.000895031 -8.5e-05 
v 0.00100697 0.00091375 -8.5e-05 
v 0.00100697 0.00091375 8.5e-05 
v 0.000958014 0.00102814 8.5e-05 
v 0.00106635 0.000759668 -8.5e-05 
v 0.00106117 0.000773317 -8.5e-05 
v 0.00106117 0.000773317 8.5e-05 
v 0.00101498 0.000895031 8.5e-05 
v 0.00106635 0.000759668 8.5e-05 
v 0.00111205 0.000622285 8.5e-05 
v 0.00111205 0.000622285 -8.5e-05 
v 0.001152 0.000483119 8.5e-05 
v 0.001152 0.000483119 -8.5e-05 
v 0.00118612 0.000342412 8.5e-05 
v 0.00118612 0.000342412 -8.5e-05 
v 0.00121435 0.000200407 8.5e-05 
v 0.00121435 0.000200407 -8.5e-05 
v 0.00123665 5.73496e-05 8.5e-05 
v 0.00123665 5.73496e-05 -8.5e-05 
v 0.00125298 -8.65114e-05 8.5e-05 
v 0.00126331 -0.000230927 -8.5e-05 
v 0.00126065 -0.00019375 -8.5e-05 
v 0.00126065 -0.00019375 8.5e-05 
v 0.00125298 -8.65114e-05 -8.5e-05 
v 0.00126331 -0.000230927 8.5e-05 
v 0.00126761 -0.000375648 8.5e-05 
v 0.00126761 -0.000375648 -8.5e-05 
v 0.0012659 -0.000520422 8.5e-05 
v 0.00125816 -0.000665 -8.5e-05 
v 0.00126545 -0.00052875 -8.5e-05 
v 0.00126545 -0.00052875 8.5e-05 
v 0.0012659 -0.000520422 -8.5e-05 
v 0.00125816 -0.000665 8.5e-05 
vn 0.852497 0.522732 0 
vn 0.852497 0.522732 0 
vn 0.87351 0.486807 0 
vn 0.87351 0.486807 0 
vn 0.89301 0.450038 0 
vn 0.910962 0.412489 0 
vn 0.897974 0.440048 0 
vn 0.897974 0.440048 0 
vn 0.89301 0.450038 0 
vn 0.927337 0.374226 0 
vn 0.925131 0.379647 0 
vn 0.925131 0.379647 0 
vn 0.910962 0.412489 0 
vn 0.942106 0.335315 0 
vn 0.940691 0.339265 0 
vn 0.940691 0.339265 0 
vn 0.927337 0.374226 0 
vn 0.942106 0.335315 0 
vn 0.955243 0.295823 0 
vn 0.955243 0.295823 0 
vn 0.966725 0.255819 0 
vn 0.966725 0.255819 0 
vn 0.976532 0.215371 0 
vn 0.976532 0.215371 0 
vn 0.984648 0.17455 0 
vn 0.984648 0.17455 0 
vn 0.991059 0.133428 0 
vn 0.991059 0.133428 0 
vn 0.995752 0.0920734 0 
vn 0.998721 0.0505598 0 
vn 0.998122 0.0612569 0 
vn 0.998122 0.0612569 0 
vn 0.995752 0.0920734 0 
vn 0.998721 0.0505598 0 
vn 0.99996 0.00895869 0 
vn 0.99996 0.00895869 0 
vn 0.999467 -0.032658 0 
vn 0.997242 -0.0742181 0 
vn 0.999385 -0.0350535 0 
vn 0.999385 -0.0350535 0 
vn 0.999467 -0.032658 0 
vn 0.997242 -0.0742181 0 
f 81//81 82//82 83//83 
f 84//84 83//83 85//85 
f 86//86 87//87 88//88 
f 85//85 88//88 87//87 
f 87//87 89//89 85//85 
f 90//90 91//91 92//92 
f 93//93 92//92 91//91 
f 91//91 86//86 93//93 
f 94//94 95//95 96//96 
f 97//97 96//96 95//95 
f 95//95 90//90 97//97 
f 94//94 98//98 99//99 
f 100//100 99//99 101//101 
f 102//102 101//101 103//103 
f 104//104 103//103 105//105 
f 106//106 105//105 107//107 
f 108//108 107//107 109//109 
f 110//110 111//111 112//112 
f 109//109 112//112 111//111 
f 111//111 113//113 109//109 
f 110//110 114//114 115//115 
f 116//116 115//115 117//117 
f 118//118 119//119 120//120 
f 117//117 120//120 119//119 
f 119//119 121//121 117//117 
f 120//120 122//122 118//118 
f 117//117 121//121 116//116 
f 115//115 116//116 110//110 
f 112//112 114//114 110//110 
f 109//109 113//113 108//108 
f 107//107 108//108 106//106 
f 105//105 106//106 104//104 
f 103//103 104//104 102//102 
f 101//101 102//102 100//100 
f 99//99 100//100 94//94 
f 96//96 98//98 94//94 
f 92//92 97//97 90//90 
f 88//88 93//93 86//86 
f 85//85 89//89 84//84 
f 83//83 84//84 81//81 
o mesh932
v -0.000754626 0.00141165 -8.5e-05 
v -0.000754626 0.00141165 8.5e-05 
v -0.000734535 0.00144367 8.5e-05 
v -0.000734535 0.00144367 -8.5e-05 
v -0.000713085 0.00147479 8.5e-05 
v -0.000690318 0.00150497 -8.5e-05 
v -0.00071 0.00147888 -8.5e-05 
v -0.00071 0.00147888 8.5e-05 
v -0.000713085 0.00147479 -8.5e-05 
v -0.000690318 0.00150497 8.5e-05 
v -0.000666275 0.00153414 8.5e-05 
v -0.000666275 0.00153414 -8.5e-05 
v -0.000641 0.00156224 8.5e-05 
v -0.000641 0.00156224 -8.5e-05 
v -0.00061454 0.00158924 8.5e-05 
v -0.00061454 0.00158924 -8.5e-05 
v -0.000586944 0.00161507 8.5e-05 
v -0.000586944 0.00161507 -8.5e-05 
v -0.000558264 0.0016397 8.5e-05 
v -0.000558264 0.0016397 -8.5e-05 
v -0.000528552 0.00166306 8.5e-05 
v -0.000528552 0.00166306 -8.5e-05 
v -0.000497862 0.00168513 8.5e-05 
v -0.000497862 0.00168513 -8.5e-05 
v -0.000466253 0.00170586 8.5e-05 
v -0.000466253 0.00170586 -8.5e-05 
v -0.000433781 0.00172522 8.5e-05 
v -0.000433781 0.00172522 -8.5e-05 
v -0.000400508 0.00174315 8.5e-05 
v -0.000400508 0.00174315 -8.5e-05 
v -0.000366495 0.00175965 8.5e-05 
v -0.000331804 0.00177466 -8.5e-05 
v -0.000355 0.00176462 -8.5e-05 
v -0.000355 0.00176462 8.5e-05 
v -0.000366495 0.00175965 -8.5e-05 
v -0.000331804 0.00177466 8.5e-05 
v -0.0002965 0.00178817 8.5e-05 
v -0.0002965 0.00178817 -8.5e-05 
v -0.000260648 0.00180015 8.5e-05 
v -0.000260648 0.00180015 -8.5e-05 
v -0.000224314 0.00181058 8.5e-05 
v -0.000187565 0.00181943 -8.5e-05 
v -0.0002035 0.00181559 -8.5e-05 
v -0.0002035 0.00181559 8.5e-05 
v -0.000224314 0.00181058 -8.5e-05 
v -0.000187565 0.00181943 8.5e-05 
v -0.00015047 0.0018267 8.5e-05 
v -0.00015047 0.0018267 -8.5e-05 
v -0.000113096 0.00183237 8.5e-05 
v -0.000113096 0.00183237 -8.5e-05 
v -7.55139e-05 0.00183642 8.5e-05 
v -7.55139e-05 0.00183642 -8.5e-05 
v -3.77919e-05 0.00183886 8.5e-05 
v -3.77919e-05 0.00183886 -8.5e-05 
v 1.21533e-18 0.00183967 8.5e-05 
v 1.21533e-18 0.00183967 -8.5e-05 
v 3.77919e-05 0.00183886 8.5e-05 
v 3.77919e-05 0.00183886 -8.5e-05 
v 7.55139e-05 0.00183642 8.5e-05 
v 7.55139e-05 0.00183642 -8.5e-05 
v 0.000113096 0.00183237 8.5e-05 
v 0.000113096 0.00183237 -8.5e-05 
v 0.00015047 0.0018267 8.5e-05 
v 0.00015047 0.0018267 -8.5e-05 
v 0.000187565 0.00181943 8.5e-05 
v 0.000224314 0.00181058 -8.5e-05 
v 0.0002035 0.00181559 -8.5e-05 
v 0.0002035 0.00181559 8.5e-05 
v 0.000187565 0.00181943 -8.5e-05 
v 0.000224314 0.00181058 8.5e-05 
v 0.000260648 0.00180015 8.5e-05 
v 0.000260648 0.00180015 -8.5e-05 
v 0.0002965 0.00178817 8.5e-05 
v 0.0002965 0.00178817 -8.5e-05 
v 0.000331804 0.00177466 8.5e-05 
v 0.000366495 0.00175965 -8.5e-05 
v 0.000355 0.00176462 -8.5e-05 
v 0.000355 0.00176462 8.5e-05 
v 0.000331804 0.00177466 -8.5e-05 
v 0.000366495 0.00175965 8.5e-05 
v 0.000400508 0.00174315 8.5e-05 
v 0.000400508 0.00174315 -8.5e-05 
v 0.000433781 0.00172522 8.5e-05 
v 0.000433781 0.00172522 -8.5e-05 
v 0.000466253 0.00170586 8.5e-05 
v 0.000466253 0.00170586 -8.5e-05 
v 0.000497862 0.00168513 8.5e-05 
v 0.000497862 0.00168513 -8.5e-05 
v 0.000528552 0.00166306 8.5e-05 
v 0.000528552 0.00166306 -8.5e-05 
v 0.000558264 0.0016397 8.5e-05 
v 0.000558264 0.0016397 -8.5e-05 
v 0.000586944 0.00161507 8.5e-05 
v 0.000586944 0.00161507 -8.5e-05 
v 0.00061454 0.00158924 8.5e-05 
v 0.00061454 0.00158924 -8.5e-05 
v 0.000641 0.00156224 8.5e-05 
v 0.000641 0.00156224 -8.5e-05 
v 0.000666275 0.00153414 8.5e-05 
v 0.000666275 0.00153414 -8.5e-05 
v 0.000690318 0.00150497 8.5e-05 
v 0.000690318 0.00150497 -8.5e-05 
v 0.000713085 0.00147479 8.5e-05 
v 0.000713085 0.00147479 -8.5e-05 
v 0.000734535 0.00144367 8.5e-05 
v 0.000734535 0.00144367 -8.5e-05 
v 0.000754626 0.00141165 8.5e-05 
v 0.000754626 0.00141165 -8.5e-05 
vn -0.858278 0.513186 0 
vn -0.858278 0.513186 0 
vn -0.835426 0.549602 0 
vn -0.835426 0.549602 0 
vn -0.811031 0.585003 0 
vn -0.785136 0.619323 0 
vn -0.807609 0.589718 0 
vn -0.807609 0.589718 0 
vn -0.811031 0.585003 0 
vn -0.785136 0.619323 0 
vn -0.75779 0.652498 0 
vn -0.75779 0.652498 0 
vn -0.729044 0.684467 0 
vn -0.729044 0.684467 0 
vn -0.69895 0.715171 0 
vn -0.69895 0.715171 0 
vn -0.667564 0.744552 0 
vn -0.667564 0.744552 0 
vn -0.634944 0.772558 0 
vn -0.634944 0.772558 0 
vn -0.601151 0.799136 0 
vn -0.601151 0.799136 0 
vn -0.566246 0.824236 0 
vn -0.566246 0.824236 0 
vn -0.530295 0.847813 0 
vn -0.530295 0.847813 0 
vn -0.493363 0.869823 0 
vn -0.493363 0.869823 0 
vn -0.45552 0.890226 0 
vn -0.45552 0.890226 0 
vn -0.416834 0.908982 0 
vn -0.377379 0.926059 0 
vn -0.403844 0.914828 0 
vn -0.403844 0.914828 0 
vn -0.416834 0.908982 0 
vn -0.377379 0.926059 0 
vn -0.337225 0.941424 0 
vn -0.337225 0.941424 0 
vn -0.296449 0.955049 0 
vn -0.296449 0.955049 0 
vn -0.255124 0.966908 0 
vn -0.213328 0.976981 0 
vn -0.231504 0.972834 0 
vn -0.231504 0.972834 0 
vn -0.255124 0.966908 0 
vn -0.213328 0.976981 0 
vn -0.171137 0.985247 0 
vn -0.171137 0.985247 0 
vn -0.128631 0.991693 0 
vn -0.128631 0.991693 0 
vn -0.0858861 0.996305 0 
vn -0.0858861 0.996305 0 
vn -0.0429828 0.999076 0 
vn -0.0429828 0.999076 0 
vn 1.93717e-15 1 0 
vn 1.93717e-15 1 0 
vn 0.0429828 0.999076 0 
vn 0.0429828 0.999076 0 
vn 0.0858861 0.996305 0 
vn 0.0858861 0.996305 0 
vn 0.128631 0.991693 0 
vn 0.128631 0.991693 0 
vn 0.171137 0.985247 0 
vn 0.171137 0.985247 0 
vn 0.213328 0.976981 0 
vn 0.255124 0.966908 0 
vn 0.231504 0.972834 0 
vn 0.231504 0.972834 0 
vn 0.213328 0.976981 0 
vn 0.255124 0.966908 0 
vn 0.296449 0.955049 0 
vn 0.296449 0.955049 0 
vn 0.337225 0.941424 0 
vn 0.337225 0.941424 0 
vn 0.377379 0.926059 0 
vn 0.416834 0.908982 0 
vn 0.403844 0.914828 0 
vn 0.403844 0.914828 0 
vn 0.377379 0.926059 0 
vn 0.416834 0.908982 0 
vn 0.45552 0.890226 0 
vn 0.45552 0.890226 0 
vn 0.493363 0.869823 0 
vn 0.493363 0.869823 0 
vn 0.530295 0.847813 0 
vn 0.530295 0.847813 0 
vn 0.566246 0.824236 0 
vn 0.566246 0.824236 0 
vn 0.601151 0.799136 0 
vn 0.601151 0.799136 0 
vn 0.634944 0.772558 0 
vn 0.634944 0.772558 0 
vn 0.667564 0.744552 0 
vn 0.667564 0.744552 0 
vn 0.69895 0.715171 0 
vn 0.69895 0.715171 0 
vn 0.729044 0.684467 0 
vn 0.729044 0.684467 0 
vn 0.75779 0.652498 0 
vn 0.75779 0.652498 0 
vn 0.785136 0.619323 0 
vn 0.785136 0.619323 0 
vn 0.811031 0.585003 0 
vn 0.811031 0.585003 0 
vn 0.835426 0.549602 0 
vn 0.835426 0.549602 0 
vn 0.858278 0.513186 0 
vn 0.858278 0.513186 0 
f 123//123 124//124 125//125 
f 126//126 125//125 127//127 
f 128//128 129//129 130//130 
f 127//127 130//130 129//129 
f 129//129 131//131 127//127 
f 128//128 132//132 133//133 
f 134//134 133//133 135//135 
f 136//136 135//135 137//137 
f 138//138 137//137 139//139 
f 140//140 139//139 141//141 
f 142//142 141//141 143//143 
f 144//144 143//143 145//145 
f 146//146 145//145 147//147 
f 148//148 147//147 149//149 
f 150//150 149//149 151//151 
f 152//152 151//151 153//153 
f 154//154 155//155 156//156 
f 153//153 156//156 155//155 
f 155//155 157//157 153//153 
f 154//154 158//158 159//159 
f 160//160 159//159 161//161 
f 162//162 161//161 163//163 
f 164//164 165//165 166//166 
f 163//163 166//166 165//165 
f 165//165 167//167 163//163 
f 164//164 168//168 169//169 
f 170//170 169//169 171//171 
f 172//172 171//171 173//173 
f 174//174 173//173 175//175 
f 176//176 175//175 177//177 
f 178//178 177//177 179//179 
f 180//180 179//179 181//181 
f 182//182 181//181 183//183 
f 184//184 183//183 185//185 
f 186//186 185//185 187//187 
f 188//188 189//189 190//190 
f 187//187 190//190 189//189 
f 189//189 191//191 187//187 
f 188//188 192//192 193//193 
f 194//194 193//193 195//195 
f 196//196 195//195 197//197 
f 198//198 199//199 200//200 
f 197//197 200//200 199//199 
f 199//199 201//201 197//197 
f 198//198 202//202 203//203 
f 204//204 203//203 205//205 
f 206//206 205//205 207//207 
f 208//208 207//207 209//209 
f 210//210 209//209 211//211 
f 212//212 211//211 213//213 
f 214//214 213//213 215//215 
f 216//216 215//215 217//217 
f 218//218 217//217 219//219 
f 220//220 219//219 221//221 
f 222//222 221//221 223//223 
f 224//224 223//223 225//225 
f 226//226 225//225 227//227 
f 228//228 227//227 229//229 
f 229//229 230//230 228//228 
f 227//227 228//228 226//226 
f 225//225 226//226 224//224 
f 223//223 224//224 222//222 
f 221//221 222//222 220//220 
f 219//219 220//220 218//218 
f 217//217 218//218 216//216 
f 215//215 216//216 214//214 
f 213//213 214//214 212//212 
f 211//211 212//212 210//210 
f 209//209 210//210 208//208 
f 207//207 208//208 206//206 
f 205//205 206//206 204//204 
f 203//203 204//204 198//198 
f 200//200 202//202 198//198 
f 197//197 201//201 196//196 
f 195//195 196//196 194//194 
f 193//193 194//194 188//188 
f 190//190 192//192 188//188 
f 187//187 191//191 186//186 
f 185//185 186//186 184//184 
f 183//183 184//184 182//182 
f 181//181 182//182 180//180 
f 179//179 180//180 178//178 
f 177//177 178//178 176//176 
f 175//175 176//176 174//174 
f 173//173 174//174 172//172 
f 171//171 172//172 170//170 
f 169//169 170//170 164//164 
f 166//166 168//168 164//164 
f 163//163 167//167 162//162 
f 161//161 162//162 160//160 
f 159//159 160//160 154//154 
f 156//156 158//158 154//154 
f 153//153 157//157 152//152 
f 151//151 152//152 150//150 
f 149//149 150//150 148//148 
f 147//147 148//148 146//146 
f 145//145 146//146 144//144 
f 143//143 144//144 142//142 
f 141//141 142//142 140//140 
f 139//139 140//140 138//138 
f 137//137 138//138 136//136 
f 135//135 136//136 134//134 
f 133//133 134//134 128//128 
f 130//130 132//132 128//128 
f 127//127 131//131 126//126 
f 125//125 126//126 123//123 
o mesh933
v -0.0012659 -0.000520422 -8.5e-05 
v -0.00126545 -0.00052875 -8.5e-05 
v -0.00126545 -0.00052875 8.5e-05 
v -0.00125816 -0.000665 8.5e-05 
v -0.00125816 -0.000665 -8.5e-05 
v -0.0012659 -0.000520422 8.5e-05 
v -0.00126761 -0.000375648 8.5e-05 
v -0.00126761 -0.000375648 -8.5e-05 
v -0.00126331 -0.000230927 8.5e-05 
v -0.00125298 -8.65114e-05 -8.5e-05 
v -0.00126065 -0.00019375 -8.5e-05 
v -0.00126065 -0.00019375 8.5e-05 
v -0.00126331 -0.000230927 -8.5e-05 
v -0.00125298 -8.65114e-05 8.5e-05 
v -0.00123665 5.73496e-05 8.5e-05 
v -0.00123665 5.73496e-05 -8.5e-05 
v -0.00121435 0.000200407 8.5e-05 
v -0.00121435 0.000200407 -8.5e-05 
v -0.00118612 0.000342412 8.5e-05 
v -0.00118612 0.000342412 -8.5e-05 
v -0.001152 0.000483119 8.5e-05 
v -0.001152 0.000483119 -8.5e-05 
v -0.00111205 0.000622285 8.5e-05 
v -0.00111205 0.000622285 -8.5e-05 
v -0.00106635 0.000759668 8.5e-05 
v -0.00101498 0.000895031 -8.5e-05 
v -0.00106117 0.000773317 -8.5e-05 
v -0.00106117 0.000773317 8.5e-05 
v -0.00106635 0.000759668 -8.5e-05 
v -0.00101498 0.000895031 8.5e-05 
v -0.000958014 0.00102814 8.5e-05 
v -0.00089556 0.00115876 -8.5e-05 
v -0.0009123 0.00112375 -8.5e-05 
v -0.0009123 0.00112375 8.5e-05 
v -0.000958014 0.00102814 -8.5e-05 
v -0.00089556 0.00115876 8.5e-05 
v -0.000827725 0.00128667 8.5e-05 
v -0.000827725 0.00128667 -8.5e-05 
v -0.000754626 0.00141165 8.5e-05 
v -0.000754626 0.00141165 -8.5e-05 
vn -0.999467 -0.032658 0 
vn -0.999385 -0.0350535 0 
vn -0.999385 -0.0350535 0 
vn -0.997242 -0.0742181 0 
vn -0.997242 -0.0742181 0 
vn -0.999467 -0.032658 0 
vn -0.99996 0.00895869 0 
vn -0.99996 0.00895869 0 
vn -0.998721 0.0505598 0 
vn -0.995752 0.0920734 0 
vn -0.998122 0.0612569 0 
vn -0.998122 0.0612569 0 
vn -0.998721 0.0505598 0 
vn -0.995752 0.0920734 0 
vn -0.991059 0.133428 0 
vn -0.991059 0.133428 0 
vn -0.984648 0.17455 0 
vn -0.984648 0.17455 0 
vn -0.976532 0.215371 0 
vn -0.976532 0.215371 0 
vn -0.966725 0.255819 0 
vn -0.966725 0.255819 0 
vn -0.955243 0.295823 0 
vn -0.955243 0.295823 0 
vn -0.942106 0.335315 0 
vn -0.927337 0.374226 0 
vn -0.940691 0.339265 0 
vn -0.940691 0.339265 0 
vn -0.942106 0.335315 0 
vn -0.927337 0.374226 0 
vn -0.910962 0.412489 0 
vn -0.89301 0.450038 0 
vn -0.897974 0.440048 0 
vn -0.897974 0.440048 0 
vn -0.910962 0.412489 0 
vn -0.89301 0.450038 0 
vn -0.87351 0.486807 0 
vn -0.87351 0.486807 0 
vn -0.852497 0.522732 0 
vn -0.852497 0.522732 0 
f 231//231 232//232 233//233 
f 234//234 233//233 232//232 
f 232//232 235//235 234//234 
f 231//231 236//236 237//237 
f 238//238 237//237 239//239 
f 240//240 241//241 242//242 
f 239//239 242//242 241//241 
f 241//241 243//243 239//239 
f 240//240 244//244 245//245 
f 246//246 245//245 247//247 
f 248//248 247//247 249//249 
f 250//250 249//249 251//251 
f 252//252 251//251 253//253 
f 254//254 253//253 255//255 
f 256//256 257//257 258//258 
f 255//255 258//258 257//257 
f 257//257 259//259 255//255 
f 256//256 260//260 261//261 
f 262//262 263//263 264//264 
f 261//261 264//264 263//263 
f 263//263 265//265 261//261 
f 262//262 266//266 267//267 
f 268//268 267//267 269//269 
f 269//269 270//270 268//268 
f 267//267 268//268 262//262 
f 264//264 266//266 262//262 
f 261//261 265//265 256//256 
f 258//258 260//260 256//256 
f 255//255 259//259 254//254 
f 253//253 254//254 252//252 
f 251//251 252//252 250//250 
f 249//249 250//250 248//248 
f 247//247 248//248 246//246 
f 245//245 246//246 240//240 
f 242//242 244//244 240//240 
f 239//239 243//243 238//238 
f 237//237 238//238 231//231 
f 233//233 236//236 231//231 
o mesh934
v -0.000796275 -0.00124522 -8.5e-05 
v -0.000796275 -0.00124522 8.5e-05 
v -0.000825916 -0.00123241 8.5e-05 
v -0.000825916 -0.00123241 -8.5e-05 
v -0.000854983 -0.00121835 8.5e-05 
v -0.000854983 -0.00121835 -8.5e-05 
v -0.000883425 -0.00120306 8.5e-05 
v -0.000883425 -0.00120306 -8.5e-05 
v -0.000911189 -0.00118657 8.5e-05 
v -0.000911189 -0.00118657 -8.5e-05 
v -0.000938224 -0.00116892 8.5e-05 
v -0.000938224 -0.00116892 -8.5e-05 
v -0.000964482 -0.00115013 8.5e-05 
v -0.000964482 -0.00115013 -8.5e-05 
v -0.000989915 -0.00113023 8.5e-05 
v -0.000989915 -0.00113023 -8.5e-05 
v -0.00101448 -0.00110927 8.5e-05 
v -0.00101448 -0.00110927 -8.5e-05 
v -0.00103812 -0.00108728 8.5e-05 
v -0.00103812 -0.00108728 -8.5e-05 
v -0.00106081 -0.0010643 8.5e-05 
v -0.00106081 -0.0010643 -8.5e-05 
v -0.00108249 -0.00104037 8.5e-05 
v -0.00108249 -0.00104037 -8.5e-05 
v -0.00110314 -0.00101555 8.5e-05 
v -0.00110314 -0.00101555 -8.5e-05 
v -0.0011227 -0.000989859 8.5e-05 
v -0.0011227 -0.000989859 -8.5e-05 
v -0.00114116 -0.000963362 8.5e-05 
v -0.00114116 -0.000963362 -8.5e-05 
v -0.00115846 -0.000936102 8.5e-05 
v -0.00115846 -0.000936102 -8.5e-05 
v -0.00117459 -0.000908128 8.5e-05 
v -0.00117459 -0.000908128 -8.5e-05 
v -0.00118951 -0.000879493 8.5e-05 
v -0.00118951 -0.000879493 -8.5e-05 
v -0.0012032 -0.000850247 8.5e-05 
v -0.0012032 -0.000850247 -8.5e-05 
v -0.00121563 -0.000820444 8.5e-05 
v -0.00121563 -0.000820444 -8.5e-05 
v -0.00122677 -0.000790138 8.5e-05 
v -0.00122677 -0.000790138 -8.5e-05 
v -0.00123662 -0.000759384 8.5e-05 
v -0.00123662 -0.000759384 -8.5e-05 
v -0.00124514 -0.000728239 8.5e-05 
v -0.00124514 -0.000728239 -8.5e-05 
v -0.00125232 -0.000696758 8.5e-05 
v -0.00125232 -0.000696758 -8.5e-05 
v -0.00125816 -0.000665 8.5e-05 
v -0.00125816 -0.000665 -8.5e-05 
vn -0.377014 -0.926208 0 
vn -0.377014 -0.926208 0 
vn -0.416169 -0.909287 0 
vn -0.416169 -0.909287 0 
vn -0.454567 -0.890712 0 
vn -0.454567 -0.890712 0 
vn -0.492138 -0.870517 0 
vn -0.492138 -0.870517 0 
vn -0.528814 -0.848738 0 
vn -0.528814 -0.848738 0 
vn -0.564527 -0.825414 0 
vn -0.564527 -0.825414 0 
vn -0.599214 -0.800589 0 
vn -0.599214 -0.800589 0 
vn -0.63281 -0.774307 0 
vn -0.63281 -0.774307 0 
vn -0.665255 -0.746616 0 
vn -0.665255 -0.746616 0 
vn -0.696489 -0.717567 0 
vn -0.696489 -0.717567 0 
vn -0.726456 -0.687213 0 
vn -0.726456 -0.687213 0 
vn -0.755102 -0.655608 0 
vn -0.755102 -0.655608 0 
vn -0.782373 -0.62281 0 
vn -0.782373 -0.62281 0 
vn -0.808222 -0.588879 0 
vn -0.808222 -0.588879 0 
vn -0.832599 -0.553876 0 
vn -0.832599 -0.553876 0 
vn -0.855462 -0.517866 0 
vn -0.855462 -0.517866 0 
vn -0.876768 -0.480913 0 
vn -0.876768 -0.480913 0 
vn -0.896479 -0.443086 0 
vn -0.896479 -0.443086 0 
vn -0.914559 -0.404452 0 
vn -0.914559 -0.404452 0 
vn -0.930975 -0.365083 0 
vn -0.930975 -0.365083 0 
vn -0.945697 -0.325049 0 
vn -0.945697 -0.325049 0 
vn -0.958699 -0.284424 0 
vn -0.958699 -0.284424 0 
vn -0.969956 -0.243281 0 
vn -0.969956 -0.243281 0 
vn -0.979448 -0.201696 0 
vn -0.979448 -0.201696 0 
vn -0.987159 -0.159744 0 
vn -0.987159 -0.159744 0 
f 271//271 272//272 273//273 
f 274//274 273//273 275//275 
f 276//276 275//275 277//277 
f 278//278 277//277 279//279 
f 280//280 279//279 281//281 
f 282//282 281//281 283//283 
f 284//284 283//283 285//285 
f 286//286 285//285 287//287 
f 288//288 287//287 289//289 
f 290//290 289//289 291//291 
f 292//292 291//291 293//293 
f 294//294 293//293 295//295 
f 296//296 295//295 297//297 
f 298//298 297//297 299//299 
f 300//300 299//299 301//301 
f 302//302 301//301 303//303 
f 304//304 303//303 305//305 
f 306//306 305//305 307//307 
f 308//308 307//307 309//309 
f 310//310 309//309 311//311 
f 312//312 311//311 313//313 
f 314//314 313//313 315//315 
f 316//316 315//315 317//317 
f 318//318 317//317 319//319 
f 319//319 320//320 318//318 
f 317//317 318//318 316//316 
f 315//315 316//316 314//314 
f 313//313 314//314 312//312 
f 311//311 312//312 310//310 
f 309//309 310//310 308//308 
f 307//307 308//308 306//306 
f 305//305 306//306 304//304 
f 303//303 304//304 302//302 
f 301//301 302//302 300//300 
f 299//299 300//300 298//298 
f 297//297 298//298 296//296 
f 295//295 296//296 294//294 
f 293//293 294//294 292//292 
f 291//291 292//292 290//290 
f 289//289 290//290 288//288 
f 287//287 288//288 286//286 
f 285//285 286//286 284//284 
f 283//283 284//284 282//282 
f 281//281 282//282 280//280 
f 279//279 280//280 278//278 
f 277//277 278//278 276//276 
f 275//275 276//276 274//274 
f 273//273 274//274 271//271 
o mesh935
v -0.00042987 -0.00152134 -8.5e-05 
v -0.000408712 -0.00155013 -8.5e-05 
v -0.000408712 -0.00155013 8.5e-05 
v -0.000452207 -0.00149346 -8.5e-05 
v -0.00042987 -0.00152134 8.5e-05 
v -0.000475683 -0.00146654 -8.5e-05 
v -0.000452207 -0.00149346 8.5e-05 
v -0.000500258 -0.00144061 -8.5e-05 
v -0.000475683 -0.00146654 8.5e-05 
v -0.00052589 -0.00141573 -8.5e-05 
v -0.000500258 -0.00144061 8.5e-05 
v -0.000552534 -0.00139193 -8.5e-05 
v -0.00052589 -0.00141573 8.5e-05 
v -0.000580145 -0.00136927 -8.5e-05 
v -0.000552534 -0.00139193 8.5e-05 
v -0.000608674 -0.00134777 -8.5e-05 
v -0.000580145 -0.00136927 8.5e-05 
v -0.000638072 -0.00132747 -8.5e-05 
v -0.000608674 -0.00134777 8.5e-05 
v -0.000668289 -0.00130842 -8.5e-05 
v -0.000638072 -0.00132747 8.5e-05 
v -0.000699272 -0.00129063 -8.5e-05 
v -0.000668289 -0.00130842 8.5e-05 
v -0.000730967 -0.00127416 -8.5e-05 
v -0.00071 -0.00128506 -8.5e-05 
v -0.00071 -0.00128506 8.5e-05 
v -0.000699272 -0.00129063 8.5e-05 
v -0.00076332 -0.00125901 -8.5e-05 
v -0.000730967 -0.00127416 8.5e-05 
v -0.000796275 -0.00124522 -8.5e-05 
v -0.00076332 -0.00125901 8.5e-05 
v -0.000796275 -0.00124522 8.5e-05 
vn -0.793244 -0.608904 0 
vn -0.817874 -0.575398 0 
vn -0.817874 -0.575398 0 
vn -0.767243 -0.641357 0 
vn -0.793244 -0.608904 0 
vn -0.739915 -0.672701 0 
vn -0.767243 -0.641357 0 
vn -0.711307 -0.702881 0 
vn -0.739915 -0.672701 0 
vn -0.681469 -0.731847 0 
vn -0.711307 -0.702881 0 
vn -0.650453 -0.759546 0 
vn -0.681469 -0.731847 0 
vn -0.618312 -0.785932 0 
vn -0.650453 -0.759546 0 
vn -0.585102 -0.810959 0 
vn -0.618312 -0.785932 0 
vn -0.55088 -0.834584 0 
vn -0.585102 -0.810959 0 
vn -0.515706 -0.856766 0 
vn -0.55088 -0.834584 0 
vn -0.47964 -0.877466 0 
vn -0.515706 -0.856766 0 
vn -0.442744 -0.896648 0 
vn -0.467241 -0.88413 0 
vn -0.467241 -0.88413 0 
vn -0.47964 -0.877466 0 
vn -0.405082 -0.91428 0 
vn -0.442744 -0.896648 0 
vn -0.366721 -0.930331 0 
vn -0.405082 -0.91428 0 
vn -0.366721 -0.930331 0 
f 321//321 322//322 323//323 
f 324//324 321//321 325//325 
f 326//326 324//324 327//327 
f 328//328 326//326 329//329 
f 330//330 328//328 331//331 
f 332//332 330//330 333//333 
f 334//334 332//332 335//335 
f 336//336 334//334 337//337 
f 338//338 336//336 339//339 
f 340//340 338//338 341//341 
f 342//342 340//340 343//343 
f 344//344 345//345 346//346 
f 347//347 346//346 345//345 
f 345//345 342//342 347//347 
f 348//348 344//344 349//349 
f 350//350 348//348 351//351 
f 351//351 352//352 350//350 
f 349//349 351//351 348//348 
f 346//346 349//349 344//344 
f 343//343 347//347 342//342 
f 341//341 343//343 340//340 
f 339//339 341//341 338//338 
f 337//337 339//339 336//336 
f 335//335 337//337 334//334 
f 333//333 335//335 332//332 
f 331//331 333//333 330//330 
f 329//329 331//331 328//328 
f 327//327 329//329 326//326 
f 325//325 327//327 324//324 
f 323//323 325//325 321//321 
o mesh936
v 4.87891e-18 -0.00174753 -8.5e-05 
v 4.87891e-18 -0.00174753 8.5e-05 
v -2.14065e-05 -0.00174749 8.5e-05 
v -2.14065e-05 -0.00174749 -8.5e-05 
v -4.27915e-05 -0.00174653 8.5e-05 
v -4.27915e-05 -0.00174653 -8.5e-05 
v -6.41163e-05 -0.00174466 8.5e-05 
v -6.41163e-05 -0.00174466 -8.5e-05 
v -8.5342e-05 -0.00174189 8.5e-05 
v -8.5342e-05 -0.00174189 -8.5e-05 
v -0.00010643 -0.00173821 8.5e-05 
v -0.00010643 -0.00173821 -8.5e-05 
v -0.000127342 -0.00173363 8.5e-05 
v -0.000127342 -0.00173363 -8.5e-05 
v -0.00014804 -0.00172817 8.5e-05 
v -0.00014804 -0.00172817 -8.5e-05 
v -0.000168486 -0.00172183 8.5e-05 
v -0.000168486 -0.00172183 -8.5e-05 
v -0.000188643 -0.00171462 8.5e-05 
v -0.000208475 -0.00170656 -8.5e-05 
v -0.0002035 -0.00170859 -8.5e-05 
v -0.0002035 -0.00170859 8.5e-05 
v -0.000188643 -0.00171462 -8.5e-05 
v -0.000208475 -0.00170656 8.5e-05 
v -0.000227945 -0.00169767 8.5e-05 
v -0.000227945 -0.00169767 -8.5e-05 
v -0.000247018 -0.00168795 8.5e-05 
v -0.000247018 -0.00168795 -8.5e-05 
v -0.000265659 -0.00167743 8.5e-05 
v -0.000265659 -0.00167743 -8.5e-05 
v -0.000283835 -0.00166612 8.5e-05 
v -0.000283835 -0.00166612 -8.5e-05 
v -0.000301511 -0.00165404 8.5e-05 
v -0.000301511 -0.00165404 -8.5e-05 
v -0.000318657 -0.00164123 8.5e-05 
v -0.000318657 -0.00164123 -8.5e-05 
v -0.000335241 -0.00162769 8.5e-05 
v -0.000335241 -0.00162769 -8.5e-05 
v -0.000351233 -0.00161346 8.5e-05 
v -0.000366603 -0.00159856 -8.5e-05 
v -0.000355 -0.00160981 -8.5e-05 
v -0.000355 -0.00160981 8.5e-05 
v -0.000351233 -0.00161346 -8.5e-05 
v -0.000366603 -0.00159856 8.5e-05 
v -0.000381324 -0.00158302 8.5e-05 
v -0.000381324 -0.00158302 -8.5e-05 
v -0.000395369 -0.00156686 8.5e-05 
v -0.000395369 -0.00156686 -8.5e-05 
v -0.000408712 -0.00155013 8.5e-05 
v -0.000408712 -0.00155013 -8.5e-05 
vn 0.0192195 -0.999815 0 
vn 0.0192195 -0.999815 0 
vn -0.0234295 -0.999725 0 
vn -0.0234295 -0.999725 0 
vn -0.0660358 -0.997817 0 
vn -0.0660358 -0.997817 0 
vn -0.108522 -0.994094 0 
vn -0.108522 -0.994094 0 
vn -0.150811 -0.988563 0 
vn -0.150811 -0.988563 0 
vn -0.192825 -0.981233 0 
vn -0.192825 -0.981233 0 
vn -0.234489 -0.972119 0 
vn -0.234489 -0.972119 0 
vn -0.275727 -0.961236 0 
vn -0.275727 -0.961236 0 
vn -0.316462 -0.948605 0 
vn -0.316462 -0.948605 0 
vn -0.356622 -0.934249 0 
vn -0.396134 -0.918193 0 
vn -0.386288 -0.922378 0 
vn -0.386288 -0.922378 0 
vn -0.356622 -0.934249 0 
vn -0.396134 -0.918193 0 
vn -0.434925 -0.900467 0 
vn -0.434925 -0.900467 0 
vn -0.472925 -0.881103 0 
vn -0.472925 -0.881103 0 
vn -0.510064 -0.860136 0 
vn -0.510064 -0.860136 0 
vn -0.546276 -0.837605 0 
vn -0.546276 -0.837605 0 
vn -0.581494 -0.813551 0 
vn -0.581494 -0.813551 0 
vn -0.615655 -0.788016 0 
vn -0.615655 -0.788016 0 
vn -0.648695 -0.761048 0 
vn -0.648695 -0.761048 0 
vn -0.680556 -0.732696 0 
vn -0.711179 -0.703011 0 
vn -0.688177 -0.725542 0 
vn -0.688177 -0.725542 0 
vn -0.680556 -0.732696 0 
vn -0.711179 -0.703011 0 
vn -0.740508 -0.672048 0 
vn -0.740508 -0.672048 0 
vn -0.76849 -0.639862 0 
vn -0.76849 -0.639862 0 
vn -0.795074 -0.606512 0 
vn -0.795074 -0.606512 0 
f 353//353 354//354 355//355 
f 356//356 355//355 357//357 
f 358//358 357//357 359//359 
f 360//360 359//359 361//361 
f 362//362 361//361 363//363 
f 364//364 363//363 365//365 
f 366//366 365//365 367//367 
f 368//368 367//367 369//369 
f 370//370 369//369 371//371 
f 372//372 373//373 374//374 
f 371//371 374//374 373//373 
f 373//373 375//375 371//371 
f 372//372 376//376 377//377 
f 378//378 377//377 379//379 
f 380//380 379//379 381//381 
f 382//382 381//381 383//383 
f 384//384 383//383 385//385 
f 386//386 385//385 387//387 
f 388//388 387//387 389//389 
f 390//390 389//389 391//391 
f 392//392 393//393 394//394 
f 391//391 394//394 393//393 
f 393//393 395//395 391//391 
f 392//392 396//396 397//397 
f 398//398 397//397 399//399 
f 400//400 399//399 401//401 
f 401//401 402//402 400//400 
f 399//399 400//400 398//398 
f 397//397 398//398 392//392 
f 394//394 396//396 392//392 
f 391//391 395//395 390//390 
f 389//389 390//390 388//388 
f 387//387 388//388 386//386 
f 385//385 386//386 384//384 
f 383//383 384//384 382//382 
f 381//381 382//382 380//380 
f 379//379 380//380 378//378 
f 377//377 378//378 372//372 
f 374//374 376//376 372//372 
f 371//371 375//375 370//370 
f 369//369 370//370 368//368 
f 367//367 368//368 366//366 
f 365//365 366//366 364//364 
f 363//363 364//364 362//362 
f 361//361 362//362 360//360 
f 359//359 360//360 358//358 
f 357//357 358//358 356//356 
f 355//355 356//356 353//353 
o mesh937
v 0.000408712 -0.00155013 -8.5e-05 
v 0.000408712 -0.00155013 8.5e-05 
v 0.000395369 -0.00156686 8.5e-05 
v 0.000395369 -0.00156686 -8.5e-05 
v 0.000381324 -0.00158302 8.5e-05 
v 0.000381324 -0.00158302 -8.5e-05 
v 0.000366603 -0.00159856 8.5e-05 
v 0.000351233 -0.00161346 -8.5e-05 
v 0.000355 -0.00160981 -8.5e-05 
v 0.000355 -0.00160981 8.5e-05 
v 0.000366603 -0.00159856 -8.5e-05 
v 0.000351233 -0.00161346 8.5e-05 
v 0.000335241 -0.00162769 8.5e-05 
v 0.000335241 -0.00162769 -8.5e-05 
v 0.000318657 -0.00164123 8.5e-05 
v 0.000318657 -0.00164123 -8.5e-05 
v 0.000301511 -0.00165404 8.5e-05 
v 0.000301511 -0.00165404 -8.5e-05 
v 0.000283835 -0.00166612 8.5e-05 
v 0.000283835 -0.00166612 -8.5e-05 
v 0.000265659 -0.00167743 8.5e-05 
v 0.000265659 -0.00167743 -8.5e-05 
v 0.000247018 -0.00168795 8.5e-05 
v 0.000247018 -0.00168795 -8.5e-05 
v 0.000227945 -0.00169767 8.5e-05 
v 0.000227945 -0.00169767 -8.5e-05 
v 0.000208475 -0.00170656 8.5e-05 
v 0.000188643 -0.00171462 -8.5e-05 
v 0.0002035 -0.00170859 -8.5e-05 
v 0.0002035 -0.00170859 8.5e-05 
v 0.000208475 -0.00170656 -8.5e-05 
v 0.000188643 -0.00171462 8.5e-05 
v 0.000168486 -0.00172183 8.5e-05 
v 0.000168486 -0.00172183 -8.5e-05 
v 0.00014804 -0.00172817 8.5e-05 
v 0.00014804 -0.00172817 -8.5e-05 
v 0.000127342 -0.00173363 8.5e-05 
v 0.000127342 -0.00173363 -8.5e-05 
v 0.00010643 -0.00173821 8.5e-05 
v 0.00010643 -0.00173821 -8.5e-05 
v 8.5342e-05 -0.00174189 8.5e-05 
v 8.5342e-05 -0.00174189 -8.5e-05 
v 6.41163e-05 -0.00174466 8.5e-05 
v 6.41163e-05 -0.00174466 -8.5e-05 
v 4.27915e-05 -0.00174653 8.5e-05 
v 4.27915e-05 -0.00174653 -8.5e-05 
v 2.14065e-05 -0.00174749 8.5e-05 
v 2.14065e-05 -0.00174749 -8.5e-05 
v 4.87891e-18 -0.00174753 8.5e-05 
v 4.87891e-18 -0.00174753 -8.5e-05 
vn 0.795074 -0.606512 0 
vn 0.795074 -0.606512 0 
vn 0.76849 -0.639862 0 
vn 0.76849 -0.639862 0 
vn 0.740508 -0.672048 0 
vn 0.740508 -0.672048 0 
vn 0.711179 -0.703011 0 
vn 0.680556 -0.732696 0 
vn 0.688177 -0.725542 0 
vn 0.688177 -0.725542 0 
vn 0.711179 -0.703011 0 
vn 0.680556 -0.732696 0 
vn 0.648695 -0.761048 0 
vn 0.648695 -0.761048 0 
vn 0.615655 -0.788016 0 
vn 0.615655 -0.788016 0 
vn 0.581494 -0.813551 0 
vn 0.581494 -0.813551 0 
vn 0.546276 -0.837605 0 
vn 0.546276 -0.837605 0 
vn 0.510064 -0.860136 0 
vn 0.510064 -0.860136 0 
vn 0.472925 -0.881103 0 
vn 0.472925 -0.881103 0 
vn 0.434925 -0.900467 0 
vn 0.434925 -0.900467 0 
vn 0.396134 -0.918193 0 
vn 0.356622 -0.934249 0 
vn 0.386288 -0.922378 0 
vn 0.386288 -0.922378 0 
vn 0.396134 -0.918193 0 
vn 0.356622 -0.934249 0 
vn 0.316462 -0.948605 0 
vn 0.316462 -0.948605 0 
vn 0.275727 -0.961236 0 
vn 0.275727 -0.961236 0 
vn 0.234489 -0.972119 0 
vn 0.234489 -0.972119 0 
vn 0.192825 -0.981233 0 
vn 0.192825 -0.981233 0 
vn 0.150811 -0.988563 0 
vn 0.150811 -0.988563 0 
vn 0.108522 -0.994094 0 
vn 0.108522 -0.994094 0 
vn 0.0660358 -0.997817 0 
vn 0.0660358 -0.997817 0 
vn 0.0234295 -0.999725 0 
vn 0.0234295 -0.999725 0 
vn -0.0192195 -0.999815 0 
vn -0.0192195 -0.999815 0 
f 403//403 404//404 405//405 
f 406//406 405//405 407//407 
f 408//408 407//407 409//409 
f 410//410 411//411 412//412 
f 409//409 412//412 411//411 
f 411//411 413//413 409//409 
f 410//410 414//414 415//415 
f 416//416 415//415 417//417 
f 418//418 417//417 419//419 
f 420//420 419//419 421//421 
f 422//422 421//421 423//423 
f 424//424 423//423 425//425 
f 426//426 425//425 427//427 
f 428//428 427//427 429//429 
f 430//430 431//431 432//432 
f 429//429 432//432 431//431 
f 431//431 433//433 429//429 
f 430//430 434//434 435//435 
f 436//436 435//435 437//437 
f 438//438 437//437 439//439 
f 440//440 439//439 441//441 
f 442//442 441//441 443//443 
f 444//444 443//443 445//445 
f 446//446 445//445 447//447 
f 448//448 447//447 449//449 
f 450//450 449//449 451//451 
f 451//451 452//452 450//450 
f 449//449 450//450 448//448 
f 447//447 448//448 446//446 
f 445//445 446//446 444//444 
f 443//443 444//444 442//442 
f 441//441 442//442 440//440 
f 439//439 440//440 438//438 
f 437//437 438//438 436//436 
f 435//435 436//436 430//430 
f 432//432 434//434 430//430 
f 429//429 433//433 428//428 
f 427//427 428//428 426//426 
f 425//425 426//426 424//424 
f 423//423 424//424 422//422 
f 421//421 422//422 420//420 
f 419//419 420//420 418//418 
f 417//417 418//418 416//416 
f 415//415 416//416 410//410 
f 412//412 414//414 410//410 
f 409//409 413//413 408//408 
f 407//407 408//408 406//406 
f 405//405 406//406 403//403 
o mesh938
v -0.000355 -0.00019375 8.5e-05 
v -0.000355 -0.00052875 8.5e-05 
v -0.0002035 -0.00052875 8.5e-05 
v 0.0002035 -0.00019375 8.5e-05 
v 0.0002035 -0.00052875 8.5e-05 
v 0.000355 -0.00052875 8.5e-05 
v -0.00071 4.77167e-05 8.5e-05 
v -0.00071 -0.00019375 8.5e-05 
v -0.000355 4.77167e-05 8.5e-05 
v -0.0002035 -0.00019375 8.5e-05 
v 0.0002035 4.77167e-05 8.5e-05 
v 0.000355 -0.00019375 8.5e-05 
v -0.00071 0.000773317 8.5e-05 
v -0.00071 0.00091375 8.5e-05 
v -0.000355 0.000773317 8.5e-05 
v -0.000355 0.00091375 8.5e-05 
v -0.0002035 0.000773317 8.5e-05 
v 0.0002035 0.00091375 8.5e-05 
v 0.0002035 0.000773317 8.5e-05 
v 0.000355 0.000773317 8.5e-05 
v -8.5e-05 -0.0005 8.5e-05 
v 8.5e-05 -0.0005 8.5e-05 
v 8.5e-05 -0.00019375 8.5e-05 
v -0.0002035 4.77167e-05 8.5e-05 
v -8.5e-05 0 8.5e-05 
v -8.5e-05 -0.00019375 8.5e-05 
v 8.5e-05 0 8.5e-05 
v -0.0002035 9.54334e-05 8.5e-05 
v -0.00035 9.54334e-05 8.5e-05 
v -0.0002035 0.000349171 8.5e-05 
v -4.06576e-19 0.000701633 8.5e-05 
v 0.0002035 0.000349171 8.5e-05 
v 0.000355 4.77167e-05 8.5e-05 
v 0.00035 9.54334e-05 8.5e-05 
v 0.0002035 0.00112375 8.5e-05 
v 8.5e-05 0.001095 8.5e-05 
v -0.0002035 0.00112375 8.5e-05 
v -8.5e-05 0.001095 8.5e-05 
v -0.0002035 0.00091375 8.5e-05 
v -8.5e-05 0.00091375 8.5e-05 
v 8.5e-05 0.000845 8.5e-05 
v -8.5e-05 0.000845 8.5e-05 
v 8.5e-05 0.00091375 8.5e-05 
v 0.000322 0.0009825 8.5e-05 
v 0.000355 0.00091375 8.5e-05 
v 0.000355 0.0009825 8.5e-05 
v -0.000322 0.0009825 8.5e-05 
v -0.000322 0.00112375 8.5e-05 
v -0.00071 0.00112375 8.5e-05 
v -0.00056 0.0009825 8.5e-05 
v -0.000355 0.0009825 8.5e-05 
v -0.00036 -0.0003875 8.5e-05 
v -0.00071 -0.0003875 8.5e-05 
v 0.00086 -0.0003875 8.5e-05 
v 0.00086 -0.00052875 8.5e-05 
v 0.0012659 -0.000520422 8.5e-05 
v 0.00126761 -0.000375648 8.5e-05 
v 0.00126545 -0.00052875 8.5e-05 
v 0.00126331 -0.000230927 8.5e-05 
v 0.00036 -0.0003875 8.5e-05 
v 0.00126065 -0.00019375 8.5e-05 
v 0.00036 -0.00052875 8.5e-05 
v 0.00125298 -8.65114e-05 8.5e-05 
v 0.00123665 5.73496e-05 8.5e-05 
v 0.00111205 0.000622285 8.5e-05 
v 0.00106635 0.000759668 8.5e-05 
v 0.00118612 0.000342412 8.5e-05 
v 0.001152 0.000483119 8.5e-05 
v 0.00121435 0.000200407 8.5e-05 
v 0.00101498 0.000895031 8.5e-05 
v 0.00100697 0.00091375 8.5e-05 
v 0.00106117 0.000773317 8.5e-05 
v 0.00056 0.0009825 8.5e-05 
v 0.000958014 0.00102814 8.5e-05 
v 0.0009123 0.00112375 8.5e-05 
v 0.00056 0.00112375 8.5e-05 
v 0.000355 0.0011525 8.5e-05 
v 0.000400508 0.00174315 8.5e-05 
v 0.000366495 0.00175965 8.5e-05 
v 0.000497862 0.00168513 8.5e-05 
v 0.000466253 0.00170586 8.5e-05 
v 0.000558264 0.0016397 8.5e-05 
v 0.000528552 0.00166306 8.5e-05 
v 0.000734535 0.00144367 8.5e-05 
v 0.00056 0.0011525 8.5e-05 
v 0.000433781 0.00172522 8.5e-05 
v 0.000713085 0.00147479 8.5e-05 
v 0.000690318 0.00150497 8.5e-05 
v 0.000754626 0.00141165 8.5e-05 
v 0.00061454 0.00158924 8.5e-05 
v 0.000586944 0.00161507 8.5e-05 
v 0.000666275 0.00153414 8.5e-05 
v 0.000641 0.00156224 8.5e-05 
v 0.000827725 0.00128667 8.5e-05 
v 0.00089556 0.00115876 8.5e-05 
v 0.000355 0.00176462 8.5e-05 
v 0.000322 0.0011525 8.5e-05 
v 0.0002965 0.00178817 8.5e-05 
v 0.000260648 0.00180015 8.5e-05 
v 0.000331804 0.00177466 8.5e-05 
v 0.000224314 0.00181058 8.5e-05 
v 0.000322 0.00112375 8.5e-05 
v 0.0002035 0.00181559 8.5e-05 
v 1.21533e-18 0.00183967 8.5e-05 
v 0.000187565 0.00181943 8.5e-05 
v -3.77919e-05 0.00183886 8.5e-05 
v -7.55139e-05 0.00183642 8.5e-05 
v 3.77919e-05 0.00183886 8.5e-05 
v 0.000113096 0.00183237 8.5e-05 
v 7.55139e-05 0.00183642 8.5e-05 
v 0.00015047 0.0018267 8.5e-05 
v -0.000113096 0.00183237 8.5e-05 
v -0.00015047 0.0018267 8.5e-05 
v -0.000187565 0.00181943 8.5e-05 
v -0.000322 0.0011525 8.5e-05 
v -0.000224314 0.00181058 8.5e-05 
v -0.000260648 0.00180015 8.5e-05 
v -0.0002965 0.00178817 8.5e-05 
v -0.000331804 0.00177466 8.5e-05 
v -0.000355 0.00176462 8.5e-05 
v -0.0002035 0.00181559 8.5e-05 
v -0.000355 0.0011525 8.5e-05 
v -0.000558264 0.0016397 8.5e-05 
v -0.000586944 0.00161507 8.5e-05 
v -0.00061454 0.00158924 8.5e-05 
v -0.000366495 0.00175965 8.5e-05 
v -0.000400508 0.00174315 8.5e-05 
v -0.000690318 0.00150497 8.5e-05 
v -0.00071 0.00147888 8.5e-05 
v -0.000641 0.00156224 8.5e-05 
v -0.000433781 0.00172522 8.5e-05 
v -0.000666275 0.00153414 8.5e-05 
v -0.000528552 0.00166306 8.5e-05 
v -0.000466253 0.00170586 8.5e-05 
v -0.000497862 0.00168513 8.5e-05 
v -0.00056 0.00112375 8.5e-05 
v -0.00056 0.0011525 8.5e-05 
v -0.000827725 0.00128667 8.5e-05 
v -0.00089556 0.00115876 8.5e-05 
v -0.000713085 0.00147479 8.5e-05 
v -0.000734535 0.00144367 8.5e-05 
v -0.000754626 0.00141165 8.5e-05 
v -0.0009123 0.00112375 8.5e-05 
v -0.000958014 0.00102814 8.5e-05 
v -0.00101498 0.000895031 8.5e-05 
v -0.00111205 0.000622285 8.5e-05 
v -0.001152 0.000483119 8.5e-05 
v -0.00118612 0.000342412 8.5e-05 
v -0.00106635 0.000759668 8.5e-05 
v -0.00121435 0.000200407 8.5e-05 
v -0.00106117 0.000773317 8.5e-05 
v -0.00123665 5.73496e-05 8.5e-05 
v -0.00125298 -8.65114e-05 8.5e-05 
v -0.00086 -0.0003875 8.5e-05 
v -0.00126761 -0.000375648 8.5e-05 
v -0.0012659 -0.000520422 8.5e-05 
v -0.00126331 -0.000230927 8.5e-05 
v -0.00126065 -0.00019375 8.5e-05 
v -0.00086 -0.00052875 8.5e-05 
v -0.00126545 -0.00052875 8.5e-05 
v -0.00071 -0.0005575 8.5e-05 
v -0.00114116 -0.000963362 8.5e-05 
v -0.0011227 -0.000989859 8.5e-05 
v -0.00117459 -0.000908128 8.5e-05 
v -0.00115846 -0.000936102 8.5e-05 
v -0.000964482 -0.00115013 8.5e-05 
v -0.000938224 -0.00116892 8.5e-05 
v -0.00110314 -0.00101555 8.5e-05 
v -0.00108249 -0.00104037 8.5e-05 
v -0.000911189 -0.00118657 8.5e-05 
v -0.00101448 -0.00110927 8.5e-05 
v -0.000989915 -0.00113023 8.5e-05 
v -0.00086 -0.0005575 8.5e-05 
v -0.000883425 -0.00120306 8.5e-05 
v -0.000854983 -0.00121835 8.5e-05 
v -0.00106081 -0.0010643 8.5e-05 
v -0.00103812 -0.00108728 8.5e-05 
v -0.00118951 -0.000879493 8.5e-05 
v -0.00125232 -0.000696758 8.5e-05 
v -0.00124514 -0.000728239 8.5e-05 
v -0.00125816 -0.000665 8.5e-05 
v -0.000825916 -0.00123241 8.5e-05 
v -0.00121563 -0.000820444 8.5e-05 
v -0.0012032 -0.000850247 8.5e-05 
v -0.00123662 -0.000759384 8.5e-05 
v -0.000796275 -0.00124522 8.5e-05 
v -0.00122677 -0.000790138 8.5e-05 
v -0.00076332 -0.00125901 8.5e-05 
v -0.000730967 -0.00127416 8.5e-05 
v -0.00071 -0.00128506 8.5e-05 
v -0.000395369 -0.00156686 8.5e-05 
v -0.000381324 -0.00158302 8.5e-05 
v -0.000408712 -0.00155013 8.5e-05 
v -0.000366603 -0.00159856 8.5e-05 
v -0.00042987 -0.00152134 8.5e-05 
v -0.000452207 -0.00149346 8.5e-05 
v -0.000475683 -0.00146654 8.5e-05 
v -0.000500258 -0.00144061 8.5e-05 
v -0.00036 -0.0005575 8.5e-05 
v -0.00052589 -0.00141573 8.5e-05 
v -0.000355 -0.00160981 8.5e-05 
v -0.000552534 -0.00139193 8.5e-05 
v -0.000580145 -0.00136927 8.5e-05 
v -0.000608674 -0.00134777 8.5e-05 
v -0.000638072 -0.00132747 8.5e-05 
v -0.000668289 -0.00130842 8.5e-05 
v -0.000699272 -0.00129063 8.5e-05 
v -0.00036 -0.00052875 8.5e-05 
v -0.000265659 -0.00167743 8.5e-05 
v -0.000247018 -0.00168795 8.5e-05 
v -0.000283835 -0.00166612 8.5e-05 
v -0.000301511 -0.00165404 8.5e-05 
v -0.000318657 -0.00164123 8.5e-05 
v -0.000351233 -0.00161346 8.5e-05 
v -0.000335241 -0.00162769 8.5e-05 
v -0.000227945 -0.00169767 8.5e-05 
v -0.000208475 -0.00170656 8.5e-05 
v 6.41163e-05 -0.00174466 8.5e-05 
v 8.5342e-05 -0.00174189 8.5e-05 
v 0.00010643 -0.00173821 8.5e-05 
v 0.000127342 -0.00173363 8.5e-05 
v -0.00010643 -0.00173821 8.5e-05 
v -8.5342e-05 -0.00174189 8.5e-05 
v -0.00014804 -0.00172817 8.5e-05 
v -0.000127342 -0.00173363 8.5e-05 
v -0.0002035 -0.00170859 8.5e-05 
v 0.000168486 -0.00172183 8.5e-05 
v 0.000188643 -0.00171462 8.5e-05 
v 0.00014804 -0.00172817 8.5e-05 
v -6.41163e-05 -0.00174466 8.5e-05 
v -4.27915e-05 -0.00174653 8.5e-05 
v -0.000188643 -0.00171462 8.5e-05 
v -0.000168486 -0.00172183 8.5e-05 
v 4.27915e-05 -0.00174653 8.5e-05 
v 4.87891e-18 -0.00174753 8.5e-05 
v 2.14065e-05 -0.00174749 8.5e-05 
v -2.14065e-05 -0.00174749 8.5e-05 
v 0.000351233 -0.00161346 8.5e-05 
v 0.000355 -0.00160981 8.5e-05 
v 0.000301511 -0.00165404 8.5e-05 
v 0.000318657 -0.00164123 8.5e-05 
v 0.000208475 -0.00170656 8.5e-05 
v 0.000227945 -0.00169767 8.5e-05 
v 0.000335241 -0.00162769 8.5e-05 
v 0.000283835 -0.00166612 8.5e-05 
v 0.000247018 -0.00168795 8.5e-05 
v 0.000265659 -0.00167743 8.5e-05 
v 0.0002035 -0.00170859 8.5e-05 
v 0.00036 -0.0005575 8.5e-05 
v 0.00110314 -0.00101555 8.5e-05 
v 0.0011227 -0.000989859 8.5e-05 
v 0.000608674 -0.00134777 8.5e-05 
v 0.000638072 -0.00132747 8.5e-05 
v 0.00114116 -0.000963362 8.5e-05 
v 0.00115846 -0.000936102 8.5e-05 
v 0.00108249 -0.00104037 8.5e-05 
v 0.000964482 -0.00115013 8.5e-05 
v 0.000989915 -0.00113023 8.5e-05 
v 0.000668289 -0.00130842 8.5e-05 
v 0.000552534 -0.00139193 8.5e-05 
v 0.000580145 -0.00136927 8.5e-05 
v 0.00117459 -0.000908128 8.5e-05 
v 0.00118951 -0.000879493 8.5e-05 
v 0.00086 -0.0005575 8.5e-05 
v 0.00103812 -0.00108728 8.5e-05 
v 0.00106081 -0.0010643 8.5e-05 
v 0.00101448 -0.00110927 8.5e-05 
v 0.000911189 -0.00118657 8.5e-05 
v 0.000938224 -0.00116892 8.5e-05 
v 0.000796275 -0.00124522 8.5e-05 
v 0.000825916 -0.00123241 8.5e-05 
v 0.000699272 -0.00129063 8.5e-05 
v 0.000730967 -0.00127416 8.5e-05 
v 0.000883425 -0.00120306 8.5e-05 
v 0.000854983 -0.00121835 8.5e-05 
v 0.00052589 -0.00141573 8.5e-05 
v 0.000475683 -0.00146654 8.5e-05 
v 0.000500258 -0.00144061 8.5e-05 
v 0.000366603 -0.00159856 8.5e-05 
v 0.000381324 -0.00158302 8.5e-05 
v 0.00042987 -0.00152134 8.5e-05 
v 0.000452207 -0.00149346 8.5e-05 
v 0.00076332 -0.00125901 8.5e-05 
v 0.000395369 -0.00156686 8.5e-05 
v 0.00122677 -0.000790138 8.5e-05 
v 0.00123662 -0.000759384 8.5e-05 
v 0.0012032 -0.000850247 8.5e-05 
v 0.00121563 -0.000820444 8.5e-05 
v 0.000408712 -0.00155013 8.5e-05 
v 0.00125232 -0.000696758 8.5e-05 
v 0.00125816 -0.000665 8.5e-05 
v 0.00124514 -0.000728239 8.5e-05 
v 0.0002035 9.54334e-05 8.5e-05 
vn 0 0 1 
vn 0 0 1 
vn 0 0 1 
vn 0 0 1 
vn 0 0 1 
vn 0 0 1 
vn 0 0 1 
vn 0 0 1 
vn 0 0 1 
vn 0 0 1 
vn 0 0 1 
vn 0 0 1 
vn 0 0 1 
vn 0 0 1 
vn 0 0 1 
vn 0 0 1 
vn 0 0 1 
vn 0 0 1 
vn 0 0 1 
vn 0 0 1 
vn 0 0 1 
vn 0 0 1 
vn 0 0 1 
vn 0 0 1 
vn 0 0 1 
vn 0 0 1 
vn 0 0 1 
vn 0 0 1 
vn 0 0 1 
vn 0 0 1 
vn 0 0 1 
vn 0 0 1 
vn 0 0 1 
vn 0 0 1 
vn 0 0 1 
vn 0 0 1 
vn 0 0 1 
vn 0 0 1 
vn 0 0 1 
vn 0 0 1 
vn 0 0 1 
vn 0 0 1 
vn 0 0 1 
vn 0 0 1 
vn 0 0 1 
vn 0 0 1 
vn 0 0 1 
vn 0 0 1 
vn 0 0 1 
vn 0 0 1 
vn 0 0 1 
vn 0 0 1 
vn 0 0 1 
vn 0 0 1 
vn 0 0 1 
vn 0 0 1 
vn 0 0 1 
vn 0 0 1 
vn 0 0 1 
vn 0 0 1 
vn 0 0 1 
vn 0 0 1 
vn 0 0 1 
vn 0 0 1 
vn 0 0 1 
vn 0 0 1 
vn 0 0 1 
vn 0 0 1 
vn 0 0 1 
vn 0 0 1 
vn 0 0 1 
vn 0 0 1 
vn 0 0 1 
vn 0 0 1 
vn 0 0 1 
vn 0 0 1 
vn 0 0 1 
vn 0 0 1 
vn 0 0 1 
vn 0 0 1 
vn 0 0 1 
vn 0 0 1 
vn 0 0 1 
vn 0 0 1 
vn 0 0 1 
vn 0 0 1 
vn 0 0 1 
vn 0 0 1 
vn 0 0 1 
vn 0 0 1 
vn 0 0 1 
vn 0 0 1 
vn 0 0 1 
vn 0 0 1 
vn 0 0 1 
vn 0 0 1 
vn 0 0 1 
vn 0 0 1 
vn 0 0 1 
vn 0 0 1 
vn 0 0 1 
vn 0 0 1 
vn 0 0 1 
vn 0 0 1 
vn 0 0 1 
vn 0 0 1 
vn 0 0 1 
vn 0 0 1 
vn 0 0 1 
vn 0 0 1 
vn 0 0 1 
vn 0 0 1 
vn 0 0 1 
vn 0 0 1 
vn 0 0 1 
vn 0 0 1 
vn 0 0 1 
vn 0 0 1 
vn 0 0 1 
vn 0 0 1 
vn 0 0 1 
vn 0 0 1 
vn 0 0 1 
vn 0 0 1 
vn 0 0 1 
vn 0 0 1 
vn 0 0 1 
vn 0 0 1 
vn 0 0 1 
vn 0 0 1 
vn 0 0 1 
vn 0 0 1 
vn 0 0 1 
vn 0 0 1 
vn 0 0 1 
vn 0 0 1 
vn 0 0 1 
vn 0 0 1 
vn 0 0 1 
vn 0 0 1 
vn 0 0 1 
vn 0 0 1 
vn 0 0 1 
vn 0 0 1 
vn 0 0 1 
vn 0 0 1 
vn 0 0 1 
vn 0 0 1 
vn 0 0 1 
vn 0 0 1 
vn 0 0 1 
vn 0 0 1 
vn 0 0 1 
vn 0 0 1 
vn 0 0 1 
vn 0 0 1 
vn 0 0 1 
vn 0 0 1 
vn 0 0 1 
vn 0 0 1 
vn 0 0 1 
vn 0 0 1 
vn 0 0 1 
vn 0 0 1 
vn 0 0 1 
vn 0 0 1 
vn 0 0 1 
vn 0 0 1 
vn 0 0 1 
vn 0 0 1 
vn 0 0 1 
vn 0 0 1 
vn 0 0 1 
vn 0 0 1 
vn 0 0 1 
vn 0 0 1 
vn 0 0 1 
vn 0 0 1 
vn 0 0 1 
vn 0 0 1 
vn 0 0 1 
vn 0 0 1 
vn 0 0 1 
vn 0 0 1 
vn 0 0 1 
vn 0 0 1 
vn 0 0 1 
vn 0 0 1 
vn 0 0 1 
vn 0 0 1 
vn 0 0 1 
vn 0 0 1 
vn 0 0 1 
vn 0 0 1 
vn 0 0 1 
vn 0 0 1 
vn 0 0 1 
vn 0 0 1 
vn 0 0 1 
vn 0 0 1 
vn 0 0 1 
vn 0 0 1 
vn 0 0 1 
vn 0 0 1 
vn 0 0 1 
vn 0 0 1 
vn 0 0 1 
vn 0 0 1 
vn 0 0 1 
vn 0 0 1 
vn 0 0 1 
vn 0 0 1 
vn 0 0 1 
vn 0 0 1 
vn 0 0 1 
vn 0 0 1 
vn 0 0 1 
vn 0 0 1 
vn 0 0 1 
vn 0 0 1 
vn 0 0 1 
vn 0 0 1 
vn 0 0 1 
vn 0 0 1 
vn 0 0 1 
vn 0 0 1 
vn 0 0 1 
vn 0 0 1 
vn 0 0 1 
vn 0 0 1 
vn 0 0 1 
vn 0 0 1 
vn 0 0 1 
vn 0 0 1 
vn 0 0 1 
vn 0 0 1 
vn 0 0 1 
vn 0 0 1 
vn 0 0 1 
vn 0 0 1 
vn 0 0 1 
vn 0 0 1 
vn 0 0 1 
vn 0 0 1 
vn 0 0 1 
vn 0 0 1 
vn 0 0 1 
vn 0 0 1 
vn 0 0 1 
vn 0 0 1 
vn 0 0 1 
vn 0 0 1 
vn 0 0 1 
vn 0 0 1 
vn 0 0 1 
vn 0 0 1 
vn 0 0 1 
vn 0 0 1 
vn 0 0 1 
vn 0 0 1 
vn 0 0 1 
vn 0 0 1 
vn 0 0 1 
vn 0 0 1 
vn 0 0 1 
vn 0 0 1 
vn 0 0 1 
vn 0 0 1 
vn 0 0 1 
vn 0 0 1 
vn 0 0 1 
vn 0 0 1 
vn 0 0 1 
vn 0 0 1 
vn 0 0 1 
vn 0 0 1 
vn 0 0 1 
vn 0 0 1 
vn 0 0 1 
vn 0 0 1 
vn 0 0 1 
vn 0 0 1 
vn 0 0 1 
vn 0 0 1 
vn 0 0 1 
vn 0 0 1 
vn 0 0 1 
vn 0 0 1 
vn 0 0 1 
vn 0 0 1 
vn 0 0 1 
vn 0 0 1 
vn 0 0 1 
f 453//453 454//454 455//455 
f 456//456 457//457 458//458 
f 459//459 460//460 453//453 
f 461//461 453//453 462//462 
f 463//463 456//456 464//464 
f 465//465 459//459 461//461 
f 466//466 465//465 467//467 
f 468//468 467//467 469//469 
f 470//470 471//471 472//472 
f 462//462 455//455 473//473 
f 457//457 474//474 473//473 
f 473//473 455//455 457//457 
f 456//456 475//475 474//474 
f 474//474 457//457 456//456 
f 463//463 476//476 477//477 
f 462//462 478//478 477//477 
f 456//456 463//463 479//479 
f 477//477 476//476 462//462 
f 477//477 479//479 463//463 
f 480//480 476//476 463//463 
f 467//467 481//481 482//482 
f 467//467 461//461 481//481 
f 476//476 480//480 481//481 
f 481//481 461//461 476//476 
f 469//469 482//482 483//483 
f 483//483 471//471 469//469 
f 472//472 471//471 484//484 
f 463//463 485//485 486//486 
f 484//484 486//486 472//472 
f 486//486 485//485 472//472 
f 470//470 487//487 488//488 
f 487//487 489//489 490//490 
f 490//490 488//488 487//487 
f 491//491 492//492 490//490 
f 490//490 489//489 491//491 
f 471//471 493//493 494//494 
f 470//470 495//495 493//493 
f 491//491 469//469 494//494 
f 493//493 471//471 470//470 
f 494//494 469//469 471//471 
f 487//487 470//470 496//496 
f 497//497 498//498 496//496 
f 496//496 470//470 497//497 
f 468//468 491//491 499//499 
f 489//489 500//500 499//499 
f 499//499 491//491 489//489 
f 501//501 466//466 502//502 
f 468//468 503//503 502//502 
f 502//502 466//466 468//468 
f 454//454 453//453 504//504 
f 460//460 505//505 504//504 
f 504//504 453//453 460//460 
f 506//506 507//507 508//508 
f 508//508 509//509 506//506 
f 507//507 510//510 508//508 
f 509//509 511//511 506//506 
f 464//464 512//512 506//506 
f 506//506 513//513 464//464 
f 458//458 514//514 512//512 
f 512//512 464//464 458//458 
f 464//464 515//515 516//516 
f 464//464 513//513 515//515 
f 485//485 517//517 518//518 
f 518//518 472//472 485//485 
f 485//485 519//519 520//520 
f 520//520 517//517 485//485 
f 485//485 516//516 521//521 
f 521//521 519//519 485//485 
f 472//472 522//522 523//523 
f 472//472 524//524 522//522 
f 525//525 526//526 527//527 
f 497//497 523//523 525//525 
f 525//525 523//523 526//526 
f 527//527 528//528 525//525 
f 529//529 530//530 531//531 
f 529//529 532//532 533//533 
f 529//529 534//534 535//535 
f 536//536 529//529 537//537 
f 529//529 538//538 530//530 
f 535//535 532//532 529//529 
f 529//529 539//539 540//540 
f 537//537 541//541 536//536 
f 533//533 538//538 529//529 
f 529//529 542//542 543//543 
f 529//529 544//544 545//545 
f 536//536 539//539 529//529 
f 546//546 541//541 537//537 
f 528//528 527//527 547//547 
f 543//543 534//534 529//529 
f 540//540 544//544 529//529 
f 547//547 546//546 528//528 
f 545//545 542//542 529//529 
f 531//531 548//548 529//529 
f 549//549 550//550 551//551 
f 549//549 552//552 550//550 
f 549//549 529//529 548//548 
f 548//548 552//552 549//549 
f 551//551 553//553 549//549 
f 487//487 554//554 549//549 
f 549//549 555//555 487//487 
f 489//489 487//487 556//556 
f 487//487 555//555 557//557 
f 489//489 558//558 559//559 
f 487//487 560//560 556//556 
f 487//487 561//561 562//562 
f 557//557 563//563 487//487 
f 489//489 564//564 565//565 
f 556//556 558//558 489//489 
f 563//563 561//561 487//487 
f 565//565 566//566 489//489 
f 562//562 560//560 487//487 
f 559//559 564//564 489//489 
f 567//567 568//568 569//569 
f 569//569 570//570 567//567 
f 567//567 571//571 572//572 
f 567//567 573//573 568//568 
f 489//489 573//573 567//567 
f 570//570 571//571 567//567 
f 572//572 574//574 567//567 
f 574//574 575//575 576//576 
f 576//576 577//577 574//574 
f 574//574 578//578 579//579 
f 574//574 580//580 581//581 
f 577//577 582//582 574//574 
f 579//579 583//583 574//574 
f 574//574 584//584 580//580 
f 574//574 585//585 575//575 
f 574//574 586//586 587//587 
f 574//574 572//572 578//578 
f 582//582 584//584 574//574 
f 583//583 586//586 574//574 
f 587//587 585//585 574//574 
f 501//501 588//588 589//589 
f 589//589 581//581 501//501 
f 501//501 590//590 591//591 
f 501//501 592//592 593//593 
f 501//501 594//594 590//590 
f 501//501 581//581 592//592 
f 593//593 594//594 501//501 
f 466//466 501//501 595//595 
f 595//595 596//596 466//466 
f 465//465 466//466 597//597 
f 459//459 465//465 598//598 
f 459//459 599//599 600//600 
f 465//465 601//601 598//598 
f 600//600 602//602 459//459 
f 465//465 603//603 601//601 
f 598//598 599//599 459//459 
f 460//460 459//459 604//604 
f 604//604 605//605 460//460 
f 606//606 607//607 608//608 
f 606//606 609//609 607//607 
f 606//606 610//610 609//609 
f 460//460 610//610 606//606 
f 608//608 611//611 606//606 
f 608//608 612//612 611//611 
f 613//613 614//614 615//615 
f 613//613 616//616 617//617 
f 613//613 618//618 619//619 
f 613//613 620//620 621//621 
f 617//617 614//614 613//613 
f 619//619 622//622 613//613 
f 613//613 623//623 624//624 
f 615//615 620//620 613//613 
f 616//616 613//613 625//625 
f 613//613 626//626 627//627 
f 624//624 618//618 613//613 
f 613//613 628//628 629//629 
f 625//625 630//630 616//616 
f 622//622 626//626 613//613 
f 621//621 628//628 613//613 
f 629//629 623//623 613//613 
f 625//625 631//631 632//632 
f 612//612 633//633 625//625 
f 627//627 634//634 613//613 
f 625//625 635//635 636//636 
f 632//632 637//637 625//625 
f 625//625 611//611 612//612 
f 634//634 638//638 613//613 
f 625//625 639//639 635//635 
f 633//633 631//631 625//625 
f 638//638 640//640 613//613 
f 637//637 639//639 625//625 
f 640//640 641//641 613//613 
f 641//641 642//642 613//613 
f 454//454 643//643 644//644 
f 454//454 645//645 643//643 
f 644//644 646//646 454//454 
f 454//454 647//647 645//645 
f 454//454 648//648 647//647 
f 454//454 649//649 648//648 
f 454//454 650//650 649//649 
f 650//650 454//454 651//651 
f 651//651 652//652 650//650 
f 646//646 653//653 454//454 
f 651//651 654//654 652//652 
f 651//651 655//655 654//654 
f 651//651 656//656 655//655 
f 651//651 657//657 656//656 
f 651//651 658//658 657//657 
f 651//651 659//659 658//658 
f 651//651 642//642 659//659 
f 454//454 660//660 651//651 
f 455//455 661//661 662//662 
f 455//455 663//663 661//661 
f 455//455 664//664 663//663 
f 455//455 665//665 664//664 
f 455//455 666//666 667//667 
f 455//455 454//454 653//653 
f 662//662 668//668 455//455 
f 653//653 666//666 455//455 
f 667//667 665//665 455//455 
f 668//668 669//669 455//455 
f 457//457 670//670 671//671 
f 671//671 672//672 457//457 
f 672//672 673//673 457//457 
f 457//457 674//674 675//675 
f 457//457 676//676 677//677 
f 457//457 455//455 678//678 
f 457//457 679//679 680//680 
f 673//673 681//681 457//457 
f 457//457 682//682 683//683 
f 677//677 674//674 457//457 
f 678//678 684//684 457//457 
f 681//681 679//679 457//457 
f 675//675 682//682 457//457 
f 684//684 685//685 457//457 
f 457//457 686//686 670//670 
f 457//457 687//687 688//688 
f 685//685 676//676 457//457 
f 688//688 686//686 457//457 
f 683//683 689//689 457//457 
f 689//689 687//687 457//457 
f 457//457 690//690 691//691 
f 457//457 692//692 693//693 
f 457//457 694//694 695//695 
f 457//457 696//696 690//690 
f 457//457 697//697 692//692 
f 457//457 698//698 699//699 
f 457//457 700//700 694//694 
f 693//693 696//696 457//457 
f 695//695 698//698 457//457 
f 699//699 697//697 457//457 
f 701//701 702//702 703//703 
f 701//701 704//704 705//705 
f 701//701 706//706 707//707 
f 701//701 708//708 702//702 
f 701//701 709//709 710//710 
f 705//705 711//711 701//701 
f 701//701 712//712 713//713 
f 714//714 715//715 716//716 
f 703//703 706//706 701//701 
f 701//701 717//717 718//718 
f 710//710 719//719 701//701 
f 701//701 720//720 721//721 
f 701//701 722//722 723//723 
f 701//701 724//724 725//725 
f 713//713 704//704 701//701 
f 707//707 714//714 701//701 
f 719//719 717//717 701//701 
f 701//701 726//726 720//720 
f 723//723 727//727 701//701 
f 711//711 724//724 701//701 
f 718//718 708//708 701//701 
f 727//727 726//726 701//701 
f 701//701 728//728 712//712 
f 701//701 729//729 730//730 
f 701//701 731//731 732//732 
f 721//721 709//709 701//701 
f 730//730 728//728 701//701 
f 701//701 733//733 734//734 
f 701//701 691//691 731//731 
f 701//701 735//735 722//722 
f 734//734 729//729 701//701 
f 732//732 736//736 701//701 
f 510//510 507//507 716//716 
f 716//716 737//737 738//738 
f 716//716 739//739 740//740 
f 725//725 735//735 701//701 
f 736//736 741//741 701//701 
f 716//716 742//742 743//743 
f 740//740 737//737 716//716 
f 458//458 691//691 701//701 
f 741//741 733//733 701//701 
f 716//716 744//744 742//742 
f 716//716 715//715 739//739 
f 716//716 701//701 714//714 
f 738//738 744//744 716//716 
f 716//716 743//743 510//510 
f 701//701 514//514 458//458 
f 691//691 458//458 457//457 
f 680//680 700//700 457//457 
f 669//669 678//678 455//455 
f 651//651 613//613 642//642 
f 636//636 630//630 625//625 
f 606//606 505//505 460//460 
f 605//605 610//610 460//460 
f 602//602 604//604 459//459 
f 597//597 603//603 465//465 
f 596//596 597//597 466//466 
f 591//591 595//595 501//501 
f 581//581 589//589 574//574 
f 567//567 500//500 489//489 
f 566//566 573//573 489//489 
f 553//553 555//555 549//549 
f 537//537 528//528 546//546 
f 525//525 498//498 497//497 
f 523//523 497//497 472//472 
f 518//518 524//524 472//472 
f 516//516 485//485 464//464 
f 511//511 513//513 506//506 
f 504//504 660//660 454//454 
f 502//502 588//588 501//501 
f 499//499 503//503 468//468 
f 496//496 554//554 487//487 
f 494//494 492//492 491//491 
f 488//488 495//495 470//470 
f 486//486 745//745 463//463 
f 483//483 484//484 471//471 
f 482//482 469//469 467//467 
f 463//463 745//745 480//480 
f 479//479 475//475 456//456 
f 473//473 478//478 462//462 
f 472//472 497//497 470//470 
f 469//469 491//491 468//468 
f 467//467 468//468 466//466 
f 461//461 467//467 465//465 
f 464//464 485//485 463//463 
f 462//462 476//476 461//461 
f 453//453 461//461 459//459 
f 458//458 464//464 456//456 
f 455//455 462//462 453//453 
o mesh939
v -0.00071 0.00091375 -8.5e-05 
v -0.000355 0.00091375 -8.5e-05 
v -0.000355 0.000773317 -8.5e-05 
v -0.0002035 0.00091375 -8.5e-05 
v -0.0002035 0.000773317 -8.5e-05 
v 0.0002035 0.00091375 -8.5e-05 
v 0.000355 0.00091375 -8.5e-05 
v 0.000355 0.000773317 -8.5e-05 
v -0.00071 0.000773317 -8.5e-05 
v -0.000355 4.77167e-05 -8.5e-05 
v -0.00071 4.77167e-05 -8.5e-05 
v -0.000355 -0.00019375 -8.5e-05 
v -0.0002035 4.77167e-05 -8.5e-05 
v -0.0002035 -0.00019375 -8.5e-05 
v 0.0002035 4.77167e-05 -8.5e-05 
v 0.000355 4.77167e-05 -8.5e-05 
v 0.000355 -0.00019375 -8.5e-05 
v -0.0002035 -0.00052875 -8.5e-05 
v 0.0002035 -0.00019375 -8.5e-05 
v 0.000355 -0.00052875 -8.5e-05 
v -8.5e-05 0 -8.5e-05 
v 8.5e-05 0 -8.5e-05 
v 8.5e-05 -0.00019375 -8.5e-05 
v 0.0002035 -0.00052875 -8.5e-05 
v -8.5e-05 -0.0005 -8.5e-05 
v -8.5e-05 -0.00019375 -8.5e-05 
v 8.5e-05 -0.0005 -8.5e-05 
v -0.0002035 9.54334e-05 -8.5e-05 
v 0.0002035 9.54334e-05 -8.5e-05 
v 0.00035 9.54334e-05 -8.5e-05 
v 0.0002035 0.000349171 -8.5e-05 
v 0.0002035 0.000773317 -8.5e-05 
v -4.06576e-19 0.000701633 -8.5e-05 
v -0.0002035 0.000349171 -8.5e-05 
v -0.00035 9.54334e-05 -8.5e-05 
v 8.5e-05 0.000845 -8.5e-05 
v -8.5e-05 0.000845 -8.5e-05 
v -8.5e-05 0.00091375 -8.5e-05 
v 0.0002035 0.00112375 -8.5e-05 
v 8.5e-05 0.001095 -8.5e-05 
v -8.5e-05 0.001095 -8.5e-05 
v 8.5e-05 0.00091375 -8.5e-05 
v -0.0002035 0.00112375 -8.5e-05 
v 0.000322 0.0009825 -8.5e-05 
v 0.000322 0.00112375 -8.5e-05 
v -0.00056 0.0009825 -8.5e-05 
v -0.00071 0.00112375 -8.5e-05 
v -0.00056 0.00112375 -8.5e-05 
v -0.000322 0.0009825 -8.5e-05 
v -0.000355 0.0009825 -8.5e-05 
v -0.00071 -0.00019375 -8.5e-05 
v -0.00036 -0.0003875 -8.5e-05 
v -0.000355 -0.00052875 -8.5e-05 
v -0.00036 -0.00052875 -8.5e-05 
v 0.000247018 -0.00168795 -8.5e-05 
v 0.000227945 -0.00169767 -8.5e-05 
v 0.000335241 -0.00162769 -8.5e-05 
v 0.000318657 -0.00164123 -8.5e-05 
v 0.000355 -0.00160981 -8.5e-05 
v 0.000208475 -0.00170656 -8.5e-05 
v 0.000283835 -0.00166612 -8.5e-05 
v 0.000265659 -0.00167743 -8.5e-05 
v 0.000301511 -0.00165404 -8.5e-05 
v 0.000351233 -0.00161346 -8.5e-05 
v 0.00010643 -0.00173821 -8.5e-05 
v 8.5342e-05 -0.00174189 -8.5e-05 
v -0.000188643 -0.00171462 -8.5e-05 
v -0.0002035 -0.00170859 -8.5e-05 
v 0.000127342 -0.00173363 -8.5e-05 
v -0.000168486 -0.00172183 -8.5e-05 
v -0.00010643 -0.00173821 -8.5e-05 
v -0.000127342 -0.00173363 -8.5e-05 
v -6.41163e-05 -0.00174466 -8.5e-05 
v -8.5342e-05 -0.00174189 -8.5e-05 
v 0.00014804 -0.00172817 -8.5e-05 
v -0.00014804 -0.00172817 -8.5e-05 
v 0.000168486 -0.00172183 -8.5e-05 
v 0.0002035 -0.00170859 -8.5e-05 
v 0.000188643 -0.00171462 -8.5e-05 
v -2.14065e-05 -0.00174749 -8.5e-05 
v -4.27915e-05 -0.00174653 -8.5e-05 
v 4.27915e-05 -0.00174653 -8.5e-05 
v 2.14065e-05 -0.00174749 -8.5e-05 
v 6.41163e-05 -0.00174466 -8.5e-05 
v 4.87891e-18 -0.00174753 -8.5e-05 
v -0.000227945 -0.00169767 -8.5e-05 
v -0.000247018 -0.00168795 -8.5e-05 
v -0.000283835 -0.00166612 -8.5e-05 
v -0.000301511 -0.00165404 -8.5e-05 
v -0.000265659 -0.00167743 -8.5e-05 
v -0.000351233 -0.00161346 -8.5e-05 
v -0.000355 -0.00160981 -8.5e-05 
v -0.000318657 -0.00164123 -8.5e-05 
v -0.000335241 -0.00162769 -8.5e-05 
v -0.000208475 -0.00170656 -8.5e-05 
v -0.00036 -0.0005575 -8.5e-05 
v -0.000366603 -0.00159856 -8.5e-05 
v -0.000381324 -0.00158302 -8.5e-05 
v -0.000580145 -0.00136927 -8.5e-05 
v -0.000608674 -0.00134777 -8.5e-05 
v -0.000699272 -0.00129063 -8.5e-05 
v -0.00071 -0.00128506 -8.5e-05 
v -0.000552534 -0.00139193 -8.5e-05 
v -0.000395369 -0.00156686 -8.5e-05 
v -0.000668289 -0.00130842 -8.5e-05 
v -0.000638072 -0.00132747 -8.5e-05 
v -0.00042987 -0.00152134 -8.5e-05 
v -0.000452207 -0.00149346 -8.5e-05 
v -0.000408712 -0.00155013 -8.5e-05 
v -0.000500258 -0.00144061 -8.5e-05 
v -0.00052589 -0.00141573 -8.5e-05 
v -0.000475683 -0.00146654 -8.5e-05 
v -0.00071 -0.0005575 -8.5e-05 
v -0.00114116 -0.000963362 -8.5e-05 
v -0.00115846 -0.000936102 -8.5e-05 
v -0.00110314 -0.00101555 -8.5e-05 
v -0.0011227 -0.000989859 -8.5e-05 
v -0.00117459 -0.000908128 -8.5e-05 
v -0.00118951 -0.000879493 -8.5e-05 
v -0.00086 -0.0005575 -8.5e-05 
v -0.000911189 -0.00118657 -8.5e-05 
v -0.000938224 -0.00116892 -8.5e-05 
v -0.00106081 -0.0010643 -8.5e-05 
v -0.00108249 -0.00104037 -8.5e-05 
v -0.000964482 -0.00115013 -8.5e-05 
v -0.000989915 -0.00113023 -8.5e-05 
v -0.000883425 -0.00120306 -8.5e-05 
v -0.000796275 -0.00124522 -8.5e-05 
v -0.000825916 -0.00123241 -8.5e-05 
v -0.00101448 -0.00110927 -8.5e-05 
v -0.00103812 -0.00108728 -8.5e-05 
v -0.000854983 -0.00121835 -8.5e-05 
v -0.00126545 -0.00052875 -8.5e-05 
v -0.00086 -0.00052875 -8.5e-05 
v -0.00125232 -0.000696758 -8.5e-05 
v -0.00125816 -0.000665 -8.5e-05 
v -0.00124514 -0.000728239 -8.5e-05 
v -0.00076332 -0.00125901 -8.5e-05 
v -0.00123662 -0.000759384 -8.5e-05 
v -0.0012032 -0.000850247 -8.5e-05 
v -0.000730967 -0.00127416 -8.5e-05 
v -0.00122677 -0.000790138 -8.5e-05 
v -0.00121563 -0.000820444 -8.5e-05 
v -0.00086 -0.0003875 -8.5e-05 
v -0.0012659 -0.000520422 -8.5e-05 
v -0.00126761 -0.000375648 -8.5e-05 
v -0.00126331 -0.000230927 -8.5e-05 
v -0.00071 -0.0003875 -8.5e-05 
v -0.00126065 -0.00019375 -8.5e-05 
v -0.00125298 -8.65114e-05 -8.5e-05 
v -0.00123665 5.73496e-05 -8.5e-05 
v -0.001152 0.000483119 -8.5e-05 
v -0.00111205 0.000622285 -8.5e-05 
v -0.00121435 0.000200407 -8.5e-05 
v -0.00118612 0.000342412 -8.5e-05 
v -0.00106635 0.000759668 -8.5e-05 
v -0.00106117 0.000773317 -8.5e-05 
v -0.00101498 0.000895031 -8.5e-05 
v -0.000958014 0.00102814 -8.5e-05 
v -0.0009123 0.00112375 -8.5e-05 
v -0.000754626 0.00141165 -8.5e-05 
v -0.000734535 0.00144367 -8.5e-05 
v -0.00089556 0.00115876 -8.5e-05 
v -0.000713085 0.00147479 -8.5e-05 
v -0.000827725 0.00128667 -8.5e-05 
v -0.000355 0.0011525 -8.5e-05 
v -0.00061454 0.00158924 -8.5e-05 
v -0.000586944 0.00161507 -8.5e-05 
v -0.000433781 0.00172522 -8.5e-05 
v -0.000400508 0.00174315 -8.5e-05 
v -0.000641 0.00156224 -8.5e-05 
v -0.000466253 0.00170586 -8.5e-05 
v -0.000558264 0.0016397 -8.5e-05 
v -0.00056 0.0011525 -8.5e-05 
v -0.00071 0.00147888 -8.5e-05 
v -0.000366495 0.00175965 -8.5e-05 
v -0.000528552 0.00166306 -8.5e-05 
v -0.000497862 0.00168513 -8.5e-05 
v -0.000666275 0.00153414 -8.5e-05 
v -0.000690318 0.00150497 -8.5e-05 
v -0.000355 0.00176462 -8.5e-05 
v -0.000322 0.0011525 -8.5e-05 
v -0.0002965 0.00178817 -8.5e-05 
v -0.000260648 0.00180015 -8.5e-05 
v -0.000331804 0.00177466 -8.5e-05 
v -0.000224314 0.00181058 -8.5e-05 
v -0.000322 0.00112375 -8.5e-05 
v -0.0002035 0.00181559 -8.5e-05 
v 0.00015047 0.0018267 -8.5e-05 
v 0.000187565 0.00181943 -8.5e-05 
v 0.000113096 0.00183237 -8.5e-05 
v 3.77919e-05 0.00183886 -8.5e-05 
v 7.55139e-05 0.00183642 -8.5e-05 
v -3.77919e-05 0.00183886 -8.5e-05 
v 1.21533e-18 0.00183967 -8.5e-05 
v -0.000113096 0.00183237 -8.5e-05 
v -7.55139e-05 0.00183642 -8.5e-05 
v -0.000187565 0.00181943 -8.5e-05 
v -0.00015047 0.0018267 -8.5e-05 
v 0.000322 0.0011525 -8.5e-05 
v 0.000224314 0.00181058 -8.5e-05 
v 0.000260648 0.00180015 -8.5e-05 
v 0.000331804 0.00177466 -8.5e-05 
v 0.000355 0.00176462 -8.5e-05 
v 0.0002965 0.00178817 -8.5e-05 
v 0.0002035 0.00181559 -8.5e-05 
v 0.000355 0.0011525 -8.5e-05 
v 0.000734535 0.00144367 -8.5e-05 
v 0.000754626 0.00141165 -8.5e-05 
v 0.00056 0.0011525 -8.5e-05 
v 0.000497862 0.00168513 -8.5e-05 
v 0.000528552 0.00166306 -8.5e-05 
v 0.000433781 0.00172522 -8.5e-05 
v 0.000466253 0.00170586 -8.5e-05 
v 0.000366495 0.00175965 -8.5e-05 
v 0.000713085 0.00147479 -8.5e-05 
v 0.000666275 0.00153414 -8.5e-05 
v 0.000690318 0.00150497 -8.5e-05 
v 0.000400508 0.00174315 -8.5e-05 
v 0.00061454 0.00158924 -8.5e-05 
v 0.000641 0.00156224 -8.5e-05 
v 0.000558264 0.0016397 -8.5e-05 
v 0.000586944 0.00161507 -8.5e-05 
v 0.00056 0.00112375 -8.5e-05 
v 0.000827725 0.00128667 -8.5e-05 
v 0.00089556 0.00115876 -8.5e-05 
v 0.0009123 0.00112375 -8.5e-05 
v 0.00056 0.0009825 -8.5e-05 
v 0.000958014 0.00102814 -8.5e-05 
v 0.000355 0.0009825 -8.5e-05 
v 0.00100697 0.00091375 -8.5e-05 
v 0.00101498 0.000895031 -8.5e-05 
v 0.00106635 0.000759668 -8.5e-05 
v 0.00111205 0.000622285 -8.5e-05 
v 0.001152 0.000483119 -8.5e-05 
v 0.00106117 0.000773317 -8.5e-05 
v 0.00118612 0.000342412 -8.5e-05 
v 0.00121435 0.000200407 -8.5e-05 
v 0.00123665 5.73496e-05 -8.5e-05 
v 0.00125298 -8.65114e-05 -8.5e-05 
v 0.00086 -0.0003875 -8.5e-05 
v 0.00126761 -0.000375648 -8.5e-05 
v 0.0012659 -0.000520422 -8.5e-05 
v 0.00126331 -0.000230927 -8.5e-05 
v 0.00036 -0.0003875 -8.5e-05 
v 0.00126065 -0.00019375 -8.5e-05 
v 0.00086 -0.00052875 -8.5e-05 
v 0.00126545 -0.00052875 -8.5e-05 
v 0.000395369 -0.00156686 -8.5e-05 
v 0.000381324 -0.00158302 -8.5e-05 
v 0.000366603 -0.00159856 -8.5e-05 
v 0.000500258 -0.00144061 -8.5e-05 
v 0.00036 -0.0005575 -8.5e-05 
v 0.000408712 -0.00155013 -8.5e-05 
v 0.000475683 -0.00146654 -8.5e-05 
v 0.000452207 -0.00149346 -8.5e-05 
v 0.00052589 -0.00141573 -8.5e-05 
v 0.00042987 -0.00152134 -8.5e-05 
v 0.000552534 -0.00139193 -8.5e-05 
v 0.000580145 -0.00136927 -8.5e-05 
v 0.000608674 -0.00134777 -8.5e-05 
v 0.000638072 -0.00132747 -8.5e-05 
v 0.000668289 -0.00130842 -8.5e-05 
v 0.000699272 -0.00129063 -8.5e-05 
v 0.000730967 -0.00127416 -8.5e-05 
v 0.00076332 -0.00125901 -8.5e-05 
v 0.000796275 -0.00124522 -8.5e-05 
v 0.000825916 -0.00123241 -8.5e-05 
v 0.000854983 -0.00121835 -8.5e-05 
v 0.000883425 -0.00120306 -8.5e-05 
v 0.000911189 -0.00118657 -8.5e-05 
v 0.000938224 -0.00116892 -8.5e-05 
v 0.000964482 -0.00115013 -8.5e-05 
v 0.000989915 -0.00113023 -8.5e-05 
v 0.00101448 -0.00110927 -8.5e-05 
v 0.00103812 -0.00108728 -8.5e-05 
v 0.00106081 -0.0010643 -8.5e-05 
v 0.00108249 -0.00104037 -8.5e-05 
v 0.00110314 -0.00101555 -8.5e-05 
v 0.0011227 -0.000989859 -8.5e-05 
v 0.00086 -0.0005575 -8.5e-05 
v 0.00122677 -0.000790138 -8.5e-05 
v 0.00121563 -0.000820444 -8.5e-05 
v 0.00124514 -0.000728239 -8.5e-05 
v 0.00123662 -0.000759384 -8.5e-05 
v 0.00125816 -0.000665 -8.5e-05 
v 0.00114116 -0.000963362 -8.5e-05 
v 0.00115846 -0.000936102 -8.5e-05 
v 0.0012032 -0.000850247 -8.5e-05 
v 0.00125232 -0.000696758 -8.5e-05 
v 0.00117459 -0.000908128 -8.5e-05 
v 0.00118951 -0.000879493 -8.5e-05 
v 0.00036 -0.00052875 -8.5e-05 
vn 0 0 -1 
vn 0 0 -1 
vn 0 0 -1 
vn 0 0 -1 
vn 0 0 -1 
vn 0 0 -1 
vn 0 0 -1 
vn 0 0 -1 
vn 0 0 -1 
vn 0 0 -1 
vn 0 0 -1 
vn 0 0 -1 
vn 0 0 -1 
vn 0 0 -1 
vn 0 0 -1 
vn 0 0 -1 
vn 0 0 -1 
vn 0 0 -1 
vn 0 0 -1 
vn 0 0 -1 
vn 0 0 -1 
vn 0 0 -1 
vn 0 0 -1 
vn 0 0 -1 
vn 0 0 -1 
vn 0 0 -1 
vn 0 0 -1 
vn 0 0 -1 
vn 0 0 -1 
vn 0 0 -1 
vn 0 0 -1 
vn 0 0 -1 
vn 0 0 -1 
vn 0 0 -1 
vn 0 0 -1 
vn 0 0 -1 
vn 0 0 -1 
vn 0 0 -1 
vn 0 0 -1 
vn 0 0 -1 
vn 0 0 -1 
vn 0 0 -1 
vn 0 0 -1 
vn 0 0 -1 
vn 0 0 -1 
vn 0 0 -1 
vn 0 0 -1 
vn 0 0 -1 
vn 0 0 -1 
vn 0 0 -1 
vn 0 0 -1 
vn 0 0 -1 
vn 0 0 -1 
vn 0 0 -1 
vn 0 0 -1 
vn 0 0 -1 
vn 0 0 -1 
vn 0 0 -1 
vn 0 0 -1 
vn 0 0 -1 
vn 0 0 -1 
vn 0 0 -1 
vn 0 0 -1 
vn 0 0 -1 
vn 0 0 -1 
vn 0 0 -1 
vn 0 0 -1 
vn 0 0 -1 
vn 0 0 -1 
vn 0 0 -1 
vn 0 0 -1 
vn 0 0 -1 
vn 0 0 -1 
vn 0 0 -1 
vn 0 0 -1 
vn 0 0 -1 
vn 0 0 -1 
vn 0 0 -1 
vn 0 0 -1 
vn 0 0 -1 
vn 0 0 -1 
vn 0 0 -1 
vn 0 0 -1 
vn 0 0 -1 
vn 0 0 -1 
vn 0 0 -1 
vn 0 0 -1 
vn 0 0 -1 
vn 0 0 -1 
vn 0 0 -1 
vn 0 0 -1 
vn 0 0 -1 
vn 0 0 -1 
vn 0 0 -1 
vn 0 0 -1 
vn 0 0 -1 
vn 0 0 -1 
vn 0 0 -1 
vn 0 0 -1 
vn 0 0 -1 
vn 0 0 -1 
vn 0 0 -1 
vn 0 0 -1 
vn 0 0 -1 
vn 0 0 -1 
vn 0 0 -1 
vn 0 0 -1 
vn 0 0 -1 
vn 0 0 -1 
vn 0 0 -1 
vn 0 0 -1 
vn 0 0 -1 
vn 0 0 -1 
vn 0 0 -1 
vn 0 0 -1 
vn 0 0 -1 
vn 0 0 -1 
vn 0 0 -1 
vn 0 0 -1 
vn 0 0 -1 
vn 0 0 -1 
vn 0 0 -1 
vn 0 0 -1 
vn 0 0 -1 
vn 0 0 -1 
vn 0 0 -1 
vn 0 0 -1 
vn 0 0 -1 
vn 0 0 -1 
vn 0 0 -1 
vn 0 0 -1 
vn 0 0 -1 
vn 0 0 -1 
vn 0 0 -1 
vn 0 0 -1 
vn 0 0 -1 
vn 0 0 -1 
vn 0 0 -1 
vn 0 0 -1 
vn 0 0 -1 
vn 0 0 -1 
vn 0 0 -1 
vn 0 0 -1 
vn 0 0 -1 
vn 0 0 -1 
vn 0 0 -1 
vn 0 0 -1 
vn 0 0 -1 
vn 0 0 -1 
vn 0 0 -1 
vn 0 0 -1 
vn 0 0 -1 
vn 0 0 -1 
vn 0 0 -1 
vn 0 0 -1 
vn 0 0 -1 
vn 0 0 -1 
vn 0 0 -1 
vn 0 0 -1 
vn 0 0 -1 
vn 0 0 -1 
vn 0 0 -1 
vn 0 0 -1 
vn 0 0 -1 
vn 0 0 -1 
vn 0 0 -1 
vn 0 0 -1 
vn 0 0 -1 
vn 0 0 -1 
vn 0 0 -1 
vn 0 0 -1 
vn 0 0 -1 
vn 0 0 -1 
vn 0 0 -1 
vn 0 0 -1 
vn 0 0 -1 
vn 0 0 -1 
vn 0 0 -1 
vn 0 0 -1 
vn 0 0 -1 
vn 0 0 -1 
vn 0 0 -1 
vn 0 0 -1 
vn 0 0 -1 
vn 0 0 -1 
vn 0 0 -1 
vn 0 0 -1 
vn 0 0 -1 
vn 0 0 -1 
vn 0 0 -1 
vn 0 0 -1 
vn 0 0 -1 
vn 0 0 -1 
vn 0 0 -1 
vn 0 0 -1 
vn 0 0 -1 
vn 0 0 -1 
vn 0 0 -1 
vn 0 0 -1 
vn 0 0 -1 
vn 0 0 -1 
vn 0 0 -1 
vn 0 0 -1 
vn 0 0 -1 
vn 0 0 -1 
vn 0 0 -1 
vn 0 0 -1 
vn 0 0 -1 
vn 0 0 -1 
vn 0 0 -1 
vn 0 0 -1 
vn 0 0 -1 
vn 0 0 -1 
vn 0 0 -1 
vn 0 0 -1 
vn 0 0 -1 
vn 0 0 -1 
vn 0 0 -1 
vn 0 0 -1 
vn 0 0 -1 
vn 0 0 -1 
vn 0 0 -1 
vn 0 0 -1 
vn 0 0 -1 
vn 0 0 -1 
vn 0 0 -1 
vn 0 0 -1 
vn 0 0 -1 
vn 0 0 -1 
vn 0 0 -1 
vn 0 0 -1 
vn 0 0 -1 
vn 0 0 -1 
vn 0 0 -1 
vn 0 0 -1 
vn 0 0 -1 
vn 0 0 -1 
vn 0 0 -1 
vn 0 0 -1 
vn 0 0 -1 
vn 0 0 -1 
vn 0 0 -1 
vn 0 0 -1 
vn 0 0 -1 
vn 0 0 -1 
vn 0 0 -1 
vn 0 0 -1 
vn 0 0 -1 
vn 0 0 -1 
vn 0 0 -1 
vn 0 0 -1 
vn 0 0 -1 
vn 0 0 -1 
vn 0 0 -1 
vn 0 0 -1 
vn 0 0 -1 
vn 0 0 -1 
vn 0 0 -1 
vn 0 0 -1 
vn 0 0 -1 
vn 0 0 -1 
vn 0 0 -1 
vn 0 0 -1 
vn 0 0 -1 
vn 0 0 -1 
vn 0 0 -1 
vn 0 0 -1 
vn 0 0 -1 
vn 0 0 -1 
vn 0 0 -1 
vn 0 0 -1 
vn 0 0 -1 
vn 0 0 -1 
vn 0 0 -1 
vn 0 0 -1 
vn 0 0 -1 
vn 0 0 -1 
vn 0 0 -1 
vn 0 0 -1 
vn 0 0 -1 
vn 0 0 -1 
vn 0 0 -1 
vn 0 0 -1 
vn 0 0 -1 
vn 0 0 -1 
vn 0 0 -1 
vn 0 0 -1 
vn 0 0 -1 
vn 0 0 -1 
vn 0 0 -1 
vn 0 0 -1 
vn 0 0 -1 
vn 0 0 -1 
f 746//746 747//747 748//748 
f 747//747 749//749 750//750 
f 751//751 752//752 753//753 
f 754//754 748//748 755//755 
f 756//756 755//755 757//757 
f 755//755 758//758 759//759 
f 760//760 761//761 762//762 
f 757//757 759//759 763//763 
f 764//764 762//762 765//765 
f 759//759 758//758 766//766 
f 760//760 767//767 766//766 
f 766//766 758//758 760//760 
f 764//764 768//768 767//767 
f 767//767 760//760 764//764 
f 769//769 763//763 770//770 
f 759//759 771//771 770//770 
f 764//764 769//769 772//772 
f 770//770 763//763 759//759 
f 770//770 772//772 769//769 
f 773//773 774//774 760//760 
f 753//753 775//775 776//776 
f 753//753 761//761 775//775 
f 760//760 774//774 775//775 
f 775//775 761//761 760//760 
f 750//750 777//777 778//778 
f 777//777 776//776 778//778 
f 748//748 750//750 779//779 
f 758//758 755//755 780//780 
f 779//779 780//780 748//748 
f 780//780 755//755 748//748 
f 751//751 777//777 781//781 
f 777//777 750//750 782//782 
f 782//782 781//781 777//777 
f 749//749 783//783 782//782 
f 782//782 750//750 749//749 
f 784//784 785//785 786//786 
f 751//751 787//787 785//785 
f 749//749 788//788 786//786 
f 785//785 784//784 751//751 
f 786//786 788//788 784//784 
f 752//752 751//751 789//789 
f 784//784 790//790 789//789 
f 789//789 751//751 784//784 
f 747//747 746//746 791//791 
f 792//792 793//793 791//791 
f 791//791 746//746 792//792 
f 788//788 749//749 794//794 
f 747//747 795//795 794//794 
f 794//794 749//749 747//747 
f 796//796 757//757 797//797 
f 798//798 799//799 797//797 
f 797//797 757//757 798//798 
f 769//769 800//800 801//801 
f 769//769 802//802 803//803 
f 769//769 765//765 804//804 
f 801//801 805//805 769//769 
f 769//769 806//806 807//807 
f 803//803 808//808 769//769 
f 804//804 809//809 769//769 
f 807//807 800//800 769//769 
f 809//809 802//802 769//769 
f 808//808 806//806 769//769 
f 769//769 810//810 811//811 
f 769//769 812//812 813//813 
f 769//769 814//814 810//810 
f 769//769 815//815 812//812 
f 769//769 816//816 817//817 
f 769//769 818//818 819//819 
f 769//769 820//820 814//814 
f 769//769 821//821 815//815 
f 819//819 816//816 769//769 
f 769//769 822//822 820//820 
f 769//769 823//823 824//824 
f 817//817 821//821 769//769 
f 769//769 825//825 826//826 
f 824//824 822//822 769//769 
f 826//826 818//818 769//769 
f 769//769 827//827 828//828 
f 811//811 829//829 769//769 
f 769//769 830//830 825//825 
f 829//829 827//827 769//769 
f 828//828 830//830 769//769 
f 763//763 831//831 832//832 
f 763//763 833//833 834//834 
f 832//832 835//835 763//763 
f 763//763 836//836 837//837 
f 763//763 838//838 839//839 
f 835//835 833//833 763//763 
f 839//839 836//836 763//763 
f 763//763 840//840 831//831 
f 834//834 838//838 763//763 
f 763//763 813//813 840//840 
f 841//841 842//842 843//843 
f 841//841 844//844 845//845 
f 841//841 837//837 842//842 
f 841//841 846//846 847//847 
f 841//841 848//848 844//844 
f 843//843 849//849 841//841 
f 841//841 850//850 846//846 
f 845//845 851//851 841//841 
f 841//841 852//852 853//853 
f 849//849 854//854 841//841 
f 851//851 850//850 841//841 
f 841//841 855//855 856//856 
f 854//854 852//852 841//841 
f 856//856 848//848 841//841 
f 853//853 857//857 841//841 
f 798//798 837//837 841//841 
f 857//857 855//855 841//841 
f 847//847 858//858 841//841 
f 858//858 859//859 860//860 
f 858//858 861//861 862//862 
f 863//863 864//864 865//865 
f 862//862 859//859 858//858 
f 858//858 866//866 867//867 
f 860//860 863//863 858//858 
f 858//858 868//868 869//869 
f 858//858 870//870 871//871 
f 858//858 872//872 866//866 
f 858//858 873//873 874//874 
f 869//869 861//861 858//858 
f 858//858 875//875 876//876 
f 867//867 870//870 858//858 
f 874//874 877//877 858//858 
f 878//878 879//879 865//865 
f 876//876 868//868 858//858 
f 877//877 872//872 858//858 
f 865//865 880//880 881//881 
f 871//871 875//875 858//858 
f 865//865 882//882 880//880 
f 858//858 883//883 873//873 
f 865//865 884//884 882//882 
f 865//865 864//864 885//885 
f 858//858 886//886 883//883 
f 865//865 887//887 884//884 
f 885//885 888//888 865//865 
f 858//858 847//847 886//886 
f 888//888 887//887 865//865 
f 865//865 881//881 878//878 
f 889//889 879//879 890//890 
f 890//890 891//891 889//889 
f 891//891 892//892 889//889 
f 879//879 878//878 890//890 
f 796//796 893//893 889//889 
f 889//889 894//894 796//796 
f 796//796 895//895 896//896 
f 796//796 894//894 895//895 
f 756//756 897//897 898//898 
f 898//898 754//754 756//756 
f 756//756 899//899 900//900 
f 898//898 901//901 754//754 
f 756//756 896//896 899//899 
f 900//900 897//897 756//756 
f 754//754 902//902 903//903 
f 746//746 904//904 905//905 
f 746//746 903//903 904//904 
f 792//792 906//906 907//907 
f 792//792 905//905 908//908 
f 907//907 909//909 792//792 
f 908//908 910//910 792//792 
f 910//910 906//906 792//792 
f 911//911 912//912 913//913 
f 911//911 914//914 915//915 
f 911//911 916//916 912//912 
f 911//911 917//917 914//914 
f 913//913 918//918 911//911 
f 911//911 919//919 920//920 
f 915//915 921//921 911//911 
f 911//911 922//922 923//923 
f 911//911 924//924 916//916 
f 920//920 925//925 911//911 
f 923//923 917//917 911//911 
f 925//925 924//924 911//911 
f 792//792 920//920 919//919 
f 918//918 922//922 911//911 
f 921//921 926//926 911//911 
f 927//927 928//928 929//929 
f 927//927 930//930 928//928 
f 929//929 931//931 927//927 
f 927//927 911//911 926//926 
f 926//926 930//930 927//927 
f 788//788 932//932 927//927 
f 927//927 933//933 788//788 
f 784//784 934//934 935//935 
f 784//784 936//936 934//934 
f 784//784 937//937 938//938 
f 788//788 939//939 940//940 
f 938//938 936//936 784//784 
f 940//940 784//784 788//788 
f 940//940 937//937 784//784 
f 788//788 941//941 942//942 
f 788//788 943//943 944//944 
f 942//942 939//939 788//788 
f 788//788 933//933 943//943 
f 944//944 941//941 788//788 
f 945//945 946//946 947//947 
f 945//945 948//948 949//949 
f 947//947 950//950 945//945 
f 950//950 948//948 945//945 
f 784//784 951//951 945//945 
f 945//945 951//951 946//946 
f 949//949 952//952 945//945 
f 953//953 954//954 955//955 
f 952//952 956//956 957//957 
f 952//952 958//958 959//959 
f 952//952 949//949 960//960 
f 952//952 961//961 953//953 
f 952//952 962//962 963//963 
f 959//959 956//956 952//952 
f 960//960 964//964 952//952 
f 963//963 961//961 952//952 
f 952//952 965//965 966//966 
f 952//952 967//967 968//968 
f 964//964 958//958 952//952 
f 966//966 962//962 952//952 
f 957//957 967//967 952//952 
f 969//969 970//970 971//971 
f 970//970 969//969 955//955 
f 968//968 965//965 952//952 
f 955//955 954//954 970//970 
f 971//971 972//972 969//969 
f 973//973 969//969 972//972 
f 972//972 974//974 973//973 
f 752//752 975//975 973//973 
f 973//973 976//976 752//752 
f 753//753 752//752 976//976 
f 976//976 977//977 753//753 
f 761//761 753//753 978//978 
f 761//761 979//979 980//980 
f 753//753 981//981 978//978 
f 761//761 982//982 983//983 
f 978//978 979//979 761//761 
f 980//980 982//982 761//761 
f 762//762 761//761 984//984 
f 984//984 985//985 762//762 
f 986//986 987//987 988//988 
f 986//986 989//989 987//987 
f 765//765 762//762 990//990 
f 762//762 991//991 986//986 
f 986//986 991//991 989//989 
f 986//986 990//990 762//762 
f 988//988 992//992 986//986 
f 988//988 993//993 992//992 
f 765//765 994//994 995//995 
f 995//995 996//996 765//765 
f 997//997 765//765 998//998 
f 765//765 999//999 994//994 
f 765//765 1000//1000 1001//1001 
f 998//998 1002//1002 997//997 
f 765//765 1003//1003 999//999 
f 997//997 1000//1000 765//765 
f 1001//1001 1003//1003 765//765 
f 996//996 804//804 765//765 
f 998//998 1004//1004 1002//1002 
f 998//998 1005//1005 1004//1004 
f 998//998 1006//1006 1005//1005 
f 998//998 1007//1007 1006//1006 
f 998//998 1008//1008 1007//1007 
f 998//998 1009//1009 1008//1008 
f 998//998 1010//1010 1009//1009 
f 998//998 1011//1011 1010//1010 
f 998//998 1012//1012 1011//1011 
f 998//998 1013//1013 1012//1012 
f 998//998 1014//1014 1013//1013 
f 998//998 1015//1015 1014//1014 
f 998//998 1016//1016 1015//1015 
f 998//998 1017//1017 1016//1016 
f 998//998 1018//1018 1017//1017 
f 998//998 1019//1019 1018//1018 
f 998//998 1020//1020 1019//1019 
f 998//998 1021//1021 1020//1020 
f 998//998 1022//1022 1021//1021 
f 998//998 1023//1023 1022//1022 
f 998//998 1024//1024 1023//1023 
f 998//998 1025//1025 1024//1024 
f 1026//1026 1027//1027 1028//1028 
f 1026//1026 1029//1029 1030//1030 
f 993//993 1031//1031 1026//1026 
f 998//998 1032//1032 1025//1025 
f 1030//1030 1027//1027 1026//1026 
f 1026//1026 992//992 993//993 
f 998//998 1033//1033 1032//1032 
f 1028//1028 1034//1034 1026//1026 
f 1031//1031 1035//1035 1026//1026 
f 998//998 1036//1036 1033//1033 
f 1035//1035 1029//1029 1026//1026 
f 998//998 1037//1037 1036//1036 
f 998//998 1026//1026 1037//1037 
f 765//765 1038//1038 998//998 
f 1034//1034 1037//1037 1026//1026 
f 990//990 1038//1038 765//765 
f 985//985 991//991 762//762 
f 983//983 984//984 761//761 
f 977//977 981//981 753//753 
f 974//974 976//976 973//973 
f 955//955 952//952 953//953 
f 945//945 790//790 784//784 
f 935//935 951//951 784//784 
f 931//931 933//933 927//927 
f 919//919 793//793 792//792 
f 909//909 920//920 792//792 
f 905//905 792//792 746//746 
f 903//903 746//746 754//754 
f 901//901 902//902 754//754 
f 896//896 756//756 796//796 
f 892//892 894//894 889//889 
f 865//865 858//858 863//863 
f 841//841 799//799 798//798 
f 837//837 798//798 763//763 
f 813//813 763//763 769//769 
f 805//805 823//823 769//769 
f 797//797 893//893 796//796 
f 794//794 932//932 788//788 
f 791//791 795//795 747//747 
f 789//789 975//975 752//752 
f 786//786 783//783 749//749 
f 781//781 787//787 751//751 
f 780//780 773//773 758//758 
f 778//778 779//779 750//750 
f 776//776 777//777 753//753 
f 760//760 758//758 773//773 
f 772//772 768//768 764//764 
f 766//766 771//771 759//759 
f 765//765 769//769 764//764 
f 763//763 798//798 757//757 
f 762//762 764//764 760//760 
f 759//759 757//757 755//755 
f 757//757 796//796 756//756 
f 755//755 756//756 754//754 
f 753//753 777//777 751//751 
f 750//750 748//748 747//747 
f 748//748 754//754 746//746 
o mesh940
v -0.00036 -0.0003875 8.5e-05 
v -0.00071 -0.0003875 8.5e-05 
v -0.00071 -0.0003875 -8.5e-05 
v -0.00086 -0.0003875 -8.5e-05 
v -0.00086 -0.0003875 8.5e-05 
v -0.00036 -0.0003875 -8.5e-05 
vn 0 -1 0 
vn 0 -1 0 
vn 0 -1 0 
vn 0 -1 0 
vn 0 -1 0 
vn 0 -1 0 
f 1039//1039 1040//1040 1041//1041 
f 1042//1042 1041//1041 1040//1040 
f 1040//1040 1043//1043 1042//1042 
f 1041//1041 1044//1044 1039//1039 
o mesh941
v -0.00036 -0.0005575 8.5e-05 
v -0.00036 -0.00052875 8.5e-05 
v -0.00036 -0.00052875 -8.5e-05 
v -0.00036 -0.0003875 -8.5e-05 
v -0.00036 -0.0003875 8.5e-05 
v -0.00036 -0.0005575 -8.5e-05 
vn -1 0 0 
vn -1 0 0 
vn -1 0 0 
vn -1 0 0 
vn -1 0 0 
vn -1 0 0 
f 1045//1045 1046//1046 1047//1047 
f 1048//1048 1047//1047 1046//1046 
f 1046//1046 1049//1049 1048//1048 
f 1047//1047 1050//1050 1045//1045 
o mesh942
v -0.00086 -0.0005575 8.5e-05 
v -0.00071 -0.0005575 8.5e-05 
v -0.00071 -0.0005575 -8.5e-05 
v -0.00036 -0.0005575 -8.5e-05 
v -0.00036 -0.0005575 8.5e-05 
v -0.00086 -0.0005575 -8.5e-05 
vn 0 1 0 
vn 0 1 0 
vn 0 1 0 
vn 0 1 0 
vn 0 1 0 
vn 0 1 0 
f 1051//1051 1052//1052 1053//1053 
f 1054//1054 1053//1053 1052//1052 
f 1052//1052 1055//1055 1054//1054 
f 1053//1053 1056//1056 1051//1051 
o mesh943
v -0.000322 0.0011525 8.5e-05 
v -0.000355 0.0011525 8.5e-05 
v -0.000355 0.0011525 -8.5e-05 
v -0.00056 0.0011525 -8.5e-05 
v -0.00056 0.0011525 8.5e-05 
v -0.000322 0.0011525 -8.5e-05 
vn 0 -1 0 
vn 0 -1 0 
vn 0 -1 0 
vn 0 -1 0 
vn 0 -1 0 
vn 0 -1 0 
f 1057//1057 1058//1058 1059//1059 
f 1060//1060 1059//1059 1058//1058 
f 1058//1058 1061//1061 1060//1060 
f 1059//1059 1062//1062 1057//1057 
o mesh944
v -0.000322 0.0009825 8.5e-05 
v -0.000322 0.00112375 8.5e-05 
v -0.000322 0.00112375 -8.5e-05 
v -0.000322 0.0011525 -8.5e-05 
v -0.000322 0.0011525 8.5e-05 
v -0.000322 0.0009825 -8.5e-05 
vn -1 0 0 
vn -1 0 0 
vn -1 0 0 
vn -1 0 0 
vn -1 0 0 
vn -1 0 0 
f 1063//1063 1064//1064 1065//1065 
f 1066//1066 1065//1065 1064//1064 
f 1064//1064 1067//1067 1066//1066 
f 1065//1065 1068//1068 1063//1063 
o mesh945
v -0.00056 0.0009825 8.5e-05 
v -0.000355 0.0009825 8.5e-05 
v -0.000355 0.0009825 -8.5e-05 
v -0.000322 0.0009825 -8.5e-05 
v -0.000322 0.0009825 8.5e-05 
v -0.00056 0.0009825 -8.5e-05 
vn 0 1 0 
vn 0 1 0 
vn 0 1 0 
vn 0 1 0 
vn 0 1 0 
vn 0 1 0 
f 1069//1069 1070//1070 1071//1071 
f 1072//1072 1071//1071 1070//1070 
f 1070//1070 1073//1073 1072//1072 
f 1071//1071 1074//1074 1069//1069 
o mesh946
v 0.00056 0.0011525 8.5e-05 
v 0.000355 0.0011525 8.5e-05 
v 0.000355 0.0011525 -8.5e-05 
v 0.000322 0.0011525 -8.5e-05 
v 0.000322 0.0011525 8.5e-05 
v 0.00056 0.0011525 -8.5e-05 
vn 0 -1 0 
vn 0 -1 0 
vn 0 -1 0 
vn 0 -1 0 
vn 0 -1 0 
vn 0 -1 0 
f 1075//1075 1076//1076 1077//1077 
f 1078//1078 1077//1077 1076//1076 
f 1076//1076 1079//1079 1078//1078 
f 1077//1077 1080//1080 1075//1075 
o mesh947
v 0.00056 0.0009825 8.5e-05 
v 0.00056 0.00112375 8.5e-05 
v 0.00056 0.00112375 -8.5e-05 
v 0.00056 0.0011525 -8.5e-05 
v 0.00056 0.0011525 8.5e-05 
v 0.00056 0.0009825 -8.5e-05 
vn -1 0 0 
vn -1 0 0 
vn -1 0 0 
vn -1 0 0 
vn -1 0 0 
vn -1 0 0 
f 1081//1081 1082//1082 1083//1083 
f 1084//1084 1083//1083 1082//1082 
f 1082//1082 1085//1085 1084//1084 
f 1083//1083 1086//1086 1081//1081 
o mesh948
v 0.000322 0.0009825 8.5e-05 
v 0.000355 0.0009825 8.5e-05 
v 0.000355 0.0009825 -8.5e-05 
v 0.00056 0.0009825 -8.5e-05 
v 0.00056 0.0009825 8.5e-05 
v 0.000322 0.0009825 -8.5e-05 
vn 0 1 0 
vn 0 1 0 
vn 0 1 0 
vn 0 1 0 
vn 0 1 0 
vn 0 1 0 
f 1087//1087 1088//1088 1089//1089 
f 1090//1090 1089//1089 1088//1088 
f 1088//1088 1091//1091 1090//1090 
f 1089//1089 1092//1092 1087//1087 
o mesh949
v -8.5e-05 0.001095 8.5e-05 
v -8.5e-05 0.00091375 8.5e-05 
v -8.5e-05 0.00091375 -8.5e-05 
v -8.5e-05 0.000845 -8.5e-05 
v -8.5e-05 0.000845 8.5e-05 
v -8.5e-05 0.001095 -8.5e-05 
vn 1 0 0 
vn 1 0 0 
vn 1 0 0 
vn 1 0 0 
vn 1 0 0 
vn 1 0 0 
f 1093//1093 1094//1094 1095//1095 
f 1096//1096 1095//1095 1094//1094 
f 1094//1094 1097//1097 1096//1096 
f 1095//1095 1098//1098 1093//1093 
o mesh950
v -8.5e-05 0.001095 8.5e-05 
v -8.5e-05 0.001095 -8.5e-05 
v 8.5e-05 0.001095 -8.5e-05 
v 8.5e-05 0.001095 8.5e-05 
vn 0 -1 0 
vn 0 -1 0 
vn 0 -1 0 
vn 0 -1 0 
f 1099//1099 1100//1100 1101//1101 
f 1101//1101 1102//1102 1099//1099 
o mesh951
v 8.5e-05 0.000845 8.5e-05 
v 8.5e-05 0.00091375 8.5e-05 
v 8.5e-05 0.00091375 -8.5e-05 
v 8.5e-05 0.001095 -8.5e-05 
v 8.5e-05 0.001095 8.5e-05 
v 8.5e-05 0.000845 -8.5e-05 
vn -1 0 0 
vn -1 0 0 
vn -1 0 0 
vn -1 0 0 
vn -1 0 0 
vn -1 0 0 
f 1103//1103 1104//1104 1105//1105 
f 1106//1106 1105//1105 1104//1104 
f 1104//1104 1107//1107 1106//1106 
f 1105//1105 1108//1108 1103//1103 
o mesh952
v -0.00035 9.54334e-05 8.5e-05 
v -0.0002035 9.54334e-05 8.5e-05 
v -0.0002035 9.54334e-05 -8.5e-05 
v 0.0002035 9.54334e-05 -8.5e-05 
v 0.0002035 9.54334e-05 8.5e-05 
v 0.00035 9.54334e-05 -8.5e-05 
v 0.00035 9.54334e-05 8.5e-05 
v -0.00035 9.54334e-05 -8.5e-05 
vn 0 1 0 
vn 0 1 0 
vn 0 1 0 
vn 0 1 0 
vn 0 1 0 
vn 0 1 0 
vn 0 1 0 
vn 0 1 0 
f 1109//1109 1110//1110 1111//1111 
f 1112//1112 1111//1111 1110//1110 
f 1110//1110 1113//1113 1112//1112 
f 1114//1114 1112//1112 1113//1113 
f 1113//1113 1115//1115 1114//1114 
f 1111//1111 1116//1116 1109//1109 
o mesh953
v -4.06576e-19 0.000701633 8.5e-05 
v -0.0002035 0.000349171 8.5e-05 
v -0.0002035 0.000349171 -8.5e-05 
v -0.00035 9.54334e-05 8.5e-05 
v -0.00035 9.54334e-05 -8.5e-05 
v -4.06576e-19 0.000701633 -8.5e-05 
vn 0.866019 -0.500011 0 
vn 0.866019 -0.500011 0 
vn 0.866019 -0.500011 0 
vn 0.866019 -0.500011 0 
vn 0.866019 -0.500011 0 
vn 0.866019 -0.500011 0 
f 1117//1117 1118//1118 1119//1119 
f 1120//1120 1121//1121 1119//1119 
f 1119//1119 1118//1118 1120//1120 
f 1119//1119 1122//1122 1117//1117 
o mesh954
v 8.5e-05 -0.0005 8.5e-05 
v 8.5e-05 -0.00019375 8.5e-05 
v 8.5e-05 -0.00019375 -8.5e-05 
v 8.5e-05 0 -8.5e-05 
v 8.5e-05 0 8.5e-05 
v 8.5e-05 -0.0005 -8.5e-05 
vn -1 0 0 
vn -1 0 0 
vn -1 0 0 
vn -1 0 0 
vn -1 0 0 
vn -1 0 0 
f 1123//1123 1124//1124 1125//1125 
f 1126//1126 1125//1125 1124//1124 
f 1124//1124 1127//1127 1126//1126 
f 1125//1125 1128//1128 1123//1123 
o mesh955
v 8.5e-05 -0.0005 8.5e-05 
v 8.5e-05 -0.0005 -8.5e-05 
v -8.5e-05 -0.0005 -8.5e-05 
v -8.5e-05 -0.0005 8.5e-05 
vn 0 1 0 
vn 0 1 0 
vn 0 1 0 
vn 0 1 0 
f 1129//1129 1130//1130 1131//1131 
f 1131//1131 1132//1132 1129//1129 
o mesh956
v -8.5e-05 0 8.5e-05 
v -8.5e-05 -0.00019375 8.5e-05 
v -8.5e-05 -0.00019375 -8.5e-05 
v -8.5e-05 -0.0005 -8.5e-05 
v -8.5e-05 -0.0005 8.5e-05 
v -8.5e-05 0 -8.5e-05 
vn 1 0 0 
vn 1 0 0 
vn 1 0 0 
vn 1 0 0 
vn 1 0 0 
vn 1 0 0 
f 1133//1133 1134//1134 1135//1135 
f 1136//1136 1135//1135 1134//1134 
f 1134//1134 1137//1137 1136//1136 
f 1135//1135 1138//1138 1133//1133 
o mesh957
v 0.00036 -0.0003875 8.5e-05 
v 0.00036 -0.0003875 -8.5e-05 
v 0.00086 -0.0003875 -8.5e-05 
v 0.00086 -0.0003875 8.5e-05 
vn 0 -1 0 
vn 0 -1 0 
vn 0 -1 0 
vn 0 -1 0 
f 1139//1139 1140//1140 1141//1141 
f 1141//1141 1142//1142 1139//1139 
o mesh958
v 0.00086 -0.0005575 8.5e-05 
v 0.00086 -0.00052875 8.5e-05 
v 0.00086 -0.00052875 -8.5e-05 
v 0.00086 -0.0003875 -8.5e-05 
v 0.00086 -0.0003875 8.5e-05 
v 0.00086 -0.0005575 -8.5e-05 
vn -1 0 0 
vn -1 0 0 
vn -1 0 0 
vn -1 0 0 
vn -1 0 0 
vn -1 0 0 
f 1143//1143 1144//1144 1145//1145 
f 1146//1146 1145//1145 1144//1144 
f 1144//1144 1147//1147 1146//1146 
f 1145//1145 1148//1148 1143//1143 
o mesh959
v 0.00086 -0.0005575 8.5e-05 
v 0.00086 -0.0005575 -8.5e-05 
v 0.00036 -0.0005575 -8.5e-05 
v 0.00036 -0.0005575 8.5e-05 
vn 0 1 0 
vn 0 1 0 
vn 0 1 0 
vn 0 1 0 
f 1149//1149 1150//1150 1151//1151 
f 1151//1151 1152//1152 1149//1149 
o mesh960
v -0.00086 -0.0003875 8.5e-05 
v -0.00086 -0.00052875 8.5e-05 
v -0.00086 -0.00052875 -8.5e-05 
v -0.00086 -0.0005575 -8.5e-05 
v -0.00086 -0.0005575 8.5e-05 
v -0.00086 -0.0003875 -8.5e-05 
vn 1 0 0 
vn 1 0 0 
vn 1 0 0 
vn 1 0 0 
vn 1 0 0 
vn 1 0 0 
f 1153//1153 1154//1154 1155//1155 
f 1156//1156 1155//1155 1154//1154 
f 1154//1154 1157//1157 1156//1156 
f 1155//1155 1158//1158 1153//1153 
o mesh961
v -0.00056 0.0011525 8.5e-05 
v -0.00056 0.00112375 8.5e-05 
v -0.00056 0.00112375 -8.5e-05 
v -0.00056 0.0009825 -8.5e-05 
v -0.00056 0.0009825 8.5e-05 
v -0.00056 0.0011525 -8.5e-05 
vn 1 0 0 
vn 1 0 0 
vn 1 0 0 
vn 1 0 0 
vn 1 0 0 
vn 1 0 0 
f 1159//1159 1160//1160 1161//1161 
f 1162//1162 1161//1161 1160//1160 
f 1160//1160 1163//1163 1162//1162 
f 1161//1161 1164//1164 1159//1159 
o mesh962
v 0.000322 0.0011525 8.5e-05 
v 0.000322 0.00112375 8.5e-05 
v 0.000322 0.00112375 -8.5e-05 
v 0.000322 0.0009825 -8.5e-05 
v 0.000322 0.0009825 8.5e-05 
v 0.000322 0.0011525 -8.5e-05 
vn 1 0 0 
vn 1 0 0 
vn 1 0 0 
vn 1 0 0 
vn 1 0 0 
vn 1 0 0 
f 1165//1165 1166//1166 1167//1167 
f 1168//1168 1167//1167 1166//1166 
f 1166//1166 1169//1169 1168//1168 
f 1167//1167 1170//1170 1165//1165 
o mesh963
v 8.5e-05 0.000845 8.5e-05 
v 8.5e-05 0.000845 -8.5e-05 
v -8.5e-05 0.000845 -8.5e-05 
v -8.5e-05 0.000845 8.5e-05 
vn 0 1 0 
vn 0 1 0 
vn 0 1 0 
vn 0 1 0 
f 1171//1171 1172//1172 1173//1173 
f 1173//1173 1174//1174 1171//1171 
o mesh964
v 0.00035 9.54334e-05 -8.5e-05 
v 0.00035 9.54334e-05 8.5e-05 
v 0.0002035 0.000349171 8.5e-05 
v -4.06576e-19 0.000701633 8.5e-05 
v -4.06576e-19 0.000701633 -8.5e-05 
v 0.0002035 0.000349171 -8.5e-05 
vn -0.866019 -0.500011 0 
vn -0.866019 -0.500011 0 
vn -0.866019 -0.500011 0 
vn -0.866019 -0.500011 0 
vn -0.866019 -0.500011 0 
vn -0.866019 -0.500011 0 
f 1175//1175 1176//1176 1177//1177 
f 1178//1178 1179//1179 1180//1180 
f 1180//1180 1177//1177 1178//1178 
f 1177//1177 1180//1180 1175//1175 
o mesh965
v -8.5e-05 0 8.5e-05 
v -8.5e-05 0 -8.5e-05 
v 8.5e-05 0 -8.5e-05 
v 8.5e-05 0 8.5e-05 
vn 0 -1 0 
vn 0 -1 0 
vn 0 -1 0 
vn 0 -1 0 
f 1181//1181 1182//1182 1183//1183 
f 1183//1183 1184//1184 1181//1181 
o mesh966
v 0.00036 -0.0003875 8.5e-05 
v 0.00036 -0.00052875 8.5e-05 
v 0.00036 -0.00052875 -8.5e-05 
v 0.00036 -0.0005575 -8.5e-05 
v 0.00036 -0.0005575 8.5e-05 
v 0.00036 -0.0003875 -8.5e-05 
vn 1 0 0 
vn 1 0 0 
vn 1 0 0 
vn 1 0 0 
vn 1 0 0 
vn 1 0 0 
f 1185//1185 1186//1186 1187//1187 
f 1188//1188 1187//1187 1186//1186 
f 1186//1186 1189//1189 1188//1188 
f 1187//1187 1190//1190 1185//1185 
