# OBJ generated by ONSHAPE BY PTC INC, 1.215 Units = meters
mtllib Part_1_6.mtl
g Part 1
usemtl 0.301961_0.301961_0.301961_0.000000_0.000000
o mesh852
v 0.000720326 -0.0012795 -8.5e-05 
v 0.000796275 -0.00124522 -8.5e-05 
v 0.000796275 -0.00124522 8.5e-05 
v 0.000648056 -0.00132098 -8.5e-05 
v 0.000720326 -0.0012795 8.5e-05 
v 0.000580145 -0.00136927 -8.5e-05 
v 0.000648056 -0.00132098 8.5e-05 
v 0.000517231 -0.0014239 -8.5e-05 
v 0.000580145 -0.00136927 8.5e-05 
v 0.000459907 -0.00148438 -8.5e-05 
v 0.000517231 -0.0014239 8.5e-05 
v 0.000408712 -0.00155013 -8.5e-05 
v 0.000459907 -0.00148438 8.5e-05 
v 0.000408712 -0.00155013 8.5e-05 
vn 0.455131 -0.890425 0 
vn 0.366721 -0.930331 0 
vn 0.366721 -0.930331 0 
vn 0.539258 -0.84214 0 
vn 0.455131 -0.890425 0 
vn 0.618312 -0.785932 0 
vn 0.539258 -0.84214 0 
vn 0.691549 -0.72233 0 
vn 0.618312 -0.785932 0 
vn 0.758279 -0.651931 0 
vn 0.691549 -0.72233 0 
vn 0.817874 -0.575398 0 
vn 0.758279 -0.651931 0 
vn 0.817874 -0.575398 0 
f 1//1 2//2 3//3 
f 4//4 1//1 5//5 
f 6//6 4//4 7//7 
f 8//8 6//6 9//9 
f 10//10 8//8 11//11 
f 12//12 10//10 13//13 
f 13//13 14//14 12//12 
f 11//11 13//13 10//10 
f 9//9 11//11 8//8 
f 7//7 9//9 6//6 
f 5//5 7//7 4//4 
f 3//3 5//5 1//1 
o mesh853
v 0.00125816 -0.000665 -8.5e-05 
v 0.00125816 -0.000665 8.5e-05 
v 0.00124189 -0.00074074 8.5e-05 
v 0.00124189 -0.00074074 -8.5e-05 
v 0.00121796 -0.000814421 8.5e-05 
v 0.00121796 -0.000814421 -8.5e-05 
v 0.00118663 -0.00088527 8.5e-05 
v 0.00118663 -0.00088527 -8.5e-05 
v 0.00114822 -0.000952547 8.5e-05 
v 0.00114822 -0.000952547 -8.5e-05 
v 0.00110314 -0.00101555 8.5e-05 
v 0.00110314 -0.00101555 -8.5e-05 
v 0.00105185 -0.00107361 8.5e-05 
v 0.00105185 -0.00107361 -8.5e-05 
v 0.000994898 -0.00112612 8.5e-05 
v 0.000994898 -0.00112612 -8.5e-05 
v 0.000932878 -0.00117254 8.5e-05 
v 0.000932878 -0.00117254 -8.5e-05 
v 0.000866438 -0.00121238 8.5e-05 
v 0.000866438 -0.00121238 -8.5e-05 
v 0.000796275 -0.00124522 8.5e-05 
v 0.000796275 -0.00124522 -8.5e-05 
vn 0.987159 -0.159744 0 
vn 0.987159 -0.159744 0 
vn 0.965664 -0.259796 0 
vn 0.965664 -0.259796 0 
vn 0.934056 -0.357127 0 
vn 0.934056 -0.357127 0 
vn 0.892666 -0.450718 0 
vn 0.892666 -0.450718 0 
vn 0.841928 -0.539589 0 
vn 0.841928 -0.539589 0 
vn 0.782373 -0.62281 0 
vn 0.782373 -0.62281 0 
vn 0.714625 -0.699508 0 
vn 0.714625 -0.699508 0 
vn 0.639393 -0.76888 0 
vn 0.639393 -0.76888 0 
vn 0.557465 -0.830201 0 
vn 0.557465 -0.830201 0 
vn 0.469699 -0.882827 0 
vn 0.469699 -0.882827 0 
vn 0.377014 -0.926208 0 
vn 0.377014 -0.926208 0 
f 15//15 16//16 17//17 
f 18//18 17//17 19//19 
f 20//20 19//19 21//21 
f 22//22 21//21 23//23 
f 24//24 23//23 25//25 
f 26//26 25//25 27//27 
f 28//28 27//27 29//29 
f 30//30 29//29 31//31 
f 32//32 31//31 33//33 
f 34//34 33//33 35//35 
f 35//35 36//36 34//34 
f 33//33 34//34 32//32 
f 31//31 32//32 30//30 
f 29//29 30//30 28//28 
f 27//27 28//28 26//26 
f 25//25 26//26 24//24 
f 23//23 24//24 22//22 
f 21//21 22//22 20//20 
f 19//19 20//20 18//18 
f 17//17 18//18 15//15 
o mesh854
v 0.000927467 0.00109377 -8.5e-05 
v 0.000911168 0.00112375 -8.5e-05 
v 0.000911168 0.00112375 8.5e-05 
v 0.000754626 0.00141165 8.5e-05 
v 0.000754626 0.00141165 -8.5e-05 
v 0.00106635 0.000759668 -8.5e-05 
v 0.00106068 0.000773317 -8.5e-05 
v 0.00106068 0.000773317 8.5e-05 
v 0.0010023 0.00091375 8.5e-05 
v 0.0010023 0.00091375 -8.5e-05 
v 0.000927467 0.00109377 8.5e-05 
v 0.00106635 0.000759668 8.5e-05 
v 0.00116979 0.000412943 8.5e-05 
v 0.00116979 0.000412943 -8.5e-05 
v 0.00123665 5.73496e-05 8.5e-05 
v 0.00126621 -0.000303265 8.5e-05 
v 0.00126621 -0.000303265 -8.5e-05 
v 0.00125723 -0.00019375 -8.5e-05 
v 0.00123665 5.73496e-05 -8.5e-05 
v 0.00125723 -0.00019375 8.5e-05 
v 0.00125816 -0.000665 -8.5e-05 
v 0.00126119 -0.00052875 -8.5e-05 
v 0.00126119 -0.00052875 8.5e-05 
v 0.00125816 -0.000665 8.5e-05 
vn 0.902181 0.431357 0 
vn 0.897911 0.440177 0 
vn 0.897911 0.440177 0 
vn 0.852497 0.522732 0 
vn 0.852497 0.522732 0 
vn 0.942106 0.335315 0 
vn 0.940674 0.33931 0 
vn 0.940674 0.33931 0 
vn 0.924938 0.380118 0 
vn 0.924938 0.380118 0 
vn 0.902181 0.431357 0 
vn 0.942106 0.335315 0 
vn 0.971839 0.235646 0 
vn 0.971839 0.235646 0 
vn 0.991059 0.133428 0 
vn 0.999557 0.0297657 0 
vn 0.999557 0.0297657 0 
vn 0.998118 0.061317 0 
vn 0.991059 0.133428 0 
vn 0.998118 0.061317 0 
vn 0.997242 -0.0742181 0 
vn 0.999384 -0.0350965 0 
vn 0.999384 -0.0350965 0 
vn 0.997242 -0.0742181 0 
f 37//37 38//38 39//39 
f 40//40 39//39 38//38 
f 38//38 41//41 40//40 
f 42//42 43//43 44//44 
f 45//45 44//44 43//43 
f 43//43 46//46 45//45 
f 47//47 45//45 46//46 
f 46//46 37//37 47//47 
f 42//42 48//48 49//49 
f 50//50 49//49 51//51 
f 52//52 53//53 54//54 
f 55//55 51//51 56//56 
f 56//56 54//54 55//55 
f 57//57 58//58 59//59 
f 52//52 59//59 58//58 
f 58//58 53//53 52//52 
f 59//59 60//60 57//57 
f 54//54 56//56 52//52 
f 51//51 55//55 50//50 
f 49//49 50//50 42//42 
f 44//44 48//48 42//42 
f 39//39 47//47 37//37 
o mesh855
v -0.000701264 0.0014908 8.5e-05 
v -0.000701264 0.0014908 -8.5e-05 
v -0.00071 0.00147784 -8.5e-05 
v -0.000754626 0.00141165 -8.5e-05 
v -0.000754626 0.00141165 8.5e-05 
v -0.00071 0.00147784 8.5e-05 
v -0.000639636 0.00156369 8.5e-05 
v -0.000639636 0.00156369 -8.5e-05 
v -0.000570469 0.00162948 8.5e-05 
v -0.000570469 0.00162948 -8.5e-05 
v -0.000494577 0.00168738 8.5e-05 
v -0.000494577 0.00168738 -8.5e-05 
v -0.000412856 0.00173671 8.5e-05 
v -0.000326269 0.00177689 -8.5e-05 
v -0.000355 0.00176356 -8.5e-05 
v -0.000355 0.00176356 8.5e-05 
v -0.000412856 0.00173671 -8.5e-05 
v -0.000326269 0.00177689 8.5e-05 
v -0.000235835 0.00180745 8.5e-05 
v -0.000142622 0.00182803 -8.5e-05 
v -0.0002035 0.00181459 -8.5e-05 
v -0.0002035 0.00181459 8.5e-05 
v -0.000235835 0.00180745 -8.5e-05 
v -0.000142622 0.00182803 8.5e-05 
v -4.77283e-05 0.00183837 8.5e-05 
v -4.77283e-05 0.00183837 -8.5e-05 
v 4.77283e-05 0.00183837 8.5e-05 
v 4.77283e-05 0.00183837 -8.5e-05 
v 0.000142622 0.00182803 8.5e-05 
v 0.000235835 0.00180745 -8.5e-05 
v 0.0002035 0.00181459 -8.5e-05 
v 0.0002035 0.00181459 8.5e-05 
v 0.000142622 0.00182803 -8.5e-05 
v 0.000235835 0.00180745 8.5e-05 
v 0.000326269 0.00177689 8.5e-05 
v 0.000412856 0.00173671 -8.5e-05 
v 0.000355 0.00176356 -8.5e-05 
v 0.000355 0.00176356 8.5e-05 
v 0.000326269 0.00177689 -8.5e-05 
v 0.000412856 0.00173671 8.5e-05 
v 0.000494577 0.00168738 8.5e-05 
v 0.000494577 0.00168738 -8.5e-05 
v 0.000570469 0.00162948 8.5e-05 
v 0.000570469 0.00162948 -8.5e-05 
v 0.000639636 0.00156369 8.5e-05 
v 0.000639636 0.00156369 -8.5e-05 
v 0.000701264 0.0014908 8.5e-05 
v 0.000701264 0.0014908 -8.5e-05 
v 0.000754626 0.00141165 8.5e-05 
v 0.000754626 0.00141165 -8.5e-05 
vn -0.797586 0.603205 0 
vn -0.797586 0.603205 0 
vn -0.808174 0.588944 0 
vn -0.858278 0.513186 0 
vn -0.858278 0.513186 0 
vn -0.808174 0.588944 0 
vn -0.727493 0.686115 0 
vn -0.727493 0.686115 0 
vn -0.648825 0.760937 0 
vn -0.648825 0.760937 0 
vn -0.56251 0.826791 0 
vn -0.56251 0.826791 0 
vn -0.469564 0.882899 0 
vn -0.371083 0.9286 0 
vn -0.404289 0.914631 0 
vn -0.404289 0.914631 0 
vn -0.469564 0.882899 0 
vn -0.371083 0.9286 0 
vn -0.268229 0.963355 0 
vn -0.162212 0.986756 0 
vn -0.231761 0.972773 0 
vn -0.231761 0.972773 0 
vn -0.268229 0.963355 0 
vn -0.162212 0.986756 0 
vn -0.054284 0.998526 0 
vn -0.054284 0.998526 0 
vn 0.054284 0.998526 0 
vn 0.054284 0.998526 0 
vn 0.162212 0.986756 0 
vn 0.268229 0.963355 0 
vn 0.231761 0.972773 0 
vn 0.231761 0.972773 0 
vn 0.162212 0.986756 0 
vn 0.268229 0.963355 0 
vn 0.371083 0.9286 0 
vn 0.469564 0.882899 0 
vn 0.404289 0.914631 0 
vn 0.404289 0.914631 0 
vn 0.371083 0.9286 0 
vn 0.469564 0.882899 0 
vn 0.56251 0.826791 0 
vn 0.56251 0.826791 0 
vn 0.648825 0.760937 0 
vn 0.648825 0.760937 0 
vn 0.727493 0.686115 0 
vn 0.727493 0.686115 0 
vn 0.797586 0.603205 0 
vn 0.797586 0.603205 0 
vn 0.858278 0.513186 0 
vn 0.858278 0.513186 0 
f 61//61 62//62 63//63 
f 64//64 65//65 66//66 
f 66//66 63//63 64//64 
f 62//62 61//61 67//67 
f 68//68 67//67 69//69 
f 70//70 69//69 71//71 
f 72//72 71//71 73//73 
f 74//74 75//75 76//76 
f 73//73 76//76 75//75 
f 75//75 77//77 73//73 
f 74//74 78//78 79//79 
f 80//80 81//81 82//82 
f 79//79 82//82 81//81 
f 81//81 83//83 79//79 
f 80//80 84//84 85//85 
f 86//86 85//85 87//87 
f 88//88 87//87 89//89 
f 90//90 91//91 92//92 
f 89//89 92//92 91//91 
f 91//91 93//93 89//89 
f 90//90 94//94 95//95 
f 96//96 97//97 98//98 
f 95//95 98//98 97//97 
f 97//97 99//99 95//95 
f 96//96 100//100 101//101 
f 102//102 101//101 103//103 
f 104//104 103//103 105//105 
f 106//106 105//105 107//107 
f 108//108 107//107 109//109 
f 109//109 110//110 108//108 
f 107//107 108//108 106//106 
f 105//105 106//106 104//104 
f 103//103 104//104 102//102 
f 101//101 102//102 96//96 
f 98//98 100//100 96//96 
f 95//95 99//99 90//90 
f 92//92 94//94 90//90 
f 89//89 93//93 88//88 
f 87//87 88//88 86//86 
f 85//85 86//86 80//80 
f 82//82 84//84 80//80 
f 79//79 83//83 74//74 
f 76//76 78//78 74//74 
f 73//73 77//77 72//72 
f 71//71 72//72 70//70 
f 69//69 70//70 68//68 
f 67//67 68//68 62//62 
f 63//63 66//66 61//61 
o mesh856
v -0.00126621 -0.000303265 -8.5e-05 
v -0.00126119 -0.00052875 -8.5e-05 
v -0.00126119 -0.00052875 8.5e-05 
v -0.00125816 -0.000665 8.5e-05 
v -0.00125816 -0.000665 -8.5e-05 
v -0.00123665 5.73496e-05 8.5e-05 
v -0.00123665 5.73496e-05 -8.5e-05 
v -0.00123744 4.77167e-05 -8.5e-05 
v -0.00125723 -0.00019375 -8.5e-05 
v -0.00125723 -0.00019375 8.5e-05 
v -0.00123744 4.77167e-05 8.5e-05 
v -0.00126621 -0.000303265 8.5e-05 
v -0.00116979 0.000412943 8.5e-05 
v -0.00116979 0.000412943 -8.5e-05 
v -0.00106635 0.000759668 8.5e-05 
v -0.000927467 0.00109377 -8.5e-05 
v -0.0010023 0.00091375 -8.5e-05 
v -0.0010023 0.00091375 8.5e-05 
v -0.00106635 0.000759668 -8.5e-05 
v -0.000754626 0.00141165 -8.5e-05 
v -0.000911168 0.00112375 -8.5e-05 
v -0.000911168 0.00112375 8.5e-05 
v -0.000927467 0.00109377 8.5e-05 
v -0.000754626 0.00141165 8.5e-05 
vn -0.999557 0.0297657 0 
vn -0.999384 -0.0350965 0 
vn -0.999384 -0.0350965 0 
vn -0.997242 -0.0742181 0 
vn -0.997242 -0.0742181 0 
vn -0.991059 0.133428 0 
vn -0.991059 0.133428 0 
vn -0.991425 0.130677 0 
vn -0.998118 0.061317 0 
vn -0.998118 0.061317 0 
vn -0.991425 0.130677 0 
vn -0.999557 0.0297657 0 
vn -0.971839 0.235646 0 
vn -0.971839 0.235646 0 
vn -0.942106 0.335315 0 
vn -0.902181 0.431357 0 
vn -0.924938 0.380118 0 
vn -0.924938 0.380118 0 
vn -0.942106 0.335315 0 
vn -0.852497 0.522732 0 
vn -0.897911 0.440177 0 
vn -0.897911 0.440177 0 
vn -0.902181 0.431357 0 
vn -0.852497 0.522732 0 
f 111//111 112//112 113//113 
f 114//114 113//113 112//112 
f 112//112 115//115 114//114 
f 116//116 117//117 118//118 
f 119//119 120//120 121//121 
f 121//121 118//118 119//119 
f 122//122 120//120 119//119 
f 119//119 111//111 122//122 
f 117//117 116//116 123//123 
f 124//124 123//123 125//125 
f 126//126 127//127 128//128 
f 125//125 128//128 127//127 
f 127//127 129//129 125//125 
f 130//130 131//131 132//132 
f 133//133 132//132 131//131 
f 131//131 126//126 133//133 
f 132//132 134//134 130//130 
f 128//128 133//133 126//126 
f 125//125 129//129 124//124 
f 123//123 124//124 117//117 
f 118//118 121//121 116//116 
f 113//113 122//122 111//111 
o mesh857
v -0.000796275 -0.00124522 -8.5e-05 
v -0.000796275 -0.00124522 8.5e-05 
v -0.000866438 -0.00121238 8.5e-05 
v -0.000866438 -0.00121238 -8.5e-05 
v -0.000932878 -0.00117254 8.5e-05 
v -0.000932878 -0.00117254 -8.5e-05 
v -0.000994898 -0.00112612 8.5e-05 
v -0.000994898 -0.00112612 -8.5e-05 
v -0.00105185 -0.00107361 8.5e-05 
v -0.00105185 -0.00107361 -8.5e-05 
v -0.00110314 -0.00101555 8.5e-05 
v -0.00110314 -0.00101555 -8.5e-05 
v -0.00114822 -0.000952547 8.5e-05 
v -0.00114822 -0.000952547 -8.5e-05 
v -0.00118663 -0.00088527 8.5e-05 
v -0.00118663 -0.00088527 -8.5e-05 
v -0.00121796 -0.000814421 8.5e-05 
v -0.00121796 -0.000814421 -8.5e-05 
v -0.00124189 -0.00074074 8.5e-05 
v -0.00124189 -0.00074074 -8.5e-05 
v -0.00125816 -0.000665 8.5e-05 
v -0.00125816 -0.000665 -8.5e-05 
vn -0.377014 -0.926208 0 
vn -0.377014 -0.926208 0 
vn -0.469699 -0.882827 0 
vn -0.469699 -0.882827 0 
vn -0.557465 -0.830201 0 
vn -0.557465 -0.830201 0 
vn -0.639393 -0.76888 0 
vn -0.639393 -0.76888 0 
vn -0.714625 -0.699508 0 
vn -0.714625 -0.699508 0 
vn -0.782373 -0.62281 0 
vn -0.782373 -0.62281 0 
vn -0.841928 -0.539589 0 
vn -0.841928 -0.539589 0 
vn -0.892666 -0.450718 0 
vn -0.892666 -0.450718 0 
vn -0.934056 -0.357127 0 
vn -0.934056 -0.357127 0 
vn -0.965664 -0.259796 0 
vn -0.965664 -0.259796 0 
vn -0.987159 -0.159744 0 
vn -0.987159 -0.159744 0 
f 135//135 136//136 137//137 
f 138//138 137//137 139//139 
f 140//140 139//139 141//141 
f 142//142 141//141 143//143 
f 144//144 143//143 145//145 
f 146//146 145//145 147//147 
f 148//148 147//147 149//149 
f 150//150 149//149 151//151 
f 152//152 151//151 153//153 
f 154//154 153//153 155//155 
f 155//155 156//156 154//154 
f 153//153 154//154 152//152 
f 151//151 152//152 150//150 
f 149//149 150//150 148//148 
f 147//147 148//148 146//146 
f 145//145 146//146 144//144 
f 143//143 144//144 142//142 
f 141//141 142//142 140//140 
f 139//139 140//140 138//138 
f 137//137 138//138 135//135 
o mesh858
v -0.000459907 -0.00148438 -8.5e-05 
v -0.000408712 -0.00155013 -8.5e-05 
v -0.000408712 -0.00155013 8.5e-05 
v -0.000517231 -0.0014239 -8.5e-05 
v -0.000459907 -0.00148438 8.5e-05 
v -0.000580145 -0.00136927 -8.5e-05 
v -0.000517231 -0.0014239 8.5e-05 
v -0.000648056 -0.00132098 -8.5e-05 
v -0.000580145 -0.00136927 8.5e-05 
v -0.000720326 -0.0012795 -8.5e-05 
v -0.00071 -0.00128543 -8.5e-05 
v -0.00071 -0.00128543 8.5e-05 
v -0.000648056 -0.00132098 8.5e-05 
v -0.000796275 -0.00124522 -8.5e-05 
v -0.000720326 -0.0012795 8.5e-05 
v -0.000796275 -0.00124522 8.5e-05 
vn -0.758279 -0.651931 0 
vn -0.817874 -0.575398 0 
vn -0.817874 -0.575398 0 
vn -0.691549 -0.72233 0 
vn -0.758279 -0.651931 0 
vn -0.618312 -0.785932 0 
vn -0.691549 -0.72233 0 
vn -0.539258 -0.84214 0 
vn -0.618312 -0.785932 0 
vn -0.455131 -0.890425 0 
vn -0.46742 -0.884035 0 
vn -0.46742 -0.884035 0 
vn -0.539258 -0.84214 0 
vn -0.366721 -0.930331 0 
vn -0.455131 -0.890425 0 
vn -0.366721 -0.930331 0 
f 157//157 158//158 159//159 
f 160//160 157//157 161//161 
f 162//162 160//160 163//163 
f 164//164 162//162 165//165 
f 166//166 167//167 168//168 
f 169//169 168//168 167//167 
f 167//167 164//164 169//169 
f 170//170 166//166 171//171 
f 171//171 172//172 170//170 
f 168//168 171//171 166//166 
f 165//165 169//169 164//164 
f 163//163 165//165 162//162 
f 161//161 163//163 160//160 
f 159//159 161//161 157//157 
o mesh859
v 4.87891e-18 -0.00174753 -8.5e-05 
v 4.87891e-18 -0.00174753 8.5e-05 
v -5.2279e-05 -0.00174581 8.5e-05 
v -5.2279e-05 -0.00174581 -8.5e-05 
v -0.000104095 -0.00173866 8.5e-05 
v -0.000104095 -0.00173866 -8.5e-05 
v -0.000154885 -0.00172615 8.5e-05 
v -0.000204098 -0.00170843 -8.5e-05 
v -0.0002035 -0.00170864 -8.5e-05 
v -0.0002035 -0.00170864 8.5e-05 
v -0.000154885 -0.00172615 -8.5e-05 
v -0.000204098 -0.00170843 8.5e-05 
v -0.000251199 -0.00168568 8.5e-05 
v -0.000251199 -0.00168568 -8.5e-05 
v -0.000295677 -0.00165815 8.5e-05 
v -0.000295677 -0.00165815 -8.5e-05 
v -0.000337048 -0.00162614 8.5e-05 
v -0.000374863 -0.00159 -8.5e-05 
v -0.000355 -0.00160899 -8.5e-05 
v -0.000355 -0.00160899 8.5e-05 
v -0.000337048 -0.00162614 -8.5e-05 
v -0.000374863 -0.00159 8.5e-05 
v -0.000408712 -0.00155013 8.5e-05 
v -0.000408712 -0.00155013 -8.5e-05 
vn 0.0192195 -0.999815 0 
vn 0.0192195 -0.999815 0 
vn -0.084938 -0.996386 0 
vn -0.084938 -0.996386 0 
vn -0.188173 -0.982136 0 
vn -0.188173 -0.982136 0 
vn -0.289365 -0.957219 0 
vn -0.387413 -0.921906 0 
vn -0.386247 -0.922395 0 
vn -0.386247 -0.922395 0 
vn -0.289365 -0.957219 0 
vn -0.387413 -0.921906 0 
vn -0.481255 -0.876581 0 
vn -0.481255 -0.876581 0 
vn -0.569869 -0.821736 0 
vn -0.569869 -0.821736 0 
vn -0.652295 -0.757966 0 
vn -0.727636 -0.685964 0 
vn -0.688995 -0.724766 0 
vn -0.688995 -0.724766 0 
vn -0.652295 -0.757966 0 
vn -0.727636 -0.685964 0 
vn -0.795074 -0.606512 0 
vn -0.795074 -0.606512 0 
f 173//173 174//174 175//175 
f 176//176 175//175 177//177 
f 178//178 177//177 179//179 
f 180//180 181//181 182//182 
f 179//179 182//182 181//181 
f 181//181 183//183 179//179 
f 180//180 184//184 185//185 
f 186//186 185//185 187//187 
f 188//188 187//187 189//189 
f 190//190 191//191 192//192 
f 189//189 192//192 191//191 
f 191//191 193//193 189//189 
f 190//190 194//194 195//195 
f 195//195 196//196 190//190 
f 192//192 194//194 190//190 
f 189//189 193//193 188//188 
f 187//187 188//188 186//186 
f 185//185 186//186 180//180 
f 182//182 184//184 180//180 
f 179//179 183//183 178//178 
f 177//177 178//178 176//176 
f 175//175 176//176 173//173 
o mesh860
v 0.000408712 -0.00155013 -8.5e-05 
v 0.000408712 -0.00155013 8.5e-05 
v 0.000374863 -0.00159 8.5e-05 
v 0.000337048 -0.00162614 -8.5e-05 
v 0.000355 -0.00160899 -8.5e-05 
v 0.000355 -0.00160899 8.5e-05 
v 0.000374863 -0.00159 -8.5e-05 
v 0.000337048 -0.00162614 8.5e-05 
v 0.000295677 -0.00165815 8.5e-05 
v 0.000295677 -0.00165815 -8.5e-05 
v 0.000251199 -0.00168568 8.5e-05 
v 0.000251199 -0.00168568 -8.5e-05 
v 0.000204098 -0.00170843 8.5e-05 
v 0.000154885 -0.00172615 -8.5e-05 
v 0.0002035 -0.00170864 -8.5e-05 
v 0.0002035 -0.00170864 8.5e-05 
v 0.000204098 -0.00170843 -8.5e-05 
v 0.000154885 -0.00172615 8.5e-05 
v 0.000104095 -0.00173866 8.5e-05 
v 0.000104095 -0.00173866 -8.5e-05 
v 5.2279e-05 -0.00174581 8.5e-05 
v 5.2279e-05 -0.00174581 -8.5e-05 
v 4.87891e-18 -0.00174753 8.5e-05 
v 4.87891e-18 -0.00174753 -8.5e-05 
vn 0.795074 -0.606512 0 
vn 0.795074 -0.606512 0 
vn 0.727636 -0.685964 0 
vn 0.652295 -0.757966 0 
vn 0.688995 -0.724766 0 
vn 0.688995 -0.724766 0 
vn 0.727636 -0.685964 0 
vn 0.652295 -0.757966 0 
vn 0.569869 -0.821736 0 
vn 0.569869 -0.821736 0 
vn 0.481255 -0.876581 0 
vn 0.481255 -0.876581 0 
vn 0.387413 -0.921906 0 
vn 0.289365 -0.957219 0 
vn 0.386247 -0.922395 0 
vn 0.386247 -0.922395 0 
vn 0.387413 -0.921906 0 
vn 0.289365 -0.957219 0 
vn 0.188173 -0.982136 0 
vn 0.188173 -0.982136 0 
vn 0.084938 -0.996386 0 
vn 0.084938 -0.996386 0 
vn -0.0192195 -0.999815 0 
vn -0.0192195 -0.999815 0 
f 197//197 198//198 199//199 
f 200//200 201//201 202//202 
f 199//199 202//202 201//201 
f 201//201 203//203 199//199 
f 200//200 204//204 205//205 
f 206//206 205//205 207//207 
f 208//208 207//207 209//209 
f 210//210 211//211 212//212 
f 209//209 212//212 211//211 
f 211//211 213//213 209//209 
f 210//210 214//214 215//215 
f 216//216 215//215 217//217 
f 218//218 217//217 219//219 
f 219//219 220//220 218//218 
f 217//217 218//218 216//216 
f 215//215 216//216 210//210 
f 212//212 214//214 210//210 
f 209//209 213//213 208//208 
f 207//207 208//208 206//206 
f 205//205 206//206 200//200 
f 202//202 204//204 200//200 
f 199//199 203//203 197//197 
o mesh861
v -0.000355 -0.00019375 8.5e-05 
v -0.000355 -0.00052875 8.5e-05 
v -0.0002035 -0.00052875 8.5e-05 
v 0.0002035 -0.00019375 8.5e-05 
v 0.0002035 -0.00052875 8.5e-05 
v 0.000355 -0.00052875 8.5e-05 
v -0.00071 4.77167e-05 8.5e-05 
v -0.00071 -0.00019375 8.5e-05 
v -0.000355 4.77167e-05 8.5e-05 
v -0.0002035 -0.00019375 8.5e-05 
v 0.0002035 4.77167e-05 8.5e-05 
v 0.000355 -0.00019375 8.5e-05 
v -0.00071 0.000773317 8.5e-05 
v -0.00071 0.00091375 8.5e-05 
v -0.000355 0.000773317 8.5e-05 
v -0.000355 0.00091375 8.5e-05 
v -0.0002035 0.000773317 8.5e-05 
v 0.0002035 0.00091375 8.5e-05 
v 0.0002035 0.000773317 8.5e-05 
v 0.000355 0.000773317 8.5e-05 
v -8.5e-05 -0.0005 8.5e-05 
v 8.5e-05 -0.0005 8.5e-05 
v 8.5e-05 -0.00019375 8.5e-05 
v -0.0002035 4.77167e-05 8.5e-05 
v -8.5e-05 0 8.5e-05 
v -8.5e-05 -0.00019375 8.5e-05 
v 8.5e-05 0 8.5e-05 
v -0.0002035 9.54334e-05 8.5e-05 
v -0.00035 9.54334e-05 8.5e-05 
v -0.0002035 0.000349171 8.5e-05 
v -4.06576e-19 0.000701633 8.5e-05 
v 0.0002035 0.000349171 8.5e-05 
v 0.000355 4.77167e-05 8.5e-05 
v 0.00035 9.54334e-05 8.5e-05 
v 0.0002035 0.00112375 8.5e-05 
v 8.5e-05 0.001095 8.5e-05 
v -0.0002035 0.00112375 8.5e-05 
v -8.5e-05 0.001095 8.5e-05 
v -0.0002035 0.00091375 8.5e-05 
v -8.5e-05 0.00091375 8.5e-05 
v 8.5e-05 0.000845 8.5e-05 
v -8.5e-05 0.000845 8.5e-05 
v 8.5e-05 0.00091375 8.5e-05 
v 0.000322 0.0009825 8.5e-05 
v 0.000355 0.00091375 8.5e-05 
v 0.000355 0.0009825 8.5e-05 
v -0.000322 0.0009825 8.5e-05 
v -0.000322 0.00112375 8.5e-05 
v -0.00071 0.00112375 8.5e-05 
v -0.00056 0.0009825 8.5e-05 
v -0.000355 0.0009825 8.5e-05 
v -0.00036 -0.0003875 8.5e-05 
v -0.00071 -0.0003875 8.5e-05 
v 0.00126119 -0.00052875 8.5e-05 
v 0.00126621 -0.000303265 8.5e-05 
v 0.00086 -0.0003875 8.5e-05 
v 0.00086 -0.00052875 8.5e-05 
v 0.00036 -0.0003875 8.5e-05 
v 0.00125723 -0.00019375 8.5e-05 
v 0.00036 -0.00052875 8.5e-05 
v 0.00123665 5.73496e-05 8.5e-05 
v 0.00116979 0.000412943 8.5e-05 
v 0.00106635 0.000759668 8.5e-05 
v 0.00106068 0.000773317 8.5e-05 
v 0.0010023 0.00091375 8.5e-05 
v 0.00056 0.0009825 8.5e-05 
v 0.000927467 0.00109377 8.5e-05 
v 0.000911168 0.00112375 8.5e-05 
v 0.00056 0.00112375 8.5e-05 
v 0.000701264 0.0014908 8.5e-05 
v 0.000355 0.0011525 8.5e-05 
v 0.00056 0.0011525 8.5e-05 
v 0.000494577 0.00168738 8.5e-05 
v 0.000412856 0.00173671 8.5e-05 
v 0.000754626 0.00141165 8.5e-05 
v 0.000570469 0.00162948 8.5e-05 
v 0.000639636 0.00156369 8.5e-05 
v 0.000355 0.00176356 8.5e-05 
v 0.000322 0.0011525 8.5e-05 
v 0.000326269 0.00177689 8.5e-05 
v 0.000235835 0.00180745 8.5e-05 
v 0.000322 0.00112375 8.5e-05 
v 0.0002035 0.00181459 8.5e-05 
v 4.77283e-05 0.00183837 8.5e-05 
v -4.77283e-05 0.00183837 8.5e-05 
v 0.000142622 0.00182803 8.5e-05 
v -0.000142622 0.00182803 8.5e-05 
v -0.000322 0.0011525 8.5e-05 
v -0.000326269 0.00177689 8.5e-05 
v -0.000355 0.00176356 8.5e-05 
v -0.000235835 0.00180745 8.5e-05 
v -0.0002035 0.00181459 8.5e-05 
v -0.000355 0.0011525 8.5e-05 
v -0.000701264 0.0014908 8.5e-05 
v -0.00071 0.00147784 8.5e-05 
v -0.000639636 0.00156369 8.5e-05 
v -0.000570469 0.00162948 8.5e-05 
v -0.000412856 0.00173671 8.5e-05 
v -0.000494577 0.00168738 8.5e-05 
v -0.00056 0.00112375 8.5e-05 
v -0.00056 0.0011525 8.5e-05 
v -0.000754626 0.00141165 8.5e-05 
v -0.000911168 0.00112375 8.5e-05 
v -0.000927467 0.00109377 8.5e-05 
v -0.0010023 0.00091375 8.5e-05 
v -0.00116979 0.000412943 8.5e-05 
v -0.00123665 5.73496e-05 8.5e-05 
v -0.00106635 0.000759668 8.5e-05 
v -0.00123744 4.77167e-05 8.5e-05 
v -0.00126119 -0.00052875 8.5e-05 
v -0.00086 -0.00052875 8.5e-05 
v -0.00086 -0.0003875 8.5e-05 
v -0.00125723 -0.00019375 8.5e-05 
v -0.00126621 -0.000303265 8.5e-05 
v -0.00071 -0.0005575 8.5e-05 
v -0.00114822 -0.000952547 8.5e-05 
v -0.00110314 -0.00101555 8.5e-05 
v -0.00105185 -0.00107361 8.5e-05 
v -0.00086 -0.0005575 8.5e-05 
v -0.000994898 -0.00112612 8.5e-05 
v -0.000932878 -0.00117254 8.5e-05 
v -0.00118663 -0.00088527 8.5e-05 
v -0.00125816 -0.000665 8.5e-05 
v -0.000866438 -0.00121238 8.5e-05 
v -0.00124189 -0.00074074 8.5e-05 
v -0.000796275 -0.00124522 8.5e-05 
v -0.00121796 -0.000814421 8.5e-05 
v -0.000720326 -0.0012795 8.5e-05 
v -0.00071 -0.00128543 8.5e-05 
v -0.000408712 -0.00155013 8.5e-05 
v -0.000374863 -0.00159 8.5e-05 
v -0.000459907 -0.00148438 8.5e-05 
v -0.00036 -0.0005575 8.5e-05 
v -0.000517231 -0.0014239 8.5e-05 
v -0.000580145 -0.00136927 8.5e-05 
v -0.000355 -0.00160899 8.5e-05 
v -0.000648056 -0.00132098 8.5e-05 
v -0.00036 -0.00052875 8.5e-05 
v -0.000251199 -0.00168568 8.5e-05 
v -0.000204098 -0.00170843 8.5e-05 
v -0.000295677 -0.00165815 8.5e-05 
v -0.000337048 -0.00162614 8.5e-05 
v 0.000104095 -0.00173866 8.5e-05 
v 0.000154885 -0.00172615 8.5e-05 
v -0.000154885 -0.00172615 8.5e-05 
v -0.000104095 -0.00173866 8.5e-05 
v -0.0002035 -0.00170864 8.5e-05 
v 5.2279e-05 -0.00174581 8.5e-05 
v 4.87891e-18 -0.00174753 8.5e-05 
v -5.2279e-05 -0.00174581 8.5e-05 
v 0.000251199 -0.00168568 8.5e-05 
v 0.000295677 -0.00165815 8.5e-05 
v 0.0002035 -0.00170864 8.5e-05 
v 0.000204098 -0.00170843 8.5e-05 
v 0.000337048 -0.00162614 8.5e-05 
v 0.000355 -0.00160899 8.5e-05 
v 0.00036 -0.0005575 8.5e-05 
v 0.000994898 -0.00112612 8.5e-05 
v 0.00105185 -0.00107361 8.5e-05 
v 0.000932878 -0.00117254 8.5e-05 
v 0.00114822 -0.000952547 8.5e-05 
v 0.00118663 -0.00088527 8.5e-05 
v 0.00086 -0.0005575 8.5e-05 
v 0.00110314 -0.00101555 8.5e-05 
v 0.000796275 -0.00124522 8.5e-05 
v 0.000866438 -0.00121238 8.5e-05 
v 0.000580145 -0.00136927 8.5e-05 
v 0.000648056 -0.00132098 8.5e-05 
v 0.000459907 -0.00148438 8.5e-05 
v 0.000517231 -0.0014239 8.5e-05 
v 0.000720326 -0.0012795 8.5e-05 
v 0.000374863 -0.00159 8.5e-05 
v 0.000408712 -0.00155013 8.5e-05 
v 0.00124189 -0.00074074 8.5e-05 
v 0.00125816 -0.000665 8.5e-05 
v 0.00121796 -0.000814421 8.5e-05 
v 0.0002035 9.54334e-05 8.5e-05 
vn 0 0 1 
vn 0 0 1 
vn 0 0 1 
vn 0 0 1 
vn 0 0 1 
vn 0 0 1 
vn 0 0 1 
vn 0 0 1 
vn 0 0 1 
vn 0 0 1 
vn 0 0 1 
vn 0 0 1 
vn 0 0 1 
vn 0 0 1 
vn 0 0 1 
vn 0 0 1 
vn 0 0 1 
vn 0 0 1 
vn 0 0 1 
vn 0 0 1 
vn 0 0 1 
vn 0 0 1 
vn 0 0 1 
vn 0 0 1 
vn 0 0 1 
vn 0 0 1 
vn 0 0 1 
vn 0 0 1 
vn 0 0 1 
vn 0 0 1 
vn 0 0 1 
vn 0 0 1 
vn 0 0 1 
vn 0 0 1 
vn 0 0 1 
vn 0 0 1 
vn 0 0 1 
vn 0 0 1 
vn 0 0 1 
vn 0 0 1 
vn 0 0 1 
vn 0 0 1 
vn 0 0 1 
vn 0 0 1 
vn 0 0 1 
vn 0 0 1 
vn 0 0 1 
vn 0 0 1 
vn 0 0 1 
vn 0 0 1 
vn 0 0 1 
vn 0 0 1 
vn 0 0 1 
vn 0 0 1 
vn 0 0 1 
vn 0 0 1 
vn 0 0 1 
vn 0 0 1 
vn 0 0 1 
vn 0 0 1 
vn 0 0 1 
vn 0 0 1 
vn 0 0 1 
vn 0 0 1 
vn 0 0 1 
vn 0 0 1 
vn 0 0 1 
vn 0 0 1 
vn 0 0 1 
vn 0 0 1 
vn 0 0 1 
vn 0 0 1 
vn 0 0 1 
vn 0 0 1 
vn 0 0 1 
vn 0 0 1 
vn 0 0 1 
vn 0 0 1 
vn 0 0 1 
vn 0 0 1 
vn 0 0 1 
vn 0 0 1 
vn 0 0 1 
vn 0 0 1 
vn 0 0 1 
vn 0 0 1 
vn 0 0 1 
vn 0 0 1 
vn 0 0 1 
vn 0 0 1 
vn 0 0 1 
vn 0 0 1 
vn 0 0 1 
vn 0 0 1 
vn 0 0 1 
vn 0 0 1 
vn 0 0 1 
vn 0 0 1 
vn 0 0 1 
vn 0 0 1 
vn 0 0 1 
vn 0 0 1 
vn 0 0 1 
vn 0 0 1 
vn 0 0 1 
vn 0 0 1 
vn 0 0 1 
vn 0 0 1 
vn 0 0 1 
vn 0 0 1 
vn 0 0 1 
vn 0 0 1 
vn 0 0 1 
vn 0 0 1 
vn 0 0 1 
vn 0 0 1 
vn 0 0 1 
vn 0 0 1 
vn 0 0 1 
vn 0 0 1 
vn 0 0 1 
vn 0 0 1 
vn 0 0 1 
vn 0 0 1 
vn 0 0 1 
vn 0 0 1 
vn 0 0 1 
vn 0 0 1 
vn 0 0 1 
vn 0 0 1 
vn 0 0 1 
vn 0 0 1 
vn 0 0 1 
vn 0 0 1 
vn 0 0 1 
vn 0 0 1 
vn 0 0 1 
vn 0 0 1 
vn 0 0 1 
vn 0 0 1 
vn 0 0 1 
vn 0 0 1 
vn 0 0 1 
vn 0 0 1 
vn 0 0 1 
vn 0 0 1 
vn 0 0 1 
vn 0 0 1 
vn 0 0 1 
vn 0 0 1 
vn 0 0 1 
vn 0 0 1 
vn 0 0 1 
vn 0 0 1 
vn 0 0 1 
vn 0 0 1 
vn 0 0 1 
vn 0 0 1 
vn 0 0 1 
vn 0 0 1 
vn 0 0 1 
vn 0 0 1 
vn 0 0 1 
vn 0 0 1 
vn 0 0 1 
vn 0 0 1 
vn 0 0 1 
vn 0 0 1 
vn 0 0 1 
vn 0 0 1 
vn 0 0 1 
vn 0 0 1 
vn 0 0 1 
vn 0 0 1 
vn 0 0 1 
vn 0 0 1 
vn 0 0 1 
f 221//221 222//222 223//223 
f 224//224 225//225 226//226 
f 227//227 228//228 221//221 
f 229//229 221//221 230//230 
f 231//231 224//224 232//232 
f 233//233 227//227 229//229 
f 234//234 233//233 235//235 
f 236//236 235//235 237//237 
f 238//238 239//239 240//240 
f 230//230 223//223 241//241 
f 225//225 242//242 241//241 
f 241//241 223//223 225//225 
f 224//224 243//243 242//242 
f 242//242 225//225 224//224 
f 231//231 244//244 245//245 
f 230//230 246//246 245//245 
f 224//224 231//231 247//247 
f 245//245 244//244 230//230 
f 245//245 247//247 231//231 
f 248//248 244//244 231//231 
f 235//235 249//249 250//250 
f 235//235 229//229 249//249 
f 244//244 248//248 249//249 
f 249//249 229//229 244//244 
f 237//237 250//250 251//251 
f 251//251 239//239 237//237 
f 240//240 239//239 252//252 
f 231//231 253//253 254//254 
f 252//252 254//254 240//240 
f 254//254 253//253 240//240 
f 238//238 255//255 256//256 
f 255//255 257//257 258//258 
f 258//258 256//256 255//255 
f 259//259 260//260 258//258 
f 258//258 257//257 259//259 
f 239//239 261//261 262//262 
f 238//238 263//263 261//261 
f 259//259 237//237 262//262 
f 261//261 239//239 238//238 
f 262//262 237//237 239//239 
f 255//255 238//238 264//264 
f 265//265 266//266 264//264 
f 264//264 238//238 265//265 
f 236//236 259//259 267//267 
f 257//257 268//268 267//267 
f 267//267 259//259 257//257 
f 269//269 234//234 270//270 
f 236//236 271//271 270//270 
f 270//270 234//234 236//236 
f 222//222 221//221 272//272 
f 228//228 273//273 272//272 
f 272//272 221//221 228//228 
f 274//274 275//275 276//276 
f 276//276 277//277 274//274 
f 232//232 278//278 276//276 
f 276//276 279//279 232//232 
f 226//226 280//280 278//278 
f 278//278 232//232 226//226 
f 232//232 279//279 281//281 
f 253//253 282//282 283//283 
f 283//283 240//240 253//253 
f 253//253 281//281 282//282 
f 240//240 284//284 285//285 
f 286//286 287//287 288//288 
f 265//265 285//285 286//286 
f 286//286 285//285 287//287 
f 288//288 289//289 286//286 
f 290//290 291//291 292//292 
f 291//291 293//293 294//294 
f 292//292 295//295 290//290 
f 291//291 296//296 293//293 
f 290//290 297//297 291//291 
f 288//288 295//295 292//292 
f 297//297 296//296 291//291 
f 294//294 298//298 291//291 
f 299//299 291//291 298//298 
f 298//298 300//300 299//299 
f 300//300 301//301 299//299 
f 255//255 302//302 299//299 
f 299//299 303//303 255//255 
f 255//255 304//304 305//305 
f 255//255 306//306 304//304 
f 257//257 305//305 307//307 
f 255//255 303//303 306//306 
f 305//305 257//257 255//255 
f 308//308 309//309 310//310 
f 308//308 311//311 309//309 
f 257//257 312//312 308//308 
f 308//308 312//312 311//311 
f 310//310 313//313 308//308 
f 313//313 314//314 315//315 
f 313//313 316//316 314//314 
f 313//313 317//317 316//316 
f 313//313 318//318 319//319 
f 319//319 317//317 313//313 
f 313//313 310//310 318//318 
f 269//269 320//320 321//321 
f 321//321 315//315 269//269 
f 269//269 315//315 322//322 
f 234//234 269//269 323//323 
f 323//323 324//324 234//234 
f 233//233 234//234 325//325 
f 227//227 326//326 327//327 
f 233//233 328//328 326//326 
f 326//326 227//227 233//233 
f 228//228 227//227 329//329 
f 330//330 331//331 332//332 
f 228//228 333//333 332//332 
f 332//332 333//333 334//334 
f 332//332 334//334 330//330 
f 335//335 336//336 337//337 
f 337//337 338//338 335//335 
f 336//336 335//335 339//339 
f 335//335 340//340 341//341 
f 339//339 342//342 336//336 
f 330//330 343//343 339//339 
f 338//338 340//340 335//335 
f 339//339 331//331 330//330 
f 341//341 344//344 335//335 
f 343//343 345//345 339//339 
f 344//344 346//346 335//335 
f 345//345 347//347 339//339 
f 346//346 348//348 335//335 
f 348//348 349//349 335//335 
f 222//222 350//350 351//351 
f 222//222 352//352 350//350 
f 352//352 222//222 353//353 
f 353//353 354//354 352//352 
f 353//353 355//355 354//354 
f 351//351 356//356 222//222 
f 353//353 357//357 355//355 
f 353//353 349//349 357//357 
f 222//222 358//358 353//353 
f 223//223 359//359 360//360 
f 223//223 222//222 356//356 
f 223//223 361//361 359//359 
f 356//356 362//362 223//223 
f 362//362 361//361 223//223 
f 225//225 363//363 364//364 
f 225//225 365//365 366//366 
f 225//225 223//223 367//367 
f 225//225 368//368 363//363 
f 367//367 365//365 225//225 
f 225//225 369//369 368//368 
f 366//366 370//370 225//225 
f 370//370 369//369 225//225 
f 225//225 371//371 372//372 
f 225//225 373//373 374//374 
f 225//225 375//375 376//376 
f 374//374 371//371 225//225 
f 372//372 375//375 225//225 
f 377//377 378//378 379//379 
f 377//377 380//380 378//378 
f 381//381 382//382 383//383 
f 379//379 384//384 377//377 
f 384//384 381//381 377//377 
f 377//377 385//385 386//386 
f 386//386 380//380 377//377 
f 377//377 387//387 388//388 
f 377//377 389//389 390//390 
f 377//377 391//391 385//385 
f 390//390 387//387 377//377 
f 377//377 376//376 392//392 
f 274//274 277//277 383//383 
f 388//388 391//391 377//377 
f 392//392 393//393 377//377 
f 383//383 394//394 395//395 
f 226//226 376//376 377//377 
f 393//393 389//389 377//377 
f 383//383 396//396 394//394 
f 383//383 377//377 381//381 
f 383//383 382//382 396//396 
f 383//383 395//395 274//274 
f 377//377 280//280 226//226 
f 376//376 226//226 225//225 
f 364//364 373//373 225//225 
f 360//360 367//367 223//223 
f 353//353 335//335 349//349 
f 347//347 342//342 339//339 
f 332//332 273//273 228//228 
f 329//329 333//333 228//228 
f 327//327 329//329 227//227 
f 325//325 328//328 233//233 
f 324//324 325//325 234//234 
f 322//322 323//323 269//269 
f 315//315 321//321 313//313 
f 308//308 268//268 257//257 
f 307//307 312//312 257//257 
f 301//301 303//303 299//299 
f 292//292 289//289 288//288 
f 286//286 266//266 265//265 
f 285//285 265//265 240//240 
f 283//283 284//284 240//240 
f 281//281 253//253 232//232 
f 275//275 279//279 276//276 
f 272//272 358//358 222//222 
f 270//270 320//320 269//269 
f 267//267 271//271 236//236 
f 264//264 302//302 255//255 
f 262//262 260//260 259//259 
f 256//256 263//263 238//238 
f 254//254 397//397 231//231 
f 251//251 252//252 239//239 
f 250//250 237//237 235//235 
f 231//231 397//397 248//248 
f 247//247 243//243 224//224 
f 241//241 246//246 230//230 
f 240//240 265//265 238//238 
f 237//237 259//259 236//236 
f 235//235 236//236 234//234 
f 229//229 235//235 233//233 
f 232//232 253//253 231//231 
f 230//230 244//244 229//229 
f 221//221 229//229 227//227 
f 226//226 232//232 224//224 
f 223//223 230//230 221//221 
o mesh862
v -0.00071 0.00091375 -8.5e-05 
v -0.000355 0.00091375 -8.5e-05 
v -0.000355 0.000773317 -8.5e-05 
v -0.0002035 0.00091375 -8.5e-05 
v -0.0002035 0.000773317 -8.5e-05 
v 0.0002035 0.00091375 -8.5e-05 
v 0.000355 0.00091375 -8.5e-05 
v 0.000355 0.000773317 -8.5e-05 
v -0.00071 0.000773317 -8.5e-05 
v -0.000355 4.77167e-05 -8.5e-05 
v -0.00071 4.77167e-05 -8.5e-05 
v -0.000355 -0.00019375 -8.5e-05 
v -0.0002035 4.77167e-05 -8.5e-05 
v -0.0002035 -0.00019375 -8.5e-05 
v 0.0002035 4.77167e-05 -8.5e-05 
v 0.000355 4.77167e-05 -8.5e-05 
v 0.000355 -0.00019375 -8.5e-05 
v -0.0002035 -0.00052875 -8.5e-05 
v 0.0002035 -0.00019375 -8.5e-05 
v 0.000355 -0.00052875 -8.5e-05 
v -8.5e-05 0 -8.5e-05 
v 8.5e-05 0 -8.5e-05 
v 8.5e-05 -0.00019375 -8.5e-05 
v 0.0002035 -0.00052875 -8.5e-05 
v -8.5e-05 -0.0005 -8.5e-05 
v -8.5e-05 -0.00019375 -8.5e-05 
v 8.5e-05 -0.0005 -8.5e-05 
v -0.0002035 9.54334e-05 -8.5e-05 
v 0.0002035 9.54334e-05 -8.5e-05 
v 0.00035 9.54334e-05 -8.5e-05 
v 0.0002035 0.000349171 -8.5e-05 
v 0.0002035 0.000773317 -8.5e-05 
v -4.06576e-19 0.000701633 -8.5e-05 
v -0.0002035 0.000349171 -8.5e-05 
v -0.00035 9.54334e-05 -8.5e-05 
v 8.5e-05 0.000845 -8.5e-05 
v -8.5e-05 0.000845 -8.5e-05 
v -8.5e-05 0.00091375 -8.5e-05 
v 0.0002035 0.00112375 -8.5e-05 
v 8.5e-05 0.001095 -8.5e-05 
v -8.5e-05 0.001095 -8.5e-05 
v 8.5e-05 0.00091375 -8.5e-05 
v -0.0002035 0.00112375 -8.5e-05 
v 0.000322 0.0009825 -8.5e-05 
v 0.000322 0.00112375 -8.5e-05 
v -0.00056 0.0009825 -8.5e-05 
v -0.00071 0.00112375 -8.5e-05 
v -0.00056 0.00112375 -8.5e-05 
v -0.000322 0.0009825 -8.5e-05 
v -0.000355 0.0009825 -8.5e-05 
v -0.00071 -0.00019375 -8.5e-05 
v -0.00036 -0.0003875 -8.5e-05 
v -0.000355 -0.00052875 -8.5e-05 
v -0.00036 -0.00052875 -8.5e-05 
v 0.000251199 -0.00168568 -8.5e-05 
v 0.000204098 -0.00170843 -8.5e-05 
v 0.000337048 -0.00162614 -8.5e-05 
v 0.000295677 -0.00165815 -8.5e-05 
v 0.000355 -0.00160899 -8.5e-05 
v -0.000154885 -0.00172615 -8.5e-05 
v -0.0002035 -0.00170864 -8.5e-05 
v -5.2279e-05 -0.00174581 -8.5e-05 
v -0.000104095 -0.00173866 -8.5e-05 
v 0.000104095 -0.00173866 -8.5e-05 
v 5.2279e-05 -0.00174581 -8.5e-05 
v 0.000154885 -0.00172615 -8.5e-05 
v 4.87891e-18 -0.00174753 -8.5e-05 
v 0.0002035 -0.00170864 -8.5e-05 
v -0.000337048 -0.00162614 -8.5e-05 
v -0.000355 -0.00160899 -8.5e-05 
v -0.000204098 -0.00170843 -8.5e-05 
v -0.000295677 -0.00165815 -8.5e-05 
v -0.000251199 -0.00168568 -8.5e-05 
v -0.00036 -0.0005575 -8.5e-05 
v -0.000374863 -0.00159 -8.5e-05 
v -0.000648056 -0.00132098 -8.5e-05 
v -0.00071 -0.00128543 -8.5e-05 
v -0.000517231 -0.0014239 -8.5e-05 
v -0.000580145 -0.00136927 -8.5e-05 
v -0.000408712 -0.00155013 -8.5e-05 
v -0.000459907 -0.00148438 -8.5e-05 
v -0.00071 -0.0005575 -8.5e-05 
v -0.00105185 -0.00107361 -8.5e-05 
v -0.00110314 -0.00101555 -8.5e-05 
v -0.00114822 -0.000952547 -8.5e-05 
v -0.00118663 -0.00088527 -8.5e-05 
v -0.00086 -0.0005575 -8.5e-05 
v -0.000994898 -0.00112612 -8.5e-05 
v -0.000796275 -0.00124522 -8.5e-05 
v -0.000866438 -0.00121238 -8.5e-05 
v -0.000932878 -0.00117254 -8.5e-05 
v -0.00126119 -0.00052875 -8.5e-05 
v -0.00086 -0.00052875 -8.5e-05 
v -0.00124189 -0.00074074 -8.5e-05 
v -0.00125816 -0.000665 -8.5e-05 
v -0.000720326 -0.0012795 -8.5e-05 
v -0.00121796 -0.000814421 -8.5e-05 
v -0.00126621 -0.000303265 -8.5e-05 
v -0.00086 -0.0003875 -8.5e-05 
v -0.00071 -0.0003875 -8.5e-05 
v -0.00125723 -0.00019375 -8.5e-05 
v -0.00123744 4.77167e-05 -8.5e-05 
v -0.00116979 0.000412943 -8.5e-05 
v -0.00123665 5.73496e-05 -8.5e-05 
v -0.00106635 0.000759668 -8.5e-05 
v -0.0010023 0.00091375 -8.5e-05 
v -0.000927467 0.00109377 -8.5e-05 
v -0.000911168 0.00112375 -8.5e-05 
v -0.000754626 0.00141165 -8.5e-05 
v -0.000355 0.0011525 -8.5e-05 
v -0.00056 0.0011525 -8.5e-05 
v -0.00071 0.00147784 -8.5e-05 
v -0.000701264 0.0014908 -8.5e-05 
v -0.000570469 0.00162948 -8.5e-05 
v -0.000494577 0.00168738 -8.5e-05 
v -0.000639636 0.00156369 -8.5e-05 
v -0.000412856 0.00173671 -8.5e-05 
v -0.000355 0.00176356 -8.5e-05 
v -0.000322 0.0011525 -8.5e-05 
v -0.000326269 0.00177689 -8.5e-05 
v -0.000235835 0.00180745 -8.5e-05 
v -0.000322 0.00112375 -8.5e-05 
v -0.0002035 0.00181459 -8.5e-05 
v -4.77283e-05 0.00183837 -8.5e-05 
v 4.77283e-05 0.00183837 -8.5e-05 
v 0.000142622 0.00182803 -8.5e-05 
v -0.000142622 0.00182803 -8.5e-05 
v 0.000322 0.0011525 -8.5e-05 
v 0.000326269 0.00177689 -8.5e-05 
v 0.000355 0.00176356 -8.5e-05 
v 0.000235835 0.00180745 -8.5e-05 
v 0.0002035 0.00181459 -8.5e-05 
v 0.000355 0.0011525 -8.5e-05 
v 0.000701264 0.0014908 -8.5e-05 
v 0.000754626 0.00141165 -8.5e-05 
v 0.00056 0.0011525 -8.5e-05 
v 0.000639636 0.00156369 -8.5e-05 
v 0.000412856 0.00173671 -8.5e-05 
v 0.000570469 0.00162948 -8.5e-05 
v 0.000494577 0.00168738 -8.5e-05 
v 0.000911168 0.00112375 -8.5e-05 
v 0.00056 0.00112375 -8.5e-05 
v 0.00056 0.0009825 -8.5e-05 
v 0.000927467 0.00109377 -8.5e-05 
v 0.000355 0.0009825 -8.5e-05 
v 0.0010023 0.00091375 -8.5e-05 
v 0.00106635 0.000759668 -8.5e-05 
v 0.00106068 0.000773317 -8.5e-05 
v 0.00116979 0.000412943 -8.5e-05 
v 0.00123665 5.73496e-05 -8.5e-05 
v 0.00036 -0.0003875 -8.5e-05 
v 0.00125723 -0.00019375 -8.5e-05 
v 0.00086 -0.0003875 -8.5e-05 
v 0.00126119 -0.00052875 -8.5e-05 
v 0.00086 -0.00052875 -8.5e-05 
v 0.00126621 -0.000303265 -8.5e-05 
v 0.000408712 -0.00155013 -8.5e-05 
v 0.000374863 -0.00159 -8.5e-05 
v 0.000459907 -0.00148438 -8.5e-05 
v 0.00036 -0.0005575 -8.5e-05 
v 0.000580145 -0.00136927 -8.5e-05 
v 0.000517231 -0.0014239 -8.5e-05 
v 0.000648056 -0.00132098 -8.5e-05 
v 0.000720326 -0.0012795 -8.5e-05 
v 0.000796275 -0.00124522 -8.5e-05 
v 0.000866438 -0.00121238 -8.5e-05 
v 0.000932878 -0.00117254 -8.5e-05 
v 0.000994898 -0.00112612 -8.5e-05 
v 0.00105185 -0.00107361 -8.5e-05 
v 0.00125816 -0.000665 -8.5e-05 
v 0.00086 -0.0005575 -8.5e-05 
v 0.00110314 -0.00101555 -8.5e-05 
v 0.00124189 -0.00074074 -8.5e-05 
v 0.00121796 -0.000814421 -8.5e-05 
v 0.00114822 -0.000952547 -8.5e-05 
v 0.00118663 -0.00088527 -8.5e-05 
v 0.00036 -0.00052875 -8.5e-05 
vn 0 0 -1 
vn 0 0 -1 
vn 0 0 -1 
vn 0 0 -1 
vn 0 0 -1 
vn 0 0 -1 
vn 0 0 -1 
vn 0 0 -1 
vn 0 0 -1 
vn 0 0 -1 
vn 0 0 -1 
vn 0 0 -1 
vn 0 0 -1 
vn 0 0 -1 
vn 0 0 -1 
vn 0 0 -1 
vn 0 0 -1 
vn 0 0 -1 
vn 0 0 -1 
vn 0 0 -1 
vn 0 0 -1 
vn 0 0 -1 
vn 0 0 -1 
vn 0 0 -1 
vn 0 0 -1 
vn 0 0 -1 
vn 0 0 -1 
vn 0 0 -1 
vn 0 0 -1 
vn 0 0 -1 
vn 0 0 -1 
vn 0 0 -1 
vn 0 0 -1 
vn 0 0 -1 
vn 0 0 -1 
vn 0 0 -1 
vn 0 0 -1 
vn 0 0 -1 
vn 0 0 -1 
vn 0 0 -1 
vn 0 0 -1 
vn 0 0 -1 
vn 0 0 -1 
vn 0 0 -1 
vn 0 0 -1 
vn 0 0 -1 
vn 0 0 -1 
vn 0 0 -1 
vn 0 0 -1 
vn 0 0 -1 
vn 0 0 -1 
vn 0 0 -1 
vn 0 0 -1 
vn 0 0 -1 
vn 0 0 -1 
vn 0 0 -1 
vn 0 0 -1 
vn 0 0 -1 
vn 0 0 -1 
vn 0 0 -1 
vn 0 0 -1 
vn 0 0 -1 
vn 0 0 -1 
vn 0 0 -1 
vn 0 0 -1 
vn 0 0 -1 
vn 0 0 -1 
vn 0 0 -1 
vn 0 0 -1 
vn 0 0 -1 
vn 0 0 -1 
vn 0 0 -1 
vn 0 0 -1 
vn 0 0 -1 
vn 0 0 -1 
vn 0 0 -1 
vn 0 0 -1 
vn 0 0 -1 
vn 0 0 -1 
vn 0 0 -1 
vn 0 0 -1 
vn 0 0 -1 
vn 0 0 -1 
vn 0 0 -1 
vn 0 0 -1 
vn 0 0 -1 
vn 0 0 -1 
vn 0 0 -1 
vn 0 0 -1 
vn 0 0 -1 
vn 0 0 -1 
vn 0 0 -1 
vn 0 0 -1 
vn 0 0 -1 
vn 0 0 -1 
vn 0 0 -1 
vn 0 0 -1 
vn 0 0 -1 
vn 0 0 -1 
vn 0 0 -1 
vn 0 0 -1 
vn 0 0 -1 
vn 0 0 -1 
vn 0 0 -1 
vn 0 0 -1 
vn 0 0 -1 
vn 0 0 -1 
vn 0 0 -1 
vn 0 0 -1 
vn 0 0 -1 
vn 0 0 -1 
vn 0 0 -1 
vn 0 0 -1 
vn 0 0 -1 
vn 0 0 -1 
vn 0 0 -1 
vn 0 0 -1 
vn 0 0 -1 
vn 0 0 -1 
vn 0 0 -1 
vn 0 0 -1 
vn 0 0 -1 
vn 0 0 -1 
vn 0 0 -1 
vn 0 0 -1 
vn 0 0 -1 
vn 0 0 -1 
vn 0 0 -1 
vn 0 0 -1 
vn 0 0 -1 
vn 0 0 -1 
vn 0 0 -1 
vn 0 0 -1 
vn 0 0 -1 
vn 0 0 -1 
vn 0 0 -1 
vn 0 0 -1 
vn 0 0 -1 
vn 0 0 -1 
vn 0 0 -1 
vn 0 0 -1 
vn 0 0 -1 
vn 0 0 -1 
vn 0 0 -1 
vn 0 0 -1 
vn 0 0 -1 
vn 0 0 -1 
vn 0 0 -1 
vn 0 0 -1 
vn 0 0 -1 
vn 0 0 -1 
vn 0 0 -1 
vn 0 0 -1 
vn 0 0 -1 
vn 0 0 -1 
vn 0 0 -1 
vn 0 0 -1 
vn 0 0 -1 
vn 0 0 -1 
vn 0 0 -1 
vn 0 0 -1 
vn 0 0 -1 
vn 0 0 -1 
vn 0 0 -1 
vn 0 0 -1 
vn 0 0 -1 
vn 0 0 -1 
vn 0 0 -1 
vn 0 0 -1 
vn 0 0 -1 
vn 0 0 -1 
vn 0 0 -1 
vn 0 0 -1 
vn 0 0 -1 
vn 0 0 -1 
vn 0 0 -1 
vn 0 0 -1 
f 398//398 399//399 400//400 
f 399//399 401//401 402//402 
f 403//403 404//404 405//405 
f 406//406 400//400 407//407 
f 408//408 407//407 409//409 
f 407//407 410//410 411//411 
f 412//412 413//413 414//414 
f 409//409 411//411 415//415 
f 416//416 414//414 417//417 
f 411//411 410//410 418//418 
f 412//412 419//419 418//418 
f 418//418 410//410 412//412 
f 416//416 420//420 419//419 
f 419//419 412//412 416//416 
f 421//421 415//415 422//422 
f 411//411 423//423 422//422 
f 416//416 421//421 424//424 
f 422//422 415//415 411//411 
f 422//422 424//424 421//421 
f 425//425 426//426 412//412 
f 405//405 427//427 428//428 
f 405//405 413//413 427//427 
f 412//412 426//426 427//427 
f 427//427 413//413 412//412 
f 402//402 429//429 430//430 
f 429//429 428//428 430//430 
f 400//400 402//402 431//431 
f 410//410 407//407 432//432 
f 431//431 432//432 400//400 
f 432//432 407//407 400//400 
f 403//403 429//429 433//433 
f 429//429 402//402 434//434 
f 434//434 433//433 429//429 
f 401//401 435//435 434//434 
f 434//434 402//402 401//401 
f 436//436 437//437 438//438 
f 403//403 439//439 437//437 
f 401//401 440//440 438//438 
f 437//437 436//436 403//403 
f 438//438 440//440 436//436 
f 404//404 403//403 441//441 
f 436//436 442//442 441//441 
f 441//441 403//403 436//436 
f 399//399 398//398 443//443 
f 444//444 445//445 443//443 
f 443//443 398//398 444//444 
f 440//440 401//401 446//446 
f 399//399 447//447 446//446 
f 446//446 401//401 399//399 
f 448//448 409//409 449//449 
f 450//450 451//451 449//449 
f 449//449 409//409 450//450 
f 421//421 452//452 453//453 
f 421//421 454//454 455//455 
f 455//455 452//452 421//421 
f 421//421 417//417 456//456 
f 456//456 454//454 421//421 
f 421//421 457//457 458//458 
f 421//421 459//459 460//460 
f 421//421 461//461 462//462 
f 460//460 457//457 421//421 
f 421//421 463//463 461//461 
f 421//421 464//464 459//459 
f 421//421 465//465 463//463 
f 462//462 464//464 421//421 
f 415//415 466//466 467//467 
f 415//415 458//458 468//468 
f 415//415 469//469 466//466 
f 468//468 470//470 415//415 
f 470//470 469//469 415//415 
f 471//471 467//467 472//472 
f 471//471 473//473 474//474 
f 471//471 475//475 476//476 
f 472//472 477//477 471//471 
f 476//476 473//473 471//471 
f 477//477 478//478 471//471 
f 450//450 467//467 471//471 
f 478//478 475//475 471//471 
f 474//474 479//479 471//471 
f 479//479 480//480 481//481 
f 482//482 483//483 484//484 
f 479//479 485//485 480//480 
f 479//479 486//486 487//487 
f 481//481 482//482 479//479 
f 487//487 488//488 479//479 
f 489//489 490//490 484//484 
f 488//488 485//485 479//479 
f 484//484 491//491 492//492 
f 479//479 493//493 486//486 
f 484//484 494//494 491//491 
f 479//479 474//474 493//493 
f 484//484 483//483 494//494 
f 484//484 492//492 489//489 
f 489//489 495//495 496//496 
f 496//496 490//490 489//489 
f 448//448 497//497 496//496 
f 496//496 498//498 448//448 
f 448//448 498//498 499//499 
f 406//406 408//408 500//500 
f 408//408 499//499 501//501 
f 501//501 500//500 408//408 
f 406//406 502//502 503//503 
f 398//398 504//504 505//505 
f 398//398 503//503 504//504 
f 444//444 505//505 506//506 
f 507//507 508//508 509//509 
f 509//509 510//510 507//507 
f 507//507 511//511 512//512 
f 510//510 513//513 507//507 
f 513//513 511//511 507//507 
f 444//444 509//509 508//508 
f 512//512 514//514 507//507 
f 514//514 515//515 507//507 
f 516//516 507//507 515//515 
f 515//515 517//517 516//516 
f 517//517 518//518 516//516 
f 440//440 519//519 516//516 
f 516//516 520//520 440//440 
f 436//436 440//440 521//521 
f 521//521 522//522 436//436 
f 522//522 523//523 436//436 
f 440//440 520//520 524//524 
f 524//524 521//521 440//440 
f 525//525 526//526 527//527 
f 525//525 528//528 526//526 
f 436//436 529//529 525//525 
f 525//525 529//529 528//528 
f 527//527 530//530 525//525 
f 531//531 532//532 533//533 
f 530//530 534//534 531//531 
f 530//530 527//527 535//535 
f 530//530 536//536 534//534 
f 535//535 537//537 530//530 
f 537//537 536//536 530//530 
f 538//538 539//539 533//533 
f 533//533 532//532 538//538 
f 540//540 539//539 538//538 
f 538//538 541//541 540//540 
f 404//404 542//542 540//540 
f 540//540 543//543 404//404 
f 405//405 404//404 543//543 
f 413//413 405//405 544//544 
f 405//405 545//545 544//544 
f 544//544 546//546 413//413 
f 414//414 413//413 547//547 
f 417//417 414//414 548//548 
f 414//414 549//549 550//550 
f 551//551 552//552 550//550 
f 550//550 548//548 414//414 
f 550//550 549//549 553//553 
f 550//550 553//553 551//551 
f 417//417 554//554 555//555 
f 556//556 417//417 557//557 
f 417//417 556//556 554//554 
f 557//557 558//558 559//559 
f 557//557 559//559 556//556 
f 555//555 456//456 417//417 
f 557//557 560//560 558//558 
f 557//557 561//561 560//560 
f 557//557 562//562 561//561 
f 557//557 563//563 562//562 
f 557//557 564//564 563//563 
f 557//557 565//565 564//564 
f 557//557 566//566 565//565 
f 551//551 567//567 568//568 
f 557//557 569//569 566//566 
f 568//568 570//570 571//571 
f 568//568 552//552 551//551 
f 557//557 572//572 569//569 
f 567//567 570//570 568//568 
f 557//557 573//573 572//572 
f 557//557 568//568 573//573 
f 417//417 574//574 557//557 
f 571//571 573//573 568//568 
f 548//548 574//574 417//417 
f 547//547 549//549 414//414 
f 546//546 547//547 413//413 
f 543//543 545//545 405//405 
f 541//541 543//543 540//540 
f 533//533 530//530 531//531 
f 525//525 442//442 436//436 
f 523//523 529//529 436//436 
f 518//518 520//520 516//516 
f 508//508 445//445 444//444 
f 506//506 509//509 444//444 
f 505//505 444//444 398//398 
f 503//503 398//398 406//406 
f 500//500 502//502 406//406 
f 499//499 408//408 448//448 
f 495//495 498//498 496//496 
f 484//484 479//479 482//482 
f 471//471 451//451 450//450 
f 467//467 450//450 415//415 
f 458//458 415//415 421//421 
f 453//453 465//465 421//421 
f 449//449 497//497 448//448 
f 446//446 519//519 440//440 
f 443//443 447//447 399//399 
f 441//441 542//542 404//404 
f 438//438 435//435 401//401 
f 433//433 439//439 403//403 
f 432//432 425//425 410//410 
f 430//430 431//431 402//402 
f 428//428 429//429 405//405 
f 412//412 410//410 425//425 
f 424//424 420//420 416//416 
f 418//418 423//423 411//411 
f 417//417 421//421 416//416 
f 415//415 450//450 409//409 
f 414//414 416//416 412//412 
f 411//411 409//409 407//407 
f 409//409 448//448 408//408 
f 407//407 408//408 406//406 
f 405//405 429//429 403//403 
f 402//402 400//400 399//399 
f 400//400 406//406 398//398 
o mesh863
v -0.00036 -0.0003875 8.5e-05 
v -0.00071 -0.0003875 8.5e-05 
v -0.00071 -0.0003875 -8.5e-05 
v -0.00086 -0.0003875 -8.5e-05 
v -0.00086 -0.0003875 8.5e-05 
v -0.00036 -0.0003875 -8.5e-05 
vn 0 -1 0 
vn 0 -1 0 
vn 0 -1 0 
vn 0 -1 0 
vn 0 -1 0 
vn 0 -1 0 
f 575//575 576//576 577//577 
f 578//578 577//577 576//576 
f 576//576 579//579 578//578 
f 577//577 580//580 575//575 
o mesh864
v -0.00036 -0.0005575 8.5e-05 
v -0.00036 -0.00052875 8.5e-05 
v -0.00036 -0.00052875 -8.5e-05 
v -0.00036 -0.0003875 -8.5e-05 
v -0.00036 -0.0003875 8.5e-05 
v -0.00036 -0.0005575 -8.5e-05 
vn -1 0 0 
vn -1 0 0 
vn -1 0 0 
vn -1 0 0 
vn -1 0 0 
vn -1 0 0 
f 581//581 582//582 583//583 
f 584//584 583//583 582//582 
f 582//582 585//585 584//584 
f 583//583 586//586 581//581 
o mesh865
v -0.00086 -0.0005575 8.5e-05 
v -0.00071 -0.0005575 8.5e-05 
v -0.00071 -0.0005575 -8.5e-05 
v -0.00036 -0.0005575 -8.5e-05 
v -0.00036 -0.0005575 8.5e-05 
v -0.00086 -0.0005575 -8.5e-05 
vn 0 1 0 
vn 0 1 0 
vn 0 1 0 
vn 0 1 0 
vn 0 1 0 
vn 0 1 0 
f 587//587 588//588 589//589 
f 590//590 589//589 588//588 
f 588//588 591//591 590//590 
f 589//589 592//592 587//587 
o mesh866
v -0.000322 0.0011525 8.5e-05 
v -0.000355 0.0011525 8.5e-05 
v -0.000355 0.0011525 -8.5e-05 
v -0.00056 0.0011525 -8.5e-05 
v -0.00056 0.0011525 8.5e-05 
v -0.000322 0.0011525 -8.5e-05 
vn 0 -1 0 
vn 0 -1 0 
vn 0 -1 0 
vn 0 -1 0 
vn 0 -1 0 
vn 0 -1 0 
f 593//593 594//594 595//595 
f 596//596 595//595 594//594 
f 594//594 597//597 596//596 
f 595//595 598//598 593//593 
o mesh867
v -0.000322 0.0009825 8.5e-05 
v -0.000322 0.00112375 8.5e-05 
v -0.000322 0.00112375 -8.5e-05 
v -0.000322 0.0011525 -8.5e-05 
v -0.000322 0.0011525 8.5e-05 
v -0.000322 0.0009825 -8.5e-05 
vn -1 0 0 
vn -1 0 0 
vn -1 0 0 
vn -1 0 0 
vn -1 0 0 
vn -1 0 0 
f 599//599 600//600 601//601 
f 602//602 601//601 600//600 
f 600//600 603//603 602//602 
f 601//601 604//604 599//599 
o mesh868
v -0.00056 0.0009825 8.5e-05 
v -0.000355 0.0009825 8.5e-05 
v -0.000355 0.0009825 -8.5e-05 
v -0.000322 0.0009825 -8.5e-05 
v -0.000322 0.0009825 8.5e-05 
v -0.00056 0.0009825 -8.5e-05 
vn 0 1 0 
vn 0 1 0 
vn 0 1 0 
vn 0 1 0 
vn 0 1 0 
vn 0 1 0 
f 605//605 606//606 607//607 
f 608//608 607//607 606//606 
f 606//606 609//609 608//608 
f 607//607 610//610 605//605 
o mesh869
v 0.00056 0.0011525 8.5e-05 
v 0.000355 0.0011525 8.5e-05 
v 0.000355 0.0011525 -8.5e-05 
v 0.000322 0.0011525 -8.5e-05 
v 0.000322 0.0011525 8.5e-05 
v 0.00056 0.0011525 -8.5e-05 
vn 0 -1 0 
vn 0 -1 0 
vn 0 -1 0 
vn 0 -1 0 
vn 0 -1 0 
vn 0 -1 0 
f 611//611 612//612 613//613 
f 614//614 613//613 612//612 
f 612//612 615//615 614//614 
f 613//613 616//616 611//611 
o mesh870
v 0.00056 0.0009825 8.5e-05 
v 0.00056 0.00112375 8.5e-05 
v 0.00056 0.00112375 -8.5e-05 
v 0.00056 0.0011525 -8.5e-05 
v 0.00056 0.0011525 8.5e-05 
v 0.00056 0.0009825 -8.5e-05 
vn -1 0 0 
vn -1 0 0 
vn -1 0 0 
vn -1 0 0 
vn -1 0 0 
vn -1 0 0 
f 617//617 618//618 619//619 
f 620//620 619//619 618//618 
f 618//618 621//621 620//620 
f 619//619 622//622 617//617 
o mesh871
v 0.000322 0.0009825 8.5e-05 
v 0.000355 0.0009825 8.5e-05 
v 0.000355 0.0009825 -8.5e-05 
v 0.00056 0.0009825 -8.5e-05 
v 0.00056 0.0009825 8.5e-05 
v 0.000322 0.0009825 -8.5e-05 
vn 0 1 0 
vn 0 1 0 
vn 0 1 0 
vn 0 1 0 
vn 0 1 0 
vn 0 1 0 
f 623//623 624//624 625//625 
f 626//626 625//625 624//624 
f 624//624 627//627 626//626 
f 625//625 628//628 623//623 
o mesh872
v -8.5e-05 0.001095 8.5e-05 
v -8.5e-05 0.00091375 8.5e-05 
v -8.5e-05 0.00091375 -8.5e-05 
v -8.5e-05 0.000845 -8.5e-05 
v -8.5e-05 0.000845 8.5e-05 
v -8.5e-05 0.001095 -8.5e-05 
vn 1 0 0 
vn 1 0 0 
vn 1 0 0 
vn 1 0 0 
vn 1 0 0 
vn 1 0 0 
f 629//629 630//630 631//631 
f 632//632 631//631 630//630 
f 630//630 633//633 632//632 
f 631//631 634//634 629//629 
o mesh873
v -8.5e-05 0.001095 8.5e-05 
v -8.5e-05 0.001095 -8.5e-05 
v 8.5e-05 0.001095 -8.5e-05 
v 8.5e-05 0.001095 8.5e-05 
vn 0 -1 0 
vn 0 -1 0 
vn 0 -1 0 
vn 0 -1 0 
f 635//635 636//636 637//637 
f 637//637 638//638 635//635 
o mesh874
v 8.5e-05 0.000845 8.5e-05 
v 8.5e-05 0.00091375 8.5e-05 
v 8.5e-05 0.00091375 -8.5e-05 
v 8.5e-05 0.001095 -8.5e-05 
v 8.5e-05 0.001095 8.5e-05 
v 8.5e-05 0.000845 -8.5e-05 
vn -1 0 0 
vn -1 0 0 
vn -1 0 0 
vn -1 0 0 
vn -1 0 0 
vn -1 0 0 
f 639//639 640//640 641//641 
f 642//642 641//641 640//640 
f 640//640 643//643 642//642 
f 641//641 644//644 639//639 
o mesh875
v -0.00035 9.54334e-05 8.5e-05 
v -0.0002035 9.54334e-05 8.5e-05 
v -0.0002035 9.54334e-05 -8.5e-05 
v 0.0002035 9.54334e-05 -8.5e-05 
v 0.0002035 9.54334e-05 8.5e-05 
v 0.00035 9.54334e-05 -8.5e-05 
v 0.00035 9.54334e-05 8.5e-05 
v -0.00035 9.54334e-05 -8.5e-05 
vn 0 1 0 
vn 0 1 0 
vn 0 1 0 
vn 0 1 0 
vn 0 1 0 
vn 0 1 0 
vn 0 1 0 
vn 0 1 0 
f 645//645 646//646 647//647 
f 648//648 647//647 646//646 
f 646//646 649//649 648//648 
f 650//650 648//648 649//649 
f 649//649 651//651 650//650 
f 647//647 652//652 645//645 
o mesh876
v -4.06576e-19 0.000701633 8.5e-05 
v -0.0002035 0.000349171 8.5e-05 
v -0.0002035 0.000349171 -8.5e-05 
v -0.00035 9.54334e-05 8.5e-05 
v -0.00035 9.54334e-05 -8.5e-05 
v -4.06576e-19 0.000701633 -8.5e-05 
vn 0.866019 -0.500011 0 
vn 0.866019 -0.500011 0 
vn 0.866019 -0.500011 0 
vn 0.866019 -0.500011 0 
vn 0.866019 -0.500011 0 
vn 0.866019 -0.500011 0 
f 653//653 654//654 655//655 
f 656//656 657//657 655//655 
f 655//655 654//654 656//656 
f 655//655 658//658 653//653 
o mesh877
v 8.5e-05 -0.0005 8.5e-05 
v 8.5e-05 -0.00019375 8.5e-05 
v 8.5e-05 -0.00019375 -8.5e-05 
v 8.5e-05 0 -8.5e-05 
v 8.5e-05 0 8.5e-05 
v 8.5e-05 -0.0005 -8.5e-05 
vn -1 0 0 
vn -1 0 0 
vn -1 0 0 
vn -1 0 0 
vn -1 0 0 
vn -1 0 0 
f 659//659 660//660 661//661 
f 662//662 661//661 660//660 
f 660//660 663//663 662//662 
f 661//661 664//664 659//659 
o mesh878
v 8.5e-05 -0.0005 8.5e-05 
v 8.5e-05 -0.0005 -8.5e-05 
v -8.5e-05 -0.0005 -8.5e-05 
v -8.5e-05 -0.0005 8.5e-05 
vn 0 1 0 
vn 0 1 0 
vn 0 1 0 
vn 0 1 0 
f 665//665 666//666 667//667 
f 667//667 668//668 665//665 
o mesh879
v -8.5e-05 0 8.5e-05 
v -8.5e-05 -0.00019375 8.5e-05 
v -8.5e-05 -0.00019375 -8.5e-05 
v -8.5e-05 -0.0005 -8.5e-05 
v -8.5e-05 -0.0005 8.5e-05 
v -8.5e-05 0 -8.5e-05 
vn 1 0 0 
vn 1 0 0 
vn 1 0 0 
vn 1 0 0 
vn 1 0 0 
vn 1 0 0 
f 669//669 670//670 671//671 
f 672//672 671//671 670//670 
f 670//670 673//673 672//672 
f 671//671 674//674 669//669 
o mesh880
v 0.00036 -0.0003875 8.5e-05 
v 0.00036 -0.0003875 -8.5e-05 
v 0.00086 -0.0003875 -8.5e-05 
v 0.00086 -0.0003875 8.5e-05 
vn 0 -1 0 
vn 0 -1 0 
vn 0 -1 0 
vn 0 -1 0 
f 675//675 676//676 677//677 
f 677//677 678//678 675//675 
o mesh881
v 0.00086 -0.0005575 8.5e-05 
v 0.00086 -0.00052875 8.5e-05 
v 0.00086 -0.00052875 -8.5e-05 
v 0.00086 -0.0003875 -8.5e-05 
v 0.00086 -0.0003875 8.5e-05 
v 0.00086 -0.0005575 -8.5e-05 
vn -1 0 0 
vn -1 0 0 
vn -1 0 0 
vn -1 0 0 
vn -1 0 0 
vn -1 0 0 
f 679//679 680//680 681//681 
f 682//682 681//681 680//680 
f 680//680 683//683 682//682 
f 681//681 684//684 679//679 
o mesh882
v 0.00086 -0.0005575 8.5e-05 
v 0.00086 -0.0005575 -8.5e-05 
v 0.00036 -0.0005575 -8.5e-05 
v 0.00036 -0.0005575 8.5e-05 
vn 0 1 0 
vn 0 1 0 
vn 0 1 0 
vn 0 1 0 
f 685//685 686//686 687//687 
f 687//687 688//688 685//685 
o mesh883
v -0.00086 -0.0003875 8.5e-05 
v -0.00086 -0.00052875 8.5e-05 
v -0.00086 -0.00052875 -8.5e-05 
v -0.00086 -0.0005575 -8.5e-05 
v -0.00086 -0.0005575 8.5e-05 
v -0.00086 -0.0003875 -8.5e-05 
vn 1 0 0 
vn 1 0 0 
vn 1 0 0 
vn 1 0 0 
vn 1 0 0 
vn 1 0 0 
f 689//689 690//690 691//691 
f 692//692 691//691 690//690 
f 690//690 693//693 692//692 
f 691//691 694//694 689//689 
o mesh884
v -0.00056 0.0011525 8.5e-05 
v -0.00056 0.00112375 8.5e-05 
v -0.00056 0.00112375 -8.5e-05 
v -0.00056 0.0009825 -8.5e-05 
v -0.00056 0.0009825 8.5e-05 
v -0.00056 0.0011525 -8.5e-05 
vn 1 0 0 
vn 1 0 0 
vn 1 0 0 
vn 1 0 0 
vn 1 0 0 
vn 1 0 0 
f 695//695 696//696 697//697 
f 698//698 697//697 696//696 
f 696//696 699//699 698//698 
f 697//697 700//700 695//695 
o mesh885
v 0.000322 0.0011525 8.5e-05 
v 0.000322 0.00112375 8.5e-05 
v 0.000322 0.00112375 -8.5e-05 
v 0.000322 0.0009825 -8.5e-05 
v 0.000322 0.0009825 8.5e-05 
v 0.000322 0.0011525 -8.5e-05 
vn 1 0 0 
vn 1 0 0 
vn 1 0 0 
vn 1 0 0 
vn 1 0 0 
vn 1 0 0 
f 701//701 702//702 703//703 
f 704//704 703//703 702//702 
f 702//702 705//705 704//704 
f 703//703 706//706 701//701 
o mesh886
v 8.5e-05 0.000845 8.5e-05 
v 8.5e-05 0.000845 -8.5e-05 
v -8.5e-05 0.000845 -8.5e-05 
v -8.5e-05 0.000845 8.5e-05 
vn 0 1 0 
vn 0 1 0 
vn 0 1 0 
vn 0 1 0 
f 707//707 708//708 709//709 
f 709//709 710//710 707//707 
o mesh887
v 0.00035 9.54334e-05 -8.5e-05 
v 0.00035 9.54334e-05 8.5e-05 
v 0.0002035 0.000349171 8.5e-05 
v -4.06576e-19 0.000701633 8.5e-05 
v -4.06576e-19 0.000701633 -8.5e-05 
v 0.0002035 0.000349171 -8.5e-05 
vn -0.866019 -0.500011 0 
vn -0.866019 -0.500011 0 
vn -0.866019 -0.500011 0 
vn -0.866019 -0.500011 0 
vn -0.866019 -0.500011 0 
vn -0.866019 -0.500011 0 
f 711//711 712//712 713//713 
f 714//714 715//715 716//716 
f 716//716 713//713 714//714 
f 713//713 716//716 711//711 
o mesh888
v -8.5e-05 0 8.5e-05 
v -8.5e-05 0 -8.5e-05 
v 8.5e-05 0 -8.5e-05 
v 8.5e-05 0 8.5e-05 
vn 0 -1 0 
vn 0 -1 0 
vn 0 -1 0 
vn 0 -1 0 
f 717//717 718//718 719//719 
f 719//719 720//720 717//717 
o mesh889
v 0.00036 -0.0003875 8.5e-05 
v 0.00036 -0.00052875 8.5e-05 
v 0.00036 -0.00052875 -8.5e-05 
v 0.00036 -0.0005575 -8.5e-05 
v 0.00036 -0.0005575 8.5e-05 
v 0.00036 -0.0003875 -8.5e-05 
vn 1 0 0 
vn 1 0 0 
vn 1 0 0 
vn 1 0 0 
vn 1 0 0 
vn 1 0 0 
f 721//721 722//722 723//723 
f 724//724 723//723 722//722 
f 722//722 725//725 724//724 
f 723//723 726//726 721//721 
