# OBJ generated by ONSHAPE BY PTC INC, 1.215 Units = meters
mtllib Part_1_7.mtl
g Part 1
usemtl 0.301961_0.301961_0.301961_0.000000_0.000000
o mesh890
v -0.000450002 -8.5e-05 0.001099 
v -0.000450002 8.5e-05 0.001099 
v -0.000450002 8.5e-05 0.001314 
v -0.000450002 -8.5e-05 0.001314 
vn 1 0 0 
vn 1 0 0 
vn 1 0 0 
vn 1 0 0 
f 1//1 2//2 3//3 
f 3//3 4//4 1//1 
o mesh891
v -0.000450002 -8.5e-05 0.001314 
v -0.000450002 8.5e-05 0.001314 
v -0.00013625 8.5e-05 0.001314 
v -0.00013625 -8.5e-05 0.001314 
vn 0 0 -1 
vn 0 0 -1 
vn 0 0 -1 
vn 0 0 -1 
f 5//5 6//6 7//7 
f 7//7 8//8 5//5 
o mesh892
v -0.00013625 8.5e-05 0.001314 
v -0.00013625 8.5e-05 0.001099 
v -0.00013625 -8.5e-05 0.001099 
v -0.00013625 -8.5e-05 0.001314 
vn -1 0 0 
vn -1 0 0 
vn -1 0 0 
vn -1 0 0 
f 9//9 10//10 11//11 
f 11//11 12//12 9//9 
o mesh893
v -0.00013625 -8.5e-05 0.001099 
v -0.00013625 8.5e-05 0.001099 
v -0.000450002 8.5e-05 0.001099 
v -0.000450002 -8.5e-05 0.001099 
vn -8.29344e-15 0 1 
vn -8.29344e-15 0 1 
vn -8.29344e-15 0 1 
vn -8.29344e-15 0 1 
f 13//13 14//14 15//15 
f 15//15 16//16 13//13 
o mesh894
v -0.000110625 -8.5e-05 0.001544 
v -0.000110625 -8.5e-05 0.0005495 
v 0.000110625 -8.5e-05 0.0005495 
v -0.000110625 -8.5e-05 0.003449 
v -8.5e-05 -8.5e-05 0.002474 
v 8.5e-05 -8.5e-05 0.002474 
v -8.5e-05 -8.5e-05 0.001774 
v 0.000110625 -8.5e-05 0.001544 
v 8.5e-05 -8.5e-05 0.001774 
v 0.000110625 -8.5e-05 0.003449 
v -0.000110625 -8.5e-05 0.006247 
v -8.5e-05 -8.5e-05 0.005124 
v 8.5e-05 -8.5e-05 0.005124 
v -8.5e-05 -8.5e-05 0.004424 
v 8.5e-05 -8.5e-05 0.004424 
v 0.000110625 -8.5e-05 0.006247 
v -0.000110625 -8.5e-05 0.00932 
v -8.5e-05 -8.5e-05 0.00807 
v 8.5e-05 -8.5e-05 0.00807 
v -8.5e-05 -8.5e-05 0.00737 
v 8.5e-05 -8.5e-05 0.00737 
v 0.000110625 -8.5e-05 0.00932 
v -0.000873752 -8.5e-05 0.01329 
v -0.00126 -8.5e-05 0.01329 
v -0.00126 -8.5e-05 0.01184 
v -0.000509262 -8.5e-05 0.00932 
v -0.000509262 -8.5e-05 0.006247 
v -0.000459262 -8.5e-05 0.004439 
v -0.000509262 -8.5e-05 0.004539 
v -0.000466272 -8.5e-05 0.003449 
v -0.00013625 -8.5e-05 0.001314 
v -0.00013625 -8.5e-05 0.001099 
v -0.000480002 -8.5e-05 0.00151 
v -0.000530002 -8.5e-05 0.00146 
v -0.000450002 -8.5e-05 0.001314 
v -0.000479761 -8.5e-05 0.001544 
v -0.000530002 -8.5e-05 0.000618 
v -0.000450002 -8.5e-05 0.001099 
v -0.000873752 -8.5e-05 0.0005495 
v -0.0012975 -8.5e-05 0.000818 
v -0.0012975 -8.5e-05 0.0005495 
v -0.001114 -8.5e-05 0.000618 
v -0.000873752 -8.5e-05 0.000618 
v -0.001134 -8.5e-05 0.000199738 
v -0.000934002 -8.5e-05 0.0002 
v -0.000934002 -8.5e-05 0 
v -0.001134 -8.5e-05 0 
v -0.0012975 -8.5e-05 0.000199738 
v -0.000530002 -8.5e-05 0.0002 
v -0.000330002 -8.5e-05 0.0002 
v -0.000330002 -8.5e-05 0 
v -0.000530002 -8.5e-05 0 
v -0.000873752 -8.5e-05 0.0002 
v -0.000110625 -8.5e-05 0.0002 
v 0.000110625 -8.5e-05 0.0002 
v 0.0012975 -8.5e-05 0.0005495 
v 0.000934002 -8.5e-05 0.0002 
v 0.001134 -8.5e-05 0.000199738 
v 0.000934002 -8.5e-05 0 
v 0.001134 -8.5e-05 0 
v 0.000330002 -8.5e-05 0.0002 
v 0.000530002 -8.5e-05 0.0002 
v 0.000530002 -8.5e-05 0 
v 0.000330002 -8.5e-05 0 
v 0.000530002 -8.5e-05 0.000618 
v 0.000450002 -8.5e-05 0.001099 
v 0.001114 -8.5e-05 0.000618 
v 0.0012975 -8.5e-05 0.000818 
v 0.001114 -8.5e-05 0.000818 
v 0.000530002 -8.5e-05 0.00146 
v 0.000450002 -8.5e-05 0.001314 
v 0.00013625 -8.5e-05 0.001314 
v 0.000480002 -8.5e-05 0.00151 
v 0.000479761 -8.5e-05 0.001544 
v 0.00013625 -8.5e-05 0.001099 
v 0.000466272 -8.5e-05 0.003449 
v 0.000459262 -8.5e-05 0.004439 
v 0.000509262 -8.5e-05 0.004539 
v 0.000509262 -8.5e-05 0.006247 
v 0.00086 -8.5e-05 0.01329 
v 0.000511758 -8.5e-05 0.0114077 
v 0.000517193 -8.5e-05 0.0114349 
v 0.000536596 -8.5e-05 0.0114868 
v 0.000550343 -8.5e-05 0.0115109 
v 0.000525504 -8.5e-05 0.0114614 
v 0.000628313 -8.5e-05 0.0115889 
v 0.000652437 -8.5e-05 0.0116027 
v 0.000509262 -8.5e-05 0.00932 
v 0.000509262 -8.5e-05 0.01138 
v 0.000759262 -8.5e-05 0.01163 
v 0.00126 -8.5e-05 0.01184 
v 0.000605796 -8.5e-05 0.0115727 
v 0.000566586 -8.5e-05 0.0115335 
v 0.000585141 -8.5e-05 0.0115541 
v 0.00073161 -8.5e-05 0.0116275 
v 0.00067789 -8.5e-05 0.0116138 
v 0.00036 -8.5e-05 0.01329 
v 0.00036 -8.5e-05 0.013575 
v 0.000704382 -8.5e-05 0.0116221 
v 0.00086 -8.5e-05 0.013575 
v 0.00126 -8.5e-05 0.01329 
v -0.000110625 -8.5e-05 0.01329 
v -8.5e-05 -8.5e-05 0.01127 
v 8.5e-05 -8.5e-05 0.01127 
v -8.5e-05 -8.5e-05 0.01057 
v 8.5e-05 -8.5e-05 0.01057 
v 0.000110625 -8.5e-05 0.01329 
v -0.00086 -8.5e-05 0.01329 
v -0.000536596 -8.5e-05 0.0114868 
v -0.000525504 -8.5e-05 0.0114614 
v -0.000550343 -8.5e-05 0.0115109 
v -0.000566586 -8.5e-05 0.0115335 
v -0.000585141 -8.5e-05 0.0115541 
v -0.00067789 -8.5e-05 0.0116138 
v -0.000652437 -8.5e-05 0.0116027 
v -0.000517193 -8.5e-05 0.0114349 
v -0.000628313 -8.5e-05 0.0115889 
v -0.000873752 -8.5e-05 0.011678 
v -0.000605796 -8.5e-05 0.0115727 
v -0.000704382 -8.5e-05 0.0116221 
v -0.000759262 -8.5e-05 0.01163 
v -0.000511758 -8.5e-05 0.0114077 
v -0.000509262 -8.5e-05 0.01138 
v -0.00073161 -8.5e-05 0.0116275 
v -0.00086 -8.5e-05 0.013575 
v -0.00036 -8.5e-05 0.01329 
v -0.00036 -8.5e-05 0.013575 
v 0.0012975 -8.5e-05 0.000199738 
v -0.001114 -8.5e-05 0.000818 
vn 0 -1 0 
vn 0 -1 0 
vn 0 -1 0 
vn 0 -1 0 
vn 0 -1 0 
vn 0 -1 0 
vn 0 -1 0 
vn 0 -1 0 
vn 0 -1 0 
vn 0 -1 0 
vn 0 -1 0 
vn 0 -1 0 
vn 0 -1 0 
vn 0 -1 0 
vn 0 -1 0 
vn 0 -1 0 
vn 0 -1 0 
vn 0 -1 0 
vn 0 -1 0 
vn 0 -1 0 
vn 0 -1 0 
vn 0 -1 0 
vn 0 -1 0 
vn 0 -1 0 
vn 0 -1 0 
vn 0 -1 0 
vn 0 -1 0 
vn 0 -1 0 
vn 0 -1 0 
vn 0 -1 0 
vn 0 -1 0 
vn 0 -1 0 
vn 0 -1 0 
vn 0 -1 0 
vn 0 -1 0 
vn 0 -1 0 
vn 0 -1 0 
vn 0 -1 0 
vn 0 -1 0 
vn 0 -1 0 
vn 0 -1 0 
vn 0 -1 0 
vn 0 -1 0 
vn 0 -1 0 
vn 0 -1 0 
vn 0 -1 0 
vn 0 -1 0 
vn 0 -1 0 
vn 0 -1 0 
vn 0 -1 0 
vn 0 -1 0 
vn 0 -1 0 
vn 0 -1 0 
vn 0 -1 0 
vn 0 -1 0 
vn 0 -1 0 
vn 0 -1 0 
vn 0 -1 0 
vn 0 -1 0 
vn 0 -1 0 
vn 0 -1 0 
vn 0 -1 0 
vn 0 -1 0 
vn 0 -1 0 
vn 0 -1 0 
vn 0 -1 0 
vn 0 -1 0 
vn 0 -1 0 
vn 0 -1 0 
vn 0 -1 0 
vn 0 -1 0 
vn 0 -1 0 
vn 0 -1 0 
vn 0 -1 0 
vn 0 -1 0 
vn 0 -1 0 
vn 0 -1 0 
vn 0 -1 0 
vn 0 -1 0 
vn 0 -1 0 
vn 0 -1 0 
vn 0 -1 0 
vn 0 -1 0 
vn 0 -1 0 
vn 0 -1 0 
vn 0 -1 0 
vn 0 -1 0 
vn 0 -1 0 
vn 0 -1 0 
vn 0 -1 0 
vn 0 -1 0 
vn 0 -1 0 
vn 0 -1 0 
vn 0 -1 0 
vn 0 -1 0 
vn 0 -1 0 
vn 0 -1 0 
vn 0 -1 0 
vn 0 -1 0 
vn 0 -1 0 
vn 0 -1 0 
vn 0 -1 0 
vn 0 -1 0 
vn 0 -1 0 
vn 0 -1 0 
vn 0 -1 0 
vn 0 -1 0 
vn 0 -1 0 
vn 0 -1 0 
vn 0 -1 0 
vn 0 -1 0 
vn 0 -1 0 
vn 0 -1 0 
vn 0 -1 0 
vn 0 -1 0 
vn 0 -1 0 
vn 0 -1 0 
vn 0 -1 0 
vn 0 -1 0 
vn 0 -1 0 
vn 0 -1 0 
vn 0 -1 0 
vn 0 -1 0 
vn 0 -1 0 
vn 0 -1 0 
vn 0 -1 0 
vn 0 -1 0 
vn 0 -1 0 
vn 0 -1 0 
f 17//17 18//18 19//19 
f 20//20 21//21 22//22 
f 17//17 23//23 21//21 
f 21//21 20//20 17//17 
f 17//17 24//24 25//25 
f 24//24 26//26 22//22 
f 25//25 23//23 17//17 
f 22//22 26//26 20//20 
f 27//27 28//28 29//29 
f 20//20 30//30 28//28 
f 28//28 27//27 20//20 
f 20//20 26//26 31//31 
f 26//26 32//32 29//29 
f 31//31 30//30 20//20 
f 29//29 32//32 27//27 
f 33//33 34//34 35//35 
f 27//27 36//36 34//34 
f 34//34 33//33 27//27 
f 27//27 32//32 37//37 
f 32//32 38//38 35//35 
f 37//37 36//36 27//27 
f 35//35 38//38 33//33 
f 39//39 40//40 41//41 
f 42//42 43//43 27//27 
f 20//20 27//27 44//44 
f 27//27 43//43 45//45 
f 45//45 44//44 27//27 
f 17//17 20//20 46//46 
f 17//17 47//47 48//48 
f 49//49 50//50 51//51 
f 17//17 52//52 49//49 
f 48//48 18//18 17//17 
f 49//49 47//47 17//17 
f 50//50 53//53 54//54 
f 51//51 47//47 49//49 
f 53//53 18//18 54//54 
f 55//55 18//18 53//53 
f 54//54 51//51 50//50 
f 48//48 54//54 18//18 
f 56//56 57//57 58//58 
f 55//55 59//59 58//58 
f 58//58 57//57 55//55 
f 55//55 60//60 61//61 
f 62//62 61//61 60//60 
f 60//60 63//63 62//62 
f 57//57 64//64 60//60 
f 60//60 55//55 57//57 
f 18//18 65//65 66//66 
f 67//67 66//66 65//65 
f 65//65 68//68 67//67 
f 55//55 69//69 65//65 
f 65//65 18//18 55//55 
f 18//18 70//70 71//71 
f 72//72 73//73 74//74 
f 75//75 76//76 74//74 
f 74//74 73//73 75//75 
f 72//72 77//77 78//78 
f 78//78 73//73 72//72 
f 79//79 78//78 77//77 
f 77//77 80//80 79//79 
f 19//19 71//71 77//77 
f 77//77 72//72 19//19 
f 19//19 81//81 82//82 
f 72//72 83//83 81//81 
f 81//81 19//19 72//72 
f 84//84 85//85 83//83 
f 83//83 72//72 84//84 
f 86//86 87//87 82//82 
f 24//24 88//88 89//89 
f 89//89 88//88 87//87 
f 82//82 81//81 86//86 
f 87//87 86//86 89//89 
f 89//89 90//90 24//24 
f 24//24 19//19 91//91 
f 91//91 88//88 24//24 
f 24//24 90//90 92//92 
f 32//32 93//93 94//94 
f 26//26 92//92 93//93 
f 93//93 32//32 26//26 
f 38//38 32//32 95//95 
f 96//96 38//38 97//97 
f 97//97 98//98 96//96 
f 96//96 99//99 100//100 
f 98//98 101//101 96//96 
f 96//96 102//102 103//103 
f 101//101 99//99 96//96 
f 38//38 104//104 105//105 
f 96//96 106//106 107//107 
f 96//96 108//108 102//102 
f 96//96 109//109 110//110 
f 105//105 97//97 38//38 
f 96//96 111//111 106//106 
f 103//103 112//112 96//96 
f 100//100 109//109 96//96 
f 38//38 96//96 113//113 
f 114//114 113//113 96//96 
f 96//96 115//115 111//111 
f 110//110 108//108 96//96 
f 96//96 116//116 114//114 
f 112//112 115//115 96//96 
f 107//107 117//117 96//96 
f 118//118 119//119 120//120 
f 33//33 121//121 119//119 
f 119//119 118//118 33//33 
f 33//33 38//38 122//122 
f 38//38 123//123 120//120 
f 122//122 121//121 33//33 
f 120//120 123//123 118//118 
f 124//124 125//125 126//126 
f 124//124 127//127 125//125 
f 124//124 128//128 127//127 
f 124//124 129//129 128//128 
f 124//124 130//130 131//131 
f 126//126 132//132 124//124 
f 131//131 133//133 124//124 
f 124//124 39//39 134//134 
f 124//124 135//135 129//129 
f 124//124 136//136 130//130 
f 134//134 137//137 124//124 
f 33//33 138//138 139//139 
f 133//133 135//135 124//124 
f 137//137 140//140 124//124 
f 33//33 124//124 138//138 
f 140//140 136//136 124//124 
f 141//141 124//124 142//142 
f 33//33 118//118 142//142 
f 132//132 138//138 124//124 
f 142//142 124//124 33//33 
f 142//142 143//143 141//141 
f 139//139 42//42 33//33 
f 120//120 122//122 38//38 
f 113//113 123//123 38//38 
f 95//95 104//104 38//38 
f 94//94 95//95 32//32 
f 92//92 26//26 24//24 
f 82//82 91//91 19//19 
f 74//74 144//144 72//72 
f 71//71 19//19 18//18 
f 66//66 70//70 18//18 
f 61//61 69//69 55//55 
f 58//58 145//145 56//56 
f 53//53 59//59 55//55 
f 46//46 52//52 17//17 
f 44//44 46//46 20//20 
f 27//27 33//33 42//42 
f 41//41 134//134 39//39 
f 35//35 37//37 32//32 
f 29//29 31//31 26//26 
f 22//22 25//25 24//24 
f 19//19 24//24 17//17 
o mesh895
v -0.000110625 8.5e-05 0.006247 
v -8.5e-05 8.5e-05 0.00737 
v 8.5e-05 8.5e-05 0.00737 
v -0.000110625 8.5e-05 0.00932 
v -8.5e-05 8.5e-05 0.00807 
v 0.000110625 8.5e-05 0.00932 
v 8.5e-05 8.5e-05 0.00807 
v 0.000110625 8.5e-05 0.006247 
v -0.000110625 8.5e-05 0.003449 
v -8.5e-05 8.5e-05 0.004424 
v 8.5e-05 8.5e-05 0.004424 
v -8.5e-05 8.5e-05 0.005124 
v 8.5e-05 8.5e-05 0.005124 
v 0.000110625 8.5e-05 0.003449 
v -0.000110625 8.5e-05 0.001544 
v -8.5e-05 8.5e-05 0.001774 
v 8.5e-05 8.5e-05 0.001774 
v -8.5e-05 8.5e-05 0.002474 
v 8.5e-05 8.5e-05 0.002474 
v 0.000110625 8.5e-05 0.001544 
v 0.000110625 8.5e-05 0.0005495 
v -8.5e-05 8.5e-05 0.01057 
v 8.5e-05 8.5e-05 0.01057 
v -0.000110625 8.5e-05 0.01329 
v -8.5e-05 8.5e-05 0.01127 
v 0.000110625 8.5e-05 0.01329 
v 8.5e-05 8.5e-05 0.01127 
v 0.000511758 8.5e-05 0.0114077 
v 0.000509262 8.5e-05 0.01138 
v 0.000517193 8.5e-05 0.0114349 
v 0.000525504 8.5e-05 0.0114614 
v 0.000536596 8.5e-05 0.0114868 
v 0.000566586 8.5e-05 0.0115335 
v 0.000550343 8.5e-05 0.0115109 
v 0.00067789 8.5e-05 0.0116138 
v 0.000652437 8.5e-05 0.0116027 
v 0.000605796 8.5e-05 0.0115727 
v 0.000585141 8.5e-05 0.0115541 
v 0.000628313 8.5e-05 0.0115889 
v 0.00036 8.5e-05 0.01329 
v 0.000704382 8.5e-05 0.0116221 
v 0.00126 8.5e-05 0.01184 
v 0.000759262 8.5e-05 0.01163 
v 0.00086 8.5e-05 0.01329 
v 0.00086 8.5e-05 0.013575 
v 0.00073161 8.5e-05 0.0116275 
v 0.00036 8.5e-05 0.013575 
v 0.000509262 8.5e-05 0.00932 
v 0.000509262 8.5e-05 0.006247 
v 0.000459262 8.5e-05 0.004439 
v 0.000509262 8.5e-05 0.004539 
v 0.000466272 8.5e-05 0.003449 
v 0.000480002 8.5e-05 0.00151 
v 0.000530002 8.5e-05 0.00146 
v 0.000450002 8.5e-05 0.001314 
v 0.000479761 8.5e-05 0.001544 
v 0.00013625 8.5e-05 0.001314 
v 0.000530002 8.5e-05 0.000618 
v 0.000450002 8.5e-05 0.001099 
v 0.00013625 8.5e-05 0.001099 
v 0.0012975 8.5e-05 0.0005495 
v 0.0012975 8.5e-05 0.000818 
v 0.001114 8.5e-05 0.000618 
v 0.000530002 8.5e-05 0.0002 
v 0.000330002 8.5e-05 0.0002 
v 0.000330002 8.5e-05 0 
v 0.000530002 8.5e-05 0 
v 0.001134 8.5e-05 0.000199738 
v 0.000934002 8.5e-05 0.0002 
v 0.000934002 8.5e-05 0 
v 0.001134 8.5e-05 0 
v 0.0012975 8.5e-05 0.000199738 
v -0.000110625 8.5e-05 0.0005495 
v 0.000110625 8.5e-05 0.0002 
v -0.000873752 8.5e-05 0.0005495 
v -0.000330002 8.5e-05 0.0002 
v -0.000530002 8.5e-05 0.0002 
v -0.000530002 8.5e-05 0 
v -0.000330002 8.5e-05 0 
v -0.000110625 8.5e-05 0.0002 
v -0.0012975 8.5e-05 0.0005495 
v -0.000934002 8.5e-05 0.0002 
v -0.001134 8.5e-05 0.000199738 
v -0.000934002 8.5e-05 0 
v -0.001134 8.5e-05 0 
v -0.000873752 8.5e-05 0.0002 
v -0.001114 8.5e-05 0.000618 
v -0.0012975 8.5e-05 0.000818 
v -0.001114 8.5e-05 0.000818 
v -0.00013625 8.5e-05 0.001314 
v -0.000480002 8.5e-05 0.00151 
v -0.000450002 8.5e-05 0.001314 
v -0.000530002 8.5e-05 0.00146 
v -0.00013625 8.5e-05 0.001099 
v -0.000530002 8.5e-05 0.000618 
v -0.000450002 8.5e-05 0.001099 
v -0.000873752 8.5e-05 0.000618 
v -0.000479761 8.5e-05 0.001544 
v -0.000466272 8.5e-05 0.003449 
v -0.000459262 8.5e-05 0.004439 
v -0.000509262 8.5e-05 0.004539 
v -0.000509262 8.5e-05 0.00932 
v -0.000873752 8.5e-05 0.01329 
v -0.000873752 8.5e-05 0.011678 
v -0.00126 8.5e-05 0.01184 
v -0.000517193 8.5e-05 0.0114349 
v -0.000525504 8.5e-05 0.0114614 
v -0.000550343 8.5e-05 0.0115109 
v -0.000566586 8.5e-05 0.0115335 
v -0.000536596 8.5e-05 0.0114868 
v -0.000509262 8.5e-05 0.01138 
v -0.000628313 8.5e-05 0.0115889 
v -0.000652437 8.5e-05 0.0116027 
v -0.000511758 8.5e-05 0.0114077 
v -0.00067789 8.5e-05 0.0116138 
v -0.000704382 8.5e-05 0.0116221 
v -0.00036 8.5e-05 0.01329 
v -0.000605796 8.5e-05 0.0115727 
v -0.00073161 8.5e-05 0.0116275 
v -0.000759262 8.5e-05 0.01163 
v -0.000585141 8.5e-05 0.0115541 
v -0.00036 8.5e-05 0.013575 
v -0.00086 8.5e-05 0.01329 
v -0.00086 8.5e-05 0.013575 
v -0.00126 8.5e-05 0.01329 
v -0.000509262 8.5e-05 0.006247 
v -0.0012975 8.5e-05 0.000199738 
v 0.001114 8.5e-05 0.000818 
v 0.00126 8.5e-05 0.01329 
vn 0 1 0 
vn 0 1 0 
vn 0 1 0 
vn 0 1 0 
vn 0 1 0 
vn 0 1 0 
vn 0 1 0 
vn 0 1 0 
vn 0 1 0 
vn 0 1 0 
vn 0 1 0 
vn 0 1 0 
vn 0 1 0 
vn 0 1 0 
vn 0 1 0 
vn 0 1 0 
vn 0 1 0 
vn 0 1 0 
vn 0 1 0 
vn 0 1 0 
vn 0 1 0 
vn 0 1 0 
vn 0 1 0 
vn 0 1 0 
vn 0 1 0 
vn 0 1 0 
vn 0 1 0 
vn 0 1 0 
vn 0 1 0 
vn 0 1 0 
vn 0 1 0 
vn 0 1 0 
vn 0 1 0 
vn 0 1 0 
vn 0 1 0 
vn 0 1 0 
vn 0 1 0 
vn 0 1 0 
vn 0 1 0 
vn 0 1 0 
vn 0 1 0 
vn 0 1 0 
vn 0 1 0 
vn 0 1 0 
vn 0 1 0 
vn 0 1 0 
vn 0 1 0 
vn 0 1 0 
vn 0 1 0 
vn 0 1 0 
vn 0 1 0 
vn 0 1 0 
vn 0 1 0 
vn 0 1 0 
vn 0 1 0 
vn 0 1 0 
vn 0 1 0 
vn 0 1 0 
vn 0 1 0 
vn 0 1 0 
vn 0 1 0 
vn 0 1 0 
vn 0 1 0 
vn 0 1 0 
vn 0 1 0 
vn 0 1 0 
vn 0 1 0 
vn 0 1 0 
vn 0 1 0 
vn 0 1 0 
vn 0 1 0 
vn 0 1 0 
vn 0 1 0 
vn 0 1 0 
vn 0 1 0 
vn 0 1 0 
vn 0 1 0 
vn 0 1 0 
vn 0 1 0 
vn 0 1 0 
vn 0 1 0 
vn 0 1 0 
vn 0 1 0 
vn 0 1 0 
vn 0 1 0 
vn 0 1 0 
vn 0 1 0 
vn 0 1 0 
vn 0 1 0 
vn 0 1 0 
vn 0 1 0 
vn 0 1 0 
vn 0 1 0 
vn 0 1 0 
vn 0 1 0 
vn 0 1 0 
vn 0 1 0 
vn 0 1 0 
vn 0 1 0 
vn 0 1 0 
vn 0 1 0 
vn 0 1 0 
vn 0 1 0 
vn 0 1 0 
vn 0 1 0 
vn 0 1 0 
vn 0 1 0 
vn 0 1 0 
vn 0 1 0 
vn 0 1 0 
vn 0 1 0 
vn 0 1 0 
vn 0 1 0 
vn 0 1 0 
vn 0 1 0 
vn 0 1 0 
vn 0 1 0 
vn 0 1 0 
vn 0 1 0 
vn 0 1 0 
vn 0 1 0 
vn 0 1 0 
vn 0 1 0 
vn 0 1 0 
vn 0 1 0 
vn 0 1 0 
vn 0 1 0 
vn 0 1 0 
vn 0 1 0 
f 146//146 147//147 148//148 
f 146//146 149//149 150//150 
f 150//150 147//147 146//146 
f 149//149 151//151 152//152 
f 153//153 148//148 152//152 
f 152//152 150//150 149//149 
f 148//148 153//153 146//146 
f 154//154 155//155 156//156 
f 154//154 146//146 157//157 
f 157//157 155//155 154//154 
f 146//146 153//153 158//158 
f 159//159 156//156 158//158 
f 158//158 157//157 146//146 
f 156//156 159//159 154//154 
f 160//160 161//161 162//162 
f 160//160 154//154 163//163 
f 163//163 161//161 160//160 
f 154//154 159//159 164//164 
f 165//165 162//162 164//164 
f 164//164 163//163 154//154 
f 162//162 165//165 160//160 
f 160//160 165//165 166//166 
f 149//149 167//167 168//168 
f 149//149 169//169 170//170 
f 170//170 167//167 149//149 
f 169//169 171//171 172//172 
f 151//151 168//168 172//172 
f 172//172 170//170 169//169 
f 168//168 151//151 149//149 
f 171//171 173//173 174//174 
f 174//174 151//151 171//171 
f 171//171 175//175 173//173 
f 171//171 176//176 175//175 
f 171//171 177//177 176//176 
f 171//171 178//178 179//179 
f 171//171 180//180 181//181 
f 179//179 177//177 171//171 
f 171//171 182//182 183//183 
f 181//181 184//184 171//171 
f 180//180 171//171 185//185 
f 183//183 178//178 171//171 
f 185//185 186//186 180//180 
f 185//185 187//187 188//188 
f 187//187 185//185 189//189 
f 190//190 189//189 185//185 
f 184//184 182//182 171//171 
f 188//188 191//191 185//185 
f 185//185 192//192 190//190 
f 191//191 186//186 185//185 
f 174//174 193//193 151//151 
f 151//151 193//193 194//194 
f 159//159 153//153 195//195 
f 153//153 194//194 196//196 
f 196//196 195//195 153//153 
f 165//165 159//159 197//197 
f 198//198 199//199 200//200 
f 165//165 201//201 198//198 
f 198//198 202//202 165//165 
f 199//199 203//203 204//204 
f 204//204 200//200 199//199 
f 166//166 205//205 204//204 
f 206//206 166//166 203//203 
f 204//204 203//203 166//166 
f 207//207 206//206 208//208 
f 200//200 202//202 198//198 
f 203//203 208//208 206//206 
f 165//165 202//202 205//205 
f 205//205 166//166 165//165 
f 166//166 209//209 210//210 
f 211//211 210//210 209//209 
f 209//209 212//212 211//211 
f 166//166 213//213 214//214 
f 214//214 209//209 166//166 
f 215//215 214//214 213//213 
f 213//213 216//216 215//215 
f 206//206 217//217 213//213 
f 213//213 166//166 206//206 
f 218//218 166//166 219//219 
f 220//220 221//221 222//222 
f 223//223 222//222 221//221 
f 221//221 224//224 223//223 
f 218//218 225//225 221//221 
f 221//221 220//220 218//218 
f 226//226 227//227 228//228 
f 229//229 230//230 228//228 
f 228//228 227//227 229//229 
f 220//220 231//231 227//227 
f 227//227 226//226 220//220 
f 220//220 226//226 232//232 
f 233//233 234//234 232//232 
f 232//232 226//226 233//233 
f 160//160 235//235 236//236 
f 236//236 235//235 237//237 
f 237//237 238//238 236//236 
f 160//160 218//218 239//239 
f 239//239 235//235 160//160 
f 218//218 240//240 241//241 
f 241//241 239//239 218//218 
f 238//238 237//237 241//241 
f 241//241 240//240 238//238 
f 220//220 242//242 240//240 
f 240//240 218//218 220//220 
f 160//160 243//243 244//244 
f 146//146 245//245 246//246 
f 154//154 244//244 245//245 
f 245//245 146//146 154//154 
f 247//247 149//149 146//146 
f 248//248 249//249 250//250 
f 169//169 251//251 252//252 
f 169//169 253//253 254//254 
f 252//252 255//255 169//169 
f 255//255 253//253 169//169 
f 149//149 247//247 256//256 
f 169//169 257//257 258//258 
f 169//169 259//259 251//251 
f 256//256 169//169 149//149 
f 260//260 261//261 262//262 
f 169//169 263//263 257//257 
f 256//256 259//259 169//169 
f 262//262 264//264 265//265 
f 258//258 260//260 169//169 
f 254//254 266//266 169//169 
f 262//262 261//261 264//264 
f 266//266 263//263 169//169 
f 267//267 262//262 268//268 
f 249//249 248//248 268//268 
f 262//262 169//169 260//260 
f 268//268 262//262 249//249 
f 268//268 269//269 267//267 
f 265//265 249//249 262//262 
f 250//250 270//270 248//248 
f 146//146 271//271 247//247 
f 246//246 271//271 146//146 
f 244//244 154//154 160//160 
f 236//236 243//243 160//160 
f 232//232 242//242 220//220 
f 228//228 272//272 226//226 
f 222//222 231//231 220//220 
f 219//219 225//225 218//218 
f 210//210 219//219 166//166 
f 208//208 273//273 207//207 
f 197//197 201//201 165//165 
f 195//195 197//197 159//159 
f 194//194 153//153 151//151 
f 189//189 274//274 187//187 
f 172//172 171//171 151//151 
f 166//166 218//218 160//160 
f 164//164 159//159 165//165 
f 158//158 153//153 159//159 
f 152//152 151//151 153//153 
o mesh896
v -0.00036 -8.5e-05 0.013575 
v -0.00036 8.5e-05 0.013575 
v -0.00086 8.5e-05 0.013575 
v -0.00086 -8.5e-05 0.013575 
vn 0 0 1 
vn 0 0 1 
vn 0 0 1 
vn 0 0 1 
f 275//275 276//276 277//277 
f 277//277 278//278 275//275 
o mesh897
v -0.00086 -8.5e-05 0.013575 
v -0.00086 8.5e-05 0.013575 
v -0.00086 8.5e-05 0.01329 
v -0.00086 -8.5e-05 0.01329 
vn -1 0 0 
vn -1 0 0 
vn -1 0 0 
vn -1 0 0 
f 279//279 280//280 281//281 
f 281//281 282//282 279//279 
o mesh898
v -0.00126 -8.5e-05 0.01329 
v -0.000873752 -8.5e-05 0.01329 
v -0.000873752 8.5e-05 0.01329 
v -0.00086 8.5e-05 0.01329 
v -0.00086 -8.5e-05 0.01329 
v -0.00126 8.5e-05 0.01329 
vn 0 0 1 
vn 0 0 1 
vn 0 0 1 
vn 0 0 1 
vn 0 0 1 
vn 0 0 1 
f 283//283 284//284 285//285 
f 286//286 285//285 284//284 
f 284//284 287//287 286//286 
f 285//285 288//288 283//283 
o mesh899
v -0.00126 -8.5e-05 0.01329 
v -0.00126 8.5e-05 0.01329 
v -0.00126 8.5e-05 0.01184 
v -0.00126 -8.5e-05 0.01184 
vn -1 0 0 
vn -1 0 0 
vn -1 0 0 
vn -1 0 0 
f 289//289 290//290 291//291 
f 291//291 292//292 289//289 
o mesh900
v -0.00126 -8.5e-05 0.01184 
v -0.00126 8.5e-05 0.01184 
v -0.000873752 8.5e-05 0.011678 
v -0.000759262 8.5e-05 0.01163 
v -0.000759262 -8.5e-05 0.01163 
v -0.000873752 -8.5e-05 0.011678 
vn -0.386748 0 -0.922185 
vn -0.386748 0 -0.922185 
vn -0.386748 0 -0.922185 
vn -0.386748 0 -0.922185 
vn -0.386748 0 -0.922185 
vn -0.386748 0 -0.922185 
f 293//293 294//294 295//295 
f 295//295 296//296 297//297 
f 297//297 298//298 295//295 
f 295//295 298//298 293//293 
o mesh901
v -0.000511758 8.5e-05 0.0114077 
v -0.000509262 8.5e-05 0.01138 
v -0.000509262 -8.5e-05 0.01138 
v -0.000517193 8.5e-05 0.0114349 
v -0.000511758 -8.5e-05 0.0114077 
v -0.000525504 8.5e-05 0.0114614 
v -0.000517193 -8.5e-05 0.0114349 
v -0.000536596 8.5e-05 0.0114868 
v -0.000525504 -8.5e-05 0.0114614 
v -0.000550343 8.5e-05 0.0115109 
v -0.000536596 -8.5e-05 0.0114868 
v -0.000566586 8.5e-05 0.0115335 
v -0.000550343 -8.5e-05 0.0115109 
v -0.000585141 8.5e-05 0.0115541 
v -0.000566586 -8.5e-05 0.0115335 
v -0.000605796 8.5e-05 0.0115727 
v -0.000585141 -8.5e-05 0.0115541 
v -0.000628313 8.5e-05 0.0115889 
v -0.000605796 -8.5e-05 0.0115727 
v -0.000652437 8.5e-05 0.0116027 
v -0.000628313 -8.5e-05 0.0115889 
v -0.00067789 8.5e-05 0.0116138 
v -0.000652437 -8.5e-05 0.0116027 
v -0.000704382 8.5e-05 0.0116221 
v -0.00067789 -8.5e-05 0.0116138 
v -0.00073161 8.5e-05 0.0116275 
v -0.000704382 -8.5e-05 0.0116221 
v -0.000759262 8.5e-05 0.01163 
v -0.00073161 -8.5e-05 0.0116275 
v -0.000759262 -8.5e-05 0.01163 
vn -0.989718 0 -0.14303 
vn -0.999332 0 -0.0365342 
vn -0.999332 0 -0.0365342 
vn -0.968788 0 -0.24789 
vn -0.989718 0 -0.14303 
vn -0.936781 0 -0.349915 
vn -0.968788 0 -0.24789 
vn -0.894064 0 -0.44794 
vn -0.936781 0 -0.349915 
vn -0.841123 0 -0.540843 
vn -0.894064 0 -0.44794 
vn -0.778566 0 -0.627563 
vn -0.841123 0 -0.540843 
vn -0.707107 0 -0.707107 
vn -0.778566 0 -0.627563 
vn -0.627563 0 -0.778566 
vn -0.707107 0 -0.707107 
vn -0.540843 0 -0.841123 
vn -0.627563 0 -0.778566 
vn -0.44794 0 -0.894064 
vn -0.540843 0 -0.841123 
vn -0.349915 0 -0.936781 
vn -0.44794 0 -0.894064 
vn -0.24789 0 -0.968788 
vn -0.349915 0 -0.936781 
vn -0.14303 0 -0.989718 
vn -0.24789 0 -0.968788 
vn -0.0365342 0 -0.999332 
vn -0.14303 0 -0.989718 
vn -0.0365342 0 -0.999332 
f 299//299 300//300 301//301 
f 302//302 299//299 303//303 
f 304//304 302//302 305//305 
f 306//306 304//304 307//307 
f 308//308 306//306 309//309 
f 310//310 308//308 311//311 
f 312//312 310//310 313//313 
f 314//314 312//312 315//315 
f 316//316 314//314 317//317 
f 318//318 316//316 319//319 
f 320//320 318//318 321//321 
f 322//322 320//320 323//323 
f 324//324 322//322 325//325 
f 326//326 324//324 327//327 
f 327//327 328//328 326//326 
f 325//325 327//327 324//324 
f 323//323 325//325 322//322 
f 321//321 323//323 320//320 
f 319//319 321//321 318//318 
f 317//317 319//319 316//316 
f 315//315 317//317 314//314 
f 313//313 315//315 312//312 
f 311//311 313//313 310//310 
f 309//309 311//311 308//308 
f 307//307 309//309 306//306 
f 305//305 307//307 304//304 
f 303//303 305//305 302//302 
f 301//301 303//303 299//299 
o mesh902
v -0.000509262 -8.5e-05 0.004539 
v -0.000509262 -8.5e-05 0.006247 
v -0.000509262 8.5e-05 0.006247 
v -0.000509262 8.5e-05 0.00932 
v -0.000509262 -8.5e-05 0.00932 
v -0.000509262 8.5e-05 0.01138 
v -0.000509262 -8.5e-05 0.01138 
v -0.000509262 8.5e-05 0.004539 
vn -1 0 0 
vn -1 0 0 
vn -1 0 0 
vn -1 0 0 
vn -1 0 0 
vn -1 0 0 
vn -1 0 0 
vn -1 0 0 
f 329//329 330//330 331//331 
f 332//332 331//331 330//330 
f 330//330 333//333 332//332 
f 334//334 332//332 333//333 
f 333//333 335//335 334//334 
f 331//331 336//336 329//329 
o mesh903
v -0.000509262 -8.5e-05 0.004539 
v -0.000509262 8.5e-05 0.004539 
v -0.000459262 8.5e-05 0.004439 
v -0.000459262 -8.5e-05 0.004439 
vn -0.894427 0 -0.447214 
vn -0.894427 0 -0.447214 
vn -0.894427 0 -0.447214 
vn -0.894427 0 -0.447214 
f 337//337 338//338 339//339 
f 339//339 340//340 337//337 
o mesh904
v -0.000466272 -8.5e-05 0.003449 
v -0.000459262 -8.5e-05 0.004439 
v -0.000459262 8.5e-05 0.004439 
v -0.000479761 -8.5e-05 0.001544 
v -0.000466272 8.5e-05 0.003449 
v -0.000479761 8.5e-05 0.001544 
v -0.000480002 8.5e-05 0.00151 
v -0.000480002 -8.5e-05 0.00151 
vn -0.999975 0 0.00708074 
vn -0.999975 0 0.00708074 
vn -0.999975 0 0.00708074 
vn -0.999975 0 0.00708074 
vn -0.999975 0 0.00708074 
vn -0.999975 0 0.00708074 
vn -0.999975 0 0.00708074 
vn -0.999975 0 0.00708074 
f 341//341 342//342 343//343 
f 344//344 341//341 345//345 
f 345//345 346//346 344//344 
f 344//344 346//346 347//347 
f 347//347 348//348 344//344 
f 343//343 345//345 341//341 
o mesh905
v -0.000480002 -8.5e-05 0.00151 
v -0.000480002 8.5e-05 0.00151 
v -0.000530002 8.5e-05 0.00146 
v -0.000530002 -8.5e-05 0.00146 
vn -0.707107 0 0.707107 
vn -0.707107 0 0.707107 
vn -0.707107 0 0.707107 
vn -0.707107 0 0.707107 
f 349//349 350//350 351//351 
f 351//351 352//352 349//349 
o mesh906
v -0.000530002 -8.5e-05 0.00146 
v -0.000530002 8.5e-05 0.00146 
v -0.000530002 8.5e-05 0.000618 
v -0.000530002 -8.5e-05 0.000618 
vn -1 0 0 
vn -1 0 0 
vn -1 0 0 
vn -1 0 0 
f 353//353 354//354 355//355 
f 355//355 356//356 353//353 
o mesh907
v -0.001114 -8.5e-05 0.000618 
v -0.000873752 -8.5e-05 0.000618 
v -0.000873752 8.5e-05 0.000618 
v -0.000530002 8.5e-05 0.000618 
v -0.000530002 -8.5e-05 0.000618 
v -0.001114 8.5e-05 0.000618 
vn 0 0 1 
vn 0 0 1 
vn 0 0 1 
vn 0 0 1 
vn 0 0 1 
vn 0 0 1 
f 357//357 358//358 359//359 
f 360//360 359//359 358//358 
f 358//358 361//361 360//360 
f 359//359 362//362 357//357 
o mesh908
v -0.001114 -8.5e-05 0.000618 
v -0.001114 8.5e-05 0.000618 
v -0.001114 8.5e-05 0.000818 
v -0.001114 -8.5e-05 0.000818 
vn 1 0 0 
vn 1 0 0 
vn 1 0 0 
vn 1 0 0 
f 363//363 364//364 365//365 
f 365//365 366//366 363//363 
o mesh909
v -0.001114 -8.5e-05 0.000818 
v -0.001114 8.5e-05 0.000818 
v -0.0012975 8.5e-05 0.000818 
v -0.0012975 -8.5e-05 0.000818 
vn 0 0 1 
vn 0 0 1 
vn 0 0 1 
vn 0 0 1 
f 367//367 368//368 369//369 
f 369//369 370//370 367//367 
o mesh910
v -0.0012975 -8.5e-05 0.0005495 
v -0.0012975 8.5e-05 0.0005495 
v -0.0012975 8.5e-05 0.000199738 
v -0.0012975 8.5e-05 0.000818 
v -0.0012975 -8.5e-05 0.000818 
v -0.0012975 -8.5e-05 0.000199738 
vn -1 0 0 
vn -1 0 0 
vn -1 0 0 
vn -1 0 0 
vn -1 0 0 
vn -1 0 0 
f 371//371 372//372 373//373 
f 374//374 372//372 371//371 
f 371//371 375//375 374//374 
f 373//373 376//376 371//371 
o mesh911
v -0.0012975 -8.5e-05 0.000199738 
v -0.0012975 8.5e-05 0.000199738 
v -0.001134 8.5e-05 0.000199738 
v -0.001134 -8.5e-05 0.000199738 
vn 0 0 -1 
vn 0 0 -1 
vn 0 0 -1 
vn 0 0 -1 
f 377//377 378//378 379//379 
f 379//379 380//380 377//377 
o mesh912
v -0.001134 -8.5e-05 0.000199738 
v -0.001134 8.5e-05 0.000199738 
v -0.001134 8.5e-05 0 
v -0.001134 -8.5e-05 0 
vn -1 0 0 
vn -1 0 0 
vn -1 0 0 
vn -1 0 0 
f 381//381 382//382 383//383 
f 383//383 384//384 381//381 
o mesh913
v -0.001134 -8.5e-05 0 
v -0.001134 8.5e-05 0 
v -0.000934002 8.5e-05 0 
v -0.000934002 -8.5e-05 0 
vn 0 0 -1 
vn 0 0 -1 
vn 0 0 -1 
vn 0 0 -1 
f 385//385 386//386 387//387 
f 387//387 388//388 385//385 
o mesh914
v -0.000934002 8.5e-05 0 
v -0.000934002 8.5e-05 0.0002 
v -0.000934002 -8.5e-05 0.0002 
v -0.000934002 -8.5e-05 0 
vn 1 0 0 
vn 1 0 0 
vn 1 0 0 
vn 1 0 0 
f 389//389 390//390 391//391 
f 391//391 392//392 389//389 
o mesh915
v -0.000530002 -8.5e-05 0.0002 
v -0.000873752 -8.5e-05 0.0002 
v -0.000873752 8.5e-05 0.0002 
v -0.000934002 8.5e-05 0.0002 
v -0.000934002 -8.5e-05 0.0002 
v -0.000530002 8.5e-05 0.0002 
vn 0 0 -1 
vn 0 0 -1 
vn 0 0 -1 
vn 0 0 -1 
vn 0 0 -1 
vn 0 0 -1 
f 393//393 394//394 395//395 
f 396//396 395//395 394//394 
f 394//394 397//397 396//396 
f 395//395 398//398 393//393 
o mesh916
v -0.000530002 -8.5e-05 0.0002 
v -0.000530002 8.5e-05 0.0002 
v -0.000530002 8.5e-05 0 
v -0.000530002 -8.5e-05 0 
vn -1 0 0 
vn -1 0 0 
vn -1 0 0 
vn -1 0 0 
f 399//399 400//400 401//401 
f 401//401 402//402 399//399 
o mesh917
v -0.000530002 -8.5e-05 0 
v -0.000530002 8.5e-05 0 
v -0.000330002 8.5e-05 0 
v -0.000330002 -8.5e-05 0 
vn 0 0 -1 
vn 0 0 -1 
vn 0 0 -1 
vn 0 0 -1 
f 403//403 404//404 405//405 
f 405//405 406//406 403//403 
o mesh918
v -0.000330002 8.5e-05 0 
v -0.000330002 8.5e-05 0.0002 
v -0.000330002 -8.5e-05 0.0002 
v -0.000330002 -8.5e-05 0 
vn 1 0 0 
vn 1 0 0 
vn 1 0 0 
vn 1 0 0 
f 407//407 408//408 409//409 
f 409//409 410//410 407//407 
o mesh919
v 0.000330002 -8.5e-05 0.0002 
v 0.000110625 -8.5e-05 0.0002 
v 0.000110625 8.5e-05 0.0002 
v -0.000110625 8.5e-05 0.0002 
v -0.000110625 -8.5e-05 0.0002 
v -0.000330002 8.5e-05 0.0002 
v -0.000330002 -8.5e-05 0.0002 
v 0.000330002 8.5e-05 0.0002 
vn 0 0 -1 
vn 0 0 -1 
vn 0 0 -1 
vn 0 0 -1 
vn 0 0 -1 
vn 0 0 -1 
vn 0 0 -1 
vn 0 0 -1 
f 411//411 412//412 413//413 
f 414//414 413//413 412//412 
f 412//412 415//415 414//414 
f 416//416 414//414 415//415 
f 415//415 417//417 416//416 
f 413//413 418//418 411//411 
o mesh920
v 0.000330002 -8.5e-05 0.0002 
v 0.000330002 8.5e-05 0.0002 
v 0.000330002 8.5e-05 0 
v 0.000330002 -8.5e-05 0 
vn -1 0 0 
vn -1 0 0 
vn -1 0 0 
vn -1 0 0 
f 419//419 420//420 421//421 
f 421//421 422//422 419//419 
o mesh921
v 0.000330002 -8.5e-05 0 
v 0.000330002 8.5e-05 0 
v 0.000530002 8.5e-05 0 
v 0.000530002 -8.5e-05 0 
vn 0 0 -1 
vn 0 0 -1 
vn 0 0 -1 
vn 0 0 -1 
f 423//423 424//424 425//425 
f 425//425 426//426 423//423 
o mesh922
v 0.000530002 8.5e-05 0 
v 0.000530002 8.5e-05 0.0002 
v 0.000530002 -8.5e-05 0.0002 
v 0.000530002 -8.5e-05 0 
vn 1 0 0 
vn 1 0 0 
vn 1 0 0 
vn 1 0 0 
f 427//427 428//428 429//429 
f 429//429 430//430 427//427 
o mesh923
v 0.000530002 -8.5e-05 0.0002 
v 0.000530002 8.5e-05 0.0002 
v 0.000934002 8.5e-05 0.0002 
v 0.000934002 -8.5e-05 0.0002 
vn 0 0 -1 
vn 0 0 -1 
vn 0 0 -1 
vn 0 0 -1 
f 431//431 432//432 433//433 
f 433//433 434//434 431//431 
o mesh924
v 0.000934002 -8.5e-05 0.0002 
v 0.000934002 8.5e-05 0.0002 
v 0.000934002 8.5e-05 0 
v 0.000934002 -8.5e-05 0 
vn -1 0 0 
vn -1 0 0 
vn -1 0 0 
vn -1 0 0 
f 435//435 436//436 437//437 
f 437//437 438//438 435//435 
o mesh925
v 0.000934002 -8.5e-05 0 
v 0.000934002 8.5e-05 0 
v 0.001134 8.5e-05 0 
v 0.001134 -8.5e-05 0 
vn 0 0 -1 
vn 0 0 -1 
vn 0 0 -1 
vn 0 0 -1 
f 439//439 440//440 441//441 
f 441//441 442//442 439//439 
o mesh926
v 0.001134 8.5e-05 0 
v 0.001134 8.5e-05 0.000199738 
v 0.001134 -8.5e-05 0.000199738 
v 0.001134 -8.5e-05 0 
vn 1 0 0 
vn 1 0 0 
vn 1 0 0 
vn 1 0 0 
f 443//443 444//444 445//445 
f 445//445 446//446 443//443 
o mesh927
v 0.001134 -8.5e-05 0.000199738 
v 0.001134 8.5e-05 0.000199738 
v 0.0012975 8.5e-05 0.000199738 
v 0.0012975 -8.5e-05 0.000199738 
vn 0 0 -1 
vn 0 0 -1 
vn 0 0 -1 
vn 0 0 -1 
f 447//447 448//448 449//449 
f 449//449 450//450 447//447 
o mesh928
v 0.0012975 -8.5e-05 0.0005495 
v 0.0012975 8.5e-05 0.0005495 
v 0.0012975 8.5e-05 0.000818 
v 0.0012975 8.5e-05 0.000199738 
v 0.0012975 -8.5e-05 0.000199738 
v 0.0012975 -8.5e-05 0.000818 
vn 1 0 0 
vn 1 0 0 
vn 1 0 0 
vn 1 0 0 
vn 1 0 0 
vn 1 0 0 
f 451//451 452//452 453//453 
f 454//454 452//452 451//451 
f 451//451 455//455 454//454 
f 453//453 456//456 451//451 
o mesh929
v 0.0012975 -8.5e-05 0.000818 
v 0.0012975 8.5e-05 0.000818 
v 0.001114 8.5e-05 0.000818 
v 0.001114 -8.5e-05 0.000818 
vn 0 0 1 
vn 0 0 1 
vn 0 0 1 
vn 0 0 1 
f 457//457 458//458 459//459 
f 459//459 460//460 457//457 
o mesh930
v 0.001114 -8.5e-05 0.000818 
v 0.001114 8.5e-05 0.000818 
v 0.001114 8.5e-05 0.000618 
v 0.001114 -8.5e-05 0.000618 
vn -1 0 0 
vn -1 0 0 
vn -1 0 0 
vn -1 0 0 
f 461//461 462//462 463//463 
f 463//463 464//464 461//461 
o mesh931
v 0.001114 -8.5e-05 0.000618 
v 0.001114 8.5e-05 0.000618 
v 0.000530002 8.5e-05 0.000618 
v 0.000530002 -8.5e-05 0.000618 
vn 0 0 1 
vn 0 0 1 
vn 0 0 1 
vn 0 0 1 
f 465//465 466//466 467//467 
f 467//467 468//468 465//465 
o mesh932
v 0.000530002 8.5e-05 0.000618 
v 0.000530002 8.5e-05 0.00146 
v 0.000530002 -8.5e-05 0.00146 
v 0.000530002 -8.5e-05 0.000618 
vn 1 0 0 
vn 1 0 0 
vn 1 0 0 
vn 1 0 0 
f 469//469 470//470 471//471 
f 471//471 472//472 469//469 
o mesh933
v 0.000530002 -8.5e-05 0.00146 
v 0.000530002 8.5e-05 0.00146 
v 0.000480002 8.5e-05 0.00151 
v 0.000480002 -8.5e-05 0.00151 
vn 0.707107 0 0.707107 
vn 0.707107 0 0.707107 
vn 0.707107 0 0.707107 
vn 0.707107 0 0.707107 
f 473//473 474//474 475//475 
f 475//475 476//476 473//473 
o mesh934
v 0.000479761 -8.5e-05 0.001544 
v 0.000480002 -8.5e-05 0.00151 
v 0.000480002 8.5e-05 0.00151 
v 0.000466272 -8.5e-05 0.003449 
v 0.000479761 8.5e-05 0.001544 
v 0.000466272 8.5e-05 0.003449 
v 0.000459262 8.5e-05 0.004439 
v 0.000459262 -8.5e-05 0.004439 
vn 0.999975 0 0.00708074 
vn 0.999975 0 0.00708074 
vn 0.999975 0 0.00708074 
vn 0.999975 0 0.00708074 
vn 0.999975 0 0.00708074 
vn 0.999975 0 0.00708074 
vn 0.999975 0 0.00708074 
vn 0.999975 0 0.00708074 
f 477//477 478//478 479//479 
f 480//480 477//477 481//481 
f 481//481 482//482 480//480 
f 480//480 482//482 483//483 
f 483//483 484//484 480//480 
f 479//479 481//481 477//477 
o mesh935
v 0.000459262 -8.5e-05 0.004439 
v 0.000459262 8.5e-05 0.004439 
v 0.000509262 8.5e-05 0.004539 
v 0.000509262 -8.5e-05 0.004539 
vn 0.894427 0 -0.447214 
vn 0.894427 0 -0.447214 
vn 0.894427 0 -0.447214 
vn 0.894427 0 -0.447214 
f 485//485 486//486 487//487 
f 487//487 488//488 485//485 
o mesh936
v 0.000509262 -8.5e-05 0.01138 
v 0.000509262 -8.5e-05 0.00932 
v 0.000509262 8.5e-05 0.00932 
v 0.000509262 8.5e-05 0.006247 
v 0.000509262 -8.5e-05 0.006247 
v 0.000509262 8.5e-05 0.004539 
v 0.000509262 -8.5e-05 0.004539 
v 0.000509262 8.5e-05 0.01138 
vn 1 0 0 
vn 1 0 0 
vn 1 0 0 
vn 1 0 0 
vn 1 0 0 
vn 1 0 0 
vn 1 0 0 
vn 1 0 0 
f 489//489 490//490 491//491 
f 492//492 491//491 490//490 
f 490//490 493//493 492//492 
f 494//494 492//492 493//493 
f 493//493 495//495 494//494 
f 491//491 496//496 489//489 
o mesh937
v 0.00073161 8.5e-05 0.0116275 
v 0.000759262 8.5e-05 0.01163 
v 0.000759262 -8.5e-05 0.01163 
v 0.000704382 8.5e-05 0.0116221 
v 0.00073161 -8.5e-05 0.0116275 
v 0.00067789 8.5e-05 0.0116138 
v 0.000704382 -8.5e-05 0.0116221 
v 0.000652437 8.5e-05 0.0116027 
v 0.00067789 -8.5e-05 0.0116138 
v 0.000628313 8.5e-05 0.0115889 
v 0.000652437 -8.5e-05 0.0116027 
v 0.000605796 8.5e-05 0.0115727 
v 0.000628313 -8.5e-05 0.0115889 
v 0.000585141 8.5e-05 0.0115541 
v 0.000605796 -8.5e-05 0.0115727 
v 0.000566586 8.5e-05 0.0115335 
v 0.000585141 -8.5e-05 0.0115541 
v 0.000550343 8.5e-05 0.0115109 
v 0.000566586 -8.5e-05 0.0115335 
v 0.000536596 8.5e-05 0.0114868 
v 0.000550343 -8.5e-05 0.0115109 
v 0.000525504 8.5e-05 0.0114614 
v 0.000536596 -8.5e-05 0.0114868 
v 0.000517193 8.5e-05 0.0114349 
v 0.000525504 -8.5e-05 0.0114614 
v 0.000511758 8.5e-05 0.0114077 
v 0.000517193 -8.5e-05 0.0114349 
v 0.000509262 8.5e-05 0.01138 
v 0.000511758 -8.5e-05 0.0114077 
v 0.000509262 -8.5e-05 0.01138 
vn 0.14303 0 -0.989718 
vn 0.0365342 0 -0.999332 
vn 0.0365342 0 -0.999332 
vn 0.24789 0 -0.968788 
vn 0.14303 0 -0.989718 
vn 0.349915 0 -0.936781 
vn 0.24789 0 -0.968788 
vn 0.44794 0 -0.894064 
vn 0.349915 0 -0.936781 
vn 0.540843 0 -0.841123 
vn 0.44794 0 -0.894064 
vn 0.627563 0 -0.778566 
vn 0.540843 0 -0.841123 
vn 0.707107 0 -0.707107 
vn 0.627563 0 -0.778566 
vn 0.778566 0 -0.627563 
vn 0.707107 0 -0.707107 
vn 0.841123 0 -0.540843 
vn 0.778566 0 -0.627563 
vn 0.894064 0 -0.44794 
vn 0.841123 0 -0.540843 
vn 0.936781 0 -0.349915 
vn 0.894064 0 -0.44794 
vn 0.968788 0 -0.24789 
vn 0.936781 0 -0.349915 
vn 0.989718 0 -0.14303 
vn 0.968788 0 -0.24789 
vn 0.999332 0 -0.0365342 
vn 0.989718 0 -0.14303 
vn 0.999332 0 -0.0365342 
f 497//497 498//498 499//499 
f 500//500 497//497 501//501 
f 502//502 500//500 503//503 
f 504//504 502//502 505//505 
f 506//506 504//504 507//507 
f 508//508 506//506 509//509 
f 510//510 508//508 511//511 
f 512//512 510//510 513//513 
f 514//514 512//512 515//515 
f 516//516 514//514 517//517 
f 518//518 516//516 519//519 
f 520//520 518//518 521//521 
f 522//522 520//520 523//523 
f 524//524 522//522 525//525 
f 525//525 526//526 524//524 
f 523//523 525//525 522//522 
f 521//521 523//523 520//520 
f 519//519 521//521 518//518 
f 517//517 519//519 516//516 
f 515//515 517//517 514//514 
f 513//513 515//515 512//512 
f 511//511 513//513 510//510 
f 509//509 511//511 508//508 
f 507//507 509//509 506//506 
f 505//505 507//507 504//504 
f 503//503 505//505 502//502 
f 501//501 503//503 500//500 
f 499//499 501//501 497//497 
o mesh938
v 0.000759262 -8.5e-05 0.01163 
v 0.000759262 8.5e-05 0.01163 
v 0.00126 8.5e-05 0.01184 
v 0.00126 -8.5e-05 0.01184 
vn 0.386748 0 -0.922185 
vn 0.386748 0 -0.922185 
vn 0.386748 0 -0.922185 
vn 0.386748 0 -0.922185 
f 527//527 528//528 529//529 
f 529//529 530//530 527//527 
o mesh939
v 0.00126 -8.5e-05 0.01184 
v 0.00126 8.5e-05 0.01184 
v 0.00126 8.5e-05 0.01329 
v 0.00126 -8.5e-05 0.01329 
vn 1 0 0 
vn 1 0 0 
vn 1 0 0 
vn 1 0 0 
f 531//531 532//532 533//533 
f 533//533 534//534 531//531 
o mesh940
v 0.00126 -8.5e-05 0.01329 
v 0.00126 8.5e-05 0.01329 
v 0.00086 8.5e-05 0.01329 
v 0.00086 -8.5e-05 0.01329 
vn 0 0 1 
vn 0 0 1 
vn 0 0 1 
vn 0 0 1 
f 535//535 536//536 537//537 
f 537//537 538//538 535//535 
o mesh941
v 0.00086 -8.5e-05 0.01329 
v 0.00086 8.5e-05 0.01329 
v 0.00086 8.5e-05 0.013575 
v 0.00086 -8.5e-05 0.013575 
vn 1 0 0 
vn 1 0 0 
vn 1 0 0 
vn 1 0 0 
f 539//539 540//540 541//541 
f 541//541 542//542 539//539 
o mesh942
v 0.00086 -8.5e-05 0.013575 
v 0.00086 8.5e-05 0.013575 
v 0.00036 8.5e-05 0.013575 
v 0.00036 -8.5e-05 0.013575 
vn 0 0 1 
vn 0 0 1 
vn 0 0 1 
vn 0 0 1 
f 543//543 544//544 545//545 
f 545//545 546//546 543//543 
o mesh943
v 0.00036 -8.5e-05 0.013575 
v 0.00036 8.5e-05 0.013575 
v 0.00036 8.5e-05 0.01329 
v 0.00036 -8.5e-05 0.01329 
vn -1 0 0 
vn -1 0 0 
vn -1 0 0 
vn -1 0 0 
f 547//547 548//548 549//549 
f 549//549 550//550 547//547 
o mesh944
v -0.00036 -8.5e-05 0.01329 
v -0.000110625 -8.5e-05 0.01329 
v -0.000110625 8.5e-05 0.01329 
v 0.000110625 8.5e-05 0.01329 
v 0.000110625 -8.5e-05 0.01329 
v 0.00036 8.5e-05 0.01329 
v 0.00036 -8.5e-05 0.01329 
v -0.00036 8.5e-05 0.01329 
vn 0 0 1 
vn 0 0 1 
vn 0 0 1 
vn 0 0 1 
vn 0 0 1 
vn 0 0 1 
vn 0 0 1 
vn 0 0 1 
f 551//551 552//552 553//553 
f 554//554 553//553 552//552 
f 552//552 555//555 554//554 
f 556//556 554//554 555//555 
f 555//555 557//557 556//556 
f 553//553 558//558 551//551 
o mesh945
v 8.5e-05 -8.5e-05 0.01127 
v 8.5e-05 8.5e-05 0.01127 
v 8.5e-05 8.5e-05 0.01057 
v 8.5e-05 -8.5e-05 0.01057 
vn -1 0 0 
vn -1 0 0 
vn -1 0 0 
vn -1 0 0 
f 559//559 560//560 561//561 
f 561//561 562//562 559//559 
o mesh946
v 8.5e-05 -8.5e-05 0.01057 
v 8.5e-05 8.5e-05 0.01057 
v -8.5e-05 8.5e-05 0.01057 
v -8.5e-05 -8.5e-05 0.01057 
vn 0 0 1 
vn 0 0 1 
vn 0 0 1 
vn 0 0 1 
f 563//563 564//564 565//565 
f 565//565 566//566 563//563 
o mesh947
v -8.5e-05 -8.5e-05 0.01057 
v -8.5e-05 8.5e-05 0.01057 
v -8.5e-05 8.5e-05 0.01127 
v -8.5e-05 -8.5e-05 0.01127 
vn 1 0 0 
vn 1 0 0 
vn 1 0 0 
vn 1 0 0 
f 567//567 568//568 569//569 
f 569//569 570//570 567//567 
o mesh948
v 0.00013625 -8.5e-05 0.001099 
v 0.00013625 8.5e-05 0.001099 
v 0.00013625 8.5e-05 0.001314 
v 0.00013625 -8.5e-05 0.001314 
vn 1 0 0 
vn 1 0 0 
vn 1 0 0 
vn 1 0 0 
f 571//571 572//572 573//573 
f 573//573 574//574 571//571 
o mesh949
v 0.00013625 -8.5e-05 0.001314 
v 0.00013625 8.5e-05 0.001314 
v 0.000450002 8.5e-05 0.001314 
v 0.000450002 -8.5e-05 0.001314 
vn 6.08186e-14 0 -1 
vn 6.08186e-14 0 -1 
vn 6.08186e-14 0 -1 
vn 6.08186e-14 0 -1 
f 575//575 576//576 577//577 
f 577//577 578//578 575//575 
o mesh950
v 0.000450002 -8.5e-05 0.001314 
v 0.000450002 8.5e-05 0.001314 
v 0.000450002 8.5e-05 0.001099 
v 0.000450002 -8.5e-05 0.001099 
vn -1 0 -4.94194e-14 
vn -1 0 -4.94194e-14 
vn -1 0 -4.94194e-14 
vn -1 0 -4.94194e-14 
f 579//579 580//580 581//581 
f 581//581 582//582 579//579 
o mesh951
v 8.5e-05 -8.5e-05 0.002474 
v 8.5e-05 8.5e-05 0.002474 
v 8.5e-05 8.5e-05 0.001774 
v 8.5e-05 -8.5e-05 0.001774 
vn -1 0 -4.94194e-14 
vn -1 0 -4.94194e-14 
vn -1 0 -4.94194e-14 
vn -1 0 -4.94194e-14 
f 583//583 584//584 585//585 
f 585//585 586//586 583//583 
o mesh952
v 8.5e-05 -8.5e-05 0.001774 
v 8.5e-05 8.5e-05 0.001774 
v -8.5e-05 8.5e-05 0.001774 
v -8.5e-05 -8.5e-05 0.001774 
vn 0 0 1 
vn 0 0 1 
vn 0 0 1 
vn 0 0 1 
f 587//587 588//588 589//589 
f 589//589 590//590 587//587 
o mesh953
v -8.5e-05 -8.5e-05 0.001774 
v -8.5e-05 8.5e-05 0.001774 
v -8.5e-05 8.5e-05 0.002474 
v -8.5e-05 -8.5e-05 0.002474 
vn 1 0 0 
vn 1 0 0 
vn 1 0 0 
vn 1 0 0 
f 591//591 592//592 593//593 
f 593//593 594//594 591//591 
o mesh954
v 8.5e-05 -8.5e-05 0.00807 
v 8.5e-05 8.5e-05 0.00807 
v 8.5e-05 8.5e-05 0.00737 
v 8.5e-05 -8.5e-05 0.00737 
vn -1 0 0 
vn -1 0 0 
vn -1 0 0 
vn -1 0 0 
f 595//595 596//596 597//597 
f 597//597 598//598 595//595 
o mesh955
v 8.5e-05 -8.5e-05 0.00737 
v 8.5e-05 8.5e-05 0.00737 
v -8.5e-05 8.5e-05 0.00737 
v -8.5e-05 -8.5e-05 0.00737 
vn 0 0 1 
vn 0 0 1 
vn 0 0 1 
vn 0 0 1 
f 599//599 600//600 601//601 
f 601//601 602//602 599//599 
o mesh956
v -8.5e-05 -8.5e-05 0.00737 
v -8.5e-05 8.5e-05 0.00737 
v -8.5e-05 8.5e-05 0.00807 
v -8.5e-05 -8.5e-05 0.00807 
vn 1 0 0 
vn 1 0 0 
vn 1 0 0 
vn 1 0 0 
f 603//603 604//604 605//605 
f 605//605 606//606 603//603 
o mesh957
v 8.5e-05 -8.5e-05 0.005124 
v 8.5e-05 8.5e-05 0.005124 
v 8.5e-05 8.5e-05 0.004424 
v 8.5e-05 -8.5e-05 0.004424 
vn -1 0 0 
vn -1 0 0 
vn -1 0 0 
vn -1 0 0 
f 607//607 608//608 609//609 
f 609//609 610//610 607//607 
o mesh958
v 8.5e-05 -8.5e-05 0.004424 
v 8.5e-05 8.5e-05 0.004424 
v -8.5e-05 8.5e-05 0.004424 
v -8.5e-05 -8.5e-05 0.004424 
vn 0 0 1 
vn 0 0 1 
vn 0 0 1 
vn 0 0 1 
f 611//611 612//612 613//613 
f 613//613 614//614 611//611 
o mesh959
v -8.5e-05 -8.5e-05 0.004424 
v -8.5e-05 8.5e-05 0.004424 
v -8.5e-05 8.5e-05 0.005124 
v -8.5e-05 -8.5e-05 0.005124 
vn 1 0 0 
vn 1 0 0 
vn 1 0 0 
vn 1 0 0 
f 615//615 616//616 617//617 
f 617//617 618//618 615//615 
o mesh960
v -0.00036 -8.5e-05 0.01329 
v -0.00036 8.5e-05 0.01329 
v -0.00036 8.5e-05 0.013575 
v -0.00036 -8.5e-05 0.013575 
vn 1 0 0 
vn 1 0 0 
vn 1 0 0 
vn 1 0 0 
f 619//619 620//620 621//621 
f 621//621 622//622 619//619 
o mesh961
v -8.5e-05 -8.5e-05 0.01127 
v -8.5e-05 8.5e-05 0.01127 
v 8.5e-05 8.5e-05 0.01127 
v 8.5e-05 -8.5e-05 0.01127 
vn 0 0 -1 
vn 0 0 -1 
vn 0 0 -1 
vn 0 0 -1 
f 623//623 624//624 625//625 
f 625//625 626//626 623//623 
o mesh962
v 0.000450002 -8.5e-05 0.001099 
v 0.000450002 8.5e-05 0.001099 
v 0.00013625 8.5e-05 0.001099 
v 0.00013625 -8.5e-05 0.001099 
vn -4.97607e-14 0 1 
vn -4.97607e-14 0 1 
vn -4.97607e-14 0 1 
vn -4.97607e-14 0 1 
f 627//627 628//628 629//629 
f 629//629 630//630 627//627 
o mesh963
v -8.5e-05 -8.5e-05 0.002474 
v -8.5e-05 8.5e-05 0.002474 
v 8.5e-05 8.5e-05 0.002474 
v 8.5e-05 -8.5e-05 0.002474 
vn 0 0 -1 
vn 0 0 -1 
vn 0 0 -1 
vn 0 0 -1 
f 631//631 632//632 633//633 
f 633//633 634//634 631//631 
o mesh964
v -8.5e-05 -8.5e-05 0.00807 
v -8.5e-05 8.5e-05 0.00807 
v 8.5e-05 8.5e-05 0.00807 
v 8.5e-05 -8.5e-05 0.00807 
vn 0 0 -1 
vn 0 0 -1 
vn 0 0 -1 
vn 0 0 -1 
f 635//635 636//636 637//637 
f 637//637 638//638 635//635 
o mesh965
v -8.5e-05 -8.5e-05 0.005124 
v -8.5e-05 8.5e-05 0.005124 
v 8.5e-05 8.5e-05 0.005124 
v 8.5e-05 -8.5e-05 0.005124 
vn 0 0 -1 
vn 0 0 -1 
vn 0 0 -1 
vn 0 0 -1 
f 639//639 640//640 641//641 
f 641//641 642//642 639//639 
