# OBJ generated by ONSHAPE BY PTC INC, 1.217 Units = meters
mtllib Part_1_3.mtl
g Part 1
usemtl 0.301961_0.301961_0.301961_0.000000_0.000000
o mesh585
v -0.000450002 -8.5e-05 0.001099 
v -0.000450002 8.5e-05 0.001099 
v -0.000450002 8.5e-05 0.001314 
v -0.000450002 -8.5e-05 0.001314 
vn 1 0 0 
vn 1 0 0 
vn 1 0 0 
vn 1 0 0 
f 1//1 2//2 3//3 
f 3//3 4//4 1//1 
o mesh586
v -0.000450002 -8.5e-05 0.001314 
v -0.000450002 8.5e-05 0.001314 
v -0.00013625 8.5e-05 0.001314 
v -0.00013625 -8.5e-05 0.001314 
vn 0 0 -1 
vn 0 0 -1 
vn 0 0 -1 
vn 0 0 -1 
f 5//5 6//6 7//7 
f 7//7 8//8 5//5 
o mesh587
v -0.00013625 8.5e-05 0.001314 
v -0.00013625 8.5e-05 0.001099 
v -0.00013625 -8.5e-05 0.001099 
v -0.00013625 -8.5e-05 0.001314 
vn -1 0 0 
vn -1 0 0 
vn -1 0 0 
vn -1 0 0 
f 9//9 10//10 11//11 
f 11//11 12//12 9//9 
o mesh588
v -0.00013625 -8.5e-05 0.001099 
v -0.00013625 8.5e-05 0.001099 
v -0.000450002 8.5e-05 0.001099 
v -0.000450002 -8.5e-05 0.001099 
vn -8.29344e-15 0 1 
vn -8.29344e-15 0 1 
vn -8.29344e-15 0 1 
vn -8.29344e-15 0 1 
f 13//13 14//14 15//15 
f 15//15 16//16 13//13 
o mesh589
v -0.000110625 8.5e-05 0.006247 
v -8.5e-05 8.5e-05 0.00737 
v 8.5e-05 8.5e-05 0.00737 
v -0.000110625 8.5e-05 0.00932 
v -8.5e-05 8.5e-05 0.00807 
v 0.000110625 8.5e-05 0.00932 
v 8.5e-05 8.5e-05 0.00807 
v 0.000110625 8.5e-05 0.006247 
v -0.000110625 8.5e-05 0.003449 
v -8.5e-05 8.5e-05 0.004424 
v 8.5e-05 8.5e-05 0.004424 
v -8.5e-05 8.5e-05 0.005124 
v 8.5e-05 8.5e-05 0.005124 
v 0.000110625 8.5e-05 0.003449 
v -0.000110625 8.5e-05 0.001544 
v -8.5e-05 8.5e-05 0.001774 
v 8.5e-05 8.5e-05 0.001774 
v -8.5e-05 8.5e-05 0.002474 
v 8.5e-05 8.5e-05 0.002474 
v 0.000110625 8.5e-05 0.001544 
v 0.000110625 8.5e-05 0.0005495 
v -8.5e-05 8.5e-05 0.01057 
v 8.5e-05 8.5e-05 0.01057 
v -0.000110625 8.5e-05 0.01329 
v -8.5e-05 8.5e-05 0.01127 
v 0.000110625 8.5e-05 0.01329 
v 8.5e-05 8.5e-05 0.01127 
v 0.000517193 8.5e-05 0.0114349 
v 0.00051467 8.5e-05 0.0114241 
v 0.000523616 8.5e-05 0.0114561 
v 0.000520177 8.5e-05 0.0114456 
v 0.000566586 8.5e-05 0.0115335 
v 0.0005598 8.5e-05 0.0115247 
v 0.000536596 8.5e-05 0.0114868 
v 0.000531833 8.5e-05 0.0114768 
v 0.000547388 8.5e-05 0.0115062 
v 0.000541784 8.5e-05 0.0114967 
v 0.000553397 8.5e-05 0.0115156 
v 0.000511023 8.5e-05 0.0114021 
v 0.000509905 8.5e-05 0.0113911 
v 0.000512612 8.5e-05 0.0114131 
v 0.000527504 8.5e-05 0.0114666 
v 0.000652437 8.5e-05 0.0116027 
v 0.000642612 8.5e-05 0.0115975 
v 0.000672706 8.5e-05 0.0116118 
v 0.000662474 8.5e-05 0.0116074 
v 0.000589111 8.5e-05 0.011558 
v 0.000581255 8.5e-05 0.0115502 
v 0.000605796 8.5e-05 0.0115727 
v 0.000597297 8.5e-05 0.0115655 
v 0.000623673 8.5e-05 0.0115859 
v 0.000614593 8.5e-05 0.0115795 
v 0.000693679 8.5e-05 0.0116191 
v 0.00036 8.5e-05 0.01329 
v 0.000573742 8.5e-05 0.011542 
v 0.000633018 8.5e-05 0.0115919 
v 0.000683114 8.5e-05 0.0116156 
v 0.000715202 8.5e-05 0.0116246 
v 0.000704382 8.5e-05 0.0116221 
v 0.00072612 8.5e-05 0.0116267 
v 0.00074817 8.5e-05 0.0116294 
v 0.000737116 8.5e-05 0.0116282 
v 0.00126 8.5e-05 0.01184 
v 0.000759262 8.5e-05 0.01163 
v 0.00086 8.5e-05 0.01329 
v 0.00086 8.5e-05 0.013575 
v 0.000509262 8.5e-05 0.01138 
v 0.00036 8.5e-05 0.013575 
v 0.000509262 8.5e-05 0.00932 
v 0.000509262 8.5e-05 0.006247 
v 0.000459262 8.5e-05 0.004439 
v 0.000509262 8.5e-05 0.004539 
v 0.000466272 8.5e-05 0.003449 
v 0.000480002 8.5e-05 0.00151 
v 0.000530002 8.5e-05 0.00146 
v 0.000450002 8.5e-05 0.001314 
v 0.000479761 8.5e-05 0.001544 
v 0.00013625 8.5e-05 0.001314 
v 0.000530002 8.5e-05 0.000618 
v 0.000450002 8.5e-05 0.001099 
v 0.00013625 8.5e-05 0.001099 
v 0.0012975 8.5e-05 0.0005495 
v 0.0012975 8.5e-05 0.000818 
v 0.001114 8.5e-05 0.000618 
v 0.000530002 8.5e-05 0.0002 
v 0.000330002 8.5e-05 0.0002 
v 0.000330002 8.5e-05 0 
v 0.000530002 8.5e-05 0 
v 0.001134 8.5e-05 0.000199738 
v 0.000934002 8.5e-05 0.0002 
v 0.000934002 8.5e-05 0 
v 0.001134 8.5e-05 0 
v 0.0012975 8.5e-05 0.000199738 
v -0.000110625 8.5e-05 0.0005495 
v 0.000110625 8.5e-05 0.0002 
v -0.000873752 8.5e-05 0.0005495 
v -0.000330002 8.5e-05 0.0002 
v -0.000530002 8.5e-05 0.0002 
v -0.000530002 8.5e-05 0 
v -0.000330002 8.5e-05 0 
v -0.000110625 8.5e-05 0.0002 
v -0.0012975 8.5e-05 0.0005495 
v -0.000934002 8.5e-05 0.0002 
v -0.001134 8.5e-05 0.000199738 
v -0.000934002 8.5e-05 0 
v -0.001134 8.5e-05 0 
v -0.000873752 8.5e-05 0.0002 
v -0.001114 8.5e-05 0.000618 
v -0.0012975 8.5e-05 0.000818 
v -0.001114 8.5e-05 0.000818 
v -0.00013625 8.5e-05 0.001314 
v -0.000480002 8.5e-05 0.00151 
v -0.000450002 8.5e-05 0.001314 
v -0.000530002 8.5e-05 0.00146 
v -0.00013625 8.5e-05 0.001099 
v -0.000530002 8.5e-05 0.000618 
v -0.000450002 8.5e-05 0.001099 
v -0.000873752 8.5e-05 0.000618 
v -0.000479761 8.5e-05 0.001544 
v -0.000466272 8.5e-05 0.003449 
v -0.000459262 8.5e-05 0.004439 
v -0.000509262 8.5e-05 0.004539 
v -0.000509262 8.5e-05 0.00932 
v -0.000873752 8.5e-05 0.01329 
v -0.000873752 8.5e-05 0.011678 
v -0.00126 8.5e-05 0.01184 
v -0.000512612 8.5e-05 0.0114131 
v -0.00051467 8.5e-05 0.0114241 
v -0.000553397 8.5e-05 0.0115156 
v -0.0005598 8.5e-05 0.0115247 
v -0.000541784 8.5e-05 0.0114967 
v -0.000547388 8.5e-05 0.0115062 
v -0.000520177 8.5e-05 0.0114456 
v -0.000523616 8.5e-05 0.0114561 
v -0.000517193 8.5e-05 0.0114349 
v -0.000531833 8.5e-05 0.0114768 
v -0.000536596 8.5e-05 0.0114868 
v -0.000652437 8.5e-05 0.0116027 
v -0.000662474 8.5e-05 0.0116074 
v -0.000633018 8.5e-05 0.0115919 
v -0.000642612 8.5e-05 0.0115975 
v -0.000589111 8.5e-05 0.011558 
v -0.000597297 8.5e-05 0.0115655 
v -0.000573742 8.5e-05 0.011542 
v -0.000581255 8.5e-05 0.0115502 
v -0.000527504 8.5e-05 0.0114666 
v -0.000509262 8.5e-05 0.01138 
v -0.000509905 8.5e-05 0.0113911 
v -0.000693679 8.5e-05 0.0116191 
v -0.000704382 8.5e-05 0.0116221 
v -0.00036 8.5e-05 0.01329 
v -0.000511023 8.5e-05 0.0114021 
v -0.000672706 8.5e-05 0.0116118 
v -0.000605796 8.5e-05 0.0115727 
v -0.000614593 8.5e-05 0.0115795 
v -0.000566586 8.5e-05 0.0115335 
v -0.00074817 8.5e-05 0.0116294 
v -0.000759262 8.5e-05 0.01163 
v -0.000715202 8.5e-05 0.0116246 
v -0.000683114 8.5e-05 0.0116156 
v -0.000623673 8.5e-05 0.0115859 
v -0.000737116 8.5e-05 0.0116282 
v -0.00072612 8.5e-05 0.0116267 
v -0.00036 8.5e-05 0.013575 
v -0.00086 8.5e-05 0.01329 
v -0.00086 8.5e-05 0.013575 
v -0.00126 8.5e-05 0.01329 
v -0.000509262 8.5e-05 0.006247 
v -0.0012975 8.5e-05 0.000199738 
v 0.001114 8.5e-05 0.000818 
v 0.00126 8.5e-05 0.01329 
vn 0 1 0 
vn 0 1 0 
vn 0 1 0 
vn 0 1 0 
vn 0 1 0 
vn 0 1 0 
vn 0 1 0 
vn 0 1 0 
vn 0 1 0 
vn 0 1 0 
vn 0 1 0 
vn 0 1 0 
vn 0 1 0 
vn 0 1 0 
vn 0 1 0 
vn 0 1 0 
vn 0 1 0 
vn 0 1 0 
vn 0 1 0 
vn 0 1 0 
vn 0 1 0 
vn 0 1 0 
vn 0 1 0 
vn 0 1 0 
vn 0 1 0 
vn 0 1 0 
vn 0 1 0 
vn 0 1 0 
vn 0 1 0 
vn 0 1 0 
vn 0 1 0 
vn 0 1 0 
vn 0 1 0 
vn 0 1 0 
vn 0 1 0 
vn 0 1 0 
vn 0 1 0 
vn 0 1 0 
vn 0 1 0 
vn 0 1 0 
vn 0 1 0 
vn 0 1 0 
vn 0 1 0 
vn 0 1 0 
vn 0 1 0 
vn 0 1 0 
vn 0 1 0 
vn 0 1 0 
vn 0 1 0 
vn 0 1 0 
vn 0 1 0 
vn 0 1 0 
vn 0 1 0 
vn 0 1 0 
vn 0 1 0 
vn 0 1 0 
vn 0 1 0 
vn 0 1 0 
vn 0 1 0 
vn 0 1 0 
vn 0 1 0 
vn 0 1 0 
vn 0 1 0 
vn 0 1 0 
vn 0 1 0 
vn 0 1 0 
vn 0 1 0 
vn 0 1 0 
vn 0 1 0 
vn 0 1 0 
vn 0 1 0 
vn 0 1 0 
vn 0 1 0 
vn 0 1 0 
vn 0 1 0 
vn 0 1 0 
vn 0 1 0 
vn 0 1 0 
vn 0 1 0 
vn 0 1 0 
vn 0 1 0 
vn 0 1 0 
vn 0 1 0 
vn 0 1 0 
vn 0 1 0 
vn 0 1 0 
vn 0 1 0 
vn 0 1 0 
vn 0 1 0 
vn 0 1 0 
vn 0 1 0 
vn 0 1 0 
vn 0 1 0 
vn 0 1 0 
vn 0 1 0 
vn 0 1 0 
vn 0 1 0 
vn 0 1 0 
vn 0 1 0 
vn 0 1 0 
vn 0 1 0 
vn 0 1 0 
vn 0 1 0 
vn 0 1 0 
vn 0 1 0 
vn 0 1 0 
vn 0 1 0 
vn 0 1 0 
vn 0 1 0 
vn 0 1 0 
vn 0 1 0 
vn 0 1 0 
vn 0 1 0 
vn 0 1 0 
vn 0 1 0 
vn 0 1 0 
vn 0 1 0 
vn 0 1 0 
vn 0 1 0 
vn 0 1 0 
vn 0 1 0 
vn 0 1 0 
vn 0 1 0 
vn 0 1 0 
vn 0 1 0 
vn 0 1 0 
vn 0 1 0 
vn 0 1 0 
vn 0 1 0 
vn 0 1 0 
vn 0 1 0 
vn 0 1 0 
vn 0 1 0 
vn 0 1 0 
vn 0 1 0 
vn 0 1 0 
vn 0 1 0 
vn 0 1 0 
vn 0 1 0 
vn 0 1 0 
vn 0 1 0 
vn 0 1 0 
vn 0 1 0 
vn 0 1 0 
vn 0 1 0 
vn 0 1 0 
vn 0 1 0 
vn 0 1 0 
vn 0 1 0 
vn 0 1 0 
vn 0 1 0 
vn 0 1 0 
vn 0 1 0 
vn 0 1 0 
vn 0 1 0 
vn 0 1 0 
vn 0 1 0 
vn 0 1 0 
vn 0 1 0 
vn 0 1 0 
vn 0 1 0 
vn 0 1 0 
vn 0 1 0 
vn 0 1 0 
vn 0 1 0 
vn 0 1 0 
vn 0 1 0 
vn 0 1 0 
vn 0 1 0 
vn 0 1 0 
vn 0 1 0 
f 17//17 18//18 19//19 
f 17//17 20//20 21//21 
f 21//21 18//18 17//17 
f 20//20 22//22 23//23 
f 24//24 19//19 23//23 
f 23//23 21//21 20//20 
f 19//19 24//24 17//17 
f 25//25 26//26 27//27 
f 25//25 17//17 28//28 
f 28//28 26//26 25//25 
f 17//17 24//24 29//29 
f 30//30 27//27 29//29 
f 29//29 28//28 17//17 
f 27//27 30//30 25//25 
f 31//31 32//32 33//33 
f 31//31 25//25 34//34 
f 34//34 32//32 31//31 
f 25//25 30//30 35//35 
f 36//36 33//33 35//35 
f 35//35 34//34 25//25 
f 33//33 36//36 31//31 
f 31//31 36//36 37//37 
f 20//20 38//38 39//39 
f 20//20 40//40 41//41 
f 41//41 38//38 20//20 
f 40//40 42//42 43//43 
f 22//22 39//39 43//43 
f 43//43 41//41 40//40 
f 39//39 22//22 20//20 
f 42//42 44//44 45//45 
f 42//42 46//46 47//47 
f 42//42 48//48 49//49 
f 47//47 44//44 42//42 
f 42//42 50//50 51//51 
f 42//42 52//52 53//53 
f 49//49 54//54 42//42 
f 42//42 55//55 56//56 
f 45//45 57//57 42//42 
f 51//51 58//58 42//42 
f 54//54 52//52 42//42 
f 57//57 55//55 42//42 
f 53//53 50//50 42//42 
f 42//42 59//59 60//60 
f 42//42 61//61 62//62 
f 58//58 46//46 42//42 
f 42//42 63//63 64//64 
f 42//42 65//65 66//66 
f 42//42 67//67 68//68 
f 62//62 59//59 42//42 
f 69//69 42//42 70//70 
f 42//42 71//71 48//48 
f 66//66 63//63 42//42 
f 42//42 72//72 67//67 
f 42//42 73//73 61//61 
f 70//70 74//74 75//75 
f 64//64 71//71 42//42 
f 60//60 72//72 42//42 
f 70//70 76//76 74//74 
f 68//68 65//65 42//42 
f 70//70 75//75 69//69 
f 70//70 77//77 78//78 
f 70//70 79//79 80//80 
f 69//69 73//73 42//42 
f 80//80 77//77 70//70 
f 79//79 70//70 81//81 
f 82//82 81//81 70//70 
f 22//22 42//42 83//83 
f 78//78 76//76 70//70 
f 70//70 84//84 82//82 
f 56//56 83//83 42//42 
f 83//83 85//85 22//22 
f 22//22 85//85 86//86 
f 30//30 24//24 87//87 
f 24//24 86//86 88//88 
f 88//88 87//87 24//24 
f 36//36 30//30 89//89 
f 90//90 91//91 92//92 
f 36//36 93//93 90//90 
f 90//90 94//94 36//36 
f 91//91 95//95 96//96 
f 96//96 92//92 91//91 
f 37//37 97//97 96//96 
f 98//98 37//37 95//95 
f 96//96 95//95 37//37 
f 99//99 98//98 100//100 
f 92//92 94//94 90//90 
f 95//95 100//100 98//98 
f 36//36 94//94 97//97 
f 97//97 37//37 36//36 
f 37//37 101//101 102//102 
f 103//103 102//102 101//101 
f 101//101 104//104 103//103 
f 37//37 105//105 106//106 
f 106//106 101//101 37//37 
f 107//107 106//106 105//105 
f 105//105 108//108 107//107 
f 98//98 109//109 105//105 
f 105//105 37//37 98//98 
f 110//110 37//37 111//111 
f 112//112 113//113 114//114 
f 115//115 114//114 113//113 
f 113//113 116//116 115//115 
f 110//110 117//117 113//113 
f 113//113 112//112 110//110 
f 118//118 119//119 120//120 
f 121//121 122//122 120//120 
f 120//120 119//119 121//121 
f 112//112 123//123 119//119 
f 119//119 118//118 112//112 
f 112//112 118//118 124//124 
f 125//125 126//126 124//124 
f 124//124 118//118 125//125 
f 31//31 127//127 128//128 
f 128//128 127//127 129//129 
f 129//129 130//130 128//128 
f 31//31 110//110 131//131 
f 131//131 127//127 31//31 
f 110//110 132//132 133//133 
f 133//133 131//131 110//110 
f 130//130 129//129 133//133 
f 133//133 132//132 130//130 
f 112//112 134//134 132//132 
f 132//132 110//110 112//112 
f 31//31 135//135 136//136 
f 17//17 137//137 138//138 
f 25//25 136//136 137//137 
f 137//137 17//17 25//25 
f 139//139 20//20 17//17 
f 140//140 141//141 142//142 
f 40//40 143//143 144//144 
f 40//40 145//145 146//146 
f 40//40 147//147 148//148 
f 40//40 149//149 150//150 
f 144//144 151//151 40//40 
f 148//148 145//145 40//40 
f 40//40 152//152 153//153 
f 151//151 149//149 40//40 
f 40//40 154//154 155//155 
f 40//40 156//156 157//157 
f 40//40 158//158 159//159 
f 40//40 160//160 161//161 
f 153//153 147//147 40//40 
f 150//150 162//162 40//40 
f 40//40 163//163 164//164 
f 165//165 166//166 167//167 
f 157//157 154//154 40//40 
f 161//161 158//158 40//40 
f 162//162 152//152 40//40 
f 164//164 168//168 40//40 
f 167//167 40//40 165//165 
f 155//155 169//169 40//40 
f 40//40 170//170 171//171 
f 40//40 172//172 160//160 
f 168//168 143//143 40//40 
f 167//167 173//173 174//174 
f 166//166 175//175 167//167 
f 169//169 176//176 40//40 
f 171//171 177//177 40//40 
f 146//146 172//172 40//40 
f 167//167 178//178 173//173 
f 176//176 165//165 40//40 
f 159//159 170//170 40//40 
f 167//167 179//179 178//178 
f 177//177 156//156 40//40 
f 175//175 179//179 167//167 
f 20//20 139//139 163//163 
f 180//180 167//167 181//181 
f 141//141 140//140 181//181 
f 163//163 40//40 20//20 
f 181//181 167//167 141//141 
f 181//181 182//182 180//180 
f 174//174 141//141 167//167 
f 142//142 183//183 140//140 
f 17//17 184//184 139//139 
f 138//138 184//184 17//17 
f 136//136 25//25 31//31 
f 128//128 135//135 31//31 
f 124//124 134//134 112//112 
f 120//120 185//185 118//118 
f 114//114 123//123 112//112 
f 111//111 117//117 110//110 
f 102//102 111//111 37//37 
f 100//100 186//186 99//99 
f 89//89 93//93 36//36 
f 87//87 89//89 30//30 
f 86//86 24//24 22//22 
f 81//81 187//187 79//79 
f 43//43 42//42 22//22 
f 37//37 110//110 31//31 
f 35//35 30//30 36//36 
f 29//29 24//24 30//30 
f 23//23 22//22 24//24 
o mesh590
v -0.00036 -8.5e-05 0.013575 
v -0.00036 8.5e-05 0.013575 
v -0.00086 8.5e-05 0.013575 
v -0.00086 -8.5e-05 0.013575 
vn -8.29344e-15 0 1 
vn -8.29344e-15 0 1 
vn -8.29344e-15 0 1 
vn -8.29344e-15 0 1 
f 188//188 189//189 190//190 
f 190//190 191//191 188//188 
o mesh591
v -0.00086 -8.5e-05 0.013575 
v -0.00086 8.5e-05 0.013575 
v -0.00086 8.5e-05 0.01329 
v -0.00086 -8.5e-05 0.01329 
vn -1 0 0 
vn -1 0 0 
vn -1 0 0 
vn -1 0 0 
f 192//192 193//193 194//194 
f 194//194 195//195 192//192 
o mesh592
v -0.00126 -8.5e-05 0.01329 
v -0.000873752 -8.5e-05 0.01329 
v -0.000873752 8.5e-05 0.01329 
v -0.00086 8.5e-05 0.01329 
v -0.00086 -8.5e-05 0.01329 
v -0.00126 8.5e-05 0.01329 
vn 0 0 1 
vn 0 0 1 
vn 0 0 1 
vn 0 0 1 
vn 0 0 1 
vn 0 0 1 
f 196//196 197//197 198//198 
f 199//199 198//198 197//197 
f 197//197 200//200 199//199 
f 198//198 201//201 196//196 
o mesh593
v -0.00126 -8.5e-05 0.01329 
v -0.00126 8.5e-05 0.01329 
v -0.00126 8.5e-05 0.01184 
v -0.00126 -8.5e-05 0.01184 
vn -1 0 0 
vn -1 0 0 
vn -1 0 0 
vn -1 0 0 
f 202//202 203//203 204//204 
f 204//204 205//205 202//202 
o mesh594
v -0.00126 -8.5e-05 0.01184 
v -0.00126 8.5e-05 0.01184 
v -0.000873752 8.5e-05 0.011678 
v -0.000759262 8.5e-05 0.01163 
v -0.000759262 -8.5e-05 0.01163 
v -0.000873752 -8.5e-05 0.011678 
vn -0.386748 0 -0.922185 
vn -0.386748 0 -0.922185 
vn -0.386748 0 -0.922185 
vn -0.386748 0 -0.922185 
vn -0.386748 0 -0.922185 
vn -0.386748 0 -0.922185 
f 206//206 207//207 208//208 
f 208//208 209//209 210//210 
f 210//210 211//211 208//208 
f 208//208 211//211 206//206 
o mesh595
v -0.000509905 8.5e-05 0.0113911 
v -0.000509262 8.5e-05 0.01138 
v -0.000509262 -8.5e-05 0.01138 
v -0.000511023 8.5e-05 0.0114021 
v -0.000509905 -8.5e-05 0.0113911 
v -0.000512612 8.5e-05 0.0114131 
v -0.000511023 -8.5e-05 0.0114021 
v -0.00051467 8.5e-05 0.0114241 
v -0.000512612 -8.5e-05 0.0114131 
v -0.000517193 8.5e-05 0.0114349 
v -0.00051467 -8.5e-05 0.0114241 
v -0.000520177 8.5e-05 0.0114456 
v -0.000517193 -8.5e-05 0.0114349 
v -0.000523616 8.5e-05 0.0114561 
v -0.000520177 -8.5e-05 0.0114456 
v -0.000527504 8.5e-05 0.0114666 
v -0.000523616 -8.5e-05 0.0114561 
v -0.000531833 8.5e-05 0.0114768 
v -0.000527504 -8.5e-05 0.0114666 
v -0.000536596 8.5e-05 0.0114868 
v -0.000531833 -8.5e-05 0.0114768 
v -0.000541784 8.5e-05 0.0114967 
v -0.000536596 -8.5e-05 0.0114868 
v -0.000547388 8.5e-05 0.0115062 
v -0.000541784 -8.5e-05 0.0114967 
v -0.000553397 8.5e-05 0.0115156 
v -0.000547388 -8.5e-05 0.0115062 
v -0.0005598 8.5e-05 0.0115247 
v -0.000553397 -8.5e-05 0.0115156 
v -0.000566586 8.5e-05 0.0115335 
v -0.0005598 -8.5e-05 0.0115247 
v -0.000573742 8.5e-05 0.011542 
v -0.000566586 -8.5e-05 0.0115335 
v -0.000581255 8.5e-05 0.0115502 
v -0.000573742 -8.5e-05 0.011542 
v -0.000589111 8.5e-05 0.011558 
v -0.000581255 -8.5e-05 0.0115502 
v -0.000597297 8.5e-05 0.0115655 
v -0.000589111 -8.5e-05 0.011558 
v -0.000605796 8.5e-05 0.0115727 
v -0.000597297 -8.5e-05 0.0115655 
v -0.000614593 8.5e-05 0.0115795 
v -0.000605796 -8.5e-05 0.0115727 
v -0.000623673 8.5e-05 0.0115859 
v -0.000614593 -8.5e-05 0.0115795 
v -0.000633018 8.5e-05 0.0115919 
v -0.000623673 -8.5e-05 0.0115859 
v -0.000642612 8.5e-05 0.0115975 
v -0.000633018 -8.5e-05 0.0115919 
v -0.000652437 8.5e-05 0.0116027 
v -0.000642612 -8.5e-05 0.0115975 
v -0.000662474 8.5e-05 0.0116074 
v -0.000652437 -8.5e-05 0.0116027 
v -0.000672706 8.5e-05 0.0116118 
v -0.000662474 -8.5e-05 0.0116074 
v -0.000683114 8.5e-05 0.0116156 
v -0.000672706 -8.5e-05 0.0116118 
v -0.000693679 8.5e-05 0.0116191 
v -0.000683114 -8.5e-05 0.0116156 
v -0.000704382 8.5e-05 0.0116221 
v -0.000693679 -8.5e-05 0.0116191 
v -0.000715202 8.5e-05 0.0116246 
v -0.000704382 -8.5e-05 0.0116221 
v -0.00072612 8.5e-05 0.0116267 
v -0.000715202 -8.5e-05 0.0116246 
v -0.000737116 8.5e-05 0.0116282 
v -0.00072612 -8.5e-05 0.0116267 
v -0.00074817 8.5e-05 0.0116294 
v -0.000737116 -8.5e-05 0.0116282 
v -0.000759262 8.5e-05 0.01163 
v -0.00074817 -8.5e-05 0.0116294 
v -0.000759262 -8.5e-05 0.01163 
vn -0.996855 0 -0.0792509 
vn -0.999332 0 -0.0365342 
vn -0.999332 0 -0.0365342 
vn -0.992552 0 -0.121823 
vn -0.996855 0 -0.0792509 
vn -0.986432 0 -0.164171 
vn -0.992552 0 -0.121823 
vn -0.978506 0 -0.206219 
vn -0.986432 0 -0.164171 
vn -0.968788 0 -0.24789 
vn -0.978506 0 -0.206219 
vn -0.957297 0 -0.289106 
vn -0.968788 0 -0.24789 
vn -0.944053 0 -0.329793 
vn -0.957297 0 -0.289106 
vn -0.929081 0 -0.369877 
vn -0.944053 0 -0.329793 
vn -0.912407 0 -0.409283 
vn -0.929081 0 -0.369877 
vn -0.894064 0 -0.44794 
vn -0.912407 0 -0.409283 
vn -0.874083 0 -0.485777 
vn -0.894064 0 -0.44794 
vn -0.852502 0 -0.522724 
vn -0.874083 0 -0.485777 
vn -0.82936 0 -0.558715 
vn -0.852502 0 -0.522724 
vn -0.8047 0 -0.593682 
vn -0.82936 0 -0.558715 
vn -0.778566 0 -0.627563 
vn -0.8047 0 -0.593682 
vn -0.751007 0 -0.660294 
vn -0.778566 0 -0.627563 
vn -0.722073 0 -0.691817 
vn -0.751007 0 -0.660294 
vn -0.691817 0 -0.722073 
vn -0.722073 0 -0.691817 
vn -0.660294 0 -0.751007 
vn -0.691817 0 -0.722073 
vn -0.627563 0 -0.778566 
vn -0.660294 0 -0.751007 
vn -0.593682 0 -0.8047 
vn -0.627563 0 -0.778566 
vn -0.558715 0 -0.82936 
vn -0.593682 0 -0.8047 
vn -0.522724 0 -0.852502 
vn -0.558715 0 -0.82936 
vn -0.485777 0 -0.874083 
vn -0.522724 0 -0.852502 
vn -0.44794 0 -0.894064 
vn -0.485777 0 -0.874083 
vn -0.409283 0 -0.912407 
vn -0.44794 0 -0.894064 
vn -0.369877 0 -0.929081 
vn -0.409283 0 -0.912407 
vn -0.329793 0 -0.944053 
vn -0.369877 0 -0.929081 
vn -0.289106 0 -0.957297 
vn -0.329793 0 -0.944053 
vn -0.24789 0 -0.968788 
vn -0.289106 0 -0.957297 
vn -0.206219 0 -0.978506 
vn -0.24789 0 -0.968788 
vn -0.164171 0 -0.986432 
vn -0.206219 0 -0.978506 
vn -0.121823 0 -0.992552 
vn -0.164171 0 -0.986432 
vn -0.0792509 0 -0.996855 
vn -0.121823 0 -0.992552 
vn -0.0365342 0 -0.999332 
vn -0.0792509 0 -0.996855 
vn -0.0365342 0 -0.999332 
f 212//212 213//213 214//214 
f 215//215 212//212 216//216 
f 217//217 215//215 218//218 
f 219//219 217//217 220//220 
f 221//221 219//219 222//222 
f 223//223 221//221 224//224 
f 225//225 223//223 226//226 
f 227//227 225//225 228//228 
f 229//229 227//227 230//230 
f 231//231 229//229 232//232 
f 233//233 231//231 234//234 
f 235//235 233//233 236//236 
f 237//237 235//235 238//238 
f 239//239 237//237 240//240 
f 241//241 239//239 242//242 
f 243//243 241//241 244//244 
f 245//245 243//243 246//246 
f 247//247 245//245 248//248 
f 249//249 247//247 250//250 
f 251//251 249//249 252//252 
f 253//253 251//251 254//254 
f 255//255 253//253 256//256 
f 257//257 255//255 258//258 
f 259//259 257//257 260//260 
f 261//261 259//259 262//262 
f 263//263 261//261 264//264 
f 265//265 263//263 266//266 
f 267//267 265//265 268//268 
f 269//269 267//267 270//270 
f 271//271 269//269 272//272 
f 273//273 271//271 274//274 
f 275//275 273//273 276//276 
f 277//277 275//275 278//278 
f 279//279 277//277 280//280 
f 281//281 279//279 282//282 
f 282//282 283//283 281//281 
f 280//280 282//282 279//279 
f 278//278 280//280 277//277 
f 276//276 278//278 275//275 
f 274//274 276//276 273//273 
f 272//272 274//274 271//271 
f 270//270 272//272 269//269 
f 268//268 270//270 267//267 
f 266//266 268//268 265//265 
f 264//264 266//266 263//263 
f 262//262 264//264 261//261 
f 260//260 262//262 259//259 
f 258//258 260//260 257//257 
f 256//256 258//258 255//255 
f 254//254 256//256 253//253 
f 252//252 254//254 251//251 
f 250//250 252//252 249//249 
f 248//248 250//250 247//247 
f 246//246 248//248 245//245 
f 244//244 246//246 243//243 
f 242//242 244//244 241//241 
f 240//240 242//242 239//239 
f 238//238 240//240 237//237 
f 236//236 238//238 235//235 
f 234//234 236//236 233//233 
f 232//232 234//234 231//231 
f 230//230 232//232 229//229 
f 228//228 230//230 227//227 
f 226//226 228//228 225//225 
f 224//224 226//226 223//223 
f 222//222 224//224 221//221 
f 220//220 222//222 219//219 
f 218//218 220//220 217//217 
f 216//216 218//218 215//215 
f 214//214 216//216 212//212 
o mesh596
v -0.000509262 -8.5e-05 0.004539 
v -0.000509262 -8.5e-05 0.006247 
v -0.000509262 8.5e-05 0.006247 
v -0.000509262 8.5e-05 0.00932 
v -0.000509262 -8.5e-05 0.00932 
v -0.000509262 8.5e-05 0.01138 
v -0.000509262 -8.5e-05 0.01138 
v -0.000509262 8.5e-05 0.004539 
vn -1 0 0 
vn -1 0 0 
vn -1 0 0 
vn -1 0 0 
vn -1 0 0 
vn -1 0 0 
vn -1 0 0 
vn -1 0 0 
f 284//284 285//285 286//286 
f 287//287 286//286 285//285 
f 285//285 288//288 287//287 
f 289//289 287//287 288//288 
f 288//288 290//290 289//289 
f 286//286 291//291 284//284 
o mesh597
v -0.000509262 -8.5e-05 0.004539 
v -0.000509262 8.5e-05 0.004539 
v -0.000459262 8.5e-05 0.004439 
v -0.000459262 -8.5e-05 0.004439 
vn -0.894427 0 -0.447214 
vn -0.894427 0 -0.447214 
vn -0.894427 0 -0.447214 
vn -0.894427 0 -0.447214 
f 292//292 293//293 294//294 
f 294//294 295//295 292//292 
o mesh598
v -0.000466272 -8.5e-05 0.003449 
v -0.000459262 -8.5e-05 0.004439 
v -0.000459262 8.5e-05 0.004439 
v -0.000479761 -8.5e-05 0.001544 
v -0.000466272 8.5e-05 0.003449 
v -0.000479761 8.5e-05 0.001544 
v -0.000480002 8.5e-05 0.00151 
v -0.000480002 -8.5e-05 0.00151 
vn -0.999975 0 0.00708074 
vn -0.999975 0 0.00708074 
vn -0.999975 0 0.00708074 
vn -0.999975 0 0.00708074 
vn -0.999975 0 0.00708074 
vn -0.999975 0 0.00708074 
vn -0.999975 0 0.00708074 
vn -0.999975 0 0.00708074 
f 296//296 297//297 298//298 
f 299//299 296//296 300//300 
f 300//300 301//301 299//299 
f 299//299 301//301 302//302 
f 302//302 303//303 299//299 
f 298//298 300//300 296//296 
o mesh599
v -0.000480002 -8.5e-05 0.00151 
v -0.000480002 8.5e-05 0.00151 
v -0.000530002 8.5e-05 0.00146 
v -0.000530002 -8.5e-05 0.00146 
vn -0.707107 0 0.707107 
vn -0.707107 0 0.707107 
vn -0.707107 0 0.707107 
vn -0.707107 0 0.707107 
f 304//304 305//305 306//306 
f 306//306 307//307 304//304 
o mesh600
v -0.000530002 -8.5e-05 0.00146 
v -0.000530002 8.5e-05 0.00146 
v -0.000530002 8.5e-05 0.000618 
v -0.000530002 -8.5e-05 0.000618 
vn -1 0 0 
vn -1 0 0 
vn -1 0 0 
vn -1 0 0 
f 308//308 309//309 310//310 
f 310//310 311//311 308//308 
o mesh601
v -0.001114 -8.5e-05 0.000618 
v -0.000873752 -8.5e-05 0.000618 
v -0.000873752 8.5e-05 0.000618 
v -0.000530002 8.5e-05 0.000618 
v -0.000530002 -8.5e-05 0.000618 
v -0.001114 8.5e-05 0.000618 
vn 0 0 1 
vn 0 0 1 
vn 0 0 1 
vn 0 0 1 
vn 0 0 1 
vn 0 0 1 
f 312//312 313//313 314//314 
f 315//315 314//314 313//313 
f 313//313 316//316 315//315 
f 314//314 317//317 312//312 
o mesh602
v -0.001114 -8.5e-05 0.000618 
v -0.001114 8.5e-05 0.000618 
v -0.001114 8.5e-05 0.000818 
v -0.001114 -8.5e-05 0.000818 
vn 1 0 0 
vn 1 0 0 
vn 1 0 0 
vn 1 0 0 
f 318//318 319//319 320//320 
f 320//320 321//321 318//318 
o mesh603
v -0.001114 -8.5e-05 0.000818 
v -0.001114 8.5e-05 0.000818 
v -0.0012975 8.5e-05 0.000818 
v -0.0012975 -8.5e-05 0.000818 
vn 0 0 1 
vn 0 0 1 
vn 0 0 1 
vn 0 0 1 
f 322//322 323//323 324//324 
f 324//324 325//325 322//322 
o mesh604
v -0.001134 -8.5e-05 0.000199738 
v -0.001134 8.5e-05 0.000199738 
v -0.001134 8.5e-05 0 
v -0.001134 -8.5e-05 0 
vn -1 0 0 
vn -1 0 0 
vn -1 0 0 
vn -1 0 0 
f 326//326 327//327 328//328 
f 328//328 329//329 326//326 
o mesh605
v -0.001134 -8.5e-05 0 
v -0.001134 8.5e-05 0 
v -0.000934002 8.5e-05 0 
v -0.000934002 -8.5e-05 0 
vn 0 0 -1 
vn 0 0 -1 
vn 0 0 -1 
vn 0 0 -1 
f 330//330 331//331 332//332 
f 332//332 333//333 330//330 
o mesh606
v -0.000934002 8.5e-05 0 
v -0.000934002 8.5e-05 0.0002 
v -0.000934002 -8.5e-05 0.0002 
v -0.000934002 -8.5e-05 0 
vn 1 0 0 
vn 1 0 0 
vn 1 0 0 
vn 1 0 0 
f 334//334 335//335 336//336 
f 336//336 337//337 334//334 
o mesh607
v -0.000530002 -8.5e-05 0.0002 
v -0.000873752 -8.5e-05 0.0002 
v -0.000873752 8.5e-05 0.0002 
v -0.000934002 8.5e-05 0.0002 
v -0.000934002 -8.5e-05 0.0002 
v -0.000530002 8.5e-05 0.0002 
vn 0 0 -1 
vn 0 0 -1 
vn 0 0 -1 
vn 0 0 -1 
vn 0 0 -1 
vn 0 0 -1 
f 338//338 339//339 340//340 
f 341//341 340//340 339//339 
f 339//339 342//342 341//341 
f 340//340 343//343 338//338 
o mesh608
v -0.000530002 -8.5e-05 0.0002 
v -0.000530002 8.5e-05 0.0002 
v -0.000530002 8.5e-05 0 
v -0.000530002 -8.5e-05 0 
vn -1 0 0 
vn -1 0 0 
vn -1 0 0 
vn -1 0 0 
f 344//344 345//345 346//346 
f 346//346 347//347 344//344 
o mesh609
v -0.000530002 -8.5e-05 0 
v -0.000530002 8.5e-05 0 
v -0.000330002 8.5e-05 0 
v -0.000330002 -8.5e-05 0 
vn 0 0 -1 
vn 0 0 -1 
vn 0 0 -1 
vn 0 0 -1 
f 348//348 349//349 350//350 
f 350//350 351//351 348//348 
o mesh610
v -0.000330002 8.5e-05 0 
v -0.000330002 8.5e-05 0.0002 
v -0.000330002 -8.5e-05 0.0002 
v -0.000330002 -8.5e-05 0 
vn 1 0 0 
vn 1 0 0 
vn 1 0 0 
vn 1 0 0 
f 352//352 353//353 354//354 
f 354//354 355//355 352//352 
o mesh611
v 0.000330002 -8.5e-05 0.0002 
v 0.000110625 -8.5e-05 0.0002 
v 0.000110625 8.5e-05 0.0002 
v -0.000110625 8.5e-05 0.0002 
v -0.000110625 -8.5e-05 0.0002 
v -0.000330002 8.5e-05 0.0002 
v -0.000330002 -8.5e-05 0.0002 
v 0.000330002 8.5e-05 0.0002 
vn 0 0 -1 
vn 0 0 -1 
vn 0 0 -1 
vn 0 0 -1 
vn 0 0 -1 
vn 0 0 -1 
vn 0 0 -1 
vn 0 0 -1 
f 356//356 357//357 358//358 
f 359//359 358//358 357//357 
f 357//357 360//360 359//359 
f 361//361 359//359 360//360 
f 360//360 362//362 361//361 
f 358//358 363//363 356//356 
o mesh612
v 0.000330002 -8.5e-05 0.0002 
v 0.000330002 8.5e-05 0.0002 
v 0.000330002 8.5e-05 0 
v 0.000330002 -8.5e-05 0 
vn -1 0 0 
vn -1 0 0 
vn -1 0 0 
vn -1 0 0 
f 364//364 365//365 366//366 
f 366//366 367//367 364//364 
o mesh613
v 0.000330002 -8.5e-05 0 
v 0.000330002 8.5e-05 0 
v 0.000530002 8.5e-05 0 
v 0.000530002 -8.5e-05 0 
vn 0 0 -1 
vn 0 0 -1 
vn 0 0 -1 
vn 0 0 -1 
f 368//368 369//369 370//370 
f 370//370 371//371 368//368 
o mesh614
v 0.000530002 8.5e-05 0 
v 0.000530002 8.5e-05 0.0002 
v 0.000530002 -8.5e-05 0.0002 
v 0.000530002 -8.5e-05 0 
vn 1 0 0 
vn 1 0 0 
vn 1 0 0 
vn 1 0 0 
f 372//372 373//373 374//374 
f 374//374 375//375 372//372 
o mesh615
v 0.000530002 -8.5e-05 0.0002 
v 0.000530002 8.5e-05 0.0002 
v 0.000934002 8.5e-05 0.0002 
v 0.000934002 -8.5e-05 0.0002 
vn 0 0 -1 
vn 0 0 -1 
vn 0 0 -1 
vn 0 0 -1 
f 376//376 377//377 378//378 
f 378//378 379//379 376//376 
o mesh616
v 0.000934002 -8.5e-05 0.0002 
v 0.000934002 8.5e-05 0.0002 
v 0.000934002 8.5e-05 0 
v 0.000934002 -8.5e-05 0 
vn -1 0 0 
vn -1 0 0 
vn -1 0 0 
vn -1 0 0 
f 380//380 381//381 382//382 
f 382//382 383//383 380//380 
o mesh617
v 0.000934002 -8.5e-05 0 
v 0.000934002 8.5e-05 0 
v 0.001134 8.5e-05 0 
v 0.001134 -8.5e-05 0 
vn 0 0 -1 
vn 0 0 -1 
vn 0 0 -1 
vn 0 0 -1 
f 384//384 385//385 386//386 
f 386//386 387//387 384//384 
o mesh618
v 0.001134 8.5e-05 0 
v 0.001134 8.5e-05 0.000199738 
v 0.001134 -8.5e-05 0.000199738 
v 0.001134 -8.5e-05 0 
vn 1 0 0 
vn 1 0 0 
vn 1 0 0 
vn 1 0 0 
f 388//388 389//389 390//390 
f 390//390 391//391 388//388 
o mesh619
v 0.0012975 -8.5e-05 0.000818 
v 0.0012975 8.5e-05 0.000818 
v 0.001114 8.5e-05 0.000818 
v 0.001114 -8.5e-05 0.000818 
vn 0 0 1 
vn 0 0 1 
vn 0 0 1 
vn 0 0 1 
f 392//392 393//393 394//394 
f 394//394 395//395 392//392 
o mesh620
v 0.001114 -8.5e-05 0.000818 
v 0.001114 8.5e-05 0.000818 
v 0.001114 8.5e-05 0.000618 
v 0.001114 -8.5e-05 0.000618 
vn -1 0 0 
vn -1 0 0 
vn -1 0 0 
vn -1 0 0 
f 396//396 397//397 398//398 
f 398//398 399//399 396//396 
o mesh621
v 0.001114 -8.5e-05 0.000618 
v 0.001114 8.5e-05 0.000618 
v 0.000530002 8.5e-05 0.000618 
v 0.000530002 -8.5e-05 0.000618 
vn 0 0 1 
vn 0 0 1 
vn 0 0 1 
vn 0 0 1 
f 400//400 401//401 402//402 
f 402//402 403//403 400//400 
o mesh622
v 0.000530002 8.5e-05 0.000618 
v 0.000530002 8.5e-05 0.00146 
v 0.000530002 -8.5e-05 0.00146 
v 0.000530002 -8.5e-05 0.000618 
vn 1 0 0 
vn 1 0 0 
vn 1 0 0 
vn 1 0 0 
f 404//404 405//405 406//406 
f 406//406 407//407 404//404 
o mesh623
v 0.000530002 -8.5e-05 0.00146 
v 0.000530002 8.5e-05 0.00146 
v 0.000480002 8.5e-05 0.00151 
v 0.000480002 -8.5e-05 0.00151 
vn 0.707107 0 0.707107 
vn 0.707107 0 0.707107 
vn 0.707107 0 0.707107 
vn 0.707107 0 0.707107 
f 408//408 409//409 410//410 
f 410//410 411//411 408//408 
o mesh624
v 0.000479761 -8.5e-05 0.001544 
v 0.000480002 -8.5e-05 0.00151 
v 0.000480002 8.5e-05 0.00151 
v 0.000466272 -8.5e-05 0.003449 
v 0.000479761 8.5e-05 0.001544 
v 0.000466272 8.5e-05 0.003449 
v 0.000459262 8.5e-05 0.004439 
v 0.000459262 -8.5e-05 0.004439 
vn 0.999975 0 0.00708074 
vn 0.999975 0 0.00708074 
vn 0.999975 0 0.00708074 
vn 0.999975 0 0.00708074 
vn 0.999975 0 0.00708074 
vn 0.999975 0 0.00708074 
vn 0.999975 0 0.00708074 
vn 0.999975 0 0.00708074 
f 412//412 413//413 414//414 
f 415//415 412//412 416//416 
f 416//416 417//417 415//415 
f 415//415 417//417 418//418 
f 418//418 419//419 415//415 
f 414//414 416//416 412//412 
o mesh625
v 0.000459262 -8.5e-05 0.004439 
v 0.000459262 8.5e-05 0.004439 
v 0.000509262 8.5e-05 0.004539 
v 0.000509262 -8.5e-05 0.004539 
vn 0.894427 0 -0.447214 
vn 0.894427 0 -0.447214 
vn 0.894427 0 -0.447214 
vn 0.894427 0 -0.447214 
f 420//420 421//421 422//422 
f 422//422 423//423 420//420 
o mesh626
v 0.000509262 -8.5e-05 0.01138 
v 0.000509262 -8.5e-05 0.00932 
v 0.000509262 8.5e-05 0.00932 
v 0.000509262 8.5e-05 0.006247 
v 0.000509262 -8.5e-05 0.006247 
v 0.000509262 8.5e-05 0.004539 
v 0.000509262 -8.5e-05 0.004539 
v 0.000509262 8.5e-05 0.01138 
vn 1 0 0 
vn 1 0 0 
vn 1 0 0 
vn 1 0 0 
vn 1 0 0 
vn 1 0 0 
vn 1 0 0 
vn 1 0 0 
f 424//424 425//425 426//426 
f 427//427 426//426 425//425 
f 425//425 428//428 427//427 
f 429//429 427//427 428//428 
f 428//428 430//430 429//429 
f 426//426 431//431 424//424 
o mesh627
v 0.00074817 8.5e-05 0.0116294 
v 0.000759262 8.5e-05 0.01163 
v 0.000759262 -8.5e-05 0.01163 
v 0.000737116 8.5e-05 0.0116282 
v 0.00074817 -8.5e-05 0.0116294 
v 0.00072612 8.5e-05 0.0116267 
v 0.000737116 -8.5e-05 0.0116282 
v 0.000715202 8.5e-05 0.0116246 
v 0.00072612 -8.5e-05 0.0116267 
v 0.000704382 8.5e-05 0.0116221 
v 0.000715202 -8.5e-05 0.0116246 
v 0.000693679 8.5e-05 0.0116191 
v 0.000704382 -8.5e-05 0.0116221 
v 0.000683114 8.5e-05 0.0116156 
v 0.000693679 -8.5e-05 0.0116191 
v 0.000672706 8.5e-05 0.0116118 
v 0.000683114 -8.5e-05 0.0116156 
v 0.000662474 8.5e-05 0.0116074 
v 0.000672706 -8.5e-05 0.0116118 
v 0.000652437 8.5e-05 0.0116027 
v 0.000662474 -8.5e-05 0.0116074 
v 0.000642612 8.5e-05 0.0115975 
v 0.000652437 -8.5e-05 0.0116027 
v 0.000633018 8.5e-05 0.0115919 
v 0.000642612 -8.5e-05 0.0115975 
v 0.000623673 8.5e-05 0.0115859 
v 0.000633018 -8.5e-05 0.0115919 
v 0.000614593 8.5e-05 0.0115795 
v 0.000623673 -8.5e-05 0.0115859 
v 0.000605796 8.5e-05 0.0115727 
v 0.000614593 -8.5e-05 0.0115795 
v 0.000597297 8.5e-05 0.0115655 
v 0.000605796 -8.5e-05 0.0115727 
v 0.000589111 8.5e-05 0.011558 
v 0.000597297 -8.5e-05 0.0115655 
v 0.000581255 8.5e-05 0.0115502 
v 0.000589111 -8.5e-05 0.011558 
v 0.000573742 8.5e-05 0.011542 
v 0.000581255 -8.5e-05 0.0115502 
v 0.000566586 8.5e-05 0.0115335 
v 0.000573742 -8.5e-05 0.011542 
v 0.0005598 8.5e-05 0.0115247 
v 0.000566586 -8.5e-05 0.0115335 
v 0.000553397 8.5e-05 0.0115156 
v 0.0005598 -8.5e-05 0.0115247 
v 0.000547388 8.5e-05 0.0115062 
v 0.000553397 -8.5e-05 0.0115156 
v 0.000541784 8.5e-05 0.0114967 
v 0.000547388 -8.5e-05 0.0115062 
v 0.000536596 8.5e-05 0.0114868 
v 0.000541784 -8.5e-05 0.0114967 
v 0.000531833 8.5e-05 0.0114768 
v 0.000536596 -8.5e-05 0.0114868 
v 0.000527504 8.5e-05 0.0114666 
v 0.000531833 -8.5e-05 0.0114768 
v 0.000523616 8.5e-05 0.0114561 
v 0.000527504 -8.5e-05 0.0114666 
v 0.000520177 8.5e-05 0.0114456 
v 0.000523616 -8.5e-05 0.0114561 
v 0.000517193 8.5e-05 0.0114349 
v 0.000520177 -8.5e-05 0.0114456 
v 0.00051467 8.5e-05 0.0114241 
v 0.000517193 -8.5e-05 0.0114349 
v 0.000512612 8.5e-05 0.0114131 
v 0.00051467 -8.5e-05 0.0114241 
v 0.000511023 8.5e-05 0.0114021 
v 0.000512612 -8.5e-05 0.0114131 
v 0.000509905 8.5e-05 0.0113911 
v 0.000511023 -8.5e-05 0.0114021 
v 0.000509262 8.5e-05 0.01138 
v 0.000509905 -8.5e-05 0.0113911 
v 0.000509262 -8.5e-05 0.01138 
vn 0.0792509 0 -0.996855 
vn 0.0365342 0 -0.999332 
vn 0.0365342 0 -0.999332 
vn 0.121823 0 -0.992552 
vn 0.0792509 0 -0.996855 
vn 0.164171 0 -0.986432 
vn 0.121823 0 -0.992552 
vn 0.206219 0 -0.978506 
vn 0.164171 0 -0.986432 
vn 0.24789 0 -0.968788 
vn 0.206219 0 -0.978506 
vn 0.289106 0 -0.957297 
vn 0.24789 0 -0.968788 
vn 0.329793 0 -0.944053 
vn 0.289106 0 -0.957297 
vn 0.369877 0 -0.929081 
vn 0.329793 0 -0.944053 
vn 0.409283 0 -0.912407 
vn 0.369877 0 -0.929081 
vn 0.44794 0 -0.894064 
vn 0.409283 0 -0.912407 
vn 0.485777 0 -0.874083 
vn 0.44794 0 -0.894064 
vn 0.522724 0 -0.852502 
vn 0.485777 0 -0.874083 
vn 0.558715 0 -0.82936 
vn 0.522724 0 -0.852502 
vn 0.593682 0 -0.8047 
vn 0.558715 0 -0.82936 
vn 0.627563 0 -0.778566 
vn 0.593682 0 -0.8047 
vn 0.660294 0 -0.751007 
vn 0.627563 0 -0.778566 
vn 0.691817 0 -0.722073 
vn 0.660294 0 -0.751007 
vn 0.722073 0 -0.691817 
vn 0.691817 0 -0.722073 
vn 0.751007 0 -0.660294 
vn 0.722073 0 -0.691817 
vn 0.778566 0 -0.627563 
vn 0.751007 0 -0.660294 
vn 0.8047 0 -0.593682 
vn 0.778566 0 -0.627563 
vn 0.82936 0 -0.558715 
vn 0.8047 0 -0.593682 
vn 0.852502 0 -0.522724 
vn 0.82936 0 -0.558715 
vn 0.874083 0 -0.485777 
vn 0.852502 0 -0.522724 
vn 0.894064 0 -0.44794 
vn 0.874083 0 -0.485777 
vn 0.912407 0 -0.409283 
vn 0.894064 0 -0.44794 
vn 0.929081 0 -0.369877 
vn 0.912407 0 -0.409283 
vn 0.944053 0 -0.329793 
vn 0.929081 0 -0.369877 
vn 0.957297 0 -0.289106 
vn 0.944053 0 -0.329793 
vn 0.968788 0 -0.24789 
vn 0.957297 0 -0.289106 
vn 0.978506 0 -0.206219 
vn 0.968788 0 -0.24789 
vn 0.986432 0 -0.164171 
vn 0.978506 0 -0.206219 
vn 0.992552 0 -0.121823 
vn 0.986432 0 -0.164171 
vn 0.996855 0 -0.0792509 
vn 0.992552 0 -0.121823 
vn 0.999332 0 -0.0365342 
vn 0.996855 0 -0.0792509 
vn 0.999332 0 -0.0365342 
f 432//432 433//433 434//434 
f 435//435 432//432 436//436 
f 437//437 435//435 438//438 
f 439//439 437//437 440//440 
f 441//441 439//439 442//442 
f 443//443 441//441 444//444 
f 445//445 443//443 446//446 
f 447//447 445//445 448//448 
f 449//449 447//447 450//450 
f 451//451 449//449 452//452 
f 453//453 451//451 454//454 
f 455//455 453//453 456//456 
f 457//457 455//455 458//458 
f 459//459 457//457 460//460 
f 461//461 459//459 462//462 
f 463//463 461//461 464//464 
f 465//465 463//463 466//466 
f 467//467 465//465 468//468 
f 469//469 467//467 470//470 
f 471//471 469//469 472//472 
f 473//473 471//471 474//474 
f 475//475 473//473 476//476 
f 477//477 475//475 478//478 
f 479//479 477//477 480//480 
f 481//481 479//479 482//482 
f 483//483 481//481 484//484 
f 485//485 483//483 486//486 
f 487//487 485//485 488//488 
f 489//489 487//487 490//490 
f 491//491 489//489 492//492 
f 493//493 491//491 494//494 
f 495//495 493//493 496//496 
f 497//497 495//495 498//498 
f 499//499 497//497 500//500 
f 501//501 499//499 502//502 
f 502//502 503//503 501//501 
f 500//500 502//502 499//499 
f 498//498 500//500 497//497 
f 496//496 498//498 495//495 
f 494//494 496//496 493//493 
f 492//492 494//494 491//491 
f 490//490 492//492 489//489 
f 488//488 490//490 487//487 
f 486//486 488//488 485//485 
f 484//484 486//486 483//483 
f 482//482 484//484 481//481 
f 480//480 482//482 479//479 
f 478//478 480//480 477//477 
f 476//476 478//478 475//475 
f 474//474 476//476 473//473 
f 472//472 474//474 471//471 
f 470//470 472//472 469//469 
f 468//468 470//470 467//467 
f 466//466 468//468 465//465 
f 464//464 466//466 463//463 
f 462//462 464//464 461//461 
f 460//460 462//462 459//459 
f 458//458 460//460 457//457 
f 456//456 458//458 455//455 
f 454//454 456//456 453//453 
f 452//452 454//454 451//451 
f 450//450 452//452 449//449 
f 448//448 450//450 447//447 
f 446//446 448//448 445//445 
f 444//444 446//446 443//443 
f 442//442 444//444 441//441 
f 440//440 442//442 439//439 
f 438//438 440//440 437//437 
f 436//436 438//438 435//435 
f 434//434 436//436 432//432 
o mesh628
v 0.000759262 -8.5e-05 0.01163 
v 0.000759262 8.5e-05 0.01163 
v 0.00126 8.5e-05 0.01184 
v 0.00126 -8.5e-05 0.01184 
vn 0.386748 0 -0.922185 
vn 0.386748 0 -0.922185 
vn 0.386748 0 -0.922185 
vn 0.386748 0 -0.922185 
f 504//504 505//505 506//506 
f 506//506 507//507 504//504 
o mesh629
v 0.00126 -8.5e-05 0.01184 
v 0.00126 8.5e-05 0.01184 
v 0.00126 8.5e-05 0.01329 
v 0.00126 -8.5e-05 0.01329 
vn 1 0 0 
vn 1 0 0 
vn 1 0 0 
vn 1 0 0 
f 508//508 509//509 510//510 
f 510//510 511//511 508//508 
o mesh630
v 0.00126 -8.5e-05 0.01329 
v 0.00126 8.5e-05 0.01329 
v 0.00086 8.5e-05 0.01329 
v 0.00086 -8.5e-05 0.01329 
vn 0 0 1 
vn 0 0 1 
vn 0 0 1 
vn 0 0 1 
f 512//512 513//513 514//514 
f 514//514 515//515 512//512 
o mesh631
v 0.00086 -8.5e-05 0.01329 
v 0.00086 8.5e-05 0.01329 
v 0.00086 8.5e-05 0.013575 
v 0.00086 -8.5e-05 0.013575 
vn 1 0 0 
vn 1 0 0 
vn 1 0 0 
vn 1 0 0 
f 516//516 517//517 518//518 
f 518//518 519//519 516//516 
o mesh632
v 0.00086 -8.5e-05 0.013575 
v 0.00086 8.5e-05 0.013575 
v 0.00036 8.5e-05 0.013575 
v 0.00036 -8.5e-05 0.013575 
vn 0 0 1 
vn 0 0 1 
vn 0 0 1 
vn 0 0 1 
f 520//520 521//521 522//522 
f 522//522 523//523 520//520 
o mesh633
v 0.00036 -8.5e-05 0.013575 
v 0.00036 8.5e-05 0.013575 
v 0.00036 8.5e-05 0.01329 
v 0.00036 -8.5e-05 0.01329 
vn -1 0 0 
vn -1 0 0 
vn -1 0 0 
vn -1 0 0 
f 524//524 525//525 526//526 
f 526//526 527//527 524//524 
o mesh634
v -0.00036 -8.5e-05 0.01329 
v -0.000110625 -8.5e-05 0.01329 
v -0.000110625 8.5e-05 0.01329 
v 0.000110625 8.5e-05 0.01329 
v 0.000110625 -8.5e-05 0.01329 
v 0.00036 8.5e-05 0.01329 
v 0.00036 -8.5e-05 0.01329 
v -0.00036 8.5e-05 0.01329 
vn 0 0 1 
vn 0 0 1 
vn 0 0 1 
vn 0 0 1 
vn 0 0 1 
vn 0 0 1 
vn 0 0 1 
vn 0 0 1 
f 528//528 529//529 530//530 
f 531//531 530//530 529//529 
f 529//529 532//532 531//531 
f 533//533 531//531 532//532 
f 532//532 534//534 533//533 
f 530//530 535//535 528//528 
o mesh635
v 8.5e-05 -8.5e-05 0.01127 
v 8.5e-05 8.5e-05 0.01127 
v 8.5e-05 8.5e-05 0.01057 
v 8.5e-05 -8.5e-05 0.01057 
vn -1 0 0 
vn -1 0 0 
vn -1 0 0 
vn -1 0 0 
f 536//536 537//537 538//538 
f 538//538 539//539 536//536 
o mesh636
v 8.5e-05 -8.5e-05 0.01057 
v 8.5e-05 8.5e-05 0.01057 
v -8.5e-05 8.5e-05 0.01057 
v -8.5e-05 -8.5e-05 0.01057 
vn 0 0 1 
vn 0 0 1 
vn 0 0 1 
vn 0 0 1 
f 540//540 541//541 542//542 
f 542//542 543//543 540//540 
o mesh637
v -8.5e-05 -8.5e-05 0.01057 
v -8.5e-05 8.5e-05 0.01057 
v -8.5e-05 8.5e-05 0.01127 
v -8.5e-05 -8.5e-05 0.01127 
vn 1 0 0 
vn 1 0 0 
vn 1 0 0 
vn 1 0 0 
f 544//544 545//545 546//546 
f 546//546 547//547 544//544 
o mesh638
v 0.00013625 -8.5e-05 0.001099 
v 0.00013625 8.5e-05 0.001099 
v 0.00013625 8.5e-05 0.001314 
v 0.00013625 -8.5e-05 0.001314 
vn 1 0 0 
vn 1 0 0 
vn 1 0 0 
vn 1 0 0 
f 548//548 549//549 550//550 
f 550//550 551//551 548//548 
o mesh639
v 0.00013625 -8.5e-05 0.001314 
v 0.00013625 8.5e-05 0.001314 
v 0.000450002 8.5e-05 0.001314 
v 0.000450002 -8.5e-05 0.001314 
vn 6.08186e-14 0 -1 
vn 6.08186e-14 0 -1 
vn 6.08186e-14 0 -1 
vn 6.08186e-14 0 -1 
f 552//552 553//553 554//554 
f 554//554 555//555 552//552 
o mesh640
v 0.000450002 -8.5e-05 0.001314 
v 0.000450002 8.5e-05 0.001314 
v 0.000450002 8.5e-05 0.001099 
v 0.000450002 -8.5e-05 0.001099 
vn -1 0 -4.94194e-14 
vn -1 0 -4.94194e-14 
vn -1 0 -4.94194e-14 
vn -1 0 -4.94194e-14 
f 556//556 557//557 558//558 
f 558//558 559//559 556//556 
o mesh641
v 8.5e-05 -8.5e-05 0.002474 
v 8.5e-05 8.5e-05 0.002474 
v 8.5e-05 8.5e-05 0.001774 
v 8.5e-05 -8.5e-05 0.001774 
vn -1 0 -4.94194e-14 
vn -1 0 -4.94194e-14 
vn -1 0 -4.94194e-14 
vn -1 0 -4.94194e-14 
f 560//560 561//561 562//562 
f 562//562 563//563 560//560 
o mesh642
v 8.5e-05 -8.5e-05 0.001774 
v 8.5e-05 8.5e-05 0.001774 
v -8.5e-05 8.5e-05 0.001774 
v -8.5e-05 -8.5e-05 0.001774 
vn 0 0 1 
vn 0 0 1 
vn 0 0 1 
vn 0 0 1 
f 564//564 565//565 566//566 
f 566//566 567//567 564//564 
o mesh643
v -8.5e-05 -8.5e-05 0.001774 
v -8.5e-05 8.5e-05 0.001774 
v -8.5e-05 8.5e-05 0.002474 
v -8.5e-05 -8.5e-05 0.002474 
vn 1 0 0 
vn 1 0 0 
vn 1 0 0 
vn 1 0 0 
f 568//568 569//569 570//570 
f 570//570 571//571 568//568 
o mesh644
v 8.5e-05 -8.5e-05 0.00807 
v 8.5e-05 8.5e-05 0.00807 
v 8.5e-05 8.5e-05 0.00737 
v 8.5e-05 -8.5e-05 0.00737 
vn -1 0 0 
vn -1 0 0 
vn -1 0 0 
vn -1 0 0 
f 572//572 573//573 574//574 
f 574//574 575//575 572//572 
o mesh645
v 8.5e-05 -8.5e-05 0.00737 
v 8.5e-05 8.5e-05 0.00737 
v -8.5e-05 8.5e-05 0.00737 
v -8.5e-05 -8.5e-05 0.00737 
vn 0 0 1 
vn 0 0 1 
vn 0 0 1 
vn 0 0 1 
f 576//576 577//577 578//578 
f 578//578 579//579 576//576 
o mesh646
v -8.5e-05 -8.5e-05 0.00737 
v -8.5e-05 8.5e-05 0.00737 
v -8.5e-05 8.5e-05 0.00807 
v -8.5e-05 -8.5e-05 0.00807 
vn 1 0 0 
vn 1 0 0 
vn 1 0 0 
vn 1 0 0 
f 580//580 581//581 582//582 
f 582//582 583//583 580//580 
o mesh647
v 8.5e-05 -8.5e-05 0.005124 
v 8.5e-05 8.5e-05 0.005124 
v 8.5e-05 8.5e-05 0.004424 
v 8.5e-05 -8.5e-05 0.004424 
vn -1 0 0 
vn -1 0 0 
vn -1 0 0 
vn -1 0 0 
f 584//584 585//585 586//586 
f 586//586 587//587 584//584 
o mesh648
v 8.5e-05 -8.5e-05 0.004424 
v 8.5e-05 8.5e-05 0.004424 
v -8.5e-05 8.5e-05 0.004424 
v -8.5e-05 -8.5e-05 0.004424 
vn 0 0 1 
vn 0 0 1 
vn 0 0 1 
vn 0 0 1 
f 588//588 589//589 590//590 
f 590//590 591//591 588//588 
o mesh649
v -8.5e-05 -8.5e-05 0.004424 
v -8.5e-05 8.5e-05 0.004424 
v -8.5e-05 8.5e-05 0.005124 
v -8.5e-05 -8.5e-05 0.005124 
vn 1 0 0 
vn 1 0 0 
vn 1 0 0 
vn 1 0 0 
f 592//592 593//593 594//594 
f 594//594 595//595 592//592 
o mesh650
v -0.00036 -8.5e-05 0.01329 
v -0.00036 8.5e-05 0.01329 
v -0.00036 8.5e-05 0.013575 
v -0.00036 -8.5e-05 0.013575 
vn 1 0 0 
vn 1 0 0 
vn 1 0 0 
vn 1 0 0 
f 596//596 597//597 598//598 
f 598//598 599//599 596//596 
o mesh651
v -8.5e-05 -8.5e-05 0.01127 
v -8.5e-05 8.5e-05 0.01127 
v 8.5e-05 8.5e-05 0.01127 
v 8.5e-05 -8.5e-05 0.01127 
vn 0 0 -1 
vn 0 0 -1 
vn 0 0 -1 
vn 0 0 -1 
f 600//600 601//601 602//602 
f 602//602 603//603 600//600 
o mesh652
v 0.000450002 -8.5e-05 0.001099 
v 0.000450002 8.5e-05 0.001099 
v 0.00013625 8.5e-05 0.001099 
v 0.00013625 -8.5e-05 0.001099 
vn -4.97607e-14 0 1 
vn -4.97607e-14 0 1 
vn -4.97607e-14 0 1 
vn -4.97607e-14 0 1 
f 604//604 605//605 606//606 
f 606//606 607//607 604//604 
o mesh653
v -8.5e-05 -8.5e-05 0.002474 
v -8.5e-05 8.5e-05 0.002474 
v 8.5e-05 8.5e-05 0.002474 
v 8.5e-05 -8.5e-05 0.002474 
vn 0 0 -1 
vn 0 0 -1 
vn 0 0 -1 
vn 0 0 -1 
f 608//608 609//609 610//610 
f 610//610 611//611 608//608 
o mesh654
v -8.5e-05 -8.5e-05 0.00807 
v -8.5e-05 8.5e-05 0.00807 
v 8.5e-05 8.5e-05 0.00807 
v 8.5e-05 -8.5e-05 0.00807 
vn 0 0 -1 
vn 0 0 -1 
vn 0 0 -1 
vn 0 0 -1 
f 612//612 613//613 614//614 
f 614//614 615//615 612//612 
o mesh655
v -8.5e-05 -8.5e-05 0.005124 
v -8.5e-05 8.5e-05 0.005124 
v 8.5e-05 8.5e-05 0.005124 
v 8.5e-05 -8.5e-05 0.005124 
vn 0 0 -1 
vn 0 0 -1 
vn 0 0 -1 
vn 0 0 -1 
f 616//616 617//617 618//618 
f 618//618 619//619 616//616 
o mesh656
v -0.0012975 8.5e-05 0.000199738 
v -0.001134 8.5e-05 0.000199738 
v -0.00126624 -6.05051e-05 0.000199738 
v -0.001134 -8.5e-05 0.000199738 
v -0.00127441 -8.5e-05 0.000199738 
v -0.0012975 -6.05051e-05 0.000199738 
vn 0 0 -1 
vn 0 0 -1 
vn 0 0 -1 
vn 0 0 -1 
vn 0 0 -1 
vn 0 0 -1 
f 620//620 621//621 622//622 
f 623//623 624//624 622//622 
f 622//622 621//621 623//623 
f 622//622 625//625 620//620 
o mesh657
v -0.0012975 8.5e-05 0.0005495 
v -0.0012975 -4.55761e-05 0.000220851 
v -0.0012975 -7.82359e-05 0.000243945 
v -0.0012975 8.5e-05 0.000199738 
v -0.0012975 -8.5e-05 0.0005495 
v -0.0012975 -8.5e-05 0.000818 
v -0.0012975 8.5e-05 0.000818 
v -0.0012975 -6.05051e-05 0.000199738 
v -0.0012975 -8.5e-05 0.000234379 
vn -1 0 0 
vn -1 0 0 
vn -1 0 0 
vn -1 0 0 
vn -1 0 0 
vn -1 0 0 
vn -1 0 0 
vn -1 0 0 
vn -1 0 0 
f 626//626 627//627 628//628 
f 626//626 629//629 627//627 
f 626//626 630//630 631//631 
f 631//631 632//632 626//626 
f 628//628 630//630 626//626 
f 629//629 633//633 627//627 
f 628//628 634//634 630//630 
o mesh658
v -0.00628018 -0.00507444 -0.00689104 
v -0.00126624 -6.05051e-05 0.000199738 
v -0.00127441 -8.5e-05 0.000199738 
v -0.00628018 -0.0051071 -0.00686795 
v -0.00125808 -8.5e-05 0.000234379 
vn 0.866025 -0.288675 -0.408248 
vn 0.866025 -0.288675 -0.408248 
vn 0.866025 -0.288675 -0.408248 
vn 0.866025 -0.288675 -0.408248 
vn 0.866025 -0.288675 -0.408248 
f 635//635 636//636 637//637 
f 637//637 638//638 635//635 
f 637//637 639//639 638//638 
o mesh659
v -0.00631482 -0.0050629 -0.00687471 
v -0.0012975 -4.55761e-05 0.000220851 
v -0.0012975 -6.05051e-05 0.000199738 
v -0.00628018 -0.00507444 -0.00689104 
v -0.00126624 -6.05051e-05 0.000199738 
vn -2.14693e-16 0.816497 -0.57735 
vn -2.14693e-16 0.816497 -0.57735 
vn -2.14693e-16 0.816497 -0.57735 
vn -2.14693e-16 0.816497 -0.57735 
vn -2.14693e-16 0.816497 -0.57735 
f 640//640 641//641 642//642 
f 642//642 643//643 640//640 
f 642//642 644//644 643//643 
o mesh660
v -0.00628018 -0.0051071 -0.00686795 
v -0.00125808 -8.5e-05 0.000234379 
v -0.0012975 -8.5e-05 0.000234379 
v -0.00631482 -0.00509556 -0.00685162 
v -0.0012975 -7.82359e-05 0.000243945 
vn -1.28816e-16 -0.816497 0.57735 
vn -1.28816e-16 -0.816497 0.57735 
vn -1.28816e-16 -0.816497 0.57735 
vn -1.28816e-16 -0.816497 0.57735 
vn -1.28816e-16 -0.816497 0.57735 
f 645//645 646//646 647//647 
f 647//647 648//648 645//645 
f 647//647 649//649 648//648 
o mesh661
v -0.00631482 -0.0050629 -0.00687471 
v -0.00631482 -0.00509556 -0.00685162 
v -0.0012975 -7.82359e-05 0.000243945 
v -0.0012975 -4.55761e-05 0.000220851 
vn -0.866025 0.288675 0.408248 
vn -0.866025 0.288675 0.408248 
vn -0.866025 0.288675 0.408248 
vn -0.866025 0.288675 0.408248 
f 650//650 651//651 652//652 
f 652//652 653//653 650//650 
o mesh662
v -0.00628018 -0.00507444 -0.00689104 
v -0.00628018 -0.0051071 -0.00686795 
v -0.00631482 -0.00509556 -0.00685162 
v -0.00631482 -0.0050629 -0.00687471 
vn -0.5 -0.5 -0.707107 
vn -0.5 -0.5 -0.707107 
vn -0.5 -0.5 -0.707107 
vn -0.5 -0.5 -0.707107 
f 654//654 655//655 656//656 
f 656//656 657//657 654//654 
o mesh663
v -0.000110625 -8.5e-05 0.001544 
v -0.000110625 -8.5e-05 0.0005495 
v 0.000110625 -8.5e-05 0.0005495 
v -0.000110625 -8.5e-05 0.003449 
v -8.5e-05 -8.5e-05 0.002474 
v 8.5e-05 -8.5e-05 0.002474 
v -8.5e-05 -8.5e-05 0.001774 
v 0.000110625 -8.5e-05 0.001544 
v 8.5e-05 -8.5e-05 0.001774 
v 0.000110625 -8.5e-05 0.003449 
v -0.000110625 -8.5e-05 0.006247 
v -8.5e-05 -8.5e-05 0.005124 
v 8.5e-05 -8.5e-05 0.005124 
v -8.5e-05 -8.5e-05 0.004424 
v 8.5e-05 -8.5e-05 0.004424 
v 0.000110625 -8.5e-05 0.006247 
v -0.000110625 -8.5e-05 0.00932 
v -8.5e-05 -8.5e-05 0.00807 
v 8.5e-05 -8.5e-05 0.00807 
v -8.5e-05 -8.5e-05 0.00737 
v 8.5e-05 -8.5e-05 0.00737 
v 0.000110625 -8.5e-05 0.00932 
v 0.000530002 -8.5e-05 0.000618 
v 0.000450002 -8.5e-05 0.001099 
v 0.0012975 -8.5e-05 0.0005495 
v 0.001114 -8.5e-05 0.000618 
v 0.0012975 -8.5e-05 0.000818 
v 0.001114 -8.5e-05 0.000818 
v 0.000530002 -8.5e-05 0.00146 
v 0.000450002 -8.5e-05 0.001314 
v 0.00013625 -8.5e-05 0.001314 
v 0.000480002 -8.5e-05 0.00151 
v 0.000479761 -8.5e-05 0.001544 
v 0.00013625 -8.5e-05 0.001099 
v 0.000466272 -8.5e-05 0.003449 
v 0.000459262 -8.5e-05 0.004439 
v 0.000509262 -8.5e-05 0.004539 
v 0.000509262 -8.5e-05 0.006247 
v 0.000512612 -8.5e-05 0.0114131 
v 0.00051467 -8.5e-05 0.0114241 
v 0.00086 -8.5e-05 0.01329 
v 0.000547388 -8.5e-05 0.0115062 
v 0.000553397 -8.5e-05 0.0115156 
v 0.000523616 -8.5e-05 0.0114561 
v 0.000527504 -8.5e-05 0.0114666 
v 0.000517193 -8.5e-05 0.0114349 
v 0.000520177 -8.5e-05 0.0114456 
v 0.000541784 -8.5e-05 0.0114967 
v 0.000531833 -8.5e-05 0.0114768 
v 0.0005598 -8.5e-05 0.0115247 
v 0.000536596 -8.5e-05 0.0114868 
v 0.000511023 -8.5e-05 0.0114021 
v 0.000509262 -8.5e-05 0.01138 
v 0.000509905 -8.5e-05 0.0113911 
v 0.000652437 -8.5e-05 0.0116027 
v 0.000662474 -8.5e-05 0.0116074 
v 0.000633018 -8.5e-05 0.0115919 
v 0.000642612 -8.5e-05 0.0115975 
v 0.000605796 -8.5e-05 0.0115727 
v 0.000614593 -8.5e-05 0.0115795 
v 0.000589111 -8.5e-05 0.011558 
v 0.000597297 -8.5e-05 0.0115655 
v 0.000573742 -8.5e-05 0.011542 
v 0.000581255 -8.5e-05 0.0115502 
v 0.000759262 -8.5e-05 0.01163 
v 0.00126 -8.5e-05 0.01184 
v 0.000693679 -8.5e-05 0.0116191 
v 0.000704382 -8.5e-05 0.0116221 
v 0.000672706 -8.5e-05 0.0116118 
v 0.000623673 -8.5e-05 0.0115859 
v 0.000566586 -8.5e-05 0.0115335 
v 0.00074817 -8.5e-05 0.0116294 
v 0.000715202 -8.5e-05 0.0116246 
v 0.000737116 -8.5e-05 0.0116282 
v 0.000683114 -8.5e-05 0.0116156 
v 0.00072612 -8.5e-05 0.0116267 
v 0.00036 -8.5e-05 0.01329 
v 0.00036 -8.5e-05 0.013575 
v 0.00086 -8.5e-05 0.013575 
v 0.000509262 -8.5e-05 0.00932 
v 0.00126 -8.5e-05 0.01329 
v -0.000110625 -8.5e-05 0.01329 
v -8.5e-05 -8.5e-05 0.01127 
v 8.5e-05 -8.5e-05 0.01127 
v -8.5e-05 -8.5e-05 0.01057 
v 8.5e-05 -8.5e-05 0.01057 
v 0.000110625 -8.5e-05 0.01329 
v -0.000873752 -8.5e-05 0.01329 
v -0.00126 -8.5e-05 0.01329 
v -0.00126 -8.5e-05 0.01184 
v -0.000517193 -8.5e-05 0.0114349 
v -0.00051467 -8.5e-05 0.0114241 
v -0.000566586 -8.5e-05 0.0115335 
v -0.0005598 -8.5e-05 0.0115247 
v -0.000512612 -8.5e-05 0.0114131 
v -0.000523616 -8.5e-05 0.0114561 
v -0.000520177 -8.5e-05 0.0114456 
v -0.000553397 -8.5e-05 0.0115156 
v -0.000531833 -8.5e-05 0.0114768 
v -0.000527504 -8.5e-05 0.0114666 
v -0.000541784 -8.5e-05 0.0114967 
v -0.000536596 -8.5e-05 0.0114868 
v -0.000547388 -8.5e-05 0.0115062 
v -0.000589111 -8.5e-05 0.011558 
v -0.000581255 -8.5e-05 0.0115502 
v -0.000605796 -8.5e-05 0.0115727 
v -0.000597297 -8.5e-05 0.0115655 
v -0.000652437 -8.5e-05 0.0116027 
v -0.000642612 -8.5e-05 0.0115975 
v -0.000672706 -8.5e-05 0.0116118 
v -0.000662474 -8.5e-05 0.0116074 
v -0.000693679 -8.5e-05 0.0116191 
v -0.00036 -8.5e-05 0.01329 
v -0.000511023 -8.5e-05 0.0114021 
v -0.000573742 -8.5e-05 0.011542 
v -0.000623673 -8.5e-05 0.0115859 
v -0.000614593 -8.5e-05 0.0115795 
v -0.000683114 -8.5e-05 0.0116156 
v -0.000715202 -8.5e-05 0.0116246 
v -0.000704382 -8.5e-05 0.0116221 
v -0.000633018 -8.5e-05 0.0115919 
v -0.00072612 -8.5e-05 0.0116267 
v -0.00074817 -8.5e-05 0.0116294 
v -0.000737116 -8.5e-05 0.0116282 
v -0.000873752 -8.5e-05 0.011678 
v -0.000759262 -8.5e-05 0.01163 
v -0.00086 -8.5e-05 0.01329 
v -0.00086 -8.5e-05 0.013575 
v -0.000509262 -8.5e-05 0.01138 
v -0.000509905 -8.5e-05 0.0113911 
v -0.00036 -8.5e-05 0.013575 
v -0.000509262 -8.5e-05 0.00932 
v -0.000509262 -8.5e-05 0.006247 
v -0.000459262 -8.5e-05 0.004439 
v -0.000509262 -8.5e-05 0.004539 
v -0.000466272 -8.5e-05 0.003449 
v -0.00013625 -8.5e-05 0.001314 
v -0.00013625 -8.5e-05 0.001099 
v -0.000480002 -8.5e-05 0.00151 
v -0.000530002 -8.5e-05 0.00146 
v -0.000450002 -8.5e-05 0.001314 
v -0.000479761 -8.5e-05 0.001544 
v -0.000530002 -8.5e-05 0.000618 
v -0.000450002 -8.5e-05 0.001099 
v -0.000873752 -8.5e-05 0.0005495 
v -0.0012975 -8.5e-05 0.000818 
v -0.0012975 -8.5e-05 0.0005495 
v -0.001114 -8.5e-05 0.000618 
v -0.000873752 -8.5e-05 0.000618 
v -0.001134 -8.5e-05 0.000199738 
v -0.000934002 -8.5e-05 0.0002 
v -0.000934002 -8.5e-05 0 
v -0.001134 -8.5e-05 0 
v -0.00125808 -8.5e-05 0.000234379 
v -0.00127441 -8.5e-05 0.000199738 
v -0.0012975 -8.5e-05 0.000234379 
v -0.000530002 -8.5e-05 0.0002 
v -0.000330002 -8.5e-05 0.0002 
v -0.000330002 -8.5e-05 0 
v -0.000530002 -8.5e-05 0 
v -0.000873752 -8.5e-05 0.0002 
v -0.000110625 -8.5e-05 0.0002 
v 0.000110625 -8.5e-05 0.0002 
v 0.00125808 -8.5e-05 0.000234379 
v 0.000934002 -8.5e-05 0.0002 
v 0.001134 -8.5e-05 0.000199738 
v 0.000934002 -8.5e-05 0 
v 0.001134 -8.5e-05 0 
v 0.000330002 -8.5e-05 0.0002 
v 0.000530002 -8.5e-05 0.0002 
v 0.000530002 -8.5e-05 0 
v 0.000330002 -8.5e-05 0 
v 0.00127441 -8.5e-05 0.000199738 
v 0.0012975 -8.5e-05 0.000234379 
v -0.001114 -8.5e-05 0.000818 
vn 0 -1 0 
vn 0 -1 0 
vn 0 -1 0 
vn 0 -1 0 
vn 0 -1 0 
vn 0 -1 0 
vn 0 -1 0 
vn 0 -1 0 
vn 0 -1 0 
vn 0 -1 0 
vn 0 -1 0 
vn 0 -1 0 
vn 0 -1 0 
vn 0 -1 0 
vn 0 -1 0 
vn 0 -1 0 
vn 0 -1 0 
vn 0 -1 0 
vn 0 -1 0 
vn 0 -1 0 
vn 0 -1 0 
vn 0 -1 0 
vn 0 -1 0 
vn 0 -1 0 
vn 0 -1 0 
vn 0 -1 0 
vn 0 -1 0 
vn 0 -1 0 
vn 0 -1 0 
vn 0 -1 0 
vn 0 -1 0 
vn 0 -1 0 
vn 0 -1 0 
vn 0 -1 0 
vn 0 -1 0 
vn 0 -1 0 
vn 0 -1 0 
vn 0 -1 0 
vn 0 -1 0 
vn 0 -1 0 
vn 0 -1 0 
vn 0 -1 0 
vn 0 -1 0 
vn 0 -1 0 
vn 0 -1 0 
vn 0 -1 0 
vn 0 -1 0 
vn 0 -1 0 
vn 0 -1 0 
vn 0 -1 0 
vn 0 -1 0 
vn 0 -1 0 
vn 0 -1 0 
vn 0 -1 0 
vn 0 -1 0 
vn 0 -1 0 
vn 0 -1 0 
vn 0 -1 0 
vn 0 -1 0 
vn 0 -1 0 
vn 0 -1 0 
vn 0 -1 0 
vn 0 -1 0 
vn 0 -1 0 
vn 0 -1 0 
vn 0 -1 0 
vn 0 -1 0 
vn 0 -1 0 
vn 0 -1 0 
vn 0 -1 0 
vn 0 -1 0 
vn 0 -1 0 
vn 0 -1 0 
vn 0 -1 0 
vn 0 -1 0 
vn 0 -1 0 
vn 0 -1 0 
vn 0 -1 0 
vn 0 -1 0 
vn 0 -1 0 
vn 0 -1 0 
vn 0 -1 0 
vn 0 -1 0 
vn 0 -1 0 
vn 0 -1 0 
vn 0 -1 0 
vn 0 -1 0 
vn 0 -1 0 
vn 0 -1 0 
vn 0 -1 0 
vn 0 -1 0 
vn 0 -1 0 
vn 0 -1 0 
vn 0 -1 0 
vn 0 -1 0 
vn 0 -1 0 
vn 0 -1 0 
vn 0 -1 0 
vn 0 -1 0 
vn 0 -1 0 
vn 0 -1 0 
vn 0 -1 0 
vn 0 -1 0 
vn 0 -1 0 
vn 0 -1 0 
vn 0 -1 0 
vn 0 -1 0 
vn 0 -1 0 
vn 0 -1 0 
vn 0 -1 0 
vn 0 -1 0 
vn 0 -1 0 
vn 0 -1 0 
vn 0 -1 0 
vn 0 -1 0 
vn 0 -1 0 
vn 0 -1 0 
vn 0 -1 0 
vn 0 -1 0 
vn 0 -1 0 
vn 0 -1 0 
vn 0 -1 0 
vn 0 -1 0 
vn 0 -1 0 
vn 0 -1 0 
vn 0 -1 0 
vn 0 -1 0 
vn 0 -1 0 
vn 0 -1 0 
vn 0 -1 0 
vn 0 -1 0 
vn 0 -1 0 
vn 0 -1 0 
vn 0 -1 0 
vn 0 -1 0 
vn 0 -1 0 
vn 0 -1 0 
vn 0 -1 0 
vn 0 -1 0 
vn 0 -1 0 
vn 0 -1 0 
vn 0 -1 0 
vn 0 -1 0 
vn 0 -1 0 
vn 0 -1 0 
vn 0 -1 0 
vn 0 -1 0 
vn 0 -1 0 
vn 0 -1 0 
vn 0 -1 0 
vn 0 -1 0 
vn 0 -1 0 
vn 0 -1 0 
vn 0 -1 0 
vn 0 -1 0 
vn 0 -1 0 
vn 0 -1 0 
vn 0 -1 0 
vn 0 -1 0 
vn 0 -1 0 
vn 0 -1 0 
vn 0 -1 0 
vn 0 -1 0 
vn 0 -1 0 
vn 0 -1 0 
vn 0 -1 0 
vn 0 -1 0 
vn 0 -1 0 
vn 0 -1 0 
vn 0 -1 0 
vn 0 -1 0 
vn 0 -1 0 
vn 0 -1 0 
vn 0 -1 0 
vn 0 -1 0 
f 658//658 659//659 660//660 
f 661//661 662//662 663//663 
f 658//658 664//664 662//662 
f 662//662 661//661 658//658 
f 658//658 665//665 666//666 
f 665//665 667//667 663//663 
f 666//666 664//664 658//658 
f 663//663 667//667 661//661 
f 668//668 669//669 670//670 
f 661//661 671//671 669//669 
f 669//669 668//668 661//661 
f 661//661 667//667 672//672 
f 667//667 673//673 670//670 
f 672//672 671//671 661//661 
f 670//670 673//673 668//668 
f 674//674 675//675 676//676 
f 668//668 677//677 675//675 
f 675//675 674//674 668//668 
f 668//668 673//673 678//678 
f 673//673 679//679 676//676 
f 678//678 677//677 668//668 
f 676//676 679//679 674//674 
f 660//660 680//680 681//681 
f 682//682 683//683 680//680 
f 680//680 660//660 682//682 
f 684//684 685//685 683//683 
f 683//683 682//682 684//684 
f 686//686 687//687 681//681 
f 665//665 688//688 689//689 
f 689//689 688//688 687//687 
f 681//681 680//680 686//686 
f 687//687 686//686 689//689 
f 689//689 690//690 665//665 
f 665//665 660//660 691//691 
f 691//691 688//688 665//665 
f 665//665 690//690 692//692 
f 673//673 693//693 694//694 
f 667//667 692//692 693//693 
f 693//693 673//673 667//667 
f 679//679 673//673 695//695 
f 679//679 696//696 697//697 
f 698//698 699//699 700//700 
f 698//698 701//701 702//702 
f 698//698 703//703 704//704 
f 697//697 698//698 679//679 
f 698//698 705//705 699//699 
f 702//702 706//706 698//698 
f 697//697 703//703 698//698 
f 700//700 707//707 698//698 
f 706//706 708//708 698//698 
f 679//679 709//709 696//696 
f 679//679 710//710 711//711 
f 698//698 712//712 713//713 
f 698//698 714//714 715//715 
f 708//708 705//705 698//698 
f 711//711 709//709 679//679 
f 715//715 712//712 698//698 
f 698//698 716//716 717//717 
f 698//698 718//718 719//719 
f 698//698 720//720 721//721 
f 704//704 701//701 698//698 
f 698//698 722//722 723//723 
f 698//698 724//724 725//725 
f 713//713 726//726 698//698 
f 717//717 727//727 698//698 
f 721//721 718//718 698//698 
f 707//707 728//728 698//698 
f 698//698 729//729 722//722 
f 725//725 730//730 698//698 
f 727//727 714//714 698//698 
f 728//728 720//720 698//698 
f 698//698 731//731 729//729 
f 698//698 732//732 724//724 
f 719//719 716//716 698//698 
f 698//698 733//733 731//731 
f 726//726 732//732 698//698 
f 679//679 698//698 734//734 
f 735//735 734//734 698//698 
f 730//730 733//733 698//698 
f 698//698 736//736 735//735 
f 679//679 737//737 710//710 
f 723//723 738//738 698//698 
f 739//739 740//740 741//741 
f 674//674 742//742 740//740 
f 740//740 739//739 674//674 
f 674//674 679//679 743//743 
f 679//679 744//744 741//741 
f 743//743 742//742 674//674 
f 741//741 744//744 739//739 
f 745//745 746//746 747//747 
f 739//739 748//748 749//749 
f 739//739 750//750 751//751 
f 749//749 752//752 739//739 
f 739//739 753//753 754//754 
f 751//751 755//755 739//739 
f 754//754 748//748 739//739 
f 739//739 756//756 757//757 
f 739//739 758//758 759//759 
f 755//755 760//760 739//739 
f 757//757 753//753 739//739 
f 760//760 758//758 739//739 
f 739//739 761//761 762//762 
f 739//739 763//763 764//764 
f 739//739 765//765 766//766 
f 739//739 767//767 768//768 
f 759//759 756//756 739//739 
f 764//764 761//761 739//739 
f 768//768 765//765 739//739 
f 769//769 739//739 770//770 
f 752//752 771//771 739//739 
f 762//762 772//772 739//739 
f 739//739 773//773 774//774 
f 739//739 775//775 767//767 
f 770//770 776//776 777//777 
f 772//772 750//750 739//739 
f 739//739 778//778 773//773 
f 739//739 769//769 775//775 
f 770//770 779//779 776//776 
f 774//774 763//763 739//739 
f 770//770 777//777 769//769 
f 770//770 780//780 781//781 
f 770//770 782//782 783//783 
f 766//766 778//778 739//739 
f 783//783 780//780 770//770 
f 781//781 779//779 770//770 
f 782//782 770//770 784//784 
f 785//785 784//784 770//770 
f 674//674 739//739 786//786 
f 771//771 787//787 739//739 
f 770//770 788//788 785//785 
f 787//787 786//786 739//739 
f 786//786 789//789 674//674 
f 789//789 790//790 668//668 
f 661//661 668//668 791//791 
f 668//668 790//790 792//792 
f 792//792 791//791 668//668 
f 658//658 661//661 793//793 
f 658//658 794//794 795//795 
f 796//796 797//797 798//798 
f 658//658 799//799 796//796 
f 795//795 659//659 658//658 
f 796//796 794//794 658//658 
f 797//797 800//800 801//801 
f 798//798 794//794 796//796 
f 800//800 659//659 801//801 
f 802//802 659//659 800//800 
f 801//801 798//798 797//797 
f 795//795 801//801 659//659 
f 803//803 804//804 805//805 
f 802//802 806//806 805//805 
f 805//805 804//804 802//802 
f 802//802 807//807 808//808 
f 809//809 808//808 807//807 
f 807//807 810//810 809//809 
f 807//807 802//802 811//811 
f 811//811 812//812 807//807 
f 804//804 813//813 811//811 
f 811//811 802//802 804//804 
f 659//659 814//814 815//815 
f 816//816 815//815 814//814 
f 814//814 817//817 816//816 
f 802//802 818//818 814//814 
f 814//814 659//659 802//802 
f 659//659 819//819 820//820 
f 821//821 822//822 823//823 
f 824//824 825//825 823//823 
f 823//823 822//822 824//824 
f 821//821 826//826 827//827 
f 827//827 822//822 821//821 
f 828//828 827//827 826//826 
f 826//826 829//829 828//828 
f 660//660 820//820 826//826 
f 682//682 660//660 821//821 
f 826//826 821//821 660//660 
f 823//823 830//830 821//821 
f 821//821 831//831 682//682 
f 820//820 660//660 659//659 
f 815//815 819//819 659//659 
f 808//808 818//818 802//802 
f 805//805 832//832 803//803 
f 800//800 806//806 802//802 
f 793//793 799//799 658//658 
f 791//791 793//793 661//661 
f 668//668 674//674 789//789 
f 784//784 745//745 782//782 
f 747//747 782//782 745//745 
f 741//741 743//743 679//679 
f 734//734 744//744 679//679 
f 695//695 737//737 679//679 
f 694//694 695//695 673//673 
f 692//692 667//667 665//665 
f 681//681 691//691 660//660 
f 676//676 678//678 673//673 
f 670//670 672//672 667//667 
f 663//663 666//666 665//665 
f 660//660 665//665 658//658 
o mesh664
v 0.001134 -8.5e-05 0.000199738 
v 0.001134 8.5e-05 0.000199738 
v 0.00126624 -6.05051e-05 0.000199738 
v 0.0012975 8.5e-05 0.000199738 
v 0.0012975 -6.05051e-05 0.000199738 
v 0.00127441 -8.5e-05 0.000199738 
vn 0 0 -1 
vn 0 0 -1 
vn 0 0 -1 
vn 0 0 -1 
vn 0 0 -1 
vn 0 0 -1 
f 833//833 834//834 835//835 
f 836//836 837//837 835//835 
f 835//835 834//834 836//836 
f 835//835 838//838 833//833 
o mesh665
v 0.0012975 8.5e-05 0.0005495 
v 0.0012975 -8.5e-05 0.0005495 
v 0.0012975 -7.82359e-05 0.000243945 
v 0.0012975 -8.5e-05 0.000818 
v 0.0012975 -4.55761e-05 0.000220851 
v 0.0012975 8.5e-05 0.000199738 
v 0.0012975 -8.5e-05 0.000234379 
v 0.0012975 8.5e-05 0.000818 
v 0.0012975 -6.05051e-05 0.000199738 
vn 1 0 0 
vn 1 0 0 
vn 1 0 0 
vn 1 0 0 
vn 1 0 0 
vn 1 0 0 
vn 1 0 0 
vn 1 0 0 
vn 1 0 0 
f 839//839 840//840 841//841 
f 842//842 840//840 839//839 
f 841//841 843//843 839//839 
f 843//843 844//844 839//839 
f 840//840 845//845 841//841 
f 839//839 846//846 842//842 
f 843//843 847//847 844//844 
o mesh666
v 0.00628018 -0.00507444 -0.00689104 
v 0.00126624 -6.05051e-05 0.000199738 
v 0.0012975 -6.05051e-05 0.000199738 
v 0.00631482 -0.0050629 -0.00687471 
v 0.0012975 -4.55761e-05 0.000220851 
vn 2.14693e-16 0.816497 -0.57735 
vn 2.14693e-16 0.816497 -0.57735 
vn 2.14693e-16 0.816497 -0.57735 
vn 2.14693e-16 0.816497 -0.57735 
vn 2.14693e-16 0.816497 -0.57735 
f 848//848 849//849 850//850 
f 850//850 851//851 848//848 
f 850//850 852//852 851//851 
o mesh667
v 0.00628018 -0.0051071 -0.00686795 
v 0.00125808 -8.5e-05 0.000234379 
v 0.00127441 -8.5e-05 0.000199738 
v 0.00628018 -0.00507444 -0.00689104 
v 0.00126624 -6.05051e-05 0.000199738 
vn -0.866025 -0.288675 -0.408248 
vn -0.866025 -0.288675 -0.408248 
vn -0.866025 -0.288675 -0.408248 
vn -0.866025 -0.288675 -0.408248 
vn -0.866025 -0.288675 -0.408248 
f 853//853 854//854 855//855 
f 855//855 856//856 853//853 
f 855//855 857//857 856//856 
o mesh668
v 0.00631482 -0.00509556 -0.00685162 
v 0.0012975 -7.82359e-05 0.000243945 
v 0.0012975 -8.5e-05 0.000234379 
v 0.00628018 -0.0051071 -0.00686795 
v 0.00125808 -8.5e-05 0.000234379 
vn 1.28816e-16 -0.816497 0.57735 
vn 1.28816e-16 -0.816497 0.57735 
vn 1.28816e-16 -0.816497 0.57735 
vn 1.28816e-16 -0.816497 0.57735 
vn 1.28816e-16 -0.816497 0.57735 
f 858//858 859//859 860//860 
f 860//860 861//861 858//858 
f 860//860 862//862 861//861 
o mesh669
v 0.00631482 -0.0050629 -0.00687471 
v 0.0012975 -4.55761e-05 0.000220851 
v 0.0012975 -7.82359e-05 0.000243945 
v 0.00631482 -0.00509556 -0.00685162 
vn 0.866025 0.288675 0.408248 
vn 0.866025 0.288675 0.408248 
vn 0.866025 0.288675 0.408248 
vn 0.866025 0.288675 0.408248 
f 863//863 864//864 865//865 
f 865//865 866//866 863//863 
o mesh670
v 0.00628018 -0.00507444 -0.00689104 
v 0.00631482 -0.0050629 -0.00687471 
v 0.00631482 -0.00509556 -0.00685162 
v 0.00628018 -0.0051071 -0.00686795 
vn 0.5 -0.5 -0.707107 
vn 0.5 -0.5 -0.707107 
vn 0.5 -0.5 -0.707107 
vn 0.5 -0.5 -0.707107 
f 867//867 868//868 869//869 
f 869//869 870//870 867//867 
