# OBJ generated by ONSHAPE BY PTC INC, 1.217 Units = meters
mtllib PZT_Layer2.mtl
g PZT_Layer2
usemtl 0.647059_0.647059_0.647059_0.000000_0.000000
o mesh1127
v 0.0005 0.000157 -0.0005 
v 0.0005 3e-05 -0.0005 
v 0.0005 3e-05 -0.0015 
v 0.0005 0.000157 -0.0015 
vn 1 0 1.668e-16 
vn 1 0 1.668e-16 
vn 1 0 1.668e-16 
vn 1 0 1.668e-16 
f 1//1 2//2 3//3 
f 3//3 4//4 1//1 
o mesh1128
v 0.000875 0.000157 -0.0005 
v 0.000875 3e-05 -0.0005 
v 0.0005 3e-05 -0.0005 
v 0.0005 0.000157 -0.0005 
vn 0 0 -1 
vn 0 0 -1 
vn 0 0 -1 
vn 0 0 -1 
f 5//5 6//6 7//7 
f 7//7 8//8 5//5 
o mesh1129
v 0.000875 0.000157 3.25261e-19 
v 0.000875 3e-05 3.25261e-19 
v 0.000875 3e-05 -0.0005 
v 0.000875 0.000157 -0.0005 
vn 1 0 1.668e-16 
vn 1 0 1.668e-16 
vn 1 0 1.668e-16 
vn 1 0 1.668e-16 
f 9//9 10//10 11//11 
f 11//11 12//12 9//9 
o mesh1130
v 0.00025 0.000157 0.009 
v 0.00025 3e-05 0.009 
v 0.000875 3e-05 3.25261e-19 
v 0.000875 0.000157 3.25261e-19 
vn 0.997597 0 0.0692776 
vn 0.997597 0 0.0692776 
vn 0.997597 0 0.0692776 
vn 0.997597 0 0.0692776 
f 13//13 14//14 15//15 
f 15//15 16//16 13//13 
o mesh1131
v 0.00025 0.000157 0.012 
v 0.00025 3e-05 0.012 
v 0.00025 3e-05 0.009 
v 0.00025 0.000157 0.009 
vn 1 0 1.2649e-16 
vn 1 0 1.2649e-16 
vn 1 0 1.2649e-16 
vn 1 0 1.2649e-16 
f 17//17 18//18 19//19 
f 19//19 20//20 17//17 
o mesh1132
v -0.00025 0.000157 0.012 
v -0.00025 3e-05 0.012 
v 0.00025 3e-05 0.012 
v 0.00025 0.000157 0.012 
vn 0 0 1 
vn 0 0 1 
vn 0 0 1 
vn 0 0 1 
f 21//21 22//22 23//23 
f 23//23 24//24 21//21 
o mesh1133
v -0.00025 0.000157 0.009 
v -0.00025 3e-05 0.009 
v -0.00025 3e-05 0.012 
v -0.00025 0.000157 0.012 
vn -1 0 1.2649e-16 
vn -1 0 1.2649e-16 
vn -1 0 1.2649e-16 
vn -1 0 1.2649e-16 
f 25//25 26//26 27//27 
f 27//27 28//28 25//25 
o mesh1134
v -0.000875 0.000157 3.25261e-19 
v -0.000875 3e-05 3.25261e-19 
v -0.00025 3e-05 0.009 
v -0.00025 0.000157 0.009 
vn -0.997597 0 0.0692776 
vn -0.997597 0 0.0692776 
vn -0.997597 0 0.0692776 
vn -0.997597 0 0.0692776 
f 29//29 30//30 31//31 
f 31//31 32//32 29//29 
o mesh1135
v -0.000875 0.000157 -0.0005 
v -0.000875 3e-05 -0.0005 
v -0.000875 3e-05 3.25261e-19 
v -0.000875 0.000157 3.25261e-19 
vn -1 0 1.2649e-16 
vn -1 0 1.2649e-16 
vn -1 0 1.2649e-16 
vn -1 0 1.2649e-16 
f 33//33 34//34 35//35 
f 35//35 36//36 33//33 
o mesh1136
v 0.000875 0.000157 3.25261e-19 
v -0.000875 0.000157 3.25261e-19 
v -0.00025 0.000157 0.009 
v -0.0005 0.000157 -0.0005 
v 0.00025 0.000157 0.012 
v 0.00025 0.000157 0.009 
v -0.000875 0.000157 -0.0005 
v -0.0005 0.000157 -0.0015 
v 0.0005 0.000157 -0.0005 
v 0.000875 0.000157 -0.0005 
v 0.0005 0.000157 -0.0015 
v -0.00025 0.000157 0.012 
vn 0 1 0 
vn 0 1 0 
vn 0 1 0 
vn 0 1 0 
vn 0 1 0 
vn 0 1 0 
vn 0 1 0 
vn 0 1 0 
vn 0 1 0 
vn 0 1 0 
vn 0 1 0 
vn 0 1 0 
f 37//37 38//38 39//39 
f 38//38 37//37 40//40 
f 41//41 42//42 39//39 
f 40//40 43//43 38//38 
f 44//44 40//40 45//45 
f 37//37 46//46 45//45 
f 39//39 42//42 37//37 
f 45//45 40//40 37//37 
f 45//45 47//47 44//44 
f 39//39 48//48 41//41 
o mesh1137
v -0.000875 3e-05 3.25261e-19 
v 0.000875 3e-05 3.25261e-19 
v 0.00025 3e-05 0.009 
v 0.0005 3e-05 -0.0005 
v -0.00025 3e-05 0.012 
v -0.00025 3e-05 0.009 
v 0.000875 3e-05 -0.0005 
v 0.0005 3e-05 -0.0015 
v -0.0005 3e-05 -0.0005 
v -0.000875 3e-05 -0.0005 
v -0.0005 3e-05 -0.0015 
v 0.00025 3e-05 0.012 
vn 0 -1 0 
vn 0 -1 0 
vn 0 -1 0 
vn 0 -1 0 
vn 0 -1 0 
vn 0 -1 0 
vn 0 -1 0 
vn 0 -1 0 
vn 0 -1 0 
vn 0 -1 0 
vn 0 -1 0 
vn 0 -1 0 
f 49//49 50//50 51//51 
f 50//50 49//49 52//52 
f 53//53 54//54 51//51 
f 52//52 55//55 50//50 
f 56//56 52//52 57//57 
f 49//49 58//58 57//57 
f 51//51 54//54 49//49 
f 57//57 52//52 49//49 
f 57//57 59//59 56//56 
f 51//51 60//60 53//53 
o mesh1138
v -0.0005 0.000157 -0.0005 
v -0.0005 3e-05 -0.0005 
v -0.000875 3e-05 -0.0005 
v -0.000875 0.000157 -0.0005 
vn 0 0 -1 
vn 0 0 -1 
vn 0 0 -1 
vn 0 0 -1 
f 61//61 62//62 63//63 
f 63//63 64//64 61//61 
o mesh1139
v -0.0005 0.000157 -0.0015 
v -0.0005 3e-05 -0.0015 
v -0.0005 3e-05 -0.0005 
v -0.0005 0.000157 -0.0005 
vn -1 0 2.1684e-16 
vn -1 0 2.1684e-16 
vn -1 0 2.1684e-16 
vn -1 0 2.1684e-16 
f 65//65 66//66 67//67 
f 67//67 68//68 65//65 
o mesh1140
v 0.0005 0.000157 -0.0015 
v 0.0005 3e-05 -0.0015 
v -0.0005 3e-05 -0.0015 
v -0.0005 0.000157 -0.0015 
vn 0 0 -1 
vn 0 0 -1 
vn 0 0 -1 
vn 0 0 -1 
f 69//69 70//70 71//71 
f 71//71 72//72 69//69 
