# OBJ generated by ONSHAPE BY PTC INC, 1.217 Units = meters
mtllib PZT_Layer1.mtl
g PZT_Layer1
usemtl 0.647059_0.647059_0.647059_0.000000_0.000000
o mesh1141
v 0.00038 -0.000157 -0.00085 
v 0.00038 -3e-05 -0.00085 
v 0.00012 -3e-05 -0.00085 
v 0.00012 -0.000157 -0.00085 
vn 0 0 1 
vn 0 0 1 
vn 0 0 1 
vn 0 0 1 
f 1//1 2//2 3//3 
f 3//3 4//4 1//1 
o mesh1142
v 0.00012 -0.000157 -0.00085 
v 0.00012 -3e-05 -0.00085 
v 0.00012 -3e-05 -0.0006 
v 0.00012 -0.000157 -0.0006 
vn 1 0 5.42101e-17 
vn 1 0 5.42101e-17 
vn 1 0 5.42101e-17 
vn 1 0 5.42101e-17 
f 5//5 6//6 7//7 
f 7//7 8//8 5//5 
o mesh1143
v 0.00012 -0.000157 -0.0006 
v 0.00012 -3e-05 -0.0006 
v 0.00038 -3e-05 -0.0006 
v 0.00038 -0.000157 -0.0006 
vn 0 0 -1 
vn 0 0 -1 
vn 0 0 -1 
vn 0 0 -1 
f 9//9 10//10 11//11 
f 11//11 12//12 9//9 
o mesh1144
v 0.00038 -0.000157 -0.0006 
v 0.00038 -3e-05 -0.0006 
v 0.00038 -3e-05 -0.00085 
v 0.00038 -0.000157 -0.00085 
vn -1 0 0 
vn -1 0 0 
vn -1 0 0 
vn -1 0 0 
f 13//13 14//14 15//15 
f 15//15 16//16 13//13 
o mesh1145
v 0.0005 -0.000157 -0.0015 
v 0.00038 -0.000157 -0.00085 
v 0.00012 -0.000157 -0.00085 
v 0.0005 -0.000157 -0.0005 
v 0.00038 -0.000157 -0.0006 
v -0.0005 -0.000157 -0.0005 
v 0.00012 -0.000157 -0.0006 
v -0.000875 -0.000157 3.25261e-19 
v 0.000875 -0.000157 3.25261e-19 
v 0.00025 -0.000157 0.009 
v -0.0005 -0.000157 -0.0015 
v -0.00025 -0.000157 0.012 
v -0.00025 -0.000157 0.009 
v 0.000875 -0.000157 -0.0005 
v -0.000875 -0.000157 -0.0005 
v 0.00025 -0.000157 0.012 
vn 0 -1 0 
vn 0 -1 0 
vn 0 -1 0 
vn 0 -1 0 
vn 0 -1 0 
vn 0 -1 0 
vn 0 -1 0 
vn 0 -1 0 
vn 0 -1 0 
vn 0 -1 0 
vn 0 -1 0 
vn 0 -1 0 
vn 0 -1 0 
vn 0 -1 0 
vn 0 -1 0 
vn 0 -1 0 
f 17//17 18//18 19//19 
f 20//20 21//21 18//18 
f 18//18 17//17 20//20 
f 20//20 22//22 23//23 
f 24//24 25//25 26//26 
f 25//25 24//24 20//20 
f 23//23 21//21 20//20 
f 22//22 27//27 19//19 
f 28//28 29//29 26//26 
f 20//20 30//30 25//25 
f 19//19 23//23 22//22 
f 24//24 31//31 22//22 
f 26//26 29//29 24//24 
f 22//22 20//20 24//24 
f 19//19 27//27 17//17 
f 26//26 32//32 28//28 
o mesh1146
v 0.0005 -3e-05 -0.0005 
v 0.0005 -3e-05 -0.0015 
v 0.00038 -3e-05 -0.00085 
v -0.0005 -3e-05 -0.0015 
v 0.00012 -3e-05 -0.00085 
v 0.00012 -3e-05 -0.0006 
v 0.000875 -3e-05 3.25261e-19 
v -0.000875 -3e-05 3.25261e-19 
v -0.00025 -3e-05 0.009 
v -0.0005 -3e-05 -0.0005 
v 0.00038 -3e-05 -0.0006 
v 0.00025 -3e-05 0.012 
v 0.00025 -3e-05 0.009 
v -0.000875 -3e-05 -0.0005 
v 0.000875 -3e-05 -0.0005 
v -0.00025 -3e-05 0.012 
vn 0 1 0 
vn 0 1 0 
vn 0 1 0 
vn 0 1 0 
vn 0 1 0 
vn 0 1 0 
vn 0 1 0 
vn 0 1 0 
vn 0 1 0 
vn 0 1 0 
vn 0 1 0 
vn 0 1 0 
vn 0 1 0 
vn 0 1 0 
vn 0 1 0 
vn 0 1 0 
f 33//33 34//34 35//35 
f 34//34 36//36 37//37 
f 38//38 39//39 33//33 
f 39//39 40//40 41//41 
f 40//40 39//39 42//42 
f 37//37 35//35 34//34 
f 42//42 38//38 37//37 
f 33//33 43//43 38//38 
f 44//44 45//45 41//41 
f 42//42 46//46 40//40 
f 37//37 36//36 42//42 
f 39//39 47//47 33//33 
f 41//41 45//45 39//39 
f 38//38 42//42 39//39 
f 35//35 43//43 33//33 
f 41//41 48//48 44//44 
o mesh1147
v -0.0005 -0.000157 -0.0005 
v -0.0005 -3e-05 -0.0005 
v -0.0005 -3e-05 -0.0015 
v -0.0005 -0.000157 -0.0015 
vn -1 0 2.1684e-16 
vn -1 0 2.1684e-16 
vn -1 0 2.1684e-16 
vn -1 0 2.1684e-16 
f 49//49 50//50 51//51 
f 51//51 52//52 49//49 
o mesh1148
v -0.0005 -0.000157 -0.0015 
v -0.0005 -3e-05 -0.0015 
v 0.0005 -3e-05 -0.0015 
v 0.0005 -0.000157 -0.0015 
vn 0 0 -1 
vn 0 0 -1 
vn 0 0 -1 
vn 0 0 -1 
f 53//53 54//54 55//55 
f 55//55 56//56 53//53 
o mesh1149
v 0.0005 -0.000157 -0.0015 
v 0.0005 -3e-05 -0.0015 
v 0.0005 -3e-05 -0.0005 
v 0.0005 -0.000157 -0.0005 
vn 1 0 3.09772e-16 
vn 1 0 3.09772e-16 
vn 1 0 3.09772e-16 
vn 1 0 3.09772e-16 
f 57//57 58//58 59//59 
f 59//59 60//60 57//57 
o mesh1150
v 0.0005 -0.000157 -0.0005 
v 0.0005 -3e-05 -0.0005 
v 0.000875 -3e-05 -0.0005 
v 0.000875 -0.000157 -0.0005 
vn 0 0 -1 
vn 0 0 -1 
vn 0 0 -1 
vn 0 0 -1 
f 61//61 62//62 63//63 
f 63//63 64//64 61//61 
o mesh1151
v 0.000875 -0.000157 -0.0005 
v 0.000875 -3e-05 -0.0005 
v 0.000875 -3e-05 3.25261e-19 
v 0.000875 -0.000157 3.25261e-19 
vn 1 0 3.09772e-16 
vn 1 0 3.09772e-16 
vn 1 0 3.09772e-16 
vn 1 0 3.09772e-16 
f 65//65 66//66 67//67 
f 67//67 68//68 65//65 
o mesh1152
v 0.000875 -0.000157 3.25261e-19 
v 0.000875 -3e-05 3.25261e-19 
v 0.00025 -3e-05 0.009 
v 0.00025 -0.000157 0.009 
vn 0.997597 0 0.0692776 
vn 0.997597 0 0.0692776 
vn 0.997597 0 0.0692776 
vn 0.997597 0 0.0692776 
f 69//69 70//70 71//71 
f 71//71 72//72 69//69 
o mesh1153
v 0.00025 -0.000157 0.009 
v 0.00025 -3e-05 0.009 
v 0.00025 -3e-05 0.012 
v 0.00025 -0.000157 0.012 
vn 1 0 3.09772e-16 
vn 1 0 3.09772e-16 
vn 1 0 3.09772e-16 
vn 1 0 3.09772e-16 
f 73//73 74//74 75//75 
f 75//75 76//76 73//73 
o mesh1154
v 0.00025 -0.000157 0.012 
v 0.00025 -3e-05 0.012 
v -0.00025 -3e-05 0.012 
v -0.00025 -0.000157 0.012 
vn 0 0 1 
vn 0 0 1 
vn 0 0 1 
vn 0 0 1 
f 77//77 78//78 79//79 
f 79//79 80//80 77//77 
o mesh1155
v -0.00025 -0.000157 0.012 
v -0.00025 -3e-05 0.012 
v -0.00025 -3e-05 0.009 
v -0.00025 -0.000157 0.009 
vn -1 0 1.2649e-16 
vn -1 0 1.2649e-16 
vn -1 0 1.2649e-16 
vn -1 0 1.2649e-16 
f 81//81 82//82 83//83 
f 83//83 84//84 81//81 
o mesh1156
v -0.00025 -0.000157 0.009 
v -0.00025 -3e-05 0.009 
v -0.000875 -3e-05 3.25261e-19 
v -0.000875 -0.000157 3.25261e-19 
vn -0.997597 0 0.0692776 
vn -0.997597 0 0.0692776 
vn -0.997597 0 0.0692776 
vn -0.997597 0 0.0692776 
f 85//85 86//86 87//87 
f 87//87 88//88 85//85 
o mesh1157
v -0.000875 -0.000157 3.25261e-19 
v -0.000875 -3e-05 3.25261e-19 
v -0.000875 -3e-05 -0.0005 
v -0.000875 -0.000157 -0.0005 
vn -1 0 1.2649e-16 
vn -1 0 1.2649e-16 
vn -1 0 1.2649e-16 
vn -1 0 1.2649e-16 
f 89//89 90//90 91//91 
f 91//91 92//92 89//89 
o mesh1158
v -0.000875 -0.000157 -0.0005 
v -0.000875 -3e-05 -0.0005 
v -0.0005 -3e-05 -0.0005 
v -0.0005 -0.000157 -0.0005 
vn 0 0 -1 
vn 0 0 -1 
vn 0 0 -1 
vn 0 0 -1 
f 93//93 94//94 95//95 
f 95//95 96//96 93//93 
