# OBJ generated by ONSHAPE BY PTC INC, 1.218 Units = meters
mtllib transmission_right_link_hinge.mtl
g transmission_right_link_hinge
usemtl 0.301961_0.301961_0.301961_0.000000_0.000000
o mesh783
v 0.000472541 0.000989788 0.000684387 
v 0.000472541 0.000989905 0.000684387 
v 0.000460378 0.000989877 0.000684387 
vn 0 0 1 
vn 0 0 1 
vn 0 0 1 
f 1//1 2//2 3//3 
o mesh784
v 0.000472541 0.000989788 0.000684387 
v 0.000460378 0.000989877 0.000684387 
v 0.000460378 0.000989848 0.000782387 
v 0.000472541 0.000989788 0.000782387 
vn 0.00496122 0.999988 0 
vn 0.00496122 0.999988 0 
vn 0.00496122 0.999988 0 
vn 0.00496122 0.999988 0 
f 4//4 5//5 6//6 
f 6//6 7//7 4//4 
o mesh785
v 0.000472541 0.000179788 0.000782387 
v 0.000472541 0.000989788 0.000671387 
v 0.000472541 0.000989788 0.000684387 
v 0.000472541 0.000989905 0.000671387 
v 0.000472541 0.000989905 0.000684387 
v 0.000472443 0.000179847 0.000555387 
v 0.000472443 0.000989847 0.000555387 
v 0.000472541 0.000989788 0.000782387 
vn 1 0 0 
vn 1 0 0 
vn 1 0 0 
vn 1 0 0 
vn 1 0 0 
vn 1 0 0 
vn 1 0 0 
vn 1 0 0 
f 8//8 9//9 10//10 
f 10//10 9//9 11//11 
f 11//11 12//12 10//10 
f 13//13 14//14 9//9 
f 9//9 8//8 13//13 
f 10//10 15//15 8//8 
o mesh786
v 0.000472541 0.000989788 0.000671387 
v 0.000460378 0.000989877 0.000671387 
v 0.000472541 0.000989905 0.000671387 
vn 0 0 -1 
vn 0 0 -1 
vn 0 0 -1 
f 16//16 17//17 18//18 
o mesh787
v 0.000472541 0.000989788 0.000671387 
v 0.000460378 0.000989848 0.000633387 
v 0.000460377 0.000989848 0.000646387 
v 0.000472443 0.000989847 0.000555387 
v 0.000460378 0.000989877 0.000555387 
v 0.000460378 0.000989877 0.000671387 
vn 0.00496122 0.999988 0 
vn 0.00496122 0.999988 0 
vn 0.00496122 0.999988 0 
vn 0.00496122 0.999988 0 
vn 0.00496122 0.999988 0 
vn 0.00496122 0.999988 0 
f 19//19 20//20 21//21 
f 22//22 23//23 20//20 
f 20//20 19//19 22//22 
f 21//21 24//24 19//19 
o mesh788
v 0.000502537 0.000179788 0.000782387 
v 0.00050254 0.000179841 0.000546135 
v 0.000472443 0.000179847 0.000555387 
v 0.000472541 0.000179788 0.000782387 
vn 0 1 0 
vn 0 1 0 
vn 0 1 0 
vn 0 1 0 
f 25//25 26//26 27//27 
f 27//27 28//28 25//25 
o mesh789
v 0.000472443 0.000989847 0.000555387 
v 0.000472443 0.000179847 0.000555387 
v 0.000472443 0.000179917 0.000542387 
v 0.000472443 0.000989902 0.000542387 
vn 1 0 0 
vn 1 0 0 
vn 1 0 0 
vn 1 0 0 
f 29//29 30//30 31//31 
f 31//31 32//32 29//29 
o mesh790
v 0.000472443 0.000179917 0.000542387 
v 0.000472443 0.000179847 0.000555387 
v 0.00050254 0.000179841 0.000546135 
vn 0.00390842 0.999992 0 
vn 0.00390842 0.999992 0 
vn 0.00390842 0.999992 0 
f 33//33 34//34 35//35 
o mesh791
v 0.000379174 0.000989905 0.000782387 
v 0.000207541 -0.000570095 0.000782387 
v 0.000472541 0.000179788 0.000782387 
v 0.000472541 0.000989788 0.000782387 
v 0.000460378 0.000989848 0.000782387 
v 0.000402541 -0.000570095 0.000782387 
v 0.000502537 0.000179788 0.000782387 
v 0.000288424 -0.000570095 0.000782387 
v 0.000207541 0.000989905 0.000782387 
vn 0 0 1 
vn 0 0 1 
vn 0 0 1 
vn 0 0 1 
vn 0 0 1 
vn 0 0 1 
vn 0 0 1 
vn 0 0 1 
vn 0 0 1 
f 36//36 37//37 38//38 
f 38//38 39//39 40//40 
f 41//41 42//42 38//38 
f 38//38 40//40 36//36 
f 38//38 37//37 43//43 
f 38//38 43//43 41//41 
f 36//36 44//44 37//37 
o mesh792
v 0.000502537 0.000179788 0.000782387 
v 0.000402541 -0.000570095 0.000782387 
v 0.000402541 -0.000570095 0.000555387 
v 0.00050254 0.000179841 0.000546135 
v 0.000402541 -0.000570095 0.000542387 
vn 0.991226 -0.132178 0 
vn 0.991226 -0.132178 0 
vn 0.991226 -0.132178 0 
vn 0.991226 -0.132178 0 
vn 0.991226 -0.132178 0 
f 45//45 46//46 47//47 
f 47//47 48//48 45//45 
f 47//47 49//49 48//48 
o mesh793
v 0.000402541 -0.000570095 0.000542387 
v 0.000402541 -0.000570095 0.000555387 
v 0.000288424 -0.000570021 0.000555387 
v 0.000207538 -0.000569969 0.000542387 
v 0.00020754 -0.000569969 0.000555387 
vn -0.00129006 -0.999999 0 
vn -0.00129006 -0.999999 0 
vn -0.00129006 -0.999999 0 
vn -0.00129006 -0.999999 0 
vn -0.00129006 -0.999999 0 
f 50//50 51//51 52//52 
f 52//52 53//53 50//50 
f 52//52 54//54 53//53 
o mesh794
v 0.000472443 0.000989902 0.000542387 
v 0.000472443 0.000179917 0.000542387 
v 0.000472541 0.000179916 0.000372387 
v 0.000472516 0.000989909 0.000359387 
v 0.000472516 0.000179909 0.000359387 
vn 1 0 0 
vn 1 0 0 
vn 1 0 0 
vn 1 0 0 
vn 1 0 0 
f 55//55 56//56 57//57 
f 57//57 58//58 55//55 
f 57//57 59//59 58//58 
o mesh795
v 0.000472516 0.000989909 0.000268387 
v 0.000472516 0.000989909 0.000359387 
v 0.000472516 0.000179909 0.000359387 
v 0.000472516 0.000179909 0.000268387 
vn 1 0 0 
vn 1 0 0 
vn 1 0 0 
vn 1 0 0 
f 60//60 61//61 62//62 
f 62//62 63//63 60//60 
o mesh796
v 0.000472516 0.000989909 0.000268387 
v 0.000472516 0.000179909 0.000268387 
v 0.000472535 0.000179916 0.000230387 
v 0.000472535 0.000989905 0.000230387 
vn 1 0 0 
vn 1 0 0 
vn 1 0 0 
vn 1 0 0 
f 64//64 65//65 66//66 
f 66//66 67//67 64//64 
o mesh797
v 0.000502541 0.000179926 0.000372387 
v 0.000472541 0.000179916 0.000372387 
v 0.000472443 0.000179917 0.000542387 
v 0.00050254 0.000179841 0.000546135 
v 0.00212759 0.000179926 0.000542387 
v 0.00212759 0.000179926 0.000372387 
vn 0 1 0 
vn 0 1 0 
vn 0 1 0 
vn 0 1 0 
vn 0 1 0 
vn 0 1 0 
f 68//68 69//69 70//70 
f 68//68 71//71 72//72 
f 72//72 73//73 68//68 
f 70//70 71//71 68//68 
o mesh798
v 0.00212759 0.000179926 0.000372387 
v 0.00212759 0.000179926 0.000542387 
v 0.00152429 -8.2379e-05 0.000542387 
v 0.00152429 -8.23791e-05 0.000372387 
vn 0.398726 -0.91707 0 
vn 0.398726 -0.91707 0 
vn 0.398726 -0.91707 0 
vn 0.398726 -0.91707 0 
f 74//74 75//75 76//76 
f 76//76 77//77 74//74 
o mesh799
v 0.00152429 -5.73787e-05 0.000372387 
v 0.00152429 -8.23791e-05 0.000372387 
v 0.00152429 -8.2379e-05 0.000542387 
v 0.00152429 -5.73787e-05 0.000542387 
vn -1 0 0 
vn -1 0 0 
vn -1 0 0 
vn -1 0 0 
f 78//78 79//79 80//80 
f 80//80 81//81 78//78 
o mesh800
v 0.00116808 -0.000212252 0.000542387 
v 0.00116808 -0.000212252 0.000372387 
v 0.00152429 -5.73787e-05 0.000372387 
v 0.00152429 -5.73787e-05 0.000542387 
vn 0.398726 -0.91707 0 
vn 0.398726 -0.91707 0 
vn 0.398726 -0.91707 0 
vn 0.398726 -0.91707 0 
f 82//82 83//83 84//84 
f 84//84 85//85 82//82 
o mesh801
v 0.00050254 0.000179841 0.000546135 
v 0.00116808 -0.000212252 0.000542387 
v 0.00152429 -5.73787e-05 0.000542387 
v 0.000402541 -0.000570095 0.000542387 
v 0.00116808 -0.000237252 0.000542387 
v 0.00212759 0.000179926 0.000542387 
v 0.00152429 -8.2379e-05 0.000542387 
vn 0 0 1 
vn 0 0 1 
vn 0 0 1 
vn 0 0 1 
vn 0 0 1 
vn 0 0 1 
vn 0 0 1 
f 86//86 87//87 88//88 
f 89//89 90//90 87//87 
f 87//87 86//86 89//89 
f 88//88 91//91 86//86 
f 88//88 92//92 91//91 
o mesh802
v 0.00116808 -0.000237252 0.000542387 
v 0.00116808 -0.000237252 0.000372387 
v 0.00116808 -0.000212252 0.000372387 
v 0.00116808 -0.000212252 0.000542387 
vn 1 0 0 
vn 1 0 0 
vn 1 0 0 
vn 1 0 0 
f 93//93 94//94 95//95 
f 95//95 96//96 93//93 
o mesh803
v 0.000977541 -0.000320095 0.000372387 
v 0.000502541 0.000179926 0.000372387 
v 0.00116808 -0.000212252 0.000372387 
v 0.00116808 -0.000237252 0.000372387 
v 0.00212759 0.000179926 0.000372387 
v 0.00152429 -5.73787e-05 0.000372387 
v 0.00152429 -8.23791e-05 0.000372387 
v 0.000502541 -0.000320095 0.000372387 
vn 0 0 -1 
vn 0 0 -1 
vn 0 0 -1 
vn 0 0 -1 
vn 0 0 -1 
vn 0 0 -1 
vn 0 0 -1 
vn 0 0 -1 
f 97//97 98//98 99//99 
f 99//99 100//100 97//97 
f 98//98 101//101 102//102 
f 102//102 99//99 98//98 
f 101//101 103//103 102//102 
f 97//97 104//104 98//98 
o mesh804
v 0.00116808 -0.000237252 0.000542387 
v 0.000402541 -0.000570095 0.000542387 
v 0.000977541 -0.000320095 0.000372387 
v 0.000402562 -0.000570091 0.000359387 
v 0.000977516 -0.000320091 0.000359387 
v 0.00116808 -0.000237252 0.000372387 
vn 0.398726 -0.91707 0 
vn 0.398726 -0.91707 0 
vn 0.398726 -0.91707 0 
vn 0.398726 -0.91707 0 
vn 0.398726 -0.91707 0 
vn 0.398726 -0.91707 0 
f 105//105 106//106 107//107 
f 108//108 109//109 107//107 
f 107//107 106//106 108//108 
f 107//107 110//110 105//105 
o mesh805
v 0.000502541 -0.000320095 0.000372387 
v 0.000502516 -0.000320091 0.000359387 
v 0.000502516 0.000179909 0.000359387 
v 0.000502541 0.000179926 0.000372387 
vn 1 0 0 
vn 1 0 0 
vn 1 0 0 
vn 1 0 0 
f 111//111 112//112 113//113 
f 113//113 114//114 111//111 
o mesh806
v 0.000502516 -0.000320091 0.000268387 
v 0.000502516 0.000179909 0.000268387 
v 0.000502516 0.000179909 0.000359387 
v 0.000502516 -0.000320091 0.000359387 
vn 1 0 0 
vn 1 0 0 
vn 1 0 0 
vn 1 0 0 
f 115//115 116//116 117//117 
f 117//117 118//118 115//115 
o mesh807
v 0.000472535 0.000179916 0.000230387 
v 0.000472516 0.000179909 0.000268387 
v 0.000502516 0.000179909 0.000268387 
v 0.000502516 0.000179909 0.000359387 
v 0.000472516 0.000179909 0.000359387 
v 0.000472541 0.000179916 0.000372387 
v 0.000502541 0.000179926 0.000372387 
v 0.000502541 0.000179916 0.000230387 
vn 0 1 0 
vn 0 1 0 
vn 0 1 0 
vn 0 1 0 
vn 0 1 0 
vn 0 1 0 
vn 0 1 0 
vn 0 1 0 
f 119//119 120//120 121//121 
f 122//122 121//121 120//120 
f 120//120 123//123 122//122 
f 124//124 125//125 122//122 
f 122//122 123//123 124//124 
f 121//121 126//126 119//119 
o mesh808
v 0.000402562 -0.000570091 0.000359387 
v 0.000402537 -0.000570087 0.000281387 
v 0.000977491 -0.000320087 0.000281387 
v 0.000977516 -0.000320091 0.000359387 
vn 0.39878 -0.917047 0 
vn 0.39878 -0.917047 0 
vn 0.39878 -0.917047 0 
vn 0.39878 -0.917047 0 
f 127//127 128//128 129//129 
f 129//129 130//130 127//127 
o mesh809
v 0.000402516 -0.000570091 0.000268387 
v 0.000977516 -0.000320091 0.000268387 
v 0.000977491 -0.000320087 0.000281387 
v 0.000402537 -0.000570087 0.000281387 
vn 0.398726 -0.91707 0 
vn 0.398726 -0.91707 0 
vn 0.398726 -0.91707 0 
vn 0.398726 -0.91707 0 
f 131//131 132//132 133//133 
f 133//133 134//134 131//131 
o mesh810
v 0.000977516 -0.000320091 0.000268387 
v 0.000977534 -0.000320093 0.000230387 
v 0.000502541 -0.000320095 0.000230387 
v 0.000502516 -0.000320091 0.000359387 
v 0.000977516 -0.000320091 0.000359387 
v 0.000977491 -0.000320087 0.000281387 
v 0.000502541 -0.000320095 0.000372387 
v 0.000502516 -0.000320091 0.000268387 
v 0.000977541 -0.000320095 0.000372387 
vn 0 1 0 
vn 0 1 0 
vn 0 1 0 
vn 0 1 0 
vn 0 1 0 
vn 0 1 0 
vn 0 1 0 
vn 0 1 0 
vn 0 1 0 
f 135//135 136//136 137//137 
f 138//138 139//139 140//140 
f 139//139 138//138 141//141 
f 142//142 140//140 135//135 
f 141//141 143//143 139//139 
f 140//140 142//142 138//138 
f 137//137 142//142 135//135 
o mesh811
v 0.000502541 -0.000320095 0.000230387 
v 0.000502541 0.000179916 0.000230387 
v 0.000502516 0.000179909 0.000268387 
v 0.000502516 -0.000320091 0.000268387 
vn 1 0 0 
vn 1 0 0 
vn 1 0 0 
vn 1 0 0 
f 144//144 145//145 146//146 
f 146//146 147//147 144//144 
o mesh812
v 0.000502541 0.000179916 0.000230387 
v 0.000502541 -0.000320095 0.000230387 
v 0.000977534 -0.000320093 0.000230387 
v 0.00212758 0.000179927 0.000230387 
vn 0 0 1 
vn 0 0 1 
vn 0 0 1 
vn 0 0 1 
f 148//148 149//149 150//150 
f 150//150 151//151 148//148 
o mesh813
v 0.000977534 -0.000320093 0.000230387 
v 0.000402535 -0.000570095 0.000230387 
v 0.00040254 -0.000570093 6.03873e-05 
v 0.000977516 -0.000320091 0.000268387 
v 0.000402516 -0.000570091 0.000268387 
v 0.0021276 0.000179931 6.03873e-05 
v 0.00212758 0.000179927 0.000230387 
v 0.000402576 -0.000570095 4.73873e-05 
v 0.0021276 0.000179916 4.73873e-05 
vn 0.398726 -0.91707 0 
vn 0.398726 -0.91707 0 
vn 0.398726 -0.91707 0 
vn 0.398726 -0.91707 0 
vn 0.398726 -0.91707 0 
vn 0.398726 -0.91707 0 
vn 0.398726 -0.91707 0 
vn 0.398726 -0.91707 0 
vn 0.398726 -0.91707 0 
f 152//152 153//153 154//154 
f 155//155 156//156 153//153 
f 157//157 158//158 152//152 
f 153//153 152//152 155//155 
f 159//159 160//160 157//157 
f 152//152 159//159 157//157 
f 154//154 159//159 152//152 
o mesh814
v 0.000472535 0.000989905 0.000230387 
v 0.000472535 0.000179916 0.000230387 
v 0.00047254 0.000179929 6.03873e-05 
v 0.00047254 0.000989907 6.03873e-05 
vn 1 0 0 
vn 1 0 0 
vn 1 0 0 
vn 1 0 0 
f 161//161 162//162 163//163 
f 163//163 164//164 161//161 
o mesh815
v 0.0021276 0.000179931 6.03873e-05 
v 0.00047254 0.000179929 6.03873e-05 
v 0.000502541 0.000179916 0.000230387 
v 0.000472535 0.000179916 0.000230387 
v 0.0021276 0.000179916 4.73873e-05 
v 0.00047253 0.000179916 4.73873e-05 
v 0.00212758 0.000179927 0.000230387 
vn 0 1 0 
vn 0 1 0 
vn 0 1 0 
vn 0 1 0 
vn 0 1 0 
vn 0 1 0 
vn 0 1 0 
f 165//165 166//166 167//167 
f 166//166 168//168 167//167 
f 169//169 170//170 166//166 
f 166//166 165//165 169//169 
f 167//167 171//171 165//165 
o mesh816
v 0.00047253 0.000989905 4.73873e-05 
v 0.00047254 0.000989907 6.03873e-05 
v 0.00047254 0.000179929 6.03873e-05 
v 0.00047253 0.000179916 4.73873e-05 
vn 1 0 0 
vn 1 0 0 
vn 1 0 0 
vn 1 0 0 
f 172//172 173//173 174//174 
f 174//174 175//175 172//172 
o mesh817
v 0.0021276 0.000179901 -5.06127e-05 
v 0.000472508 0.000179901 -5.06127e-05 
v 0.00047253 0.000179916 4.73873e-05 
v 0.0021276 0.000179916 4.73873e-05 
vn 0 1 0 
vn 0 1 0 
vn 0 1 0 
vn 0 1 0 
f 176//176 177//177 178//178 
f 178//178 179//179 176//176 
o mesh818
v 0.000472508 0.000989901 -5.06127e-05 
v 0.00047253 0.000989905 4.73873e-05 
v 0.00047253 0.000179916 4.73873e-05 
v 0.000472508 0.000179901 -5.06127e-05 
vn 1 0 0 
vn 1 0 0 
vn 1 0 0 
vn 1 0 0 
f 180//180 181//181 182//182 
f 182//182 183//183 180//180 
o mesh819
v 0.000141558 0.000989901 4.73873e-05 
v 0.00047253 0.000989905 4.73873e-05 
v 0.000472508 0.000989901 -5.06127e-05 
v 0.000141558 0.000989901 -5.06127e-05 
vn 0 1 0 
vn 0 1 0 
vn 0 1 0 
vn 0 1 0 
f 184//184 185//185 186//186 
f 186//186 187//187 184//184 
o mesh820
v 0.000472508 0.000179901 -5.06127e-05 
v 0.0021276 0.000179901 -5.06127e-05 
v 0.0004026 -0.000570099 -5.06127e-05 
v 0.000141558 0.000989901 -5.06127e-05 
v 0.000472508 0.000989901 -5.06127e-05 
v 0.000141558 -0.000570099 -5.06127e-05 
vn 0 0 -1 
vn 0 0 -1 
vn 0 0 -1 
vn 0 0 -1 
vn 0 0 -1 
vn 0 0 -1 
f 188//188 189//189 190//190 
f 191//191 192//192 188//188 
f 188//188 193//193 191//191 
f 190//190 193//193 188//188 
o mesh821
v 0.000141558 -0.000570099 -5.06127e-05 
v 0.0004026 -0.000570099 -5.06127e-05 
v 0.000402576 -0.000570095 4.73873e-05 
v 0.000141558 -0.000570093 4.73873e-05 
vn 0 -1 0 
vn 0 -1 0 
vn 0 -1 0 
vn 0 -1 0 
f 194//194 195//195 196//196 
f 196//196 197//197 194//194 
o mesh822
v 0.0021276 0.000179916 4.73873e-05 
v 0.000402576 -0.000570095 4.73873e-05 
v 0.0004026 -0.000570099 -5.06127e-05 
v 0.0021276 0.000179901 -5.06127e-05 
vn 0.398726 -0.91707 0 
vn 0.398726 -0.91707 0 
vn 0.398726 -0.91707 0 
vn 0.398726 -0.91707 0 
f 198//198 199//199 200//200 
f 200//200 201//201 198//198 
o mesh823
v 0.000141558 0.000989901 -5.06127e-05 
v 0.000141558 -0.000570099 -5.06127e-05 
v 0.000141558 -0.000570093 4.73873e-05 
v 0.000141558 0.000989901 4.73873e-05 
vn -1 0 0 
vn -1 0 0 
vn -1 0 0 
vn -1 0 0 
f 202//202 203//203 204//204 
f 204//204 205//205 202//202 
o mesh824
v 0.0001066 -0.000570091 4.73873e-05 
v 0.0001066 0.000989909 4.73873e-05 
v 0.000141558 0.000989901 4.73873e-05 
v 0.000141558 -0.000570093 4.73873e-05 
vn 0 0 -1 
vn 0 0 -1 
vn 0 0 -1 
vn 0 0 -1 
f 206//206 207//207 208//208 
f 208//208 209//209 206//206 
o mesh825
v 0.0001066 0.000989909 6.03873e-05 
v 0.0001066 0.000989909 4.73873e-05 
v 0.0001066 -0.000570091 4.73873e-05 
v 0.0001066 -0.000570095 6.03873e-05 
vn -1 0 0 
vn -1 0 0 
vn -1 0 0 
vn -1 0 0 
f 210//210 211//211 212//212 
f 212//212 213//213 210//210 
o mesh826
v 0.0001066 -0.000570095 6.03873e-05 
v 7.15788e-05 -0.000570095 6.03873e-05 
v 7.15788e-05 0.000989905 6.03873e-05 
v 0.0001066 0.000989909 6.03873e-05 
vn 0 0 -1 
vn 0 0 -1 
vn 0 0 -1 
vn 0 0 -1 
f 214//214 215//215 216//216 
f 216//216 217//217 214//214 
o mesh827
v 7.15845e-05 -0.000570095 0.000230387 
v 7.15845e-05 0.000989905 0.000230387 
v 7.15788e-05 0.000989905 6.03873e-05 
v 7.15788e-05 -0.000570095 6.03873e-05 
vn -1 0 0 
vn -1 0 0 
vn -1 0 0 
vn -1 0 0 
f 218//218 219//219 220//220 
f 220//220 221//221 218//218 
o mesh828
v 0.000288424 -0.000570095 0.000782387 
v 0.000207541 -0.000570095 0.000782387 
v 0.000207541 -0.000570095 0.000671387 
v 0.000288424 -0.000570021 0.000555387 
v 0.000402541 -0.000570095 0.000782387 
v 0.000207541 -0.000570095 0.000646387 
v 0.000107541 -0.000570095 0.000646387 
v 0.00020754 -0.000569969 0.000555387 
v 0.000107541 -0.000570095 0.000671387 
v 0.000402541 -0.000570095 0.000555387 
vn 0 -1 0 
vn 0 -1 0 
vn 0 -1 0 
vn 0 -1 0 
vn 0 -1 0 
vn 0 -1 0 
vn 0 -1 0 
vn 0 -1 0 
vn 0 -1 0 
vn 0 -1 0 
f 222//222 223//223 224//224 
f 225//225 226//226 227//227 
f 228//228 227//227 224//224 
f 227//227 226//226 222//222 
f 227//227 229//229 225//225 
f 224//224 227//227 222//222 
f 224//224 230//230 228//228 
f 225//225 231//231 226//226 
o mesh829
v 0.000207541 2.99051e-05 0.000671387 
v 0.000107541 2.99051e-05 0.000671387 
v 0.000107541 -0.000570095 0.000671387 
v 0.000207541 -0.000570095 0.000671387 
vn 0 0 1 
vn 0 0 1 
vn 0 0 1 
vn 0 0 1 
f 232//232 233//233 234//234 
f 234//234 235//235 232//232 
o mesh830
v 0.000207541 2.99051e-05 0.000646387 
v 0.000207541 -0.000570095 0.000646387 
v 0.000107541 -0.000570095 0.000646387 
v 0.000107541 2.99051e-05 0.000646387 
vn 0 0 -1 
vn 0 0 -1 
vn 0 0 -1 
vn 0 0 -1 
f 236//236 237//237 238//238 
f 238//238 239//239 236//236 
o mesh831
v 0.000107541 2.99051e-05 0.000646387 
v 0.000107541 2.99051e-05 0.000671387 
v 0.000207541 2.99051e-05 0.000671387 
v 0.000207541 2.99051e-05 0.000646387 
vn 0 1 0 
vn 0 1 0 
vn 0 1 0 
vn 0 1 0 
f 240//240 241//241 242//242 
f 242//242 243//243 240//240 
o mesh832
v 0.000107541 2.99051e-05 0.000646387 
v 0.000107541 -0.000570095 0.000646387 
v 0.000107541 -0.000570095 0.000671387 
v 0.000107541 2.99051e-05 0.000671387 
vn -1 0 0 
vn -1 0 0 
vn -1 0 0 
vn -1 0 0 
f 244//244 245//245 246//246 
f 246//246 247//247 244//244 
o mesh833
v 7.15845e-05 -0.000570095 0.000230387 
v 7.15443e-05 2.99051e-05 0.000243387 
v 7.15443e-05 0.000389905 0.000243387 
v 7.15845e-05 0.000989905 0.000230387 
v 7.15902e-05 -0.000570095 0.000243387 
v 7.15902e-05 0.000989905 0.000243387 
vn -1 0 0 
vn -1 0 0 
vn -1 0 0 
vn -1 0 0 
vn -1 0 0 
vn -1 0 0 
f 248//248 249//249 250//250 
f 250//250 251//251 248//248 
f 248//248 252//252 249//249 
f 250//250 253//253 251//251 
o mesh834
v -2.84212e-05 0.000989905 0.000243387 
v 7.15902e-05 0.000989905 0.000243387 
v 7.15443e-05 0.000389905 0.000243387 
v -2.84212e-05 0.000389905 0.000243387 
vn 0 0 -1 
vn 0 0 -1 
vn 0 0 -1 
vn 0 0 -1 
f 254//254 255//255 256//256 
f 256//256 257//257 254//254 
o mesh835
v -2.84212e-05 0.000389905 0.000268387 
v -2.84212e-05 0.000989905 0.000268387 
v -2.84212e-05 0.000989905 0.000243387 
v -2.84212e-05 0.000389905 0.000243387 
vn -1 0 0 
vn -1 0 0 
vn -1 0 0 
vn -1 0 0 
f 258//258 259//259 260//260 
f 260//260 261//261 258//258 
o mesh836
v -2.84212e-05 0.000389905 0.000243387 
v 7.15443e-05 0.000389905 0.000243387 
v 7.15195e-05 0.000389905 0.000268387 
v -2.84212e-05 0.000389905 0.000268387 
vn 0 -1 0 
vn 0 -1 0 
vn 0 -1 0 
vn 0 -1 0 
f 262//262 263//263 264//264 
f 264//264 265//265 262//262 
o mesh837
v -2.84212e-05 0.000989905 0.000268387 
v -2.84212e-05 0.000389905 0.000268387 
v 7.15195e-05 0.000389905 0.000268387 
v 7.15406e-05 0.000989905 0.000268387 
vn 0 0 1 
vn 0 0 1 
vn 0 0 1 
vn 0 0 1 
f 266//266 267//267 268//268 
f 268//268 269//269 266//266 
o mesh838
v 7.15195e-05 2.99051e-05 0.000268387 
v 7.15195e-05 0.000389905 0.000268387 
v 7.15443e-05 0.000389905 0.000243387 
v 7.15443e-05 2.99051e-05 0.000243387 
vn -1 0 0 
vn -1 0 0 
vn -1 0 0 
vn -1 0 0 
f 270//270 271//271 272//272 
f 272//272 273//273 270//270 
o mesh839
v -2.84212e-05 -0.000570095 0.000243387 
v -2.84212e-05 2.99051e-05 0.000243387 
v 7.15443e-05 2.99051e-05 0.000243387 
v 7.15902e-05 -0.000570095 0.000243387 
vn 0 0 -1 
vn 0 0 -1 
vn 0 0 -1 
vn 0 0 -1 
f 274//274 275//275 276//276 
f 276//276 277//277 274//274 
o mesh840
v -2.84212e-05 2.99051e-05 0.000243387 
v -2.84212e-05 2.99051e-05 0.000268387 
v 7.15195e-05 2.99051e-05 0.000268387 
v 7.15443e-05 2.99051e-05 0.000243387 
vn 0 1 0 
vn 0 1 0 
vn 0 1 0 
vn 0 1 0 
f 278//278 279//279 280//280 
f 280//280 281//281 278//278 
o mesh841
v -2.84212e-05 -0.000570095 0.000268387 
v 7.15406e-05 -0.000570092 0.000268387 
v 7.15195e-05 2.99051e-05 0.000268387 
v -2.84212e-05 2.99051e-05 0.000268387 
vn 0 0 1 
vn 0 0 1 
vn 0 0 1 
vn 0 0 1 
f 282//282 283//283 284//284 
f 284//284 285//285 282//282 
o mesh842
v -2.84212e-05 2.99051e-05 0.000268387 
v -2.84212e-05 2.99051e-05 0.000243387 
v -2.84212e-05 -0.000570095 0.000243387 
v -2.84212e-05 -0.000570095 0.000268387 
vn -1 0 0 
vn -1 0 0 
vn -1 0 0 
vn -1 0 0 
f 286//286 287//287 288//288 
f 288//288 289//289 286//286 
o mesh843
v 7.15406e-05 -0.000570087 0.000359387 
v 7.15406e-05 0.000989913 0.000359387 
v 7.15195e-05 0.000389905 0.000268387 
v 7.15406e-05 0.000989905 0.000268387 
v 7.15195e-05 2.99051e-05 0.000268387 
v 7.15406e-05 -0.000570092 0.000268387 
vn -1 0 0 
vn -1 0 0 
vn -1 0 0 
vn -1 0 0 
vn -1 0 0 
vn -1 0 0 
f 290//290 291//291 292//292 
f 291//291 293//293 292//292 
f 292//292 294//294 290//290 
f 294//294 295//295 290//290 
o mesh844
v 0.0001066 -0.000570095 6.03873e-05 
v 0.000402516 -0.000570091 0.000268387 
v 0.000402537 -0.000570087 0.000281387 
v 0.00040254 -0.000570093 6.03873e-05 
v 0.000402535 -0.000570095 0.000230387 
v 0.000141558 -0.000570093 4.73873e-05 
v 7.15845e-05 -0.000570095 0.000230387 
v 7.15788e-05 -0.000570095 6.03873e-05 
v 0.000402562 -0.000570091 0.000359387 
v 0.000207522 -0.000570095 0.000359387 
v 0.000402541 -0.000570095 0.000542387 
v 0.000207538 -0.000569969 0.000542387 
v 0.00020753 -0.000570095 0.000372387 
v 0.0001066 -0.000570091 4.73873e-05 
v 7.15902e-05 -0.000570095 0.000243387 
v 0.000402576 -0.000570095 4.73873e-05 
v -2.84212e-05 -0.000570095 0.000243387 
v 7.15406e-05 -0.000570092 0.000268387 
v 7.15406e-05 -0.000570087 0.000359387 
v -2.84212e-05 -0.000570095 0.000268387 
vn 0 -1 0 
vn 0 -1 0 
vn 0 -1 0 
vn 0 -1 0 
vn 0 -1 0 
vn 0 -1 0 
vn 0 -1 0 
vn 0 -1 0 
vn 0 -1 0 
vn 0 -1 0 
vn 0 -1 0 
vn 0 -1 0 
vn 0 -1 0 
vn 0 -1 0 
vn 0 -1 0 
vn 0 -1 0 
vn 0 -1 0 
vn 0 -1 0 
vn 0 -1 0 
vn 0 -1 0 
f 296//296 297//297 298//298 
f 296//296 299//299 300//300 
f 299//299 296//296 301//301 
f 302//302 303//303 296//296 
f 302//302 304//304 305//305 
f 306//306 307//307 308//308 
f 300//300 297//297 296//296 
f 296//296 309//309 301//301 
f 305//305 310//310 302//302 
f 308//308 304//304 306//306 
f 301//301 311//311 299//299 
f 308//308 305//305 304//304 
f 312//312 310//310 313//313 
f 305//305 314//314 313//313 
f 296//296 304//304 302//302 
f 313//313 310//310 305//305 
f 313//313 315//315 312//312 
f 298//298 304//304 296//296 
o mesh845
v 0.00020753 -0.000570095 0.000372387 
v 0.00020753 0.000989905 0.000372387 
v 0.000207522 0.000989905 0.000359387 
v 0.000207522 -0.000570095 0.000359387 
vn -1 0 0 
vn -1 0 0 
vn -1 0 0 
vn -1 0 0 
f 316//316 317//317 318//318 
f 318//318 319//319 316//316 
o mesh846
v 7.15406e-05 -0.000570087 0.000359387 
v 0.000207522 -0.000570095 0.000359387 
v 0.000207522 0.000989905 0.000359387 
v 7.15406e-05 0.000989913 0.000359387 
vn 0 0 1 
vn 0 0 1 
vn 0 0 1 
vn 0 0 1 
f 320//320 321//321 322//322 
f 322//322 323//323 320//320 
o mesh847
v 0.000141558 0.000989901 4.73873e-05 
v 0.000472535 0.000989905 0.000230387 
v 0.00047254 0.000989907 6.03873e-05 
v 0.000207522 0.000989905 0.000359387 
v 0.000460377 0.000989848 0.000646387 
v 0.000460378 0.000989848 0.000633387 
v 0.000460378 0.000989877 0.000684387 
v 0.000460378 0.000989877 0.000671387 
v 7.15845e-05 0.000989905 0.000230387 
v 0.000472443 0.000989902 0.000542387 
v 0.000472516 0.000989909 0.000359387 
v 0.0001066 0.000989909 6.03873e-05 
v 0.000472516 0.000989909 0.000268387 
v 7.15902e-05 0.000989905 0.000243387 
v 0.00020753 0.000989905 0.000372387 
v 0.000207541 0.000989905 0.000646387 
v 0.000460378 0.000989877 0.000555387 
v 0.00047253 0.000989905 4.73873e-05 
v 0.000472541 0.000989905 0.000671387 
v 0.000379174 0.000989905 0.000782387 
v 0.000472443 0.000989847 0.000555387 
v 0.000472541 0.000989905 0.000684387 
v 0.000207541 0.000989905 0.000671387 
v 0.000107541 0.000989905 0.000671387 
v 0.0001066 0.000989909 4.73873e-05 
v 0.000460378 0.000989848 0.000782387 
v 7.15406e-05 0.000989905 0.000268387 
v -2.84212e-05 0.000989905 0.000243387 
v -2.84212e-05 0.000989905 0.000268387 
v 0.000107541 0.000989905 0.000646387 
v 7.15788e-05 0.000989905 6.03873e-05 
v 0.000207541 0.000989905 0.000782387 
v 7.15406e-05 0.000989913 0.000359387 
vn 0 1 0 
vn 0 1 0 
vn 0 1 0 
vn 0 1 0 
vn 0 1 0 
vn 0 1 0 
vn 0 1 0 
vn 0 1 0 
vn 0 1 0 
vn 0 1 0 
vn 0 1 0 
vn 0 1 0 
vn 0 1 0 
vn 0 1 0 
vn 0 1 0 
vn 0 1 0 
vn 0 1 0 
vn 0 1 0 
vn 0 1 0 
vn 0 1 0 
vn 0 1 0 
vn 0 1 0 
vn 0 1 0 
vn 0 1 0 
vn 0 1 0 
vn 0 1 0 
vn 0 1 0 
vn 0 1 0 
vn 0 1 0 
vn 0 1 0 
vn 0 1 0 
vn 0 1 0 
vn 0 1 0 
f 324//324 325//325 326//326 
f 327//327 328//328 329//329 
f 327//327 330//330 331//331 
f 332//332 333//333 334//334 
f 335//335 336//336 324//324 
f 324//324 336//336 325//325 
f 331//331 328//328 327//327 
f 332//332 337//337 327//327 
f 330//330 338//338 339//339 
f 334//334 335//335 332//332 
f 333//333 332//332 340//340 
f 326//326 341//341 324//324 
f 327//327 340//340 332//332 
f 342//342 331//331 330//330 
f 339//339 343//343 330//330 
f 340//340 344//344 333//333 
f 335//335 334//334 336//336 
f 330//330 345//345 342//342 
f 330//330 327//327 338//338 
f 343//343 339//339 346//346 
f 347//347 346//346 339//339 
f 324//324 348//348 335//335 
f 343//343 349//349 330//330 
f 327//327 337//337 350//350 
f 351//351 352//352 350//350 
f 339//339 353//353 347//347 
f 329//329 340//340 327//327 
f 350//350 337//337 351//351 
f 335//335 354//354 332//332 
f 346//346 355//355 343//343 
f 350//350 356//356 327//327 
o mesh848
v 0.000207541 2.99051e-05 0.000646387 
v 0.000207541 2.99051e-05 0.000671387 
v 0.000207541 0.000389905 0.000671387 
v 0.000207541 0.000989905 0.000782387 
v 0.000207541 0.000989905 0.000671387 
v 0.00020753 0.000989905 0.000372387 
v 0.000207541 0.000389905 0.000646387 
v 0.000207541 -0.000570095 0.000782387 
v 0.00020754 -0.000569969 0.000555387 
v 0.000207541 -0.000570095 0.000646387 
v 0.00020753 -0.000570095 0.000372387 
v 0.000207538 -0.000569969 0.000542387 
v 0.000207541 0.000989905 0.000646387 
v 0.000207541 -0.000570095 0.000671387 
vn -1 0 0 
vn -1 0 0 
vn -1 0 0 
vn -1 0 0 
vn -1 0 0 
vn -1 0 0 
vn -1 0 0 
vn -1 0 0 
vn -1 0 0 
vn -1 0 0 
vn -1 0 0 
vn -1 0 0 
vn -1 0 0 
vn -1 0 0 
f 357//357 358//358 359//359 
f 360//360 361//361 359//359 
f 362//362 357//357 363//363 
f 359//359 358//358 360//360 
f 364//364 360//360 358//358 
f 359//359 363//363 357//357 
f 365//365 366//366 357//357 
f 362//362 367//367 368//368 
f 363//363 369//369 362//362 
f 368//368 365//365 362//362 
f 357//357 362//362 365//365 
f 358//358 370//370 364//364 
o mesh849
v 0.000107541 0.000989905 0.000671387 
v 0.000107541 0.000389905 0.000671387 
v 0.000207541 0.000389905 0.000671387 
v 0.000207541 0.000989905 0.000671387 
vn 0 0 1 
vn 0 0 1 
vn 0 0 1 
vn 0 0 1 
f 371//371 372//372 373//373 
f 373//373 374//374 371//371 
o mesh850
v 0.000207541 0.000389905 0.000646387 
v 0.000107541 0.000389905 0.000646387 
v 0.000107541 0.000989905 0.000646387 
v 0.000207541 0.000989905 0.000646387 
vn 0 0 -1 
vn 0 0 -1 
vn 0 0 -1 
vn 0 0 -1 
f 375//375 376//376 377//377 
f 377//377 378//378 375//375 
o mesh851
v 0.000107541 0.000389905 0.000646387 
v 0.000207541 0.000389905 0.000646387 
v 0.000207541 0.000389905 0.000671387 
v 0.000107541 0.000389905 0.000671387 
vn 0 -1 0 
vn 0 -1 0 
vn 0 -1 0 
vn 0 -1 0 
f 379//379 380//380 381//381 
f 381//381 382//382 379//379 
o mesh852
v 0.000107541 0.000989905 0.000646387 
v 0.000107541 0.000389905 0.000646387 
v 0.000107541 0.000389905 0.000671387 
v 0.000107541 0.000989905 0.000671387 
vn -1 0 0 
vn -1 0 0 
vn -1 0 0 
vn -1 0 0 
f 383//383 384//384 385//385 
f 385//385 386//386 383//383 
