# OBJ generated by ONSHAPE BY PTC INC, 1.218 Units = meters
mtllib transmission_right_link_2.mtl
g transmission_right_link_2
usemtl 0.301961_0.301961_0.301961_0.000000_0.000000
o mesh759
v 7.54107e-06 -0.000570095 0.000782387 
v 7.54107e-06 0.000989905 0.000782387 
v -0.000222409 0.000989905 0.000782387 
v -0.000222409 -0.000570095 0.000782387 
vn 0 0 1 
vn 0 0 1 
vn 0 0 1 
vn 0 0 1 
f 1//1 2//2 3//3 
f 3//3 4//4 1//1 
o mesh760
v -0.000222409 -0.000570095 0.000782387 
v -0.000222409 0.000989905 0.000782387 
v -0.000222459 0.000389905 0.000671387 
v -0.000222459 2.99051e-05 0.000671387 
v -0.000222409 0.000989905 0.000671387 
v -0.000222409 -0.000570095 0.000671387 
vn -1 0 0 
vn -1 0 0 
vn -1 0 0 
vn -1 0 0 
vn -1 0 0 
vn -1 0 0 
f 5//5 6//6 7//7 
f 7//7 8//8 5//5 
f 6//6 9//9 7//7 
f 8//8 10//10 5//5 
o mesh761
v -0.000292459 0.000989905 0.000671387 
v -0.000292459 0.000389905 0.000671387 
v -0.000222459 0.000389905 0.000671387 
v -0.000222409 0.000989905 0.000671387 
vn 0 0 1 
vn 0 0 1 
vn 0 0 1 
vn 0 0 1 
f 11//11 12//12 13//13 
f 13//13 14//14 11//11 
o mesh762
v -0.000292459 0.000389905 0.000646387 
v -0.000222459 0.000389905 0.000646387 
v -0.000222459 0.000389905 0.000671387 
v -0.000292459 0.000389905 0.000671387 
vn 0 -1 0 
vn 0 -1 0 
vn 0 -1 0 
vn 0 -1 0 
f 15//15 16//16 17//17 
f 17//17 18//18 15//15 
o mesh763
v -0.000292459 0.000389905 0.000646387 
v -0.000292459 0.000389905 0.000671387 
v -0.000292459 0.000989905 0.000671387 
v -0.000292459 0.000989905 0.000646387 
vn -1 0 0 
vn -1 0 0 
vn -1 0 0 
vn -1 0 0 
f 19//19 20//20 21//21 
f 21//21 22//22 19//19 
o mesh764
v -0.000292459 0.000989905 0.000646387 
v -0.000222409 0.000989905 0.000646387 
v -0.000222459 0.000389905 0.000646387 
v -0.000292459 0.000389905 0.000646387 
vn 0 0 -1 
vn 0 0 -1 
vn 0 0 -1 
vn 0 0 -1 
f 23//23 24//24 25//25 
f 25//25 26//26 23//23 
o mesh765
v -0.000222459 0.000389905 0.000671387 
v -0.000222459 0.000389905 0.000646387 
v -0.000222459 2.99051e-05 0.000646387 
v -0.000222459 2.99051e-05 0.000671387 
vn -1 0 0 
vn -1 0 0 
vn -1 0 0 
vn -1 0 0 
f 27//27 28//28 29//29 
f 29//29 30//30 27//27 
o mesh766
v -0.000292459 -0.000570095 0.000671387 
v -0.000222409 -0.000570095 0.000671387 
v -0.000222459 2.99051e-05 0.000671387 
v -0.000292459 2.99051e-05 0.000671387 
vn 0 0 1 
vn 0 0 1 
vn 0 0 1 
vn 0 0 1 
f 31//31 32//32 33//33 
f 33//33 34//34 31//31 
o mesh767
v -0.000292459 2.99051e-05 0.000646387 
v -0.000292459 2.99051e-05 0.000671387 
v -0.000222459 2.99051e-05 0.000671387 
v -0.000222459 2.99051e-05 0.000646387 
vn 0 1 0 
vn 0 1 0 
vn 0 1 0 
vn 0 1 0 
f 35//35 36//36 37//37 
f 37//37 38//38 35//35 
o mesh768
v -0.000292459 -0.000570095 0.000646387 
v -0.000292459 2.99051e-05 0.000646387 
v -0.000222459 2.99051e-05 0.000646387 
v -0.000222409 -0.000570095 0.000646387 
vn 0 0 -1 
vn 0 0 -1 
vn 0 0 -1 
vn 0 0 -1 
f 39//39 40//40 41//41 
f 41//41 42//42 39//39 
o mesh769
v -0.000292459 2.99051e-05 0.000646387 
v -0.000292459 -0.000570095 0.000646387 
v -0.000292459 -0.000570095 0.000671387 
v -0.000292459 2.99051e-05 0.000671387 
vn -1 0 0 
vn -1 0 0 
vn -1 0 0 
vn -1 0 0 
f 43//43 44//44 45//45 
f 45//45 46//46 43//43 
o mesh770
v -0.000222409 -0.000570095 0.000555387 
v -0.000222459 2.99051e-05 0.000646387 
v -0.000222459 0.000389905 0.000646387 
v -0.000222409 0.000989905 0.000555387 
v -0.000222409 -0.000570095 0.000646387 
v -0.000222409 0.000989905 0.000646387 
vn -1 0 0 
vn -1 0 0 
vn -1 0 0 
vn -1 0 0 
vn -1 0 0 
vn -1 0 0 
f 47//47 48//48 49//49 
f 49//49 50//50 47//47 
f 47//47 51//51 48//48 
f 49//49 52//52 50//50 
o mesh771
v 7.54107e-06 -0.000570095 0.000555387 
v -0.000222409 -0.000570095 0.000555387 
v -0.000222409 0.000989905 0.000555387 
v 7.54107e-06 0.000989905 0.000555387 
vn 0 0 -1 
vn 0 0 -1 
vn 0 0 -1 
vn 0 0 -1 
f 53//53 54//54 55//55 
f 55//55 56//56 53//53 
o mesh772
v -0.000292459 -0.000570095 0.000671387 
v -0.000292459 -0.000570095 0.000646387 
v -0.000222409 -0.000570095 0.000646387 
v 7.54107e-06 -0.000570095 0.000671387 
v -0.000222409 -0.000570095 0.000671387 
v 7.54107e-06 -0.000570095 0.000782387 
v -0.000222409 -0.000570095 0.000782387 
v 0.000107541 -0.000570095 0.000671387 
v 7.54107e-06 -0.000570095 0.000646387 
v -0.000222409 -0.000570095 0.000555387 
v 7.54107e-06 -0.000570095 0.000555387 
v 0.000107541 -0.000570095 0.000646387 
vn 0 -1 0 
vn 0 -1 0 
vn 0 -1 0 
vn 0 -1 0 
vn 0 -1 0 
vn 0 -1 0 
vn 0 -1 0 
vn 0 -1 0 
vn 0 -1 0 
vn 0 -1 0 
vn 0 -1 0 
vn 0 -1 0 
f 57//57 58//58 59//59 
f 59//59 60//60 61//61 
f 59//59 61//61 57//57 
f 60//60 62//62 63//63 
f 64//64 60//60 65//65 
f 66//66 67//67 65//65 
f 63//63 61//61 60//60 
f 65//65 60//60 66//66 
f 65//65 68//68 64//64 
f 59//59 66//66 60//60 
o mesh773
v 0.000107541 2.99051e-05 0.000646387 
v 0.000107541 -0.000570095 0.000646387 
v 7.54107e-06 -0.000570095 0.000646387 
v 7.54107e-06 2.99051e-05 0.000646387 
vn 0 0 -1 
vn 0 0 -1 
vn 0 0 -1 
vn 0 0 -1 
f 69//69 70//70 71//71 
f 71//71 72//72 69//69 
o mesh774
v 0.000107541 2.99051e-05 0.000671387 
v 7.54107e-06 2.99051e-05 0.000671387 
v 7.54107e-06 -0.000570095 0.000671387 
v 0.000107541 -0.000570095 0.000671387 
vn 0 0 1 
vn 0 0 1 
vn 0 0 1 
vn 0 0 1 
f 73//73 74//74 75//75 
f 75//75 76//76 73//73 
o mesh775
v 0.000107541 2.99051e-05 0.000671387 
v 0.000107541 2.99051e-05 0.000646387 
v 7.54107e-06 2.99051e-05 0.000646387 
v 7.54107e-06 2.99051e-05 0.000671387 
vn 0 1 0 
vn 0 1 0 
vn 0 1 0 
vn 0 1 0 
f 77//77 78//78 79//79 
f 79//79 80//80 77//77 
o mesh776
v 0.000107541 2.99051e-05 0.000671387 
v 0.000107541 -0.000570095 0.000671387 
v 0.000107541 -0.000570095 0.000646387 
v 0.000107541 2.99051e-05 0.000646387 
vn 1 0 0 
vn 1 0 0 
vn 1 0 0 
vn 1 0 0 
f 81//81 82//82 83//83 
f 83//83 84//84 81//81 
o mesh777
v -0.000222409 0.000989905 0.000555387 
v 7.54107e-06 0.000989905 0.000671387 
v 7.54107e-06 0.000989905 0.000646387 
v 0.000107541 0.000989905 0.000671387 
v 0.000107541 0.000989905 0.000646387 
v 7.54107e-06 0.000989905 0.000782387 
v -0.000222409 0.000989905 0.000646387 
v -0.000222409 0.000989905 0.000671387 
v -0.000292459 0.000989905 0.000646387 
v -0.000292459 0.000989905 0.000671387 
v 7.54107e-06 0.000989905 0.000555387 
v -0.000222409 0.000989905 0.000782387 
vn 0 1 0 
vn 0 1 0 
vn 0 1 0 
vn 0 1 0 
vn 0 1 0 
vn 0 1 0 
vn 0 1 0 
vn 0 1 0 
vn 0 1 0 
vn 0 1 0 
vn 0 1 0 
vn 0 1 0 
f 85//85 86//86 87//87 
f 88//88 89//89 87//87 
f 90//90 91//91 92//92 
f 93//93 94//94 92//92 
f 87//87 86//86 88//88 
f 86//86 85//85 91//91 
f 92//92 91//91 93//93 
f 91//91 90//90 86//86 
f 87//87 95//95 85//85 
f 92//92 96//96 90//90 
o mesh778
v 7.54107e-06 0.000989905 0.000782387 
v 7.54107e-06 2.99051e-05 0.000671387 
v 7.54107e-06 0.000389905 0.000671387 
v 7.54107e-06 0.000389905 0.000646387 
v 7.54107e-06 2.99051e-05 0.000646387 
v 7.54107e-06 0.000989905 0.000555387 
v 7.54107e-06 0.000989905 0.000646387 
v 7.54107e-06 -0.000570095 0.000555387 
v 7.54107e-06 0.000989905 0.000671387 
v 7.54107e-06 -0.000570095 0.000782387 
v 7.54107e-06 -0.000570095 0.000671387 
v 7.54107e-06 -0.000570095 0.000646387 
vn 1 0 0 
vn 1 0 0 
vn 1 0 0 
vn 1 0 0 
vn 1 0 0 
vn 1 0 0 
vn 1 0 0 
vn 1 0 0 
vn 1 0 0 
vn 1 0 0 
vn 1 0 0 
vn 1 0 0 
f 97//97 98//98 99//99 
f 100//100 99//99 98//98 
f 98//98 101//101 100//100 
f 102//102 103//103 100//100 
f 104//104 102//102 101//101 
f 100//100 101//101 102//102 
f 99//99 105//105 97//97 
f 106//106 107//107 98//98 
f 98//98 97//97 106//106 
f 101//101 108//108 104//104 
o mesh779
v 0.000107541 0.000989905 0.000671387 
v 7.54107e-06 0.000989905 0.000671387 
v 7.54107e-06 0.000389905 0.000671387 
v 0.000107541 0.000389905 0.000671387 
vn 0 0 1 
vn 0 0 1 
vn 0 0 1 
vn 0 0 1 
f 109//109 110//110 111//111 
f 111//111 112//112 109//109 
o mesh780
v 7.54107e-06 0.000389905 0.000646387 
v 7.54107e-06 0.000989905 0.000646387 
v 0.000107541 0.000989905 0.000646387 
v 0.000107541 0.000389905 0.000646387 
vn 0 0 -1 
vn 0 0 -1 
vn 0 0 -1 
vn 0 0 -1 
f 113//113 114//114 115//115 
f 115//115 116//116 113//113 
o mesh781
v 0.000107541 0.000989905 0.000671387 
v 0.000107541 0.000389905 0.000671387 
v 0.000107541 0.000389905 0.000646387 
v 0.000107541 0.000989905 0.000646387 
vn 1 0 0 
vn 1 0 0 
vn 1 0 0 
vn 1 0 0 
f 117//117 118//118 119//119 
f 119//119 120//120 117//117 
o mesh782
v 0.000107541 0.000389905 0.000646387 
v 0.000107541 0.000389905 0.000671387 
v 7.54107e-06 0.000389905 0.000671387 
v 7.54107e-06 0.000389905 0.000646387 
vn 0 -1 0 
vn 0 -1 0 
vn 0 -1 0 
vn 0 -1 0 
f 121//121 122//122 123//123 
f 123//123 124//124 121//121 
