# OBJ generated by ONSHAPE BY PTC INC, 1.216 Units = meters
mtllib transmission_link_1.mtl
g transmission_link_1
usemtl 0.917647_0.917647_0.917647_0.000000_0.000000
o mesh699
v -0.00259996 -0.000335 0.000227 
v -0.00259996 -0.000335 0 
v -0.00259996 -0.00098 0 
v -0.00259996 -0.00098 0.000227 
vn -1 0 0 
vn -1 0 0 
vn -1 0 0 
vn -1 0 0 
f 1//1 2//2 3//3 
f 3//3 4//4 1//1 
o mesh700
v -0.00254496 -0.000335 0 
v -0.00259996 -0.000335 0 
v -0.00259996 -0.000335 0.000227 
v -0.00254496 -0.000335 0.000227 
vn 0 1 0 
vn 0 1 0 
vn 0 1 0 
vn 0 1 0 
f 5//5 6//6 7//7 
f 7//7 8//8 5//5 
o mesh701
v -0.00254496 -0.000335 0 
v -0.00254496 -0.000335 0.000227 
v -0.00254496 -6.5e-05 0.000227 
v -0.00254496 -6.5e-05 0 
vn -1 0 0 
vn -1 0 0 
vn -1 0 0 
vn -1 0 0 
f 9//9 10//10 11//11 
f 11//11 12//12 9//9 
o mesh702
v -0.00254496 -6.5e-05 0 
v -0.00254496 -6.5e-05 0.000227 
v -0.00259996 -6.5e-05 0.000227 
v -0.00259996 -6.5e-05 0 
vn 0 -1 0 
vn 0 -1 0 
vn 0 -1 0 
vn 0 -1 0 
f 13//13 14//14 15//15 
f 15//15 16//16 13//13 
o mesh703
v -0.00259996 -6.5e-05 0 
v -0.00259996 -6.5e-05 0.000227 
v -0.00259996 0.00058 0.000227 
v -0.00259996 0.00058 0 
vn -1 0 0 
vn -1 0 0 
vn -1 0 0 
vn -1 0 0 
f 17//17 18//18 19//19 
f 19//19 20//20 17//17 
o mesh704
v -0.00259996 -0.00098 0.000227 
v -0.00205026 -0.00098 0.000111 
v -0.00205026 -0.00098 0.000136 
v -0.00198021 -0.00098 0.000111 
v -0.00198021 -0.00098 0.000136 
v -0.00259996 -0.00098 0 
v -0.00205026 -0.00098 0 
v -0.00205026 -0.00098 0.000227 
vn 0 -1 0 
vn 0 -1 0 
vn 0 -1 0 
vn 0 -1 0 
vn 0 -1 0 
vn 0 -1 0 
vn 0 -1 0 
vn 0 -1 0 
f 21//21 22//22 23//23 
f 24//24 25//25 23//23 
f 23//23 22//22 24//24 
f 26//26 27//27 22//22 
f 22//22 21//21 26//26 
f 23//23 28//28 21//21 
o mesh705
v -0.00198021 -0.00038 0.000111 
v -0.00198021 -0.00098 0.000111 
v -0.00205026 -0.00098 0.000111 
v -0.00205026 -0.00038 0.000111 
vn 0 0 -1 
vn 0 0 -1 
vn 0 0 -1 
vn 0 0 -1 
f 29//29 30//30 31//31 
f 31//31 32//32 29//29 
o mesh706
v -0.00198021 -0.00038 0.000136 
v -0.00205026 -0.00038 0.000136 
v -0.00205026 -0.00098 0.000136 
v -0.00198021 -0.00098 0.000136 
vn 0 0 1 
vn 0 0 1 
vn 0 0 1 
vn 0 0 1 
f 33//33 34//34 35//35 
f 35//35 36//36 33//33 
o mesh707
v -0.00198021 -0.00038 0.000136 
v -0.00198021 -0.00038 0.000111 
v -0.00205026 -0.00038 0.000111 
v -0.00205026 -0.00038 0.000136 
vn 0 1 0 
vn 0 1 0 
vn 0 1 0 
vn 0 1 0 
f 37//37 38//38 39//39 
f 39//39 40//40 37//37 
o mesh708
v -0.00198021 -0.00038 0.000111 
v -0.00198021 -0.00038 0.000136 
v -0.00198021 -0.00098 0.000136 
v -0.00198021 -0.00098 0.000111 
vn 1 0 0 
vn 1 0 0 
vn 1 0 0 
vn 1 0 0 
f 41//41 42//42 43//43 
f 43//43 44//44 41//41 
o mesh709
v -0.00205026 -0.00038 0.000111 
v -0.00205026 -2e-05 0.000111 
v -0.00205026 -2e-05 0.000136 
v -0.00205026 0.00058 0 
v -0.00205026 0.00058 0.000111 
v -0.00205026 -0.00098 0 
v -0.00205026 -0.00038 0.000136 
v -0.00205026 -0.00098 0.000227 
v -0.00205026 -0.00098 0.000136 
v -0.00205026 0.00058 0.000227 
v -0.00205026 -0.00098 0.000111 
v -0.00205026 0.00058 0.000136 
vn 1 0 0 
vn 1 0 0 
vn 1 0 0 
vn 1 0 0 
vn 1 0 0 
vn 1 0 0 
vn 1 0 0 
vn 1 0 0 
vn 1 0 0 
vn 1 0 0 
vn 1 0 0 
vn 1 0 0 
f 45//45 46//46 47//47 
f 48//48 49//49 46//46 
f 50//50 48//48 45//45 
f 46//46 45//45 48//48 
f 47//47 51//51 45//45 
f 52//52 53//53 51//51 
f 54//54 52//52 47//47 
f 51//51 47//47 52//52 
f 45//45 55//55 50//50 
f 47//47 56//56 54//54 
o mesh710
v -0.00198021 0.00058 0.000111 
v -0.00205026 0.00058 0.000111 
v -0.00205026 0.00058 0.000136 
v -0.00259996 0.00058 0.000227 
v -0.00205026 0.00058 0.000227 
v -0.00259996 0.00058 0 
v -0.00198021 0.00058 0.000136 
v -0.00205026 0.00058 0 
vn 0 1 0 
vn 0 1 0 
vn 0 1 0 
vn 0 1 0 
vn 0 1 0 
vn 0 1 0 
vn 0 1 0 
vn 0 1 0 
f 57//57 58//58 59//59 
f 60//60 61//61 59//59 
f 62//62 60//60 58//58 
f 59//59 58//58 60//60 
f 59//59 63//63 57//57 
f 58//58 64//64 62//62 
o mesh711
v -0.00205026 -2e-05 0.000136 
v -0.00198021 -2e-05 0.000136 
v -0.00198021 0.00058 0.000136 
v -0.00205026 0.00058 0.000136 
vn 0 0 1 
vn 0 0 1 
vn 0 0 1 
vn 0 0 1 
f 65//65 66//66 67//67 
f 67//67 68//68 65//65 
o mesh712
v -0.00198021 0.00058 0.000111 
v -0.00198021 -2e-05 0.000111 
v -0.00205026 -2e-05 0.000111 
v -0.00205026 0.00058 0.000111 
vn 0 0 -1 
vn 0 0 -1 
vn 0 0 -1 
vn 0 0 -1 
f 69//69 70//70 71//71 
f 71//71 72//72 69//69 
o mesh713
v -0.00198021 -2e-05 0.000136 
v -0.00205026 -2e-05 0.000136 
v -0.00205026 -2e-05 0.000111 
v -0.00198021 -2e-05 0.000111 
vn 0 -1 0 
vn 0 -1 0 
vn 0 -1 0 
vn 0 -1 0 
f 73//73 74//74 75//75 
f 75//75 76//76 73//73 
o mesh714
v -0.00198021 -2e-05 0.000136 
v -0.00198021 -2e-05 0.000111 
v -0.00198021 0.00058 0.000111 
v -0.00198021 0.00058 0.000136 
vn 1 0 0 
vn 1 0 0 
vn 1 0 0 
vn 1 0 0 
f 77//77 78//78 79//79 
f 79//79 80//80 77//77 
o mesh715
v -0.00205026 -0.00098 0 
v -0.00254496 -0.000335 0 
v -0.00242876 -0.000335 0 
v -0.00254496 -6.5e-05 0 
v -0.00242876 -6.5e-05 0 
v -0.00259996 0.00058 0 
v -0.00205026 0.00058 0 
v -0.00228876 -6.5e-05 0 
v -0.00228876 -0.000335 0 
v -0.00259996 -0.00098 0 
v -0.00259996 -0.000335 0 
v -0.00259996 -6.5e-05 0 
vn 0 0 -1 
vn 0 0 -1 
vn 0 0 -1 
vn 0 0 -1 
vn 0 0 -1 
vn 0 0 -1 
vn 0 0 -1 
vn 0 0 -1 
vn 0 0 -1 
vn 0 0 -1 
vn 0 0 -1 
vn 0 0 -1 
f 81//81 82//82 83//83 
f 82//82 84//84 85//85 
f 86//86 85//85 84//84 
f 85//85 83//83 82//82 
f 86//86 87//87 88//88 
f 87//87 81//81 89//89 
f 83//83 89//89 81//81 
f 90//90 91//91 82//82 
f 89//89 88//88 87//87 
f 82//82 81//81 90//90 
f 84//84 92//92 86//86 
f 88//88 85//85 86//86 
o mesh716
v -0.00254496 -0.000335 0.000227 
v -0.00242876 -0.000335 0.000227 
v -0.00242876 -6.5e-05 0.000227 
v -0.00205026 -0.00098 0.000227 
v -0.00228876 -0.000335 0.000227 
v -0.00259996 -0.00098 0.000227 
v -0.00254496 -6.5e-05 0.000227 
v -0.00259996 0.00058 0.000227 
v -0.00259996 -6.5e-05 0.000227 
v -0.00228876 -6.5e-05 0.000227 
v -0.00259996 -0.000335 0.000227 
v -0.00205026 0.00058 0.000227 
vn 0 0 1 
vn 0 0 1 
vn 0 0 1 
vn 0 0 1 
vn 0 0 1 
vn 0 0 1 
vn 0 0 1 
vn 0 0 1 
vn 0 0 1 
vn 0 0 1 
vn 0 0 1 
vn 0 0 1 
f 93//93 94//94 95//95 
f 96//96 97//97 94//94 
f 98//98 96//96 93//93 
f 94//94 93//93 96//96 
f 95//95 99//99 93//93 
f 100//100 101//101 99//99 
f 100//100 95//95 102//102 
f 99//99 95//95 100//100 
f 93//93 103//103 98//98 
f 104//104 102//102 97//97 
f 97//97 96//96 104//104 
f 102//102 104//104 100//100 
o mesh717
v -0.00242876 -0.000335 0 
v -0.00242876 -6.5e-05 0 
v -0.00242876 -6.5e-05 0.000227 
v -0.00242876 -0.000335 0.000227 
vn 1 0 0 
vn 1 0 0 
vn 1 0 0 
vn 1 0 0 
f 105//105 106//106 107//107 
f 107//107 108//108 105//105 
o mesh718
v -0.00242876 -0.000335 0.000227 
v -0.00228876 -0.000335 0.000227 
v -0.00228876 -0.000335 0 
v -0.00242876 -0.000335 0 
vn 0 1 0 
vn 0 1 0 
vn 0 1 0 
vn 0 1 0 
f 109//109 110//110 111//111 
f 111//111 112//112 109//109 
o mesh719
v -0.00228876 -0.000335 0 
v -0.00228876 -0.000335 0.000227 
v -0.00228876 -6.5e-05 0.000227 
v -0.00228876 -6.5e-05 0 
vn -1 0 0 
vn -1 0 0 
vn -1 0 0 
vn -1 0 0 
f 113//113 114//114 115//115 
f 115//115 116//116 113//113 
o mesh720
v -0.00242876 -6.5e-05 0.000227 
v -0.00242876 -6.5e-05 0 
v -0.00228876 -6.5e-05 0 
v -0.00228876 -6.5e-05 0.000227 
vn 0 -1 0 
vn 0 -1 0 
vn 0 -1 0 
vn 0 -1 0 
f 117//117 118//118 119//119 
f 119//119 120//120 117//117 
