# OBJ generated by ONSHAPE BY PTC INC, 1.215 Units = meters
mtllib transmission_hinge_Mirrored.mtl
g transmission_hinge-Mirrored
usemtl 0.980392_0.713725_0.003922_0.000000_0.000000
o mesh463
v -0.00128521 -0.000980126 -0.000227 
v -0.00139933 -0.00098 -0.000227 
v -0.00148021 -0.00098 -0.000227 
vn 0 0 1 
vn 0 0 1 
vn 0 0 1 
f 1//1 2//2 3//3 
o mesh464
v -0.00148021 -0.00098 -0.00024 
v -0.00128521 -0.000980126 -0.00024 
v -0.00128521 -0.000980126 -0.000227 
v -0.00148021 -0.00098 -0.000227 
vn -0.00129006 -0.999999 0 
vn -0.00129006 -0.999999 0 
vn -0.00129006 -0.999999 0 
vn -0.00129006 -0.999999 0 
f 4//4 5//5 6//6 
f 6//6 7//7 4//4 
o mesh465
v -0.00128521 -0.000980126 -0.00024 
v -0.0011852 -0.00023016 -0.00024 
v -0.00118522 -0.000230369 -0.000227 
v -0.00128521 -0.000980126 -0.000227 
vn 0.991226 -0.132178 0 
vn 0.991226 -0.132178 0 
vn 0.991226 -0.132178 0 
vn 0.991226 -0.132178 0 
f 8//8 9//9 10//10 
f 10//10 11//11 8//8 
o mesh466
v -0.00128521 -0.00098 0 
v -0.00128521 -0.000980126 -0.000227 
v -0.00118522 -0.000230369 -0.000227 
v -0.00118522 -0.000230117 0 
vn 0.991226 -0.132178 0 
vn 0.991226 -0.132178 0 
vn 0.991226 -0.132178 0 
vn 0.991226 -0.132178 0 
f 12//12 13//13 14//14 
f 14//14 15//15 12//12 
o mesh467
v -0.00121521 -0.000230117 -0.000227 
v -0.00121521 -0.000230117 0 
v -0.00118522 -0.000230117 0 
v -0.00118522 -0.000230369 -0.000227 
vn 0 1 0 
vn 0 1 0 
vn 0 1 0 
vn 0 1 0 
f 16//16 17//17 18//18 
f 18//18 19//19 16//16 
o mesh468
v -0.00130858 0.00058 0 
v -0.00148021 -0.00098 0 
v -0.00121521 -0.000230117 0 
v -0.00121521 0.000579883 0 
v -0.00122738 0.000579943 0 
v -0.00128521 -0.00098 0 
v -0.00118522 -0.000230117 0 
v -0.00139933 -0.00098 0 
v -0.00148021 0.00058 0 
vn 0 0 1 
vn 0 0 1 
vn 0 0 1 
vn 0 0 1 
vn 0 0 1 
vn 0 0 1 
vn 0 0 1 
vn 0 0 1 
vn 0 0 1 
f 20//20 21//21 22//22 
f 22//22 23//23 24//24 
f 25//25 26//26 22//22 
f 22//22 24//24 20//20 
f 22//22 21//21 27//27 
f 22//22 27//27 25//25 
f 20//20 28//28 21//21 
o mesh469
v -0.00121521 0.000579883 -9.8e-05 
v -0.00122738 0.000579972 -9.8e-05 
v -0.00122738 0.000579943 0 
v -0.00121521 0.000579883 0 
vn 0.00496122 0.999988 0 
vn 0.00496122 0.999988 0 
vn 0.00496122 0.999988 0 
vn 0.00496122 0.999988 0 
f 29//29 30//30 31//31 
f 31//31 32//32 29//29 
o mesh470
v -0.00121521 0.00058 -9.8e-05 
v -0.00122738 0.000579972 -9.8e-05 
v -0.00121521 0.000579883 -9.8e-05 
vn 0 0 1 
vn 0 0 1 
vn 0 0 1 
f 33//33 34//34 35//35 
o mesh471
v -0.00121521 -0.000230117 0 
v -0.00121521 0.000579883 -0.000111 
v -0.00121521 0.000579883 -9.8e-05 
v -0.00121521 0.00058 -0.000111 
v -0.00121521 0.00058 -9.8e-05 
v -0.00121521 -0.000230117 -0.000227 
v -0.00121521 0.000579883 -0.000227 
v -0.00121521 0.000579883 0 
vn 1 0 0 
vn 1 0 0 
vn 1 0 0 
vn 1 0 0 
vn 1 0 0 
vn 1 0 0 
vn 1 0 0 
vn 1 0 0 
f 36//36 37//37 38//38 
f 39//39 40//40 38//38 
f 38//38 37//37 39//39 
f 41//41 42//42 37//37 
f 37//37 36//36 41//41 
f 38//38 43//43 36//36 
o mesh472
v -0.00121521 0.000579883 -0.000227 
v -0.00122738 0.000579846 -0.000227 
v -0.00122738 0.000579943 -0.000149 
v -0.00121521 0.000579883 -0.000111 
v -0.00122738 0.000579943 -0.000136 
v -0.00122738 0.000579972 -0.000111 
vn 0.00496122 0.999988 0 
vn 0.00496122 0.999988 0 
vn 0.00496122 0.999988 0 
vn 0.00496122 0.999988 0 
vn 0.00496122 0.999988 0 
vn 0.00496122 0.999988 0 
f 44//44 45//45 46//46 
f 46//46 47//47 44//44 
f 46//46 48//48 47//47 
f 48//48 49//49 47//47 
o mesh473
v -0.00122738 0.000579972 -0.000111 
v -0.00121521 0.00058 -0.000111 
v -0.00121521 0.000579883 -0.000111 
vn 0 0 -1 
vn 0 0 -1 
vn 0 0 -1 
f 50//50 51//51 52//52 
o mesh474
v -0.00121521 -0.000230117 -0.000227 
v -0.00121541 -0.000230251 -0.000227 
v -0.00121541 0.000579748 -0.000227 
v -0.00121521 0.000579883 -0.000227 
v -0.00118522 -0.000230369 -0.000227 
v -0.00122738 0.000579846 -0.000227 
vn 0 0 -1 
vn 0 0 -1 
vn 0 0 -1 
vn 0 0 -1 
vn 0 0 -1 
vn 0 0 -1 
f 53//53 54//54 55//55 
f 55//55 56//56 53//53 
f 53//53 57//57 54//54 
f 55//55 58//58 56//56 
o mesh475
v -0.00121541 0.000579748 -0.000227 
v -0.00121541 -0.000230251 -0.000227 
v -0.00121531 -0.000230114 -0.00024 
v -0.00121531 0.000579872 -0.00024 
vn 1 0 0 
vn 1 0 0 
vn 1 0 0 
vn 1 0 0 
f 59//59 60//60 61//61 
f 61//61 62//62 59//59 
o mesh476
v -0.00118522 -0.000230369 -0.000227 
v -0.0011852 -0.00023016 -0.00024 
v -0.00121531 -0.000230114 -0.00024 
v -0.00121541 -0.000230251 -0.000227 
vn 0.00390842 0.999992 0 
vn 0.00390842 0.999992 0 
vn 0.00390842 0.999992 0 
vn 0.00390842 0.999992 0 
f 63//63 64//64 65//65 
f 65//65 66//66 63//63 
o mesh477
v -0.00148021 0.000579874 -0.00024 
v -0.00148021 0.000579748 -0.000227 
v -0.00122738 0.000579846 -0.000227 
v -0.00121531 0.000579872 -0.00024 
v -0.00121541 0.000579748 -0.000227 
vn 0 1 0 
vn 0 1 0 
vn 0 1 0 
vn 0 1 0 
vn 0 1 0 
f 67//67 68//68 69//69 
f 69//69 70//70 67//67 
f 69//69 71//71 70//70 
o mesh478
v -0.00148021 0.000579748 -0.000227 
v -0.00148021 0.00058 -0.000227 
v -0.00130858 0.00058 -0.000227 
v -0.00122738 0.000579846 -0.000227 
vn 0 0 -1 
vn 0 0 -1 
vn 0 0 -1 
vn 0 0 -1 
f 72//72 73//73 74//74 
f 74//74 75//75 72//72 
o mesh479
v -0.0012152 -0.000229989 -0.00041 
v -0.0012152 0.000579997 -0.00041 
v -0.00121531 0.000579872 -0.00024 
v -0.00121531 -0.000230114 -0.00024 
vn 1 0 0 
vn 1 0 0 
vn 1 0 0 
vn 1 0 0 
f 76//76 77//77 78//78 
f 78//78 79//79 76//76 
o mesh480
v -0.00121522 -0.000229996 -0.000423 
v -0.00121522 0.000580004 -0.000423 
v -0.0012152 0.000579997 -0.00041 
v -0.0012152 -0.000229989 -0.00041 
vn 1 0 0 
vn 1 0 0 
vn 1 0 0 
vn 1 0 0 
f 80//80 81//81 82//82 
f 82//82 83//83 80//80 
o mesh481
v -0.00121522 0.000580004 -0.000514 
v -0.00121522 0.000580004 -0.000423 
v -0.00121522 -0.000229996 -0.000423 
v -0.00121522 -0.000229996 -0.000514 
vn 1 0 0 
vn 1 0 0 
vn 1 0 0 
vn 1 0 0 
f 84//84 85//85 86//86 
f 86//86 87//87 84//84 
o mesh482
v -0.00121522 -0.000229996 -0.000514 
v -0.00121525 -0.000229984 -0.000549824 
v -0.00121522 0.000580004 -0.000539 
v -0.00121522 0.000580004 -0.000514 
vn 1 0 0 
vn 1 0 0 
vn 1 0 0 
vn 1 0 0 
f 88//88 89//89 90//90 
f 90//90 91//91 88//88 
o mesh483
v -0.00121525 -0.000229984 -0.000549824 
v -0.00121526 0.000580006 -0.000552 
v -0.00121522 0.000580004 -0.000539 
vn 1 0 0 
vn 1 0 0 
vn 1 0 0 
f 92//92 93//93 94//94 
o mesh484
v -0.0011852 -0.00023016 -0.00024 
v -0.0011852 -0.000229979 -0.00041 
v -0.0012152 -0.000229989 -0.00041 
v 0.000439836 -0.000229979 -0.00024 
v 0.000439836 -0.000229979 -0.00041 
v -0.00121531 -0.000230114 -0.00024 
vn 0 1 0 
vn 0 1 0 
vn 0 1 0 
vn 0 1 0 
vn 0 1 0 
vn 0 1 0 
f 95//95 96//96 97//97 
f 98//98 99//99 96//96 
f 96//96 95//95 98//98 
f 97//97 100//100 95//95 
o mesh485
v 0.000439836 -0.000229979 -0.00024 
v -0.000163465 -0.000492284 -0.00024 
v -0.000163465 -0.000492284 -0.00041 
v 0.000439836 -0.000229979 -0.00041 
vn 0.398726 -0.91707 0 
vn 0.398726 -0.91707 0 
vn 0.398726 -0.91707 0 
vn 0.398726 -0.91707 0 
f 101//101 102//102 103//103 
f 103//103 104//104 101//101 
o mesh486
v -0.000163464 -0.000467284 -0.00024 
v -0.000163464 -0.000467284 -0.00041 
v -0.000163465 -0.000492284 -0.00041 
v -0.000163465 -0.000492284 -0.00024 
vn -1 0 0 
vn -1 0 0 
vn -1 0 0 
vn -1 0 0 
f 105//105 106//106 107//107 
f 107//107 108//108 105//105 
o mesh487
v -0.000163464 -0.000467284 -0.00041 
v -0.000163464 -0.000467284 -0.00024 
v -0.000519672 -0.000622157 -0.00024 
v -0.000519672 -0.000622157 -0.00041 
vn 0.398726 -0.91707 0 
vn 0.398726 -0.91707 0 
vn 0.398726 -0.91707 0 
vn 0.398726 -0.91707 0 
f 109//109 110//110 111//111 
f 111//111 112//112 109//109 
o mesh488
v -0.0011852 -0.00023016 -0.00024 
v -0.000519672 -0.000622157 -0.00024 
v -0.000163464 -0.000467284 -0.00024 
v -0.00128521 -0.000980126 -0.00024 
v -0.000519672 -0.000647157 -0.00024 
v 0.000439836 -0.000229979 -0.00024 
v -0.000163465 -0.000492284 -0.00024 
vn 0 0 1 
vn 0 0 1 
vn 0 0 1 
vn 0 0 1 
vn 0 0 1 
vn 0 0 1 
vn 0 0 1 
f 113//113 114//114 115//115 
f 116//116 117//117 114//114 
f 114//114 113//113 116//116 
f 115//115 118//118 113//113 
f 115//115 119//119 118//118 
o mesh489
v -0.000519672 -0.000622157 -0.00041 
v -0.000519672 -0.000622157 -0.00024 
v -0.000519672 -0.000647157 -0.00024 
v -0.000519672 -0.000647157 -0.00041 
vn 1 0 0 
vn 1 0 0 
vn 1 0 0 
vn 1 0 0 
f 120//120 121//121 122//122 
f 122//122 123//123 120//120 
o mesh490
v -0.00128521 -0.000980126 -0.00024 
v -0.00128521 -0.00098 -0.00041 
v -0.000710195 -0.00073 -0.00041 
v -0.000519672 -0.000647157 -0.00024 
v -0.000519672 -0.000647157 -0.00041 
vn 0.398726 -0.91707 0 
vn 0.398726 -0.91707 0 
vn 0.398726 -0.91707 0 
vn 0.398726 -0.91707 0 
vn 0.398726 -0.91707 0 
f 124//124 125//125 126//126 
f 126//126 127//127 124//124 
f 126//126 128//128 127//127 
o mesh491
v -0.000710195 -0.00073 -0.00041 
v -0.0011852 -0.000229979 -0.00041 
v -0.000519672 -0.000622157 -0.00041 
v -0.000519672 -0.000647157 -0.00041 
v 0.000439836 -0.000229979 -0.00041 
v -0.000163464 -0.000467284 -0.00041 
v -0.000163465 -0.000492284 -0.00041 
v -0.0011852 -0.00073 -0.00041 
vn 0 0 -1 
vn 0 0 -1 
vn 0 0 -1 
vn 0 0 -1 
vn 0 0 -1 
vn 0 0 -1 
vn 0 0 -1 
vn 0 0 -1 
f 129//129 130//130 131//131 
f 131//131 132//132 129//129 
f 130//130 133//133 134//134 
f 134//134 131//131 130//130 
f 133//133 135//135 134//134 
f 129//129 136//136 130//130 
o mesh492
v -0.000710195 -0.00073 -0.00041 
v -0.00128521 -0.00098 -0.00041 
v -0.00128517 -0.000979996 -0.000423 
v -0.00071022 -0.000729996 -0.000423 
vn 0.398726 -0.91707 0 
vn 0.398726 -0.91707 0 
vn 0.398726 -0.91707 0 
vn 0.398726 -0.91707 0 
f 137//137 138//138 139//139 
f 139//139 140//140 137//137 
o mesh493
v -0.000710245 -0.000729992 -0.000501 
v -0.00071022 -0.000729996 -0.000423 
v -0.00128517 -0.000979996 -0.000423 
v -0.0012852 -0.000979992 -0.000501 
vn 0.39878 -0.917047 0 
vn 0.39878 -0.917047 0 
vn 0.39878 -0.917047 0 
vn 0.39878 -0.917047 0 
f 141//141 142//142 143//143 
f 143//143 144//144 141//141 
o mesh494
v -0.00128522 -0.000979996 -0.000514 
v -0.00071022 -0.000729996 -0.000514 
v -0.000710245 -0.000729992 -0.000501 
v -0.0012852 -0.000979992 -0.000501 
vn 0.398726 -0.91707 0 
vn 0.398726 -0.91707 0 
vn 0.398726 -0.91707 0 
vn 0.398726 -0.91707 0 
f 145//145 146//146 147//147 
f 147//147 148//148 145//145 
o mesh495
v -0.00128522 -0.000979996 -0.000514 
v -0.00128522 -0.000979996 -0.000539 
v -0.00071022 -0.000729996 -0.000539 
v -0.00071022 -0.000729996 -0.000514 
vn 0.398726 -0.91707 0 
vn 0.398726 -0.91707 0 
vn 0.398726 -0.91707 0 
vn 0.398726 -0.91707 0 
f 149//149 150//150 151//151 
f 151//151 152//152 149//149 
o mesh496
v -0.0011852 -0.00073 -0.00041 
v -0.00118522 -0.000729996 -0.000423 
v -0.00118522 -0.000229996 -0.000423 
v -0.0011852 -0.000229979 -0.00041 
vn 1 0 0 
vn 1 0 0 
vn 1 0 0 
vn 1 0 0 
f 153//153 154//154 155//155 
f 155//155 156//156 153//153 
o mesh497
v -0.00118522 -0.000729996 -0.000514 
v -0.00118522 -0.000229996 -0.000514 
v -0.00118522 -0.000229996 -0.000423 
v -0.00118522 -0.000729996 -0.000423 
vn 1 0 0 
vn 1 0 0 
vn 1 0 0 
vn 1 0 0 
f 157//157 158//158 159//159 
f 159//159 160//160 157//157 
o mesh498
v -0.00118522 -0.000229996 -0.000539 
v -0.00118522 -0.000229996 -0.000514 
v -0.00118522 -0.000729996 -0.000514 
v -0.00118522 -0.000729996 -0.000539 
vn 1 0 0 
vn 1 0 0 
vn 1 0 0 
vn 1 0 0 
f 161//161 162//162 163//163 
f 163//163 164//164 161//161 
o mesh499
v -0.00118522 -0.000729996 -0.000514 
v -0.00071022 -0.000729996 -0.000514 
v -0.00071022 -0.000729996 -0.000539 
v -0.000710245 -0.000729992 -0.000501 
v -0.00118522 -0.000729996 -0.000539 
v -0.000710252 -0.000729989 -0.000552 
v -0.00118522 -0.000729996 -0.000423 
v -0.00071022 -0.000729996 -0.000423 
v -0.0011852 -0.00073 -0.00041 
v -0.00118525 -0.000729992 -0.000552 
v -0.000710195 -0.00073 -0.00041 
vn 0 1 0 
vn 0 1 0 
vn 0 1 0 
vn 0 1 0 
vn 0 1 0 
vn 0 1 0 
vn 0 1 0 
vn 0 1 0 
vn 0 1 0 
vn 0 1 0 
vn 0 1 0 
f 165//165 166//166 167//167 
f 165//165 168//168 166//166 
f 169//169 167//167 170//170 
f 171//171 172//172 168//168 
f 172//172 171//171 173//173 
f 170//170 174//174 169//169 
f 173//173 175//175 172//172 
f 168//168 165//165 171//171 
f 167//167 169//169 165//165 
o mesh500
v -0.00118525 -0.000729992 -0.000552 
v -0.00118525 -0.000229983 -0.000552 
v -0.00118522 -0.000229996 -0.000539 
v -0.00118522 -0.000729996 -0.000539 
vn 1 0 0 
vn 1 0 0 
vn 1 0 0 
vn 1 0 0 
f 176//176 177//177 178//178 
f 178//178 179//179 176//176 
o mesh501
v -0.00121522 -0.000229996 -0.000514 
v -0.00118522 -0.000229996 -0.000514 
v -0.00118522 -0.000229996 -0.000539 
v -0.00118522 -0.000229996 -0.000423 
v -0.00121525 -0.000229984 -0.000549824 
v -0.00118525 -0.000229983 -0.000552 
v -0.0012152 -0.000229989 -0.00041 
v -0.0011852 -0.000229979 -0.00041 
v -0.00121522 -0.000229996 -0.000423 
vn 0 1 0 
vn 0 1 0 
vn 0 1 0 
vn 0 1 0 
vn 0 1 0 
vn 0 1 0 
vn 0 1 0 
vn 0 1 0 
vn 0 1 0 
f 180//180 181//181 182//182 
f 183//183 181//181 180//180 
f 182//182 184//184 180//180 
f 182//182 185//185 184//184 
f 186//186 187//187 183//183 
f 183//183 188//188 186//186 
f 180//180 188//188 183//183 
o mesh502
v -0.00118525 -0.000229983 -0.000552 
v -0.00118525 -0.000729992 -0.000552 
v -0.000710252 -0.000729989 -0.000552 
v 0.000439784 -0.000229974 -0.000552 
vn 0 0 1 
vn 0 0 1 
vn 0 0 1 
vn 0 0 1 
f 189//189 190//190 191//191 
f 191//191 192//192 189//189 
o mesh503
v -0.000710252 -0.000729989 -0.000552 
v -0.00128526 -0.000979994 -0.000552 
v -0.00128526 -0.000979994 -0.000722 
v -0.00071022 -0.000729996 -0.000539 
v -0.00128522 -0.000979996 -0.000539 
v 0.000439805 -0.00022997 -0.000722 
v 0.000439784 -0.000229974 -0.000552 
v -0.0012852 -0.000979989 -0.000735 
v 0.000439826 -0.000229978 -0.000735 
vn 0.398726 -0.91707 0 
vn 0.398726 -0.91707 0 
vn 0.398726 -0.91707 0 
vn 0.398726 -0.91707 0 
vn 0.398726 -0.91707 0 
vn 0.398726 -0.91707 0 
vn 0.398726 -0.91707 0 
vn 0.398726 -0.91707 0 
vn 0.398726 -0.91707 0 
f 193//193 194//194 195//195 
f 193//193 196//196 197//197 
f 198//198 199//199 193//193 
f 197//197 194//194 193//193 
f 200//200 201//201 198//198 
f 193//193 200//200 198//198 
f 195//195 200//200 193//193 
o mesh504
v -0.00121526 -0.000229972 -0.000722 
v -0.00121526 0.000580006 -0.000722 
v -0.00121526 0.000580006 -0.000552 
v -0.00121525 -0.000229984 -0.000549824 
vn 1 0 0 
vn 1 0 0 
vn 1 0 0 
vn 1 0 0 
f 202//202 203//203 204//204 
f 204//204 205//205 202//202 
o mesh505
v 0.000439805 -0.00022997 -0.000722 
v -0.00121525 -0.000229978 -0.000735 
v -0.00118525 -0.000229983 -0.000552 
v 0.000439784 -0.000229974 -0.000552 
v -0.00121526 -0.000229972 -0.000722 
v -0.00121525 -0.000229984 -0.000549824 
v 0.000439826 -0.000229978 -0.000735 
vn 0 1 0 
vn 0 1 0 
vn 0 1 0 
vn 0 1 0 
vn 0 1 0 
vn 0 1 0 
vn 0 1 0 
f 206//206 207//207 208//208 
f 208//208 209//209 206//206 
f 208//208 207//207 210//210 
f 210//210 211//211 208//208 
f 206//206 212//212 207//207 
o mesh506
v -0.00121525 -0.000229986 -0.000833 
v -0.00121525 -0.000229978 -0.000735 
v 0.000439826 -0.000229978 -0.000735 
v 0.000439847 -0.000229986 -0.000833 
vn 0 1 0 
vn 0 1 0 
vn 0 1 0 
vn 0 1 0 
f 213//213 214//214 215//215 
f 215//215 216//216 213//213 
o mesh507
v -0.00121525 0.000580014 -0.000833 
v -0.00121525 0.000580014 -0.000735 
v -0.00121525 -0.000229978 -0.000735 
v -0.00121526 0.000580006 -0.000722 
v -0.00121526 -0.000229972 -0.000722 
v -0.00121525 -0.000229986 -0.000833 
vn 1 0 0 
vn 1 0 0 
vn 1 0 0 
vn 1 0 0 
vn 1 0 0 
vn 1 0 0 
f 217//217 218//218 219//219 
f 219//219 218//218 220//220 
f 220//220 221//221 219//219 
f 219//219 222//222 217//217 
o mesh508
v -0.0015462 0.000580014 -0.000833 
v -0.0015462 0.000580014 -0.000735 
v -0.00121525 0.000580014 -0.000735 
v -0.00121525 0.000580014 -0.000833 
vn 0 1 0 
vn 0 1 0 
vn 0 1 0 
vn 0 1 0 
f 223//223 224//224 225//225 
f 225//225 226//226 223//223 
o mesh509
v -0.00121525 -0.000229986 -0.000833 
v 0.000439847 -0.000229986 -0.000833 
v -0.00128515 -0.000979986 -0.000833 
v -0.0015462 0.000580014 -0.000833 
v -0.00121525 0.000580014 -0.000833 
v -0.0015462 -0.000979986 -0.000833 
vn 0 0 -1 
vn 0 0 -1 
vn 0 0 -1 
vn 0 0 -1 
vn 0 0 -1 
vn 0 0 -1 
f 227//227 228//228 229//229 
f 230//230 231//231 227//227 
f 227//227 232//232 230//230 
f 229//229 232//232 227//227 
o mesh510
v -0.0015462 -0.000979986 -0.000833 
v -0.00128515 -0.000979986 -0.000833 
v -0.0012852 -0.000979989 -0.000735 
v -0.0015462 -0.000979993 -0.000735 
vn 0 -1 0 
vn 0 -1 0 
vn 0 -1 0 
vn 0 -1 0 
f 233//233 234//234 235//235 
f 235//235 236//236 233//233 
o mesh511
v 0.000439826 -0.000229978 -0.000735 
v -0.0012852 -0.000979989 -0.000735 
v -0.00128515 -0.000979986 -0.000833 
v 0.000439847 -0.000229986 -0.000833 
vn 0.398726 -0.91707 0 
vn 0.398726 -0.91707 0 
vn 0.398726 -0.91707 0 
vn 0.398726 -0.91707 0 
f 237//237 238//238 239//239 
f 239//239 240//240 237//237 
o mesh512
v -0.0015462 0.000580014 -0.000735 
v -0.0015462 0.000580014 -0.000833 
v -0.0015462 -0.000979986 -0.000833 
v -0.0015462 -0.000979993 -0.000735 
vn -1 0 0 
vn -1 0 0 
vn -1 0 0 
vn -1 0 0 
f 241//241 242//242 243//243 
f 243//243 244//244 241//241 
o mesh513
v -0.0015462 -0.000979993 -0.000735 
v -0.0015812 -0.000979992 -0.000735 
v -0.0015812 0.000580008 -0.000735 
v -0.0015462 0.000580014 -0.000735 
vn 0 0 -1 
vn 0 0 -1 
vn 0 0 -1 
vn 0 0 -1 
f 245//245 246//246 247//247 
f 247//247 248//248 245//245 
o mesh514
v -0.0015812 -0.000979992 -0.000735 
v -0.0015812 -0.000979992 -0.000722 
v -0.0015812 0.000580004 -0.000722 
v -0.0015812 0.000580008 -0.000735 
vn -1 0 0 
vn -1 0 0 
vn -1 0 0 
vn -1 0 0 
f 249//249 250//250 251//251 
f 251//251 252//252 249//249 
o mesh515
v -0.00161622 0.000580004 -0.000722 
v -0.0015812 0.000580004 -0.000722 
v -0.0015812 -0.000979992 -0.000722 
v -0.00161622 -0.000979996 -0.000722 
vn 0 0 -1 
vn 0 0 -1 
vn 0 0 -1 
vn 0 0 -1 
f 253//253 254//254 255//255 
f 255//255 256//256 253//253 
o mesh516
v -0.00161621 -0.000979994 -0.000552 
v -0.00161621 0.000580006 -0.000552 
v -0.00161622 0.000580004 -0.000722 
v -0.00161622 -0.000979996 -0.000722 
vn -1 0 0 
vn -1 0 0 
vn -1 0 0 
vn -1 0 0 
f 257//257 258//258 259//259 
f 259//259 260//260 257//257 
o mesh517
v -0.00122738 0.000579943 -0.000149 
v -0.00122738 0.000579846 -0.000227 
v -0.00130858 0.00058 -0.000227 
v -0.00148021 0.00058 -0.000111 
v -0.00148021 0.00058 0 
v -0.00130858 0.00058 0 
v -0.00122738 0.000579943 -0.000136 
v -0.00122738 0.000579972 -0.000111 
v -0.00158021 0.00058 -0.000136 
v -0.00158021 0.00058 -0.000111 
v -0.00148021 0.00058 -0.000227 
v -0.00148021 0.00058 -0.000136 
v -0.00121521 0.00058 -0.000111 
v -0.00122738 0.000579972 -9.8e-05 
v -0.00122738 0.000579943 0 
v -0.00121521 0.00058 -9.8e-05 
vn 0 1 0 
vn 0 1 0 
vn 0 1 0 
vn 0 1 0 
vn 0 1 0 
vn 0 1 0 
vn 0 1 0 
vn 0 1 0 
vn 0 1 0 
vn 0 1 0 
vn 0 1 0 
vn 0 1 0 
vn 0 1 0 
vn 0 1 0 
vn 0 1 0 
vn 0 1 0 
f 261//261 262//262 263//263 
f 264//264 265//265 266//266 
f 264//264 267//267 261//261 
f 266//266 268//268 264//264 
f 269//269 270//270 264//264 
f 263//263 271//271 272//272 
f 268//268 267//267 264//264 
f 272//272 264//264 263//263 
f 273//273 268//268 274//274 
f 266//266 275//275 274//274 
f 264//264 272//272 269//269 
f 274//274 268//268 266//266 
f 274//274 276//276 273//273 
f 263//263 264//264 261//261 
o mesh518
v -0.00158021 0.00058 -0.000136 
v -0.00148021 0.00058 -0.000136 
v -0.00148021 -2e-05 -0.000136 
v -0.00158021 -2e-05 -0.000136 
vn 0 0 -1 
vn 0 0 -1 
vn 0 0 -1 
vn 0 0 -1 
f 277//277 278//278 279//279 
f 279//279 280//280 277//277 
o mesh519
v -0.00148021 -2e-05 -0.000111 
v -0.00148021 0.00058 -0.000111 
v -0.00158021 0.00058 -0.000111 
v -0.00158021 -2e-05 -0.000111 
vn 0 0 1 
vn 0 0 1 
vn 0 0 1 
vn 0 0 1 
f 281//281 282//282 283//283 
f 283//283 284//284 281//281 
o mesh520
v -0.00158021 -2e-05 -0.000111 
v -0.00158021 -2e-05 -0.000136 
v -0.00148021 -2e-05 -0.000136 
v -0.00148021 -2e-05 -0.000111 
vn 0 -1 0 
vn 0 -1 0 
vn 0 -1 0 
vn 0 -1 0 
f 285//285 286//286 287//287 
f 287//287 288//288 285//285 
o mesh521
v -0.00158021 0.00058 -0.000111 
v -0.00158021 0.00058 -0.000136 
v -0.00158021 -2e-05 -0.000136 
v -0.00158021 -2e-05 -0.000111 
vn -1 0 0 
vn -1 0 0 
vn -1 0 0 
vn -1 0 0 
f 289//289 290//290 291//291 
f 291//291 292//292 289//289 
o mesh522
v -0.00139933 -0.00098 0 
v -0.00148021 -0.00098 0 
v -0.00148021 -0.00098 -0.000111 
v -0.00139933 -0.00098 -0.000227 
v -0.00128521 -0.00098 0 
v -0.00148021 -0.00098 -0.000136 
v -0.00158021 -0.00098 -0.000136 
v -0.00148021 -0.00098 -0.000227 
v -0.00158021 -0.00098 -0.000111 
v -0.00128521 -0.000980126 -0.000227 
vn 0 -1 0 
vn 0 -1 0 
vn 0 -1 0 
vn 0 -1 0 
vn 0 -1 0 
vn 0 -1 0 
vn 0 -1 0 
vn 0 -1 0 
vn 0 -1 0 
vn 0 -1 0 
f 293//293 294//294 295//295 
f 296//296 297//297 298//298 
f 299//299 298//298 295//295 
f 298//298 297//297 293//293 
f 298//298 300//300 296//296 
f 295//295 298//298 293//293 
f 295//295 301//301 299//299 
f 296//296 302//302 297//297 
o mesh523
v -0.00158021 -0.00038 -0.000136 
v -0.00148021 -0.00038 -0.000136 
v -0.00148021 -0.00098 -0.000136 
v -0.00158021 -0.00098 -0.000136 
vn 0 0 -1 
vn 0 0 -1 
vn 0 0 -1 
vn 0 0 -1 
f 303//303 304//304 305//305 
f 305//305 306//306 303//303 
o mesh524
v -0.00158021 -0.00038 -0.000111 
v -0.00148021 -0.00038 -0.000111 
v -0.00148021 -0.00038 -0.000136 
v -0.00158021 -0.00038 -0.000136 
vn 0 1 0 
vn 0 1 0 
vn 0 1 0 
vn 0 1 0 
f 307//307 308//308 309//309 
f 309//309 310//310 307//307 
o mesh525
v -0.00148021 -0.00038 -0.000111 
v -0.00158021 -0.00038 -0.000111 
v -0.00158021 -0.00098 -0.000111 
v -0.00148021 -0.00098 -0.000111 
vn 0 0 1 
vn 0 0 1 
vn 0 0 1 
vn 0 0 1 
f 311//311 312//312 313//313 
f 313//313 314//314 311//311 
o mesh526
v -0.00158021 -0.00038 -0.000136 
v -0.00158021 -0.00098 -0.000136 
v -0.00158021 -0.00098 -0.000111 
v -0.00158021 -0.00038 -0.000111 
vn -1 0 0 
vn -1 0 0 
vn -1 0 0 
vn -1 0 0 
f 315//315 316//316 317//317 
f 317//317 318//318 315//315 
o mesh527
v -0.00148021 0.000579874 -0.00024 
v -0.00148021 -0.00038 -0.000136 
v -0.00148021 -2e-05 -0.000136 
v -0.00148021 0.000579748 -0.000227 
v -0.00148021 -2e-05 -0.000111 
v -0.00148021 -0.00038 -0.000111 
v -0.00148021 0.00058 0 
v -0.00148021 0.00058 -0.000111 
v -0.00148021 -0.00098 0 
v -0.00148021 -0.00098 -0.000227 
v -0.00148021 -0.00098 -0.000136 
v -0.00148021 0.00058 -0.000423 
v -0.00148021 -0.000979997 -0.000423 
v -0.00148021 -0.00098 -0.00024 
v -0.00148021 0.00058 -0.000136 
v -0.00148021 0.00058 -0.000227 
v -0.00148021 -0.00098 -0.000111 
vn -1 0 0 
vn -1 0 0 
vn -1 0 0 
vn -1 0 0 
vn -1 0 0 
vn -1 0 0 
vn -1 0 0 
vn -1 0 0 
vn -1 0 0 
vn -1 0 0 
vn -1 0 0 
vn -1 0 0 
vn -1 0 0 
vn -1 0 0 
vn -1 0 0 
vn -1 0 0 
vn -1 0 0 
f 319//319 320//320 321//321 
f 321//321 322//322 319//319 
f 323//323 321//321 320//320 
f 320//320 324//324 323//323 
f 325//325 326//326 323//323 
f 327//327 325//325 324//324 
f 323//323 324//324 325//325 
f 328//328 329//329 320//320 
f 330//330 331//331 332//332 
f 319//319 330//330 320//320 
f 332//332 328//328 330//330 
f 320//320 330//330 328//328 
f 333//333 334//334 322//322 
f 322//322 321//321 333//333 
f 324//324 335//335 327//327 
o mesh528
v -0.0016162 -0.000979992 -0.000423 
v -0.00148021 -0.000979997 -0.000423 
v -0.00148021 0.00058 -0.000423 
v -0.0016162 0.000580008 -0.000423 
vn 0 0 1 
vn 0 0 1 
vn 0 0 1 
vn 0 0 1 
f 336//336 337//337 338//338 
f 338//338 339//339 336//336 
o mesh529
v -0.00121526 0.000580006 -0.000722 
v -0.00121525 0.000580014 -0.000735 
v -0.0015462 0.000580014 -0.000735 
v -0.0015812 0.000580004 -0.000722 
v -0.00121522 0.000580004 -0.000514 
v -0.00121522 0.000580004 -0.000539 
v -0.00161621 0.000580006 -0.000552 
v -0.0016162 0.000580008 -0.000539 
v -0.00148021 0.00058 -0.000423 
v -0.0012152 0.000579997 -0.00041 
v -0.00121522 0.000580004 -0.000423 
v -0.00148021 0.000579874 -0.00024 
v -0.00121531 0.000579872 -0.00024 
v -0.00161622 0.000580004 -0.000722 
v -0.00121526 0.000580006 -0.000552 
v -0.0016162 0.000580008 -0.000514 
v -0.00171622 0.00058 -0.000514 
v -0.00171622 0.00058 -0.000539 
v -0.0015812 0.000580008 -0.000735 
v -0.0016162 0.000580008 -0.000423 
vn 0 1 0 
vn 0 1 0 
vn 0 1 0 
vn 0 1 0 
vn 0 1 0 
vn 0 1 0 
vn 0 1 0 
vn 0 1 0 
vn 0 1 0 
vn 0 1 0 
vn 0 1 0 
vn 0 1 0 
vn 0 1 0 
vn 0 1 0 
vn 0 1 0 
vn 0 1 0 
vn 0 1 0 
vn 0 1 0 
vn 0 1 0 
vn 0 1 0 
f 340//340 341//341 342//342 
f 343//343 344//344 345//345 
f 346//346 347//347 348//348 
f 346//346 349//349 343//343 
f 342//342 343//343 340//340 
f 343//343 350//350 344//344 
f 351//351 352//352 349//349 
f 343//343 353//353 346//346 
f 343//343 354//354 340//340 
f 343//343 349//349 350//350 
f 348//348 347//347 355//355 
f 356//356 355//355 347//347 
f 348//348 349//349 346//346 
f 345//345 354//354 343//343 
f 347//347 357//357 356//356 
f 342//342 358//358 343//343 
f 349//349 348//348 351//351 
f 355//355 359//359 348//348 
o mesh530
v -0.00161622 -2e-05 -0.000514 
v -0.0016162 0.000580008 -0.000514 
v -0.00171622 0.00058 -0.000514 
v -0.00171622 -2e-05 -0.000514 
vn 0 0 1 
vn 0 0 1 
vn 0 0 1 
vn 0 0 1 
f 360//360 361//361 362//362 
f 362//362 363//363 360//360 
o mesh531
v -0.00161622 -2e-05 -0.000539 
v -0.00171622 -2e-05 -0.000539 
v -0.00171622 0.00058 -0.000539 
v -0.0016162 0.000580008 -0.000539 
vn 0 0 -1 
vn 0 0 -1 
vn 0 0 -1 
vn 0 0 -1 
f 364//364 365//365 366//366 
f 366//366 367//367 364//364 
o mesh532
v -0.00171622 -2e-05 -0.000539 
v -0.00171622 -2e-05 -0.000514 
v -0.00171622 0.00058 -0.000514 
v -0.00171622 0.00058 -0.000539 
vn -1 0 0 
vn -1 0 0 
vn -1 0 0 
vn -1 0 0 
f 368//368 369//369 370//370 
f 370//370 371//371 368//368 
o mesh533
v -0.00171622 -2e-05 -0.000514 
v -0.00171622 -2e-05 -0.000539 
v -0.00161622 -2e-05 -0.000539 
v -0.00161622 -2e-05 -0.000514 
vn 0 -1 0 
vn 0 -1 0 
vn 0 -1 0 
vn 0 -1 0 
f 372//372 373//373 374//374 
f 374//374 375//375 372//372 
o mesh534
v -0.00161621 -0.000979994 -0.000552 
v -0.00161622 -0.00038 -0.000539 
v -0.00161622 -2e-05 -0.000539 
v -0.00161621 0.000580006 -0.000552 
v -0.0016162 -0.000979997 -0.000539 
v -0.0016162 0.000580008 -0.000539 
vn -1 0 0 
vn -1 0 0 
vn -1 0 0 
vn -1 0 0 
vn -1 0 0 
vn -1 0 0 
f 376//376 377//377 378//378 
f 378//378 379//379 376//376 
f 376//376 380//380 377//377 
f 378//378 381//381 379//379 
o mesh535
v -0.0016162 -0.000979992 -0.000423 
v -0.0016162 0.000580008 -0.000423 
v -0.00161622 -2e-05 -0.000514 
v -0.00161622 -0.00038 -0.000514 
v -0.0016162 0.000580008 -0.000514 
v -0.0016162 -0.000979997 -0.000514 
vn -1 0 0 
vn -1 0 0 
vn -1 0 0 
vn -1 0 0 
vn -1 0 0 
vn -1 0 0 
f 382//382 383//383 384//384 
f 384//384 385//385 382//382 
f 383//383 386//386 384//384 
f 385//385 387//387 382//382 
o mesh536
v -0.0015812 -0.000979992 -0.000722 
v -0.00128522 -0.000979996 -0.000514 
v -0.0012852 -0.000979992 -0.000501 
v -0.00128526 -0.000979994 -0.000552 
v -0.00128522 -0.000979996 -0.000539 
v -0.00128526 -0.000979994 -0.000722 
v -0.0015462 -0.000979993 -0.000735 
v -0.00161621 -0.000979994 -0.000552 
v -0.00161622 -0.000979996 -0.000722 
v -0.00128517 -0.000979996 -0.000423 
v -0.00148021 -0.000979997 -0.000423 
v -0.00148021 -0.00098 -0.00024 
v -0.00128521 -0.00098 -0.00041 
v -0.0015812 -0.000979992 -0.000735 
v -0.0016162 -0.000979997 -0.000539 
v -0.0012852 -0.000979989 -0.000735 
v -0.00128521 -0.000980126 -0.00024 
v -0.00171622 -0.00098 -0.000539 
v -0.0016162 -0.000979997 -0.000514 
v -0.0016162 -0.000979992 -0.000423 
v -0.00171622 -0.00098 -0.000514 
vn 0 -1 0 
vn 0 -1 0 
vn 0 -1 0 
vn 0 -1 0 
vn 0 -1 0 
vn 0 -1 0 
vn 0 -1 0 
vn 0 -1 0 
vn 0 -1 0 
vn 0 -1 0 
vn 0 -1 0 
vn 0 -1 0 
vn 0 -1 0 
vn 0 -1 0 
vn 0 -1 0 
vn 0 -1 0 
vn 0 -1 0 
vn 0 -1 0 
vn 0 -1 0 
vn 0 -1 0 
vn 0 -1 0 
f 388//388 389//389 390//390 
f 388//388 391//391 392//392 
f 392//392 389//389 388//388 
f 393//393 388//388 394//394 
f 395//395 396//396 388//388 
f 395//395 397//397 398//398 
f 399//399 398//398 400//400 
f 388//388 393//393 391//391 
f 388//388 401//401 394//394 
f 398//398 402//402 395//395 
f 398//398 397//397 400//400 
f 394//394 403//403 393//393 
f 400//400 404//404 399//399 
f 405//405 402//402 406//406 
f 398//398 407//407 406//406 
f 388//388 397//397 395//395 
f 406//406 402//402 398//398 
f 406//406 408//408 405//405 
f 390//390 397//397 388//388 
o mesh537
v -0.00171622 -0.00098 -0.000539 
v -0.00171622 -0.00038 -0.000539 
v -0.00161622 -0.00038 -0.000539 
v -0.0016162 -0.000979997 -0.000539 
vn 0 0 -1 
vn 0 0 -1 
vn 0 0 -1 
vn 0 0 -1 
f 409//409 410//410 411//411 
f 411//411 412//412 409//409 
o mesh538
v -0.00171622 -0.00098 -0.000514 
v -0.0016162 -0.000979997 -0.000514 
v -0.00161622 -0.00038 -0.000514 
v -0.00171622 -0.00038 -0.000514 
vn 0 0 1 
vn 0 0 1 
vn 0 0 1 
vn 0 0 1 
f 413//413 414//414 415//415 
f 415//415 416//416 413//413 
o mesh539
v -0.00171622 -0.00038 -0.000514 
v -0.00161622 -0.00038 -0.000514 
v -0.00161622 -0.00038 -0.000539 
v -0.00171622 -0.00038 -0.000539 
vn 0 1 0 
vn 0 1 0 
vn 0 1 0 
vn 0 1 0 
f 417//417 418//418 419//419 
f 419//419 420//420 417//417 
o mesh540
v -0.00161622 -0.00038 -0.000514 
v -0.00161622 -2e-05 -0.000514 
v -0.00161622 -2e-05 -0.000539 
v -0.00161622 -0.00038 -0.000539 
vn -1 0 0 
vn -1 0 0 
vn -1 0 0 
vn -1 0 0 
f 421//421 422//422 423//423 
f 423//423 424//424 421//421 
o mesh541
v -0.00171622 -0.00038 -0.000539 
v -0.00171622 -0.00098 -0.000539 
v -0.00171622 -0.00098 -0.000514 
v -0.00171622 -0.00038 -0.000514 
vn -1 0 0 
vn -1 0 0 
vn -1 0 0 
vn -1 0 0 
f 425//425 426//426 427//427 
f 427//427 428//428 425//425 
