# OBJ generated by ONSHAPE BY PTC INC, 1.215 Units = meters
mtllib transmission_base.mtl
g transmission_base
usemtl 0.917647_0.917647_0.917647_0.000000_0.000000
o mesh113
v -0.00246 -0.000449994 0.000552 
v -0.00246 -0.000399994 0.000552 
v -0.00245996 -0.000399996 0.000539 
v -0.00245996 -0.000449996 0.000539 
vn -1 0 0 
vn -1 0 0 
vn -1 0 0 
vn -1 0 0 
f 1//1 2//2 3//3 
f 3//3 4//4 1//1 
o mesh114
v -0.00245996 -0.000399996 0.000539 
v -0.00245996 -0.000399996 0.000514 
v -0.00245996 -0.000449996 0.000514 
v -0.00245996 -0.000449996 0.000539 
vn -1 0 0 
vn -1 0 0 
vn -1 0 0 
vn -1 0 0 
f 5//5 6//6 7//7 
f 7//7 8//8 5//5 
o mesh115
v -0.00245999 -0.000449992 0.000423 
v -0.00245996 -0.000449996 0.000514 
v -0.00245996 -0.000399996 0.000514 
v -0.00245999 -0.000399992 0.000423 
vn -1 0 0 
vn -1 0 0 
vn -1 0 0 
vn -1 0 0 
f 9//9 10//10 11//11 
f 11//11 12//12 9//9 
o mesh116
v -0.00246 -0.000449994 0.000552 
v -0.00246 -0.000449994 0.000722 
v -0.00246 -0.000399994 0.000722 
v -0.00246 -0.000399994 0.000552 
vn -1 0 0 
vn -1 0 0 
vn -1 0 0 
vn -1 0 0 
f 13//13 14//14 15//15 
f 15//15 16//16 13//13 
o mesh117
v -0.00246 -0.000399994 0.000722 
v -0.00246 -0.000449994 0.000722 
v -0.00245999 -0.000449992 0.000735 
v -0.00245999 -0.000399992 0.000735 
vn -1 0 0 
vn -1 0 0 
vn -1 0 0 
vn -1 0 0 
f 17//17 18//18 19//19 
f 19//19 20//20 17//17 
o mesh118
v -0.00246 -0.000399994 0.000552 
v -0.00246 -0.000399994 0.000722 
v -0.00205 -0.000399994 0.000722 
v -0.00245999 -0.000399992 0.000735 
v -0.00204999 -0.000399992 0.000735 
v -0.00245996 -0.000399996 0.000539 
v -0.00205 -0.000399994 0.000552 
v -0.00204996 -0.000399996 0.000539 
v -0.00204996 -0.000399996 0.000514 
v -0.00245996 -0.000399996 0.000514 
v -0.00204999 -0.000399992 0.000423 
v -0.00245999 -0.000399992 0.000423 
vn 0 1 0 
vn 0 1 0 
vn 0 1 0 
vn 0 1 0 
vn 0 1 0 
vn 0 1 0 
vn 0 1 0 
vn 0 1 0 
vn 0 1 0 
vn 0 1 0 
vn 0 1 0 
vn 0 1 0 
f 21//21 22//22 23//23 
f 24//24 25//25 23//23 
f 26//26 21//21 27//27 
f 23//23 22//22 24//24 
f 28//28 29//29 30//30 
f 30//30 29//29 31//31 
f 23//23 27//27 21//21 
f 31//31 32//32 30//30 
f 30//30 26//26 28//28 
f 27//27 28//28 26//26 
o mesh119
v -0.00205 -0.000399994 0.000552 
v -0.00205 6.31484e-09 0.000552 
v -0.00204996 4.21428e-09 0.000539 
v -0.00204996 -0.000399996 0.000539 
vn -1 0 0 
vn -1 0 0 
vn -1 0 0 
vn -1 0 0 
f 33//33 34//34 35//35 
f 35//35 36//36 33//33 
o mesh120
v -0.00204996 -0.000399996 0.000514 
v -0.00204996 -0.000399996 0.000539 
v -0.00204996 4.21428e-09 0.000539 
v -0.00204996 4.21428e-09 0.000514 
vn -1 0 0 
vn -1 0 0 
vn -1 0 0 
vn -1 0 0 
f 37//37 38//38 39//39 
f 39//39 40//40 37//37 
o mesh121
v -0.00204999 -0.000399992 0.000423 
v -0.00204996 -0.000399996 0.000514 
v -0.00204996 4.21428e-09 0.000514 
v -0.00204999 8.41439e-09 0.000423 
vn -1 0 0 
vn -1 0 0 
vn -1 0 0 
vn -1 0 0 
f 41//41 42//42 43//43 
f 43//43 44//44 41//41 
o mesh122
v -0.00205 6.31483e-09 0.000722 
v -0.00205 6.31484e-09 0.000552 
v -0.00205 -0.000399994 0.000552 
v -0.00205 -0.000399994 0.000722 
vn -1 0 0 
vn -1 0 0 
vn -1 0 0 
vn -1 0 0 
f 45//45 46//46 47//47 
f 47//47 48//48 45//45 
o mesh123
v -0.00204999 -0.000399992 0.000735 
v -0.00204999 8.41539e-09 0.000735 
v -0.00205 6.31483e-09 0.000722 
v -0.00205 -0.000399994 0.000722 
vn -1 0 0 
vn -1 0 0 
vn -1 0 0 
vn -1 0 0 
f 49//49 50//50 51//51 
f 51//51 52//52 49//49 
o mesh124
v -0.0032565 -0.000449992 0.000735 
v -0.00245999 8.41539e-09 0.000735 
v -0.00245999 -0.000399992 0.000735 
v -0.00204999 -0.000399992 0.000735 
v -0.00204999 8.41539e-09 0.000735 
v -0.0032565 0.000300008 0.000735 
v -0.00245999 0.000300008 0.000735 
v -0.00245999 -0.000449992 0.000735 
vn 0 0 -1 
vn 0 0 -1 
vn 0 0 -1 
vn 0 0 -1 
vn 0 0 -1 
vn 0 0 -1 
vn 0 0 -1 
vn 0 0 -1 
f 53//53 54//54 55//55 
f 56//56 55//55 54//54 
f 54//54 57//57 56//56 
f 58//58 59//59 54//54 
f 54//54 53//53 58//58 
f 55//55 60//60 53//53 
o mesh125
v -0.00246 0.000300006 0.000722 
v -0.00246 6.31483e-09 0.000722 
v -0.00245999 8.41539e-09 0.000735 
v -0.00245999 0.000300008 0.000735 
vn -1 0 0 
vn -1 0 0 
vn -1 0 0 
vn -1 0 0 
f 61//61 62//62 63//63 
f 63//63 64//64 61//61 
o mesh126
v -0.00246 6.31484e-09 0.000552 
v -0.00246 6.31483e-09 0.000722 
v -0.00246 0.000300006 0.000722 
v -0.00246 0.000300006 0.000552 
vn -1 0 0 
vn -1 0 0 
vn -1 0 0 
vn -1 0 0 
f 65//65 66//66 67//67 
f 67//67 68//68 65//65 
o mesh127
v -0.00246 6.31484e-09 0.000552 
v -0.00246 0.000300006 0.000552 
v -0.00245996 0.000300004 0.000539 
v -0.00245996 4.21428e-09 0.000539 
vn -1 0 0 
vn -1 0 0 
vn -1 0 0 
vn -1 0 0 
f 69//69 70//70 71//71 
f 71//71 72//72 69//69 
o mesh128
v -0.00245999 8.41539e-09 0.000735 
v -0.00246 6.31483e-09 0.000722 
v -0.00205 6.31483e-09 0.000722 
v -0.00246 6.31484e-09 0.000552 
v -0.00204999 8.41439e-09 0.000423 
v -0.00204996 4.21428e-09 0.000514 
v -0.00245996 4.21428e-09 0.000514 
v -0.00245996 4.21428e-09 0.000539 
v -0.00205 6.31484e-09 0.000552 
v -0.00204996 4.21428e-09 0.000539 
v -0.00204999 8.41539e-09 0.000735 
v -0.00245999 8.41439e-09 0.000423 
vn 0 -1 0 
vn 0 -1 0 
vn 0 -1 0 
vn 0 -1 0 
vn 0 -1 0 
vn 0 -1 0 
vn 0 -1 0 
vn 0 -1 0 
vn 0 -1 0 
vn 0 -1 0 
vn 0 -1 0 
vn 0 -1 0 
f 73//73 74//74 75//75 
f 75//75 74//74 76//76 
f 77//77 78//78 79//79 
f 80//80 79//79 78//78 
f 76//76 81//81 75//75 
f 81//81 76//76 80//80 
f 78//78 82//82 80//80 
f 80//80 82//82 81//81 
f 75//75 83//83 73//73 
f 79//79 84//84 77//77 
o mesh129
v -0.00245996 0.000300004 0.000539 
v -0.00245996 0.000300004 0.000514 
v -0.00245996 4.21428e-09 0.000514 
v -0.00245996 4.21428e-09 0.000539 
vn -1 0 0 
vn -1 0 0 
vn -1 0 0 
vn -1 0 0 
f 85//85 86//86 87//87 
f 87//87 88//88 85//85 
o mesh130
v -0.00245996 0.000300004 0.000514 
v -0.00245999 0.000300008 0.000423 
v -0.00245999 8.41439e-09 0.000423 
v -0.00245996 4.21428e-09 0.000514 
vn -1 0 0 
vn -1 0 0 
vn -1 0 0 
vn -1 0 0 
f 89//89 90//90 91//91 
f 91//91 92//92 89//89 
o mesh131
v -0.00246 0.000300006 0.000722 
v -0.00245999 0.000300008 0.000735 
v -0.0032565 0.000300008 0.000735 
v -0.00246 0.000300006 0.000552 
v -0.00325651 0.000300006 0.000722 
v -0.00325647 0.000300004 0.000514 
v -0.0032565 0.000300008 0.000423 
v -0.00245999 0.000300008 0.000423 
v -0.00245996 0.000300004 0.000539 
v -0.00325647 0.000300004 0.000539 
v -0.00325651 0.000300006 0.000552 
v -0.00245996 0.000300004 0.000514 
vn 0 -1 0 
vn 0 -1 0 
vn 0 -1 0 
vn 0 -1 0 
vn 0 -1 0 
vn 0 -1 0 
vn 0 -1 0 
vn 0 -1 0 
vn 0 -1 0 
vn 0 -1 0 
vn 0 -1 0 
vn 0 -1 0 
f 93//93 94//94 95//95 
f 96//96 93//93 97//97 
f 98//98 99//99 100//100 
f 101//101 102//102 98//98 
f 97//97 103//103 96//96 
f 96//96 103//103 102//102 
f 98//98 104//104 101//101 
f 102//102 101//101 96//96 
f 95//95 97//97 93//93 
f 100//100 104//104 98//98 
o mesh132
v -0.00325647 0.000580004 0.000539 
v -0.00325647 0.000300004 0.000539 
v -0.00325651 0.000300006 0.000552 
v -0.00325651 0.000580006 0.000552 
vn -1 0 0 
vn -1 0 0 
vn -1 0 0 
vn -1 0 0 
f 105//105 106//106 107//107 
f 107//107 108//108 105//105 
o mesh133
v -0.00325647 0.000300004 0.000514 
v -0.00325647 0.000300004 0.000539 
v -0.00325647 0.000580004 0.000539 
v -0.00325647 0.000580004 0.000514 
vn -1 0 0 
vn -1 0 0 
vn -1 0 0 
vn -1 0 0 
f 109//109 110//110 111//111 
f 111//111 112//112 109//109 
o mesh134
v -0.00325647 0.000580004 0.000514 
v -0.0032565 0.000580008 0.000423 
v -0.0032565 0.000300008 0.000423 
v -0.00325647 0.000300004 0.000514 
vn -1 0 0 
vn -1 0 0 
vn -1 0 0 
vn -1 0 0 
f 113//113 114//114 115//115 
f 115//115 116//116 113//113 
o mesh135
v -0.00325651 0.000300006 0.000552 
v -0.00325651 0.000300006 0.000722 
v -0.00325651 0.000580006 0.000722 
v -0.00325651 0.000580006 0.000552 
vn -1 0 0 
vn -1 0 0 
vn -1 0 0 
vn -1 0 0 
f 117//117 118//118 119//119 
f 119//119 120//120 117//117 
o mesh136
v -0.00246 -0.000449994 0.000722 
v -0.00246 -0.000449994 0.000552 
v -0.00325651 -0.000449994 0.000552 
v -0.00325651 -0.000449994 0.000722 
v -0.0032565 -0.000449992 0.000735 
v -0.00325647 -0.000449996 0.000539 
v -0.00245999 -0.000449992 0.000735 
v -0.00245996 -0.000449996 0.000539 
v -0.00245996 -0.000449996 0.000514 
v -0.00325647 -0.000449996 0.000514 
v -0.00245999 -0.000449992 0.000423 
v -0.0032565 -0.000449992 0.000423 
vn 0 1 0 
vn 0 1 0 
vn 0 1 0 
vn 0 1 0 
vn 0 1 0 
vn 0 1 0 
vn 0 1 0 
vn 0 1 0 
vn 0 1 0 
vn 0 1 0 
vn 0 1 0 
vn 0 1 0 
f 121//121 122//122 123//123 
f 121//121 124//124 125//125 
f 126//126 123//123 122//122 
f 125//125 127//127 121//121 
f 128//128 129//129 130//130 
f 131//131 132//132 130//130 
f 123//123 124//124 121//121 
f 130//130 129//129 131//131 
f 130//130 126//126 128//128 
f 122//122 128//128 126//126 
o mesh137
v -0.00325647 -0.000449996 0.000539 
v -0.00325647 -0.00108 0.000539 
v -0.00325651 -0.00107999 0.000552 
v -0.00325651 -0.000449994 0.000552 
vn -1 0 0 
vn -1 0 0 
vn -1 0 0 
vn -1 0 0 
f 133//133 134//134 135//135 
f 135//135 136//136 133//133 
o mesh138
v -0.00325647 -0.000449996 0.000539 
v -0.00325647 -0.000449996 0.000514 
v -0.00325647 -0.00108 0.000514 
v -0.00325647 -0.00108 0.000539 
vn -1 0 0 
vn -1 0 0 
vn -1 0 0 
vn -1 0 0 
f 137//137 138//138 139//139 
f 139//139 140//140 137//137 
o mesh139
v -0.0032565 -0.00107999 0.000423 
v -0.00325647 -0.00108 0.000514 
v -0.00325647 -0.000449996 0.000514 
v -0.0032565 -0.000449992 0.000423 
vn -1 0 0 
vn -1 0 0 
vn -1 0 0 
vn -1 0 0 
f 141//141 142//142 143//143 
f 143//143 144//144 141//141 
o mesh140
v -0.00325651 -0.00107999 0.000552 
v -0.00325651 -0.00107999 0.000722 
v -0.00325651 -0.000449994 0.000722 
v -0.00325651 -0.000449994 0.000552 
vn -1 0 0 
vn -1 0 0 
vn -1 0 0 
vn -1 0 0 
f 145//145 146//146 147//147 
f 147//147 148//148 145//145 
o mesh141
v -0.0032565 -0.000449992 0.000735 
v -0.00325651 -0.000449994 0.000722 
v -0.00325651 -0.00107999 0.000722 
v -0.0032565 -0.00108001 0.000735 
v -0.0032565 0.000580014 0.000833 
v -0.0032565 0.000300008 0.000735 
v -0.0032565 -0.00108003 0.000833 
v -0.00325651 0.000580006 0.000722 
v -0.00325651 0.000300006 0.000722 
vn -1 0 0 
vn -1 0 0 
vn -1 0 0 
vn -1 0 0 
vn -1 0 0 
vn -1 0 0 
vn -1 0 0 
vn -1 0 0 
vn -1 0 0 
f 149//149 150//150 151//151 
f 151//151 152//152 149//149 
f 153//153 154//154 149//149 
f 149//149 155//155 153//153 
f 156//156 157//157 154//154 
f 154//154 153//153 156//156 
f 152//152 155//155 149//149 
o mesh142
v -0.00191525 -0.00108001 0.000735 
v -0.00191525 -0.00108003 0.000833 
v -0.0032565 -0.00108003 0.000833 
v -0.0032565 -0.00108001 0.000735 
vn 0 -1 0 
vn 0 -1 0 
vn 0 -1 0 
vn 0 -1 0 
f 158//158 159//159 160//160 
f 160//160 161//161 158//158 
o mesh143
v -0.0018862 0.000580014 0.000833 
v -0.0032565 0.000580014 0.000833 
v -0.00191525 -0.000979986 0.000833 
v -0.0032565 -0.00108003 0.000833 
v -0.00191525 -0.00108003 0.000833 
v -0.0018862 -0.000979986 0.000833 
vn 0 0 1 
vn 0 0 1 
vn 0 0 1 
vn 0 0 1 
vn 0 0 1 
vn 0 0 1 
f 162//162 163//163 164//164 
f 165//165 166//166 164//164 
f 164//164 163//163 165//165 
f 164//164 167//167 162//162 
o mesh144
v -0.00191525 -0.000979986 0.000833 
v -0.00191525 -0.00108003 0.000833 
v -0.00191525 -0.00108001 0.000735 
v -0.00191526 -0.000979994 0.000722 
v -0.00191526 -0.00107999 0.000722 
vn 1 0 0 
vn 1 0 0 
vn 1 0 0 
vn 1 0 0 
vn 1 0 0 
f 168//168 169//169 170//170 
f 170//170 171//171 168//168 
f 170//170 172//172 171//171 
o mesh145
v -0.00191526 -0.00107999 0.000722 
v -0.00191526 -0.00107999 0.000552 
v -0.00191526 -0.000979994 0.000552 
v -0.00191526 -0.000979994 0.000722 
vn 1 0 0 
vn 1 0 0 
vn 1 0 0 
vn 1 0 0 
f 173//173 174//174 175//175 
f 175//175 176//176 173//173 
o mesh146
v -0.00191526 -0.00107999 0.000552 
v -0.00191522 -0.00108 0.000539 
v -0.00191522 -0.000979996 0.000539 
v -0.00191526 -0.000979994 0.000552 
vn 1 0 0 
vn 1 0 0 
vn 1 0 0 
vn 1 0 0 
f 177//177 178//178 179//179 
f 179//179 180//180 177//177 
o mesh147
v -0.00191526 -0.00107999 0.000722 
v -0.00191525 -0.00108001 0.000735 
v -0.0032565 -0.00108001 0.000735 
v -0.00325651 -0.00107999 0.000552 
v -0.00191526 -0.00107999 0.000552 
v -0.00191525 -0.00107999 0.000423 
v -0.00191522 -0.00108 0.000514 
v -0.00325647 -0.00108 0.000514 
v -0.00325647 -0.00108 0.000539 
v -0.00325651 -0.00107999 0.000722 
v -0.00191522 -0.00108 0.000539 
v -0.0032565 -0.00107999 0.000423 
vn 0 -1 0 
vn 0 -1 0 
vn 0 -1 0 
vn 0 -1 0 
vn 0 -1 0 
vn 0 -1 0 
vn 0 -1 0 
vn 0 -1 0 
vn 0 -1 0 
vn 0 -1 0 
vn 0 -1 0 
vn 0 -1 0 
f 181//181 182//182 183//183 
f 184//184 185//185 181//181 
f 186//186 187//187 188//188 
f 189//189 188//188 187//187 
f 181//181 190//190 184//184 
f 185//185 184//184 189//189 
f 187//187 191//191 189//189 
f 189//189 191//191 185//185 
f 183//183 190//190 181//181 
f 188//188 192//192 186//186 
o mesh148
v -0.00191522 -0.000979996 0.000539 
v -0.00191522 -0.00108 0.000539 
v -0.00191522 -0.00108 0.000514 
v -0.00191522 -0.000979996 0.000514 
vn 1 0 0 
vn 1 0 0 
vn 1 0 0 
vn 1 0 0 
f 193//193 194//194 195//195 
f 195//195 196//196 193//193 
o mesh149
v -0.00191525 -0.00107999 0.000423 
v -0.00191525 -0.000979992 0.000423 
v -0.00191522 -0.000979996 0.000514 
v -0.00191522 -0.00108 0.000514 
vn 1 0 0 
vn 1 0 0 
vn 1 0 0 
vn 1 0 0 
f 197//197 198//198 199//199 
f 199//199 200//200 197//197 
o mesh150
v -0.0032565 0.000580008 0.000423 
v -0.0018162 0.000580008 0.000423 
v -0.00245999 0.000300008 0.000423 
v -0.00204999 8.41439e-09 0.000423 
v -0.00245999 8.41439e-09 0.000423 
v -0.0018162 -0.000979992 0.000423 
v -0.00204999 -0.000399992 0.000423 
v -0.00191525 -0.000979992 0.000423 
v -0.00245999 -0.000449992 0.000423 
v -0.0032565 -0.00107999 0.000423 
v -0.0032565 -0.000449992 0.000423 
v -0.00245999 -0.000399992 0.000423 
v -0.0032565 0.000300008 0.000423 
v -0.00191525 -0.00107999 0.000423 
vn 0 0 -1 
vn 0 0 -1 
vn 0 0 -1 
vn 0 0 -1 
vn 0 0 -1 
vn 0 0 -1 
vn 0 0 -1 
vn 0 0 -1 
vn 0 0 -1 
vn 0 0 -1 
vn 0 0 -1 
vn 0 0 -1 
vn 0 0 -1 
vn 0 0 -1 
f 201//201 202//202 203//203 
f 204//204 205//205 203//203 
f 203//203 202//202 204//204 
f 202//202 206//206 207//207 
f 207//207 208//208 209//209 
f 210//210 209//209 208//208 
f 207//207 204//204 202//202 
f 207//207 206//206 208//208 
f 210//210 211//211 209//209 
f 209//209 212//212 207//207 
f 203//203 213//213 201//201 
f 208//208 214//214 210//210 
o mesh151
v -0.0018862 -0.000979986 0.000833 
v -0.0018862 -0.000979986 0.000735 
v -0.0018862 0.000580014 0.000735 
v -0.0018862 0.000580014 0.000833 
vn 1 0 0 
vn 1 0 0 
vn 1 0 0 
vn 1 0 0 
f 215//215 216//216 217//217 
f 217//217 218//218 215//215 
o mesh152
v -0.0018862 -0.000979986 0.000735 
v -0.0018512 -0.000979992 0.000735 
v -0.0018512 0.000580008 0.000735 
v -0.0018862 0.000580014 0.000735 
vn 0 0 1 
vn 0 0 1 
vn 0 0 1 
vn 0 0 1 
f 219//219 220//220 221//221 
f 221//221 222//222 219//219 
o mesh153
v -0.0018512 -0.000979992 0.000735 
v -0.0018512 -0.000979992 0.000722 
v -0.0018512 0.000580008 0.000722 
v -0.0018512 0.000580008 0.000735 
vn 1 0 0 
vn 1 0 0 
vn 1 0 0 
vn 1 0 0 
f 223//223 224//224 225//225 
f 225//225 226//226 223//223 
o mesh154
v -0.00181622 0.000580004 0.000722 
v -0.0018512 0.000580008 0.000722 
v -0.0018512 -0.000979992 0.000722 
v -0.00181622 -0.000979996 0.000722 
vn 0 0 1 
vn 0 0 1 
vn 0 0 1 
vn 0 0 1 
f 227//227 228//228 229//229 
f 229//229 230//230 227//227 
o mesh155
v -0.00181622 0.000580004 0.000722 
v -0.00181622 -0.000979996 0.000722 
v -0.00181621 -0.000979994 0.000552 
v -0.00181621 0.000580006 0.000552 
vn 1 0 0 
vn 1 0 0 
vn 1 0 0 
vn 1 0 0 
f 231//231 232//232 233//233 
f 233//233 234//234 231//231 
o mesh156
v -0.0032565 0.000580014 0.000833 
v -0.0018862 0.000580014 0.000833 
v -0.0018862 0.000580014 0.000735 
v -0.00325647 0.000580004 0.000539 
v -0.00325651 0.000580006 0.000552 
v -0.0018512 0.000580008 0.000722 
v -0.00181621 0.000580006 0.000552 
v -0.0018162 0.000580008 0.000539 
v -0.0018162 0.000580008 0.000514 
v -0.0032565 0.000580008 0.000423 
v -0.00325647 0.000580004 0.000514 
v -0.00325651 0.000580006 0.000722 
v -0.00171622 0.00058 0.000514 
v -0.00181622 0.000580004 0.000722 
v -0.0018512 0.000580008 0.000735 
v -0.00171622 0.00058 0.000539 
v -0.0018162 0.000580008 0.000423 
vn 0 1 0 
vn 0 1 0 
vn 0 1 0 
vn 0 1 0 
vn 0 1 0 
vn 0 1 0 
vn 0 1 0 
vn 0 1 0 
vn 0 1 0 
vn 0 1 0 
vn 0 1 0 
vn 0 1 0 
vn 0 1 0 
vn 0 1 0 
vn 0 1 0 
vn 0 1 0 
vn 0 1 0 
f 235//235 236//236 237//237 
f 237//237 238//238 239//239 
f 240//240 241//241 242//242 
f 243//243 244//244 245//245 
f 239//239 246//246 237//237 
f 247//247 243//243 242//242 
f 240//240 248//248 241//241 
f 245//245 237//237 243//243 
f 237//237 245//245 238//238 
f 242//242 243//243 240//240 
f 237//237 249//249 240//240 
f 237//237 246//246 235//235 
f 240//240 243//243 237//237 
f 242//242 250//250 247//247 
f 243//243 251//251 244//244 
o mesh157
v -0.00181622 -2e-05 0.000539 
v -0.00171622 -2e-05 0.000539 
v -0.00171622 0.00058 0.000539 
v -0.0018162 0.000580008 0.000539 
vn 0 0 1 
vn 0 0 1 
vn 0 0 1 
vn 0 0 1 
f 252//252 253//253 254//254 
f 254//254 255//255 252//252 
o mesh158
v -0.00171622 -2e-05 0.000514 
v -0.00171622 0.00058 0.000514 
v -0.00171622 0.00058 0.000539 
v -0.00171622 -2e-05 0.000539 
vn 1 0 0 
vn 1 0 0 
vn 1 0 0 
vn 1 0 0 
f 256//256 257//257 258//258 
f 258//258 259//259 256//256 
o mesh159
v -0.00181622 -2e-05 0.000514 
v -0.0018162 0.000580008 0.000514 
v -0.00171622 0.00058 0.000514 
v -0.00171622 -2e-05 0.000514 
vn 0 0 -1 
vn 0 0 -1 
vn 0 0 -1 
vn 0 0 -1 
f 260//260 261//261 262//262 
f 262//262 263//263 260//260 
o mesh160
v -0.00171622 -2e-05 0.000514 
v -0.00171622 -2e-05 0.000539 
v -0.00181622 -2e-05 0.000539 
v -0.00181622 -2e-05 0.000514 
vn 0 -1 0 
vn 0 -1 0 
vn 0 -1 0 
vn 0 -1 0 
f 264//264 265//265 266//266 
f 266//266 267//267 264//264 
o mesh161
v -0.00181621 -0.000979994 0.000552 
v -0.00181622 -0.00038 0.000539 
v -0.00181622 -2e-05 0.000539 
v -0.00181621 0.000580006 0.000552 
v -0.0018162 -0.000979992 0.000539 
v -0.0018162 0.000580008 0.000539 
vn 1 0 0 
vn 1 0 0 
vn 1 0 0 
vn 1 0 0 
vn 1 0 0 
vn 1 0 0 
f 268//268 269//269 270//270 
f 270//270 271//271 268//268 
f 268//268 272//272 269//269 
f 270//270 273//273 271//271 
o mesh162
v -0.0018162 -0.000979992 0.000423 
v -0.0018162 0.000580008 0.000423 
v -0.00181622 -2e-05 0.000514 
v -0.00181622 -0.00038 0.000514 
v -0.0018162 0.000580008 0.000514 
v -0.0018162 -0.00098 0.000514 
vn 1 0 0 
vn 1 0 0 
vn 1 0 0 
vn 1 0 0 
vn 1 0 0 
vn 1 0 0 
f 274//274 275//275 276//276 
f 276//276 277//277 274//274 
f 275//275 278//278 276//276 
f 277//277 279//279 274//274 
o mesh163
v -0.00181621 -0.000979994 0.000552 
v -0.00181622 -0.000979996 0.000722 
v -0.0018512 -0.000979992 0.000722 
v -0.00191526 -0.000979994 0.000722 
v -0.0018162 -0.00098 0.000514 
v -0.0018162 -0.000979992 0.000539 
v -0.00191525 -0.000979986 0.000833 
v -0.0018862 -0.000979986 0.000735 
v -0.0018512 -0.000979992 0.000735 
v -0.00171622 -0.00098 0.000514 
v -0.00171622 -0.00098 0.000539 
v -0.0018162 -0.000979992 0.000423 
v -0.00191522 -0.000979996 0.000514 
v -0.00191522 -0.000979996 0.000539 
v -0.00191526 -0.000979994 0.000552 
v -0.00191525 -0.000979992 0.000423 
v -0.0018862 -0.000979986 0.000833 
vn 0 -1 0 
vn 0 -1 0 
vn 0 -1 0 
vn 0 -1 0 
vn 0 -1 0 
vn 0 -1 0 
vn 0 -1 0 
vn 0 -1 0 
vn 0 -1 0 
vn 0 -1 0 
vn 0 -1 0 
vn 0 -1 0 
vn 0 -1 0 
vn 0 -1 0 
vn 0 -1 0 
vn 0 -1 0 
vn 0 -1 0 
f 280//280 281//281 282//282 
f 283//283 284//284 285//285 
f 286//286 283//283 287//287 
f 282//282 288//288 287//287 
f 285//285 280//280 283//283 
f 289//289 290//290 285//285 
f 291//291 284//284 292//292 
f 287//287 283//283 282//282 
f 285//285 284//284 289//289 
f 284//284 293//293 292//292 
f 284//284 283//283 294//294 
f 282//282 283//283 280//280 
f 294//294 293//293 284//284 
f 292//292 295//295 291//291 
f 287//287 296//296 286//286 
o mesh164
v -0.00171622 -0.00038 0.000514 
v -0.00171622 -0.00098 0.000514 
v -0.0018162 -0.00098 0.000514 
v -0.00181622 -0.00038 0.000514 
vn 0 0 -1 
vn 0 0 -1 
vn 0 0 -1 
vn 0 0 -1 
f 297//297 298//298 299//299 
f 299//299 300//300 297//297 
o mesh165
v -0.00181622 -0.00038 0.000539 
v -0.00181622 -0.00038 0.000514 
v -0.00181622 -2e-05 0.000514 
v -0.00181622 -2e-05 0.000539 
vn 1 0 0 
vn 1 0 0 
vn 1 0 0 
vn 1 0 0 
f 301//301 302//302 303//303 
f 303//303 304//304 301//301 
o mesh166
v -0.00171622 -0.00038 0.000514 
v -0.00181622 -0.00038 0.000514 
v -0.00181622 -0.00038 0.000539 
v -0.00171622 -0.00038 0.000539 
vn 0 1 0 
vn 0 1 0 
vn 0 1 0 
vn 0 1 0 
f 305//305 306//306 307//307 
f 307//307 308//308 305//305 
o mesh167
v -0.00171622 -0.00038 0.000539 
v -0.00181622 -0.00038 0.000539 
v -0.0018162 -0.000979992 0.000539 
v -0.00171622 -0.00098 0.000539 
vn 0 0 1 
vn 0 0 1 
vn 0 0 1 
vn 0 0 1 
f 309//309 310//310 311//311 
f 311//311 312//312 309//309 
o mesh168
v -0.00171622 -0.00038 0.000514 
v -0.00171622 -0.00038 0.000539 
v -0.00171622 -0.00098 0.000539 
v -0.00171622 -0.00098 0.000514 
vn 1 0 0 
vn 1 0 0 
vn 1 0 0 
vn 1 0 0 
f 313//313 314//314 315//315 
f 315//315 316//316 313//313 
