# OBJ generated by ONSHAPE BY PTC INC, 1.218 Units = meters
mtllib wing_membrane.mtl
g wing_membrane
usemtl 0.768627_0.886275_0.952941_0.000000_0.901961
o mesh211
v -0.00658713 0.0018872 1.5e-06 
v -0.00658713 0.0018872 0 
v -0.00655049 0.0021345 0 
v -0.00655049 0.0021345 1.5e-06 
vn 0.989203 -0.146549 0 
vn 0.989203 -0.146549 0 
vn 0.989203 -0.146549 0 
vn 0.989203 -0.146549 0 
f 1//1 2//2 3//3 
f 3//3 4//4 1//1 
o mesh212
v -0.00655049 0.0021345 1.5e-06 
v -0.00655049 0.0021345 0 
v -0.00679779 0.00217114 0 
v -0.00679779 0.00217114 1.5e-06 
vn 0.146549 0.989203 0 
vn 0.146549 0.989203 0 
vn 0.146549 0.989203 0 
vn 0.146549 0.989203 0 
f 5//5 6//6 7//7 
f 7//7 8//8 5//5 
o mesh213
v -0.00679779 0.00217114 1.5e-06 
v -0.00679779 0.00217114 0 
v -0.00683443 0.00192384 0 
v -0.00683443 0.00192384 1.5e-06 
vn -0.989203 0.146549 0 
vn -0.989203 0.146549 0 
vn -0.989203 0.146549 0 
vn -0.989203 0.146549 0 
f 9//9 10//10 11//11 
f 11//11 12//12 9//9 
o mesh214
v -0.00683443 0.00192384 1.5e-06 
v -0.00683443 0.00192384 0 
v -0.00645181 0.00163457 0 
v -0.00645181 0.00163457 1.5e-06 
vn -0.603082 -0.797679 0 
vn -0.603082 -0.797679 0 
vn -0.603082 -0.797679 0 
vn -0.603082 -0.797679 0 
f 13//13 14//14 15//15 
f 15//15 16//16 13//13 
o mesh215
v -0.00628226 0.00145032 0 
v -0.00621332 0.0013456 0 
v -0.00621332 0.0013456 1.5e-06 
v -0.00636206 0.00154702 0 
v -0.00628226 0.00145032 1.5e-06 
v -0.00645181 0.00163457 0 
v -0.00636206 0.00154702 1.5e-06 
v -0.00645181 0.00163457 1.5e-06 
vn -0.804428 -0.59405 0 
vn -0.863684 -0.504034 0 
vn -0.863684 -0.504034 0 
vn -0.735829 -0.677168 0 
vn -0.804428 -0.59405 0 
vn -0.658684 -0.75242 0 
vn -0.735829 -0.677168 0 
vn -0.658684 -0.75242 0 
f 17//17 18//18 19//19 
f 20//20 17//17 21//21 
f 22//22 20//20 23//23 
f 23//23 24//24 22//22 
f 21//21 23//23 20//20 
f 19//19 21//21 17//17 
o mesh216
v -0.00610017 0.00107484 0 
v -0.0060133 0.000794538 0 
v -0.0060133 0.000794538 1.5e-06 
v -0.00621332 0.0013456 0 
v -0.00610017 0.00107484 1.5e-06 
v -0.00621332 0.0013456 1.5e-06 
vn -0.939995 -0.34119 0 
vn -0.968197 -0.250188 0 
vn -0.968197 -0.250188 0 
vn -0.90326 -0.429094 0 
vn -0.939995 -0.34119 0 
vn -0.90326 -0.429094 0 
f 25//25 26//26 27//27 
f 28//28 25//25 29//29 
f 29//29 30//30 28//28 
f 27//27 29//29 25//25 
o mesh217
v -0.00595674 0.000590746 0 
v -0.00595674 0.000590746 1.5e-06 
v -0.0060133 0.000794538 1.5e-06 
v -0.0060133 0.000794538 0 
vn -0.961798 -0.27376 0 
vn -0.961798 -0.27376 0 
vn -0.96531 -0.261105 0 
vn -0.96531 -0.261105 0 
f 31//31 32//32 33//33 
f 33//33 34//34 31//31 
o mesh218
v -0.00567261 -0.000129279 0 
v -0.00567261 -0.000129279 1.5e-06 
v -0.0058333 0.000223384 1.5e-06 
v -0.0058333 0.000223384 0 
v -0.00595674 0.000590746 1.5e-06 
v -0.00595674 0.000590746 0 
vn -0.887354 -0.461088 0 
vn -0.887354 -0.461088 0 
vn -0.930197 -0.36706 0 
vn -0.930197 -0.36706 0 
vn -0.963109 -0.269113 0 
vn -0.963109 -0.269113 0 
f 35//35 36//36 37//37 
f 38//38 37//37 39//39 
f 39//39 40//40 38//38 
f 37//37 38//38 35//35 
o mesh219
v -0.00497357 -0.00106607 0 
v -0.00497357 -0.00106607 1.5e-06 
v -0.00523877 -0.000778706 1.5e-06 
v -0.00523877 -0.000778706 0 
v -0.00547263 -0.00046531 1.5e-06 
v -0.00547263 -0.00046531 0 
v -0.00567261 -0.000129279 1.5e-06 
v -0.00567261 -0.000129279 0 
vn -0.698535 -0.715576 0 
vn -0.698535 -0.715576 0 
vn -0.769205 -0.639002 0 
vn -0.769205 -0.639002 0 
vn -0.831524 -0.555489 0 
vn -0.831524 -0.555489 0 
vn -0.884813 -0.465946 0 
vn -0.884813 -0.465946 0 
f 41//41 42//42 43//43 
f 44//44 43//43 45//45 
f 46//46 45//45 47//47 
f 47//47 48//48 46//46 
f 45//45 46//46 44//44 
f 43//43 44//44 41//41 
o mesh220
v -0.00485548 -0.00117198 0 
v -0.00485548 -0.00117198 1.5e-06 
v -0.00491627 -0.00112097 1.5e-06 
v -0.00491627 -0.00112097 0 
v -0.00497357 -0.00106607 1.5e-06 
v -0.00497357 -0.00106607 0 
vn -0.617201 -0.786805 0 
vn -0.617201 -0.786805 0 
vn -0.667701 -0.744429 0 
vn -0.667701 -0.744429 0 
vn -0.7153 -0.698818 0 
vn -0.7153 -0.698818 0 
f 49//49 50//50 51//51 
f 52//52 51//51 53//53 
f 53//53 54//54 52//52 
f 51//51 52//52 49//49 
o mesh221
v -0.00329716 -0.00210678 0 
v -0.00329716 -0.00210678 1.5e-06 
v -0.00371692 -0.00192703 1.5e-06 
v -0.00371692 -0.00192703 0 
v -0.00411873 -0.00171008 1.5e-06 
v -0.00411873 -0.00171008 0 
v -0.00449929 -0.00145771 1.5e-06 
v -0.00449929 -0.00145771 0 
v -0.00485548 -0.00117198 1.5e-06 
v -0.00485548 -0.00117198 0 
vn -0.351666 -0.936126 0 
vn -0.351666 -0.936126 0 
vn -0.43482 -0.900517 0 
vn -0.43482 -0.900517 0 
vn -0.514416 -0.85754 0 
vn -0.514416 -0.85754 0 
vn -0.589804 -0.807547 0 
vn -0.589804 -0.807547 0 
vn -0.660365 -0.750945 0 
vn -0.660365 -0.750945 0 
f 55//55 56//56 57//57 
f 58//58 57//57 59//59 
f 60//60 59//59 61//61 
f 62//62 61//61 63//63 
f 63//63 64//64 62//62 
f 61//61 62//62 60//60 
f 59//59 60//60 58//58 
f 57//57 58//58 55//55 
o mesh222
v -0.00157642 -0.00250876 0 
v -0.00157642 -0.00250876 1.5e-06 
v -0.00216096 -0.002425 1.5e-06 
v -0.00216096 -0.002425 0 
v -0.002736 -0.00229067 1.5e-06 
v -0.002736 -0.00229067 0 
v -0.00329716 -0.00210678 1.5e-06 
v -0.00329716 -0.00210678 0 
vn -0.0985784 -0.995129 0 
vn -0.0985784 -0.995129 0 
vn -0.184841 -0.982768 0 
vn -0.184841 -0.982768 0 
vn -0.2697 -0.962944 0 
vn -0.2697 -0.962944 0 
vn -0.35251 -0.935808 0 
vn -0.35251 -0.935808 0 
f 65//65 66//66 67//67 
f 68//68 67//67 69//69 
f 70//70 69//69 71//71 
f 71//71 72//72 70//70 
f 69//69 70//70 68//68 
f 67//67 68//68 65//65 
o mesh223
v -1.36694e-05 -0.00252271 0 
v -1.36694e-05 -0.00252271 1.5e-06 
v -0.000795365 -0.0025519 1.5e-06 
v -0.000795365 -0.0025519 0 
v -0.00157642 -0.00250876 1.5e-06 
v -0.00157642 -0.00250876 0 
vn 0.0834814 -0.996509 0 
vn 0.0834814 -0.996509 0 
vn -0.00892314 -0.99996 0 
vn -0.00892314 -0.99996 0 
vn -0.101251 -0.994861 0 
vn -0.101251 -0.994861 0 
f 73//73 74//74 75//75 
f 76//76 75//75 77//77 
f 77//77 78//78 76//76 
f 75//75 76//76 73//73 
o mesh224
v -1.36694e-05 -0.00252271 0 
v 0.00013983 -0.0025039 0 
v 0.00013983 -0.0025039 1.5e-06 
v -1.36694e-05 -0.00252271 1.5e-06 
vn 0.121615 -0.992577 0 
vn 0.121615 -0.992577 0 
vn 0.121615 -0.992577 0 
vn 0.121615 -0.992577 0 
f 79//79 80//80 81//81 
f 81//81 82//82 79//79 
o mesh225
v 0.00215324 -0.00211399 0 
v 0.00215324 -0.00211399 1.5e-06 
v 0.00115372 -0.00234604 1.5e-06 
v 0.00115372 -0.00234604 0 
v 0.00013983 -0.0025039 1.5e-06 
v 0.00013983 -0.0025039 0 
vn 0.261867 -0.965104 0 
vn 0.261867 -0.965104 0 
vn 0.190126 -0.98176 0 
vn 0.190126 -0.98176 0 
vn 0.117355 -0.99309 0 
vn 0.117355 -0.99309 0 
f 83//83 84//84 85//85 
f 86//86 85//85 87//87 
f 87//87 88//88 86//86 
f 85//85 86//86 83//83 
o mesh226
v 0.00383874 -0.00158141 0 
v 0.00383874 -0.00158141 1.5e-06 
v 0.00215324 -0.00211399 1.5e-06 
v 0.00215324 -0.00211399 0 
vn 0.351861 -0.936052 0 
vn 0.351861 -0.936052 0 
vn 0.249863 -0.968281 0 
vn 0.249863 -0.968281 0 
f 89//89 90//90 91//91 
f 91//91 92//92 89//89 
o mesh227
v 0.0045966 -0.00125529 0 
v 0.0045966 -0.00125529 1.5e-06 
v 0.00383874 -0.00158141 1.5e-06 
v 0.00383874 -0.00158141 0 
vn 0.431175 -0.902268 0 
vn 0.431175 -0.902268 0 
vn 0.358758 -0.933431 0 
vn 0.358758 -0.933431 0 
f 93//93 94//94 95//95 
f 95//95 96//96 93//93 
o mesh228
v 0.0045966 -0.00125529 1.5e-06 
v 0.0045966 -0.00125529 0 
v 0.00472455 -0.00119303 0 
v 0.00472455 -0.00119303 1.5e-06 
vn 0.437555 -0.899192 0 
vn 0.437555 -0.899192 0 
vn 0.437555 -0.899192 0 
vn 0.437555 -0.899192 0 
f 97//97 98//98 99//99 
f 99//99 100//100 97//97 
o mesh229
v 0.00587454 -0.00044296 0 
v 0.00587454 -0.00044296 1.5e-06 
v 0.00551476 -0.000727901 1.5e-06 
v 0.00551476 -0.000727901 0 
v 0.00513034 -0.000978629 1.5e-06 
v 0.00513034 -0.000978629 0 
v 0.00472455 -0.00119303 1.5e-06 
v 0.00472455 -0.00119303 0 
vn 0.656197 -0.754589 0 
vn 0.656197 -0.754589 0 
vn 0.584194 -0.811614 0 
vn 0.584194 -0.811614 0 
vn 0.507262 -0.861792 0 
vn 0.507262 -0.861792 0 
vn 0.426051 -0.904699 0 
vn 0.426051 -0.904699 0 
f 101//101 102//102 103//103 
f 104//104 103//103 105//105 
f 106//106 105//105 107//107 
f 107//107 108//108 106//106 
f 105//105 106//106 104//104 
f 103//103 104//104 101//101 
o mesh230
v 0.00663482 0.000878648 0 
v 0.00663482 0.000878648 1.5e-06 
v 0.00658864 0.00066086 1.5e-06 
v 0.00658864 0.00066086 0 
v 0.00652002 0.000449068 1.5e-06 
v 0.00652002 0.000449068 0 
v 0.00642971 0.000245576 1.5e-06 
v 0.00642971 0.000245576 0 
v 0.0063187 5.25981e-05 1.5e-06 
v 0.0063187 5.25981e-05 0 
v 0.00618819 -0.000127766 1.5e-06 
v 0.00618819 -0.000127766 0 
v 0.00603959 -0.000293553 1.5e-06 
v 0.00603959 -0.000293553 0 
v 0.00587454 -0.00044296 1.5e-06 
v 0.00587454 -0.00044296 0 
vn 0.987735 -0.156142 0 
vn 0.987735 -0.156142 0 
vn 0.966096 -0.258183 0 
vn 0.966096 -0.258183 0 
vn 0.933946 -0.357415 0 
vn 0.933946 -0.357415 0 
vn 0.891633 -0.452758 0 
vn 0.891633 -0.452758 0 
vn 0.839619 -0.543175 0 
vn 0.839619 -0.543175 0 
vn 0.77847 -0.627682 0 
vn 0.77847 -0.627682 0 
vn 0.70885 -0.705359 0 
vn 0.70885 -0.705359 0 
vn 0.631518 -0.775361 0 
vn 0.631518 -0.775361 0 
f 109//109 110//110 111//111 
f 112//112 111//111 113//113 
f 114//114 113//113 115//115 
f 116//116 115//115 117//117 
f 118//118 117//117 119//119 
f 120//120 119//119 121//121 
f 122//122 121//121 123//123 
f 123//123 124//124 122//122 
f 121//121 122//122 120//120 
f 119//119 120//120 118//118 
f 117//117 118//118 116//116 
f 115//115 116//116 114//114 
f 113//113 114//114 112//112 
f 111//111 112//112 109//109 
o mesh231
v 0.00659 0.0011623 0 
v 0.00659 0.0011623 1.5e-06 
v 0.00661259 0.00109361 1.5e-06 
v 0.00661259 0.00109361 0 
v 0.00662769 0.00102289 1.5e-06 
v 0.00662769 0.00102289 0 
v 0.00663513 0.00095096 1.5e-06 
v 0.00663513 0.00095096 0 
v 0.00663482 0.000878648 1.5e-06 
v 0.00663482 0.000878648 0 
vn 0.931814 0.362936 0 
vn 0.931814 0.362936 0 
vn 0.965336 0.26101 0 
vn 0.965336 0.26101 0 
vn 0.987744 0.15608 0 
vn 0.987744 0.15608 0 
vn 0.998781 0.0493519 0 
vn 0.998781 0.0493519 0 
vn 0.99832 -0.0579441 0 
vn 0.99832 -0.0579441 0 
f 125//125 126//126 127//127 
f 128//128 127//127 129//129 
f 130//130 129//129 131//131 
f 132//132 131//131 133//133 
f 133//133 134//134 132//132 
f 131//131 132//132 130//130 
f 129//129 130//130 128//128 
f 127//127 128//128 125//125 
o mesh232
v 0.00645006 0.0013901 0 
v 0.00645006 0.0013901 1.5e-06 
v 0.00650288 0.00131807 1.5e-06 
v 0.00650288 0.00131807 0 
v 0.00654963 0.00124197 1.5e-06 
v 0.00654963 0.00124197 0 
v 0.00659 0.0011623 1.5e-06 
v 0.00659 0.0011623 0 
vn 0.781511 0.623892 0 
vn 0.781511 0.623892 0 
vn 0.829926 0.557874 0 
vn 0.829926 0.557874 0 
vn 0.872778 0.488117 0 
vn 0.872778 0.488117 0 
vn 0.909781 0.415089 0 
vn 0.909781 0.415089 0 
f 135//135 136//136 137//137 
f 138//138 137//137 139//139 
f 140//140 139//139 141//141 
f 141//141 142//142 140//140 
f 139//139 140//140 138//138 
f 137//137 138//138 135//135 
o mesh233
v 0.00622515 0.0016305 0 
v 0.00622515 0.0016305 1.5e-06 
v 0.00634382 0.00151611 1.5e-06 
v 0.00634382 0.00151611 0 
v 0.00645006 0.0013901 1.5e-06 
v 0.00645006 0.0013901 0 
vn 0.655874 0.754871 0 
vn 0.655874 0.754871 0 
vn 0.730237 0.683194 0 
vn 0.730237 0.683194 0 
vn 0.796811 0.604229 0 
vn 0.796811 0.604229 0 
f 143//143 144//144 145//145 
f 146//146 145//145 147//147 
f 147//147 148//148 146//146 
f 145//145 146//146 143//143 
o mesh234
v 0.00559155 0.00204328 0 
v 0.00559155 0.00204328 1.5e-06 
v 0.00581456 0.00192441 1.5e-06 
v 0.00581456 0.00192441 0 
v 0.00602631 0.00178647 1.5e-06 
v 0.00602631 0.00178647 0 
v 0.00622515 0.0016305 1.5e-06 
v 0.00622515 0.0016305 0 
vn 0.431188 0.902262 0 
vn 0.431188 0.902262 0 
vn 0.50859 0.861009 0 
vn 0.50859 0.861009 0 
vn 0.582081 0.813131 0 
vn 0.582081 0.813131 0 
vn 0.651093 0.758998 0 
vn 0.651093 0.758998 0 
f 149//149 150//150 151//151 
f 152//152 151//151 153//153 
f 154//154 153//153 155//155 
f 155//155 156//156 154//154 
f 153//153 154//154 152//152 
f 151//151 152//152 149//149 
o mesh235
v 0.00477014 0.0023607 0 
v 0.00477014 0.0023607 1.5e-06 
v 0.00518743 0.00221903 1.5e-06 
v 0.00518743 0.00221903 0 
v 0.00559155 0.00204328 1.5e-06 
v 0.00559155 0.00204328 0 
vn 0.281923 0.959437 0 
vn 0.281923 0.959437 0 
vn 0.360456 0.932776 0 
vn 0.360456 0.932776 0 
vn 0.436511 0.899699 0 
vn 0.436511 0.899699 0 
f 157//157 158//158 159//159 
f 160//160 159//159 161//161 
f 161//161 162//162 160//160 
f 159//159 160//160 157//157 
o mesh236
v 0.00431061 0.00248296 0 
v 0.00431061 0.00248296 1.5e-06 
v 0.00477014 0.0023607 1.5e-06 
v 0.00477014 0.0023607 0 
vn 0.227638 0.973746 0 
vn 0.227638 0.973746 0 
vn 0.286349 0.958125 0 
vn 0.286349 0.958125 0 
f 163//163 164//164 165//165 
f 165//165 166//166 163//163 
o mesh237
v 0.00291026 0.00270283 0 
v 0.00291026 0.00270283 1.5e-06 
v 0.00361464 0.00261964 1.5e-06 
v 0.00361464 0.00261964 0 
v 0.00431061 0.00248296 1.5e-06 
v 0.00431061 0.00248296 0 
vn 0.0792902 0.996852 0 
vn 0.0792902 0.996852 0 
vn 0.15511 0.987897 0 
vn 0.15511 0.987897 0 
vn 0.230027 0.973184 0 
vn 0.230027 0.973184 0 
f 167//167 168//168 169//169 
f 170//170 169//169 171//171 
f 171//171 172//172 170//170 
f 169//169 170//170 167//167 
o mesh238
v 0.00161601 0.00275954 0 
v 0.00161601 0.00275954 1.5e-06 
v 0.00291026 0.00270283 1.5e-06 
v 0.00291026 0.00270283 0 
vn 0.0238403 0.999716 0 
vn 0.0238403 0.999716 0 
vn 0.063695 0.997969 0 
vn 0.063695 0.997969 0 
f 173//173 174//174 175//175 
f 175//175 176//176 173//173 
o mesh239
v 0.00161601 0.00275954 0 
v 0.000767674 0.00275447 0 
v 0.000767674 0.00275447 1.5e-06 
v 0.00161601 0.00275954 1.5e-06 
vn -0.00799252 0.999968 0 
vn -0.00394782 0.999992 0 
vn -0.00394782 0.999992 0 
vn -0.00799252 0.999968 0 
f 177//177 178//178 179//179 
f 179//179 180//180 177//177 
o mesh240
v 0.000767674 0.00275447 1.5e-06 
v 0.000767674 0.00275447 0 
v -0.00494144 0.00275448 0 
v -0.00494144 0.00275448 1.5e-06 
vn 4.59441e-07 1 0 
vn 4.59441e-07 1 0 
vn 4.59441e-07 1 0 
vn 4.59441e-07 1 0 
f 181//181 182//182 183//183 
f 183//183 184//184 181//181 
o mesh241
v -0.00523816 0.00266988 0 
v -0.00523816 0.00266988 1.5e-06 
v -0.00519294 0.00269584 1.5e-06 
v -0.00519294 0.00269584 0 
v -0.00514541 0.00271728 1.5e-06 
v -0.00514541 0.00271728 0 
v -0.00509602 0.002734 1.5e-06 
v -0.00509602 0.002734 0 
v -0.00504524 0.00274584 1.5e-06 
v -0.00504524 0.00274584 0 
v -0.00499355 0.00275269 1.5e-06 
v -0.00499355 0.00275269 0 
v -0.00494144 0.00275448 1.5e-06 
v -0.00494144 0.00275448 0 
vn -0.539462 0.84201 0 
vn -0.539462 0.84201 0 
vn -0.455066 0.890458 0 
vn -0.455066 0.890458 0 
vn -0.366361 0.930473 0 
vn -0.366361 0.930473 0 
vn -0.274187 0.961677 0 
vn -0.274187 0.961677 0 
vn -0.179416 0.983773 0 
vn -0.179416 0.983773 0 
vn -0.0829456 0.996554 0 
vn -0.0829456 0.996554 0 
vn 0.0143098 0.999898 0 
vn 0.0143098 0.999898 0 
f 185//185 186//186 187//187 
f 188//188 187//187 189//189 
f 190//190 189//189 191//191 
f 192//192 191//191 193//193 
f 194//194 193//193 195//195 
f 196//196 195//195 197//197 
f 197//197 198//198 196//196 
f 195//195 196//196 194//194 
f 193//193 194//194 192//192 
f 191//191 192//192 190//190 
f 189//189 190//190 188//188 
f 187//187 188//188 185//185 
o mesh242
v -0.00535227 0.00256583 0 
v -0.00535227 0.00256583 1.5e-06 
v -0.0053174 0.00260388 1.5e-06 
v -0.0053174 0.00260388 0 
v -0.00527926 0.00263866 1.5e-06 
v -0.00527926 0.00263866 0 
v -0.00523816 0.00266988 1.5e-06 
v -0.00523816 0.00266988 0 
vn -0.766728 0.641972 0 
vn -0.766728 0.641972 0 
vn -0.706191 0.708022 0 
vn -0.706191 0.708022 0 
vn -0.639984 0.768388 0 
vn -0.639984 0.768388 0 
vn -0.56864 0.822586 0 
vn -0.56864 0.822586 0 
f 199//199 200//200 201//201 
f 202//202 201//201 203//203 
f 204//204 203//203 205//205 
f 205//205 206//206 204//204 
f 203//203 204//204 202//202 
f 201//201 202//202 199//199 
o mesh243
v -0.00542137 0.0024118 0 
v -0.00542137 0.0024118 1.5e-06 
v -0.00541007 0.00245275 1.5e-06 
v -0.00541007 0.00245275 0 
v -0.00539468 0.00249234 1.5e-06 
v -0.00539468 0.00249234 0 
v -0.00537535 0.00253016 1.5e-06 
v -0.00537535 0.00253016 0 
v -0.00535227 0.00256583 1.5e-06 
v -0.00535227 0.00256583 0 
vn -0.976283 0.216498 0 
vn -0.976283 0.216498 0 
vn -0.949252 0.314517 0 
vn -0.949252 0.314517 0 
vn -0.912407 0.409284 0 
vn -0.912407 0.409284 0 
vn -0.86613 0.499819 0 
vn -0.86613 0.499819 0 
vn -0.810898 0.585187 0 
vn -0.810898 0.585187 0 
f 207//207 208//208 209//209 
f 210//210 209//209 211//211 
f 212//212 211//211 213//213 
f 214//214 213//213 215//215 
f 215//215 216//216 214//214 
f 213//213 214//214 212//212 
f 211//211 212//212 210//210 
f 209//209 210//210 207//207 
o mesh244
v -0.00546518 0.00231968 0 
v -0.005481 0.00229952 0 
v -0.005481 0.00229952 1.5e-06 
v -0.0054512 0.00234116 0 
v -0.00546518 0.00231968 1.5e-06 
v -0.00543918 0.00236379 0 
v -0.0054512 0.00234116 1.5e-06 
v -0.00542921 0.0023874 0 
v -0.00543918 0.00236379 1.5e-06 
v -0.00542137 0.0024118 0 
v -0.00542921 0.0023874 1.5e-06 
v -0.00542137 0.0024118 1.5e-06 
vn -0.813127 0.582086 0 
vn -0.758377 0.651816 0 
vn -0.758377 0.651816 0 
vn -0.861486 0.507781 0 
vn -0.813127 0.582086 0 
vn -0.903074 0.429484 0 
vn -0.861486 0.507781 0 
vn -0.937564 0.347812 0 
vn -0.903074 0.429484 0 
vn -0.964685 0.263406 0 
vn -0.937564 0.347812 0 
vn -0.964685 0.263406 0 
f 217//217 218//218 219//219 
f 220//220 217//217 221//221 
f 222//222 220//220 223//223 
f 224//224 222//222 225//225 
f 226//226 224//224 227//227 
f 227//227 228//228 226//226 
f 225//225 227//227 224//224 
f 223//223 225//225 222//222 
f 221//221 223//223 220//220 
f 219//219 221//221 217//217 
o mesh245
v -0.00553051 0.00219569 0 
v -0.00553051 0.00219569 1.5e-06 
v -0.00552653 0.00221471 1.5e-06 
v -0.00552653 0.00221471 0 
v -0.00552076 0.00223326 1.5e-06 
v -0.00552076 0.00223326 0 
v -0.00551325 0.00225118 1.5e-06 
v -0.00551325 0.00225118 0 
v -0.00550406 0.00226829 1.5e-06 
v -0.00550406 0.00226829 0 
v -0.00549328 0.00228446 1.5e-06 
v -0.00549328 0.00228446 0 
v -0.005481 0.00229952 1.5e-06 
v -0.005481 0.00229952 0 
vn -0.987483 0.157724 0 
vn -0.987483 0.157724 0 
vn -0.967941 0.251176 0 
vn -0.967941 0.251176 0 
vn -0.939577 0.342339 0 
vn -0.939577 0.342339 0 
vn -0.902647 0.430381 0 
vn -0.902647 0.430381 0 
vn -0.85749 0.5145 0 
vn -0.85749 0.5145 0 
vn -0.804517 0.593929 0 
vn -0.804517 0.593929 0 
vn -0.744211 0.667945 0 
vn -0.744211 0.667945 0 
f 229//229 230//230 231//231 
f 232//232 231//231 233//233 
f 234//234 233//233 235//235 
f 236//236 235//235 237//237 
f 238//238 237//237 239//239 
f 240//240 239//239 241//241 
f 241//241 242//242 240//240 
f 239//239 240//240 238//238 
f 237//237 238//238 236//236 
f 235//235 236//236 234//234 
f 233//233 234//234 232//232 
f 231//231 232//232 229//229 
o mesh246
v -0.00553051 0.00219569 1.5e-06 
v -0.00553051 0.00219569 0 
v -0.00556129 0.00198795 0 
v -0.00556129 0.00198795 1.5e-06 
vn -0.989203 0.146549 0 
vn -0.989203 0.146549 0 
vn -0.989203 0.146549 0 
vn -0.989203 0.146549 0 
f 243//243 244//244 245//245 
f 245//245 246//246 243//243 
o mesh247
v -0.00556129 0.00198795 1.5e-06 
v -0.00556129 0.00198795 0 
v -0.00580859 0.00202459 0 
v -0.00580859 0.00202459 1.5e-06 
vn 0.146549 0.989203 0 
vn 0.146549 0.989203 0 
vn 0.146549 0.989203 0 
vn 0.146549 0.989203 0 
f 247//247 248//248 249//249 
f 249//249 250//250 247//247 
o mesh248
v -0.00580859 0.00202459 1.5e-06 
v -0.00580859 0.00202459 0 
v -0.00584522 0.00177729 0 
v -0.00584522 0.00177729 1.5e-06 
vn -0.989203 0.146549 0 
vn -0.989203 0.146549 0 
vn -0.989203 0.146549 0 
vn -0.989203 0.146549 0 
f 251//251 252//252 253//253 
f 253//253 254//254 251//251 
o mesh249
v -0.00584522 0.00177729 1.5e-06 
v -0.00584522 0.00177729 0 
v -0.00609253 0.00181393 0 
v -0.00609253 0.00181393 1.5e-06 
vn 0.146549 0.989203 0 
vn 0.146549 0.989203 0 
vn 0.146549 0.989203 0 
vn 0.146549 0.989203 0 
f 255//255 256//256 257//257 
f 257//257 258//258 255//255 
o mesh250
v -0.00609253 0.00181393 1.5e-06 
v -0.00609253 0.00181393 0 
v -0.00602511 0.00226896 0 
v -0.00602511 0.00226896 1.5e-06 
vn 0.989203 -0.146549 0 
vn 0.989203 -0.146549 0 
vn 0.989203 -0.146549 0 
vn 0.989203 -0.146549 0 
f 259//259 260//260 261//261 
f 261//261 262//262 259//259 
o mesh251
v 0.00587454 -0.00044296 1.5e-06 
v 0.00645006 0.0013901 1.5e-06 
v 0.00634382 0.00151611 1.5e-06 
v 0.00658864 0.00066086 1.5e-06 
v 0.00661259 0.00109361 1.5e-06 
v 0.00659 0.0011623 1.5e-06 
v 0.00654963 0.00124197 1.5e-06 
v 0.00642971 0.000245576 1.5e-06 
v 0.00652002 0.000449068 1.5e-06 
v 0.00618819 -0.000127766 1.5e-06 
v 0.0063187 5.25981e-05 1.5e-06 
v 0.00622515 0.0016305 1.5e-06 
v 0.00662769 0.00102289 1.5e-06 
v 0.00663482 0.000878648 1.5e-06 
v 0.00663513 0.00095096 1.5e-06 
v 0.00603959 -0.000293553 1.5e-06 
v 0.00602631 0.00178647 1.5e-06 
v 0.00559155 0.00204328 1.5e-06 
v 0.00518743 0.00221903 1.5e-06 
v 0.00581456 0.00192441 1.5e-06 
v 0.00650288 0.00131807 1.5e-06 
v -0.0058333 0.000223384 1.5e-06 
v -0.00567261 -0.000129279 1.5e-06 
v -0.00547263 -0.00046531 1.5e-06 
v -0.00494144 0.00275448 1.5e-06 
v -0.00537535 0.00253016 1.5e-06 
v -0.00539468 0.00249234 1.5e-06 
v -0.0053174 0.00260388 1.5e-06 
v -0.00535227 0.00256583 1.5e-06 
v -0.00527926 0.00263866 1.5e-06 
v -0.00514541 0.00271728 1.5e-06 
v -0.00519294 0.00269584 1.5e-06 
v -0.00523877 -0.000778706 1.5e-06 
v -0.00509602 0.002734 1.5e-06 
v -0.00499355 0.00275269 1.5e-06 
v -0.00504524 0.00274584 1.5e-06 
v -0.0060133 0.000794538 1.5e-06 
v -0.00411873 -0.00171008 1.5e-06 
v -0.00371692 -0.00192703 1.5e-06 
v -0.00595674 0.000590746 1.5e-06 
v -0.00497357 -0.00106607 1.5e-06 
v -0.00491627 -0.00112097 1.5e-06 
v -0.00541007 0.00245275 1.5e-06 
v 0.00431061 0.00248296 1.5e-06 
v 0.00361464 0.00261964 1.5e-06 
v 0.00477014 0.0023607 1.5e-06 
v -0.00449929 -0.00145771 1.5e-06 
v 0.00551476 -0.000727901 1.5e-06 
v 0.00291026 0.00270283 1.5e-06 
v -0.00485548 -0.00117198 1.5e-06 
v -0.00553051 0.00219569 1.5e-06 
v -0.00157642 -0.00250876 1.5e-06 
v -0.000795365 -0.0025519 1.5e-06 
v -0.00556129 0.00198795 1.5e-06 
v -0.00216096 -0.002425 1.5e-06 
v 0.00013983 -0.0025039 1.5e-06 
v -0.00552076 0.00223326 1.5e-06 
v -0.00552653 0.00221471 1.5e-06 
v -0.00549328 0.00228446 1.5e-06 
v -0.00550406 0.00226829 1.5e-06 
v -0.00523816 0.00266988 1.5e-06 
v 0.000767674 0.00275447 1.5e-06 
v 0.00161601 0.00275954 1.5e-06 
v -0.00633983 0.00185057 1.5e-06 
v -0.00645181 0.00163457 1.5e-06 
v -0.00636206 0.00154702 1.5e-06 
v -0.00551325 0.00225118 1.5e-06 
v -0.005481 0.00229952 1.5e-06 
v -0.0054512 0.00234116 1.5e-06 
v -0.00546518 0.00231968 1.5e-06 
v 0.00115372 -0.00234604 1.5e-06 
v -0.00543918 0.00236379 1.5e-06 
v 0.00215324 -0.00211399 1.5e-06 
v -0.00542137 0.0024118 1.5e-06 
v 0.00472455 -0.00119303 1.5e-06 
v 0.00513034 -0.000978629 1.5e-06 
v -0.00542921 0.0023874 1.5e-06 
v 0.0045966 -0.00125529 1.5e-06 
v -0.00329716 -0.00210678 1.5e-06 
v -0.00610017 0.00107484 1.5e-06 
v -0.00621332 0.0013456 1.5e-06 
v -0.00628226 0.00145032 1.5e-06 
v -0.00658713 0.0018872 1.5e-06 
v -1.36694e-05 -0.00252271 1.5e-06 
v 0.00383874 -0.00158141 1.5e-06 
v -0.00683443 0.00192384 1.5e-06 
v -0.00584522 0.00177729 1.5e-06 
v -0.00609253 0.00181393 1.5e-06 
v -0.00655049 0.0021345 1.5e-06 
v -0.00679779 0.00217114 1.5e-06 
v -0.00602511 0.00226896 1.5e-06 
v -0.002736 -0.00229067 1.5e-06 
v -0.00580859 0.00202459 1.5e-06 
v -0.00627241 0.0023056 1.5e-06 
vn 0 0 1 
vn 0 0 1 
vn 0 0 1 
vn 0 0 1 
vn 0 0 1 
vn 0 0 1 
vn 0 0 1 
vn 0 0 1 
vn 0 0 1 
vn 0 0 1 
vn 0 0 1 
vn 0 0 1 
vn 0 0 1 
vn 0 0 1 
vn 0 0 1 
vn 0 0 1 
vn 0 0 1 
vn 0 0 1 
vn 0 0 1 
vn 0 0 1 
vn 0 0 1 
vn 0 0 1 
vn 0 0 1 
vn 0 0 1 
vn 0 0 1 
vn 0 0 1 
vn 0 0 1 
vn 0 0 1 
vn 0 0 1 
vn 0 0 1 
vn 0 0 1 
vn 0 0 1 
vn 0 0 1 
vn 0 0 1 
vn 0 0 1 
vn 0 0 1 
vn 0 0 1 
vn 0 0 1 
vn 0 0 1 
vn 0 0 1 
vn 0 0 1 
vn 0 0 1 
vn 0 0 1 
vn 0 0 1 
vn 0 0 1 
vn 0 0 1 
vn 0 0 1 
vn 0 0 1 
vn 0 0 1 
vn 0 0 1 
vn 0 0 1 
vn 0 0 1 
vn 0 0 1 
vn 0 0 1 
vn 0 0 1 
vn 0 0 1 
vn 0 0 1 
vn 0 0 1 
vn 0 0 1 
vn 0 0 1 
vn 0 0 1 
vn 0 0 1 
vn 0 0 1 
vn 0 0 1 
vn 0 0 1 
vn 0 0 1 
vn 0 0 1 
vn 0 0 1 
vn 0 0 1 
vn 0 0 1 
vn 0 0 1 
vn 0 0 1 
vn 0 0 1 
vn 0 0 1 
vn 0 0 1 
vn 0 0 1 
vn 0 0 1 
vn 0 0 1 
vn 0 0 1 
vn 0 0 1 
vn 0 0 1 
vn 0 0 1 
vn 0 0 1 
vn 0 0 1 
vn 0 0 1 
vn 0 0 1 
vn 0 0 1 
vn 0 0 1 
vn 0 0 1 
vn 0 0 1 
vn 0 0 1 
vn 0 0 1 
vn 0 0 1 
vn 0 0 1 
f 263//263 264//264 265//265 
f 266//266 267//267 268//268 
f 269//269 270//270 271//271 
f 269//269 272//272 273//273 
f 265//265 274//274 263//263 
f 266//266 275//275 267//267 
f 266//266 276//276 277//277 
f 273//273 270//270 269//269 
f 269//269 263//263 278//278 
f 274//274 279//279 263//263 
f 277//277 275//275 266//266 
f 278//278 272//272 269//269 
f 263//263 280//280 281//281 
f 279//279 282//282 263//263 
f 263//263 269//269 283//283 
f 271//271 266//266 269//269 
f 284//284 285//285 286//286 
f 287//287 288//288 289//289 
f 287//287 290//290 291//291 
f 292//292 293//293 294//294 
f 282//282 280//280 263//263 
f 268//268 269//269 266//266 
f 286//286 295//295 284//284 
f 291//291 288//288 287//287 
f 292//292 296//296 293//293 
f 292//292 297//297 298//298 
f 283//283 264//264 263//263 
f 299//299 300//300 301//301 
f 302//302 303//303 304//304 
f 303//303 302//302 284//284 
f 289//289 305//305 287//287 
f 298//298 296//296 292//292 
f 263//263 306//306 307//307 
f 281//281 308//308 263//263 
f 299//299 309//309 300//300 
f 295//295 303//303 284//284 
f 287//287 292//292 290//290 
f 292//292 287//287 297//297 
f 308//308 306//306 263//263 
f 310//310 263//263 311//311 
f 299//299 312//312 309//309 
f 312//312 299//299 302//302 
f 313//313 314//314 315//315 
f 313//313 316//316 317//317 
f 318//318 319//319 320//320 
f 318//318 321//321 322//322 
f 294//294 323//323 292//292 
f 310//310 324//324 287//287 
f 311//311 325//325 310//310 
f 304//304 312//312 302//302 
f 326//326 327//327 328//328 
f 317//317 314//314 313//313 
f 318//318 329//329 319//319 
f 318//318 330//330 321//321 
f 331//331 332//332 333//333 
f 334//334 331//331 335//335 
f 336//336 337//337 338//338 
f 336//336 339//339 340//340 
f 287//287 336//336 310//310 
f 307//307 311//311 263//263 
f 341//341 342//342 299//299 
f 341//341 326//326 343//343 
f 328//328 344//344 326//326 
f 327//327 326//326 345//345 
f 315//315 346//346 313//313 
f 322//322 329//329 318//318 
f 335//335 347//347 334//334 
f 339//339 334//334 347//347 
f 340//340 337//337 336//336 
f 325//325 324//324 310//310 
f 343//343 342//342 341//341 
f 345//345 348//348 327//327 
f 349//349 350//350 341//341 
f 320//320 313//313 318//318 
f 332//332 330//330 318//318 
f 347//347 340//340 339//339 
f 305//305 336//336 287//287 
f 351//351 352//352 348//348 
f 344//344 343//343 326//326 
f 326//326 350//350 353//353 
f 341//341 354//354 349//349 
f 316//316 355//355 349//349 
f 318//318 333//333 332//332 
f 338//338 310//310 336//336 
f 301//301 341//341 299//299 
f 350//350 326//326 341//341 
f 349//349 354//354 316//316 
f 333//333 335//335 331//331 
f 353//353 356//356 326//326 
f 346//346 318//318 313//313 
f 354//354 317//317 316//316 
f 348//348 345//345 351//351 
o mesh252
v 0.00654963 0.00124197 0 
v 0.00642971 0.000245576 0 
v 0.0063187 5.25981e-05 0 
v 0.00658864 0.00066086 0 
v 0.00652002 0.000449068 0 
v 0.00659 0.0011623 0 
v 0.00662769 0.00102289 0 
v 0.00663513 0.00095096 0 
v 0.00661259 0.00109361 0 
v 0.00587454 -0.00044296 0 
v 0.00622515 0.0016305 0 
v 0.00634382 0.00151611 0 
v 0.00618819 -0.000127766 0 
v 0.00602631 0.00178647 0 
v 0.00663482 0.000878648 0 
v 0.00581456 0.00192441 0 
v 0.00603959 -0.000293553 0 
v 0.00645006 0.0013901 0 
v 0.00650288 0.00131807 0 
v 0.00559155 0.00204328 0 
v 0.00477014 0.0023607 0 
v 0.00518743 0.00221903 0 
v -0.00494144 0.00275448 0 
v -0.00509602 0.002734 0 
v -0.00504524 0.00274584 0 
v -0.00541007 0.00245275 0 
v -0.00539468 0.00249234 0 
v -0.00514541 0.00271728 0 
v -0.00537535 0.00253016 0 
v -0.00535227 0.00256583 0 
v -0.00542137 0.0024118 0 
v -0.0058333 0.000223384 0 
v -0.00523877 -0.000778706 0 
v -0.00547263 -0.00046531 0 
v 0.00431061 0.00248296 0 
v 0.00291026 0.00270283 0 
v 0.00361464 0.00261964 0 
v -0.00519294 0.00269584 0 
v -0.00527926 0.00263866 0 
v -0.00523816 0.00266988 0 
v -0.00497357 -0.00106607 0 
v 0.00551476 -0.000727901 0 
v 0.00161601 0.00275954 0 
v -0.0053174 0.00260388 0 
v -0.00567261 -0.000129279 0 
v -0.00595674 0.000590746 0 
v -0.00485548 -0.00117198 0 
v -0.00491627 -0.00112097 0 
v -0.0060133 0.000794538 0 
v -0.00371692 -0.00192703 0 
v -0.00411873 -0.00171008 0 
v -0.00329716 -0.00210678 0 
v 0.000767674 0.00275447 0 
v -0.00499355 0.00275269 0 
v 0.00472455 -0.00119303 0 
v 0.0045966 -0.00125529 0 
v 0.00513034 -0.000978629 0 
v 0.00013983 -0.0025039 0 
v -0.00550406 0.00226829 0 
v -0.00549328 0.00228446 0 
v -0.00552653 0.00221471 0 
v -0.00552076 0.00223326 0 
v -0.00553051 0.00219569 0 
v -0.00157642 -0.00250876 0 
v -0.00216096 -0.002425 0 
v -1.36694e-05 -0.00252271 0 
v -0.000795365 -0.0025519 0 
v -0.00449929 -0.00145771 0 
v -0.00551325 0.00225118 0 
v -0.00633983 0.00185057 0 
v -0.00621332 0.0013456 0 
v -0.00628226 0.00145032 0 
v -0.00542921 0.0023874 0 
v 0.00383874 -0.00158141 0 
v -0.00543918 0.00236379 0 
v 0.00215324 -0.00211399 0 
v -0.0054512 0.00234116 0 
v 0.00115372 -0.00234604 0 
v -0.00584522 0.00177729 0 
v -0.002736 -0.00229067 0 
v -0.00645181 0.00163457 0 
v -0.00683443 0.00192384 0 
v -0.00658713 0.0018872 0 
v -0.00636206 0.00154702 0 
v -0.00610017 0.00107484 0 
v -0.00546518 0.00231968 0 
v -0.00556129 0.00198795 0 
v -0.00609253 0.00181393 0 
v -0.00627241 0.0023056 0 
v -0.00602511 0.00226896 0 
v -0.005481 0.00229952 0 
v -0.00655049 0.0021345 0 
v -0.00580859 0.00202459 0 
v -0.00679779 0.00217114 0 
vn 0 0 -1 
vn 0 0 -1 
vn 0 0 -1 
vn 0 0 -1 
vn 0 0 -1 
vn 0 0 -1 
vn 0 0 -1 
vn 0 0 -1 
vn 0 0 -1 
vn 0 0 -1 
vn 0 0 -1 
vn 0 0 -1 
vn 0 0 -1 
vn 0 0 -1 
vn 0 0 -1 
vn 0 0 -1 
vn 0 0 -1 
vn 0 0 -1 
vn 0 0 -1 
vn 0 0 -1 
vn 0 0 -1 
vn 0 0 -1 
vn 0 0 -1 
vn 0 0 -1 
vn 0 0 -1 
vn 0 0 -1 
vn 0 0 -1 
vn 0 0 -1 
vn 0 0 -1 
vn 0 0 -1 
vn 0 0 -1 
vn 0 0 -1 
vn 0 0 -1 
vn 0 0 -1 
vn 0 0 -1 
vn 0 0 -1 
vn 0 0 -1 
vn 0 0 -1 
vn 0 0 -1 
vn 0 0 -1 
vn 0 0 -1 
vn 0 0 -1 
vn 0 0 -1 
vn 0 0 -1 
vn 0 0 -1 
vn 0 0 -1 
vn 0 0 -1 
vn 0 0 -1 
vn 0 0 -1 
vn 0 0 -1 
vn 0 0 -1 
vn 0 0 -1 
vn 0 0 -1 
vn 0 0 -1 
vn 0 0 -1 
vn 0 0 -1 
vn 0 0 -1 
vn 0 0 -1 
vn 0 0 -1 
vn 0 0 -1 
vn 0 0 -1 
vn 0 0 -1 
vn 0 0 -1 
vn 0 0 -1 
vn 0 0 -1 
vn 0 0 -1 
vn 0 0 -1 
vn 0 0 -1 
vn 0 0 -1 
vn 0 0 -1 
vn 0 0 -1 
vn 0 0 -1 
vn 0 0 -1 
vn 0 0 -1 
vn 0 0 -1 
vn 0 0 -1 
vn 0 0 -1 
vn 0 0 -1 
vn 0 0 -1 
vn 0 0 -1 
vn 0 0 -1 
vn 0 0 -1 
vn 0 0 -1 
vn 0 0 -1 
vn 0 0 -1 
vn 0 0 -1 
vn 0 0 -1 
vn 0 0 -1 
vn 0 0 -1 
vn 0 0 -1 
vn 0 0 -1 
vn 0 0 -1 
vn 0 0 -1 
vn 0 0 -1 
f 357//357 358//358 359//359 
f 357//357 360//360 361//361 
f 360//360 357//357 362//362 
f 361//361 358//358 357//357 
f 360//360 363//363 364//364 
f 362//362 365//365 360//360 
f 366//366 367//367 368//368 
f 359//359 369//369 357//357 
f 365//365 363//363 360//360 
f 366//366 370//370 367//367 
f 364//364 371//371 360//360 
f 366//366 372//372 370//370 
f 369//369 373//373 357//357 
f 366//366 374//374 375//375 
f 366//366 376//376 372//372 
f 366//366 377//377 378//378 
f 375//375 357//357 366//366 
f 378//378 376//376 366//366 
f 379//379 380//380 381//381 
f 379//379 382//382 383//383 
f 368//368 374//374 366//366 
f 379//379 384//384 380//380 
f 379//379 385//385 386//386 
f 379//379 387//387 382//382 
f 388//388 389//389 390//390 
f 366//366 391//391 377//377 
f 366//366 392//392 393//393 
f 379//379 394//394 384//384 
f 379//379 395//395 396//396 
f 383//383 385//385 379//379 
f 388//388 397//397 389//389 
f 398//398 399//399 392//392 
f 393//393 391//391 366//366 
f 396//396 394//394 379//379 
f 386//386 400//400 379//379 
f 390//390 401//401 388//388 
f 402//402 403//403 404//404 
f 405//405 406//406 407//407 
f 373//373 366//366 357//357 
f 398//398 387//387 379//379 
f 400//400 395//395 379//379 
f 404//404 397//397 402//402 
f 405//405 408//408 406//406 
f 398//398 409//409 399//399 
f 381//381 410//410 379//379 
f 387//387 411//411 412//412 
f 387//387 398//398 413//413 
f 414//414 415//415 416//416 
f 414//414 417//417 418//418 
f 419//419 420//420 421//421 
f 419//419 422//422 423//423 
f 388//388 402//402 397//397 
f 407//407 424//424 405//405 
f 379//379 409//409 398//398 
f 413//413 411//411 387//387 
f 414//414 425//425 415//415 
f 414//414 419//419 417//417 
f 423//423 420//420 419//419 
f 426//426 427//427 428//428 
f 424//424 403//403 405//405 
f 412//412 429//429 387//387 
f 429//429 412//412 430//430 
f 431//431 430//430 432//432 
f 433//433 432//432 434//434 
f 418//418 425//425 414//414 
f 419//419 414//414 422//422 
f 435//435 436//436 408//408 
f 437//437 438//438 439//439 
f 428//428 440//440 426//426 
f 408//408 441//441 427//427 
f 402//402 405//405 403//403 
f 430//430 431//431 429//429 
f 434//434 442//442 433//433 
f 442//442 434//434 414//414 
f 421//421 443//443 419//419 
f 408//408 426//426 444//444 
f 426//426 445//445 446//446 
f 440//440 437//437 426//426 
f 405//405 441//441 408//408 
f 432//432 433//433 431//431 
f 416//416 447//447 414//414 
f 443//443 436//436 435//435 
f 446//446 444//444 426//426 
f 427//427 426//426 408//408 
f 414//414 447//447 442//442 
f 443//443 421//421 436//436 
f 439//439 426//426 437//437 
f 448//448 439//439 438//438 
f 435//435 449//449 443//443 
f 438//438 450//450 448//448 
f 408//408 444//444 435//435 
f 392//392 366//366 398//398 
o mesh253
v -0.00602511 0.00226896 1.5e-06 
v -0.00602511 0.00226896 0 
v -0.00627241 0.0023056 0 
v -0.00627241 0.0023056 1.5e-06 
vn 0.146549 0.989203 0 
vn 0.146549 0.989203 0 
vn 0.146549 0.989203 0 
vn 0.146549 0.989203 0 
f 451//451 452//452 453//453 
f 453//453 454//454 451//451 
o mesh254
v -0.00627241 0.0023056 1.5e-06 
v -0.00627241 0.0023056 0 
v -0.00633983 0.00185057 0 
v -0.00633983 0.00185057 1.5e-06 
vn -0.989203 0.146549 0 
vn -0.989203 0.146549 0 
vn -0.989203 0.146549 0 
vn -0.989203 0.146549 0 
f 455//455 456//456 457//457 
f 457//457 458//458 455//455 
o mesh255
v -0.00633983 0.00185057 1.5e-06 
v -0.00633983 0.00185057 0 
v -0.00658713 0.0018872 0 
v -0.00658713 0.0018872 1.5e-06 
vn 0.146549 0.989203 0 
vn 0.146549 0.989203 0 
vn 0.146549 0.989203 0 
vn 0.146549 0.989203 0 
f 459//459 460//460 461//461 
f 461//461 462//462 459//459 
