# OBJ generated by ONSHAPE BY PTC INC, 1.215 Units = meters
mtllib Part_1_1.mtl
g Part 1
usemtl 0.917647_0.917647_0.917647_0.000000_0.901961
o mesh85
v -0.010369 0.000126502 0 
v -0.0103342 0.000158193 0 
v -0.0103342 0.000158193 1.5e-06 
v -0.0104024 9.34316e-05 0 
v -0.010369 0.000126502 1.5e-06 
v -0.0104345 5.90364e-05 0 
v -0.0104024 9.34316e-05 1.5e-06 
v -0.0104652 2.33724e-05 0 
v -0.0104345 5.90364e-05 1.5e-06 
v -0.0104944 -1.3502e-05 0 
v -0.0104652 2.33724e-05 1.5e-06 
v -0.0105221 -5.15267e-05 0 
v -0.0104944 -1.3502e-05 1.5e-06 
v -0.0105482 -9.06394e-05 0 
v -0.0105221 -5.15267e-05 1.5e-06 
v -0.0105727 -0.000130776 0 
v -0.0105482 -9.06394e-05 1.5e-06 
v -0.0105727 -0.000130776 1.5e-06 
vn 0.68856 -0.72518 0 
vn 0.658684 -0.75242 0 
vn 0.658684 -0.75242 0 
vn 0.71731 -0.696754 0 
vn 0.68856 -0.72518 0 
vn 0.744888 -0.667189 0 
vn 0.71731 -0.696754 0 
vn 0.771249 -0.636534 0 
vn 0.744888 -0.667189 0 
vn 0.796348 -0.604838 0 
vn 0.771249 -0.636534 0 
vn 0.820147 -0.572154 0 
vn 0.796348 -0.604838 0 
vn 0.842604 -0.538534 0 
vn 0.820147 -0.572154 0 
vn 0.863684 -0.504034 0 
vn 0.842604 -0.538534 0 
vn 0.863684 -0.504034 0 
f 1//1 2//2 3//3 
f 4//4 1//1 5//5 
f 6//6 4//4 7//7 
f 8//8 6//6 9//9 
f 10//10 8//8 11//11 
f 12//12 10//10 13//13 
f 14//14 12//12 15//15 
f 16//16 14//14 17//17 
f 17//17 18//18 16//16 
f 15//15 17//17 14//14 
f 13//13 15//15 12//12 
f 11//11 13//13 10//10 
f 9//9 11//11 8//8 
f 7//7 9//9 6//6 
f 5//5 7//7 4//4 
f 3//3 5//5 1//1 
o mesh86
v -0.0103342 0.000158193 1.5e-06 
v -0.0103342 0.000158193 0 
v -0.0099516 0.000447467 0 
v -0.0099516 0.000447467 1.5e-06 
vn 0.603082 -0.797679 0 
vn 0.603082 -0.797679 0 
vn 0.603082 -0.797679 0 
vn 0.603082 -0.797679 0 
f 19//19 20//20 21//21 
f 21//21 22//22 19//19 
o mesh87
v -0.0099516 0.000447467 1.5e-06 
v -0.0099516 0.000447467 0 
v -0.00998824 0.000694768 0 
v -0.00998824 0.000694768 1.5e-06 
vn 0.989203 0.146549 0 
vn 0.989203 0.146549 0 
vn 0.989203 0.146549 0 
vn 0.989203 0.146549 0 
f 23//23 24//24 25//25 
f 25//25 26//26 23//23 
o mesh88
v -0.00998824 0.000694768 1.5e-06 
v -0.00998824 0.000694768 0 
v -0.0102355 0.000658131 0 
v -0.0102355 0.000658131 1.5e-06 
vn -0.146549 0.989203 0 
vn -0.146549 0.989203 0 
vn -0.146549 0.989203 0 
vn -0.146549 0.989203 0 
f 27//27 28//28 29//29 
f 29//29 30//30 27//27 
o mesh89
v -0.0102355 0.000658131 1.5e-06 
v -0.0102355 0.000658131 0 
v -0.0101989 0.00041083 0 
v -0.0101989 0.00041083 1.5e-06 
vn -0.989203 -0.146549 0 
vn -0.989203 -0.146549 0 
vn -0.989203 -0.146549 0 
vn -0.989203 -0.146549 0 
f 31//31 32//32 33//33 
f 33//33 34//34 31//31 
o mesh90
v -0.0101989 0.00041083 1.5e-06 
v -0.0101989 0.00041083 0 
v -0.0104462 0.000374193 0 
v -0.0104462 0.000374193 1.5e-06 
vn -0.146549 0.989203 0 
vn -0.146549 0.989203 0 
vn -0.146549 0.989203 0 
vn -0.146549 0.989203 0 
f 35//35 36//36 37//37 
f 37//37 38//38 35//35 
o mesh91
v -0.0104462 0.000374193 1.5e-06 
v -0.0104462 0.000374193 0 
v -0.0105136 0.000829226 0 
v -0.0105136 0.000829226 1.5e-06 
vn 0.989203 0.146549 0 
vn 0.989203 0.146549 0 
vn 0.989203 0.146549 0 
vn 0.989203 0.146549 0 
f 39//39 40//40 41//41 
f 41//41 42//42 39//39 
o mesh92
v -0.0105136 0.000829226 1.5e-06 
v -0.0105136 0.000829226 0 
v -0.0107609 0.000792589 0 
v -0.0107609 0.000792589 1.5e-06 
vn -0.146549 0.989203 0 
vn -0.146549 0.989203 0 
vn -0.146549 0.989203 0 
vn -0.146549 0.989203 0 
f 43//43 44//44 45//45 
f 45//45 46//46 43//43 
o mesh93
v -0.0107609 0.000792589 1.5e-06 
v -0.0107609 0.000792589 0 
v -0.0106935 0.000337555 0 
v -0.0106935 0.000337555 1.5e-06 
vn -0.989203 -0.146549 0 
vn -0.989203 -0.146549 0 
vn -0.989203 -0.146549 0 
vn -0.989203 -0.146549 0 
f 47//47 48//48 49//49 
f 49//49 50//50 47//47 
o mesh94
v -0.0106935 0.000337555 1.5e-06 
v -0.0106935 0.000337555 0 
v -0.0109408 0.000300918 0 
v -0.0109408 0.000300918 1.5e-06 
vn -0.146549 0.989203 0 
vn -0.146549 0.989203 0 
vn -0.146549 0.989203 0 
vn -0.146549 0.989203 0 
f 51//51 52//52 53//53 
f 53//53 54//54 51//51 
o mesh95
v -0.0109408 0.000300918 1.5e-06 
v -0.0109408 0.000300918 0 
v -0.0109774 0.000548219 0 
v -0.0109774 0.000548219 1.5e-06 
vn 0.989203 0.146549 0 
vn 0.989203 0.146549 0 
vn 0.989203 0.146549 0 
vn 0.989203 0.146549 0 
f 55//55 56//56 57//57 
f 57//57 58//58 55//55 
o mesh96
v -0.0109774 0.000548219 1.5e-06 
v -0.0109774 0.000548219 0 
v -0.0112247 0.000511582 0 
v -0.0112247 0.000511582 1.5e-06 
vn -0.146549 0.989203 0 
vn -0.146549 0.989203 0 
vn -0.146549 0.989203 0 
vn -0.146549 0.989203 0 
f 59//59 60//60 61//61 
f 61//61 62//62 59//59 
o mesh97
v -0.0112247 0.000511582 1.5e-06 
v -0.0112247 0.000511582 0 
v -0.0112555 0.000719314 0 
v -0.0112555 0.000719314 1.5e-06 
vn 0.989203 0.146549 0 
vn 0.989203 0.146549 0 
vn 0.989203 0.146549 0 
vn 0.989203 0.146549 0 
f 63//63 64//64 65//65 
f 65//65 66//66 63//63 
o mesh98
v -0.011305 0.000823149 0 
v -0.011305 0.000823149 1.5e-06 
v -0.0112996 0.000816837 1.5e-06 
v -0.0112996 0.000816837 0 
v -0.0112944 0.000810309 1.5e-06 
v -0.0112944 0.000810309 0 
v -0.0112895 0.000803574 1.5e-06 
v -0.0112895 0.000803574 0 
v -0.0112849 0.000796644 1.5e-06 
v -0.0112849 0.000796644 0 
v -0.0112806 0.000789531 1.5e-06 
v -0.0112806 0.000789531 0 
v -0.0112765 0.000782246 1.5e-06 
v -0.0112765 0.000782246 0 
v -0.0112728 0.000774802 1.5e-06 
v -0.0112728 0.000774802 0 
v -0.0112694 0.000767212 1.5e-06 
v -0.0112694 0.000767212 0 
v -0.0112662 0.000759488 1.5e-06 
v -0.0112662 0.000759488 0 
v -0.0112634 0.000751642 1.5e-06 
v -0.0112634 0.000751642 0 
v -0.011261 0.000743689 1.5e-06 
v -0.011261 0.000743689 0 
v -0.0112588 0.00073564 1.5e-06 
v -0.0112588 0.00073564 0 
v -0.011257 0.000727511 1.5e-06 
v -0.011257 0.000727511 0 
v -0.0112555 0.000719314 1.5e-06 
v -0.0112555 0.000719314 0 
vn 0.744211 0.667945 0 
vn 0.744211 0.667945 0 
vn 0.770921 0.636931 0 
vn 0.770921 0.636931 0 
vn 0.796339 0.604851 0 
vn 0.796339 0.604851 0 
vn 0.820423 0.571757 0 
vn 0.820423 0.571757 0 
vn 0.843133 0.537705 0 
vn 0.843133 0.537705 0 
vn 0.86443 0.502752 0 
vn 0.86443 0.502752 0 
vn 0.88428 0.466958 0 
vn 0.88428 0.466958 0 
vn 0.902647 0.430381 0 
vn 0.902647 0.430381 0 
vn 0.919503 0.393083 0 
vn 0.919503 0.393083 0 
vn 0.934818 0.355126 0 
vn 0.934818 0.355126 0 
vn 0.948568 0.316575 0 
vn 0.948568 0.316575 0 
vn 0.960728 0.277493 0 
vn 0.960728 0.277493 0 
vn 0.971278 0.237946 0 
vn 0.971278 0.237946 0 
vn 0.980202 0.198001 0 
vn 0.980202 0.198001 0 
vn 0.987483 0.157724 0 
vn 0.987483 0.157724 0 
f 67//67 68//68 69//69 
f 70//70 69//69 71//71 
f 72//72 71//71 73//73 
f 74//74 73//73 75//75 
f 76//76 75//75 77//77 
f 78//78 77//77 79//79 
f 80//80 79//79 81//81 
f 82//82 81//81 83//83 
f 84//84 83//83 85//85 
f 86//86 85//85 87//87 
f 88//88 87//87 89//89 
f 90//90 89//89 91//91 
f 92//92 91//91 93//93 
f 94//94 93//93 95//95 
f 95//95 96//96 94//94 
f 93//93 94//94 92//92 
f 91//91 92//92 90//90 
f 89//89 90//90 88//88 
f 87//87 88//88 86//86 
f 85//85 86//86 84//84 
f 83//83 84//84 82//82 
f 81//81 82//82 80//80 
f 79//79 80//80 78//78 
f 77//77 78//78 76//76 
f 75//75 76//76 74//74 
f 73//73 74//74 72//72 
f 71//71 72//72 70//70 
f 69//69 70//70 67//67 
o mesh99
v -0.0113614 0.000924249 0 
v -0.0113647 0.000935425 0 
v -0.0113647 0.000935425 1.5e-06 
v -0.0113576 0.000913215 0 
v -0.0113614 0.000924249 1.5e-06 
v -0.0113534 0.00090234 0 
v -0.0113576 0.000913215 1.5e-06 
v -0.0113488 0.000891643 0 
v -0.0113534 0.00090234 1.5e-06 
v -0.0113438 0.000881141 0 
v -0.0113488 0.000891643 1.5e-06 
v -0.0113383 0.00087085 0 
v -0.0113438 0.000881141 1.5e-06 
v -0.0113324 0.000860789 0 
v -0.0113383 0.00087085 1.5e-06 
v -0.0113262 0.000850972 0 
v -0.0113324 0.000860789 1.5e-06 
v -0.0113195 0.000841416 0 
v -0.0113262 0.000850972 1.5e-06 
v -0.0113124 0.000832137 0 
v -0.0113195 0.000841416 1.5e-06 
v -0.011305 0.000823149 0 
v -0.0113124 0.000832137 1.5e-06 
v -0.011305 0.000823149 1.5e-06 
vn 0.953286 0.302069 0 
vn 0.964685 0.263406 0 
vn 0.964685 0.263406 0 
vn 0.940338 0.340242 0 
vn 0.953286 0.302069 0 
vn 0.925862 0.377862 0 
vn 0.940338 0.340242 0 
vn 0.909882 0.414867 0 
vn 0.925862 0.377862 0 
vn 0.892423 0.451199 0 
vn 0.909882 0.414867 0 
vn 0.873515 0.486798 0 
vn 0.892423 0.451199 0 
vn 0.853187 0.521605 0 
vn 0.873515 0.486798 0 
vn 0.831473 0.555565 0 
vn 0.853187 0.521605 0 
vn 0.808408 0.588623 0 
vn 0.831473 0.555565 0 
vn 0.784029 0.620724 0 
vn 0.808408 0.588623 0 
vn 0.758377 0.651816 0 
vn 0.784029 0.620724 0 
vn 0.758377 0.651816 0 
f 97//97 98//98 99//99 
f 100//100 97//97 101//101 
f 102//102 100//100 103//103 
f 104//104 102//102 105//105 
f 106//106 104//104 107//107 
f 108//108 106//106 109//109 
f 110//110 108//108 111//111 
f 112//112 110//110 113//113 
f 114//114 112//112 115//115 
f 116//116 114//114 117//117 
f 118//118 116//116 119//119 
f 119//119 120//120 118//118 
f 117//117 119//119 116//116 
f 115//115 117//117 114//114 
f 113//113 115//115 112//112 
f 111//111 113//113 110//110 
f 109//109 111//111 108//108 
f 107//107 109//109 106//106 
f 105//105 107//107 104//104 
f 103//103 105//105 102//102 
f 101//101 103//103 100//100 
f 99//99 101//101 97//97 
o mesh100
v -0.0114338 0.00108946 0 
v -0.0114338 0.00108946 1.5e-06 
v -0.0114241 0.00107547 1.5e-06 
v -0.0114241 0.00107547 0 
v -0.011415 0.00106111 1.5e-06 
v -0.011415 0.00106111 0 
v -0.0114065 0.00104639 1.5e-06 
v -0.0114065 0.00104639 0 
v -0.0113986 0.00103133 1.5e-06 
v -0.0113986 0.00103133 0 
v -0.0113913 0.00101597 1.5e-06 
v -0.0113913 0.00101597 0 
v -0.0113847 0.00100032 1.5e-06 
v -0.0113847 0.00100032 0 
v -0.0113787 0.000984416 1.5e-06 
v -0.0113787 0.000984416 0 
v -0.0113734 0.000968281 1.5e-06 
v -0.0113734 0.000968281 0 
v -0.0113687 0.000951942 1.5e-06 
v -0.0113687 0.000951942 0 
v -0.0113647 0.000935425 1.5e-06 
v -0.0113647 0.000935425 0 
vn 0.810898 0.585187 0 
vn 0.810898 0.585187 0 
vn 0.834031 0.551718 0 
vn 0.834031 0.551718 0 
vn 0.855783 0.517335 0 
vn 0.855783 0.517335 0 
vn 0.876118 0.482096 0 
vn 0.876118 0.482096 0 
vn 0.895004 0.446059 0 
vn 0.895004 0.446059 0 
vn 0.912407 0.409284 0 
vn 0.912407 0.409284 0 
vn 0.928301 0.371831 0 
vn 0.928301 0.371831 0 
vn 0.942657 0.333762 0 
vn 0.942657 0.333762 0 
vn 0.955454 0.295141 0 
vn 0.955454 0.295141 0 
vn 0.966668 0.256032 0 
vn 0.966668 0.256032 0 
vn 0.976283 0.216498 0 
vn 0.976283 0.216498 0 
f 121//121 122//122 123//123 
f 124//124 123//123 125//125 
f 126//126 125//125 127//127 
f 128//128 127//127 129//129 
f 130//130 129//129 131//131 
f 132//132 131//131 133//133 
f 134//134 133//133 135//135 
f 136//136 135//135 137//137 
f 138//138 137//137 139//139 
f 140//140 139//139 141//141 
f 141//141 142//142 140//140 
f 139//139 140//140 138//138 
f 137//137 138//138 136//136 
f 135//135 136//136 134//134 
f 133//133 134//134 132//132 
f 131//131 132//132 130//130 
f 129//129 130//130 128//128 
f 127//127 128//128 126//126 
f 125//125 126//126 124//124 
f 123//123 124//124 121//121 
o mesh101
v -0.0115479 0.00119351 0 
v -0.0115479 0.00119351 1.5e-06 
v -0.0115299 0.00118058 1.5e-06 
v -0.0115299 0.00118058 0 
v -0.0115125 0.00116697 1.5e-06 
v -0.0115125 0.00116697 0 
v -0.0114956 0.0011527 1.5e-06 
v -0.0114956 0.0011527 0 
v -0.0114792 0.00113779 1.5e-06 
v -0.0114792 0.00113779 0 
v -0.0114634 0.00112226 1.5e-06 
v -0.0114634 0.00112226 0 
v -0.0114483 0.00110615 1.5e-06 
v -0.0114483 0.00110615 0 
v -0.0114338 0.00108946 1.5e-06 
v -0.0114338 0.00108946 0 
vn 0.56864 0.822586 0 
vn 0.56864 0.822586 0 
vn 0.599809 0.800143 0 
vn 0.599809 0.800143 0 
vn 0.630094 0.776519 0 
vn 0.630094 0.776519 0 
vn 0.659449 0.75175 0 
vn 0.659449 0.75175 0 
vn 0.687831 0.725871 0 
vn 0.687831 0.725871 0 
vn 0.715198 0.698922 0 
vn 0.715198 0.698922 0 
vn 0.74151 0.670942 0 
vn 0.74151 0.670942 0 
vn 0.766728 0.641972 0 
vn 0.766728 0.641972 0 
f 143//143 144//144 145//145 
f 146//146 145//145 147//147 
f 148//148 147//147 149//149 
f 150//150 149//149 151//151 
f 152//152 151//151 153//153 
f 154//154 153//153 155//155 
f 156//156 155//155 157//157 
f 157//157 158//158 156//156 
f 155//155 156//156 154//154 
f 153//153 154//154 152//152 
f 151//151 152//152 150//150 
f 149//149 150//150 148//148 
f 147//147 148//148 146//146 
f 145//145 146//146 143//143 
o mesh102
v -0.0118446 0.0012781 0 
v -0.0118446 0.0012781 1.5e-06 
v -0.0118222 0.00127796 1.5e-06 
v -0.0118222 0.00127796 0 
v -0.0117999 0.00127688 1.5e-06 
v -0.0117999 0.00127688 0 
v -0.0117776 0.00127487 1.5e-06 
v -0.0117776 0.00127487 0 
v -0.0117555 0.00127193 1.5e-06 
v -0.0117555 0.00127193 0 
v -0.0117335 0.00126808 1.5e-06 
v -0.0117335 0.00126808 0 
v -0.0117116 0.0012633 1.5e-06 
v -0.0117116 0.0012633 0 
v -0.01169 0.00125762 1.5e-06 
v -0.01169 0.00125762 0 
v -0.0116686 0.00125105 1.5e-06 
v -0.0116686 0.00125105 0 
v -0.0116476 0.00124359 1.5e-06 
v -0.0116476 0.00124359 0 
v -0.0116268 0.00123525 1.5e-06 
v -0.0116268 0.00123525 0 
v -0.0116065 0.00122606 1.5e-06 
v -0.0116065 0.00122606 0 
v -0.0115865 0.00121603 1.5e-06 
v -0.0115865 0.00121603 0 
v -0.0115669 0.00120517 1.5e-06 
v -0.0115669 0.00120517 0 
v -0.0115479 0.00119351 1.5e-06 
v -0.0115479 0.00119351 0 
vn -0.0143098 0.999898 0 
vn -0.0143098 0.999898 0 
vn 0.0274083 0.999624 0 
vn 0.0274083 0.999624 0 
vn 0.0690787 0.997611 0 
vn 0.0690787 0.997611 0 
vn 0.110629 0.993862 0 
vn 0.110629 0.993862 0 
vn 0.151986 0.988383 0 
vn 0.151986 0.988383 0 
vn 0.19308 0.981183 0 
vn 0.19308 0.981183 0 
vn 0.233837 0.972276 0 
vn 0.233837 0.972276 0 
vn 0.274187 0.961677 0 
vn 0.274187 0.961677 0 
vn 0.314059 0.949403 0 
vn 0.314059 0.949403 0 
vn 0.353386 0.935478 0 
vn 0.353386 0.935478 0 
vn 0.392097 0.919924 0 
vn 0.392097 0.919924 0 
vn 0.430126 0.902769 0 
vn 0.430126 0.902769 0 
vn 0.467406 0.884043 0 
vn 0.467406 0.884043 0 
vn 0.503872 0.863778 0 
vn 0.503872 0.863778 0 
vn 0.539462 0.84201 0 
vn 0.539462 0.84201 0 
f 159//159 160//160 161//161 
f 162//162 161//161 163//163 
f 164//164 163//163 165//165 
f 166//166 165//165 167//167 
f 168//168 167//167 169//169 
f 170//170 169//169 171//171 
f 172//172 171//171 173//173 
f 174//174 173//173 175//175 
f 176//176 175//175 177//177 
f 178//178 177//177 179//179 
f 180//180 179//179 181//181 
f 182//182 181//181 183//183 
f 184//184 183//183 185//185 
f 186//186 185//185 187//187 
f 187//187 188//188 186//186 
f 185//185 186//186 184//184 
f 183//183 184//184 182//182 
f 181//181 182//182 180//180 
f 179//179 180//180 178//178 
f 177//177 178//178 176//176 
f 175//175 176//176 174//174 
f 173//173 174//174 172//172 
f 171//171 172//172 170//170 
f 169//169 170//170 168//168 
f 167//167 168//168 166//166 
f 165//165 166//166 164//164 
f 163//163 164//164 162//162 
f 161//161 162//162 159//159 
o mesh103
v -0.0118446 0.0012781 1.5e-06 
v -0.0118446 0.0012781 0 
v -0.0175537 0.0012781 0 
v -0.0175537 0.0012781 1.5e-06 
vn -4.59441e-07 1 0 
vn -4.59441e-07 1 0 
vn -4.59441e-07 1 0 
vn -4.59441e-07 1 0 
f 189//189 190//190 191//191 
f 191//191 192//192 189//189 
o mesh104
v -0.0175537 0.0012781 0 
v -0.018402 0.00128317 0 
v -0.018402 0.00128317 1.5e-06 
v -0.0175537 0.0012781 1.5e-06 
vn 0.00394782 0.999992 0 
vn 0.00799252 0.999968 0 
vn 0.00799252 0.999968 0 
vn 0.00394782 0.999992 0 
f 193//193 194//194 195//195 
f 195//195 196//196 193//193 
o mesh105
v -0.0196963 0.00122645 0 
v -0.0196963 0.00122645 1.5e-06 
v -0.018402 0.00128317 1.5e-06 
v -0.018402 0.00128317 0 
vn -0.063695 0.997969 0 
vn -0.063695 0.997969 0 
vn -0.0238403 0.999716 0 
vn -0.0238403 0.999716 0 
f 197//197 198//198 199//199 
f 199//199 200//200 197//197 
o mesh106
v -0.0210966 0.00100658 0 
v -0.0210966 0.00100658 1.5e-06 
v -0.02075 0.00108157 1.5e-06 
v -0.02075 0.00108157 0 
v -0.0204007 0.00114327 1.5e-06 
v -0.0204007 0.00114327 0 
v -0.0200493 0.00119159 1.5e-06 
v -0.0200493 0.00119159 0 
v -0.0196963 0.00122645 1.5e-06 
v -0.0196963 0.00122645 0 
vn -0.230027 0.973184 0 
vn -0.230027 0.973184 0 
vn -0.192709 0.981256 0 
vn -0.192709 0.981256 0 
vn -0.15511 0.987897 0 
vn -0.15511 0.987897 0 
vn -0.117286 0.993098 0 
vn -0.117286 0.993098 0 
vn -0.0792902 0.996852 0 
vn -0.0792902 0.996852 0 
f 201//201 202//202 203//203 
f 204//204 203//203 205//205 
f 206//206 205//205 207//207 
f 208//208 207//207 209//209 
f 209//209 210//210 208//208 
f 207//207 208//208 206//206 
f 205//205 206//206 204//204 
f 203//203 204//204 201//201 
o mesh107
v -0.0215562 0.000884324 0 
v -0.0215562 0.000884324 1.5e-06 
v -0.0213273 0.000948945 1.5e-06 
v -0.0213273 0.000948945 0 
v -0.0210966 0.00100658 1.5e-06 
v -0.0210966 0.00100658 0 
vn -0.286349 0.958125 0 
vn -0.286349 0.958125 0 
vn -0.257112 0.966382 0 
vn -0.257112 0.966382 0 
vn -0.227638 0.973746 0 
vn -0.227638 0.973746 0 
f 211//211 212//212 213//213 
f 214//214 213//213 215//215 
f 215//215 216//216 214//214 
f 213//213 214//214 211//211 
o mesh108
v -0.0223776 0.000566903 0 
v -0.0223776 0.000566903 1.5e-06 
v -0.0221773 0.000658972 1.5e-06 
v -0.0221773 0.000658972 0 
v -0.0219735 0.000742659 1.5e-06 
v -0.0219735 0.000742659 0 
v -0.0217663 0.00081782 1.5e-06 
v -0.0217663 0.00081782 0 
v -0.0215562 0.000884324 1.5e-06 
v -0.0215562 0.000884324 0 
vn -0.436511 0.899699 0 
vn -0.436511 0.899699 0 
vn -0.398827 0.917026 0 
vn -0.398827 0.917026 0 
vn -0.360456 0.932776 0 
vn -0.360456 0.932776 0 
vn -0.321466 0.946921 0 
vn -0.321466 0.946921 0 
vn -0.281923 0.959437 0 
vn -0.281923 0.959437 0 
f 217//217 218//218 219//219 
f 220//220 219//219 221//221 
f 222//222 221//221 223//223 
f 224//224 223//223 225//225 
f 225//225 226//226 224//224 
f 223//223 224//224 222//222 
f 221//221 222//222 220//220 
f 219//219 220//220 217//217 
o mesh109
v -0.0230112 0.000154126 0 
v -0.0230112 0.000154126 1.5e-06 
v -0.0229276 0.000223103 1.5e-06 
v -0.0229276 0.000223103 0 
v -0.0228416 0.000288891 1.5e-06 
v -0.0228416 0.000288891 0 
v -0.0227531 0.000351397 1.5e-06 
v -0.0227531 0.000351397 0 
v -0.0226623 0.000410532 1.5e-06 
v -0.0226623 0.000410532 0 
v -0.0225694 0.000466213 1.5e-06 
v -0.0225694 0.000466213 0 
v -0.0224744 0.000518361 1.5e-06 
v -0.0224744 0.000518361 0 
v -0.0223776 0.000566903 1.5e-06 
v -0.0223776 0.000566903 0 
vn -0.651093 0.758998 0 
vn -0.651093 0.758998 0 
vn -0.622099 0.782938 0 
vn -0.622099 0.782938 0 
vn -0.592226 0.805772 0 
vn -0.592226 0.805772 0 
vn -0.561516 0.827466 0 
vn -0.561516 0.827466 0 
vn -0.530012 0.84799 0 
vn -0.530012 0.84799 0 
vn -0.497759 0.867315 0 
vn -0.497759 0.867315 0 
vn -0.464802 0.885415 0 
vn -0.464802 0.885415 0 
vn -0.431188 0.902262 0 
vn -0.431188 0.902262 0 
f 227//227 228//228 229//229 
f 230//230 229//229 231//231 
f 232//232 231//231 233//233 
f 234//234 233//233 235//235 
f 236//236 235//235 237//237 
f 238//238 237//237 239//239 
f 240//240 239//239 241//241 
f 241//241 242//242 240//240 
f 239//239 240//240 238//238 
f 237//237 238//238 236//236 
f 235//235 236//236 234//234 
f 233//233 234//234 232//232 
f 231//231 232//232 230//230 
f 229//229 230//230 227//227 
o mesh110
v -0.0232361 -8.62764e-05 0 
v -0.0232361 -8.62764e-05 1.5e-06 
v -0.0231952 -3.45575e-05 1.5e-06 
v -0.0231952 -3.45575e-05 0 
v -0.0231521 1.5426e-05 1.5e-06 
v -0.0231521 1.5426e-05 0 
v -0.0231071 6.35888e-05 1.5e-06 
v -0.0231071 6.35888e-05 0 
v -0.0230601 0.000109849 1.5e-06 
v -0.0230601 0.000109849 0 
v -0.0230112 0.000154126 1.5e-06 
v -0.0230112 0.000154126 0 
vn -0.796811 0.604229 0 
vn -0.796811 0.604229 0 
vn -0.771163 0.636637 0 
vn -0.771163 0.636637 0 
vn -0.744199 0.667958 0 
vn -0.744199 0.667958 0 
vn -0.715963 0.698138 0 
vn -0.715963 0.698138 0 
vn -0.686505 0.727125 0 
vn -0.686505 0.727125 0 
vn -0.655874 0.754871 0 
vn -0.655874 0.754871 0 
f 243//243 244//244 245//245 
f 246//246 245//245 247//247 
f 248//248 247//247 249//249 
f 250//250 249//249 251//251 
f 252//252 251//251 253//253 
f 253//253 254//254 252//252 
f 251//251 252//252 250//250 
f 249//249 250//250 248//248 
f 247//247 248//248 246//246 
f 245//245 246//246 243//243 
o mesh111
v -0.023376 -0.000314075 0 
v -0.023376 -0.000314075 1.5e-06 
v -0.0233567 -0.000273826 1.5e-06 
v -0.0233567 -0.000273826 0 
v -0.0233357 -0.000234403 1.5e-06 
v -0.0233357 -0.000234403 0 
v -0.0233131 -0.000195873 1.5e-06 
v -0.0233131 -0.000195873 0 
v -0.0232889 -0.0001583 1.5e-06 
v -0.0232889 -0.0001583 0 
v -0.0232632 -0.000121747 1.5e-06 
v -0.0232632 -0.000121747 0 
v -0.0232361 -8.62764e-05 1.5e-06 
v -0.0232361 -8.62764e-05 0 
vn -0.909781 0.415089 0 
vn -0.909781 0.415089 0 
vn -0.892027 0.451982 0 
vn -0.892027 0.451982 0 
vn -0.872778 0.488117 0 
vn -0.872778 0.488117 0 
vn -0.852066 0.523434 0 
vn -0.852066 0.523434 0 
vn -0.829926 0.557874 0 
vn -0.829926 0.557874 0 
vn -0.806394 0.591378 0 
vn -0.806394 0.591378 0 
vn -0.781511 0.623892 0 
vn -0.781511 0.623892 0 
f 255//255 256//256 257//257 
f 258//258 257//257 259//259 
f 260//260 259//259 261//261 
f 262//262 261//261 263//263 
f 264//264 263//263 265//265 
f 266//266 265//265 267//267 
f 267//267 268//268 266//266 
f 265//265 266//266 264//264 
f 263//263 264//264 262//262 
f 261//261 262//262 260//260 
f 259//259 260//260 258//258 
f 257//257 258//258 255//255 
o mesh112
v -0.0234208 -0.000597725 0 
v -0.0234208 -0.000597725 1.5e-06 
v -0.0234219 -0.000568808 1.5e-06 
v -0.0234219 -0.000568808 0 
v -0.0234217 -0.000539872 1.5e-06 
v -0.0234217 -0.000539872 0 
v -0.0234203 -0.00051097 1.5e-06 
v -0.0234203 -0.00051097 0 
v -0.0234176 -0.000482157 1.5e-06 
v -0.0234176 -0.000482157 0 
v -0.0234137 -0.000453485 1.5e-06 
v -0.0234137 -0.000453485 0 
v -0.0234086 -0.000425006 1.5e-06 
v -0.0234086 -0.000425006 0 
v -0.0234022 -0.000396775 1.5e-06 
v -0.0234022 -0.000396775 0 
v -0.0233947 -0.000368841 1.5e-06 
v -0.0233947 -0.000368841 0 
v -0.0233859 -0.000341258 1.5e-06 
v -0.0233859 -0.000341258 0 
v -0.023376 -0.000314075 1.5e-06 
v -0.023376 -0.000314075 0 
vn -0.99832 -0.0579441 0 
vn -0.99832 -0.0579441 0 
vn -0.999887 -0.0150366 0 
vn -0.999887 -0.0150366 0 
vn -0.999611 0.0278986 0 
vn -0.999611 0.0278986 0 
vn -0.997492 0.0707824 0 
vn -0.997492 0.0707824 0 
vn -0.993534 0.113536 0 
vn -0.993534 0.113536 0 
vn -0.987744 0.15608 0 
vn -0.987744 0.15608 0 
vn -0.980134 0.198336 0 
vn -0.980134 0.198336 0 
vn -0.970717 0.240226 0 
vn -0.970717 0.240226 0 
vn -0.95951 0.281674 0 
vn -0.95951 0.281674 0 
vn -0.946534 0.322603 0 
vn -0.946534 0.322603 0 
vn -0.931814 0.362936 0 
vn -0.931814 0.362936 0 
f 269//269 270//270 271//271 
f 272//272 271//271 273//273 
f 274//274 273//273 275//275 
f 276//276 275//275 277//277 
f 278//278 277//277 279//279 
f 280//280 279//279 281//281 
f 282//282 281//281 283//283 
f 284//284 283//283 285//285 
f 286//286 285//285 287//287 
f 288//288 287//287 289//289 
f 289//289 290//290 288//288 
f 287//287 288//288 286//286 
f 285//285 286//286 284//284 
f 283//283 284//284 282//282 
f 281//281 282//282 280//280 
f 279//279 280//280 278//278 
f 277//277 278//278 276//276 
f 275//275 276//276 274//274 
f 273//273 274//274 272//272 
f 271//271 272//272 269//269 
o mesh113
v -0.0226606 -0.00191933 0 
v -0.0226606 -0.00191933 1.5e-06 
v -0.0227304 -0.00185991 1.5e-06 
v -0.0227304 -0.00185991 0 
v -0.0227976 -0.00179753 1.5e-06 
v -0.0227976 -0.00179753 0 
v -0.0228621 -0.00173233 1.5e-06 
v -0.0228621 -0.00173233 0 
v -0.0229238 -0.00166441 1.5e-06 
v -0.0229238 -0.00166441 0 
v -0.0229824 -0.00159391 1.5e-06 
v -0.0229824 -0.00159391 0 
v -0.023038 -0.00152096 1.5e-06 
v -0.023038 -0.00152096 0 
v -0.0230904 -0.00144569 1.5e-06 
v -0.0230904 -0.00144569 0 
v -0.0231395 -0.00136823 1.5e-06 
v -0.0231395 -0.00136823 0 
v -0.0231852 -0.00128874 1.5e-06 
v -0.0231852 -0.00128874 0 
v -0.0232275 -0.00120736 1.5e-06 
v -0.0232275 -0.00120736 0 
v -0.0232662 -0.00112424 1.5e-06 
v -0.0232662 -0.00112424 0 
v -0.0233013 -0.00103953 1.5e-06 
v -0.0233013 -0.00103953 0 
v -0.0233328 -0.000953386 1.5e-06 
v -0.0233328 -0.000953386 0 
v -0.0233605 -0.000865972 1.5e-06 
v -0.0233605 -0.000865972 0 
v -0.0233845 -0.000777449 1.5e-06 
v -0.0233845 -0.000777449 0 
v -0.0234046 -0.000687978 1.5e-06 
v -0.0234046 -0.000687978 0 
v -0.0234208 -0.000597725 1.5e-06 
v -0.0234208 -0.000597725 0 
vn -0.631518 -0.775361 0 
vn -0.631518 -0.775361 0 
vn -0.664243 -0.747517 0 
vn -0.664243 -0.747517 0 
vn -0.695741 -0.718293 0 
vn -0.695741 -0.718293 0 
vn -0.725955 -0.687742 0 
vn -0.725955 -0.687742 0 
vn -0.754828 -0.655922 0 
vn -0.754828 -0.655922 0 
vn -0.782309 -0.622891 0 
vn -0.782309 -0.622891 0 
vn -0.808344 -0.58871 0 
vn -0.808344 -0.58871 0 
vn -0.832888 -0.553442 0 
vn -0.832888 -0.553442 0 
vn -0.855893 -0.517152 0 
vn -0.855893 -0.517152 0 
vn -0.877319 -0.479908 0 
vn -0.877319 -0.479908 0 
vn -0.897125 -0.441777 0 
vn -0.897125 -0.441777 0 
vn -0.915274 -0.402831 0 
vn -0.915274 -0.402831 0 
vn -0.931734 -0.363142 0 
vn -0.931734 -0.363142 0 
vn -0.946474 -0.322781 0 
vn -0.946474 -0.322781 0 
vn -0.959466 -0.281825 0 
vn -0.959466 -0.281825 0 
vn -0.970687 -0.240349 0 
vn -0.970687 -0.240349 0 
vn -0.980115 -0.198429 0 
vn -0.980115 -0.198429 0 
vn -0.987735 -0.156142 0 
vn -0.987735 -0.156142 0 
f 291//291 292//292 293//293 
f 294//294 293//293 295//295 
f 296//296 295//295 297//297 
f 298//298 297//297 299//299 
f 300//300 299//299 301//301 
f 302//302 301//301 303//303 
f 304//304 303//303 305//305 
f 306//306 305//305 307//307 
f 308//308 307//307 309//309 
f 310//310 309//309 311//311 
f 312//312 311//311 313//313 
f 314//314 313//313 315//315 
f 316//316 315//315 317//317 
f 318//318 317//317 319//319 
f 320//320 319//319 321//321 
f 322//322 321//321 323//323 
f 324//324 323//323 325//325 
f 325//325 326//326 324//324 
f 323//323 324//324 322//322 
f 321//321 322//322 320//320 
f 319//319 320//320 318//318 
f 317//317 318//318 316//316 
f 315//315 316//316 314//314 
f 313//313 314//314 312//312 
f 311//311 312//312 310//310 
f 309//309 310//310 308//308 
f 307//307 308//308 306//306 
f 305//305 306//306 304//304 
f 303//303 304//304 302//302 
f 301//301 302//302 300//300 
f 299//299 300//300 298//298 
f 297//297 298//298 296//296 
f 295//295 296//296 294//294 
f 293//293 294//294 291//291 
o mesh114
v -0.0215106 -0.0026694 0 
v -0.0215106 -0.0026694 1.5e-06 
v -0.0216869 -0.00258209 1.5e-06 
v -0.0216869 -0.00258209 0 
v -0.0218596 -0.0024879 1.5e-06 
v -0.0218596 -0.0024879 0 
v -0.0220285 -0.00238699 1.5e-06 
v -0.0220285 -0.00238699 0 
v -0.0221933 -0.0022795 1.5e-06 
v -0.0221933 -0.0022795 0 
v -0.0223538 -0.00216561 1.5e-06 
v -0.0223538 -0.00216561 0 
v -0.0225096 -0.00204549 1.5e-06 
v -0.0225096 -0.00204549 0 
v -0.0226606 -0.00191933 1.5e-06 
v -0.0226606 -0.00191933 0 
vn -0.426051 -0.904699 0 
vn -0.426051 -0.904699 0 
vn -0.461337 -0.887225 0 
vn -0.461337 -0.887225 0 
vn -0.495907 -0.868376 0 
vn -0.495907 -0.868376 0 
vn -0.529709 -0.84818 0 
vn -0.529709 -0.84818 0 
vn -0.562689 -0.826669 0 
vn -0.562689 -0.826669 0 
vn -0.594797 -0.803876 0 
vn -0.594797 -0.803876 0 
vn -0.625982 -0.779837 0 
vn -0.625982 -0.779837 0 
vn -0.656197 -0.754589 0 
vn -0.656197 -0.754589 0 
f 327//327 328//328 329//329 
f 330//330 329//329 331//331 
f 332//332 331//331 333//333 
f 334//334 333//333 335//335 
f 336//336 335//335 337//337 
f 338//338 337//337 339//339 
f 340//340 339//339 341//341 
f 341//341 342//342 340//340 
f 339//339 340//340 338//338 
f 337//337 338//338 336//336 
f 335//335 336//336 334//334 
f 333//333 334//334 332//332 
f 331//331 332//332 330//330 
f 329//329 330//330 327//327 
o mesh115
v -0.0215106 -0.0026694 0 
v -0.0213826 -0.00273167 0 
v -0.0213826 -0.00273167 1.5e-06 
v -0.0215106 -0.0026694 1.5e-06 
vn -0.437555 -0.899192 0 
vn -0.437555 -0.899192 0 
vn -0.437555 -0.899192 0 
vn -0.437555 -0.899192 0 
f 343//343 344//344 345//345 
f 345//345 346//346 343//343 
o mesh116
v -0.0206248 -0.00305778 0 
v -0.0206248 -0.00305778 1.5e-06 
v -0.0210069 -0.00290219 1.5e-06 
v -0.0210069 -0.00290219 0 
v -0.0213826 -0.00273167 1.5e-06 
v -0.0213826 -0.00273167 0 
vn -0.358758 -0.933431 0 
vn -0.358758 -0.933431 0 
vn -0.395274 -0.918563 0 
vn -0.395274 -0.918563 0 
vn -0.431175 -0.902268 0 
vn -0.431175 -0.902268 0 
f 347//347 348//348 349//349 
f 350//350 349//349 351//351 
f 351//351 352//352 350//350 
f 349//349 350//350 347//347 
o mesh117
v -0.0189393 -0.00359036 0 
v -0.0189393 -0.00359036 1.5e-06 
v -0.0195073 -0.00343292 1.5e-06 
v -0.0195073 -0.00343292 0 
v -0.0200694 -0.00325532 1.5e-06 
v -0.0200694 -0.00325532 0 
v -0.0206248 -0.00305778 1.5e-06 
v -0.0206248 -0.00305778 0 
vn -0.249863 -0.968281 0 
vn -0.249863 -0.968281 0 
vn -0.284238 -0.958754 0 
vn -0.284238 -0.958754 0 
vn -0.318252 -0.948006 0 
vn -0.318252 -0.948006 0 
vn -0.351861 -0.936052 0 
vn -0.351861 -0.936052 0 
f 353//353 354//354 355//355 
f 356//356 355//355 357//357 
f 358//358 357//357 359//359 
f 359//359 360//360 358//358 
f 357//357 358//358 356//356 
f 355//355 356//356 353//353 
o mesh118
v -0.0169259 -0.00398028 0 
v -0.0169259 -0.00398028 1.5e-06 
v -0.0174343 -0.00391068 1.5e-06 
v -0.0174343 -0.00391068 0 
v -0.0179397 -0.00382241 1.5e-06 
v -0.0179397 -0.00382241 0 
v -0.0184416 -0.00371559 1.5e-06 
v -0.0184416 -0.00371559 0 
v -0.0189393 -0.00359036 1.5e-06 
v -0.0189393 -0.00359036 0 
vn -0.117355 -0.99309 0 
vn -0.117355 -0.99309 0 
vn -0.153845 -0.988095 0 
vn -0.153845 -0.988095 0 
vn -0.190126 -0.98176 0 
vn -0.190126 -0.98176 0 
vn -0.22615 -0.974093 0 
vn -0.22615 -0.974093 0 
vn -0.261867 -0.965104 0 
vn -0.261867 -0.965104 0 
f 361//361 362//362 363//363 
f 364//364 363//363 365//365 
f 366//366 365//365 367//367 
f 368//368 367//367 369//369 
f 369//369 370//370 368//368 
f 367//367 368//368 366//366 
f 365//365 366//366 364//364 
f 363//363 364//364 361//361 
o mesh119
v -0.0169259 -0.00398028 0 
v -0.0167724 -0.00399908 0 
v -0.0167724 -0.00399908 1.5e-06 
v -0.0169259 -0.00398028 1.5e-06 
vn -0.121615 -0.992577 0 
vn -0.121615 -0.992577 0 
vn -0.121615 -0.992577 0 
vn -0.121615 -0.992577 0 
f 371//371 372//372 373//373 
f 373//373 374//374 371//371 
o mesh120
v -0.0152096 -0.00398514 0 
v -0.0152096 -0.00398514 1.5e-06 
v -0.0155215 -0.00401106 1.5e-06 
v -0.0155215 -0.00401106 0 
v -0.0158342 -0.00402543 1.5e-06 
v -0.0158342 -0.00402543 0 
v -0.0161472 -0.00402822 1.5e-06 
v -0.0161472 -0.00402822 0 
v -0.01646 -0.00401944 1.5e-06 
v -0.01646 -0.00401944 0 
v -0.0167724 -0.00399908 1.5e-06 
v -0.0167724 -0.00399908 0 
vn 0.101251 -0.994861 0 
vn 0.101251 -0.994861 0 
vn 0.0643799 -0.997925 0 
vn 0.0643799 -0.997925 0 
vn 0.0274202 -0.999624 0 
vn 0.0274202 -0.999624 0 
vn -0.00957698 -0.999954 0 
vn -0.00957698 -0.999954 0 
vn -0.0465611 -0.998915 0 
vn -0.0465611 -0.998915 0 
vn -0.0834814 -0.996509 0 
vn -0.0834814 -0.996509 0 
f 375//375 376//376 377//377 
f 378//378 377//377 379//379 
f 380//380 379//379 381//381 
f 382//382 381//381 383//383 
f 384//384 383//383 385//385 
f 385//385 386//386 384//384 
f 383//383 384//384 382//382 
f 381//381 382//382 380//380 
f 379//379 380//380 378//378 
f 377//377 378//378 375//375 
o mesh121
v -0.0134889 -0.00358315 0 
v -0.0134889 -0.00358315 1.5e-06 
v -0.0137674 -0.00368121 1.5e-06 
v -0.0137674 -0.00368121 0 
v -0.01405 -0.00376704 1.5e-06 
v -0.01405 -0.00376704 0 
v -0.0143361 -0.00384048 1.5e-06 
v -0.0143361 -0.00384048 0 
v -0.0146251 -0.00390138 1.5e-06 
v -0.0146251 -0.00390138 0 
v -0.0149164 -0.00394963 1.5e-06 
v -0.0149164 -0.00394963 0 
v -0.0152096 -0.00398514 1.5e-06 
v -0.0152096 -0.00398514 0 
vn 0.35251 -0.935808 0 
vn 0.35251 -0.935808 0 
vn 0.311401 -0.950279 0 
vn 0.311401 -0.950279 0 
vn 0.2697 -0.962944 0 
vn 0.2697 -0.962944 0 
vn 0.227486 -0.973781 0 
vn 0.227486 -0.973781 0 
vn 0.184841 -0.982768 0 
vn 0.184841 -0.982768 0 
vn 0.141844 -0.989889 0 
vn 0.141844 -0.989889 0 
vn 0.0985784 -0.995129 0 
vn 0.0985784 -0.995129 0 
f 387//387 388//388 389//389 
f 390//390 389//389 391//391 
f 392//392 391//391 393//393 
f 394//394 393//393 395//395 
f 396//396 395//395 397//397 
f 398//398 397//397 399//399 
f 399//399 400//400 398//398 
f 397//397 398//398 396//396 
f 395//395 396//396 394//394 
f 393//393 394//394 392//392 
f 391//391 392//392 390//390 
f 389//389 390//390 387//387 
o mesh122
v -0.0119305 -0.00264836 0 
v -0.0119305 -0.00264836 1.5e-06 
v -0.0120857 -0.00277932 1.5e-06 
v -0.0120857 -0.00277932 0 
v -0.0122459 -0.00290394 1.5e-06 
v -0.0122459 -0.00290394 0 
v -0.012411 -0.00302202 1.5e-06 
v -0.012411 -0.00302202 0 
v -0.0125808 -0.00313336 1.5e-06 
v -0.0125808 -0.00313336 0 
v -0.0127549 -0.00323779 1.5e-06 
v -0.0127549 -0.00323779 0 
v -0.012933 -0.00333514 1.5e-06 
v -0.012933 -0.00333514 0 
v -0.0131149 -0.00342524 1.5e-06 
v -0.0131149 -0.00342524 0 
v -0.0133003 -0.00350796 1.5e-06 
v -0.0133003 -0.00350796 0 
v -0.0134889 -0.00358315 1.5e-06 
v -0.0134889 -0.00358315 0 
vn 0.660365 -0.750945 0 
vn 0.660365 -0.750945 0 
vn 0.629638 -0.776889 0 
vn 0.629638 -0.776889 0 
vn 0.597893 -0.801576 0 
vn 0.597893 -0.801576 0 
vn 0.565181 -0.824967 0 
vn 0.565181 -0.824967 0 
vn 0.531555 -0.847024 0 
vn 0.531555 -0.847024 0 
vn 0.49707 -0.867711 0 
vn 0.49707 -0.867711 0 
vn 0.46178 -0.886994 0 
vn 0.46178 -0.886994 0 
vn 0.425744 -0.904844 0 
vn 0.425744 -0.904844 0 
vn 0.389019 -0.92123 0 
vn 0.389019 -0.92123 0 
vn 0.351666 -0.936126 0 
vn 0.351666 -0.936126 0 
f 401//401 402//402 403//403 
f 404//404 403//403 405//405 
f 406//406 405//405 407//407 
f 408//408 407//407 409//409 
f 410//410 409//409 411//411 
f 412//412 411//411 413//413 
f 414//414 413//413 415//415 
f 416//416 415//415 417//417 
f 418//418 417//417 419//419 
f 419//419 420//420 418//418 
f 417//417 418//418 416//416 
f 415//415 416//416 414//414 
f 413//413 414//414 412//412 
f 411//411 412//412 410//410 
f 409//409 410//410 408//408 
f 407//407 408//408 406//406 
f 405//405 406//406 404//404 
f 403//403 404//404 401//401 
o mesh123
v -0.0118125 -0.00254244 0 
v -0.0118125 -0.00254244 1.5e-06 
v -0.0118407 -0.00257036 1.5e-06 
v -0.0118407 -0.00257036 0 
v -0.0118698 -0.00259734 1.5e-06 
v -0.0118698 -0.00259734 0 
v -0.0118997 -0.00262335 1.5e-06 
v -0.0118997 -0.00262335 0 
v -0.0119305 -0.00264836 1.5e-06 
v -0.0119305 -0.00264836 0 
vn 0.7153 -0.698818 0 
vn 0.7153 -0.698818 0 
vn 0.691877 -0.722016 0 
vn 0.691877 -0.722016 0 
vn 0.667701 -0.744429 0 
vn 0.667701 -0.744429 0 
vn 0.642801 -0.766034 0 
vn 0.642801 -0.766034 0 
vn 0.617201 -0.786805 0 
vn 0.617201 -0.786805 0 
f 421//421 422//422 423//423 
f 424//424 423//423 425//425 
f 426//426 425//425 427//427 
f 428//428 427//427 429//429 
f 429//429 430//430 428//428 
f 427//427 428//428 426//426 
f 425//425 426//426 424//424 
f 423//423 424//424 421//421 
o mesh124
v -0.0111134 -0.00160565 0 
v -0.0111134 -0.00160565 1.5e-06 
v -0.0111843 -0.00173409 1.5e-06 
v -0.0111843 -0.00173409 0 
v -0.0112601 -0.00185966 1.5e-06 
v -0.0112601 -0.00185966 0 
v -0.0113408 -0.00198217 1.5e-06 
v -0.0113408 -0.00198217 0 
v -0.0114262 -0.00210143 1.5e-06 
v -0.0114262 -0.00210143 0 
v -0.0115163 -0.00221726 1.5e-06 
v -0.0115163 -0.00221726 0 
v -0.0116107 -0.00232949 1.5e-06 
v -0.0116107 -0.00232949 0 
v -0.0117095 -0.00243793 1.5e-06 
v -0.0117095 -0.00243793 0 
v -0.0118125 -0.00254244 1.5e-06 
v -0.0118125 -0.00254244 0 
vn 0.884813 -0.465946 0 
vn 0.884813 -0.465946 0 
vn 0.865927 -0.500171 0 
vn 0.865927 -0.500171 0 
vn 0.845717 -0.533632 0 
vn 0.845717 -0.533632 0 
vn 0.824215 -0.566278 0 
vn 0.824215 -0.566278 0 
vn 0.801453 -0.598058 0 
vn 0.801453 -0.598058 0 
vn 0.777467 -0.628924 0 
vn 0.777467 -0.628924 0 
vn 0.752292 -0.65883 0 
vn 0.752292 -0.65883 0 
vn 0.725968 -0.687728 0 
vn 0.725968 -0.687728 0 
vn 0.698535 -0.715576 0 
vn 0.698535 -0.715576 0 
f 431//431 432//432 433//433 
f 434//434 433//433 435//435 
f 436//436 435//435 437//437 
f 438//438 437//437 439//439 
f 440//440 439//439 441//441 
f 442//442 441//441 443//443 
f 444//444 443//443 445//445 
f 446//446 445//445 447//447 
f 447//447 448//448 446//446 
f 445//445 446//446 444//444 
f 443//443 444//444 442//442 
f 441//441 442//442 440//440 
f 439//439 440//440 438//438 
f 437//437 438//438 436//436 
f 435//435 436//436 434//434 
f 433//433 434//434 431//431 
o mesh125
v -0.0226606 -0.00191933 1.5e-06 
v -0.0229276 0.000223103 1.5e-06 
v -0.0230112 0.000154126 1.5e-06 
v -0.0233328 -0.000953386 1.5e-06 
v -0.0232275 -0.00120736 1.5e-06 
v -0.0231852 -0.00128874 1.5e-06 
v -0.0230601 0.000109849 1.5e-06 
v -0.0231395 -0.00136823 1.5e-06 
v -0.0233013 -0.00103953 1.5e-06 
v -0.0229824 -0.00159391 1.5e-06 
v -0.0234219 -0.000568808 1.5e-06 
v -0.0234208 -0.000597725 1.5e-06 
v -0.0231071 6.35888e-05 1.5e-06 
v -0.0229238 -0.00166441 1.5e-06 
v -0.0230904 -0.00144569 1.5e-06 
v -0.023038 -0.00152096 1.5e-06 
v -0.0232662 -0.00112424 1.5e-06 
v -0.0233845 -0.000777449 1.5e-06 
v -0.0233605 -0.000865972 1.5e-06 
v -0.0234046 -0.000687978 1.5e-06 
v -0.0234176 -0.000482157 1.5e-06 
v -0.0234203 -0.00051097 1.5e-06 
v -0.0234022 -0.000396775 1.5e-06 
v -0.0234086 -0.000425006 1.5e-06 
v -0.0231521 1.5426e-05 1.5e-06 
v -0.0227976 -0.00179753 1.5e-06 
v -0.0227304 -0.00185991 1.5e-06 
v -0.0228621 -0.00173233 1.5e-06 
v -0.0234217 -0.000539872 1.5e-06 
v -0.0234137 -0.000453485 1.5e-06 
v -0.0233859 -0.000341258 1.5e-06 
v -0.0233947 -0.000368841 1.5e-06 
v -0.0233567 -0.000273826 1.5e-06 
v -0.023376 -0.000314075 1.5e-06 
v -0.0231952 -3.45575e-05 1.5e-06 
v -0.0225694 0.000466213 1.5e-06 
v -0.0226623 0.000410532 1.5e-06 
v -0.0118446 0.0012781 1.5e-06 
v -0.0114065 0.00104639 1.5e-06 
v -0.011415 0.00106111 1.5e-06 
v -0.0169259 -0.00398028 1.5e-06 
v -0.0112944 0.000810309 1.5e-06 
v -0.0112996 0.000816837 1.5e-06 
v -0.0112849 0.000796644 1.5e-06 
v -0.0112895 0.000803574 1.5e-06 
v -0.0228416 0.000288891 1.5e-06 
v -0.0227531 0.000351397 1.5e-06 
v -0.0219735 0.000742659 1.5e-06 
v -0.0221773 0.000658972 1.5e-06 
v -0.0113986 0.00103133 1.5e-06 
v -0.0113734 0.000968281 1.5e-06 
v -0.0113787 0.000984416 1.5e-06 
v -0.011261 0.000743689 1.5e-06 
v -0.0112634 0.000751642 1.5e-06 
v -0.0112555 0.000719314 1.5e-06 
v -0.0146251 -0.00390138 1.5e-06 
v -0.0143361 -0.00384048 1.5e-06 
v -0.0118125 -0.00254244 1.5e-06 
v -0.010925 -0.00118057 1.5e-06 
v -0.0108741 -0.00103409 1.5e-06 
v -0.0111843 -0.00173409 1.5e-06 
v -0.0111134 -0.00160565 1.5e-06 
v -0.0114262 -0.00210143 1.5e-06 
v -0.0113408 -0.00198217 1.5e-06 
v -0.0117095 -0.00243793 1.5e-06 
v -0.0223776 0.000566903 1.5e-06 
v -0.0224744 0.000518361 1.5e-06 
v -0.0217663 0.00081782 1.5e-06 
v -0.0115299 0.00118058 1.5e-06 
v -0.0117116 0.0012633 1.5e-06 
v -0.0117335 0.00126808 1.5e-06 
v -0.0113913 0.00101597 1.5e-06 
v -0.0113687 0.000951942 1.5e-06 
v -0.0113614 0.000924249 1.5e-06 
v -0.0220285 -0.00238699 1.5e-06 
v -0.0218596 -0.0024879 1.5e-06 
v -0.0112806 0.000789531 1.5e-06 
v -0.0112728 0.000774802 1.5e-06 
v -0.0112765 0.000782246 1.5e-06 
v -0.0112662 0.000759488 1.5e-06 
v -0.0112694 0.000767212 1.5e-06 
v -0.0112588 0.00073564 1.5e-06 
v -0.0149164 -0.00394963 1.5e-06 
v -0.01646 -0.00401944 1.5e-06 
v -0.0161472 -0.00402822 1.5e-06 
v -0.0167724 -0.00399908 1.5e-06 
v -0.0109819 -0.00132482 1.5e-06 
v -0.0110448 -0.0014666 1.5e-06 
v -0.0112601 -0.00185966 1.5e-06 
v -0.0116107 -0.00232949 1.5e-06 
v -0.0232632 -0.000121747 1.5e-06 
v -0.0232889 -0.0001583 1.5e-06 
v -0.0215562 0.000884324 1.5e-06 
v -0.0204007 0.00114327 1.5e-06 
v -0.02075 0.00108157 1.5e-06 
v -0.0117555 0.00127193 1.5e-06 
v -0.0117776 0.00127487 1.5e-06 
v -0.01169 0.00125762 1.5e-06 
v -0.0115865 0.00121603 1.5e-06 
v -0.0116476 0.00124359 1.5e-06 
v -0.0116686 0.00125105 1.5e-06 
v -0.0116065 0.00122606 1.5e-06 
v -0.0116268 0.00123525 1.5e-06 
v -0.0115479 0.00119351 1.5e-06 
v -0.0114792 0.00113779 1.5e-06 
v -0.0114956 0.0011527 1.5e-06 
v -0.0113847 0.00100032 1.5e-06 
v -0.0113647 0.000935425 1.5e-06 
v -0.0221933 -0.0022795 1.5e-06 
v -0.0225096 -0.00204549 1.5e-06 
v -0.0223538 -0.00216561 1.5e-06 
v -0.0215106 -0.0026694 1.5e-06 
v -0.0213826 -0.00273167 1.5e-06 
v -0.0216869 -0.00258209 1.5e-06 
v -0.0152096 -0.00398514 1.5e-06 
v -0.0115163 -0.00221726 1.5e-06 
v -0.0107727 -0.000681835 1.5e-06 
v -0.0118698 -0.00259734 1.5e-06 
v -0.0118407 -0.00257036 1.5e-06 
v -0.0107412 -0.000568732 1.5e-06 
v -0.0133003 -0.00350796 1.5e-06 
v -0.0131149 -0.00342524 1.5e-06 
v -0.0233357 -0.000234403 1.5e-06 
v -0.0233131 -0.000195873 1.5e-06 
v -0.0200493 0.00119159 1.5e-06 
v -0.0117999 0.00127688 1.5e-06 
v -0.0118222 0.00127796 1.5e-06 
v -0.0115669 0.00120517 1.5e-06 
v -0.0115125 0.00116697 1.5e-06 
v -0.0114483 0.00110615 1.5e-06 
v -0.0114634 0.00112226 1.5e-06 
v -0.0114241 0.00107547 1.5e-06 
v -0.0114338 0.00108946 1.5e-06 
v -0.0113262 0.000850972 1.5e-06 
v -0.0184416 -0.00371559 1.5e-06 
v -0.0179397 -0.00382241 1.5e-06 
v -0.0113195 0.000841416 1.5e-06 
v -0.0174343 -0.00391068 1.5e-06 
v -0.011257 0.000727511 1.5e-06 
v -0.0155215 -0.00401106 1.5e-06 
v -0.0158342 -0.00402543 1.5e-06 
v -0.0118997 -0.00262335 1.5e-06 
v -0.0127549 -0.00323779 1.5e-06 
v -0.0125808 -0.00313336 1.5e-06 
v -0.012933 -0.00333514 1.5e-06 
v -0.0196963 0.00122645 1.5e-06 
v -0.0213273 0.000948945 1.5e-06 
v -0.0210966 0.00100658 1.5e-06 
v -0.0113576 0.000913215 1.5e-06 
v -0.0210069 -0.00290219 1.5e-06 
v -0.0113534 0.00090234 1.5e-06 
v -0.0206248 -0.00305778 1.5e-06 
v -0.0200694 -0.00325532 1.5e-06 
v -0.0113324 0.000860789 1.5e-06 
v -0.0189393 -0.00359036 1.5e-06 
v -0.0113124 0.000832137 1.5e-06 
v -0.0104462 0.000374193 1.5e-06 
v -0.0104652 2.33724e-05 1.5e-06 
v -0.0104345 5.90364e-05 1.5e-06 
v -0.0105221 -5.15267e-05 1.5e-06 
v -0.0104944 -1.3502e-05 1.5e-06 
v -0.0108293 -0.000885627 1.5e-06 
v -0.0119305 -0.00264836 1.5e-06 
v -0.012411 -0.00302202 1.5e-06 
v -0.0122459 -0.00290394 1.5e-06 
v -0.018402 0.00128317 1.5e-06 
v -0.0232361 -8.62764e-05 1.5e-06 
v -0.0113488 0.000891643 1.5e-06 
v -0.0195073 -0.00343292 1.5e-06 
v -0.0113438 0.000881141 1.5e-06 
v -0.0112247 0.000511582 1.5e-06 
v -0.0104024 9.34316e-05 1.5e-06 
v -0.0105482 -9.06394e-05 1.5e-06 
v -0.0175537 0.0012781 1.5e-06 
v -0.0113383 0.00087085 1.5e-06 
v -0.011305 0.000823149 1.5e-06 
v -0.0120857 -0.00277932 1.5e-06 
v -0.0109408 0.000300918 1.5e-06 
v -0.0134889 -0.00358315 1.5e-06 
v -0.01405 -0.00376704 1.5e-06 
v -0.0137674 -0.00368121 1.5e-06 
v -0.0105727 -0.000130776 1.5e-06 
v -0.0106211 -0.000237776 1.5e-06 
v -0.0107054 -0.000456913 1.5e-06 
v -0.0103342 0.000158193 1.5e-06 
v -0.0099516 0.000447467 1.5e-06 
v -0.0101989 0.00041083 1.5e-06 
v -0.010369 0.000126502 1.5e-06 
v -0.0106653 -0.000346541 1.5e-06 
v -0.0106935 0.000337555 1.5e-06 
v -0.0105136 0.000829226 1.5e-06 
v -0.0107609 0.000792589 1.5e-06 
v -0.0109774 0.000548219 1.5e-06 
v -0.0102355 0.000658131 1.5e-06 
v -0.00998824 0.000694768 1.5e-06 
vn 0 0 1 
vn 0 0 1 
vn 0 0 1 
vn 0 0 1 
vn 0 0 1 
vn 0 0 1 
vn 0 0 1 
vn 0 0 1 
vn 0 0 1 
vn 0 0 1 
vn 0 0 1 
vn 0 0 1 
vn 0 0 1 
vn 0 0 1 
vn 0 0 1 
vn 0 0 1 
vn 0 0 1 
vn 0 0 1 
vn 0 0 1 
vn 0 0 1 
vn 0 0 1 
vn 0 0 1 
vn 0 0 1 
vn 0 0 1 
vn 0 0 1 
vn 0 0 1 
vn 0 0 1 
vn 0 0 1 
vn 0 0 1 
vn 0 0 1 
vn 0 0 1 
vn 0 0 1 
vn 0 0 1 
vn 0 0 1 
vn 0 0 1 
vn 0 0 1 
vn 0 0 1 
vn 0 0 1 
vn 0 0 1 
vn 0 0 1 
vn 0 0 1 
vn 0 0 1 
vn 0 0 1 
vn 0 0 1 
vn 0 0 1 
vn 0 0 1 
vn 0 0 1 
vn 0 0 1 
vn 0 0 1 
vn 0 0 1 
vn 0 0 1 
vn 0 0 1 
vn 0 0 1 
vn 0 0 1 
vn 0 0 1 
vn 0 0 1 
vn 0 0 1 
vn 0 0 1 
vn 0 0 1 
vn 0 0 1 
vn 0 0 1 
vn 0 0 1 
vn 0 0 1 
vn 0 0 1 
vn 0 0 1 
vn 0 0 1 
vn 0 0 1 
vn 0 0 1 
vn 0 0 1 
vn 0 0 1 
vn 0 0 1 
vn 0 0 1 
vn 0 0 1 
vn 0 0 1 
vn 0 0 1 
vn 0 0 1 
vn 0 0 1 
vn 0 0 1 
vn 0 0 1 
vn 0 0 1 
vn 0 0 1 
vn 0 0 1 
vn 0 0 1 
vn 0 0 1 
vn 0 0 1 
vn 0 0 1 
vn 0 0 1 
vn 0 0 1 
vn 0 0 1 
vn 0 0 1 
vn 0 0 1 
vn 0 0 1 
vn 0 0 1 
vn 0 0 1 
vn 0 0 1 
vn 0 0 1 
vn 0 0 1 
vn 0 0 1 
vn 0 0 1 
vn 0 0 1 
vn 0 0 1 
vn 0 0 1 
vn 0 0 1 
vn 0 0 1 
vn 0 0 1 
vn 0 0 1 
vn 0 0 1 
vn 0 0 1 
vn 0 0 1 
vn 0 0 1 
vn 0 0 1 
vn 0 0 1 
vn 0 0 1 
vn 0 0 1 
vn 0 0 1 
vn 0 0 1 
vn 0 0 1 
vn 0 0 1 
vn 0 0 1 
vn 0 0 1 
vn 0 0 1 
vn 0 0 1 
vn 0 0 1 
vn 0 0 1 
vn 0 0 1 
vn 0 0 1 
vn 0 0 1 
vn 0 0 1 
vn 0 0 1 
vn 0 0 1 
vn 0 0 1 
vn 0 0 1 
vn 0 0 1 
vn 0 0 1 
vn 0 0 1 
vn 0 0 1 
vn 0 0 1 
vn 0 0 1 
vn 0 0 1 
vn 0 0 1 
vn 0 0 1 
vn 0 0 1 
vn 0 0 1 
vn 0 0 1 
vn 0 0 1 
vn 0 0 1 
vn 0 0 1 
vn 0 0 1 
vn 0 0 1 
vn 0 0 1 
vn 0 0 1 
vn 0 0 1 
vn 0 0 1 
vn 0 0 1 
vn 0 0 1 
vn 0 0 1 
vn 0 0 1 
vn 0 0 1 
vn 0 0 1 
vn 0 0 1 
vn 0 0 1 
vn 0 0 1 
vn 0 0 1 
vn 0 0 1 
vn 0 0 1 
vn 0 0 1 
vn 0 0 1 
vn 0 0 1 
vn 0 0 1 
vn 0 0 1 
vn 0 0 1 
vn 0 0 1 
vn 0 0 1 
vn 0 0 1 
vn 0 0 1 
vn 0 0 1 
vn 0 0 1 
vn 0 0 1 
vn 0 0 1 
vn 0 0 1 
vn 0 0 1 
vn 0 0 1 
vn 0 0 1 
vn 0 0 1 
vn 0 0 1 
vn 0 0 1 
vn 0 0 1 
vn 0 0 1 
vn 0 0 1 
vn 0 0 1 
vn 0 0 1 
vn 0 0 1 
vn 0 0 1 
vn 0 0 1 
vn 0 0 1 
f 449//449 450//450 451//451 
f 452//452 453//453 454//454 
f 451//451 455//455 449//449 
f 454//454 456//456 452//452 
f 453//453 452//452 457//457 
f 458//458 459//459 460//460 
f 455//455 461//461 449//449 
f 459//459 458//458 462//462 
f 452//452 463//463 464//464 
f 457//457 465//465 453//453 
f 458//458 466//466 467//467 
f 460//460 468//468 458//458 
f 449//449 469//469 470//470 
f 449//449 471//471 472//472 
f 461//461 473//473 449//449 
f 459//459 474//474 475//475 
f 462//462 476//476 459//459 
f 456//456 463//463 452//452 
f 468//468 466//466 458//458 
f 470//470 477//477 449//449 
f 472//472 478//478 449//449 
f 449//449 479//479 480//480 
f 449//449 481//481 482//482 
f 473//473 483//483 449//449 
f 449//449 484//484 485//485 
f 486//486 487//487 488//488 
f 489//489 490//490 491//491 
f 489//489 492//492 493//493 
f 476//476 474//474 459//459 
f 467//467 452//452 458//458 
f 478//478 469//469 449//449 
f 482//482 479//479 449//449 
f 449//449 494//494 450//450 
f 485//485 495//495 449//449 
f 449//449 496//496 497//497 
f 486//486 498//498 487//487 
f 486//486 499//499 500//500 
f 493//493 490//490 489//489 
f 489//489 501//501 502//502 
f 503//503 504//504 505//505 
f 506//506 507//507 508//508 
f 506//506 509//509 510//510 
f 506//506 511//511 512//512 
f 511//511 506//506 513//513 
f 464//464 458//458 452//452 
f 480//480 471//471 449//449 
f 495//495 494//494 449//449 
f 449//449 514//514 515//515 
f 449//449 516//516 496//496 
f 517//517 518//518 519//519 
f 486//486 520//520 498//498 
f 486//486 521//521 499//499 
f 522//522 523//523 524//524 
f 489//489 525//525 492//492 
f 489//489 526//526 527//527 
f 489//489 528//528 529//529 
f 489//489 530//530 501//501 
f 503//503 531//531 504//504 
f 503//503 532//532 533//533 
f 503//503 489//489 534//534 
f 506//506 535//535 507//507 
f 510//510 536//536 506//506 
f 512//512 537//537 506//506 
f 513//513 538//538 511//511 
f 477//477 459//459 449//449 
f 449//449 539//539 540//540 
f 515//515 484//484 449//449 
f 449//449 541//541 516//516 
f 449//449 542//542 543//543 
f 517//517 544//544 545//545 
f 517//517 546//546 518//518 
f 547//547 548//548 549//549 
f 547//547 550//550 551//551 
f 546//546 517//517 552//552 
f 486//486 553//553 554//554 
f 486//486 555//555 520//520 
f 486//486 556//556 521//521 
f 556//556 557//557 523//523 
f 556//556 558//558 559//559 
f 522//522 560//560 561//561 
f 524//524 562//562 522//522 
f 527//527 525//525 489//489 
f 502//502 528//528 489//489 
f 503//503 563//563 531//531 
f 534//534 532//532 503//503 
f 536//536 535//535 506//506 
f 538//538 564//564 511//511 
f 565//565 566//566 567//567 
f 568//568 569//569 570//570 
f 449//449 571//571 481//481 
f 540//540 572//572 449//449 
f 497//497 514//514 449//449 
f 449//449 573//573 542//542 
f 517//517 574//574 575//575 
f 519//519 544//544 517//517 
f 551//551 548//548 547//547 
f 552//552 576//576 546//546 
f 554//554 577//577 486//486 
f 486//486 578//578 579//579 
f 486//486 580//580 581//581 
f 500//500 555//555 486//486 
f 559//559 557//557 556//556 
f 562//562 560//560 522//522 
f 582//582 583//583 584//584 
f 585//585 584//584 586//586 
f 529//529 526//526 489//489 
f 489//489 503//503 587//587 
f 503//503 588//588 563//563 
f 533//533 589//589 503//503 
f 537//537 509//509 506//506 
f 565//565 590//590 566//566 
f 568//568 591//591 592//592 
f 570//570 593//593 568//568 
f 558//558 594//594 573//573 
f 572//572 571//571 449//449 
f 449//449 595//595 541//541 
f 543//543 596//596 449//449 
f 545//545 574//574 517//517 
f 576//576 547//547 546//546 
f 579//579 553//553 486//486 
f 488//488 580//580 486//486 
f 561//561 597//597 522//522 
f 597//597 561//561 598//598 
f 599//599 600//600 601//601 
f 602//602 603//603 583//583 
f 586//586 604//604 585//585 
f 587//587 530//530 489//489 
f 589//589 588//588 503//503 
f 605//605 606//606 607//607 
f 605//605 608//608 609//609 
f 508//508 610//610 506//506 
f 565//565 611//611 590//590 
f 568//568 612//612 613//613 
f 593//593 591//591 568//568 
f 558//558 614//614 594//594 
f 449//449 615//615 539//539 
f 596//596 595//595 449//449 
f 549//549 546//546 547//547 
f 581//581 578//578 486//486 
f 598//598 599//599 597//597 
f 599//599 598//598 600//600 
f 616//616 601//601 617//617 
f 618//618 617//617 603//603 
f 584//584 585//585 582//582 
f 604//604 586//586 489//489 
f 505//505 619//619 503//503 
f 607//607 620//620 605//605 
f 605//605 621//621 608//608 
f 567//567 506//506 565//565 
f 592//592 612//612 568//568 
f 558//558 622//622 614//614 
f 483//483 615//615 449//449 
f 556//556 486//486 622//622 
f 577//577 517//517 486//486 
f 601//601 616//616 599//599 
f 603//603 623//623 618//618 
f 583//583 582//582 602//602 
f 491//491 624//624 489//489 
f 609//609 606//606 605//605 
f 610//610 565//565 506//506 
f 613//613 625//625 568//568 
f 475//475 449//449 459//459 
f 575//575 486//486 517//517 
f 617//617 618//618 616//616 
f 489//489 624//624 604//604 
f 626//626 627//627 569//569 
f 626//626 628//628 629//629 
f 605//605 630//630 621//621 
f 569//569 631//631 630//630 
f 569//569 568//568 632//632 
f 625//625 611//611 568//568 
f 622//622 558//558 556//556 
f 602//602 623//623 603//603 
f 619//619 628//628 626//626 
f 629//629 627//627 626//626 
f 633//633 634//634 635//635 
f 620//620 636//636 605//605 
f 569//569 637//637 631//631 
f 565//565 568//568 611//611 
f 523//523 522//522 556//556 
f 619//619 505//505 628//628 
f 569//569 605//605 638//638 
f 605//605 639//639 640//640 
f 636//636 633//633 605//605 
f 632//632 637//637 569//569 
f 626//626 641//641 619//619 
f 640//640 638//638 605//605 
f 630//630 605//605 569//569 
f 642//642 635//635 634//634 
f 569//569 638//638 626//626 
f 634//634 643//643 642//642 
f 635//635 605//605 633//633 
f 573//573 449//449 558//558 
o mesh126
v -0.0233328 -0.000953386 0 
v -0.0231395 -0.00136823 0 
v -0.0231852 -0.00128874 0 
v -0.0229824 -0.00159391 0 
v -0.0234046 -0.000687978 0 
v -0.0234208 -0.000597725 0 
v -0.0232275 -0.00120736 0 
v -0.0232662 -0.00112424 0 
v -0.0233013 -0.00103953 0 
v -0.0230904 -0.00144569 0 
v -0.0118446 0.0012781 0 
v -0.0114241 0.00107547 0 
v -0.011415 0.00106111 0 
v -0.0226606 -0.00191933 0 
v -0.0231521 1.5426e-05 0 
v -0.0231071 6.35888e-05 0 
v -0.0232361 -8.62764e-05 0 
v -0.0231952 -3.45575e-05 0 
v -0.0233845 -0.000777449 0 
v -0.0233605 -0.000865972 0 
v -0.023038 -0.00152096 0 
v -0.0234219 -0.000568808 0 
v -0.0228621 -0.00173233 0 
v -0.0229238 -0.00166441 0 
v -0.0114065 0.00104639 0 
v -0.0114483 0.00110615 0 
v -0.0114338 0.00108946 0 
v -0.0230601 0.000109849 0 
v -0.0230112 0.000154126 0 
v -0.0227976 -0.00179753 0 
v -0.0227304 -0.00185991 0 
v -0.0108293 -0.000885627 0 
v -0.0114262 -0.00210143 0 
v -0.0115163 -0.00221726 0 
v -0.0112601 -0.00185966 0 
v -0.0113408 -0.00198217 0 
v -0.0111843 -0.00173409 0 
v -0.0108741 -0.00103409 0 
v -0.0227531 0.000351397 0 
v -0.0226623 0.000410532 0 
v -0.0234217 -0.000539872 0 
v -0.0234203 -0.00051097 0 
v -0.0116107 -0.00232949 0 
v -0.0109819 -0.00132482 0 
v -0.0110448 -0.0014666 0 
v -0.010925 -0.00118057 0 
v -0.0113847 0.00100032 0 
v -0.0113787 0.000984416 0 
v -0.0113986 0.00103133 0 
v -0.0115299 0.00118058 0 
v -0.0117555 0.00127193 0 
v -0.0117335 0.00126808 0 
v -0.0228416 0.000288891 0 
v -0.0229276 0.000223103 0 
v -0.0234137 -0.000453485 0 
v -0.0234086 -0.000425006 0 
v -0.0169259 -0.00398028 0 
v -0.0112944 0.000810309 0 
v -0.0112895 0.000803574 0 
v -0.011305 0.000823149 0 
v -0.0112996 0.000816837 0 
v -0.0113614 0.000924249 0 
v -0.0216869 -0.00258209 0 
v -0.0218596 -0.0024879 0 
v -0.0113734 0.000968281 0 
v -0.0113913 0.00101597 0 
v -0.0117116 0.0012633 0 
v -0.0117999 0.00127688 0 
v -0.0117776 0.00127487 0 
v -0.0219735 0.000742659 0 
v -0.0217663 0.00081782 0 
v -0.0234176 -0.000482157 0 
v -0.0111134 -0.00160565 0 
v -0.0112555 0.000719314 0 
v -0.0146251 -0.00390138 0 
v -0.0149164 -0.00394963 0 
v -0.0112247 0.000511582 0 
v -0.0143361 -0.00384048 0 
v -0.0112662 0.000759488 0 
v -0.0112634 0.000751642 0 
v -0.0215106 -0.0026694 0 
v -0.0113576 0.000913215 0 
v -0.0213826 -0.00273167 0 
v -0.01169 0.00125762 0 
v -0.0115669 0.00120517 0 
v -0.0115479 0.00119351 0 
v -0.0115865 0.00121603 0 
v -0.0116476 0.00124359 0 
v -0.0116268 0.00123525 0 
v -0.0116686 0.00125105 0 
v -0.0221773 0.000658972 0 
v -0.0225694 0.000466213 0 
v -0.0234022 -0.000396775 0 
v -0.0233947 -0.000368841 0 
v -0.0107412 -0.000568732 0 
v -0.012933 -0.00333514 0 
v -0.0131149 -0.00342524 0 
v -0.0107727 -0.000681835 0 
v -0.0118698 -0.00259734 0 
v -0.0118997 -0.00262335 0 
v -0.0118125 -0.00254244 0 
v -0.0118407 -0.00257036 0 
v -0.0117095 -0.00243793 0 
v -0.011261 0.000743689 0 
v -0.0112728 0.000774802 0 
v -0.0112694 0.000767212 0 
v -0.0112806 0.000789531 0 
v -0.0112765 0.000782246 0 
v -0.0112849 0.000796644 0 
v -0.0113383 0.00087085 0 
v -0.0113324 0.000860789 0 
v -0.0174343 -0.00391068 0 
v -0.0113534 0.00090234 0 
v -0.0113488 0.000891643 0 
v -0.0200694 -0.00325532 0 
v -0.0210069 -0.00290219 0 
v -0.0113687 0.000951942 0 
v -0.0118222 0.00127796 0 
v -0.0210966 0.00100658 0 
v -0.02075 0.00108157 0 
v -0.0223776 0.000566903 0 
v -0.0224744 0.000518361 0 
v -0.0232889 -0.0001583 0 
v -0.0232632 -0.000121747 0 
v -0.0233859 -0.000341258 0 
v -0.023376 -0.000314075 0 
v -0.0127549 -0.00323779 0 
v -0.012411 -0.00302202 0 
v -0.0125808 -0.00313336 0 
v -0.0119305 -0.00264836 0 
v -0.0120857 -0.00277932 0 
v -0.01646 -0.00401944 0 
v -0.0167724 -0.00399908 0 
v -0.0158342 -0.00402543 0 
v -0.0161472 -0.00402822 0 
v -0.0152096 -0.00398514 0 
v -0.0113262 0.000850972 0 
v -0.0113195 0.000841416 0 
v -0.0179397 -0.00382241 0 
v -0.0113438 0.000881141 0 
v -0.0189393 -0.00359036 0 
v -0.0195073 -0.00343292 0 
v -0.0206248 -0.00305778 0 
v -0.0220285 -0.00238699 0 
v -0.0114634 0.00112226 0 
v -0.0116065 0.00122606 0 
v -0.0204007 0.00114327 0 
v -0.0233131 -0.000195873 0 
v -0.0122459 -0.00290394 0 
v -0.0104462 0.000374193 0 
v -0.0104652 2.33724e-05 0 
v -0.0104944 -1.3502e-05 0 
v -0.0104024 9.34316e-05 0 
v -0.0104345 5.90364e-05 0 
v -0.0155215 -0.00401106 0 
v -0.0112588 0.00073564 0 
v -0.011257 0.000727511 0 
v -0.0184416 -0.00371559 0 
v -0.0114792 0.00113779 0 
v -0.0115125 0.00116697 0 
v -0.0114956 0.0011527 0 
v -0.0213273 0.000948945 0 
v -0.0215562 0.000884324 0 
v -0.0233357 -0.000234403 0 
v -0.0233567 -0.000273826 0 
v -0.0225096 -0.00204549 0 
v -0.0200493 0.00119159 0 
v -0.0105221 -5.15267e-05 0 
v -0.010369 0.000126502 0 
v -0.0113647 0.000935425 0 
v -0.0221933 -0.0022795 0 
v -0.0223538 -0.00216561 0 
v -0.0196963 0.00122645 0 
v -0.0113124 0.000832137 0 
v -0.0175537 0.0012781 0 
v -0.018402 0.00128317 0 
v -0.0133003 -0.00350796 0 
v -0.0107054 -0.000456913 0 
v -0.0105727 -0.000130776 0 
v -0.0105482 -9.06394e-05 0 
v -0.0109408 0.000300918 0 
v -0.0134889 -0.00358315 0 
v -0.0137674 -0.00368121 0 
v -0.0106935 0.000337555 0 
v -0.0106653 -0.000346541 0 
v -0.0106211 -0.000237776 0 
v -0.0103342 0.000158193 0 
v -0.0101989 0.00041083 0 
v -0.0109774 0.000548219 0 
v -0.0099516 0.000447467 0 
v -0.0107609 0.000792589 0 
v -0.01405 -0.00376704 0 
v -0.0102355 0.000658131 0 
v -0.00998824 0.000694768 0 
v -0.0105136 0.000829226 0 
vn 0 0 -1 
vn 0 0 -1 
vn 0 0 -1 
vn 0 0 -1 
vn 0 0 -1 
vn 0 0 -1 
vn 0 0 -1 
vn 0 0 -1 
vn 0 0 -1 
vn 0 0 -1 
vn 0 0 -1 
vn 0 0 -1 
vn 0 0 -1 
vn 0 0 -1 
vn 0 0 -1 
vn 0 0 -1 
vn 0 0 -1 
vn 0 0 -1 
vn 0 0 -1 
vn 0 0 -1 
vn 0 0 -1 
vn 0 0 -1 
vn 0 0 -1 
vn 0 0 -1 
vn 0 0 -1 
vn 0 0 -1 
vn 0 0 -1 
vn 0 0 -1 
vn 0 0 -1 
vn 0 0 -1 
vn 0 0 -1 
vn 0 0 -1 
vn 0 0 -1 
vn 0 0 -1 
vn 0 0 -1 
vn 0 0 -1 
vn 0 0 -1 
vn 0 0 -1 
vn 0 0 -1 
vn 0 0 -1 
vn 0 0 -1 
vn 0 0 -1 
vn 0 0 -1 
vn 0 0 -1 
vn 0 0 -1 
vn 0 0 -1 
vn 0 0 -1 
vn 0 0 -1 
vn 0 0 -1 
vn 0 0 -1 
vn 0 0 -1 
vn 0 0 -1 
vn 0 0 -1 
vn 0 0 -1 
vn 0 0 -1 
vn 0 0 -1 
vn 0 0 -1 
vn 0 0 -1 
vn 0 0 -1 
vn 0 0 -1 
vn 0 0 -1 
vn 0 0 -1 
vn 0 0 -1 
vn 0 0 -1 
vn 0 0 -1 
vn 0 0 -1 
vn 0 0 -1 
vn 0 0 -1 
vn 0 0 -1 
vn 0 0 -1 
vn 0 0 -1 
vn 0 0 -1 
vn 0 0 -1 
vn 0 0 -1 
vn 0 0 -1 
vn 0 0 -1 
vn 0 0 -1 
vn 0 0 -1 
vn 0 0 -1 
vn 0 0 -1 
vn 0 0 -1 
vn 0 0 -1 
vn 0 0 -1 
vn 0 0 -1 
vn 0 0 -1 
vn 0 0 -1 
vn 0 0 -1 
vn 0 0 -1 
vn 0 0 -1 
vn 0 0 -1 
vn 0 0 -1 
vn 0 0 -1 
vn 0 0 -1 
vn 0 0 -1 
vn 0 0 -1 
vn 0 0 -1 
vn 0 0 -1 
vn 0 0 -1 
vn 0 0 -1 
vn 0 0 -1 
vn 0 0 -1 
vn 0 0 -1 
vn 0 0 -1 
vn 0 0 -1 
vn 0 0 -1 
vn 0 0 -1 
vn 0 0 -1 
vn 0 0 -1 
vn 0 0 -1 
vn 0 0 -1 
vn 0 0 -1 
vn 0 0 -1 
vn 0 0 -1 
vn 0 0 -1 
vn 0 0 -1 
vn 0 0 -1 
vn 0 0 -1 
vn 0 0 -1 
vn 0 0 -1 
vn 0 0 -1 
vn 0 0 -1 
vn 0 0 -1 
vn 0 0 -1 
vn 0 0 -1 
vn 0 0 -1 
vn 0 0 -1 
vn 0 0 -1 
vn 0 0 -1 
vn 0 0 -1 
vn 0 0 -1 
vn 0 0 -1 
vn 0 0 -1 
vn 0 0 -1 
vn 0 0 -1 
vn 0 0 -1 
vn 0 0 -1 
vn 0 0 -1 
vn 0 0 -1 
vn 0 0 -1 
vn 0 0 -1 
vn 0 0 -1 
vn 0 0 -1 
vn 0 0 -1 
vn 0 0 -1 
vn 0 0 -1 
vn 0 0 -1 
vn 0 0 -1 
vn 0 0 -1 
vn 0 0 -1 
vn 0 0 -1 
vn 0 0 -1 
vn 0 0 -1 
vn 0 0 -1 
vn 0 0 -1 
vn 0 0 -1 
vn 0 0 -1 
vn 0 0 -1 
vn 0 0 -1 
vn 0 0 -1 
vn 0 0 -1 
vn 0 0 -1 
vn 0 0 -1 
vn 0 0 -1 
vn 0 0 -1 
vn 0 0 -1 
vn 0 0 -1 
vn 0 0 -1 
vn 0 0 -1 
vn 0 0 -1 
vn 0 0 -1 
vn 0 0 -1 
vn 0 0 -1 
vn 0 0 -1 
vn 0 0 -1 
vn 0 0 -1 
vn 0 0 -1 
vn 0 0 -1 
vn 0 0 -1 
vn 0 0 -1 
vn 0 0 -1 
vn 0 0 -1 
vn 0 0 -1 
vn 0 0 -1 
vn 0 0 -1 
vn 0 0 -1 
vn 0 0 -1 
vn 0 0 -1 
vn 0 0 -1 
vn 0 0 -1 
vn 0 0 -1 
vn 0 0 -1 
vn 0 0 -1 
vn 0 0 -1 
vn 0 0 -1 
vn 0 0 -1 
f 644//644 645//645 646//646 
f 647//647 648//648 649//649 
f 650//650 651//651 652//652 
f 644//644 653//653 645//645 
f 654//654 655//655 656//656 
f 657//657 658//658 659//659 
f 657//657 660//660 661//661 
f 647//647 662//662 648//648 
f 647//647 644//644 663//663 
f 646//646 650//650 644//644 
f 644//644 647//647 664//664 
f 665//665 666//666 667//667 
f 656//656 668//668 654//654 
f 654//654 669//669 670//670 
f 657//657 671//671 672//672 
f 661//661 658//658 657//657 
f 663//663 662//662 647//647 
f 664//664 653//653 644//644 
f 665//665 673//673 666//666 
f 665//665 657//657 674//674 
f 675//675 676//676 677//677 
f 675//675 678//678 679//679 
f 680//680 675//675 681//681 
f 670//670 655//655 654//654 
f 657//657 682//682 683//683 
f 659//659 671//671 657//657 
f 657//657 684//684 685//685 
f 652//652 644//644 650//650 
f 674//674 673//673 665//665 
f 677//677 686//686 675//675 
f 675//675 680//680 678//678 
f 680//680 687//687 688//688 
f 681//681 689//689 680//680 
f 654//654 690//690 691//691 
f 668//668 692//692 654//654 
f 693//693 694//694 695//695 
f 657//657 696//696 682//682 
f 672//672 697//697 657//657 
f 657//657 698//698 699//699 
f 657//657 665//665 684//684 
f 667//667 647//647 665//665 
f 679//679 676//676 675//675 
f 689//689 687//687 680//680 
f 700//700 701//701 702//702 
f 700//700 703//703 704//704 
f 705//705 706//706 707//707 
f 691//691 708//708 654//654 
f 692//692 709//709 654//654 
f 695//695 710//710 693//693 
f 693//693 711//711 712//712 
f 657//657 713//713 714//714 
f 697//697 696//696 657//657 
f 657//657 715//715 698//698 
f 649//649 665//665 647//647 
f 688//688 716//716 680//680 
f 717//717 718//718 719//719 
f 717//717 720//720 721//721 
f 700//700 722//722 723//723 
f 704//704 701//701 700//700 
f 705//705 724//724 706//706 
f 705//705 725//725 726//726 
f 709//709 690//690 654//654 
f 727//727 728//728 729//729 
f 730//730 731//731 732//732 
f 730//730 727//727 733//733 
f 712//712 694//694 693//693 
f 657//657 734//734 713//713 
f 683//683 735//735 657//657 
f 657//657 736//736 737//737 
f 685//685 715//715 657//657 
f 738//738 739//739 740//740 
f 741//741 742//742 743//743 
f 741//741 744//744 745//745 
f 686//686 746//746 675//675 
f 721//721 718//718 717//717 
f 723//723 747//747 700//700 
f 700//700 748//748 749//749 
f 700//700 750//750 751//751 
f 702//702 752//752 700//700 
f 753//753 754//754 755//755 
f 756//756 757//757 758//758 
f 725//725 756//756 759//759 
f 726//726 724//724 705//705 
f 708//708 760//760 654//654 
f 727//727 730//730 728//728 
f 733//733 731//731 730//730 
f 693//693 761//761 711//711 
f 657//657 762//762 763//763 
f 657//657 764//764 734//734 
f 735//735 765//765 657//657 
f 657//657 766//766 767//767 
f 657//657 768//768 769//769 
f 699//699 736//736 657//657 
f 738//738 770//770 739//739 
f 738//738 771//771 772//772 
f 738//738 773//773 774//774 
f 745//745 742//742 741//741 
f 744//744 741//741 675//675 
f 717//717 775//775 776//776 
f 717//717 777//777 778//778 
f 719//719 779//779 717//717 
f 749//749 722//722 700//700 
f 752//752 750//750 700//700 
f 755//755 780//780 781//781 
f 755//755 782//782 753//753 
f 783//783 753//753 784//784 
f 757//757 783//783 785//785 
f 758//758 786//786 756//756 
f 707//707 787//787 705//705 
f 654//654 788//788 669//669 
f 732//732 789//789 730//730 
f 693//693 654//654 761//761 
f 763//763 790//790 657//657 
f 765//765 764//764 657//657 
f 657//657 791//791 766//766 
f 737//737 768//768 657//657 
f 772//772 770//770 738//738 
f 774//774 792//792 738//738 
f 746//746 744//744 675//675 
f 793//793 794//794 795//795 
f 793//793 796//796 797//797 
f 778//778 775//775 717//717 
f 779//779 798//798 717//717 
f 700//700 799//799 800//800 
f 751//751 748//748 700//700 
f 755//755 754//754 780//780 
f 782//782 801//801 753//753 
f 785//785 758//758 757//757 
f 759//759 726//726 725//725 
f 654//654 802//802 788//788 
f 654//654 803//803 804//804 
f 710//710 727//727 693//693 
f 657//657 805//805 762//762 
f 714//714 806//806 657//657 
f 657//657 807//807 791//791 
f 769//769 808//808 657//657 
f 809//809 657//657 810//810 
f 792//792 771//771 738//738 
f 773//773 738//738 741//741 
f 795//795 811//811 793//793 
f 793//793 812//812 796//796 
f 798//798 777//777 717//717 
f 747//747 799//799 700//700 
f 801//801 784//784 753//753 
f 786//786 759//759 756//756 
f 813//813 814//814 815//815 
f 813//813 705//705 787//787 
f 804//804 802//802 654//654 
f 729//729 693//693 727//727 
f 806//806 805//805 657//657 
f 808//808 807//807 657//657 
f 810//810 816//816 809//809 
f 743//743 773//773 741//741 
f 797//797 794//794 793//793 
f 800//800 717//717 700//700 
f 817//817 703//703 700//700 
f 784//784 785//785 783//783 
f 787//787 814//814 813//813 
f 693//693 803//803 654//654 
f 813//813 809//809 818//818 
f 767//767 660//660 657//657 
f 816//816 819//819 809//809 
f 820//820 821//821 738//738 
f 820//820 793//793 822//822 
f 811//811 823//823 793//793 
f 824//824 825//825 826//826 
f 824//824 827//827 820//820 
f 700//700 755//755 817//817 
f 815//815 809//809 813//813 
f 818//818 654//654 813//813 
f 819//819 818//818 809//809 
f 820//820 828//828 821//821 
f 822//822 829//829 820//820 
f 793//793 830//830 812//812 
f 830//830 793//793 831//831 
f 820//820 825//825 824//824 
f 720//720 832//832 824//824 
f 781//781 817//817 755//755 
f 790//790 810//810 657//657 
f 829//829 828//828 820//820 
f 831//831 833//833 830//830 
f 793//793 827//827 834//834 
f 826//826 835//835 824//824 
f 824//824 835//835 720//720 
f 760//760 813//813 654//654 
f 836//836 837//837 833//833 
f 823//823 822//822 793//793 
f 827//827 793//793 820//820 
f 776//776 700//700 717//717 
f 740//740 820//820 738//738 
f 835//835 721//721 720//720 
f 834//834 838//838 793//793 
f 833//833 831//831 836//836 
o mesh127
v -0.0108293 -0.000885627 0 
v -0.0108293 -0.000885627 1.5e-06 
v -0.0108741 -0.00103409 1.5e-06 
v -0.0108741 -0.00103409 0 
v -0.010925 -0.00118057 1.5e-06 
v -0.010925 -0.00118057 0 
v -0.0109819 -0.00132482 1.5e-06 
v -0.0109819 -0.00132482 0 
v -0.0110448 -0.0014666 1.5e-06 
v -0.0110448 -0.0014666 0 
v -0.0111134 -0.00160565 1.5e-06 
v -0.0111134 -0.00160565 0 
vn 0.963109 -0.269113 0 
vn 0.963109 -0.269113 0 
vn 0.951161 -0.308696 0 
vn 0.951161 -0.308696 0 
vn 0.937587 -0.347751 0 
vn 0.937587 -0.347751 0 
vn 0.92241 -0.386212 0 
vn 0.92241 -0.386212 0 
vn 0.905656 -0.424013 0 
vn 0.905656 -0.424013 0 
vn 0.887354 -0.461088 0 
vn 0.887354 -0.461088 0 
f 839//839 840//840 841//841 
f 842//842 841//841 843//843 
f 844//844 843//843 845//845 
f 846//846 845//845 847//847 
f 848//848 847//847 849//849 
f 849//849 850//850 848//848 
f 847//847 848//848 846//846 
f 845//845 846//846 844//844 
f 843//843 844//844 842//842 
f 841//841 842//842 839//839 
o mesh128
v -0.0107727 -0.000681835 0 
v -0.0107727 -0.000681835 1.5e-06 
v -0.0108293 -0.000885627 1.5e-06 
v -0.0108293 -0.000885627 0 
vn 0.96531 -0.261105 0 
vn 0.96531 -0.261105 0 
vn 0.961798 -0.27376 0 
vn 0.961798 -0.27376 0 
f 851//851 852//852 853//853 
f 853//853 854//854 851//851 
o mesh129
v -0.0106211 -0.000237776 0 
v -0.0105727 -0.000130776 0 
v -0.0105727 -0.000130776 1.5e-06 
v -0.0106653 -0.000346541 0 
v -0.0106211 -0.000237776 1.5e-06 
v -0.0107054 -0.000456913 0 
v -0.0106653 -0.000346541 1.5e-06 
v -0.0107412 -0.000568732 0 
v -0.0107054 -0.000456913 1.5e-06 
v -0.0107727 -0.000681835 0 
v -0.0107412 -0.000568732 1.5e-06 
v -0.0107727 -0.000681835 1.5e-06 
vn 0.918958 -0.394356 0 
vn 0.90326 -0.429094 0 
vn 0.90326 -0.429094 0 
vn 0.933321 -0.359044 0 
vn 0.918958 -0.394356 0 
vn 0.946327 -0.323211 0 
vn 0.933321 -0.359044 0 
vn 0.957958 -0.286908 0 
vn 0.946327 -0.323211 0 
vn 0.968197 -0.250188 0 
vn 0.957958 -0.286908 0 
vn 0.968197 -0.250188 0 
f 855//855 856//856 857//857 
f 858//858 855//855 859//859 
f 860//860 858//858 861//861 
f 862//862 860//860 863//863 
f 864//864 862//862 865//865 
f 865//865 866//866 864//864 
f 863//863 865//865 862//862 
f 861//861 863//863 860//860 
f 859//859 861//861 858//858 
f 857//857 859//859 855//855 
